<svg width="24" height="25" viewBox="0 0 24 25" fill="none" xmlns="http://www.w3.org/2000/svg">
<path fill-rule="evenodd" clip-rule="evenodd" d="M23.3 9.58209H22.2319C21.9829 8.58568 21.5877 7.63165 21.0591 6.75109L21.8149 5.99509C21.8806 5.93001 21.9327 5.85259 21.9683 5.76729C22.0038 5.68199 22.022 5.59049 22.022 5.49809C22.022 5.40568 22.0038 5.31418 21.9683 5.22888C21.9327 5.14358 21.8806 5.06616 21.8149 5.00109L19.1631 2.34909C19.098 2.28348 19.0206 2.2314 18.9353 2.19586C18.85 2.16032 18.7584 2.14203 18.666 2.14203C18.5736 2.14203 18.482 2.16032 18.3967 2.19586C18.3114 2.2314 18.234 2.28348 18.1689 2.34909L17.4131 3.10409C16.532 2.57582 15.5776 2.18056 14.5811 1.93109V0.863087C14.5811 0.677435 14.5073 0.499386 14.376 0.368111C14.2447 0.236835 14.0668 0.163086 13.8811 0.163086H10.1299C9.94423 0.163086 9.76628 0.236835 9.63501 0.368111C9.50373 0.499386 9.42993 0.677435 9.42993 0.863087V1.93109C8.43366 2.18058 7.4799 2.57585 6.59912 3.10409L5.84302 2.34909C5.77794 2.28348 5.70054 2.2314 5.61523 2.19586C5.52993 2.16032 5.43836 2.14203 5.34595 2.14203C5.25354 2.14203 5.16221 2.16032 5.0769 2.19586C4.9916 2.2314 4.9142 2.28348 4.84912 2.34909L2.18799 5.00009C2.12238 5.06516 2.07021 5.14258 2.03467 5.22788C1.99913 5.31318 1.98096 5.40468 1.98096 5.49709C1.98096 5.58949 1.99913 5.68099 2.03467 5.76629C2.07021 5.85159 2.12238 5.92901 2.18799 5.99409L2.94409 6.75009C2.41524 7.63055 2.01984 8.5846 1.771 9.58109H0.699951C0.5143 9.58109 0.336354 9.65484 0.205078 9.78611C0.0738027 9.91739 0 10.0954 0 10.2811V14.0311C0 14.2167 0.0738027 14.3948 0.205078 14.5261C0.336354 14.6573 0.5143 14.7311 0.699951 14.7311H1.76904C2.01801 15.7278 2.41316 16.6822 2.94189 17.5631L2.18604 18.3181C2.05444 18.4502 1.98047 18.6291 1.98047 18.8156C1.98047 19.0021 2.05444 19.181 2.18604 19.3131L4.83789 21.9641C4.90296 22.0297 4.98062 22.0818 5.06592 22.1173C5.15122 22.1528 5.24255 22.1711 5.33496 22.1711C5.42737 22.1711 5.51895 22.1528 5.60425 22.1173C5.68955 22.0818 5.76696 22.0297 5.83203 21.9641L6.58789 21.2091C7.46846 21.7377 8.42253 22.133 9.41895 22.3821V23.4501C9.41895 23.6357 9.49275 23.8138 9.62402 23.9451C9.7553 24.0763 9.93324 24.1501 10.1189 24.1501H13.8689C14.0545 24.1501 14.2327 24.0763 14.364 23.9451C14.4953 23.8138 14.5691 23.6357 14.5691 23.4501V22.3891C15.5658 22.1401 16.52 21.7448 17.4009 21.2161L18.157 21.9711C18.2221 22.0367 18.2995 22.0888 18.3848 22.1243C18.4701 22.1598 18.5616 22.1781 18.6541 22.1781C18.7465 22.1781 18.8378 22.1598 18.9231 22.1243C19.0084 22.0888 19.0858 22.0367 19.1509 21.9711L21.803 19.3201C21.9346 19.188 22.0085 19.0091 22.0085 18.8226C22.0085 18.6361 21.9346 18.4572 21.803 18.3251L21.0471 17.5701C21.5759 16.6892 21.971 15.7348 22.22 14.7381H23.2881C23.4737 14.7381 23.6517 14.6643 23.783 14.5331C23.9142 14.4018 23.988 14.2237 23.988 14.0381V10.2881C23.988 10.1024 23.9142 9.92439 23.783 9.79311C23.6517 9.66184 23.4737 9.58809 23.2881 9.58809L23.3 9.58209ZM15.0381 9.12509C15.1991 8.9641 15.4174 8.87366 15.645 8.87366C15.8727 8.87366 16.091 8.9641 16.252 9.12509C16.4129 9.28607 16.5034 9.50442 16.5034 9.73208C16.5034 9.95975 16.4129 10.1781 16.252 10.3391L11.397 15.1951C11.2358 15.3557 11.0176 15.4459 10.79 15.4459C10.5625 15.4459 10.3443 15.3557 10.1831 15.1951L7.75488 12.7671C7.5939 12.6061 7.50366 12.3878 7.50366 12.1601C7.50366 11.9324 7.5939 11.7141 7.75488 11.5531C7.91587 11.3921 8.13439 11.3017 8.36206 11.3017C8.58973 11.3017 8.80801 11.3921 8.96899 11.5531L10.7891 13.3741L15.0381 9.12509ZM12 19.4261C10.5629 19.4261 9.15802 18.9999 7.96313 18.2015C6.76825 17.4031 5.83706 16.2684 5.28711 14.9407C4.73716 13.613 4.59317 12.152 4.87354 10.7426C5.1539 9.33309 5.84589 8.03842 6.86206 7.02225C7.87823 6.00608 9.17305 5.31406 10.5825 5.0337C11.992 4.75334 13.4528 4.89723 14.7805 5.44718C16.1082 5.99712 17.2431 6.92842 18.0415 8.12331C18.8399 9.3182 19.2661 10.723 19.2661 12.1601C19.264 14.0865 18.4977 15.9334 17.1355 17.2956C15.7733 18.6578 13.9264 19.424 12 19.4261Z" fill="currentColor"/>
</svg>
