<svg width="20" height="20" viewBox="0 0 20 20" fill="none" xmlns="http://www.w3.org/2000/svg">
<path fill-rule="evenodd" clip-rule="evenodd" d="M2 9.5H7.5C8.03043 9.5 8.53911 9.28932 8.91418 8.91425C9.28926 8.53917 9.5 8.03043 9.5 7.5V2C9.5 1.46957 9.28926 0.960888 8.91418 0.585815C8.53911 0.210743 8.03043 0 7.5 0H2C1.47005 0.00158273 0.962255 0.212794 0.587524 0.587524C0.212794 0.962255 0.00158273 1.47005 0 2V7.5C0.00132012 8.03003 0.212432 8.53799 0.587219 8.91278C0.962006 9.28757 1.46997 9.49868 2 9.5ZM13.5 11.5C12.9696 11.5 12.4609 11.7107 12.0858 12.0858C11.7107 12.4609 11.5 12.9696 11.5 13.5V18C11.5016 18.5299 11.7128 19.0377 12.0875 19.4125C12.4623 19.7872 12.9701 19.9984 13.5 20H18C18.5304 20 19.0391 19.7893 19.4142 19.4142C19.7893 19.0392 20 18.5304 20 18V13.5C20 12.9696 19.7893 12.4609 19.4142 12.0858C19.0391 11.7107 18.5304 11.5 18 11.5H13.5ZM13.5 12.979H18C18.1378 12.9795 18.2697 13.0345 18.3671 13.1319C18.4645 13.2293 18.5195 13.3613 18.52 13.499V17.999C18.5195 18.1368 18.4645 18.2687 18.3671 18.3661C18.2697 18.4635 18.1378 18.5185 18 18.519H13.5C13.3622 18.5185 13.2303 18.4635 13.1329 18.3661C13.0355 18.2687 12.9805 18.1368 12.98 17.999V13.499C12.9805 13.3613 13.0355 13.2293 13.1329 13.1319C13.2303 13.0345 13.3622 12.9795 13.5 12.979ZM9.5 13.499C9.5 12.9686 9.28926 12.4599 8.91418 12.0848C8.53911 11.7097 8.03043 11.499 7.5 11.499H3C2.46997 11.5003 1.96201 11.7115 1.58722 12.0862C1.21243 12.461 1.00132 12.969 1 13.499V17.999C1.00158 18.529 1.21279 19.0368 1.58752 19.4115C1.96225 19.7862 2.47005 19.9974 3 19.999H7.5C8.02995 19.9974 8.53775 19.7862 8.91248 19.4115C9.28721 19.0368 9.49842 18.529 9.5 17.999V13.499ZM7.5 12.979C7.63775 12.9795 7.76972 13.0345 7.86713 13.1319C7.96453 13.2293 8.01949 13.3613 8.02002 13.499V17.999C8.01949 18.1368 7.96453 18.2687 7.86713 18.3661C7.76972 18.4635 7.63775 18.5185 7.5 18.519H3C2.86225 18.5185 2.73028 18.4635 2.63287 18.3661C2.53547 18.2687 2.48051 18.1368 2.47998 17.999V13.499C2.48051 13.3613 2.53547 13.2293 2.63287 13.1319C2.73028 13.0345 2.86225 12.9795 3 12.979H7.5ZM11.5 7.49799C11.5013 8.02801 11.7124 8.53598 12.0872 8.91077C12.462 9.28555 12.97 9.49667 13.5 9.49799H18C18.5304 9.49799 19.0391 9.2873 19.4142 8.91223C19.7893 8.53716 20 8.02842 20 7.49799V2.99799C20 2.46755 19.7893 1.95887 19.4142 1.5838C19.0391 1.20873 18.5304 0.997986 18 0.997986H13.5C12.9696 0.997986 12.4609 1.20873 12.0858 1.5838C11.7107 1.95887 11.5 2.46755 11.5 2.99799V7.49799ZM18 8.01801H13.5C13.3622 8.01748 13.2303 7.96252 13.1329 7.86511C13.0355 7.76771 12.9805 7.63574 12.98 7.49799V2.99799C12.9805 2.86024 13.0355 2.72826 13.1329 2.63086C13.2303 2.53345 13.3622 2.47855 13.5 2.47803H18C18.1378 2.47855 18.2697 2.53345 18.3671 2.63086C18.4645 2.72826 18.5195 2.86024 18.52 2.99799V7.49799C18.5195 7.63574 18.4645 7.76771 18.3671 7.86511C18.2697 7.96252 18.1378 8.01748 18 8.01801ZM7.5 8.01801H2C1.86225 8.01748 1.73028 7.96252 1.63287 7.86511C1.53547 7.76771 1.48051 7.63574 1.47998 7.49799V1.99799C1.48051 1.86024 1.53547 1.72826 1.63287 1.63086C1.73028 1.53345 1.86225 1.47855 2 1.47803H7.5C7.63775 1.47855 7.76972 1.53345 7.86713 1.63086C7.96453 1.72826 8.01949 1.86024 8.02002 1.99799V7.49799C8.02002 7.63608 7.96526 7.76856 7.8678 7.86639C7.77034 7.96423 7.6381 8.01949 7.5 8.02002V8.01801Z" fill="currentColor"/>
</svg>
