<svg width="20" height="20" viewBox="0 0 20 20" fill="none" xmlns="http://www.w3.org/2000/svg">
<path fill-rule="evenodd" clip-rule="evenodd" d="M2 0H7.5C8.03043 0 8.53914 0.210743 8.91422 0.585815C9.28929 0.960888 9.5 1.46957 9.5 2V7.5C9.5 8.03043 9.28929 8.53917 8.91422 8.91425C8.53914 9.28932 8.03043 9.5 7.5 9.5H2C1.46997 9.49868 0.962037 9.28757 0.58725 8.91278C0.212463 8.53799 0.00132012 8.03003 0 7.5V2C0.00158273 1.47005 0.212794 0.962316 0.587524 0.587585C0.962255 0.212855 1.47005 0.00158273 2 0ZM3 11.5H7.5C8.03003 11.5013 8.53796 11.7125 8.91275 12.0873C9.28754 12.4621 9.49868 12.97 9.5 13.5V18C9.49842 18.5299 9.28721 19.0377 8.91248 19.4125C8.53775 19.7872 8.02995 19.9984 7.5 20H3C2.47005 19.9984 1.96225 19.7872 1.58752 19.4125C1.21279 19.0377 1.00158 18.5299 1 18V13.5C1.00132 12.97 1.21246 12.4621 1.58725 12.0873C1.96204 11.7125 2.46997 11.5013 3 11.5ZM13.5 11.5H18C18.5304 11.5 19.0391 11.7107 19.4142 12.0858C19.7893 12.4609 20 12.9696 20 13.5V18C20 18.5304 19.7893 19.0392 19.4142 19.4142C19.0391 19.7893 18.5304 20 18 20H13.5C12.9701 19.9984 12.4623 19.7872 12.0875 19.4125C11.7128 19.0377 11.5016 18.5299 11.5 18V13.5C11.5 12.9696 11.7107 12.4609 12.0858 12.0858C12.4609 11.7107 12.9696 11.5 13.5 11.5ZM13.5 1H18C18.5304 1 19.0391 1.21074 19.4142 1.58582C19.7893 1.96089 20 2.46957 20 3V7.5C20 8.03043 19.7893 8.53917 19.4142 8.91425C19.0391 9.28932 18.5304 9.5 18 9.5H13.5C12.97 9.49868 12.462 9.28757 12.0872 8.91278C11.7125 8.53799 11.5013 8.03003 11.5 7.5V3C11.5 2.46957 11.7107 1.96089 12.0858 1.58582C12.4609 1.21074 12.9696 1 13.5 1Z" fill="currentColor"/>
</svg>
