<svg width="16" height="24" viewBox="0 0 16 24" fill="none" xmlns="http://www.w3.org/2000/svg">
<path fill-rule="evenodd" clip-rule="evenodd" d="M1.4622 19.6004C0.988024 20.0859 0.724534 20.7388 0.728561 21.4175C0.732588 22.0962 1.00378 22.7459 1.48369 23.2258C1.9636 23.7058 2.61336 23.9771 3.29204 23.9812C3.97072 23.9852 4.62361 23.7215 5.10918 23.2474L9.82036 18.5354L14.5313 13.8244C15.0141 13.3403 15.2852 12.6845 15.2852 12.0008C15.2852 11.3172 15.0141 10.6614 14.5313 10.1774L5.10918 0.755356C4.62361 0.281176 3.97072 0.0175031 3.29204 0.0215298C2.61336 0.0255566 1.9636 0.296962 1.48369 0.77687C1.00378 1.25678 0.732588 1.90651 0.728561 2.58519C0.724534 3.26387 0.988024 3.91679 1.4622 4.40236L9.0623 12.0024L1.4622 19.6004Z" fill="#4D5C6F"/>
</svg>
