<svg width="16" height="25" viewBox="0 0 16 25" fill="none" xmlns="http://www.w3.org/2000/svg">
<path fill-rule="evenodd" clip-rule="evenodd" d="M14.53 19.6005C14.7742 19.8389 14.9687 20.1234 15.1021 20.4375C15.2354 20.7516 15.3051 21.0891 15.3071 21.4303C15.3092 21.7715 15.2434 22.1098 15.1138 22.4255C14.9841 22.7411 14.7931 23.0279 14.5518 23.2692C14.3105 23.5105 14.0237 23.7016 13.708 23.8312C13.3923 23.9609 13.0541 24.0266 12.7129 24.0246C12.3716 24.0225 12.0341 23.9528 11.72 23.8194C11.4059 23.686 11.1215 23.4916 10.8831 23.2475L6.17212 18.5355L1.46094 13.8245C0.978093 13.3404 0.707031 12.6846 0.707031 12.0009C0.707031 11.3173 0.978093 10.6615 1.46094 10.1775L10.8831 0.755463C11.3665 0.27184 12.0222 9.37514e-05 12.7061 2.42549e-08C13.3899 -9.37028e-05 14.0459 0.271454 14.5295 0.754944C15.0132 1.23843 15.2848 1.89424 15.2849 2.57809C15.285 3.26195 15.0135 3.91784 14.53 4.40146L6.92993 12.0015L14.53 19.6005Z" fill="#4D5C6F"/>
</svg>
