<svg width="19" height="21" viewBox="0 0 19 21" fill="none" xmlns="http://www.w3.org/2000/svg">
<path fill-rule="evenodd" clip-rule="evenodd" d="M6.0991 17.8795C6.37815 18.5143 6.83593 19.0541 7.41659 19.4332C7.99725 19.8122 8.67568 20.0141 9.3691 20.0141C10.0625 20.0141 10.741 19.8122 11.3216 19.4332C11.9023 19.0541 12.36 18.5143 12.6391 17.8795H12.6231C12.8133 17.4417 12.913 16.9699 12.9161 16.4925H18.0281C18.1891 16.4954 18.3462 16.4432 18.4734 16.3447C18.6007 16.2461 18.6906 16.107 18.7281 15.9505C18.7641 15.7998 18.7469 15.6412 18.6795 15.5017C18.6121 15.3621 18.4986 15.2501 18.3581 15.1845C17.8588 14.7842 17.473 14.2602 17.2391 13.6645C16.3846 11.4501 15.988 9.08551 16.0731 6.71351V6.68654C16.0713 5.80668 15.8963 4.93575 15.5579 4.12355C15.2196 3.31135 14.7246 2.57379 14.1012 1.95289C13.4778 1.332 12.7382 0.839965 11.9246 0.504896C11.1111 0.169828 10.2395 -0.00175925 9.3596 1.35987e-05C8.47974 0.00178644 7.60886 0.176867 6.79665 0.515211C5.98445 0.853556 5.24684 1.34853 4.62594 1.97194C4.00504 2.59534 3.51301 3.33495 3.17794 4.14851C2.84287 4.96207 2.67133 5.83366 2.6731 6.71351C2.75826 9.08551 2.3616 11.4501 1.5071 13.6645C1.27291 14.2597 0.887576 14.7837 0.389107 15.1845C0.248602 15.2501 0.134986 15.362 0.0674063 15.5015C-0.000173807 15.6411 -0.0175881 15.7996 0.0181051 15.9505C0.0556486 16.107 0.145492 16.2461 0.272774 16.3447C0.400056 16.4432 0.557151 16.4954 0.718102 16.4925H5.8301C5.83275 16.9699 5.93244 17.4418 6.1231 17.8795H6.0991Z" fill="currentColor"/>
</svg>
