<svg width="20" height="20" viewBox="0 0 20 20" fill="none" xmlns="http://www.w3.org/2000/svg">
<path fill-rule="evenodd" clip-rule="evenodd" d="M16.9586 6.81832C16.9643 7.86632 17.0311 8.91311 17.1587 9.95333C17.2751 10.9886 17.5482 12.0002 17.9687 12.9533C18.0865 13.208 18.2285 13.4507 18.3927 13.6783C18.483 13.8119 18.5913 13.9324 18.7147 14.0363C19.0309 14.2113 19.2676 14.5014 19.3756 14.8463C19.4513 15.092 19.4558 15.3541 19.3886 15.6023C19.3069 15.903 19.1284 16.1683 18.8808 16.3574C18.6332 16.5464 18.3302 16.6487 18.0186 16.6483H14.0957L13.7287 17.4783C13.3305 18.4014 12.5983 19.1401 11.6787 19.5463C11.1539 19.7777 10.5867 19.8972 10.0131 19.8972C9.43963 19.8972 8.87245 19.7777 8.34768 19.5463C7.42797 19.1399 6.69548 18.4013 6.29666 17.4783L5.92965 16.6483H2.00765C1.68929 16.6479 1.37996 16.5424 1.12765 16.3483C0.871266 16.1495 0.694022 15.8659 0.62765 15.5483C0.535024 15.286 0.539858 14.9992 0.6412 14.7401C0.742542 14.4811 0.933633 14.2671 1.17965 14.1373C1.56502 13.8207 1.8674 13.4151 2.06063 12.9553C2.42051 12.1431 2.66947 11.286 2.80068 10.4073C2.98442 9.23103 3.07268 8.04185 3.06466 6.85134C3.09081 5.02821 3.83225 3.28832 5.12918 2.00673C6.4261 0.725147 8.17464 0.00448071 9.99795 2.08222e-05C11.8213 -0.00443907 13.5733 0.707704 14.8765 1.98293C16.1797 3.25816 16.9296 4.99437 16.9647 6.81734L16.9586 6.81832ZM15.6587 10.1483C15.524 9.0494 15.4543 7.94347 15.4497 6.83632V6.82729C15.4273 5.39781 14.8429 4.03466 13.8229 3.03286C12.8029 2.03106 11.4295 1.47122 9.99984 1.47451C8.57019 1.47779 7.19933 2.04395 6.18399 3.05044C5.16864 4.05692 4.59049 5.42274 4.57467 6.85232C4.5817 8.12469 4.48536 9.39552 4.28665 10.6523C4.13309 11.6682 3.84243 12.6586 3.42263 13.5963C3.17098 14.178 2.80042 14.7005 2.33468 15.1303H17.6726C17.4872 14.9616 17.3197 14.7743 17.1726 14.5713C16.951 14.2655 16.7595 13.939 16.6007 13.5963C16.1126 12.5001 15.7952 11.3356 15.6596 10.1433L15.6587 10.1483ZM12.3267 16.8743C12.3577 16.8033 12.3857 16.7283 12.4107 16.6513H7.61068C7.63568 16.7283 7.66367 16.8033 7.69467 16.8743L7.78665 17.0843C8.04594 17.5639 8.45712 17.9437 8.95565 18.1643C9.28862 18.3094 9.64792 18.3843 10.0111 18.3843C10.3743 18.3843 10.7337 18.3094 11.0667 18.1643C11.5626 17.9448 11.9722 17.5676 12.2317 17.0913L12.3267 16.8743Z" fill="currentColor"/>
</svg>
