<svg width="24" height="24" viewBox="0 0 24 24" fill="none" xmlns="http://www.w3.org/2000/svg">
<path fill-rule="evenodd" clip-rule="evenodd" d="M14.4 16.8H6C5.68174 16.8 5.37653 16.6736 5.15149 16.4485C4.92645 16.2235 4.80005 15.9183 4.80005 15.6C4.80005 15.2817 4.92645 14.9765 5.15149 14.7515C5.37653 14.5264 5.68174 14.4 6 14.4H14.4C14.7183 14.4 15.0235 14.5264 15.2485 14.7515C15.4736 14.9765 15.6 15.2817 15.6 15.6C15.6 15.9183 15.4736 16.2235 15.2485 16.4485C15.0235 16.6736 14.7183 16.8 14.4 16.8ZM0 12V24H12C14.3734 24 16.6935 23.2962 18.6669 21.9776C20.6403 20.6591 22.1783 18.7849 23.0865 16.5922C23.9948 14.3995 24.2324 11.9867 23.7694 9.65892C23.3064 7.33115 22.1635 5.19295 20.4852 3.51472C18.807 1.83649 16.6688 0.693605 14.3411 0.230582C12.0133 -0.232441 9.60055 0.00519943 7.40784 0.913451C5.21512 1.8217 3.34092 3.35977 2.02234 5.33316C0.703762 7.30655 0 9.62663 0 12ZM18 10.8H6C5.68174 10.8 5.37653 10.6736 5.15149 10.4485C4.92645 10.2235 4.80005 9.91826 4.80005 9.6C4.80005 9.28174 4.92645 8.97652 5.15149 8.75148C5.37653 8.52643 5.68174 8.40001 6 8.40001H18C18.3183 8.40001 18.6235 8.52643 18.8485 8.75148C19.0736 8.97652 19.2 9.28174 19.2 9.6C19.2 9.91826 19.0736 10.2235 18.8485 10.4485C18.6235 10.6736 18.3183 10.8 18 10.8Z" fill="currentColor"/>
</svg>
