<svg width="21" height="21" viewBox="0 0 21 21" fill="none" xmlns="http://www.w3.org/2000/svg">
<path fill-rule="evenodd" clip-rule="evenodd" d="M2.93085 2.97144C3.9261 1.96421 5.12385 1.1798 6.44495 0.67017C7.76605 0.160537 9.18033 -0.0627521 10.5942 0.015141C12.008 0.0930342 13.3892 0.470338 14.6464 1.12201C15.9035 1.77369 17.0078 2.68488 17.8864 3.79535C18.765 4.90582 19.3977 6.19022 19.7427 7.56354C20.0877 8.93686 20.1371 10.3678 19.8877 11.7617C19.6383 13.1555 19.0957 14.4805 18.2958 15.6489C17.4959 16.8174 16.457 17.8026 15.2478 18.5394C13.6638 19.5166 11.84 20.0358 9.97883 20.0394C8.52678 20.0383 7.0928 19.7174 5.77881 19.0994L1.8498 19.9924C1.60165 20.0495 1.34315 20.0427 1.09833 19.9727C0.853514 19.9028 0.630398 19.7719 0.449834 19.5924C0.269659 19.4122 0.137941 19.1893 0.06696 18.9446C-0.00402085 18.6998 -0.0119667 18.441 0.0438277 18.1924L0.93781 14.2654C0.072552 12.4065 -0.199659 10.3264 0.158147 8.3075C0.515952 6.28858 1.48644 4.42871 2.93781 2.98041L2.93085 2.97144ZM6.43085 8.82239H14.1419C14.343 8.82239 14.5359 8.74247 14.6782 8.60022C14.8204 8.45798 14.9003 8.26508 14.9003 8.06391C14.9003 7.86274 14.8204 7.66984 14.6782 7.52759C14.5359 7.38535 14.343 7.30542 14.1419 7.30542H6.43085C6.22968 7.30542 6.03672 7.38535 5.89447 7.52759C5.75223 7.66984 5.67231 7.86274 5.67231 8.06391C5.67231 8.26508 5.75223 8.45798 5.89447 8.60022C6.03672 8.74247 6.22968 8.82239 6.43085 8.82239ZM12.2868 11.5224H6.49982C6.3979 11.5187 6.29625 11.5356 6.20099 11.572C6.10574 11.6085 6.01886 11.6638 5.94544 11.7346C5.87202 11.8054 5.81357 11.8903 5.77369 11.9841C5.7338 12.078 5.71326 12.1789 5.71326 12.2809C5.71326 12.3829 5.7338 12.4838 5.77369 12.5777C5.81357 12.6716 5.87202 12.7565 5.94544 12.8273C6.01886 12.8981 6.10574 12.9534 6.20099 12.9898C6.29625 13.0263 6.3979 13.0431 6.49982 13.0394H12.2838C12.3857 13.0431 12.4874 13.0263 12.5826 12.9898C12.6779 12.9534 12.7648 12.8981 12.8383 12.8273C12.9117 12.7565 12.9701 12.6716 13.01 12.5777C13.0498 12.4838 13.0704 12.3829 13.0704 12.2809C13.0704 12.1789 13.0498 12.078 13.01 11.9841C12.9701 11.8903 12.9117 11.8054 12.8383 11.7346C12.7648 11.6638 12.6779 11.6085 12.5826 11.572C12.4874 11.5356 12.3857 11.5187 12.2838 11.5224H12.2868ZM9.99982 1.55744C8.55391 1.55577 7.13156 1.9239 5.86805 2.6269C4.60453 3.32989 3.5418 4.34435 2.78089 5.57386C2.01997 6.80336 1.58617 8.20706 1.5207 9.65149C1.45522 11.0959 1.76025 12.5331 2.4068 13.8264L2.52582 14.0654C1.20082 19.8954 0.135829 18.8354 5.97083 17.5084L6.20984 17.6274C7.37924 18.217 8.67019 18.5252 9.9798 18.5274C11.5606 18.522 13.1091 18.0803 14.4549 17.251C15.8007 16.4217 16.8914 15.237 17.6068 13.8274C18.1408 12.7387 18.438 11.5492 18.4789 10.3373C18.5197 9.12537 18.3033 7.91857 17.8438 6.79639C17.1998 5.24616 16.1112 3.92137 14.7152 2.98902C13.3193 2.05666 11.6785 1.55854 9.99982 1.55744Z" fill="currentColor"/>
</svg>
