<svg width="20" height="21" viewBox="0 0 20 21" fill="none" xmlns="http://www.w3.org/2000/svg">
<path fill-rule="evenodd" clip-rule="evenodd" d="M0 2.16312V8.16312C0.00122764 8.6159 0.155504 9.05499 0.437805 9.409C0.720106 9.76301 1.11384 10.0112 1.55499 10.1131C2.20869 9.51194 3.03637 9.13378 3.91876 9.03314C4.80116 8.9325 5.69274 9.11458 6.46503 9.55313C6.88618 9.01867 7.42301 8.58666 8.03522 8.28964C8.64743 7.99262 9.31906 7.83832 9.99951 7.83832C10.68 7.83832 11.3515 7.99262 11.9637 8.28964C12.576 8.58666 13.1128 9.01867 13.534 9.55313C14.306 9.11399 15.1976 8.93148 16.0801 9.03195C16.9626 9.13242 17.7904 9.51068 18.444 10.1121C18.8851 10.0101 19.2789 9.762 19.5612 9.40799C19.8435 9.05398 19.9978 8.6149 19.999 8.16211V2.16211C19.9977 1.63208 19.7865 1.12415 19.4117 0.749359C19.037 0.374572 18.5291 0.163429 17.999 0.162109H2C1.46997 0.163429 0.962006 0.374572 0.587219 0.749359C0.212432 1.12415 0.00132012 1.63208 0 2.16211V2.16312ZM5.526 12.3381C5.52557 11.7411 5.64527 11.15 5.87799 10.6001C5.21826 10.2298 4.44297 10.1223 3.7074 10.2994C2.97182 10.4764 2.33026 10.9249 1.91132 11.5549C1.49237 12.1849 1.32697 12.9499 1.44818 13.6967C1.5694 14.4435 1.9683 15.117 2.565 15.5821C1.80021 15.9331 1.15207 16.4959 0.697449 17.204C0.242826 17.9121 0.000783639 18.7357 0 19.5771V20.1631H3.94598V19.6001C3.9439 18.381 4.31254 17.1899 5.00299 16.1851C5.35643 15.6684 5.78752 15.2093 6.28101 14.8241C5.78836 14.0894 5.52553 13.2247 5.526 12.3401V12.3381ZM11.841 15.0771C12.7393 15.4439 13.5081 16.0696 14.0497 16.8747C14.5912 17.6798 14.881 18.6278 14.882 19.5981V20.1631H5.117V19.6001C5.11805 18.6299 5.4078 17.6818 5.94934 16.8767C6.49088 16.0716 7.25973 15.4459 8.15802 15.0791C7.57123 14.6845 7.1267 14.1119 6.88995 13.4456C6.65321 12.7792 6.63675 12.0545 6.84302 11.3781C7.04929 10.7017 7.46736 10.1095 8.03564 9.68866C8.60393 9.26784 9.29238 9.04071 9.99951 9.04071C10.7066 9.04071 11.395 9.26784 11.9633 9.68866C12.5316 10.1095 12.9497 10.7017 13.156 11.3781C13.3623 12.0545 13.3458 12.7792 13.1091 13.4456C12.8723 14.1119 12.4278 14.6845 11.841 15.0791V15.0771ZM17.434 15.5821C18.0307 15.117 18.4296 14.4435 18.5508 13.6967C18.6721 12.9499 18.5066 12.1849 18.0876 11.5549C17.6687 10.9249 17.0272 10.4764 16.2916 10.2994C15.556 10.1223 14.7807 10.2298 14.121 10.6001C14.4093 11.2819 14.5237 12.0247 14.4539 12.7616C14.384 13.4985 14.1322 14.2066 13.721 14.8221C14.2147 15.2074 14.6461 15.6665 15 16.1831C15.6907 17.1879 16.0597 18.3788 16.058 19.5981V20.1631H20V19.5771C19.9991 18.7355 19.7569 17.9119 19.3021 17.2038C18.8473 16.4957 18.199 15.9329 17.434 15.5821ZM14.25 5.06412C14.4489 5.06412 14.6397 5.14313 14.7803 5.28378C14.921 5.42444 15 5.61521 15 5.81412C15 6.01303 14.921 6.2038 14.7803 6.34445C14.6397 6.4851 14.4489 6.56412 14.25 6.56412H5.75C5.55109 6.56412 5.36032 6.4851 5.21967 6.34445C5.07901 6.2038 5 6.01303 5 5.81412C5 5.61521 5.07901 5.42444 5.21967 5.28378C5.36032 5.14313 5.55109 5.06412 5.75 5.06412H14.25ZM15.25 3.66412H4.75C4.55109 3.66412 4.36032 3.58511 4.21967 3.44446C4.07901 3.30381 4 3.11304 4 2.91412C4 2.71521 4.07901 2.52444 4.21967 2.38379C4.36032 2.24314 4.55109 2.16412 4.75 2.16412H15.25C15.4489 2.16412 15.6397 2.24314 15.7803 2.38379C15.921 2.52444 16 2.71521 16 2.91412C16 3.11304 15.921 3.30381 15.7803 3.44446C15.6397 3.58511 15.4489 3.66412 15.25 3.66412Z" fill="currentColor"/>
</svg>
