<svg width="16" height="17" viewBox="0 0 16 17" fill="none" xmlns="http://www.w3.org/2000/svg">
<path fill-rule="evenodd" clip-rule="evenodd" d="M14.3539 0.440386L8.00092 6.79939L1.64691 0.444386C1.46558 0.264362 1.22042 0.163336 0.964905 0.163336C0.709388 0.163336 0.464228 0.264362 0.282898 0.444386C0.102632 0.625587 0.00146484 0.87079 0.00146484 1.12639C0.00146484 1.38198 0.102632 1.62718 0.282898 1.80839L6.6369 8.16239L0.282898 14.5164C0.102632 14.6976 0.00146484 14.9428 0.00146484 15.1984C0.00146484 15.454 0.102632 15.6992 0.282898 15.8804C0.463971 16.0609 0.709227 16.1623 0.964905 16.1623C1.22058 16.1623 1.46584 16.0609 1.64691 15.8804L8.00092 9.52339L14.3539 15.8774C14.5353 16.0577 14.7807 16.1589 15.0364 16.1589C15.2922 16.1589 15.5376 16.0577 15.7189 15.8774C15.899 15.6961 15.9999 15.4509 15.9999 15.1954C15.9999 14.9399 15.899 14.6947 15.7189 14.5134L9.36493 8.15939L15.7189 1.80539C15.899 1.62406 15.9999 1.3789 15.9999 1.12339C15.9999 0.86787 15.899 0.622715 15.7189 0.441386C15.5374 0.261409 15.2922 0.160344 15.0366 0.160157C14.781 0.159969 14.5357 0.260676 14.3539 0.440386Z" fill="currentColor"/>
</svg>
