<svg width="20" height="20" viewBox="0 0 20 20" fill="none" xmlns="http://www.w3.org/2000/svg">
<path fill-rule="evenodd" clip-rule="evenodd" d="M11.286 11.071H14.929C15.2075 11.0625 15.4718 10.9459 15.6658 10.7459C15.8598 10.5459 15.9683 10.2782 15.9683 9.99951C15.9683 9.72087 15.8598 9.45319 15.6658 9.25317C15.4718 9.05316 15.2075 8.93655 14.929 8.92804H11.286C11.2579 8.92804 11.2301 8.9225 11.2041 8.91174C11.1781 8.90099 11.1545 8.88523 11.1347 8.86536C11.1148 8.84548 11.099 8.82186 11.0883 8.7959C11.0775 8.76993 11.072 8.74215 11.072 8.71405V5.07104C11.0635 4.79253 10.9469 4.52823 10.7469 4.33423C10.5468 4.14023 10.2791 4.03174 10.0005 4.03174C9.72186 4.03174 9.45417 4.14023 9.25415 4.33423C9.05413 4.52823 8.93751 4.79253 8.929 5.07104V8.71405C8.929 8.74215 8.92346 8.76993 8.9127 8.7959C8.90195 8.82186 8.88619 8.84548 8.86632 8.86536C8.84645 8.88523 8.82285 8.90099 8.79689 8.91174C8.77093 8.9225 8.7431 8.92804 8.715 8.92804H5.07201C4.92854 8.92366 4.78566 8.94812 4.65182 9C4.51799 9.05188 4.39594 9.13011 4.29291 9.23004C4.18988 9.32997 4.10797 9.44954 4.05203 9.58173C3.99609 9.71391 3.96727 9.85598 3.96727 9.99951C3.96727 10.143 3.99609 10.2851 4.05203 10.4173C4.10797 10.5495 4.18988 10.6691 4.29291 10.769C4.39594 10.869 4.51799 10.9472 4.65182 10.9991C4.78566 11.051 4.92854 11.0754 5.07201 11.071H8.715C8.74318 11.071 8.77109 11.0766 8.79712 11.0874C8.82315 11.0982 8.84678 11.1141 8.86667 11.134C8.88655 11.154 8.9023 11.1777 8.91299 11.2038C8.92369 11.2299 8.92913 11.2578 8.929 11.286V14.928C8.92462 15.0715 8.94909 15.2144 9.00096 15.3482C9.05284 15.482 9.13106 15.6041 9.23099 15.7071C9.33092 15.8101 9.45053 15.8921 9.58272 15.948C9.7149 16.0039 9.85697 16.0328 10.0005 16.0328C10.144 16.0328 10.2861 16.0039 10.4183 15.948C10.5505 15.8921 10.6701 15.8101 10.77 15.7071C10.8699 15.6041 10.9482 15.482 11 15.3482C11.0519 15.2144 11.0764 15.0715 11.072 14.928V11.286C11.0719 11.2578 11.0773 11.2299 11.088 11.2038C11.0987 11.1777 11.1144 11.154 11.1343 11.134C11.1542 11.1141 11.1778 11.0982 11.2039 11.0874C11.2299 11.0766 11.2578 11.071 11.286 11.071ZM5 0H15C16.3249 0.00369436 17.5946 0.531685 18.5314 1.46857C19.4683 2.40545 19.9963 3.67505 20 5V15C19.9963 16.3249 19.4683 17.5946 18.5314 18.5315C17.5946 19.4684 16.3249 19.9963 15 20H5C3.67513 19.996 2.40567 19.468 1.46884 18.5312C0.532016 17.5944 0.00395682 16.3249 0 15V5C0.00395682 3.67513 0.532016 2.4057 1.46884 1.46887C2.40567 0.532047 3.67513 0.00395682 5 0Z" fill="currentColor"/>
</svg>
