<svg width="20" height="20" viewBox="0 0 20 20" fill="none" xmlns="http://www.w3.org/2000/svg">
<path fill-rule="evenodd" clip-rule="evenodd" d="M14.621 0H5.37903C4.67287 5.39331e-05 3.97364 0.139616 3.32153 0.410583C2.66943 0.681551 2.07723 1.07863 1.57898 1.57904C1.07825 2.07711 0.68094 2.66922 0.40979 3.32135C0.13864 3.97348 -0.000955752 4.67277 -0.000976556 5.37903V14.621C-0.00101054 15.3273 0.138515 16.0266 0.409668 16.6787C0.680821 17.3309 1.07821 17.923 1.57898 18.421C2.07705 18.9217 2.66916 19.3191 3.32129 19.5903C3.97342 19.8614 4.67277 20.001 5.37903 20.001H14.621C16.0465 19.9971 17.4126 19.429 18.4205 18.4208C19.4285 17.4127 19.9963 16.0466 20 14.621V5.37903C20 4.67277 19.8604 3.97348 19.5892 3.32135C19.3181 2.66922 18.9207 2.07711 18.42 1.57904C17.9217 1.07863 17.3296 0.681551 16.6775 0.410583C16.0254 0.139616 15.3262 5.39331e-05 14.62 0H14.621ZM8.81201 10.9901H5.44501C5.18244 10.9901 4.93059 10.8857 4.74493 10.7001C4.55927 10.5144 4.45502 10.2626 4.45502 10C4.45502 9.73744 4.55927 9.48565 4.74493 9.29999C4.93059 9.11433 5.18244 9.01001 5.44501 9.01001H8.81201C8.83828 9.01001 8.86428 9.00486 8.88855 8.99481C8.91282 8.98476 8.93486 8.97005 8.95343 8.95148C8.972 8.93291 8.98671 8.9108 8.99677 8.88654C9.00682 8.86227 9.01202 8.83626 9.01202 8.81V5.44C9.01202 5.17744 9.11628 4.92565 9.30194 4.73999C9.4876 4.55433 9.73945 4.45001 10.002 4.45001C10.2646 4.45001 10.5164 4.55433 10.702 4.73999C10.8877 4.92565 10.992 5.17744 10.992 5.44V8.80701C10.992 8.86005 11.0131 8.91092 11.0506 8.94843C11.0881 8.98593 11.139 9.00702 11.192 9.00702H14.559C14.8216 9.00702 15.0734 9.11134 15.259 9.297C15.4447 9.48266 15.549 9.73444 15.549 9.99701C15.549 10.2596 15.4447 10.5114 15.259 10.6971C15.0734 10.8827 14.8216 10.987 14.559 10.987H11.192C11.139 10.987 11.0881 11.0081 11.0506 11.0456C11.0131 11.0831 10.992 11.134 10.992 11.187V14.554C10.992 14.8166 10.8877 15.0684 10.702 15.2541C10.5164 15.4398 10.2646 15.544 10.002 15.544C9.73945 15.544 9.4876 15.4398 9.30194 15.2541C9.11628 15.0684 9.01202 14.8166 9.01202 14.554V11.187C9.01202 11.1607 9.00682 11.1347 8.99677 11.1105C8.98671 11.0862 8.972 11.0642 8.95343 11.0456C8.93486 11.027 8.91282 11.0123 8.88855 11.0023C8.86428 10.9922 8.83828 10.987 8.81201 10.987V10.9901ZM5.37903 1.51605H14.621C15.6445 1.51922 16.6253 1.92717 17.3491 2.65094C18.0728 3.37471 18.4808 4.35547 18.484 5.37903V14.621C18.4808 15.6446 18.0728 16.6253 17.3491 17.3491C16.6253 18.0728 15.6445 18.4808 14.621 18.484H5.37903C4.35523 18.4816 3.37402 18.0739 2.65009 17.35C1.92615 16.626 1.51837 15.6448 1.51599 14.621V5.37903C1.51837 4.35523 1.92615 3.37402 2.65009 2.65009C3.37402 1.92615 4.35523 1.51843 5.37903 1.51605Z" fill="currentColor"/>
</svg>
