<svg width="21" height="18" viewBox="0 0 21 18" fill="none" xmlns="http://www.w3.org/2000/svg">
<path fill-rule="evenodd" clip-rule="evenodd" d="M1.38501 7.88834H1.49103V6.82434C1.49233 6.23099 1.70864 5.6582 2.09992 5.21213C2.49119 4.76606 3.0309 4.47696 3.61902 4.39835V3.09833C3.6227 2.45074 3.88156 1.83072 4.33948 1.3728C4.7974 0.914883 5.41742 0.656019 6.06501 0.652344H17.406C18.0875 0.652232 18.7418 0.91968 19.2281 1.39716C19.7144 1.87463 19.9937 2.52394 20.006 3.20532V15.2263C20.002 15.874 19.7429 16.494 19.2849 16.9519C18.8268 17.4098 18.2067 17.6687 17.559 17.6723H3.93799C3.29023 17.6689 2.66999 17.4102 2.21186 16.9522C1.75372 16.4943 1.49471 15.8741 1.49103 15.2263V14.0563H1.38501C1.20328 14.057 1.02318 14.0218 0.855106 13.9526C0.687034 13.8835 0.53427 13.7819 0.405582 13.6536C0.276894 13.5252 0.174833 13.3728 0.105228 13.2049C0.0356229 13.037 -0.000129606 12.8571 3.27578e-06 12.6753V9.27533C-0.000392738 9.09365 0.0351211 8.91367 0.104495 8.74576C0.17387 8.57784 0.275724 8.4253 0.404239 8.29688C0.532755 8.16845 0.68537 8.06669 0.853336 7.99744C1.0213 7.92818 1.20132 7.89281 1.383 7.89334L1.38501 7.88834ZM3.51203 10.9723C3.51183 11.1828 3.57407 11.3886 3.69086 11.5637C3.80765 11.7388 3.97375 11.8754 4.16816 11.9561C4.36256 12.0367 4.5765 12.0579 4.78296 12.017C4.98942 11.9761 5.1791 11.8748 5.32801 11.726C5.47691 11.5773 5.57837 11.3877 5.61951 11.1813C5.66065 10.9749 5.63959 10.7609 5.55909 10.5664C5.47858 10.3719 5.34224 10.2057 5.16724 10.0887C4.99224 9.97176 4.78647 9.90933 4.57599 9.90933C4.29397 9.90933 4.02349 10.0213 3.82398 10.2206C3.62447 10.4199 3.51229 10.6903 3.51203 10.9723ZM18.512 3.24933C18.5105 2.95649 18.3934 2.6761 18.1863 2.46902C17.9793 2.26195 17.6989 2.14492 17.406 2.14334H6.08698C5.96107 2.14268 5.83632 2.16697 5.71985 2.21481C5.60339 2.26266 5.49753 2.3331 5.40845 2.42209C5.31937 2.51107 5.24884 2.61683 5.20087 2.73325C5.1529 2.84966 5.1285 2.97443 5.12903 3.10034V4.37735H17.406C17.7011 4.37083 17.982 4.24918 18.1886 4.03842C18.3952 3.82767 18.5113 3.54449 18.512 3.24933ZM1.49103 12.5683H5C5.40246 12.5381 5.77863 12.3569 6.0531 12.061C6.32758 11.7651 6.48011 11.3764 6.48011 10.9728C6.48011 10.5693 6.32758 10.1806 6.0531 9.88467C5.77863 9.58879 5.40246 9.4076 5 9.37735H1.48902L1.49103 12.5683Z" fill="currentColor"/>
</svg>
