<svg width="30" height="28" viewBox="0 0 30 28" fill="none" xmlns="http://www.w3.org/2000/svg">
<path fill-rule="evenodd" clip-rule="evenodd" d="M28.8271 2.77054H10.9541C10.7081 2.03842 10.2384 1.40204 9.61133 0.951202C8.98424 0.50036 8.23132 0.257812 7.45898 0.257812C6.68665 0.257813 5.93373 0.50036 5.30664 0.951202C4.67955 1.40204 4.20985 2.03842 3.96387 2.77054H1.17383C0.862464 2.77054 0.563918 2.89424 0.34375 3.11441C0.123582 3.33458 0 3.63319 0 3.94455C0 4.25591 0.123582 4.55452 0.34375 4.77469C0.563918 4.99486 0.862464 5.11853 1.17383 5.11853H3.96387C4.20985 5.85064 4.67955 6.48702 5.30664 6.93787C5.93373 7.38871 6.68665 7.63126 7.45898 7.63126C8.23132 7.63126 8.98424 7.38871 9.61133 6.93787C10.2384 6.48702 10.7081 5.85064 10.9541 5.11853H28.8271C29.1385 5.11853 29.4371 4.99486 29.6572 4.77469C29.8774 4.55452 30.001 4.25591 30.001 3.94455C30.001 3.63319 29.8774 3.33458 29.6572 3.11441C29.4371 2.89424 29.1385 2.77054 28.8271 2.77054ZM28.8271 22.8815H15.9814C15.7357 22.1493 15.2657 21.5127 14.6387 21.0618C14.0116 20.6108 13.2587 20.3682 12.4863 20.3682C11.714 20.3682 10.961 20.6108 10.334 21.0618C9.70696 21.5127 9.2379 22.1493 8.99219 22.8815H1.17383C0.868527 22.8904 0.579009 23.018 0.366211 23.2371C0.153413 23.4562 0.0341797 23.7496 0.0341797 24.0551C0.0341797 24.3605 0.153413 24.6539 0.366211 24.873C0.579009 25.0921 0.868527 25.2196 1.17383 25.2285H8.99219C9.2379 25.9608 9.70696 26.5973 10.334 27.0483C10.961 27.4993 11.714 27.7419 12.4863 27.7419C13.2587 27.7419 14.0116 27.4993 14.6387 27.0483C15.2657 26.5973 15.7357 25.9608 15.9814 25.2285H28.8271C29.1325 25.2196 29.422 25.0921 29.6348 24.873C29.8476 24.6539 29.9668 24.3605 29.9668 24.0551C29.9668 23.7496 29.8476 23.4562 29.6348 23.2371C29.422 23.018 29.1325 22.8904 28.8271 22.8815ZM28.8271 12.8265H26.0371C25.7911 12.0944 25.3214 11.458 24.6943 11.0072C24.0672 10.5564 23.3143 10.3138 22.542 10.3138C21.7697 10.3138 21.0167 10.5564 20.3896 11.0072C19.7626 11.458 19.2929 12.0944 19.0469 12.8265H1.17383C0.868527 12.8355 0.579009 12.963 0.366211 13.1821C0.153413 13.4012 0.0341797 13.6946 0.0341797 14C0.0341797 14.3055 0.153413 14.5989 0.366211 14.818C0.579009 15.0371 0.868527 15.1646 1.17383 15.1736H19.0469C19.2929 15.9057 19.7626 16.542 20.3896 16.9929C21.0167 17.4437 21.7697 17.6862 22.542 17.6862C23.3143 17.6862 24.0672 17.4437 24.6943 16.9929C25.3214 16.542 25.7911 15.9057 26.0371 15.1736H28.8271C29.1325 15.1646 29.422 15.0371 29.6348 14.818C29.8476 14.5989 29.9668 14.3055 29.9668 14C29.9668 13.6946 29.8476 13.4012 29.6348 13.1821C29.422 12.963 29.1325 12.8355 28.8271 12.8265Z" fill="currentColor"/>
</svg>
