<svg width="24" height="20" viewBox="0 0 24 20" fill="none" xmlns="http://www.w3.org/2000/svg">
<path fill-rule="evenodd" clip-rule="evenodd" d="M1.91992 0.560059H22.0801C22.5889 0.561378 23.0765 0.764089 23.4363 1.12387C23.7961 1.48366 23.9987 1.97125 24 2.48006C23.9987 2.98887 23.7961 3.47646 23.4363 3.83625C23.0765 4.19603 22.5889 4.39874 22.0801 4.40006H1.91992C1.41119 4.39848 0.923692 4.19568 0.563965 3.83596C0.204237 3.47623 0.00158237 2.98879 0 2.48006C0.00158237 1.97133 0.204237 1.48389 0.563965 1.12416C0.923692 0.764435 1.41119 0.561641 1.91992 0.560059ZM1.91992 15.9201H22.0801C22.5889 15.9214 23.0765 16.1241 23.4363 16.4839C23.7961 16.8437 23.9987 17.3312 24 17.8401C23.9987 18.3489 23.7961 18.8365 23.4363 19.1962C23.0765 19.556 22.5889 19.7587 22.0801 19.7601H1.91992C1.41119 19.7585 0.923692 19.5557 0.563965 19.196C0.204237 18.8362 0.00158237 18.3488 0 17.8401C0.00158237 17.3313 0.204237 16.8439 0.563965 16.4842C0.923692 16.1244 1.41119 15.9216 1.91992 15.9201ZM1.91992 8.24006H22.0801C22.5889 8.24138 23.0765 8.44409 23.4363 8.80387C23.7961 9.16366 23.9987 9.65125 24 10.1601C23.9989 10.669 23.7964 11.1567 23.4365 11.5165C23.0767 11.8764 22.589 12.079 22.0801 12.0801H1.91992C1.41111 12.0787 0.923505 11.876 0.563721 11.5162C0.203937 11.1565 0.00131988 10.6689 0 10.1601C0.00158237 9.65133 0.204237 9.16389 0.563965 8.80416C0.923692 8.44444 1.41119 8.24164 1.91992 8.24006Z" fill="currentColor"/>
</svg>
