<svg width="20" height="20" viewBox="0 0 20 20" fill="none" xmlns="http://www.w3.org/2000/svg">
<path fill-rule="evenodd" clip-rule="evenodd" d="M19.461 8.69647L11.299 0.537476C10.9539 0.193311 10.4864 0 9.99902 0C9.51163 0 9.04413 0.193311 8.69902 0.537476L0.545023 8.69147L0.537024 8.70044C0.193103 9.04568 0 9.51318 0 10.0005C0 10.4878 0.193103 10.9552 0.537024 11.3005C0.861515 11.6274 1.29778 11.8192 1.75802 11.8375C1.77701 11.8385 1.79604 11.8385 1.81502 11.8375H2.14002V17.8375C2.13976 18.1211 2.19542 18.402 2.30381 18.6641C2.41221 18.9262 2.57121 19.1644 2.77173 19.3651C2.97225 19.5657 3.21036 19.7248 3.47242 19.8333C3.73449 19.9418 4.01538 19.9976 4.29902 19.9974H7.48902C7.64444 19.9974 7.79349 19.9357 7.90339 19.8258C8.01328 19.7159 8.07502 19.5669 8.07502 19.4114V14.7045C8.07529 14.4438 8.17894 14.1939 8.36323 14.0096C8.54752 13.8254 8.7974 13.7217 9.05802 13.7214H10.941C11.2016 13.7217 11.4515 13.8254 11.6358 14.0096C11.8201 14.1939 11.9238 14.4438 11.924 14.7045V19.4114C11.924 19.5669 11.9858 19.7159 12.0957 19.8258C12.2056 19.9357 12.3546 19.9974 12.51 19.9974H15.699C16.2703 19.9966 16.818 19.7694 17.222 19.3654C17.6259 18.9614 17.8532 18.4138 17.854 17.8425V11.8425H18.154C18.5178 11.842 18.8733 11.7337 19.1756 11.5313C19.4779 11.3289 19.7135 11.0415 19.8526 10.7053C19.9917 10.3692 20.0281 9.99934 19.9571 9.64252C19.8862 9.2857 19.7111 8.95784 19.454 8.70044L19.461 8.69647Z" fill="currentColor"/>
</svg>
