<svg width="20" height="21" viewBox="0 0 20 21" fill="none" xmlns="http://www.w3.org/2000/svg">
<path fill-rule="evenodd" clip-rule="evenodd" d="M11.739 0.72101L19.2809 8.26502C19.509 8.4929 19.69 8.76352 19.8133 9.0614C19.9367 9.35929 20.0001 9.67861 19.9999 10.001C20.0009 10.3236 19.9381 10.6432 19.8152 10.9414C19.6924 11.2397 19.5118 11.5107 19.2839 11.739C19.0004 12.0342 18.6425 12.2473 18.2479 12.356C18.1719 12.377 18.0979 12.394 18.0239 12.407V17.251C18.0229 17.9798 17.7329 18.6784 17.2176 19.1937C16.7023 19.709 16.0037 19.9989 15.2749 20H12.325C11.9802 20 11.6495 19.8631 11.4057 19.6193C11.1619 19.3755 11.0249 19.0448 11.0249 18.7V14.35C11.0257 14.3107 11.011 14.2726 10.9839 14.244C10.9555 14.2166 10.9174 14.2015 10.8779 14.202H9.13794C9.09797 14.2023 9.05973 14.2183 9.03146 14.2465C9.0032 14.2748 8.9872 14.3131 8.98694 14.353V18.703C8.98694 19.0478 8.84997 19.3785 8.60617 19.6223C8.36237 19.8661 8.03173 20.0031 7.68695 20.0031H4.73795C4.0091 20.002 3.31039 19.7121 2.79492 19.1968C2.27946 18.6815 1.98927 17.9829 1.98795 17.254V12.42C1.51836 12.3294 1.08696 12.0994 0.74994 11.76C0.51647 11.5264 0.330688 11.2496 0.202943 10.945C0.0733451 10.6404 0.00535835 10.3131 0.00293087 9.98206C0.0026142 9.66341 0.0659729 9.3479 0.189271 9.05408C0.312569 8.76026 0.49334 8.49406 0.720948 8.27106L8.26495 0.724001C8.49227 0.495075 8.76254 0.31333 9.06027 0.189089C9.358 0.0648481 9.67733 0.000557453 9.99994 2.05602e-06C10.3223 -0.000415686 10.6416 0.0628285 10.9395 0.186037C11.2374 0.309246 11.508 0.490014 11.7359 0.71802L11.739 0.72101ZM18.2109 9.33203L10.6679 1.79303C10.5809 1.70444 10.4771 1.63407 10.3626 1.586C10.2481 1.53793 10.1251 1.51309 10.0009 1.513C9.877 1.51292 9.75424 1.53736 9.63977 1.5849C9.5253 1.63244 9.42138 1.70217 9.33395 1.79004L1.78894 9.33405C1.70288 9.41762 1.63441 9.51751 1.58753 9.62793C1.54064 9.73835 1.51629 9.85709 1.51593 9.97705C1.51701 10.2417 1.62227 10.4954 1.80893 10.683C1.89149 10.7659 1.98974 10.8314 2.0979 10.8759C2.20607 10.9203 2.32199 10.9428 2.43894 10.942H3.49994V17.249C3.49961 17.4107 3.53114 17.5708 3.59274 17.7203C3.65434 17.8697 3.74481 18.0056 3.85895 18.1201C3.97319 18.235 4.10906 18.3261 4.25873 18.3882C4.4084 18.4504 4.56888 18.4823 4.73093 18.4821H7.46393V14.35C7.46446 13.9081 7.64028 13.4844 7.95279 13.1719C8.2653 12.8594 8.689 12.6836 9.13095 12.683H10.8709C11.3116 12.6842 11.7338 12.86 12.045 13.172C12.1997 13.3261 12.3225 13.5093 12.4064 13.7109C12.4903 13.9125 12.5336 14.1287 12.5339 14.347V18.481H15.2679C15.5949 18.4808 15.9083 18.3507 16.1395 18.1196C16.3707 17.8884 16.5007 17.575 16.5009 17.248V10.94H17.2589C17.4531 10.9487 17.6475 10.9336 17.838 10.895C17.9791 10.8523 18.1061 10.7725 18.2059 10.664C18.3832 10.4872 18.4832 10.2474 18.4839 9.99701C18.4842 9.74802 18.3861 9.50902 18.2109 9.33203Z" fill="currentColor"/>
</svg>
