<svg width="30" height="25" viewBox="0 0 30 25" fill="none" xmlns="http://www.w3.org/2000/svg">
<path fill-rule="evenodd" clip-rule="evenodd" d="M12.6006 22.3592C12.5651 22.2795 12.5519 22.1917 12.5625 22.1052C12.5755 22.0382 12.5314 21.9812 12.4314 21.9372C12.3314 21.8932 12.2815 21.8592 12.2815 21.8372C12.2815 21.8152 12.2094 21.7942 12.0654 21.7812L11.8496 21.7622H6.00049C5.20549 21.7601 4.44374 21.4433 3.88159 20.8812C3.31944 20.319 3.0026 19.5572 3.00049 18.7622V5.56218C3.00312 4.76734 3.32004 4.00581 3.88208 3.44377C4.44412 2.88173 5.20565 2.56482 6.00049 2.56218H12.0005C12.139 2.57009 12.2756 2.52705 12.3845 2.44118C12.4861 2.34361 12.552 2.2147 12.5715 2.07518C12.6011 1.92978 12.6198 1.78237 12.6274 1.63418C12.6342 1.46748 12.6312 1.30053 12.6184 1.13418C12.6064 0.93418 12.5996 0.80818 12.5996 0.75918C12.5978 0.600615 12.5338 0.449056 12.4216 0.336926C12.3095 0.224795 12.1581 0.160998 11.9995 0.15918H5.99951C4.56799 0.161296 3.19559 0.730901 2.18335 1.74314C1.17111 2.75538 0.601725 4.12766 0.599609 5.55918V18.7592C0.602253 20.1905 1.17196 21.5625 2.18408 22.5746C3.19621 23.5868 4.56815 24.1565 5.99951 24.1592H11.9995C12.1381 24.1667 12.2747 24.1233 12.3835 24.0372C12.4859 23.9401 12.5519 23.811 12.5706 23.6712C12.6004 23.5258 12.6194 23.3784 12.6274 23.2302C12.6333 23.0635 12.63 22.8965 12.6174 22.7302C12.6054 22.5302 12.5996 22.4052 12.5996 22.3542L12.6006 22.3592ZM29.6436 11.3162C29.7563 11.4259 29.8458 11.557 29.907 11.7019C29.9681 11.8468 29.9995 12.0024 29.9995 12.1597C29.9995 12.3169 29.9681 12.4726 29.907 12.6175C29.8458 12.7624 29.7563 12.8935 29.6436 13.0032L19.4436 23.2032C19.2759 23.3691 19.0628 23.482 18.8313 23.5276C18.5998 23.5732 18.36 23.5495 18.1418 23.4595C17.9237 23.3696 17.737 23.2173 17.605 23.0218C17.4729 22.8262 17.4014 22.5961 17.3994 22.3602V16.9602H9.00049C8.68352 16.956 8.38065 16.8283 8.15649 16.6041C7.93234 16.38 7.80468 16.0771 7.80054 15.7602V8.56018C7.80468 8.24321 7.93234 7.94039 8.15649 7.71623C8.38065 7.49208 8.68352 7.36432 9.00049 7.36018H17.4004V1.96018C17.3993 1.72287 17.4691 1.49062 17.6006 1.29308C17.7321 1.09553 17.9193 0.941652 18.1387 0.85108C18.358 0.760508 18.5995 0.737355 18.832 0.784573C19.0646 0.83179 19.2779 0.947237 19.4446 1.11618L29.6436 11.3162Z" fill="currentColor"/>
</svg>
