<svg width="19" height="17" viewBox="0 0 19 17" fill="none" xmlns="http://www.w3.org/2000/svg">
<path fill-rule="evenodd" clip-rule="evenodd" d="M17.3456 1.51295H6.59257C6.44466 1.07217 6.16199 0.688989 5.78454 0.417518C5.4071 0.146047 4.95389 0 4.48895 0C4.02402 0 3.57081 0.146047 3.19336 0.417518C2.81591 0.688989 2.53325 1.07217 2.38533 1.51295H0.706297C0.523545 1.51994 0.350603 1.59745 0.223779 1.72922C0.0969547 1.86099 0.0260002 2.03677 0.0260002 2.21966C0.0260002 2.40254 0.0969547 2.57831 0.223779 2.71008C0.350603 2.84185 0.523545 2.91937 0.706297 2.92637H2.38533C2.53352 3.36702 2.81635 3.75001 3.19386 4.02134C3.57137 4.29267 4.02455 4.43864 4.48946 4.43864C4.95436 4.43864 5.40754 4.29267 5.78505 4.02134C6.16256 3.75001 6.44539 3.36702 6.59358 2.92637H17.3467C17.5294 2.91937 17.7024 2.84185 17.8292 2.71008C17.956 2.57831 18.0269 2.40254 18.0269 2.21966C18.0269 2.03677 17.956 1.86099 17.8292 1.72922C17.7024 1.59745 17.5294 1.51994 17.3467 1.51295H17.3456ZM17.3456 13.6174H9.61377C9.46586 13.1766 9.18319 12.7934 8.80575 12.522C8.4283 12.2505 7.97509 12.1045 7.51015 12.1045C7.04522 12.1045 6.59201 12.2505 6.21456 12.522C5.83711 12.7934 5.55445 13.1766 5.40653 13.6174H0.701122C0.51837 13.6244 0.345428 13.7019 0.218604 13.8337C0.0917799 13.9654 0.0208254 14.1412 0.0208254 14.3241C0.0208254 14.507 0.0917799 14.6828 0.218604 14.8145C0.345428 14.9463 0.51837 15.0238 0.701122 15.0308H5.40653C5.55445 15.4716 5.83711 15.8548 6.21456 16.1262C6.59201 16.3977 7.04522 16.5438 7.51015 16.5438C7.97509 16.5438 8.4283 16.3977 8.80575 16.1262C9.18319 15.8548 9.46586 15.4716 9.61377 15.0308H17.3456C17.5283 15.0238 17.7013 14.9463 17.8281 14.8145C17.9549 14.6828 18.0259 14.507 18.0259 14.3241C18.0259 14.1412 17.9549 13.9654 17.8281 13.8337C17.7013 13.7019 17.5283 13.6244 17.3456 13.6174ZM17.3456 7.5657H15.6665C15.5186 7.12492 15.2359 6.74174 14.8585 6.47027C14.481 6.1988 14.0278 6.05275 13.5629 6.05275C13.098 6.05275 12.6448 6.1988 12.2673 6.47027C11.8899 6.74174 11.6072 7.12492 11.4593 7.5657H0.706297C0.519005 7.5657 0.339302 7.6401 0.206866 7.77253C0.0744299 7.90497 0 8.08459 0 8.27189C0 8.45918 0.0744299 8.6388 0.206866 8.77124C0.339302 8.90368 0.519005 8.97807 0.706297 8.97807H11.4593C11.6072 9.41885 11.8899 9.80204 12.2673 10.0735C12.6448 10.345 13.098 10.491 13.5629 10.491C14.0278 10.491 14.481 10.345 14.8585 10.0735C15.2359 9.80204 15.5186 9.41885 15.6665 8.97807H17.3456C17.5328 8.97807 17.7126 8.90368 17.845 8.77124C17.9774 8.6388 18.0519 8.45918 18.0519 8.27189C18.0519 8.08459 17.9774 7.90497 17.845 7.77253C17.7126 7.6401 17.5328 7.5657 17.3456 7.5657Z" fill="#546DD3"/>
</svg>
