<svg width="20" height="21" viewBox="0 0 20 21" fill="none" xmlns="http://www.w3.org/2000/svg">
<path fill-rule="evenodd" clip-rule="evenodd" d="M10 0.162111C8.6866 0.161453 7.38592 0.419654 6.17236 0.921968C4.95881 1.42428 3.85621 2.16085 2.92749 3.08957C1.99877 4.01829 1.2622 5.12094 0.759889 6.33449C0.257575 7.54804 -0.000655944 8.84871 1.25126e-06 10.1621V20.1621H10C12.6522 20.1621 15.1957 19.1085 17.071 17.2332C18.9464 15.3578 20 12.8143 20 10.1621C20 7.50995 18.9464 4.9664 17.071 3.09104C15.1957 1.21567 12.6522 0.162111 10 0.162111ZM9.62097 13.0871C8.95997 13.0871 8.73401 12.8441 8.73401 12.0051C8.70816 11.54 8.79261 11.0753 8.98047 10.649C9.16833 10.2227 9.45427 9.84688 9.815 9.55211C10.348 9.10111 11.251 8.60011 11.251 7.72911C11.251 6.98711 10.606 6.62911 9.79901 6.62911C8.15301 6.62911 8.50799 7.8721 7.63599 7.8721C7.51137 7.8779 7.38686 7.85843 7.26996 7.81487C7.15306 7.7713 7.04618 7.70454 6.95575 7.61859C6.86532 7.53265 6.79323 7.4293 6.74378 7.31476C6.69432 7.20022 6.66857 7.07686 6.66803 6.9521C6.66803 6.0811 7.66799 4.7901 9.84699 4.7901C11.913 4.7901 13.285 5.93611 13.285 7.45311C13.2152 8.04681 13.0174 8.6183 12.7053 9.12813C12.3931 9.63796 11.974 10.074 11.477 10.4061C11.1481 10.6194 10.8881 10.9234 10.7283 11.2813C10.5686 11.6393 10.5161 12.0359 10.577 12.4231C10.577 12.7301 10.416 13.0851 9.625 13.0851L9.62097 13.0871ZM8.41101 15.4431C8.4102 15.1161 8.53858 14.8021 8.76819 14.5693C8.9978 14.3365 9.31007 14.2038 9.63702 14.2001C9.80316 14.1954 9.96855 14.224 10.1234 14.2844C10.2783 14.3447 10.4195 14.4355 10.5386 14.5513C10.6578 14.6671 10.7526 14.8057 10.8173 14.9588C10.882 15.1119 10.9152 15.2764 10.9152 15.4426C10.9152 15.6088 10.882 15.7733 10.8173 15.9264C10.7526 16.0795 10.6578 16.2181 10.5386 16.3339C10.4195 16.4498 10.2783 16.5405 10.1234 16.6008C9.96855 16.6612 9.80316 16.6898 9.63702 16.6851C9.31042 16.6812 8.99853 16.5485 8.76917 16.316C8.5398 16.0834 8.41144 15.7697 8.41199 15.4431H8.41101Z" fill="currentColor"/>
</svg>
