<svg width="24" height="25" viewBox="0 0 24 25" fill="none" xmlns="http://www.w3.org/2000/svg">
<path fill-rule="evenodd" clip-rule="evenodd" d="M15.2668 15.9601C15.5086 16.2018 15.6443 16.5297 15.6443 16.8716C15.6443 17.2135 15.5086 17.5413 15.2668 17.7831C15.0251 18.0248 14.6971 18.1606 14.3552 18.1606C14.0133 18.1606 13.6856 18.0248 13.4438 17.7831L8.73267 13.0721C8.49109 12.83 8.35547 12.502 8.35547 12.1601C8.35547 11.8181 8.49109 11.4901 8.73267 11.2481L13.4438 6.53708C13.6857 6.29533 14.0137 6.15957 14.3557 6.15967C14.6977 6.15976 15.0256 6.2957 15.2673 6.53758C15.5091 6.77945 15.6449 7.10746 15.6448 7.44943C15.6447 7.7914 15.5087 8.11933 15.2668 8.36108L11.4668 12.1611L15.2668 15.9601Z" fill="currentColor"/>
<path fill-rule="evenodd" clip-rule="evenodd" d="M6.44409 0.159784H17.5549C19.2619 0.164528 20.8977 0.84439 22.1052 2.05095C23.3127 3.25752 23.9939 4.89279 24 6.59978V17.7158C23.9995 18.5612 23.8319 19.3981 23.5071 20.1786C23.1822 20.9591 22.7064 21.6677 22.1069 22.2638C21.5101 22.8632 20.8007 23.339 20.0195 23.6636C19.2384 23.9883 18.4009 24.1556 17.5549 24.1558H6.44409C5.59866 24.1552 4.76157 23.9878 3.98096 23.6631C3.20035 23.3385 2.4915 22.8629 1.89502 22.2638C1.29514 21.6679 0.818858 20.9594 0.493652 20.1789C0.168447 19.3984 0.000708001 18.5613 0 17.7158V6.59978C6.94528e-06 5.75382 0.167255 4.91619 0.491943 4.13502C0.816632 3.35384 1.29245 2.64452 1.89209 2.04778C2.48835 1.44828 3.19714 0.972442 3.97778 0.647589C4.75843 0.322735 5.59538 0.155264 6.44092 0.154785L6.44409 0.159784ZM17.5549 1.93778H6.44409C5.20723 1.94043 4.02172 2.43301 3.14722 3.3077C2.27272 4.18239 1.78045 5.36792 1.77808 6.60478V17.7158C1.78072 18.9525 2.27299 20.1378 3.14746 21.0122C4.02193 21.8867 5.2074 22.3791 6.44409 22.3818H17.5549C18.7914 22.3781 19.9762 21.8853 20.8506 21.0111C21.725 20.1369 22.218 18.9522 22.2219 17.7158V6.59978C22.2182 5.36316 21.7255 4.17823 20.8511 3.3038C19.9766 2.42936 18.7916 1.93648 17.5549 1.93279V1.93778Z" fill="CurrentColor"/>
</svg>
