<svg width="20" height="21" viewBox="0 0 20 21" fill="none" xmlns="http://www.w3.org/2000/svg">
<path fill-rule="evenodd" clip-rule="evenodd" d="M2 2.16309H3V1.16309C3 0.897869 3.10537 0.64353 3.2929 0.455994C3.48044 0.268457 3.73478 0.163086 4 0.163086C4.26521 0.163086 4.51955 0.268457 4.70709 0.455994C4.89463 0.64353 5 0.897869 5 1.16309V2.16309H15V1.16309C15 0.897869 15.1054 0.64353 15.2929 0.455994C15.4804 0.268457 15.7348 0.163086 16 0.163086C16.2652 0.163086 16.5196 0.268457 16.7071 0.455994C16.8946 0.64353 17 0.897869 17 1.16309V2.16309H19C19.2652 2.16309 19.5196 2.26846 19.7071 2.45599C19.8946 2.64353 20 2.89787 20 3.16309V17.1631C20 17.4283 19.8946 17.6827 19.7071 17.8702C19.5196 18.0577 19.2652 18.1631 19 18.1631H12.9C13.8501 16.5527 14.2029 14.6593 13.8966 12.8148C13.5903 10.9704 12.6444 9.29264 11.2248 8.07584C9.80518 6.85903 8.00249 6.18086 6.13287 6.16025C4.26325 6.13963 2.44609 6.7779 0.999997 7.9631V3.16309C1.01775 2.90372 1.12879 2.65957 1.31262 2.47574C1.49645 2.29191 1.74063 2.18084 2 2.16309ZM6 8.16309C4.81331 8.16309 3.65326 8.515 2.66656 9.17429C1.67987 9.83357 0.910848 10.7706 0.456723 11.867C0.00259688 12.9634 -0.116219 14.1698 0.115292 15.3336C0.346803 16.4975 0.918267 17.5666 1.75738 18.4057C2.5965 19.2448 3.66558 19.8163 4.82946 20.0478C5.99335 20.2793 7.19972 20.1605 8.29608 19.7064C9.39243 19.2522 10.3295 18.4832 10.9888 17.4965C11.6481 16.5098 12 15.3498 12 14.1631C11.9952 12.5732 11.3616 11.0499 10.2374 9.92569C9.11317 8.8015 7.58984 8.16783 6 8.16309ZM4 15.1631H6C6.13341 15.1711 6.267 15.1508 6.39196 15.1033C6.51692 15.0559 6.6304 14.9825 6.72491 14.888C6.81942 14.7935 6.89283 14.68 6.94024 14.5551C6.98766 14.4301 7.00802 14.2965 7 14.1631V11.1631C7 10.8979 6.89463 10.6435 6.70709 10.456C6.51955 10.2685 6.26521 10.1631 6 10.1631C5.73478 10.1631 5.48044 10.2685 5.2929 10.456C5.10537 10.6435 5 10.8979 5 11.1631V13.1631H4C3.73478 13.1631 3.48044 13.2685 3.2929 13.456C3.10537 13.6435 3 13.8979 3 14.1631C3 14.4283 3.10537 14.6827 3.2929 14.8702C3.48044 15.0577 3.73478 15.1631 4 15.1631Z" fill="currentColor"/>
</svg>
