<svg width="25" height="25" viewBox="0 0 25 25" fill="none" xmlns="http://www.w3.org/2000/svg">
<path fill-rule="evenodd" clip-rule="evenodd" d="M19.595 16.7389L24.5869 21.7309C24.7841 21.9301 24.9182 22.183 24.9724 22.4579C25.0267 22.7329 24.9988 23.0177 24.8921 23.2768C24.7854 23.536 24.6047 23.7579 24.3726 23.915C24.1405 24.0721 23.8672 24.1572 23.5869 24.1599C23.2127 24.1542 22.8548 24.0053 22.5869 23.7439L17.5869 18.7489C15.4904 20.3362 12.8696 21.0687 10.2539 20.7982C7.63823 20.5278 5.22259 19.2747 3.49514 17.292C1.76769 15.3094 0.85725 12.745 0.947532 10.1169C1.03781 7.48881 2.12228 4.99294 3.98171 3.1335C5.84115 1.27406 8.33702 0.189669 10.9651 0.0993867C13.5932 0.00910469 16.1575 0.919664 18.1402 2.64711C20.1228 4.37456 21.3758 6.79014 21.6463 9.40583C21.9167 12.0215 21.1843 14.6424 19.5969 16.7389H19.595ZM6.04299 5.2059C4.81855 6.43283 4.05745 8.04632 3.88918 9.77151C3.72091 11.4967 4.15586 13.2269 5.12014 14.6673C6.08442 16.1077 7.51836 17.1692 9.17751 17.671C10.8367 18.1729 12.6183 18.0839 14.2193 17.4194C15.8202 16.7548 17.1412 15.5558 17.9573 14.0265C18.7734 12.4973 19.0341 10.7324 18.6948 9.03252C18.3556 7.33265 17.4375 5.80298 16.0969 4.70408C14.7564 3.60519 13.0764 3.00505 11.343 3.00591C10.3583 3.00552 9.38319 3.19967 8.47366 3.57721C7.56412 3.95475 6.73801 4.50824 6.04299 5.2059Z" fill="currentColor"/>
</svg>
