<svg width="20" height="18" viewBox="0 0 20 18" fill="none" xmlns="http://www.w3.org/2000/svg">
<path fill-rule="evenodd" clip-rule="evenodd" d="M0 15.4532C0.00052915 16.0565 0.240368 16.6349 0.66687 17.0616C1.09337 17.4883 1.67173 17.7284 2.27502 17.7292H18.735V16.7182H17.681V14.1892H18.735V13.7462H20V12.7352H19.241V10.2062H20V9.1942H19.178V8.3302L17.929 5.9912H19.241V4.6302L15.941 0.596191H4.29999L1.29999 5.3282C0.934731 5.62067 0.669017 6.01907 0.539368 6.46867C0.409718 6.91827 0.422479 7.39699 0.575928 7.83904C0.729377 8.28108 1.01602 8.66475 1.39636 8.93732C1.7767 9.20988 2.2321 9.35795 2.70001 9.36119C2.33519 9.50473 2.01398 9.74074 1.76801 10.046C1.52203 10.3513 1.35971 10.7153 1.29706 11.1024C1.23441 11.4894 1.27361 11.886 1.41071 12.2533C1.5478 12.6206 1.77807 12.9459 2.07898 13.1972C1.51321 13.2454 0.986052 13.5038 0.601257 13.9213C0.216462 14.3389 0.00194661 14.8854 0 15.4532ZM1.45398 7.0872C1.45382 6.86291 1.51368 6.64266 1.62726 6.44925C1.74084 6.25584 1.90401 6.09631 2.09998 5.9872H17.175V8.3472H2.71997C2.38482 8.34693 2.06353 8.21367 1.82654 7.97668C1.58955 7.7397 1.45626 7.41834 1.45599 7.08319L1.45398 7.0872ZM3.53998 10.2062H18.229V12.7352H3.54199C3.37294 12.74 3.20469 12.7108 3.04712 12.6494C2.88955 12.5879 2.74589 12.4956 2.62463 12.3777C2.50338 12.2598 2.407 12.1188 2.34119 11.963C2.27537 11.8072 2.24146 11.6398 2.24146 11.4707C2.24146 11.3016 2.27537 11.1342 2.34119 10.9784C2.407 10.8226 2.50338 10.6816 2.62463 10.5637C2.74589 10.4458 2.88955 10.3534 3.04712 10.292C3.20469 10.2306 3.37294 10.2014 3.54199 10.2062H3.53998ZM2.27502 14.1892H16.675V16.7182H2.27502C1.94581 16.7089 1.63315 16.5717 1.40356 16.3355C1.17398 16.0994 1.04559 15.783 1.04559 15.4537C1.04559 15.1244 1.17398 14.808 1.40356 14.5719C1.63315 14.3357 1.94581 14.1985 2.27502 14.1892Z" fill="currentColor"/>
</svg>
