<svg width="20" height="18" viewBox="0 0 20 18" fill="none" xmlns="http://www.w3.org/2000/svg">
<path fill-rule="evenodd" clip-rule="evenodd" d="M6.20002 17.3221V10.7381L8.07502 11.6761C8.27986 11.7789 8.50432 11.8367 8.73335 11.8455C8.96237 11.8543 9.19065 11.8139 9.40278 11.7271C9.61491 11.6404 9.80596 11.5091 9.96314 11.3423C10.1203 11.1755 10.24 10.977 10.314 10.7601V10.7531C10.4171 10.4525 10.4227 10.127 10.33 9.82306L11.784 6.91507C11.8494 6.7766 11.8579 6.61803 11.8079 6.47333C11.7578 6.32862 11.6531 6.20926 11.5161 6.14078C11.3792 6.0723 11.2209 6.06016 11.0751 6.10693C10.9293 6.15371 10.8076 6.25568 10.736 6.39105L9.49598 8.87106L6.72102 7.49005C5.98064 7.01134 5.12751 6.73548 4.24702 6.69006H3.72804C2.74119 6.69254 1.79522 7.08465 1.09602 7.78107C0.747746 8.12609 0.471485 8.53687 0.283335 8.98956C0.0951848 9.44226 -0.00111095 9.92783 9.66928e-06 10.4181V12.3C0.00045302 12.6857 0.121763 13.0616 0.346872 13.3748C0.571982 13.688 0.889577 13.9227 1.25501 14.0461V17.3211C1.25501 17.398 1.27017 17.4741 1.29963 17.5452C1.32909 17.6162 1.37228 17.6807 1.42671 17.7351C1.48113 17.7894 1.54574 17.8325 1.61683 17.8618C1.68792 17.8912 1.76411 17.9062 1.84101 17.9061H5.60603C5.68298 17.9062 5.75918 17.8912 5.83033 17.8618C5.90148 17.8325 5.96613 17.7895 6.02064 17.7351C6.07515 17.6808 6.11845 17.6163 6.14802 17.5452C6.17759 17.4742 6.19287 17.398 6.193 17.3211L6.20002 17.3221ZM5.71302 5.75006C5.3339 6.21747 4.80175 6.53587 4.21064 6.64899C3.61953 6.76211 3.00752 6.66267 2.48261 6.36826C1.95771 6.07384 1.55372 5.60339 1.34205 5.04001C1.13038 4.47663 1.12463 3.85655 1.32582 3.28934C1.527 2.72213 1.92218 2.24428 2.44154 1.94019C2.9609 1.6361 3.57103 1.52533 4.16413 1.62747C4.75724 1.72962 5.29515 2.03811 5.68287 2.49841C6.07059 2.95872 6.28317 3.54123 6.28303 4.14307C6.28338 4.72833 6.08208 5.29583 5.71302 5.75006ZM13.55 11.0001L11.18 17.5181C11.14 17.6281 11.068 17.7236 10.9732 17.7923C10.8783 17.8609 10.765 17.8995 10.648 17.9031H10.61C10.5174 17.9002 10.4269 17.8753 10.3458 17.8306C10.2647 17.7859 10.1954 17.7226 10.1436 17.6458C10.0917 17.5691 10.0588 17.4811 10.0476 17.3892C10.0364 17.2973 10.0471 17.204 10.079 17.1171L12.3 11.0001H11.456C11.5512 10.6728 11.5824 10.3302 11.548 9.99106L12.825 7.43506C12.9345 7.228 13.0015 7.00116 13.022 6.76785C13.0426 6.53454 13.0163 6.29947 12.9448 6.07645C12.8732 5.85343 12.7579 5.64695 12.6054 5.46915C12.453 5.29134 12.2665 5.14579 12.057 5.04105C11.8475 4.9363 11.6192 4.8745 11.3855 4.85922C11.1518 4.84394 10.9174 4.87551 10.6961 4.95209C10.4747 5.02866 10.2709 5.14868 10.0966 5.30512C9.92226 5.46156 9.78101 5.65126 9.68104 5.86307L8.964 7.29706L7.529 6.58307V2.25507C7.529 1.7668 7.72299 1.29853 8.06825 0.953279C8.4135 0.608024 8.88174 0.414064 9.37 0.414064H18.157C18.3993 0.4138 18.6392 0.461366 18.863 0.554017C19.0869 0.646668 19.2903 0.782578 19.4615 0.953981C19.6327 1.12538 19.7684 1.3289 19.8608 1.55286C19.9533 1.77681 20.0005 2.0168 20 2.25906V9.15906C20 9.64698 19.8063 10.1149 19.4615 10.4601C19.1167 10.8053 18.6489 10.9995 18.161 11.0001H15.209L17.455 17.1161C17.4871 17.2031 17.498 17.2965 17.4869 17.3885C17.4758 17.4806 17.4429 17.5687 17.3911 17.6455C17.3392 17.7224 17.2697 17.7859 17.1885 17.8306C17.1073 17.8754 17.0167 17.9002 16.924 17.9031H16.888C16.7711 17.8997 16.6579 17.8614 16.5629 17.7932C16.4679 17.7249 16.3955 17.6298 16.355 17.5201L13.961 11.0001H13.55ZM16.905 8.49005C17.0605 8.49005 17.2094 8.42832 17.3193 8.31842C17.4292 8.20853 17.491 8.05947 17.491 7.90405C17.491 7.74864 17.4292 7.59958 17.3193 7.48969C17.2094 7.37979 17.0605 7.31806 16.905 7.31806H14.277C14.1216 7.31806 13.9725 7.37979 13.8626 7.48969C13.7527 7.59958 13.691 7.74864 13.691 7.90405C13.691 8.05947 13.7527 8.20853 13.8626 8.31842C13.9725 8.42832 14.1216 8.49005 14.277 8.49005H16.905ZM16.905 6.29007C17.0605 6.29007 17.2094 6.22834 17.3193 6.11844C17.4292 6.00854 17.491 5.85949 17.491 5.70407C17.491 5.54866 17.4292 5.3996 17.3193 5.2897C17.2094 5.17981 17.0605 5.11807 16.905 5.11807H14.277C14.1216 5.11807 13.9725 5.17981 13.8626 5.2897C13.7527 5.3996 13.691 5.54866 13.691 5.70407C13.691 5.85949 13.7527 6.00854 13.8626 6.11844C13.9725 6.22834 14.1216 6.29007 14.277 6.29007H16.905ZM16.905 4.09006C17.0605 4.09006 17.2094 4.02832 17.3193 3.91843C17.4292 3.80853 17.491 3.65948 17.491 3.50406C17.491 3.34864 17.4292 3.19959 17.3193 3.08969C17.2094 2.9798 17.0605 2.91806 16.905 2.91806H10.63C10.4746 2.91806 10.3255 2.9798 10.2156 3.08969C10.1058 3.19959 10.044 3.34864 10.044 3.50406C10.044 3.65948 10.1058 3.80853 10.2156 3.91843C10.3255 4.02832 10.4746 4.09006 10.63 4.09006H16.905Z" fill="currentColor"/>
</svg>
