<svg width="148" height="32" viewBox="0 0 148 32" fill="none" xmlns="http://www.w3.org/2000/svg">
    <path d="M16.0001 8.09435C17.7436 8.09435 19.1569 6.68109 19.1569 4.93803C19.1569 3.19452 17.7436 1.78125 16.0001 1.78125C14.2566 1.78125 12.8438 3.19452 12.8438 4.93803C12.8438 6.68153 14.257 8.09435 16.0001 8.09435Z" fill="#185DE7" />
    <path d="M3.15678 15.6451C4.90028 15.6451 6.31355 14.2319 6.31355 12.4884C6.31355 10.7449 4.90028 9.33203 3.15678 9.33203C1.41327 9.33203 0 10.7453 0 12.4884C0 14.2319 1.41327 15.6451 3.15678 15.6451Z" fill="#FF8800" />
    <path d="M28.8438 15.6451C30.5873 15.6451 32.0006 14.2319 32.0006 12.4884C32.0006 10.7449 30.5873 9.33203 28.8438 9.33203C27.1003 9.33203 25.6875 10.7453 25.6875 12.4884C25.6875 14.2319 27.1008 15.6451 28.8438 15.6451Z" fill="#17BAA7" />
    <path d="M5.86977 25.7439C4.63716 24.5113 4.63716 22.5125 5.86977 21.2799C7.10283 20.0473 9.10112 20.0473 10.3337 21.2799C11.5664 22.5125 11.5664 24.5113 10.3337 25.7439C9.10068 26.9765 7.10239 26.977 5.86977 25.7439Z" fill="#964DDE" />
    <path d="M21.6295 25.8181C20.3969 24.5855 20.3969 22.5868 21.6295 21.3541C22.8626 20.1215 24.8609 20.1215 26.0935 21.3541C27.3261 22.5868 27.3261 24.5855 26.0935 25.8181C24.8604 27.0507 22.8622 27.0512 21.6295 25.8181Z" fill="#3495EF" />
    <path fill-rule="evenodd" clip-rule="evenodd"
        d="M7.87026 11.1048C7.97324 11.4567 8.36651 11.6654 8.69408 11.5011L12.581 9.55434C12.9552 9.36703 12.9823 8.8304 12.6747 8.54721C12.625 8.50149 12.5761 8.45488 12.5282 8.40695C11.6396 7.51833 11.0901 6.29059 11.0901 4.93547C11.0901 4.54265 10.6737 4.23416 10.3226 4.40993L5.4472 6.85164L5.39971 6.87561C4.93365 7.10864 5.02508 7.91292 5.48315 8.16016C5.90615 8.3883 6.29143 8.67637 6.62832 9.01327C7.20269 9.58763 7.6359 10.3036 7.8707 11.1043L7.87026 11.1048Z"
        fill="#185DE7" />
    <path fill-rule="evenodd" clip-rule="evenodd"
        d="M10.9029 15.2361C10.9029 14.8321 10.6747 14.4629 10.3134 14.2822L8.69239 13.4708C8.36482 13.307 7.97156 13.5156 7.86858 13.8676C7.63422 14.6684 7.20145 15.3843 6.62664 15.9587C6.09178 16.494 5.43308 16.9063 4.69804 17.1496C4.32919 17.2716 4.133 17.7124 4.34517 18.0378L4.99055 19.0267C5.15522 19.2792 5.49567 19.3423 5.76022 19.198C6.48816 18.8016 7.29422 18.6028 8.09939 18.6028C8.74921 18.6028 9.39903 18.732 10.008 18.9898C10.4053 19.1581 10.9024 18.8926 10.9024 18.4608V15.2361H10.9029Z"
        fill="#FF8800" />
    <path fill-rule="evenodd" clip-rule="evenodd"
        d="M21.6869 14.2691C21.3247 14.4498 21.0957 14.8195 21.0957 15.2243L21.0961 18.5187C21.0961 18.9479 21.5884 19.2134 21.9848 19.0487C22.5849 18.7997 23.2236 18.675 23.8614 18.675C24.6759 18.675 25.4913 18.8778 26.2259 19.2835C26.4953 19.4322 26.8442 19.3652 27.0071 19.1037L27.6756 18.0296C27.878 17.7042 27.6805 17.2741 27.3165 17.1552C26.5757 16.9124 25.9125 16.4982 25.3732 15.9598C24.7967 15.3837 24.363 14.6646 24.1295 13.8608C24.0274 13.5088 23.6346 13.2993 23.3066 13.4626L21.6865 14.2691H21.6869Z"
        fill="#3495EF" />
    <path fill-rule="evenodd" clip-rule="evenodd"
        d="M19.3229 8.55403C19.0144 8.83766 19.0415 9.37563 19.4161 9.56294L23.3066 11.5097C23.6346 11.674 24.0279 11.4645 24.1304 11.1125C24.3643 10.31 24.798 9.59223 25.3732 9.01654C25.7088 8.68097 26.0927 8.39335 26.514 8.16564C26.972 7.91841 27.0621 7.11413 26.5965 6.88154L26.5424 6.85446L21.6714 4.41719C21.3238 4.2432 20.911 4.54902 20.911 4.93741C20.911 6.29297 20.3615 7.52071 19.4729 8.40933C19.4236 8.4586 19.3735 8.50698 19.322 8.55403H19.3229Z"
        fill="#17BAA7" />
    <path fill-rule="evenodd" clip-rule="evenodd"
        d="M18.9893 22.9775L16.4859 24.2323C16.1854 24.3827 15.8316 24.3827 15.5311 24.2327L13.4783 23.2065C13.2639 23.0991 13.0109 23.2735 13.0109 23.5132C13.0109 24.7698 12.5315 26.0259 11.5728 26.9851C11.4538 27.1036 11.3308 27.215 11.2035 27.3189C10.8639 27.5968 10.8723 28.176 11.2647 28.3718L13.8844 29.6816C14.5493 30.0203 15.2781 30.1881 16.0012 30.1881C16.7238 30.1881 17.4522 30.0203 18.1162 29.6914L20.6658 28.413C21.0551 28.2177 21.0662 27.646 20.731 27.3677C20.6143 27.271 20.5016 27.168 20.3924 27.0588C20.391 27.0575 20.3902 27.0552 20.3902 27.053C20.3902 27.0508 20.3893 27.049 20.3875 27.0473C19.4305 26.0885 18.9516 24.8355 18.9516 23.5847C18.9516 23.3814 18.964 23.1785 18.9893 22.977C18.9893 22.977 18.9893 22.9766 18.9889 22.9766L18.9893 22.9775Z"
        fill="#964DDE" />
    <path fill-rule="evenodd" clip-rule="evenodd"
        d="M52.7455 20.0351C52.7455 20.9351 52.5165 21.7619 52.0587 22.5173C51.6008 23.2727 50.9259 23.8745 50.0349 24.3245C49.1434 24.7745 48.0629 24.9994 46.794 24.9994C44.8822 24.9994 43.3084 24.5337 42.0716 23.6017C40.8347 22.6703 40.1597 21.3687 40.0478 19.6982H44.4328C44.4969 20.3411 44.7264 20.8468 45.1196 21.2163C45.5133 21.5858 46.015 21.7703 46.6258 21.7703C47.1562 21.7703 47.5736 21.6258 47.879 21.3367C48.1844 21.0476 48.3363 20.6617 48.3363 20.1802C48.3363 19.7466 48.1957 19.3855 47.915 19.0958C47.6338 18.8067 47.2845 18.5699 46.8671 18.3854C46.4492 18.2004 45.871 17.9799 45.1325 17.7223C44.0559 17.3533 43.1762 16.9956 42.494 16.6502C41.8111 16.3049 41.2251 15.7908 40.7351 15.1079C40.2452 14.4251 40 13.5375 40 12.4452C40 11.4333 40.257 10.5576 40.7711 9.81851C41.2852 9.07999 41.9962 8.51359 42.9034 8.11987C43.8113 7.7267 44.8513 7.52928 46.024 7.52928C47.9195 7.52928 49.4252 7.97925 50.5417 8.87864C51.6582 9.77858 52.2887 11.0149 52.4333 12.5892H47.9757C47.8953 12.0267 47.6906 11.5813 47.361 11.2522C47.0319 10.9226 46.5859 10.7584 46.024 10.7584C45.542 10.7584 45.1522 10.8866 44.8552 11.1437C44.5582 11.4007 44.4097 11.7781 44.4097 12.2759C44.4097 12.6775 44.5419 13.0189 44.8068 13.2996C45.0723 13.5808 45.4053 13.8098 45.8069 13.9864C46.2085 14.163 46.7867 14.388 47.5421 14.6613C48.6338 15.0309 49.5259 15.3965 50.2166 15.7576C50.9073 16.1192 51.5018 16.6452 51.9996 17.3359C52.4974 18.0271 52.7466 18.9265 52.7466 20.0346L52.7455 20.0351ZM138.573 11.2162C139.601 11.2162 140.484 11.4491 141.223 11.9154C141.962 12.3817 142.5 13.0161 142.838 13.8188V7H146.958V24.8301H142.838V22.3964C142.5 23.1996 141.963 23.834 141.223 24.3003C140.484 24.766 139.601 24.9994 138.573 24.9994C137.464 24.9994 136.472 24.7221 135.597 24.1681C134.722 23.6141 134.031 22.8148 133.525 21.7703C133.019 20.7264 132.766 19.5053 132.766 18.1081C132.766 16.6946 133.019 15.4696 133.525 14.4341C134.031 13.398 134.722 12.6027 135.597 12.0487C136.473 11.4947 137.464 11.2174 138.573 11.2174V11.2162ZM139.898 14.8306C139.015 14.8306 138.304 15.1197 137.766 15.698C137.228 16.2762 136.959 17.0794 136.959 18.1076C136.959 19.1357 137.228 19.9389 137.766 20.5172C138.304 21.0954 139.015 21.3845 139.898 21.3845C140.766 21.3845 141.477 21.0875 142.031 20.493C142.585 19.899 142.862 19.1037 142.862 18.1076C142.862 17.0957 142.585 16.2964 142.031 15.7103C141.477 15.1242 140.766 14.8306 139.898 14.8306ZM127.104 13.9149C127.618 13.0954 128.281 12.4452 129.092 11.9632C129.903 11.4812 130.782 11.2404 131.73 11.2404V15.6496H130.55C129.457 15.6496 128.61 15.8825 128.007 16.3487C127.405 16.8145 127.104 17.6019 127.104 18.71V24.8301H122.984V11.385H127.104V13.9149ZM120.839 17.7459C120.839 18.0834 120.799 18.4529 120.718 18.8539H111.394C111.442 19.8658 111.699 20.5931 112.165 21.0346C112.631 21.4762 113.225 21.6972 113.948 21.6972C114.558 21.6972 115.064 21.5448 115.465 21.2388C115.867 20.9339 116.132 20.5402 116.261 20.0587H120.621C120.445 21.0065 120.059 21.8536 119.465 22.6005C118.871 23.3475 118.116 23.9336 117.2 24.3599C116.284 24.7857 115.265 24.9983 114.14 24.9983C112.823 24.9983 111.654 24.721 110.634 24.167C109.615 23.613 108.815 22.8137 108.237 21.7692C107.659 20.7253 107.37 19.5042 107.37 18.107C107.37 16.6935 107.655 15.4685 108.225 14.433C108.795 13.3969 109.594 12.6016 110.623 12.0476C111.651 11.4935 112.823 11.2162 114.14 11.2162C115.473 11.2162 116.646 11.4896 117.658 12.0357C118.67 12.5819 119.453 13.3491 120.007 14.3368C120.561 15.3245 120.839 16.4607 120.839 17.7459H120.839ZM116.671 17.1193C116.686 16.2362 116.45 15.5731 115.96 15.1316C115.47 14.69 114.864 14.469 114.141 14.469C113.386 14.469 112.76 14.694 112.262 15.1439C111.764 15.5933 111.483 16.252 111.418 17.1199H116.671L116.671 17.1193ZM100.31 11.2404C101.853 11.2404 103.077 11.7545 103.984 12.7821C104.892 13.8103 105.345 15.2238 105.345 17.0231V24.8301H101.225V17.5052C101.225 16.6052 100.988 15.9027 100.514 15.397C100.04 14.8908 99.4098 14.6377 98.6229 14.6377C97.7876 14.6377 97.1251 14.9032 96.6352 15.433C96.1452 15.9634 95.9 16.7183 95.9 17.6981V24.8301H91.7799V11.385H95.9V13.8424C96.2853 13.0392 96.8596 12.4047 97.6228 11.9384C98.3861 11.4727 99.2816 11.2399 100.31 11.2399L100.31 11.2404ZM80.552 11.2162C81.5802 11.2162 82.4633 11.4491 83.2024 11.9154C83.9409 12.3817 84.487 13.0161 84.8408 13.8188V11.3855H88.9373V24.8307H84.8408V22.3969C84.487 23.2001 83.9409 23.8346 83.2024 24.3009C82.4633 24.7666 81.5797 25 80.552 25C79.444 25 78.4512 24.7227 77.576 24.1687C76.7008 23.6147 76.0101 22.8154 75.5039 21.7709C74.9983 20.727 74.7452 19.5058 74.7452 18.1087C74.7452 16.6952 74.9983 15.4702 75.5039 14.4347C76.0101 13.3986 76.7008 12.6033 77.576 12.0492C78.4512 11.4952 79.4434 11.2179 80.552 11.2179V11.2162ZM81.8772 14.8306C80.9941 14.8306 80.2826 15.1197 79.7449 15.698C79.2066 16.2762 78.9378 17.0794 78.9378 18.1076C78.9378 19.1357 79.2066 19.9389 79.7449 20.5172C80.2826 21.0954 80.9941 21.3845 81.8772 21.3845C82.7445 21.3845 83.4555 21.0875 84.0095 20.493C84.5635 19.899 84.8408 19.1037 84.8408 18.1076C84.8408 17.0957 84.5635 16.2964 84.0095 15.7103C83.4549 15.1242 82.7445 14.8306 81.8772 14.8306ZM69.0822 13.9149C69.5963 13.0954 70.2589 12.4452 71.07 11.9632C71.8816 11.4812 72.7608 11.2404 73.7085 11.2404V15.6496H72.5279C71.435 15.6496 70.588 15.8825 69.9856 16.3487C69.3837 16.8145 69.0822 17.6019 69.0822 18.71V24.8301H64.9622V11.385H69.0822V13.9149ZM62.6493 21.2877V24.8301H60.7938C59.2194 24.8301 57.9944 24.4404 57.1192 23.6613C56.244 22.8823 55.8064 21.5932 55.8064 19.7938V14.8548H53.9992V11.385H55.8064V8.08387H59.9264V11.385H62.6252V14.8548H59.9264V19.8664C59.9264 20.3968 60.035 20.7663 60.2515 20.9744C60.4687 21.1831 60.8337 21.2877 61.3484 21.2877H62.6493Z"
        fill="#05090D" />
</svg>