<svg width="28" height="26" viewBox="0 0 28 26" fill="none" xmlns="http://www.w3.org/2000/svg">
<path d="M14.0001 6.08256C15.5256 6.08256 16.7623 4.84595 16.7623 3.32077C16.7623 1.79521 15.5256 0.558594 14.0001 0.558594C12.4745 0.558594 11.2383 1.79521 11.2383 3.32077C11.2383 4.84634 12.4749 6.08256 14.0001 6.08256Z" fill="#185DE7"/>
<path d="M2.76218 12.69C4.28775 12.69 5.52436 11.4534 5.52436 9.92781C5.52436 8.40224 4.28775 7.16602 2.76218 7.16602C1.23661 7.16602 0 8.40263 0 9.92781C0 11.4534 1.23661 12.69 2.76218 12.69Z" fill="#FF8800"/>
<path d="M25.2384 12.69C26.7639 12.69 28.0005 11.4534 28.0005 9.92781C28.0005 8.40224 26.7639 7.16602 25.2384 7.16602C23.7128 7.16602 22.4766 8.40263 22.4766 9.92781C22.4766 11.4534 23.7132 12.69 25.2384 12.69Z" fill="#17BAA7"/>
<path d="M5.13605 21.5254C4.05751 20.4469 4.05751 18.698 5.13605 17.6195C6.21498 16.5409 7.96348 16.5409 9.04202 17.6195C10.1206 18.698 10.1206 20.4469 9.04202 21.5254C7.96309 22.604 6.21459 22.6043 5.13605 21.5254Z" fill="#964DDE"/>
<path d="M18.9261 21.5899C17.8476 20.5113 17.8476 18.7624 18.9261 17.6839C20.005 16.6054 21.7535 16.6054 22.8321 17.6839C23.9106 18.7624 23.9106 20.5113 22.8321 21.5899C21.7531 22.6684 20.0046 22.6688 18.9261 21.5899Z" fill="#3495EF"/>
<path fill-rule="evenodd" clip-rule="evenodd" d="M6.88623 8.71667C6.97634 9.02466 7.32045 9.2072 7.60707 9.0635L11.0081 7.36005C11.3355 7.19615 11.3592 6.7266 11.0901 6.47881C11.0466 6.4388 11.0039 6.39802 10.9619 6.35608C10.1844 5.57854 9.70357 4.50427 9.70357 3.31854C9.70357 2.97482 9.33926 2.70489 9.03205 2.85869L4.76605 4.99518L4.7245 5.01616C4.3167 5.22006 4.3967 5.92381 4.79751 6.14014C5.16764 6.33977 5.50476 6.59183 5.79954 6.88661C6.30211 7.38918 6.68117 8.01564 6.88662 8.71628L6.88623 8.71667Z" fill="#185DE7"/>
<path fill-rule="evenodd" clip-rule="evenodd" d="M9.53999 12.3325C9.53999 11.9791 9.34036 11.656 9.02422 11.4979L7.60585 10.7879C7.31922 10.6446 6.97511 10.8272 6.88501 11.1351C6.67994 11.8358 6.30127 12.4623 5.79831 12.9648C5.33031 13.4332 4.75395 13.794 4.11079 14.0069C3.78804 14.1137 3.61638 14.4993 3.80202 14.784L4.36673 15.6493C4.51082 15.8703 4.80871 15.9255 5.04019 15.7992C5.67714 15.4524 6.38244 15.2784 7.08697 15.2784C7.65556 15.2784 8.22415 15.3914 8.75701 15.6171C9.10461 15.7643 9.53961 15.532 9.53961 15.1541V12.3325H9.53999Z" fill="#FF8800"/>
<path fill-rule="evenodd" clip-rule="evenodd" d="M18.9763 11.4855C18.6594 11.6436 18.459 11.9671 18.459 12.3213L18.4594 15.2039C18.4594 15.5794 18.8901 15.8117 19.2369 15.6676C19.762 15.4497 20.3209 15.3406 20.879 15.3406C21.5917 15.3406 22.3051 15.5181 22.9479 15.8731C23.1837 16.0032 23.4889 15.9445 23.6315 15.7158L24.2164 14.7759C24.3935 14.4912 24.2206 14.1148 23.9022 14.0108C23.254 13.7983 22.6737 13.436 22.2018 12.9648C21.6973 12.4607 21.3179 11.8315 21.1136 11.1282C21.0243 10.8202 20.6805 10.6369 20.3935 10.7798L18.9759 11.4855H18.9763Z" fill="#3495EF"/>
<path fill-rule="evenodd" clip-rule="evenodd" d="M16.9078 6.4838C16.6378 6.73198 16.6615 7.2027 16.9893 7.36659L20.3935 9.07004C20.6805 9.21374 21.0246 9.03042 21.1143 8.72244C21.319 8.02024 21.6985 7.39223 22.2018 6.88849C22.4954 6.59487 22.8314 6.3432 23.2 6.14396C23.6008 5.92763 23.6796 5.22388 23.2722 5.02037L23.2248 4.99668L18.9627 2.86407C18.6586 2.71182 18.2974 2.97942 18.2974 3.31925C18.2974 4.50538 17.8166 5.57964 17.039 6.35719C16.9959 6.4003 16.952 6.44263 16.907 6.4838H16.9078Z" fill="#17BAA7"/>
<path fill-rule="evenodd" clip-rule="evenodd" d="M16.6154 19.1062L14.4249 20.2042C14.162 20.3359 13.8524 20.3359 13.5895 20.2046L11.7932 19.3067C11.6057 19.2127 11.3843 19.3653 11.3843 19.575C11.3843 20.6745 10.9648 21.7737 10.1259 22.613C10.0218 22.7167 9.91425 22.8141 9.80278 22.905C9.50567 23.1481 9.51305 23.655 9.85638 23.8263L12.1486 24.9724C12.7304 25.2687 13.3681 25.4155 14.0008 25.4155C14.6331 25.4155 15.2704 25.2687 15.8515 24.9809L18.0823 23.8624C18.4229 23.6915 18.4326 23.1913 18.1394 22.9477C18.0373 22.8631 17.9386 22.773 17.8431 22.6774C17.8419 22.6763 17.8411 22.6743 17.8411 22.6724C17.8411 22.6704 17.8404 22.6689 17.8388 22.6673C17.0015 21.8284 16.5824 20.732 16.5824 19.6376C16.5824 19.4597 16.5933 19.2822 16.6154 19.1059C16.6154 19.1059 16.6154 19.1055 16.615 19.1055L16.6154 19.1062Z" fill="#964DDE"/>
</svg>
