<svg width="196" height="40" viewBox="0 0 196 40" fill="none" xmlns="http://www.w3.org/2000/svg">
<path d="M20.0001 10.116C22.1795 10.116 23.9461 8.34941 23.9461 6.17058C23.9461 3.9912 22.1795 2.22461 20.0001 2.22461C17.8207 2.22461 16.0547 3.9912 16.0547 6.17058C16.0547 8.34996 17.8213 10.116 20.0001 10.116Z" fill="white"/>
<path d="M3.94597 19.5535C6.12535 19.5535 7.89194 17.7869 7.89194 15.6075C7.89194 13.4281 6.12535 11.6621 3.94597 11.6621C1.76659 11.6621 0 13.4287 0 15.6075C0 17.7869 1.76659 19.5535 3.94597 19.5535Z" fill="white"/>
<path d="M36.0548 19.5555C38.2342 19.5555 40.0008 17.7889 40.0008 15.6095C40.0008 13.4301 38.2342 11.6641 36.0548 11.6641C33.8754 11.6641 32.1094 13.4307 32.1094 15.6095C32.1094 17.7889 33.876 19.5555 36.0548 19.5555Z" fill="white"/>
<path d="M7.33722 32.1789C5.79645 30.6381 5.79645 28.1397 7.33722 26.5989C8.87854 25.0582 11.3764 25.0582 12.9172 26.5989C14.4579 28.1397 14.4579 30.6381 12.9172 32.1789C11.3758 33.7197 8.87799 33.7202 7.33722 32.1789Z" fill="white"/>
<path d="M27.0364 32.2668C25.4957 30.726 25.4957 28.2276 27.0364 26.6868C28.5778 25.1461 31.0756 25.1461 32.6164 26.6868C34.1572 28.2276 34.1572 30.726 32.6164 32.2668C31.0751 33.8076 28.5772 33.8081 27.0364 32.2668Z" fill="white"/>
<path fill-rule="evenodd" clip-rule="evenodd" d="M9.83831 13.8829C9.96703 14.3229 10.4586 14.5837 10.8681 14.3784L15.7268 11.9449C16.1945 11.7107 16.2283 11.0399 15.8438 10.686C15.7817 10.6288 15.7207 10.5706 15.6607 10.5106C14.55 9.39986 13.8631 7.8652 13.8631 6.17129C13.8631 5.68026 13.3426 5.29466 12.9038 5.51437L6.80948 8.5665L6.75012 8.59646C6.16755 8.88775 6.28184 9.89311 6.85443 10.2021C7.38318 10.4873 7.86478 10.8474 8.28589 11.2685C9.00385 11.9865 9.54536 12.8814 9.83887 13.8824L9.83831 13.8829Z" fill="white"/>
<path fill-rule="evenodd" clip-rule="evenodd" d="M13.6286 19.047C13.6286 18.5421 13.3434 18.0805 12.8917 17.8547L10.8655 16.8405C10.456 16.6357 9.96445 16.8965 9.83573 17.3365C9.54278 18.3374 9.00181 19.2324 8.2833 19.9503C7.61473 20.6194 6.79136 21.1349 5.87255 21.4389C5.41149 21.5915 5.16625 22.1424 5.43146 22.5491L6.23819 23.7853C6.44403 24.101 6.86959 24.1798 7.20027 23.9995C8.1102 23.504 9.11777 23.2554 10.1242 23.2554C10.9365 23.2554 11.7488 23.4169 12.51 23.7393C13.0066 23.9495 13.628 23.6178 13.628 23.0779V19.047H13.6286Z" fill="white"/>
<path fill-rule="evenodd" clip-rule="evenodd" d="M27.1082 17.8345C26.6554 18.0603 26.3691 18.5225 26.3691 19.0285L26.3697 23.1464C26.3697 23.683 26.985 24.0147 27.4805 23.8089C28.2306 23.4976 29.029 23.3417 29.8263 23.3417C30.8444 23.3417 31.8637 23.5953 32.7819 24.1024C33.1187 24.2883 33.5548 24.2045 33.7584 23.8777L34.594 22.535C34.847 22.1283 34.6001 21.5907 34.1451 21.442C33.2191 21.1385 32.3902 20.6208 31.7161 19.9478C30.9953 19.2277 30.4533 18.3288 30.1614 17.324C30.0338 16.884 29.5428 16.6222 29.1328 16.8263L27.1076 17.8345H27.1082Z" fill="white"/>
<path fill-rule="evenodd" clip-rule="evenodd" d="M24.1531 10.6867C23.7675 11.0412 23.8013 11.7137 24.2696 11.9478L29.1327 14.3813C29.5428 14.5866 30.0343 14.3247 30.1625 13.8847C30.4549 12.8816 30.997 11.9844 31.716 11.2648C32.1355 10.8454 32.6154 10.4858 33.142 10.2012C33.7145 9.89215 33.8272 8.8868 33.2452 8.59607L33.1775 8.56222L27.0887 5.51563C26.6543 5.29814 26.1383 5.68042 26.1383 6.1659C26.1383 7.86036 25.4514 9.39503 24.3406 10.5058C24.2791 10.5674 24.2164 10.6279 24.152 10.6867H24.1531Z" fill="white"/>
<path fill-rule="evenodd" clip-rule="evenodd" d="M23.7371 28.7199L20.6079 30.2884C20.2322 30.4765 19.79 30.4765 19.4144 30.2889L16.8483 29.0062C16.5803 28.8719 16.2641 29.0899 16.2641 29.3895C16.2641 30.9603 15.6649 32.5304 14.4664 33.7294C14.3177 33.8776 14.164 34.0168 14.0048 34.1467C13.5804 34.494 13.5909 35.2181 14.0814 35.4627L17.356 37.1001C18.1871 37.5234 19.0982 37.7331 20.002 37.7331C20.9053 37.7331 21.8157 37.5234 22.6458 37.1123L25.8327 35.5143C26.3193 35.2702 26.3332 34.5556 25.9143 34.2077C25.7684 34.0868 25.6274 33.958 25.491 33.8215C25.4893 33.8199 25.4882 33.8171 25.4882 33.8143C25.4882 33.8116 25.4871 33.8093 25.4849 33.8071C24.2886 32.6087 23.69 31.0424 23.69 29.4789C23.69 29.2248 23.7055 28.9712 23.7371 28.7193C23.7371 28.7193 23.7371 28.7188 23.7366 28.7188L23.7371 28.7199Z" fill="white"/>
<path fill-rule="evenodd" clip-rule="evenodd" d="M68.9949 25.3802C68.9949 26.5801 68.6897 27.6825 68.0792 28.6897C67.4688 29.6969 66.5688 30.4993 65.3809 31.0993C64.1922 31.6993 62.7516 31.9993 61.0597 31.9993C58.5106 31.9993 56.4122 31.3783 54.7631 30.1356C53.1139 28.8937 52.214 27.1583 52.0647 24.9309H57.9114C57.9969 25.7881 58.3028 26.4624 58.8271 26.9551C59.352 27.4478 60.021 27.6938 60.8354 27.6938C61.5426 27.6938 62.0991 27.501 62.5063 27.1156C62.9135 26.7301 63.116 26.2156 63.116 25.5737C63.116 24.9954 62.9286 24.514 62.5543 24.1277C62.1793 23.7423 61.7136 23.4265 61.1572 23.1806C60.5999 22.9338 59.829 22.6398 58.8443 22.2964C57.4089 21.8044 56.236 21.3274 55.3263 20.867C54.4158 20.4065 53.6344 19.721 52.9812 18.8106C52.328 17.9001 52.001 16.7167 52.001 15.2603C52.001 13.9111 52.3437 12.7435 53.0292 11.758C53.7146 10.7733 54.6626 10.0181 55.8722 9.49316C57.0827 8.96894 58.4693 8.70571 60.033 8.70571C62.5603 8.70571 64.568 9.30567 66.0566 10.5048C67.5453 11.7048 68.386 13.3532 68.5787 15.4523H62.6353C62.5281 14.7023 62.2551 14.1084 61.8156 13.6696C61.3769 13.2302 60.7822 13.0112 60.033 13.0112C59.3903 13.0112 58.8705 13.1822 58.4746 13.5249C58.0786 13.8676 57.8806 14.3709 57.8806 15.0346C57.8806 15.57 58.0568 16.0252 58.4101 16.3995C58.7641 16.7745 59.208 17.0797 59.7435 17.3152C60.279 17.5507 61.0499 17.8506 62.0571 18.2151C63.5128 18.7078 64.7022 19.1953 65.6231 19.6768C66.5441 20.159 67.3368 20.8602 68.0005 21.7811C68.6642 22.7028 68.9964 23.902 68.9964 25.3794L68.9949 25.3802ZM183.432 13.6216C184.803 13.6216 185.98 13.9321 186.966 14.5538C187.95 15.1756 188.668 16.0215 189.118 17.0917V8H194.612V31.7735H189.118V28.5285C188.668 29.5994 187.951 30.4454 186.966 31.0671C185.98 31.688 184.802 31.9993 183.432 31.9993C181.954 31.9993 180.631 31.6295 179.464 30.8908C178.297 30.1521 177.376 29.0864 176.701 27.6938C176.027 26.3019 175.689 24.6737 175.689 22.8108C175.689 20.9262 176.027 19.2928 176.701 17.9121C177.376 16.5307 178.297 15.4703 179.464 14.7316C180.631 13.9929 181.954 13.6232 183.432 13.6232V13.6216ZM185.199 18.4408C184.021 18.4408 183.073 18.8263 182.356 19.5973C181.639 20.3682 181.279 21.4392 181.279 22.8101C181.279 24.181 181.638 25.2519 182.356 26.0229C183.073 26.7938 184.021 27.1793 185.199 27.1793C186.356 27.1793 187.303 26.7833 188.042 25.9906C188.78 25.1987 189.15 24.1382 189.15 22.8101C189.15 21.4609 188.78 20.3952 188.042 19.6138C187.303 18.8323 186.355 18.4408 185.199 18.4408ZM168.139 17.2199C168.825 16.1272 169.708 15.2603 170.79 14.6176C171.871 13.9749 173.044 13.6539 174.308 13.6539V19.5328H172.734C171.277 19.5328 170.148 19.8433 169.344 20.465C168.541 21.0859 168.139 22.1359 168.139 23.6133V31.7735H162.646V13.8466H168.139V17.2199ZM159.786 22.3279C159.786 22.7778 159.733 23.2705 159.625 23.8053H147.193C147.257 25.1544 147.6 26.1241 148.221 26.7128C148.842 27.3016 149.634 27.5963 150.598 27.5963C151.412 27.5963 152.087 27.393 152.621 26.9851C153.157 26.5786 153.51 26.0536 153.682 25.4117H159.496C159.261 26.6753 158.746 27.8048 157.954 28.8007C157.162 29.7966 156.155 30.5781 154.934 31.1466C153.713 31.7143 152.354 31.9978 150.855 31.9978C149.098 31.9978 147.54 31.628 146.18 30.8893C144.82 30.1506 143.755 29.0849 142.984 27.6923C142.213 26.3004 141.827 24.6722 141.827 22.8093C141.827 20.9247 142.208 19.2913 142.967 17.9106C143.728 16.5292 144.793 15.4688 146.164 14.7301C147.535 13.9914 149.098 13.6216 150.855 13.6216C152.632 13.6216 154.196 13.9861 155.545 14.7143C156.894 15.4425 157.938 16.4655 158.677 17.7824C159.416 19.0993 159.786 20.6142 159.786 22.3279H159.786ZM154.229 21.4924C154.25 20.315 153.934 19.4308 153.281 18.8421C152.628 18.2534 151.82 17.9586 150.856 17.9586C149.849 17.9586 149.014 18.2586 148.35 18.8586C147.686 19.4578 147.312 20.336 147.226 21.4932H154.229L154.229 21.4924ZM132.415 13.6539C134.471 13.6539 136.104 14.3394 137.313 15.7095C138.524 17.0804 139.128 18.9651 139.128 21.3642V31.7735H133.635V22.0069C133.635 20.8069 133.318 19.8703 132.686 19.196C132.054 18.5211 131.214 18.1836 130.165 18.1836C129.051 18.1836 128.168 18.5376 127.515 19.244C126.861 19.9513 126.534 20.9577 126.534 22.2641V31.7735H121.041V13.8466H126.534V17.1232C127.048 16.0522 127.814 15.2063 128.831 14.5846C129.849 13.9636 131.043 13.6531 132.414 13.6531L132.415 13.6539ZM106.07 13.6216C107.441 13.6216 108.619 13.9321 109.604 14.5538C110.589 15.1756 111.317 16.0215 111.789 17.0917V13.8474H117.251V31.7743H111.789V28.5292C111.317 29.6002 110.589 30.4461 109.604 31.0678C108.619 31.6888 107.441 32 106.07 32C104.593 32 103.269 31.6303 102.102 30.8916C100.935 30.1529 100.014 29.0872 99.3395 27.6945C98.6653 26.3026 98.3278 24.6745 98.3278 22.8116C98.3278 20.9269 98.6653 19.2935 99.3395 17.9129C100.014 16.5315 100.935 15.471 102.102 14.7323C103.269 13.9936 104.592 13.6239 106.07 13.6239V13.6216ZM107.837 18.4408C106.66 18.4408 105.711 18.8263 104.994 19.5973C104.276 20.3682 103.918 21.4392 103.918 22.8101C103.918 24.181 104.276 25.2519 104.994 26.0229C105.711 26.7938 106.66 27.1793 107.837 27.1793C108.994 27.1793 109.942 26.7833 110.68 25.9906C111.419 25.1987 111.789 24.1382 111.789 22.8101C111.789 21.4609 111.419 20.3952 110.68 19.6138C109.941 18.8323 108.994 18.4408 107.837 18.4408ZM90.7773 17.2199C91.4628 16.1272 92.3462 15.2603 93.4276 14.6176C94.5098 13.9749 95.682 13.6539 96.9457 13.6539V19.5328H95.3715C93.9144 19.5328 92.7849 19.8433 91.9817 20.465C91.1793 21.0859 90.7773 22.1359 90.7773 23.6133V31.7735H85.2839V13.8466H90.7773V17.2199ZM82.2001 27.0503V31.7735H79.726C77.6269 31.7735 75.9935 31.2538 74.8265 30.2151C73.6596 29.1764 73.0762 27.4575 73.0762 25.0584V18.4731H70.6666V13.8466H73.0762V9.44516H78.5696V13.8466H82.1678V18.4731H78.5696V25.1552C78.5696 25.8624 78.7143 26.3551 79.003 26.6326C79.2925 26.9108 79.7792 27.0503 80.4654 27.0503H82.2001Z" fill="white"/>
</svg>
