<svg width="168" height="34" viewBox="0 0 168 34" fill="none" xmlns="http://www.w3.org/2000/svg">
	<path fill-rule="evenodd" clip-rule="evenodd"
		  d="M6.25488 23.434C6.93087 23.4751 7.60846 23.3817 8.24805 23.159C8.44278 23.0623 8.60318 22.9084 8.70776 22.7178C8.81235 22.5272 8.85608 22.3092 8.83301 22.093C8.81507 21.8616 8.73548 21.6392 8.60254 21.4489C8.4696 21.2586 8.28804 21.1074 8.0769 21.011C7.34251 20.5945 6.57307 20.2435 5.7771 19.962C5.03431 19.6895 4.30562 19.3798 3.59399 19.034C2.98118 18.7405 2.41859 18.3521 1.927 17.883C1.46477 17.4294 1.10213 16.8845 0.862061 16.283C0.593361 15.57 0.464833 14.8117 0.483887 14.05C0.4541 13.2773 0.61033 12.5087 0.939209 11.8088C1.26809 11.109 1.76015 10.4982 2.37402 10.028C3.88854 8.9656 5.71697 8.44489 7.56396 8.54999C8.62485 8.54667 9.68374 8.64444 10.7261 8.84199C11.5445 8.98588 12.3494 9.19864 13.1321 9.47799L12.238 13.465C11.6009 13.2473 10.9525 13.0637 10.2959 12.915C9.52269 12.7471 8.73307 12.6666 7.94189 12.675C6.33789 12.675 5.53589 13.1217 5.53589 14.015C5.53129 14.2032 5.56543 14.3904 5.63599 14.565C5.72954 14.7539 5.87227 14.9142 6.04907 15.029C6.31541 15.2132 6.59716 15.3741 6.89111 15.51C7.33339 15.724 7.78625 15.9152 8.24805 16.083C9.20473 16.4251 10.1351 16.8365 11.032 17.314C11.6781 17.652 12.2646 18.0935 12.7681 18.621C13.1796 19.0687 13.4852 19.6032 13.6621 20.185C13.8439 20.8313 13.9303 21.5007 13.9189 22.172C13.9618 22.9631 13.7992 23.7518 13.447 24.4615C13.0948 25.1712 12.5649 25.7777 11.9089 26.222C10.1902 27.232 8.21007 27.7085 6.21997 27.591C4.87477 27.6187 3.53128 27.4803 2.21997 27.179C1.46572 27.0033 0.725064 26.7733 0.00390625 26.491L0.863037 22.333C1.73268 22.6762 2.62937 22.9461 3.54395 23.14C4.43616 23.3326 5.34626 23.4308 6.25903 23.433L6.25488 23.434ZM118.806 9.44999C120.055 22.82 116.575 33.881 102.173 33.881C100.002 33.8815 97.8427 33.5473 95.7729 32.89C90.6129 31.239 88.584 27.742 88.584 24.99V12.31C88.584 7.60199 92.0839 4.38999 98.4919 3.02499C100.607 2.58015 102.758 2.32812 104.918 2.27199C106.966 2.20387 109.016 2.35709 111.032 2.72899C115.539 3.60999 118.809 5.77799 118.809 9.44999H118.806ZM116.606 9.44999C116.606 7.14999 114.095 5.70299 110.634 5.02599C108.766 4.68296 106.866 4.54215 104.967 4.60599C102.933 4.66095 100.909 4.90094 98.9189 5.32299C93.4689 6.48299 90.781 8.94099 90.781 12.31V24.988C90.781 26.788 92.128 29.281 96.397 30.648C98.2532 31.2534 100.195 31.5572 102.147 31.548C114.474 31.387 117.762 21.28 116.606 9.44799V9.44999ZM137.775 9.44999C136.526 22.82 140.006 33.881 154.408 33.881C156.58 33.8815 158.738 33.5473 160.808 32.89C165.968 31.239 167.997 27.742 167.997 24.99V12.31C167.997 8.36899 165.544 5.47599 160.986 3.83799V0.437988L155.865 1.26299V2.62999C154.473 2.42858 153.071 2.30904 151.665 2.27199C149.617 2.20389 147.567 2.35711 145.552 2.72899C141.045 3.60999 137.775 5.77799 137.775 9.44999ZM139.975 9.44999C139.975 7.14999 142.486 5.70299 145.947 5.02599C147.815 4.68295 149.715 4.54214 151.614 4.60599C153.039 4.64423 154.46 4.7735 155.868 4.99299V9.44499C155.319 9.20112 154.751 9.00571 154.168 8.86099C153.543 8.7159 152.902 8.64641 152.26 8.65399C151.087 8.63267 149.923 8.85503 148.84 9.30699C147.861 9.7295 146.995 10.3774 146.314 11.198C145.593 12.0855 145.055 13.1077 144.733 14.205C144.351 15.4931 144.165 16.8315 144.183 18.175C144.164 19.5022 144.379 20.8223 144.818 22.075C145.211 23.1813 145.838 24.1896 146.657 25.031C147.493 25.8652 148.502 26.5047 149.613 26.904C150.892 27.3577 152.243 27.5789 153.6 27.557C154.219 27.557 154.866 27.5283 155.542 27.471C156.218 27.4137 156.883 27.3393 157.536 27.248C158.189 27.156 158.814 27.047 159.409 26.921C160.004 26.795 160.531 26.6617 160.99 26.521V6.32099C164.208 7.65799 165.801 9.71199 165.801 12.305V24.988C165.801 26.788 164.454 29.281 160.184 30.648C158.328 31.2535 156.387 31.5573 154.435 31.548C142.108 31.387 138.82 21.28 139.976 9.44799L139.975 9.44999ZM139.436 5.52199C136.209 4.07 132.698 3.35894 129.161 3.44099C124.436 3.44099 120.261 4.52499 117.727 6.18499C118.244 6.86294 118.587 7.657 118.727 8.49799C121.853 6.58516 125.464 5.61533 129.127 5.70499C132.215 5.66174 135.272 6.32604 138.064 7.64699C138.349 6.84217 138.817 6.11464 139.431 5.52199H139.436ZM149.406 17.934C149.406 14.6353 150.621 12.9857 153.05 12.985C153.578 12.9853 154.103 13.0546 154.613 13.191C155.055 13.2981 155.478 13.4721 155.868 13.707V23.021C155.616 23.067 155.295 23.107 154.906 23.141C154.517 23.175 154.093 23.1923 153.634 23.193C153.029 23.2316 152.423 23.1199 151.871 22.868C151.32 22.6161 150.838 22.2317 150.471 21.749C149.713 20.6257 149.34 19.2873 149.406 17.934ZM133.527 13.569C133.068 13.455 132.53 13.3347 131.911 13.208C131.254 13.0783 130.586 13.015 129.917 13.019C129.532 13.0238 129.148 13.0525 128.766 13.105C128.424 13.1428 128.085 13.206 127.752 13.294V27.111H122.631V9.99999C123.696 9.63674 124.78 9.33261 125.879 9.08899C127.25 8.78923 128.651 8.64499 130.055 8.65899C130.33 8.65899 130.662 8.67699 131.055 8.71099C131.448 8.74499 131.835 8.79099 132.224 8.84799C132.613 8.90499 133.004 8.97399 133.393 9.05499C133.735 9.12009 134.07 9.21787 134.393 9.34699L133.534 13.574L133.527 13.569ZM94 18.209C93.9892 19.4688 94.1811 20.7221 94.5681 21.921C94.9242 23.0297 95.5226 24.0453 96.3201 24.894C97.1602 25.7639 98.1812 26.4385 99.311 26.87C100.667 27.3786 102.107 27.6237 103.555 27.592C104.198 27.5931 104.841 27.5597 105.48 27.492C106.122 27.4253 106.722 27.3393 107.28 27.234C107.796 27.1419 108.306 27.0214 108.809 26.873C109.187 26.7667 109.554 26.6289 109.909 26.461L109.221 22.302C108.508 22.5952 107.765 22.8085 107.005 22.938C106.093 23.1106 105.166 23.197 104.238 23.196C103.001 23.2599 101.775 22.9354 100.732 22.268C100.315 21.9853 99.9663 21.6136 99.7107 21.1797C99.4551 20.7458 99.2991 20.2606 99.2539 19.759H110.872C110.894 19.4837 110.917 19.1687 110.94 18.814C110.963 18.4593 110.975 18.1327 110.975 17.834C110.975 14.7867 110.23 12.478 108.74 10.908C107.949 10.1097 106.998 9.48737 105.95 9.08173C104.901 8.67609 103.779 8.49626 102.657 8.55399C101.556 8.55403 100.465 8.76412 99.4431 9.17299C98.4051 9.58267 97.4629 10.2027 96.676 10.994C95.8361 11.8568 95.1772 12.8788 94.738 14C94.2205 15.342 93.9695 16.772 93.999 18.21L94 18.209ZM106.03 16.25C106.008 15.8185 105.933 15.3913 105.807 14.978C105.687 14.5762 105.488 14.2024 105.222 13.878C104.947 13.5482 104.606 13.2792 104.222 13.088C103.754 12.8669 103.239 12.7609 102.722 12.779C102.214 12.7657 101.71 12.8654 101.245 13.071C100.85 13.2525 100.498 13.516 100.213 13.844C99.9337 14.1737 99.7183 14.5524 99.5779 14.961C99.4302 15.3799 99.3208 15.8113 99.251 16.25H106.03ZM69.3911 9.64999C70.4986 9.34881 71.6233 9.11505 72.759 8.94999C74.1916 8.72754 75.6394 8.6182 77.0891 8.62299C78.3929 8.58435 79.6925 8.78778 80.9221 9.22299C81.864 9.56913 82.699 10.1551 83.345 10.923C83.9563 11.6893 84.3906 12.5812 84.6169 13.535C84.8799 14.638 85.007 15.7691 84.9951 16.903V27.111H79.873V17.522C79.9664 16.3163 79.7411 15.1072 79.22 14.016C78.9385 13.6463 78.5652 13.3566 78.1372 13.1757C77.7092 12.9949 77.2413 12.9291 76.78 12.985C76.4134 12.985 76.0238 13.0023 75.6111 13.037C75.1984 13.0717 74.8316 13.1117 74.511 13.157V27.111H69.3899V9.65099L69.3911 9.64999ZM57.1589 23.536C57.6629 23.536 58.1444 23.5243 58.603 23.501C58.9713 23.488 59.3383 23.4546 59.7029 23.401V19.516C59.396 19.4545 59.0863 19.4085 58.7749 19.378C57.9471 19.2805 57.1104 19.2862 56.2839 19.395C55.8959 19.4415 55.5182 19.5516 55.166 19.721C54.8611 19.869 54.6002 20.0945 54.4099 20.375C54.2174 20.6835 54.1217 21.0426 54.135 21.406C54.1013 21.7315 54.159 22.06 54.3018 22.3545C54.4445 22.649 54.6667 22.8978 54.9431 23.073C55.63 23.4154 56.3933 23.5752 57.1599 23.537L57.1589 23.536ZM56.7471 8.54999C58.0267 8.5166 59.3033 8.69086 60.5271 9.06599C61.4437 9.35263 62.2756 9.86019 62.95 10.544C63.5678 11.2033 64.011 12.0067 64.239 12.881C64.5014 13.8791 64.6284 14.908 64.6169 15.94V26.6C63.8836 26.76 62.8641 26.949 61.5581 27.167C59.9885 27.4037 58.4022 27.5127 56.8149 27.493C55.7473 27.503 54.6817 27.3994 53.636 27.184C52.7587 27.0085 51.9238 26.6642 51.178 26.17C50.4976 25.7079 49.9522 25.0732 49.5979 24.331C49.2066 23.4565 49.0188 22.5046 49.0481 21.547C49.0183 20.6127 49.2378 19.6873 49.6841 18.866C50.0932 18.1472 50.6781 17.544 51.384 17.113C52.1374 16.6609 52.9626 16.3413 53.824 16.168C54.7621 15.971 55.7184 15.8731 56.677 15.876C57.2681 15.8725 57.859 15.9012 58.447 15.962C58.8703 16.0025 59.2896 16.0771 59.7009 16.185V15.7C59.7193 15.3146 59.6588 14.9295 59.5229 14.5684C59.3871 14.2073 59.1787 13.8777 58.9109 13.6C58.1309 12.9907 57.1453 12.7072 56.1609 12.809C55.2984 12.8084 54.4371 12.8715 53.584 12.998C52.8343 13.0999 52.0972 13.2785 51.384 13.531L50.731 9.40599C51.029 9.31532 51.4012 9.21799 51.8479 9.11399C52.2946 9.00999 52.7814 8.91832 53.3081 8.83899C53.8361 8.75899 54.3921 8.69032 54.9761 8.63299C55.5601 8.57565 56.1501 8.54699 56.7461 8.54699L56.7471 8.54999ZM45.9541 13.568C45.4961 13.454 44.9578 13.3337 44.3391 13.207C43.6825 13.0773 43.0143 13.014 42.345 13.018C41.9599 13.0228 41.5756 13.0515 41.1941 13.104C40.8519 13.1418 40.5128 13.205 40.1799 13.293V27.111H35.0591V9.99999C36.1241 9.63674 37.2083 9.33261 38.3069 9.08899C39.6783 8.78923 41.0792 8.64499 42.4829 8.65899C42.7579 8.65899 43.0899 8.67699 43.4829 8.71099C43.8759 8.74499 44.2609 8.79099 44.6509 8.84799C45.0409 8.90499 45.4301 8.97399 45.8201 9.05499C46.162 9.12016 46.4968 9.21794 46.8201 9.34699L45.9609 13.574L45.9541 13.568ZM18.595 4.52899L23.7161 3.70399V9.03099H29.8689V13.293H23.7161V19.652C23.6741 20.546 23.8696 21.4352 24.283 22.229C24.5427 22.5796 24.892 22.854 25.2942 23.0234C25.6963 23.1928 26.1367 23.251 26.5691 23.192C27.1392 23.1899 27.708 23.1381 28.269 23.037C28.8147 22.9446 29.3502 22.801 29.8689 22.608L30.5901 26.595C29.9198 26.8631 29.2306 27.0814 28.5281 27.248C27.6139 27.4476 26.6794 27.5399 25.7439 27.523C24.561 27.5602 23.3823 27.3673 22.2729 26.955C21.4182 26.6222 20.6614 26.0787 20.073 25.375C19.5031 24.6565 19.1091 23.8148 18.9221 22.917C18.6947 21.8658 18.5848 20.7925 18.595 19.717V4.52899Z"
		  fill="#132740"/>
</svg>
