<svg xmlns="http://www.w3.org/2000/svg" width="168" height="33.441" viewBox="0 0 168 33.441">
	<defs>
		<style>.a { fill: #ffffff; fill-rule: evenodd; }
		</style>
	</defs>
	<path class="a"
		  d="M90.255,78.272A5.1,5.1,0,0,0,92.248,78a1.061,1.061,0,0,0,.585-1.065,1.3,1.3,0,0,0-.756-1.083,14.4,14.4,0,0,0-2.3-1.048,23.581,23.581,0,0,1-2.183-.928,6.431,6.431,0,0,1-1.667-1.152,4.647,4.647,0,0,1-1.065-1.6,5.918,5.918,0,0,1-.378-2.234,4.831,4.831,0,0,1,1.89-4.021,8.217,8.217,0,0,1,5.19-1.478,16.62,16.62,0,0,1,3.162.292,14.762,14.762,0,0,1,2.406.636l-.894,3.987a18.7,18.7,0,0,0-1.942-.55,10.51,10.51,0,0,0-2.354-.24q-2.406,0-2.406,1.34a1.383,1.383,0,0,0,.1.55,1.174,1.174,0,0,0,.413.464,5.753,5.753,0,0,0,.842.481,14.7,14.7,0,0,0,1.357.573,20.91,20.91,0,0,1,2.784,1.231,6.656,6.656,0,0,1,1.736,1.306,4.058,4.058,0,0,1,.894,1.564,6.95,6.95,0,0,1,.257,1.988,4.6,4.6,0,0,1-2.01,4.05,10.058,10.058,0,0,1-5.688,1.369A16.016,16.016,0,0,1,84,81.331l.859-4.159a16.79,16.79,0,0,0,2.681.808,13.011,13.011,0,0,0,2.715.292ZM202.806,64.289c1.248,13.369-2.231,24.43-16.633,24.43a21.127,21.127,0,0,1-6.4-.99c-5.16-1.652-7.189-5.149-7.189-7.9V67.149c0-4.709,3.5-7.921,9.908-9.285a35.638,35.638,0,0,1,6.426-.753,28.479,28.479,0,0,1,6.114.457c4.507.88,7.777,3.049,7.777,6.721Zm-2.2,0c0-2.3-2.511-3.748-5.972-4.424a26.456,26.456,0,0,0-5.667-.421,33.606,33.606,0,0,0-6.048.717c-5.45,1.16-8.138,3.619-8.138,6.988V79.827c0,1.8,1.347,4.293,5.616,5.659a18.265,18.265,0,0,0,5.75.9c12.327-.162,15.615-10.269,14.459-22.1Zm21.169,0c-1.249,13.369,2.231,24.43,16.633,24.43a21.127,21.127,0,0,0,6.4-.99c5.16-1.652,7.189-5.149,7.189-7.9V67.149c0-3.941-2.453-6.834-7.011-8.472v-3.4l-5.121.825v1.365a35.938,35.938,0,0,0-4.2-.357,28.474,28.474,0,0,0-6.113.457c-4.507.88-7.777,3.049-7.777,6.721Zm2.2,0c0-2.3,2.511-3.748,5.972-4.424a26.456,26.456,0,0,1,5.667-.421,33.458,33.458,0,0,1,4.254.388v4.451a10.485,10.485,0,0,0-1.7-.584,8.079,8.079,0,0,0-1.908-.206,8.477,8.477,0,0,0-3.42.653,6.758,6.758,0,0,0-2.526,1.891,8.628,8.628,0,0,0-1.582,3.007,13.373,13.373,0,0,0-.549,3.97,11.3,11.3,0,0,0,.635,3.9,8.124,8.124,0,0,0,1.839,2.955,8,8,0,0,0,2.956,1.873,11.355,11.355,0,0,0,3.987.654q.929,0,1.942-.086t1.994-.224q.979-.136,1.873-.326t1.581-.4v-20.2c3.218,1.337,4.811,3.391,4.811,5.984V79.827c0,1.8-1.347,4.293-5.617,5.659a18.259,18.259,0,0,1-5.749.9c-12.327-.162-15.615-10.269-14.459-22.1Zm-.539-3.928a23.694,23.694,0,0,0-10.275-2.082c-4.725,0-8.9,1.085-11.434,2.745a5.229,5.229,0,0,1,1,2.313,19.031,19.031,0,0,1,10.4-2.793,20.218,20.218,0,0,1,8.937,1.942,5.5,5.5,0,0,1,1.367-2.125Zm9.97,12.412q0-4.949,3.643-4.949a6.02,6.02,0,0,1,1.564.206,4.443,4.443,0,0,1,1.255.515V77.86q-.378.069-.962.12t-1.272.052a3.681,3.681,0,0,1-3.163-1.444,6.275,6.275,0,0,1-1.065-3.815Zm-15.88-4.365q-.687-.172-1.615-.361a9.987,9.987,0,0,0-1.994-.189,9.3,9.3,0,0,0-1.151.086,6.7,6.7,0,0,0-1.014.189V81.95h-5.121V64.833a30.815,30.815,0,0,1,3.248-.91,18.677,18.677,0,0,1,4.176-.43q.413,0,1,.051t1.169.138q.585.085,1.169.206a5.63,5.63,0,0,1,1,.292l-.86,4.228ZM178,73.048a11.781,11.781,0,0,0,.567,3.712,7.858,7.858,0,0,0,1.753,2.973,8.276,8.276,0,0,0,2.991,1.976,11.369,11.369,0,0,0,4.244.722,17.978,17.978,0,0,0,1.925-.1q.961-.1,1.8-.258a14.234,14.234,0,0,0,1.529-.361,7.092,7.092,0,0,0,1.1-.412l-.688-4.159a10.433,10.433,0,0,1-2.216.636,14.8,14.8,0,0,1-2.767.258,5.945,5.945,0,0,1-3.506-.928,3.4,3.4,0,0,1-1.478-2.509h11.618q.033-.413.068-.945c.023-.356.035-.682.035-.98q0-4.572-2.235-6.926a7.987,7.987,0,0,0-6.083-2.354,8.655,8.655,0,0,0-3.214.619,8.076,8.076,0,0,0-2.767,1.821,9.035,9.035,0,0,0-1.942,3.008,11.066,11.066,0,0,0-.739,4.21Zm12.03-1.959a5.3,5.3,0,0,0-.223-1.272,3.191,3.191,0,0,0-.585-1.1,3.113,3.113,0,0,0-1-.79,3.246,3.246,0,0,0-1.495-.31,3.436,3.436,0,0,0-1.478.293,3.045,3.045,0,0,0-1.031.773,3.441,3.441,0,0,0-.635,1.117,7.36,7.36,0,0,0-.327,1.289Zm-36.64-6.6a28.629,28.629,0,0,1,3.369-.7,27.749,27.749,0,0,1,4.33-.326,10.542,10.542,0,0,1,3.832.6,5.76,5.76,0,0,1,2.424,1.7,6.641,6.641,0,0,1,1.271,2.613,13.891,13.891,0,0,1,.379,3.368V81.95h-5.122V72.361a6.9,6.9,0,0,0-.653-3.506,2.662,2.662,0,0,0-2.44-1.031q-.551,0-1.169.051t-1.1.121V81.95h-5.122V64.49ZM141.158,78.375q.756,0,1.444-.034a9.992,9.992,0,0,0,1.1-.1V74.354a9.15,9.15,0,0,0-.928-.137,10.281,10.281,0,0,0-1.134-.069,10.051,10.051,0,0,0-1.358.086,3.558,3.558,0,0,0-1.117.326,1.931,1.931,0,0,0-.756.653,1.823,1.823,0,0,0-.275,1.031,1.756,1.756,0,0,0,.808,1.667,4.459,4.459,0,0,0,2.217.464Zm-.413-14.985a11.879,11.879,0,0,1,3.781.515,5.88,5.88,0,0,1,2.423,1.478,5.426,5.426,0,0,1,1.289,2.338,11.524,11.524,0,0,1,.378,3.058V81.434q-1.1.242-3.059.568a29.476,29.476,0,0,1-4.743.326,15.055,15.055,0,0,1-3.179-.309A6.916,6.916,0,0,1,135.177,81a4.639,4.639,0,0,1-1.58-1.839,6.34,6.34,0,0,1-.55-2.784,5.274,5.274,0,0,1,.635-2.681,4.89,4.89,0,0,1,1.7-1.753,7.693,7.693,0,0,1,2.44-.945,13.682,13.682,0,0,1,2.853-.292,16.028,16.028,0,0,1,1.77.086,7.8,7.8,0,0,1,1.254.223v-.481a2.836,2.836,0,0,0-.79-2.1,3.829,3.829,0,0,0-2.75-.79,17.513,17.513,0,0,0-2.578.189,11.059,11.059,0,0,0-2.2.533l-.653-4.125q.447-.138,1.117-.292t1.46-.275q.791-.12,1.668-.206t1.769-.086Zm-10.792,5.018q-.687-.172-1.615-.361a9.987,9.987,0,0,0-1.994-.189,9.3,9.3,0,0,0-1.151.086,6.7,6.7,0,0,0-1.014.189V81.95h-5.121V64.833a30.815,30.815,0,0,1,3.248-.91,18.683,18.683,0,0,1,4.176-.43q.413,0,1,.051t1.168.138q.585.085,1.169.206a5.616,5.616,0,0,1,1,.292l-.859,4.228Zm-27.359-9.04,5.121-.824v5.327h6.153v4.262h-6.153v6.359a5.054,5.054,0,0,0,.567,2.577,2.434,2.434,0,0,0,2.286.963,9.789,9.789,0,0,0,1.7-.155,8.715,8.715,0,0,0,1.6-.43l.721,3.987a14.513,14.513,0,0,1-2.062.653,11.976,11.976,0,0,1-2.784.275,9.161,9.161,0,0,1-3.471-.567,5.443,5.443,0,0,1-2.2-1.581,5.876,5.876,0,0,1-1.151-2.457,14.494,14.494,0,0,1-.327-3.2Z"
		  transform="translate(-84 -55.278)"/>
</svg>
