<svg width="172" height="64" viewBox="0 0 172 64" fill="none" xmlns="http://www.w3.org/2000/svg">
	<rect width="172" height="64" rx="4" fill="#162565"/>
	<path
		d="M44.3028 31.0175C44.2655 26.9748 47.6979 25.008 47.8548 24.9165C45.9109 22.1532 42.8979 21.7756 41.8392 21.7455C39.3086 21.4859 36.854 23.2219 35.5649 23.2219C34.2501 23.2219 32.2651 21.7706 30.1256 21.8132C27.3725 21.8546 24.797 23.4088 23.3844 25.8221C20.4692 30.7428 22.6434 37.9741 25.4364 41.9516C26.8335 43.8995 28.466 46.0745 30.6029 45.998C32.6935 45.914 33.4744 44.6985 35.9972 44.6985C38.4968 44.6985 39.2301 45.998 41.4095 45.9491C43.6531 45.914 45.0657 43.9924 46.4139 42.0268C48.0285 39.7941 48.6769 37.5953 48.7026 37.4824C48.6499 37.4648 44.3453 35.863 44.3028 31.0175Z"
		fill="white"/>
	<path
		d="M40.186 19.129C41.3104 17.758 42.0797 15.8928 41.8662 14C40.2388 14.0702 38.2035 15.0975 37.0315 16.4384C35.9946 17.62 35.0683 19.5567 35.3076 21.378C37.1357 21.5109 39.0127 20.4786 40.186 19.129Z"
		fill="white"/>
	<path
		d="M73.3308 45.4509H70.7783L69.3801 41.1672H64.5201L63.1882 45.4509H60.7031L65.5182 30.8672H68.4922L73.3308 45.4509ZM68.9586 39.37L67.6942 35.5619C67.5604 35.1728 67.3098 34.2567 66.94 32.8145H66.895C66.7478 33.4348 66.5106 34.3509 66.1847 35.5619L64.9427 39.37H68.9586Z"
		fill="white"/>
	<path
		d="M85.7147 40.0633C85.7147 41.8517 85.219 43.2654 84.2277 44.3032C83.3397 45.227 82.2371 45.6883 80.921 45.6883C79.5003 45.6883 78.4797 45.1908 77.8582 44.1958H77.8132V49.7354H75.4169V38.3965C75.4169 37.2721 75.3866 36.1182 75.3281 34.9346H77.4356L77.5693 36.6014H77.6143C78.4134 35.3456 79.6262 34.7188 81.2537 34.7188C82.526 34.7188 83.5881 35.2086 84.4378 36.1894C85.2898 37.1713 85.7147 38.4622 85.7147 40.0633ZM83.2734 40.1488C83.2734 39.1252 83.0374 38.2814 82.5631 37.6173C82.0449 36.9247 81.3492 36.5784 80.477 36.5784C79.8858 36.5784 79.3485 36.7713 78.8686 37.1516C78.3876 37.5351 78.0728 38.0359 77.9256 38.6562C77.8514 38.9455 77.8143 39.1822 77.8143 39.3685V41.1219C77.8143 41.8868 78.0549 42.5323 78.5359 43.0594C79.017 43.5865 79.6419 43.8495 80.4107 43.8495C81.3132 43.8495 82.0157 43.5098 82.5181 42.8325C83.0217 42.1542 83.2734 41.26 83.2734 40.1488Z"
		fill="white"/>
	<path
		d="M98.1198 40.0633C98.1198 41.8517 97.6241 43.2654 96.6317 44.3032C95.7449 45.227 94.6422 45.6883 93.3261 45.6883C91.9054 45.6883 90.8848 45.1908 90.2644 44.1958H90.2195V49.7354H87.8232V38.3965C87.8232 37.2721 87.7928 36.1182 87.7344 34.9346H89.8418L89.9756 36.6014H90.0205C90.8185 35.3456 92.0313 34.7188 93.6599 34.7188C94.9311 34.7188 95.9933 35.2086 96.8452 36.1894C97.6938 37.1713 98.1198 38.4622 98.1198 40.0633ZM95.6785 40.1488C95.6785 39.1252 95.4414 38.2814 94.9671 37.6173C94.4489 36.9247 93.7554 36.5784 92.8821 36.5784C92.2898 36.5784 91.7537 36.7713 91.2726 37.1516C90.7916 37.5351 90.478 38.0359 90.3307 38.6562C90.2577 38.9455 90.2195 39.1822 90.2195 39.3685V41.1219C90.2195 41.8868 90.46 42.5323 90.9388 43.0594C91.4198 43.5854 92.0448 43.8495 92.8158 43.8495C93.7184 43.8495 94.4208 43.5098 94.9232 42.8325C95.4268 42.1542 95.6785 41.26 95.6785 40.1488Z"
		fill="white"/>
	<path
		d="M111.99 41.36C111.99 42.6005 111.549 43.6098 110.662 44.389C109.687 45.2405 108.331 45.6657 106.587 45.6657C104.978 45.6657 103.688 45.3632 102.711 44.7572L103.266 42.8098C104.318 43.4301 105.473 43.7413 106.73 43.7413C107.633 43.7413 108.335 43.5419 108.84 43.1452C109.342 42.7485 109.593 42.2159 109.593 41.5518C109.593 40.96 109.386 40.4614 108.971 40.057C108.559 39.6527 107.87 39.2768 106.908 38.9294C104.289 37.9771 102.981 36.5821 102.981 34.7476C102.981 33.5487 103.439 32.5657 104.358 31.8008C105.272 31.0348 106.493 30.6523 108.019 30.6523C109.381 30.6523 110.511 30.8836 111.414 31.3449L110.815 33.2495C109.972 32.8024 109.019 32.5789 107.952 32.5789C107.109 32.5789 106.45 32.7816 105.978 33.1849C105.579 33.5454 105.379 33.9849 105.379 34.5054C105.379 35.0818 105.607 35.5585 106.066 35.9333C106.465 36.2796 107.19 36.6544 108.242 37.0588C109.529 37.564 110.474 38.1546 111.082 38.8319C111.688 39.5069 111.99 40.3518 111.99 41.36Z"
		fill="white"/>
	<path
		d="M119.912 36.6861H117.271V41.7917C117.271 43.0903 117.736 43.7391 118.669 43.7391C119.097 43.7391 119.452 43.7029 119.733 43.6306L119.8 45.4048C119.328 45.5768 118.706 45.6634 117.936 45.6634C116.99 45.6634 116.25 45.3818 115.716 44.8196C115.185 44.2563 114.917 43.3117 114.917 41.9846V36.6839H113.344V34.9305H114.917V33.0051L117.271 32.3125V34.9305H119.912V36.6861Z"
		fill="white"/>
	<path
		d="M131.83 40.1049C131.83 41.7213 131.355 43.0484 130.409 44.0862C129.417 45.1547 128.099 45.6872 126.457 45.6872C124.875 45.6872 123.615 45.1755 122.675 44.1519C121.735 43.1284 121.266 41.8364 121.266 40.2792C121.266 38.6496 121.749 37.3148 122.719 36.2771C123.687 35.2382 124.993 34.7188 126.635 34.7188C128.217 34.7188 129.491 35.2305 130.452 36.2552C131.371 37.2491 131.83 38.5324 131.83 40.1049ZM129.344 40.1805C129.344 39.2107 129.131 38.3789 128.701 37.6853C128.198 36.8458 127.48 36.4272 126.549 36.4272C125.586 36.4272 124.854 36.8469 124.352 37.6853C123.922 38.38 123.709 39.2249 123.709 40.2244C123.709 41.1942 123.922 42.026 124.352 42.7185C124.87 43.558 125.594 43.9766 126.528 43.9766C127.443 43.9766 128.161 43.5492 128.679 42.6966C129.121 41.9898 129.344 41.1493 129.344 40.1805Z"
		fill="white"/>
	<path
		d="M139.618 36.9894C139.381 36.9466 139.128 36.9247 138.863 36.9247C138.02 36.9247 137.368 37.2349 136.909 37.8562C136.51 38.4041 136.31 39.0967 136.31 39.9329V45.4505H133.915L133.938 38.2463C133.938 37.0343 133.907 35.9308 133.848 34.9357H135.935L136.023 36.9477H136.089C136.342 36.2562 136.741 35.6995 137.287 35.282C137.821 34.9061 138.398 34.7188 139.019 34.7188C139.24 34.7188 139.441 34.7341 139.618 34.7615V36.9894Z"
		fill="white"/>
	<path
		d="M150.335 39.6914C150.335 40.11 150.307 40.4628 150.247 40.7511H143.059C143.087 41.7899 143.434 42.5844 144.102 43.1324C144.707 43.6222 145.491 43.8677 146.453 43.8677C147.517 43.8677 148.488 43.7022 149.362 43.3702L149.737 44.992C148.717 45.426 147.512 45.6419 146.121 45.6419C144.449 45.6419 143.136 45.1619 142.181 44.203C141.228 43.2441 140.75 41.9565 140.75 40.3412C140.75 38.7555 141.194 37.435 142.083 36.3818C143.014 35.2575 144.271 34.6953 145.854 34.6953C147.408 34.6953 148.585 35.2575 149.384 36.3818C150.017 37.275 150.335 38.3796 150.335 39.6914ZM148.05 39.0853C148.066 38.3928 147.91 37.7944 147.585 37.2892C147.17 36.6394 146.533 36.315 145.675 36.315C144.892 36.315 144.255 36.6317 143.768 37.2673C143.369 37.7725 143.132 38.3785 143.059 39.0842H148.05V39.0853Z"
		fill="white"/>
	<path
		d="M68.1691 22.7826C68.1691 24.0725 67.7723 25.0434 66.9799 25.6954C66.246 26.2971 65.203 26.5984 63.8519 26.5984C63.1821 26.5984 62.6088 26.5699 62.1289 26.5129V19.4654C62.755 19.3668 63.4293 19.3164 64.1577 19.3164C65.4446 19.3164 66.4146 19.5893 67.0687 20.135C67.8016 20.752 68.1691 21.6342 68.1691 22.7826ZM66.9271 22.8144C66.9271 21.9783 66.7001 21.3372 66.246 20.8901C65.7919 20.4441 65.1288 20.2205 64.2555 20.2205C63.8845 20.2205 63.5687 20.2446 63.3068 20.295V25.6527C63.4518 25.6746 63.7171 25.6845 64.1026 25.6845C65.004 25.6845 65.6998 25.4401 66.1898 24.9513C66.6799 24.4626 66.9271 23.7503 66.9271 22.8144Z"
		fill="white"/>
	<path
		d="M74.7557 23.9071C74.7557 24.7016 74.5231 25.3526 74.0578 25.8633C73.57 26.3882 72.9237 26.6501 72.1167 26.6501C71.3389 26.6501 70.7196 26.3991 70.2576 25.895C69.7968 25.392 69.5664 24.7575 69.5664 23.9926C69.5664 23.1926 69.8036 22.5362 70.2801 22.0266C70.7567 21.5171 71.3973 21.2617 72.2043 21.2617C72.9821 21.2617 73.607 21.5127 74.0802 22.0157C74.5298 22.5044 74.7557 23.1356 74.7557 23.9071ZM73.534 23.9444C73.534 23.4677 73.4283 23.0589 73.2182 22.7181C72.9709 22.3061 72.6191 22.1001 72.1616 22.1001C71.6884 22.1001 71.3288 22.3061 71.0815 22.7181C70.8702 23.0589 70.7657 23.4743 70.7657 23.9652C70.7657 24.4419 70.8713 24.8507 71.0815 25.1915C71.3366 25.6035 71.6918 25.8096 72.1504 25.8096C72.6 25.8096 72.9529 25.6002 73.2069 25.1805C73.425 24.8331 73.534 24.4211 73.534 23.9444Z"
		fill="white"/>
	<path
		d="M83.5829 21.3711L81.9251 26.537H80.8461L80.1593 24.2938C79.9851 23.7338 79.8435 23.1771 79.7333 22.6248H79.712C79.6097 23.1924 79.4681 23.748 79.286 24.2938L78.5565 26.537H77.4652L75.9062 21.3711H77.1168L77.7158 23.8269C77.8608 24.4077 77.98 24.9611 78.0755 25.485H78.0968C78.1845 25.0532 78.3295 24.5031 78.5341 23.8379L79.286 21.3722H80.2459L80.9663 23.7853C81.1405 24.3738 81.2822 24.9403 81.3912 25.4861H81.4238C81.5036 24.9546 81.6238 24.388 81.7834 23.7853L82.4263 21.3722H83.5829V21.3711Z"
		fill="white"/>
	<path
		d="M89.6911 26.5361H88.5132V23.5773C88.5132 22.6655 88.158 22.2096 87.4454 22.2096C87.0958 22.2096 86.8137 22.3346 86.5946 22.5855C86.3776 22.8365 86.2675 23.1324 86.2675 23.471V26.535H85.0896V22.8463C85.0896 22.3927 85.075 21.9006 85.0469 21.368H86.082L86.1371 22.1757H86.1697C86.3068 21.9247 86.5114 21.7176 86.78 21.5521C87.0992 21.3593 87.4566 21.2617 87.8478 21.2617C88.3423 21.2617 88.7537 21.4173 89.0808 21.7297C89.4876 22.1121 89.6911 22.6831 89.6911 23.4414V26.5361Z"
		fill="white"/>
	<path d="M92.9346 26.5363H91.7578V19H92.9346V26.5363Z" fill="white"/>
	<path
		d="M99.8729 23.9071C99.8729 24.7016 99.6403 25.3526 99.175 25.8633C98.6872 26.3882 98.0398 26.6501 97.2339 26.6501C96.455 26.6501 95.8357 26.3991 95.3748 25.895C94.914 25.392 94.6836 24.7575 94.6836 23.9926C94.6836 23.1926 94.9208 22.5362 95.3973 22.0266C95.8739 21.5171 96.5145 21.2617 97.3204 21.2617C98.0993 21.2617 98.7231 21.5127 99.1974 22.0157C99.647 22.5044 99.8729 23.1356 99.8729 23.9071ZM98.6501 23.9444C98.6501 23.4677 98.5444 23.0589 98.3342 22.7181C98.0881 22.3061 97.7352 22.1001 97.2788 22.1001C96.8045 22.1001 96.4448 22.3061 96.1987 22.7181C95.9874 23.0589 95.8829 23.4743 95.8829 23.9652C95.8829 24.4419 95.9885 24.8507 96.1987 25.1915C96.4538 25.6035 96.809 25.8096 97.2676 25.8096C97.7172 25.8096 98.069 25.6002 98.323 25.1805C98.5422 24.8331 98.6501 24.4211 98.6501 23.9444Z"
		fill="white"/>
	<path
		d="M105.572 26.5328H104.515L104.427 25.9378H104.394C104.033 26.4123 103.517 26.6501 102.847 26.6501C102.347 26.6501 101.942 26.4934 101.637 26.1821C101.361 25.8994 101.223 25.5476 101.223 25.1301C101.223 24.4989 101.492 24.0178 102.035 23.6847C102.577 23.3515 103.339 23.1882 104.32 23.1959V23.0995C104.32 22.419 103.954 22.0792 103.22 22.0792C102.697 22.0792 102.236 22.2075 101.839 22.4617L101.599 21.7077C102.091 21.4108 102.7 21.2617 103.417 21.2617C104.801 21.2617 105.496 21.974 105.496 23.3987V25.3011C105.496 25.8172 105.522 26.2282 105.572 26.5328ZM104.35 24.7575V23.9608C103.05 23.9389 102.401 24.2863 102.401 25.0019C102.401 25.2715 102.475 25.4731 102.626 25.6079C102.778 25.7427 102.972 25.8096 103.202 25.8096C103.46 25.8096 103.702 25.7296 103.922 25.5707C104.144 25.4107 104.28 25.2079 104.33 24.9592C104.343 24.9033 104.35 24.8353 104.35 24.7575Z"
		fill="white"/>
	<path
		d="M112.269 26.5363H111.223L111.168 25.7067H111.136C110.802 26.3379 110.233 26.6535 109.434 26.6535C108.796 26.6535 108.264 26.4091 107.843 25.9204C107.421 25.4316 107.211 24.7971 107.211 24.018C107.211 23.1818 107.439 22.5046 107.898 21.9873C108.342 21.5051 108.886 21.2641 109.533 21.2641C110.244 21.2641 110.742 21.4975 111.026 21.9654H111.048V19H112.227V25.1445C112.227 25.6475 112.241 26.1111 112.269 26.5363ZM111.048 24.3577V23.4963C111.048 23.3473 111.037 23.2268 111.016 23.1347C110.949 22.8585 110.806 22.6262 110.59 22.4388C110.37 22.2514 110.106 22.1572 109.802 22.1572C109.362 22.1572 109.018 22.327 108.765 22.6679C108.515 23.0087 108.388 23.4437 108.388 23.9752C108.388 24.4859 108.508 24.9001 108.75 25.219C109.005 25.5588 109.349 25.7286 109.779 25.7286C110.166 25.7286 110.475 25.5872 110.71 25.3034C110.937 25.0415 111.048 24.7259 111.048 24.3577Z"
		fill="white"/>
	<path
		d="M122.342 23.9071C122.342 24.7016 122.109 25.3526 121.644 25.8633C121.156 26.3882 120.511 26.6501 119.703 26.6501C118.926 26.6501 118.307 26.3991 117.844 25.895C117.383 25.392 117.152 24.7575 117.152 23.9926C117.152 23.1926 117.39 22.5362 117.866 22.0266C118.343 21.5171 118.983 21.2617 119.791 21.2617C120.568 21.2617 121.194 21.5127 121.666 22.0157C122.116 22.5044 122.342 23.1356 122.342 23.9071ZM121.121 23.9444C121.121 23.4677 121.015 23.0589 120.805 22.7181C120.557 22.3061 120.206 22.1001 119.748 22.1001C119.276 22.1001 118.916 22.3061 118.667 22.7181C118.456 23.0589 118.352 23.4743 118.352 23.9652C118.352 24.4419 118.457 24.8507 118.667 25.1915C118.923 25.6035 119.278 25.8096 119.736 25.8096C120.186 25.8096 120.54 25.6002 120.794 25.1805C121.011 24.8331 121.121 24.4211 121.121 23.9444Z"
		fill="white"/>
	<path
		d="M128.678 26.5361H127.501V23.5773C127.501 22.6655 127.146 22.2096 126.433 22.2096C126.083 22.2096 125.801 22.3346 125.583 22.5855C125.365 22.8365 125.256 23.1324 125.256 23.471V26.535H124.077V22.8463C124.077 22.3927 124.063 21.9006 124.035 21.368H125.069L125.124 22.1757H125.157C125.295 21.9247 125.5 21.7176 125.767 21.5521C126.088 21.3593 126.444 21.2617 126.836 21.2617C127.33 21.2617 127.741 21.4173 128.068 21.7297C128.476 22.1121 128.678 22.6831 128.678 23.4414V26.5361Z"
		fill="white"/>
	<path
		d="M136.602 22.2327H135.305V24.7423C135.305 25.3801 135.535 25.6989 135.992 25.6989C136.203 25.6989 136.378 25.6814 136.516 25.6453L136.547 26.5165C136.314 26.6019 136.008 26.6447 135.632 26.6447C135.167 26.6447 134.805 26.5066 134.543 26.2304C134.28 25.9543 134.149 25.4896 134.149 24.8376V22.2327H133.375V21.3725H134.149V20.4257L135.304 20.0859V21.3714H136.601V22.2327H136.602Z"
		fill="white"/>
	<path
		d="M142.836 26.5363H141.657V23.5993C141.657 22.6733 141.302 22.2098 140.59 22.2098C140.044 22.2098 139.671 22.4783 139.466 23.0152C139.431 23.1281 139.411 23.2662 139.411 23.4284V26.5352H138.234V19H139.411V22.1133H139.434C139.805 21.5468 140.336 21.2641 141.025 21.2641C141.513 21.2641 141.916 21.4197 142.237 21.732C142.636 22.121 142.836 22.6996 142.836 23.4646V26.5363Z"
		fill="white"/>
	<path
		d="M149.273 23.7115C149.273 23.9175 149.257 24.0906 149.229 24.232H145.697C145.712 24.7427 145.881 25.1317 146.208 25.4013C146.507 25.6424 146.892 25.7629 147.365 25.7629C147.887 25.7629 148.364 25.6818 148.793 25.5185L148.977 26.3163C148.475 26.5289 147.884 26.6352 147.199 26.6352C146.379 26.6352 145.733 26.3996 145.265 25.9284C144.795 25.4572 144.562 24.8249 144.562 24.0314C144.562 23.2523 144.779 22.6035 145.217 22.0863C145.673 21.534 146.29 21.2578 147.069 21.2578C147.831 21.2578 148.41 21.534 148.801 22.0863C149.117 22.5246 149.273 23.0671 149.273 23.7115ZM148.149 23.4145C148.158 23.0737 148.08 22.78 147.921 22.5323C147.716 22.2134 147.405 22.0534 146.984 22.0534C146.599 22.0534 146.286 22.209 146.046 22.5213C145.851 22.7701 145.735 23.0671 145.697 23.4145H148.149Z"
		fill="white"/>
</svg>
