<svg width="172" height="64" viewBox="0 0 172 64" fill="none" xmlns="http://www.w3.org/2000/svg">
	<rect width="172" height="64" rx="4" fill="#162565"/>
	<path
		d="M61.1022 19.9732C61.1022 20.9551 60.8011 21.7415 60.2079 22.328C59.5259 23.0233 58.6377 23.3731 57.5492 23.3731C56.5088 23.3731 55.6206 23.0174 54.8919 22.3162C54.1617 21.6048 53.7974 20.7317 53.7974 19.6866C53.7974 18.6414 54.1617 17.7683 54.8919 17.0628C55.6206 16.3557 56.5088 16 57.5492 16C58.0671 16 58.5609 16.1044 59.0321 16.2984C59.5018 16.4939 59.8842 16.7585 60.1612 17.0848L59.5319 17.7051C59.0487 17.148 58.3907 16.8731 57.5492 16.8731C56.7904 16.8731 56.1324 17.1318 55.5739 17.6537C55.0214 18.1769 54.7443 18.8546 54.7443 19.6866C54.7443 20.5185 55.0214 21.202 55.5739 21.7253C56.1324 22.2413 56.7904 22.5059 57.5492 22.5059C58.3546 22.5059 59.0321 22.2413 59.5666 21.7195C59.9189 21.374 60.1191 20.8978 60.1718 20.2892H57.5492V19.4396H61.048C61.0902 19.6233 61.1022 19.8012 61.1022 19.9732Z"
		fill="white" stroke="white" stroke-width="0.0643492" stroke-miterlimit="10"/>
	<path
		d="M66.6472 16.8658H63.3606V19.1001H66.3235V19.9497H63.3606V22.1839H66.6472V23.0497H62.4302V16H66.6472V16.8658Z"
		fill="white" stroke="white" stroke-width="0.0643492" stroke-miterlimit="10"/>
	<path d="M70.5679 23.0497H69.6375V16.8658H67.6216V16H72.5853V16.8658H70.5679V23.0497Z" fill="white" stroke="white"
		  stroke-width="0.0643492" stroke-miterlimit="10"/>
	<path d="M76.1763 23.0497V16H77.1052V23.0497H76.1763Z" fill="white" stroke="white" stroke-width="0.0643492"
		  stroke-miterlimit="10"/>
	<path d="M81.2241 23.0497H80.3013V16.8658H78.2778V16H83.2476V16.8658H81.2241V23.0497Z" fill="white" stroke="white"
		  stroke-width="0.0643492" stroke-miterlimit="10"/>
	<path
		d="M92.6457 22.3045C91.9335 23.0174 91.0513 23.3731 89.9989 23.3731C88.9405 23.3731 88.0583 23.0174 87.3462 22.3045C86.6355 21.593 86.2817 20.7199 86.2817 19.6866C86.2817 18.6532 86.6355 17.7801 87.3462 17.0686C88.0583 16.3557 88.9405 16 89.9989 16C91.0453 16 91.9275 16.3557 92.6396 17.0745C93.3563 17.7918 93.7101 18.6591 93.7101 19.6866C93.7101 20.7199 93.3563 21.593 92.6457 22.3045ZM88.0342 21.7136C88.5702 22.2413 89.2221 22.5059 89.9989 22.5059C90.7697 22.5059 91.4277 22.2413 91.9576 21.7136C92.4921 21.1859 92.7631 20.5082 92.7631 19.6866C92.7631 18.8649 92.4921 18.1872 91.9576 17.6595C91.4277 17.1318 90.7697 16.8673 89.9989 16.8673C89.2221 16.8673 88.5702 17.1318 88.0342 17.6595C87.4997 18.1872 87.2287 18.8649 87.2287 19.6866C87.2287 20.5082 87.4997 21.1859 88.0342 21.7136Z"
		fill="white" stroke="white" stroke-width="0.0643492" stroke-miterlimit="10"/>
	<path
		d="M95.0161 23.0497V16H96.1453L99.6562 21.4828H99.6968L99.6562 20.1275V16H100.585V23.0497H99.6155L95.939 17.2965H95.8984L95.939 18.6576V23.0497H95.0161Z"
		fill="white" stroke="white" stroke-width="0.0643492" stroke-miterlimit="10"/>
	<path
		d="M86.0558 32.9051C83.2269 32.9051 80.9159 35.007 80.9159 37.9072C80.9159 40.7838 83.2269 42.9078 86.0558 42.9078C88.8907 42.9078 91.2017 40.7838 91.2017 37.9072C91.2017 35.007 88.8907 32.9051 86.0558 32.9051ZM86.0558 40.9382C84.5036 40.9382 83.1682 39.6873 83.1682 37.9072C83.1682 36.1036 84.5036 34.8748 86.0558 34.8748C87.608 34.8748 88.9494 36.1036 88.9494 37.9072C88.9494 39.6873 87.608 40.9382 86.0558 40.9382ZM74.8411 32.9051C72.0062 32.9051 69.7012 35.007 69.7012 37.9072C69.7012 40.7838 72.0062 42.9078 74.8411 42.9078C77.6745 42.9078 79.981 40.7838 79.981 37.9072C79.981 35.007 77.6745 32.9051 74.8411 32.9051ZM74.8411 40.9382C73.2874 40.9382 71.9475 39.6873 71.9475 37.9072C71.9475 36.1036 73.2874 34.8748 74.8411 34.8748C76.3933 34.8748 77.7287 36.1036 77.7287 37.9072C77.7287 39.6873 76.3933 40.9382 74.8411 40.9382ZM61.496 34.4382V36.5637H66.6946C66.5426 37.7514 66.1361 38.6245 65.5128 39.2331C64.754 39.968 63.5722 40.7838 61.496 40.7838C58.2968 40.7838 55.7916 38.2629 55.7916 35.1393C55.7916 32.0158 58.2968 29.4949 61.496 29.4949C63.2259 29.4949 64.4845 30.1549 65.4134 31.0103L66.9476 29.5125C65.6483 28.3013 63.92 27.3708 61.496 27.3708C57.1089 27.3708 53.4219 30.856 53.4219 35.1393C53.4219 39.4227 57.1089 42.9078 61.496 42.9078C63.8673 42.9078 65.6483 42.1494 67.0484 40.7265C68.4832 39.3257 68.9304 37.356 68.9304 35.7655C68.9304 35.2716 68.8882 34.8174 68.8129 34.4382H61.496ZM116.066 36.086C115.643 34.9674 114.337 32.9051 111.678 32.9051C109.044 32.9051 106.85 34.9321 106.85 37.9072C106.85 40.7089 109.021 42.9078 111.931 42.9078C114.285 42.9078 115.643 41.507 116.201 40.6912L114.455 39.555C113.872 40.3869 113.079 40.9382 111.931 40.9382C110.792 40.9382 109.974 40.4281 109.45 39.4227L116.302 36.6548L116.066 36.086ZM109.08 37.7514C109.021 35.8229 110.614 34.8351 111.755 34.8351C112.65 34.8351 113.408 35.2716 113.661 35.8963L109.08 37.7514ZM103.511 42.6036H105.763V27.9044H103.511V42.6036ZM99.8224 34.0193H99.7471C99.2412 33.4342 98.2762 32.9051 97.0537 32.9051C94.4883 32.9051 92.1427 35.1041 92.1427 37.9234C92.1427 40.7265 94.4883 42.9078 97.0537 42.9078C98.2762 42.9078 99.2412 42.3743 99.7471 41.7716H99.8224V42.4889C99.8224 44.4013 98.776 45.4288 97.0883 45.4288C95.7123 45.4288 94.8586 44.4586 94.5064 43.6428L92.5477 44.441C93.1122 45.7668 94.6072 47.3984 97.0883 47.3984C99.729 47.3984 101.957 45.8815 101.957 42.1905V33.2093H99.8224V34.0193ZM97.2464 40.9382C95.6942 40.9382 94.3949 39.6696 94.3949 37.9234C94.3949 36.1609 95.6942 34.8748 97.2464 34.8748C98.776 34.8748 99.982 36.1609 99.982 37.9234C99.982 39.6696 98.776 40.9382 97.2464 40.9382ZM126.61 27.9044H121.224V42.6036H123.47V37.0341H126.61C129.105 37.0341 131.551 35.2716 131.551 32.4685C131.551 29.6668 129.099 27.9044 126.61 27.9044ZM126.669 34.9894H123.47V29.9491H126.669C128.346 29.9491 129.304 31.3087 129.304 32.4685C129.304 33.6062 128.346 34.9894 126.669 34.9894ZM140.555 32.8771C138.932 32.8771 137.244 33.5768 136.55 35.1276L138.543 35.9434C138.972 35.1276 139.761 34.863 140.595 34.863C141.761 34.863 142.942 35.5465 142.96 36.7533V36.9076C142.554 36.6783 141.684 36.3388 140.613 36.3388C138.466 36.3388 136.279 37.4927 136.279 39.6461C136.279 41.6158 138.037 42.8843 140.014 42.8843C141.526 42.8843 142.36 42.2185 142.884 41.4438H142.96V42.5801H145.13V36.9415C145.13 34.3353 143.137 32.8771 140.555 32.8771ZM140.284 40.9323C139.549 40.9323 138.525 40.5766 138.525 39.6873C138.525 38.5495 139.802 38.113 140.907 38.113C141.896 38.113 142.36 38.3261 142.96 38.6069C142.784 39.968 141.584 40.9323 140.284 40.9323ZM153.034 33.1991L150.452 39.5711H150.375L147.706 33.1991H145.283L149.294 42.1038L147.006 47.0589H149.353L155.533 33.1991H153.034ZM132.786 42.6036H135.038V27.9044H132.786V42.6036Z"
		fill="white"/>
	<path
		d="M16.591 16.4885C16.2166 16.8711 16 17.4667 16 18.2381V45.7524C16 46.5237 16.2166 47.1194 16.591 47.502L16.6833 47.5859L32.475 32.1741V31.8102L16.6833 16.3983L16.591 16.4885Z"
		fill="url(#paint0_linear_6605_24038)"/>
	<path
		d="M37.7307 37.3125L32.4727 32.1726V31.8087L37.7371 26.6688L37.855 26.7357L44.0894 30.1991C45.8687 31.182 45.8687 32.7994 44.0894 33.7885L37.855 37.2456L37.7307 37.3125Z"
		fill="url(#paint1_linear_6605_24038)"/>
	<path
		d="M37.8601 37.2481L32.4778 31.9932L16.5938 47.503C17.1847 48.1095 18.1484 48.1826 19.2443 47.5761L37.8601 37.2481Z"
		fill="url(#paint2_linear_6605_24038)"/>
	<path
		d="M37.8601 26.7372L19.2443 16.4093C18.1484 15.8089 17.1847 15.882 16.5938 16.4886L32.4778 31.9922L37.8601 26.7372Z"
		fill="url(#paint3_linear_6605_24038)"/>
	<defs>
		<linearGradient id="paint0_linear_6605_24038" x1="31.0729" y1="46.0389" x2="10.1991" y2="24.6594"
						gradientUnits="userSpaceOnUse">
			<stop stop-color="#00A0FF"/>
			<stop offset="0.0066" stop-color="#00A1FF"/>
			<stop offset="0.2601" stop-color="#00BEFF"/>
			<stop offset="0.5122" stop-color="#00D2FF"/>
			<stop offset="0.7604" stop-color="#00DFFF"/>
			<stop offset="1" stop-color="#00E3FF"/>
		</linearGradient>
		<linearGradient id="paint1_linear_6605_24038" x1="46.4063" y1="31.9889" x2="15.5723" y2="31.9889"
						gradientUnits="userSpaceOnUse">
			<stop stop-color="#FFE000"/>
			<stop offset="0.4087" stop-color="#FFBD00"/>
			<stop offset="0.7754" stop-color="#FFA500"/>
			<stop offset="1" stop-color="#FF9C00"/>
		</linearGradient>
		<linearGradient id="paint2_linear_6605_24038" x1="34.9334" y1="29.1365" x2="6.62683" y2="0.144028"
						gradientUnits="userSpaceOnUse">
			<stop stop-color="#FF3A44"/>
			<stop offset="1" stop-color="#C31162"/>
		</linearGradient>
		<linearGradient id="paint3_linear_6605_24038" x1="12.5954" y1="56.6559" x2="25.2355" y2="43.7096"
						gradientUnits="userSpaceOnUse">
			<stop stop-color="#32A071"/>
			<stop offset="0.0685" stop-color="#2DA771"/>
			<stop offset="0.4762" stop-color="#15CF74"/>
			<stop offset="0.8009" stop-color="#06E775"/>
			<stop offset="1" stop-color="#00F076"/>
		</linearGradient>
	</defs>
</svg>
