<svg width="72" height="72" viewBox="0 0 72 72" fill="none" xmlns="http://www.w3.org/2000/svg">
<path fill-rule="evenodd" clip-rule="evenodd" d="M36 0C28.8799 0 21.9197 2.11138 15.9995 6.06711C10.0793 10.0228 5.46509 15.6452 2.74034 22.2234C0.0155811 28.8015 -0.697316 36.0399 0.691752 43.0233C2.08082 50.0066 5.50948 56.4212 10.5442 61.4558C15.5789 66.4905 21.9934 69.9192 28.9768 71.3083C35.9601 72.6973 43.1985 71.9844 49.7766 69.2597C56.3548 66.5349 61.9772 61.9207 65.9329 56.0005C69.8887 50.0803 72 43.1201 72 36C71.9966 26.4533 68.2026 17.2985 61.452 10.548C54.7015 3.79741 45.5467 0.00344557 36 0ZM36 10.8C38.1361 10.8 40.2241 11.4334 42.0002 12.6201C43.7762 13.8068 45.1605 15.4936 45.9779 17.467C46.7953 19.4405 47.0092 21.612 46.5925 23.707C46.1758 25.802 45.1472 27.7263 43.6368 29.2368C42.1264 30.7472 40.202 31.7758 38.107 32.1925C36.012 32.6092 33.8405 32.3953 31.867 31.5779C29.8936 30.7605 28.2069 29.3762 27.0202 27.6002C25.8334 25.8241 25.2 23.736 25.2 21.6C25.1982 20.1812 25.4763 18.776 26.0184 17.4648C26.5604 16.1537 27.3559 14.9624 28.3591 13.9591C29.3624 12.9559 30.5537 12.1604 31.8648 11.6183C33.176 11.0762 34.5812 10.7981 36 10.8ZM36 61.92C31.7227 61.9199 27.5119 60.8614 23.7431 58.8388C19.9742 56.8162 16.7645 53.8923 14.4 50.328C14.508 43.165 28.8 39.241 36 39.241C43.164 39.241 57.492 43.165 57.6 50.328C55.2353 53.8921 52.0256 56.8157 48.2567 58.8381C44.4879 60.8605 40.2772 61.919 36 61.919V61.92Z" fill="#8B9EB1"/>
</svg>
