<svg xmlns="http://www.w3.org/2000/svg" width="60" height="60" viewBox="0 0 60 60">
	<defs>
		<style>.a{fill:#4d5c6f;fill-rule:evenodd;}</style>
	</defs>
	<path class="a"
		  d="M582.7,7662.333a9.489,9.489,0,0,0-.457-12.886l-11.666-11.672a9.435,9.435,0,0,0-12.886-.456l-1.916,1.812a2.635,2.635,0,0,0,0,3.729l3.729,3.729a2.7,2.7,0,0,0,3.729,0l1.9-1.83a1.979,1.979,0,0,1,2.621.135l7.372,7.377a1.98,1.98,0,0,1,.134,2.622l-1.83,1.9a2.636,2.636,0,0,0,0,3.729l3.729,3.729a2.7,2.7,0,0,0,3.729,0l1.813-1.916ZM600,7650a30,30,0,1,1-30-30A30,30,0,0,1,600,7650Z"
		  transform="translate(-540.001 -7619.996)"/>
</svg>
