<svg xmlns="http://www.w3.org/2000/svg" width="960" height="462.617"
	 viewBox="0 0 960 462.617">
	<defs>
		<style>
			.a{fill:none;clip-rule:evenodd;}.b{fill:#7a92f8;}.aa,.ab,.ac,.ad,.ae,.af,.ah,.ai,.aj,.ak,.al,.am,.an,.ao,.ap,.aq,.ar,.as,.at,.au,.av,.aw,.ax,.b,.ba,.bc,.bd,.be,.bf,.bg,.bh,.bi,.bk,.bl,.bm,.bn,.bo,.bp,.bq,.br,.bs,.bt,.bu,.bv,.bz,.c,.ca,.cb,.cc,.cd,.ce,.cf,.ch,.ci,.ck,.cl,.cm,.cn,.co,.cp,.cq,.cr,.cs,.ct,.cu,.cv,.cw,.cx,.cy,.d,.da,.e,.g,.h,.i,.j,.k,.l,.m,.n,.o,.p,.q,.r,.s,.t,.u,.v,.w,.x,.y,.z{fill-rule:evenodd;}.c{fill:#99c0f8;}.d{fill:#a5ccff;}.e{fill:#fff;}.f{clip-path:url(#a);}.g{fill:#c88153;}.h{fill:#233862;}.i{fill:#132644;}.j{fill:#eecaaa;}.k{fill:#d7a886;}.l{fill:#b46e3f;}.m{fill:#a43d38;}.n{fill:#1c4689;}.o{fill:#bb3f3f;}.p{fill:#9a2323;}.q{fill:#1a1a1a;}.ag,.r{fill:#2a4689;}.s{fill:#98592d;}.t{fill:#70bdd5;}.u{fill:#2b3a64;}.v{fill:#ffb07c;}.w{fill:#ee9d67;}.x{fill:#ffb73d;}.y{fill:#ffa211;}.z{fill:#e38438;}.aa{fill:#ec9649;}.ab{fill:#d07933;}.ac{fill:#333;}.ad{fill:#ea7373;}.ae{fill:#5ea9b5;}.af{fill:#c86060;}.ah{fill:#163460;}.ai{fill:#4975c9;}.aj{fill:#ec965e;}.ak{fill:#7299ee;}.al{fill:#b9d3ff;}.am{fill:#678de3;}.an{fill:#ec975f;}.ao{fill:#ffb17d;}.ap{fill:#f8dcbe;}.aq{fill:#dc6d22;}.ar{fill:#ec7d2b;}.as{fill:#f89646;}.at{fill:#2b478a;}.au{fill:#163560;}.av{fill:#eeddcd;}.aw,.cz{fill:#fbebda;}.ax{fill:#2c3a64;}.ay{fill:#bad2fa;}.az{fill:#bed4fb;}.ba,.bb{fill:#a5c5f3;}.bc{fill:#1b2e59;}.bd{fill:#35488a;}.be{fill:#ececff;}.bf{fill:#b4493f;}.bg{fill:#e7935b;}.bh{fill:#d6e1eb;}.bi{fill:#233f77;}.bj{fill:#83a5f3;}.bk{fill:#699ced;}.bl{fill:#548de1;}.bm{fill:#f3d1b7;}.bn{fill:#568bda;}.bo{fill:#b4453c;}.bp{fill:#e5974b;}.bq{fill:#f1cba9;}.br{fill:#13365b;}.bs{fill:#f19281;}.bt{fill:#f37457;}.bu{fill:#be7054;}.bv{fill:#a75d42;}.bw,.ce{fill:#e1d1c9;}.bx{fill:#cbbcb6;}.by{fill:url(#b);}.bz{fill:#ffb655;}.ca{fill:#e9d7ce;}.cb{fill:#d99a5b;}.cc{fill:#eda785;}.cd{fill:#3a3f47;}.cf{fill:#323657;}.cg{fill:#f4f6ff;}.ch{fill:#ffc555;}.ci{fill:#736a67;}.cj,.ck{fill:#dee0e7;}.cl{fill:#f5cb7e;}.cm{fill:#466eb5;}.cn{fill:#f5a28f;}.co{fill:#f38b7e;}.cp{fill:#f8dead;}.cq{fill:#0e2d34;}.cr{fill:#94482a;}.cs{fill:#afcfff;}.ct{fill:#ec965d;}.cu{fill:#a8453d;}.cv{fill:#97b9f3;}.cw{fill:#d7925b;}.cx{fill:#f0ab74;}.cy{fill:#d1e2fb;}.da{fill:#922424;}
		</style>
		<clipPath id="a">
			<path class="a"
				  d="M784.808,412.359a41.253,41.253,0,1,1-41.253-41.254,41.253,41.253,0,0,1,41.253,41.254ZM859.55,519.214a22.325,22.325,0,1,1-22.325-22.325,22.325,22.325,0,0,1,22.325,22.325Zm216.562,9.943a43.564,43.564,0,1,1-43.564-43.564,43.564,43.564,0,0,1,43.564,43.564Zm246.793-2.219a28.4,28.4,0,1,1-28.4-28.4,28.4,28.4,0,0,1,28.4,28.4Zm-231.779-70.361a11.885,11.885,0,1,0,11.886-11.886,11.886,11.886,0,0,0-11.886,11.886Zm61.732-126.132a7.073,7.073,0,1,0,7.073-7.073,7.073,7.073,0,0,0-7.073,7.073Zm53.137,184.28a10.2,10.2,0,1,0,10.2-10.2,10.2,10.2,0,0,0-10.2,10.2ZM899.484,315.189a10.068,10.068,0,1,0,10.068-10.068,10.069,10.069,0,0,0-10.068,10.068Zm-188.982,0a9.747,9.747,0,1,0,9.748-9.747,9.748,9.748,0,0,0-9.748,9.747ZM823.028,455.8a11.885,11.885,0,1,0,11.885-11.886A11.885,11.885,0,0,0,823.028,455.8Zm86.524,103.259a11.885,11.885,0,1,0,11.886-11.885,11.887,11.887,0,0,0-11.886,11.885Zm53.38-115.145a7.712,7.712,0,1,0,7.713-7.712,7.713,7.713,0,0,0-7.713,7.712ZM743.555,521.19a7.967,7.967,0,1,0,7.967-7.968,7.967,7.967,0,0,0-7.967,7.968Zm-155.349-2.9a11.885,11.885,0,1,0,11.886-11.885,11.886,11.886,0,0,0-11.886,11.885Zm54.445-126.429a11.885,11.885,0,1,0,11.885-11.885,11.884,11.884,0,0,0-11.885,11.885Zm692.886,105.026A11.885,11.885,0,1,0,1347.422,485a11.884,11.884,0,0,0-11.885,11.885ZM639,538.675a32.268,32.268,0,1,0,32.268-32.268A32.268,32.268,0,0,0,639,538.675Zm526.037-12.988a22.565,22.565,0,1,1-22.565-22.567,22.566,22.566,0,0,1,22.565,22.567Zm65.171-113.328a44.218,44.218,0,1,1-44.217-44.219,44.218,44.218,0,0,1,44.217,44.219ZM942.1,402.691a39.21,39.21,0,1,1-39.21-39.21,39.21,39.21,0,0,1,39.21,39.21ZM828.844,305.386a31.875,31.875,0,1,1-31.875-31.875,31.875,31.875,0,0,1,31.875,31.875ZM1114.9,303.3a36.18,36.18,0,1,1-36.179-36.18A36.179,36.179,0,0,1,1114.9,303.3Zm133.343,9.67a30.1,30.1,0,1,1-30.1-30.1,30.1,30.1,0,0,1,30.1,30.1ZM669.387,326.867a26.737,26.737,0,1,1-26.736-26.737,26.737,26.737,0,0,1,26.736,26.737ZM636.68,443.913a36.589,36.589,0,1,1-36.588-36.589,36.589,36.589,0,0,1,36.588,36.589Zm314.479,52.976a17.836,17.836,0,1,1-17.836-17.836,17.836,17.836,0,0,1,17.836,17.836Zm47.918-171.632a20.72,20.72,0,1,1-20.72-20.719,20.719,20.719,0,0,1,20.72,20.719Zm57.1,90.24a23.634,23.634,0,1,1-23.634-23.634,23.634,23.634,0,0,1,23.634,23.634Zm290.248,4.954a25.933,25.933,0,1,1-25.933-25.934A25.934,25.934,0,0,1,1346.43,420.451Z"/>
		</clipPath>
		<linearGradient id="b" x1="0.5" y1="0.562" x2="0.5" y2="1.125" gradientUnits="objectBoundingBox">
			<stop offset="0" stop-color="#cbdee6"/>
			<stop offset="0.08" stop-color="#cbdee6"/>
			<stop offset="1" stop-color="#eceeec"/>
		</linearGradient>
	</defs>
	<g transform="translate(-480 -191.823)">
		<path class="b"
			  d="M700.538,249.31a104.263,104.263,0,0,1,188.949,22.021,104.363,104.363,0,0,1,118.592-46.96,104.234,104.234,0,0,1,154.48,3.469A104.235,104.235,0,0,1,1333.305,308.1a105.292,105.292,0,0,1-.714,12.192c1.055-.031,2.112-.052,3.174-.052a104.233,104.233,0,0,1,72.123,179.487,104.244,104.244,0,0,1-180.326,97.487,104.276,104.276,0,0,1-125.471,22.628,104.238,104.238,0,0,1-149.758-17.613,104.809,104.809,0,0,1-49.314-2.192,104.214,104.214,0,0,1-148.894-7.063A104.251,104.251,0,0,1,554.806,550.2q0-2.694.136-5.355A104.261,104.261,0,0,1,529.8,355.889,104.242,104.242,0,0,1,700.538,249.31Z"/>
		<path class="c"
			  d="M1322.5,422.946l-50.376,28.427L1191.1,406.978l-4.977-4.484,36.623-98.861-1.16-.43-36.453,98.4-95.749-86.249-.829.919,96.121,86.564-3,8.1,1.16.43,2.83-7.639,4.722,4.253,80.478,44.1-33.811,19.079-59.1-60.416-.112-.048-124.846-53.881,18.854-55.9,7.039-2.007-.339-1.189-6.221,1.774.332-.981-1.173-.4-.6,1.789L980.7,325.619l-2.254-.973-68.8-10.068-.179,1.223,68.724,10.057.667.287-4.467,1.274-.115.118-70.4,71.686-4.309-.549-.158,1.227,3.378.431-3.74,3.809.882.865,4.4-4.478,124.295,15.839.157-1.228-123.363-15.72,69.629-70.9,5.61-1.6,70.811,30.569L1031.692,416.1l139.84,2.849.024-1.237L1033.4,414.895l19.2-56.913,124.638,53.806,58.7,60.006-89.913,50.738c.17.377.336.756.495,1.136l90.433-50.837,56.726,57.989.885-.866L1238.07,472.2l34.311-19.288,74.744,40.962.594-1.088L1273.645,452.2l49.377-27.757c-.021-.428-.544-1.075-.519-1.5Zm-162.749-91.91-81.214-24.353.355-1.185,81.214,24.354-.355,1.184Zm134.207,212.583-77.979-28.313.423-1.165,77.979,28.313-.423,1.165Zm-152.388-10.105-.315-1.2,74.778-19.692.315,1.2-74.778,19.692Zm-91.106,5.776,86.818-6.087-.087-1.233-86.818,6.088.087,1.232ZM1070.4,301.334l-18.551,54.993L982.5,326.394l87.907-25.06ZM1033.166,532.8l2.9-80.022,64.772,7.4,59.145-30.988-.1-1.233-59.67,30,.624,2.219-64.772-7.4,1.228-33.925-1.237-.044-1.225,33.828-63.965-7.31,43.435,80.23-1.087.59-42.648-78.774-36.744,49.882-1-.735,37.734-51.229-1.744-.2-56.675-35.2.631-1.064,56.01,34.795.034,1.469,1.744.2.166-.224.14.26,63.965,7.31-2.9,80.119,1.237.044ZM915.2,559.608,841.909,521.3l-1,2.848.908.306-.394,1.174-.924-.311-2.11,6.024-1.167-.411,2.1-6.007-65.263-21.95L751.92,521.662l-.308.261-89.356-43.87-59.142,37.2-.66-1.05,58.494-36.788L601.043,448l6.2-1.7.225-.671,1,.336,131.587-35.976L638.828,317.36l.837-.914,101.8,93.161,13.012-3.557,25.6-57.943-61.534-33.132,74.71-18.58.3,1.2-71.6,17.812,58.63,31.569,19.593-44.342.184-.418L908.2,314.576l.619.07L898.53,399.363l-1.227-.15,10.133-83.48L801.123,303.548l-19.448,44.014,100.777,54.262,4.1-11.7,1.168.411-4.162,11.881,17.525,9.437-.587,1.088L883.141,403.6l-22.434,64.042L930.49,495.03l.454.176-8.894,63.938-1.225-.169L929.583,496l-69.285-27.2-17.975,51.31,73.451,38.393-.573,1.1Zm-73.986-40.069,17.93-51.184-24.584-9.649v57.355l6.654,3.478Zm18.339-52.351,22.485-64.182L781.174,348.7l-25.683,58.123-.118.271L742.547,410.6l1.426,1.3-.836.913-2-1.832-130.566,35.7,64.668,21.749L733.943,431.5l.66,1.049-57.851,36.384L773.8,501.575l53.98-45.559-89.759-38.277.486-1.135,90.33,38.52,5.724-4.831v7.086l24.993,9.809Zm-19.815,56.564,1.062-3.034-7.477-3.908V458.22l-4.257-1.671-53.894,45.488,64.566,21.715ZM772.693,502.51,675.4,469.788l-11.91,7.49,87.942,43.176,21.262-17.944ZM662.182,476.636l11.7-7.359-65.457-22.014-3.9,1.065,57.657,28.308ZM830.14,455.644l3.184,1.249v-3.936l-3.184,2.687ZM667.392,543.87l.43-1.16L600.71,517.861v-75.99l54.539-42.354-.119-.4-1.763-5.972,72.018,14.416.243-1.213L652.972,391.8l-20.6-69.8-1.186.348L651.6,391.527l-1.349-.27-.242,1.213,1.987.4,1.826,6.19-54.35,42.209v77.454Z"/>
		<path class="d"
			  d="M1272.123,450.416l51.3-28.95-.087,1.526c0,.009.091.2.182.384a2.663,2.663,0,0,1,.337,1.029l.027.519L1275.372,452.2l73.483,40.261-1.4,2.557-75.069-41.14L1239.434,472.4l56.315,57.568-2.084,2.039L1236.8,473.877l-90.692,50.983-.365-.871-.237-.556-.248-.557-.315-.694,89.632-50.579-57.825-59.112L1053.1,359.112l-18.542,54.971,137.847,2.809-.057,2.909q-70.908-1.446-141.816-2.889l19.887-58.958-69.829-30.145-5.113,1.458L907.189,398.8l122.52,15.613-.369,2.886L904.629,401.41l-4.693,4.779-2.077-2.037,3.146-3.2-2.535-.323.053-.418-2.153-.263L906.5,316.47,801.641,304.451l-18.886,42.741,99.232,53.431,4.051-11.565,2.746.966-4.2,12,17.636,9.5-1.383,2.562L883.607,404.8l-21.844,62.355c23.364,9.169,46.709,18.418,70.1,27.511q-4.557,32.709-9.1,65.421l-2.884-.4,8.782-63.146L860.8,469.9l-17.448,49.807L916.9,558.157l-1.346,2.578-73.176-38.249-.4,1.137.9.3-.927,2.761-.935-.315-2.114,6.037-2.745-.967,2.1-6-64.014-21.53q-11.254,9.5-22.509,19l-89.43-43.907L602.851,516.4l-1.3-2.07v2.945L668.9,542.215l-1.014,2.731q-34.623-12.825-69.25-25.642V440.857l54.224-42.111-1.521-5.154-2.315-.464.572-2.858.811.162L630.147,321.78l2.794-.818,20.69,70.116,72.984,14.609-.572,2.858-71.479-14.308q.823,2.8,1.651,5.592l-54.666,42.452v4.714l5.042-1.378.35-1.043,1.552.522,129.88-35.509L637.649,317.413l1.964-2.147L741.691,408.68l12.181-3.331L779,348.477l-60.851-32.765.2-1.55,75.52-18.782.706,2.823-70.317,17.491,55.925,30.113q9.829-22.246,19.659-44.5,54.532,6.235,109.065,12.5l.028-.186,69.634,10.19.209.059,1.981.854,89.474-25.505.73-2.164,2.757.932-.089.264,5.495-1.567.8,2.8-7.423,2.116-18.467,54.746,124.247,53.623.268.184,58.655,59.96,31.941-18.024-79.16-43.382-.157-.112-3.805-3.426-2.692,7.267-2.732-1.013,3.094-8.352-96.323-86.745,1.952-2.163,95.454,85.983,36.316-98.028,2.731,1.012L1187.1,402.252l4.483,4.039,80.535,44.125ZM982.238,326.052l-.894.255.854.369.04-.624Zm-2.232.181-.853-.369-.04.623.893-.254Zm-4.7.051-65.894-9.643-9.855,81.19,4,.51,70.219-71.5.373-.226,1.153-.328Zm185.6,3.807.241-.8q-41.409-12.422-82.82-24.835l-.837,2.79q41.412,12.41,82.819,24.834l.6-1.988Zm134.259,212.648.285-.786-78.321-28.437-.5-1.915-76.395,20.118.739,2.818,74.231-19.548-.3.819q39.78,14.432,79.552,28.883l.709-1.952Zm-157.83-8.7.839-.058-.205-2.9q-44.245,3.1-88.49,6.205l.2,2.9,87.651-6.147ZM1051.352,355.2l17.749-52.62-84.113,23.979,66.364,28.641Zm-14.485,98.517,65.113,7.442-.155-.55,59.036-30.931-.242-3.02q-30.7,15.434-61.4,30.871l2.761,3.63-65.113-7.442,1.291-35.667-2.909-.1-1.283,35.438-55.591-6.354-6.981-2.485-.56-1.035-.66.9-.54-.062-.027-1.193q-28.557-17.746-57.12-35.483L911,410.172l56.988,35.395.006.276,1.032.118L931.655,496.7,934,498.427l36.459-49.494,42.418,78.35,2.56-1.387-43.068-79.553,61.6,7.04-2.9,80.181,2.909.1,2.895-79.953Zm64.5,5.248,30.426-15.942L1101.2,458.4l.158.564ZM721.615,315.675l.079-.62-.842.21.763.41Zm-111.28,130.65-1.143.313,1.123.378.02-.691Zm-6.073,1.661-.868.238.808.4.06-.634ZM659.235,477.5,601.549,449.18v64.6L659.235,477.5ZM835.4,515.556l5.344,2.794,17.344-49.509L835.4,459.935v55.621Zm0-58.747,23.651,9.282,21.96-62.687-99.438-53.541c-8.527,19.3-17.188,38.58-25.593,57.927L744.229,411l.924.847-1.964,2.146-2.278-2.086-127.475,34.85,61.69,20.747,59.08-37.156,1.551,2.465L678.691,468.7l94.929,31.927L826.2,456.253l-89.279-38.072,1.144-2.675,90.625,38.646,6.71-5.663v8.32Zm-58.552,44.909L839.223,522.7l.55-1.571-7.288-3.81V458.791l-3.259-1.28-52.377,44.207Zm-25.541,17.744,19.709-16.634-95.509-32.121-10.3,6.481,86.1,42.274Zm-144.431-70.91,55.253,27.127,9.813-6.171L608.4,448.136l-1.52.416Zm225.608,6.209-.731.616.731.287Z"/>
		<path class="e"
			  d="M784.808,412.359a41.253,41.253,0,1,1-41.253-41.254,41.253,41.253,0,0,1,41.253,41.254ZM859.55,519.214a22.325,22.325,0,1,1-22.325-22.325,22.325,22.325,0,0,1,22.325,22.325Zm216.562,9.943a43.564,43.564,0,1,1-43.564-43.564,43.564,43.564,0,0,1,43.564,43.564Zm246.793-2.219a28.4,28.4,0,1,1-28.4-28.4,28.4,28.4,0,0,1,28.4,28.4Zm-231.779-70.361a11.885,11.885,0,1,0,11.886-11.886,11.886,11.886,0,0,0-11.886,11.886Zm61.732-126.132a7.073,7.073,0,1,0,7.073-7.073,7.073,7.073,0,0,0-7.073,7.073Zm53.137,184.28a10.2,10.2,0,1,0,10.2-10.2,10.2,10.2,0,0,0-10.2,10.2ZM899.484,315.189a10.068,10.068,0,1,0,10.068-10.068,10.069,10.069,0,0,0-10.068,10.068Zm-188.982,0a9.747,9.747,0,1,0,9.748-9.747,9.748,9.748,0,0,0-9.748,9.747ZM823.028,455.8a11.885,11.885,0,1,0,11.885-11.886A11.885,11.885,0,0,0,823.028,455.8Zm86.524,103.259a11.885,11.885,0,1,0,11.886-11.885,11.887,11.887,0,0,0-11.886,11.885Zm53.38-115.145a7.712,7.712,0,1,0,7.713-7.712,7.713,7.713,0,0,0-7.713,7.712ZM743.555,521.19a7.967,7.967,0,1,0,7.967-7.968,7.967,7.967,0,0,0-7.967,7.968Zm-155.349-2.9a11.885,11.885,0,1,0,11.886-11.885,11.886,11.886,0,0,0-11.886,11.885Zm54.445-126.429a11.885,11.885,0,1,0,11.885-11.885,11.884,11.884,0,0,0-11.885,11.885Zm692.886,105.026A11.885,11.885,0,1,0,1347.422,485a11.884,11.884,0,0,0-11.885,11.885ZM639,538.675a32.268,32.268,0,1,0,32.268-32.268A32.268,32.268,0,0,0,639,538.675Zm526.037-12.988a22.565,22.565,0,1,1-22.565-22.567,22.566,22.566,0,0,1,22.565,22.567Zm65.171-113.328a44.218,44.218,0,1,1-44.217-44.219,44.218,44.218,0,0,1,44.217,44.219ZM942.1,402.691a39.21,39.21,0,1,1-39.21-39.21,39.21,39.21,0,0,1,39.21,39.21ZM828.844,305.386a31.875,31.875,0,1,1-31.875-31.875,31.875,31.875,0,0,1,31.875,31.875ZM1114.9,303.3a36.18,36.18,0,1,1-36.179-36.18A36.179,36.179,0,0,1,1114.9,303.3Zm133.343,9.67a30.1,30.1,0,1,1-30.1-30.1,30.1,30.1,0,0,1,30.1,30.1ZM669.387,326.867a26.737,26.737,0,1,1-26.736-26.737,26.737,26.737,0,0,1,26.736,26.737ZM636.68,443.913a36.589,36.589,0,1,1-36.588-36.589,36.589,36.589,0,0,1,36.588,36.589Zm314.479,52.976a17.836,17.836,0,1,1-17.836-17.836,17.836,17.836,0,0,1,17.836,17.836Zm47.918-171.632a20.72,20.72,0,1,1-20.72-20.719,20.719,20.719,0,0,1,20.72,20.719Zm57.1,90.24a23.634,23.634,0,1,1-23.634-23.634,23.634,23.634,0,0,1,23.634,23.634Zm290.248,4.954a25.933,25.933,0,1,1-25.933-25.934A25.934,25.934,0,0,1,1346.43,420.451Z"/>
		<g class="f">
			<path class="g" d="M1062.191,576.342l1.295,15.3h-4.567l-4.267-12.62Z"/>
			<path class="h" d="M1006.477,504.753l25.739-15.194,17.681,12.391-24.493,14.28Z"/>
			<path class="i"
				  d="M1019.7,511.756a8.69,8.69,0,0,1-4.258,5.671c-3.6,1.928-6.685,2.493-5.913,8.7s-3.472,7.623-4.243,11.736-.677,11.633,9.64,9.385,33.947-.643,36.514-3.985.769-10.285-3.6-15.555,1.415-8.719-.643-13.358a48.57,48.57,0,0,0-6-9.414S1024.215,501.714,1019.7,511.756Z"/>
			<path class="g"
				  d="M1038.271,534.947c.037.016-.636,16.324-3.431,16.354-.589,0-4.909-11.42-5.46-11.57-2.99-.815-3.411-8.132-3.371-8.14,1.266-.252,1.632-1.992,1.6-9.468l.573.113,9.623,1.906s-.22,3.028-.225,5.881C1037.578,532.419,1037.722,534.691,1038.271,534.947Z"/>
			<path class="j"
				  d="M999.4,518.585l-.314-.658c7-3.332,7.379-11.207,7.368-13.028a.588.588,0,0,1,.35-.539h0a.322.322,0,0,1,.453.3C1007.239,506.774,1006.7,515.11,999.4,518.585Z"/>
			<path class="k" d="M999.083,517.927l-.977.153.561,1.126.729-.621Z"/>
			<path class="j" d="M998.106,518.08s-1.291.588-1.635.257c0,0,.15,1.145.676,1.37a3.8,3.8,0,0,0,1.52-.5Z"/>
			<path class="l" d="M1037.81,524.142s-.22,3.028-.225,5.881c-5.386-.152-8.232-5.064-9.4-7.787Z"/>
			<path class="i"
				  d="M1026.206,522.573s-3.648-3.814-5.066-7.418c-1.011-2.572-1.647-12.738,8.582-13.317a13.787,13.787,0,0,1,6.027.988c2.452,1.023,6.2,3.542,4.458,12.876l-.317,3.1Z"/>
			<path class="m" d="M1027.916,591.641c-.927-4.847-1.43-9.067-1.91-13.448l25.72,6.544s.565,2.448,1.658,6.9Z"/>
			<path class="g"
				  d="M1039.494,525.664s-12.448,2.723-14.026-5.055-4.246-12.667,3.636-14.734,10.033.586,11.19,3.054S1042.691,524.754,1039.494,525.664Z"/>
			<path class="i"
				  d="M1034.755,504.537s-1.58,9.818-6.556,12.225-7.537,1.461-7.537,1.461a15.168,15.168,0,0,0,3.092-9.761S1031.3,500.713,1034.755,504.537Z"/>
			<path class="i"
				  d="M1034.057,505.449s2.966,1.524,3.987,3.379,3.147,2.514,3.284,5.5c0,0,1.326-6.724-2.277-9.65C1035.231,501.575,1034.057,505.449,1034.057,505.449Z"/>
			<path class="n"
				  d="M1061.633,582.691a23.9,23.9,0,0,1-4.089.877,25.109,25.109,0,0,0-5.818,1.169c-4.124,1.871-14.128-53.362-14.128-53.362s7.281.069,10.624,5.337,16.348,31.29,17.507,39.63C1066.247,580.093,1064.3,581.789,1061.633,582.691Z"/>
			<path class="n"
				  d="M1013.433,591.641c2.683-18.482,9.482-60.04,9.482-60.04l3.8-.583,9.1,20.283,1.781-19.927,4.142,1.33a6.185,6.185,0,0,1,4.107,4.379l13.98,54.558Z"/>
			<path class="o" d="M1047.273,580.513l-21.124-2.143,3.424-30.606,21.125,2.141Z"/>
			<path class="p" d="M1029.572,547.765l-1.355-.1-3.182,30.581,1.114.127Z"/>
			<path class="g"
				  d="M1011.853,563.538a223.773,223.773,0,0,0,29.007,6.56s4.679,2.021,2.481,2.577c-.563.141-28.948,6.331-33.157,2.314Z"/>
			<path class="n"
				  d="M1026.677,531.018s-11.1,1.343-12.965,3.583c-5.9,7.084-11.255,37.333-6.628,44.318,5.53,8.342,14.044-4.752,16.713-12.464C1025.182,562.456,1027.437,538.29,1026.677,531.018Z"/>
			<path class="g"
				  d="M1039.464,569.889s1.742-.162,2.073-.718c.661-1.114,1.707-1.1,2.579-1.248s1.852-1.1,2.024-.907-.643,1.243-1.1,1.634a3.808,3.808,0,0,0,1.554-.237c.621-.3,2.793-2.775,2.8-1.708.025,2.571-.175,2.982-2.378,4.8-1.808,1.493-7.945,2.046-7.945,2.046Z"/>
			<path class="h"
				  d="M1026.647,562.869l-.434,4.346a15.2,15.2,0,0,1-2.416-.76c-6.085-2.436-3.683-14.531-3.683-14.531A20.964,20.964,0,0,0,1026.647,562.869Z"/>
			<path class="n"
				  d="M1041.191,504.939s-9-3.417-21.491,6.817l.254-2.338a7.55,7.55,0,0,1,2.995-5.251,20.482,20.482,0,0,1,9.5-3.612,8.486,8.486,0,0,1,8.091,3.469Z"/>
			<path class="h"
				  d="M1061.633,582.691a23.9,23.9,0,0,1-4.089.877l-5.838-25.766S1061.531,577.608,1061.633,582.691Z"/>
			<path class="q"
				  d="M756.19,385.455a10.8,10.8,0,0,0-4.118-2.217c3.445-1.55,6.377-3.376,4.35-4.493a3.607,3.607,0,0,0-3.027-.014c1.7-1.716,2.514-3.194.86-3.581-2.514-.588-5.131,2.651-6.958,5.638,1.185-2.562,1.8-5.1-.413-5.138-2.547-.044-3.044,3.336-3,6.257q-.316,0-.633.013c-.718-3.232-2.109-7.251-4.482-6.178-1.2.541-1.152,1.7-.526,3.04-1.122-.861-2.232-1.158-3.114-.247-1.344,1.39.308,3.039,2.492,4.418a13.447,13.447,0,0,0-4.3,2.5c-7.414,6.474.67,21.136.67,21.136l21.167-.543C761.79,395.49,758.591,388.065,756.19,385.455Z"/>
			<path class="r"
				  d="M702.01,451.5l-1.554-12.335c-.871-6.9,2.767-12.347,11.125-12.69a84.62,84.62,0,0,0,22.107-4.252c7.883-2.623,8.765,4.634,9.635,11.539l2.236,17.738Z"/>
			<path class="g"
				  d="M737.342,412.623s-.293,9.053-1.451,13.109l-9.171,6.4,34.521,5.166-8.232-11.375s-2.486-12.138-1.182-16.628S737.342,412.623,737.342,412.623Z"/>
			<path class="s" d="M737.292,413.874s2.73,6.571,7.872,6.426,6.312-5.959,6.312-5.959Z"/>
			<path class="g"
				  d="M744.574,417.761c-3.726-.066-10.583-5.027-10.583-11.17V397c0-2.243,1.564-4.078,3.476-4.078h14.215c1.912,0,3.476,1.835,3.476,4.078v9.045C755.158,412.49,748.847,417.836,744.574,417.761Z"/>
			<path class="t"
				  d="M764.744,428.067v.019a91.463,91.463,0,0,0-11.735-2.166,16.339,16.339,0,0,1-8.434,6.4c-4.713-.652-8.684-6.457-8.684-6.59a47.666,47.666,0,0,0-10.716,2.141c-1.991.835-4.459,12.929-5.748,23.628h69.227C773.964,428.827,764.744,428.067,764.744,428.067Z"/>
			<path class="q"
				  d="M733.991,400.891s2.586-7.894,11.06-6.663,9.206,3.042,10.107,5.142,2.639-7.677,2.639-7.677l-9.995-2.969s-12.094,1.376-12.963,3.4l-.869,2.028Z"/>
			<path class="r"
				  d="M732.5,451.5q.15-1.956.2-4.073a56.586,56.586,0,0,0-3.548-20.638s1.7-.407,2.274-.507c.623-.108,2.53-.325,2.53-.325a80.042,80.042,0,0,1,2.366,21.459q-.048,2.067-.242,4.084Z"/>
			<path class="t"
				  d="M706.518,451.5A56.432,56.432,0,0,1,710,441.85a27.866,27.866,0,0,1,16.974-14.528l3.136,18.914-2.644,5.265Z"/>
			<path class="u"
				  d="M753.862,401.754a2.584,2.584,0,0,0-2.03-.863h-4.267a1.884,1.884,0,0,0-1.685.693,1.568,1.568,0,0,0-.24.708,3.986,3.986,0,0,0-1.9.033,1.581,1.581,0,0,0-.244-.741,1.883,1.883,0,0,0-1.684-.693h-4.267a2.584,2.584,0,0,0-2.031.863,2.183,2.183,0,0,0-.4,1.877c.486,2.411,3.263,2.72,4.65,2.72a7.665,7.665,0,0,0,.78-.036c1.3,0,2.212-.743,2.876-2.33a4.182,4.182,0,0,0,.324-1.311,3.675,3.675,0,0,1,1.88-.039,4.138,4.138,0,0,0,.325,1.35c.664,1.587,1.579,2.327,2.877,2.33a7.613,7.613,0,0,0,.779.036c1.387,0,4.164-.309,4.65-2.72a2.184,2.184,0,0,0-.4-1.877Zm-10.7,2.122h0c-.616,1.473-1.45,2.159-2.625,2.159h-.017a8.434,8.434,0,0,1-2.367-.111,3.084,3.084,0,0,1-2.763-2.35,1.915,1.915,0,0,1,.34-1.644,2.309,2.309,0,0,1,1.814-.759h4.267a1.626,1.626,0,0,1,1.45.568,1.33,1.33,0,0,1,.2.664,3.517,3.517,0,0,0-.375.139.168.168,0,0,0,.07.321.162.162,0,0,0,.07-.016s.088-.039.228-.087a4.079,4.079,0,0,1-.294,1.115Zm10.819-.3h0a3.082,3.082,0,0,1-2.763,2.349,8.477,8.477,0,0,1-2.367.111h-.016c-1.175,0-2.009-.686-2.626-2.159a4.058,4.058,0,0,1-.295-1.144,2.5,2.5,0,0,1,.242.112.168.168,0,0,0,.158-.3,2.919,2.919,0,0,0-.4-.172,1.309,1.309,0,0,1,.2-.635,1.629,1.629,0,0,1,1.451-.568h4.267a2.307,2.307,0,0,1,1.813.759A1.914,1.914,0,0,1,753.985,403.576Z"/>
			<path class="q"
				  d="M753.119,400.823a2.562,2.562,0,0,1,.991.728,2.312,2.312,0,0,1,.472.988,2.842,2.842,0,0,1-.009,1.154,3.219,3.219,0,0,1-1.6,2.215,6.919,6.919,0,0,1-3.358.763c-.209,0-.4-.008-.548-.017l-.25-.02a2.884,2.884,0,0,1-1.858-.642,4.687,4.687,0,0,1-1.295-1.885,5.1,5.1,0,0,1-.245-.747,3.781,3.781,0,0,1-.084-.466,3.038,3.038,0,0,0-.718-.04,3.712,3.712,0,0,0-.567.078,4.025,4.025,0,0,1-.085.452,5.048,5.048,0,0,1-.24.723,4.676,4.676,0,0,1-1.294,1.885,2.886,2.886,0,0,1-1.858.642l-.25.02c-.147.008-.34.017-.549.017a6.93,6.93,0,0,1-3.358-.761,3.227,3.227,0,0,1-1.6-2.217,2.86,2.86,0,0,1-.009-1.154,2.307,2.307,0,0,1,.472-.988,2.57,2.57,0,0,1,.991-.728,3.283,3.283,0,0,1,1.288-.252h4.267a3.039,3.039,0,0,1,1.153.2,1.68,1.68,0,0,1,1.005,1.074l.028.1a4.609,4.609,0,0,1,.72-.071,4.123,4.123,0,0,1,.665.043l.026-.089a1.74,1.74,0,0,1,.2-.419,1.717,1.717,0,0,1,.8-.638,3.032,3.032,0,0,1,1.153-.2h4.267a3.279,3.279,0,0,1,1.287.252Zm-11.258,4.439a3.821,3.821,0,0,0,1.011-1.509,4.226,4.226,0,0,0,.179-.529l.013-.05a.51.51,0,0,1-.167-.069.5.5,0,0,1-.178-.206.491.491,0,0,1-.014-.372.481.481,0,0,1,.252-.273l.157-.065-.012-.046a.778.778,0,0,0-.1-.225.821.821,0,0,0-.4-.306,2.162,2.162,0,0,0-.781-.12h-4.267a2.377,2.377,0,0,0-.919.173,1.663,1.663,0,0,0-.647.469,1.387,1.387,0,0,0-.286.6,1.922,1.922,0,0,0,.011.776,2.3,2.3,0,0,0,.774,1.337,3.82,3.82,0,0,0,1.74.762,8.144,8.144,0,0,0,2.269.107l.051-.005a2,2,0,0,0,1.32-.452Zm11.036-.412a2.3,2.3,0,0,0,.775-1.336,1.946,1.946,0,0,0,.012-.777,1.388,1.388,0,0,0-.287-.6,1.64,1.64,0,0,0-.646-.469,2.378,2.378,0,0,0-.919-.173h-4.267a2.168,2.168,0,0,0-.782.12.833.833,0,0,0-.4.3.852.852,0,0,0-.1.217l-.01.038.2.094a.489.489,0,0,1,.239.289.48.48,0,0,1-.037.371l0,.006a.48.48,0,0,1-.282.23l-.066.016.008.03a4,4,0,0,0,.183.545,3.8,3.8,0,0,0,1.011,1.51,2,2,0,0,0,1.32.452l.051.005a8.21,8.21,0,0,0,2.269-.106A3.814,3.814,0,0,0,752.9,404.85Z"/>
			<path class="g"
				  d="M741.165,411.563s4.689-.51,6.87,0a4.065,4.065,0,0,1-3.064,1.9C743.069,413.467,741.629,412.77,741.165,411.563Z"/>
			<path class="h"
				  d="M808.455,288.126c-1.794-2.725-8.918-1.2-15.911,3.4s-11.207,10.548-9.413,13.272,8.918,1.2,15.91-3.4S810.249,290.85,808.455,288.126Z"/>
			<path class="o"
				  d="M775.488,358.09c.145-.91.3-1.752.463-2.508A95.938,95.938,0,0,1,790.286,323.1l-2.472-.792a80.354,80.354,0,0,0-4.835,8.728c-2.545,5.137-6.639,13.7-8.446,23.662-.18.993-.35,2.139-.512,3.394Z"/>
			<path class="m"
				  d="M796.874,287.912s-9.025-1.925-13.356,5.414-4.572,20.094-7.46,24.265-7.982,21.777-2.567,25.716,38.769-.144,40.641-1.94-.112-20.285-3.371-25.64S815.443,285.184,796.874,287.912Z"/>
			<path class="v"
				  d="M824.831,358.09a83.01,83.01,0,0,0,6.921-8.278l-2.875-2.494c-2.976,3.509-15.353,9.553-15.353,9.553.066-3.211-.018-6.141-.221-8.807-1.373-18.12-8.2-24.157-10.068-25.482a4.617,4.617,0,0,0-.474-.3s-.007.131-.018.381c-.027.538-.077,1.623-.127,3.112-.232,6.8-.492,22.041,1.307,32.32Z"/>
			<path class="v"
				  d="M828.877,347.318c.043-.428.331-6.654,1.568-7.839s3.678-2.8,4.38-2.669,3.085,4.1,1.959,6.825-5.032,6.177-5.032,6.177Z"/>
			<path class="v"
				  d="M782.332,358.09c-.566-1.6-1.322-3.572-2.26-6.163a24.179,24.179,0,0,1-1.167-4.681c-1.854-12.484,5.365-25.979,9.852-26.9,1.249-.33,3.365-4.839,3.339-12.1l.562.11,9.448,1.871s-.215,2.973-.222,5.774c-.006,2.335.12,4.71.649,4.988.68.062,8.1,1.387,9.446,3.516,1.325,2.092-.152,2.285.365,9.9.444,6.547-2.368,13.876-2.734,23.687Z"/>
			<path class="w" d="M802.106,310.224s-.215,2.973-.222,5.774c-5.287-.149-8.081-4.972-9.226-7.645Z"/>
			<path class="v"
				  d="M803.871,312.877s-12.508.206-12.517-7.586-1.629-13.013,6.357-13.474,9.542,2.51,10.177,5.11S807.125,312.622,803.871,312.877Z"/>
			<path class="m"
				  d="M803.408,291.626s-3.425,9.141-8.681,10.493-7.535-.057-7.535-.057a14.888,14.888,0,0,0,4.868-8.793S800.825,287.275,803.408,291.626Z"/>
			<path class="m"
				  d="M802.559,292.368s2.558,2.041,3.182,4.025.9,6.069,2.095,5.93c0,0,2.58-6.213-.32-9.728C804.441,288.868,802.559,292.368,802.559,292.368Z"/>
			<path class="v"
				  d="M779.7,358.09c.2-.754.409-1.538.625-2.34,2.175-8.084,4.982-17.976,4.982-17.976l.925-4,3.153-13.656s-6.038.617-9.569,2.094a4.389,4.389,0,0,0-2.374,1.754c-2.594,5.7-5.184,20.1-7.005,30.373-.236,1.331-.459,2.592-.667,3.756Z"/>
			<path class="m"
				  d="M803.035,292.677s-2.44,9.572-9.073,12.638c0,0,6.633-5.881,7.2-12.2S803.035,292.677,803.035,292.677Z"/>
			<path class="x"
				  d="M803.2,358.09c-.5-3.581-.8-7.578-.965-11.586-.286-6.936-.168-13.912,0-18.838,2.83-.32,8.023-2.717,9.616-3.313.046.048.092.1.133.149s.065.079.094.12a1.885,1.885,0,0,1,.141.229c.689,1.307.79,8.639,1.131,15.56.3,6.057.778,11.8,1.993,12.925.551.505,3.944.522,3.944.522a26.508,26.508,0,0,1,.163,4.232Z"/>
			<path class="y"
				  d="M802.231,346.505c.164,4.008.463,8,.966,11.585h11.688a3.875,3.875,0,0,1-1.362-1.22c-1.7-2.587-6.988-19.239-6.988-19.239S804.454,341.369,802.231,346.505Z"/>
			<path class="x"
				  d="M813.345,340.357c-.59,5.831-1.779,12.871-2.67,17.733H782.029c-.627-1.534-1.226-2.958-1.226-2.958s-.1.473-.265,1.279c-.1.459-.217,1.029-.359,1.679H762.971c2.664-7.27,6.342-16.252,9.366-23.4l.005-.018c2.89-6.846,4.569-11.607,6.78-12.14,0,0,14.871,6.052,23.108,5.124,2.83-.319,8.023-2.709,9.616-3.3.046.048.092.1.133.149s.065.079.094.12.06.088.086.132c1.207,1.778,1.017,4.728,1.078,5.854A51.45,51.45,0,0,1,813.345,340.357Z"/>
			<path class="y"
				  d="M780.8,355.231s.571,1.363,1.181,2.859h11.435a18.2,18.2,0,0,0,.293-4.15c-.259-4.131-6.367-15.922-8.4-16.167S780.8,355.231,780.8,355.231Z"/>
			<path class="z" d="M780.538,356.511c.168-.808.264-1.28.264-1.28A6.6,6.6,0,0,0,780.538,356.511Z"/>
			<path class="y"
				  d="M766.489,358.09c2.115-11.076,5.691-22.853,5.847-23.369-3.008,7.139-6.665,16.1-9.326,23.369Z"/>
			<path class="aa"
				  d="M834.556,333.435l-.176,1.8-.553,5.684-.354,3.641h-7.258l-.445-3.641-.7-5.684-.221-1.8Z"/>
			<path class="ab" d="M835.072,333.435H824.279l.211-1.083h10.318Z"/>
			<path class="ab" d="M834.38,335.24l-.553,5.684H825.77l-.7-5.684Z"/>
			<path class="v"
				  d="M835.335,337.286s-1.833-2.047-3.666-.482.121,4.9,1.711,5.817a12.783,12.783,0,0,1,2.1,1.389Z"/>
			<path class="o"
				  d="M794.4,358.09c-.021-1.04-.062-2-.129-2.859a97.024,97.024,0,0,0-9.853-34.339l2.555-.457a80.956,80.956,0,0,1,3.622,9.36c1.834,5.468,4.744,14.557,5.2,24.743.047,1.041.062,2.241.053,3.552Z"/>
			<path class="h" d="M781.928,298.04s-5.692-11.328,2.261-15.806,13.774-2.719,18.149,2.757Z"/>
			<path class="r"
				  d="M813.966,283.746c-1.636-2.623-7.363-2.2-14.275.631a56.874,56.874,0,0,0-8.468,4.379,54.619,54.619,0,0,0-9.176,7.092c-4.577,4.476-6.81,8.76-5.328,11.137a3.387,3.387,0,0,0,2.154,1.466c1.013-2.183,3.922-4.227,4.745-5.927a25.968,25.968,0,0,1,9.5-10.122c4.138-2.582,8.256-4.1,11.089-4.283,1.648-.106,2.863.238,3.4,1.1a2.856,2.856,0,0,1-.057,2.62,12.861,12.861,0,0,1,1.239,2.907C813.264,290.318,815.435,286.1,813.966,283.746Z"/>
			<path class="ac"
				  d="M1293.233,501.525a8.193,8.193,0,0,1,4.512.044,2.082,2.082,0,0,0-.829-.619,6.863,6.863,0,0,1,2.277,1.111c11.148-1.9,9.7,13.658,8.773,17.153s4.456,13.626,8.171,18.568c10.425,13.868-6.244,28.31-6.244,28.31-13.514,11.349-7.373-10.659-7.373-10.659.838-2.807-9.315-20.556-15.287-26.463-1.179-2.8-.9-7.283-.871-7.635a19.212,19.212,0,0,0,.1,6.769C1281.716,521.564,1289.006,502.915,1293.233,501.525Z"/>
			<path class="ad"
				  d="M1265.491,552.655a12.549,12.549,0,0,0,1.836,5.412,66.651,66.651,0,0,0,7.388,10.242l2.724-3.878s-1.656-4.109-2.755-7.5c-.66-2.037-1.118-3.812-.9-4.279.6-1.245,12.39-15.2,12.39-15.2l3.205-10.795s-7.846.415-11.187,5.306S1265.491,548.6,1265.491,552.655Z"/>
			<path class="g"
				  d="M1267.327,558.067a66.651,66.651,0,0,0,7.388,10.242l2.724-3.878s-1.656-4.109-2.755-7.5C1273.363,557.716,1271.076,558.461,1267.327,558.067Z"/>
			<path class="g"
				  d="M1288.822,530.149c-.035.015,3.39,1.794,5.967,1.089,2.424-.661,4.007-3.8,3.974-3.81-1.027-.2-1.322-1.615-1.3-7.676l-.464.092-7.8,1.545s.178,2.455.183,4.768C1289.384,528.1,1289.267,529.941,1288.822,530.149Z"/>
			<path class="ae" d="M1301.337,505.754a6.235,6.235,0,0,0-8.468-1.921A33.827,33.827,0,0,1,1301.337,505.754Z"/>
			<path class="l" d="M1289.2,521.389s.178,2.455.183,4.768c4.366-.123,6.674-4.106,7.619-6.313Z"/>
			<path class="ac"
				  d="M1298.6,520.118a22.982,22.982,0,0,0,4.107-6.014c.82-2.086,1.334-10.327-6.957-10.8a11.163,11.163,0,0,0-4.886.8c-1.988.829-5.027,2.871-3.615,10.437l.257,2.512Z"/>
			<path class="m" d="M1298.009,571.361c.3-2.089.531-4.1.756-6.151l-20.851,5.3s-.067.289-.2.847Z"/>
			<path class="g"
				  d="M1287.831,522.623s10.092,2.208,11.37-4.1,3.443-10.268-2.947-11.945-8.133.476-9.072,2.477S1285.239,521.886,1287.831,522.623Z"/>
			<path class="ac"
				  d="M1291.673,505.5s1.281,7.958,5.315,9.91,6.11,1.184,6.11,1.184a12.29,12.29,0,0,1-2.506-7.913S1294.474,502.395,1291.673,505.5Z"/>
			<path class="ac"
				  d="M1292.239,506.235a9.131,9.131,0,0,0-3.232,2.739c-.829,1.505-1.722,4.765-2.663,4.459,0,0-1.075-5.452,1.846-7.823C1291.287,503.094,1292.239,506.235,1292.239,506.235Z"/>
			<path class="ad"
				  d="M1310.579,571.361c-.514-6.8-1.536-14.552-2.052-19.009-.261-2.259.608-12.377-.059-17.892a12.51,12.51,0,0,0-.405-2.108c-1.265-4.16-6.951-5.289-9.871-5.389l-8.807-.3s-9.1,10.161-10.362,13.283-1.679,13.807-2.663,18.982c-.463,2.439-1.463,7.588-2.07,12.433Z"/>
			<path class="af"
				  d="M1292.339,557.465s3.1,9.5,11.143,13.9h7.1c-.514-6.8-1.536-14.552-2.052-19.009-.261-2.259.608-12.377-.059-17.892-.175.037-.335.136-.518.171C1293.1,537.5,1290.989,554.33,1292.339,557.465Z"/>
			<rect class="ag" width="15.731" height="23.943" transform="translate(1280.389 542.288) rotate(-6.079)"/>
			<path class="ah" d="M1296.031,540.622l1-.08,2.357,23.789-.825.1Z"/>
			<path class="g"
				  d="M1309.222,551.162a166.1,166.1,0,0,1-21.584,4.881s-3.481,1.5-1.847,1.918c.419.1,21.542,4.711,24.674,1.723Z"/>
			<path class="ad"
				  d="M1298.192,526.964s5.8.031,8.281,2.858c4.523,5.16,5.419,27.106,3.992,29.862-.614,1.185-5.323,1.281-7.309-4.458C1302.126,552.249,1297.627,532.375,1298.192,526.964Z"/>
			<path class="g"
				  d="M1288.677,555.889s-1.3-.121-1.543-.535c-.492-.829-1.27-.818-1.919-.928s-1.377-.819-1.506-.676.478.925.817,1.217a2.834,2.834,0,0,1-1.156-.177c-.461-.22-1.865-2.034-2.086-1.27-.581,2.007.023,3.937,1.633,4.093,1.738.169,6.049,1,6.049,1Z"/>
			<path class="o"
				  d="M1329.393,420.852s3.627-3.88,5.985-.837a31.991,31.991,0,0,0,8.591,7.438c3.619,2.34-3.2,20.686-7.731,20.309S1313.209,432.921,1329.393,420.852Z"/>
			<path class="ai" d="M1311.333,419.007c.905-.677,9.242-3.538,17.369-.724s-6.3,10.656-6.3,10.656l-4.674.2Z"/>
			<path class="v"
				  d="M1316.639,413.706a42.872,42.872,0,0,1-.8,7.236l-5.062,10.912,19.056-4.529-4.545-6.279s-1.372-6.7-.652-9.179S1316.639,413.706,1316.639,413.706Z"/>
			<path class="aj" d="M1316.612,414.4s1.506,3.628,4.345,3.548,3.484-3.29,3.484-3.29Z"/>
			<path class="u"
				  d="M1314.917,411.459a45.479,45.479,0,0,0-1.556-5.961c-.639-1.386-1.173-7.569,5.917-7.889,0,0,2.718.32,4.211-.586,0,0,0,.906-.374,1.225a4.713,4.713,0,0,1,4.371,1.546c1.919,2.132-1.279,9.6-1.119,11.354Z"/>
			<path class="v"
				  d="M1320.631,416.542c-2.056-.036-5.842-2.775-5.842-6.166v-5.292a2.112,2.112,0,0,1,1.919-2.251h7.847a2.112,2.112,0,0,1,1.919,2.251v4.993C1326.474,413.633,1322.99,416.584,1320.631,416.542Z"/>
			<path class="u"
				  d="M1314.789,407.91s.011-3.18,2.53-3.669,8.155,1.55,8.954-.769-10.894-2.278-11.484-.8S1314.789,407.91,1314.789,407.91Z"/>
			<path class="ak"
				  d="M1305.09,455.4c1.607-14.207,5.227-33.4,5.227-33.4s.959-.277,2.577-.582c.825-.155,1.82-.317,2.946-.452.014.349.293,5.642,4.687,7.828,0,0,5.277-2.114,4.76-7.742-.006-.067-.014-.13-.023-.194.7.076,1.418.174,2.134.3a30.063,30.063,0,0,1,4.367,1.081s2.958,18.747,4.378,33.168Z"/>
			<path class="ak"
				  d="M1305.27,448.556c-.143.186.819,1.567,2.176,3.344.827,1.081,1.8,2.308,2.762,3.5h-9.626a18.6,18.6,0,0,1-4.194-4.437c6.2-26.215,14.148-28.945,14.148-28.945l2.595,15.8S1305.7,447.987,1305.27,448.556Z"/>
			<path class="aa"
				  d="M1327.4,421.15l-1.6,4.861-2.131,3.129-3.058,1.658-2.878-1.658-4.839-7.728c.825-.155,1.82-.317,2.946-.452.014.349.293,5.642,4.687,7.828,0,0,5.277-2.114,4.76-7.742-.006-.067-.014-.13-.023-.194C1325.968,420.928,1326.682,421.026,1327.4,421.15Z"/>
			<path class="v" d="M1302.954,455.4a14.875,14.875,0,0,0,4.492-3.5c.827,1.082,1.8,2.309,2.762,3.5Z"/>
			<path class="ak"
				  d="M1345.165,450s-1.07,2.029-4.876,5.165c-.094.078-.191.156-.288.235h-9.114c1.108-1.419,2.277-2.941,3.24-4.251,1.323-1.8,2.258-3.2,2.111-3.386-.345-.435-5-6.558-7.078-9.289l-.987-1.3,2.63-15.531S1338.467,423.907,1345.165,450Z"/>
			<path class="v"
				  d="M1340.289,455.164l-.289.235h-9.114c1.108-1.42,2.277-2.942,3.24-4.252A13.686,13.686,0,0,0,1340.289,455.164Z"/>
			<path class="v"
				  d="M1325.264,420.852a42.244,42.244,0,0,0-9.424.108v-.019S1324.562,415.546,1325.264,420.852Z"/>
			<path class="al" d="M1316.516,436.111h-.179l-.132-8.408h.452Z"/>
			<path class="aa"
				  d="M1316.319,435.892c-.163.246-.53,1.059-.287,1.145a1.029,1.029,0,0,0,.785-.024C1316.932,436.9,1316.627,435.428,1316.319,435.892Z"/>
			<path class="al" d="M1324.773,436.111h-.179l-.132-8.408h.452Z"/>
			<path class="aa"
				  d="M1324.576,435.892c-.163.246-.529,1.059-.286,1.145a1.03,1.03,0,0,0,.785-.024C1325.189,436.9,1324.884,435.428,1324.576,435.892Z"/>
			<path class="ai" d="M1317.733,429.14l-7.416-7.146s-1.669-1.185.969-2.957S1317.733,429.14,1317.733,429.14Z"/>
			<path class="ai" d="M1323.669,429.14l7.415-7.146s1.669-1.185-.969-2.957S1323.669,429.14,1323.669,429.14Z"/>
			<path class="am"
				  d="M1336.238,447.762s-6.676-8.76-1.391-11.311c2.1-1.013,5.051,11.009,3.468,12.14s-4.189,2.556-4.189,2.556Z"/>
			<path class="am"
				  d="M1306.038,446.318s2.32-11,.284-9.867-5.051,11.009-3.468,12.14,4.189,2.556,4.189,2.556Z"/>
			<path class="o"
				  d="M1335.3,447.736c-3.049-3.784-4.188-9.93-4.032-16.272a74.314,74.314,0,0,1,.812-9.21l2.5,1.947a17.3,17.3,0,0,0-1.546,7.276,36.153,36.153,0,0,0,2.094,14.841Z"/>
			<path class="an"
				  d="M1070.711,300.827s16.1,7.015,19.022,6.887,20.929-5.484,20.929-5.484l-.459,3.1s-13.9,7.993-18.754,8.446c-4.784.446-21.139-4.292-22.718-5.293S1066.122,301.841,1070.711,300.827Z"/>
			<path class="h"
				  d="M1068.292,275.025s-5.939-1.128-8.9,1.032c-5.358,3.913-5.645,17.4-7.654,19.413s-6.849,1.152-7.28,11.55,1.928,11.267-.881,15.909,1.189,9.286,1.189,9.286-1.638-2.561-.936-4.411c0,0,.681,4.081,3.274,5.038s2.977,1.658,3.391,3.062c0,0,22.122-11.336,22.146-19.376s4.353-16,2.227-19.487a7.692,7.692,0,0,1,1.063,3.147,4.143,4.143,0,0,0-.935-4.718c-2.211-2.276,2.593-6.984,1.881-12.437C1076.392,279.29,1073.765,275.188,1068.292,275.025Z"/>
			<path class="ao"
				  d="M1072.668,308.489a15.509,15.509,0,0,1-5.413,2.3c-8.342,1.928-11.539-5.123-12.74-9.965a7.207,7.207,0,0,1,2.826-.868c.6-.07,1.237-.118,1.763-.143.936-.718,2.332-3.655,2.641-8.215l.393.1,6.574,1.8s-.3,2.089-.448,4.065c-.115,1.546-.132,3.024.16,3.385.514.111.822.184.822.184l0,.005A42.265,42.265,0,0,1,1072.668,308.489Z"/>
			<path class="an" d="M1068.713,293.508s-.3,2.088-.449,4.065c-3.725-.372-5.454-3.919-6.127-5.865Z"/>
			<path class="ao"
				  d="M1069.825,295.47s-8.842-.488-8.453-5.99-.491-9.27,5.17-9.191,6.61,2.255,6.926,4.124S1072.135,295.454,1069.825,295.47Z"/>
			<path class="h"
				  d="M1073.425,281.336c-1.246-1.754-2.3-1.464-2.918-1.008a6.188,6.188,0,0,0-8.028.7,10.542,10.542,0,0,1-3.882,5.963s1.538,1.108,5.317.421a6.327,6.327,0,0,0,3.155-1.859,20.613,20.613,0,0,1-3.857,4.076c4.58-1.731,6.8-7.767,7.026-8.407a6.935,6.935,0,0,1,1.742,2.705c.339,1.432,1.805,3.672,2.653,3.634C1074.633,287.561,1075.294,283.964,1073.425,281.336Z"/>
			<path class="ap"
				  d="M1052,326.465c-.8-4.082-3.4-20.389-.8-25.638.935-1.884,4.6-2.054,8.629-1.889,1.253.809,6.026,3.864,7.986,3.483l.109-.025c.924-.232,1.272-.88.5-1.439a17.5,17.5,0,0,1,4.47.274,33.059,33.059,0,0,1,5.17,2.214s-1.9,3.432-4.7,4.617c.476,4.26-.232,6.139-4.652,15.979a18.7,18.7,0,0,0,.5,15.806s-21.985,17.677-22.107,8.677C1047.017,341.748,1053.017,331.682,1052,326.465Z"/>
			<path class="aq"
				  d="M1070.306,359.069a4.089,4.089,0,0,0,2.94-1.79c.107-.159.22-.331.34-.512,2.5-3.788,3.477-15.391,9.106-27.751,1.371-3.009,6.292-3.55,7.634-6.952,0,0,3.3-11.025-6.322-11.351s-25.778,30.678-26.033,33.93C1057.724,347.792,1051.607,361.178,1070.306,359.069Z"/>
			<path class="h"
				  d="M1108.562,358.814h-13.7a5.689,5.689,0,0,1,.388-3.671,2.641,2.641,0,0,0-.1-3.154,5.317,5.317,0,0,0,2.307.435,4.823,4.823,0,0,0,2.037-.717,49.213,49.213,0,0,0,3.9,4.1C1104.294,356.451,1108.286,356.222,1108.562,358.814Z"/>
			<path class="ar"
				  d="M1090.639,313.9c.825,6.185,4.047,25.7,9.729,35.227,1.832,3.071-4.616,4.792-4.65,4.782a10.946,10.946,0,0,1-2.97-2.2c-4.613-4.158-13.978-15.931-13.978-25.37,0-4.6-.082-13.393,3.265-15.625C1084.1,309.336,1090.312,311.444,1090.639,313.9Z"/>
			<path class="as"
				  d="M1062.137,358.814s.507-.706,1.393-2.047c1.053-1.6,2.219-4.737,3.634-8.763,1.485-4.225,3.248-9.425,5.452-14.833.679-1.671,1.4-3.361,2.169-5.047,1.371-3.011,5.143-2.594,6.485-6,0,0,5.236-11.792-4.39-12.116s-27.915,31.545-28.965,34.632C1046.764,348.021,1041.15,362.052,1062.137,358.814Z"/>
			<path class="at"
				  d="M1098.506,358.814h-13.7a5.693,5.693,0,0,1,.387-3.671,2.641,2.641,0,0,0-.1-3.154,5.321,5.321,0,0,0,2.308.435,4.832,4.832,0,0,0,2.037-.717,49.22,49.22,0,0,0,3.9,4.1C1094.238,356.451,1098.229,356.222,1098.506,358.814Z"/>
			<path class="ar"
				  d="M1067.164,348c1.485-4.225,3.248-9.425,5.452-14.833-.576-4.1-1.817-7.685-3.9-9.13C1068.712,324.041,1063.65,339.725,1067.164,348Z"/>
			<path class="as"
				  d="M1082.642,313.463c.825,6.184,1.987,26.143,7.67,35.665,1.832,3.071-4.616,4.792-4.651,4.782a10.942,10.942,0,0,1-2.969-2.2c-4.614-4.158-13.979-15.931-13.979-25.37,0-4.6,5.4-13.023,8.747-15.257A3.366,3.366,0,0,1,1082.642,313.463Z"/>
			<path class="au" d="M1112.38,295.749l-2.84-5.125-6.144,17.147,3.624,3.891Z"/>
			<path class="n" d="M1097.55,298.751l-5.712,16.317,15.182-3.406,5.359-15.912Z"/>
			<path class="av" d="M1092.141,314.244l-.266-.465,5.4-15.442.271.413Z"/>
			<path class="aw" d="M1097.279,298.338l14.393-2.8.707.212-14.829,3Z"/>
			<path class="av" d="M1112.38,295.749l-3.071-4.875-1.959,5.5,4.322-.842Z"/>
			<path class="ao"
				  d="M1101.933,301.114c-.493-.1-1.553-.494-2.625-.79a2.2,2.2,0,0,0,.776-.866c.191-.605.319-.8-.319-.609s-2.869,1.216-2.869,1.216l.005,0a5.911,5.911,0,0,0-2.435,2.163s-15.7,5.517-17.586,5.612c-2.921.146-22.365-7.015-22.365-7.015-4.589,1.014-3.56,6.653-1.981,7.653s15.571,6.09,23.863,6.186c4.2.049,19.478-9.77,19.478-9.77a6.489,6.489,0,0,1,3.189-.561c1.4.254,4.655,0,5.357-1.148S1102.763,301.273,1101.933,301.114Z"/>
			<path class="ap"
				  d="M1064.533,304.359a10.688,10.688,0,0,1-7.712,6.759s-9.863-3.04-4.952-9.758C1051.869,301.36,1056.724,297.752,1064.533,304.359Z"/>
			<path class="ao"
				  d="M1112.125,301.529h0a1.487,1.487,0,0,0-.052-.447s-1.408-2.226-1.869-2.317c-1.4-.277-1.4,1.571-1.1,2.764a4.832,4.832,0,0,0,1.16,2.057h0l-.056,1.741A3.722,3.722,0,0,0,1112.125,301.529Z"/>
			<path class="as" d="M623.488,472.078s-1.618,7.018-6.333,7.018c-4.043,0-9.586-9.137-9.586-9.137Z"/>
			<path class="at"
				  d="M602.967,502.265c1.17-3.625,2.218-6.855,2.965-9.127l-17.887-6.472s-1.856,4.233-4.569,15.6Z"/>
			<path class="h"
				  d="M602.967,502.265c1.17-3.625,2.218-6.855,2.965-9.127l-17.887-6.472s-1.856,4.233-4.569,15.6Z"/>
			<path class="ax"
				  d="M597.663,418.812c-.006-.391-.206-4.613-6.621-4.988,0,0,3.147.452,3.66,1.853,0,0-2.108-1.766-3.871-1.257s-2.866,3.551-2.9,4.56.861,4.284,1.963,4.587a3.385,3.385,0,0,0,1.347.034,15.012,15.012,0,0,0-.9,1.519c-2.689,5.2-.37,11.319,1.813,10.8,1.4-.33,2.251,2.1,2.251,2.1l13.461-11.575S603.148,416.053,597.663,418.812Z"/>
			<path class="ao"
				  d="M606.124,453.987a16.323,16.323,0,0,1-5.712,2.432c-8.808,2.034-12.182-5.408-13.449-10.519a7.58,7.58,0,0,1,2.983-.915c.636-.076,1.307-.126,1.861-.153.988-.756,2.463-3.857,2.787-8.67l.415.111,6.94,1.9s-.317,2.206-.473,4.292c-.12,1.631-.139,3.19.17,3.573.542.117.866.194.866.194l0,.006A44.608,44.608,0,0,1,606.124,453.987Z"/>
			<path class="an" d="M601.949,438.174s-.318,2.2-.473,4.291c-3.931-.393-5.757-4.137-6.467-6.19Z"/>
			<path class="ao"
				  d="M602.03,441.486s-9.053-2.327-7.516-7.943,1.4-9.7,7.245-8.45,6.377,3.7,6.321,5.7S604.424,441.945,602.03,441.486Z"/>
			<path class="ax"
				  d="M608.67,427.594c-.93-2.071-2.084-1.99-2.813-1.644a6.534,6.534,0,0,0-8.457-.929,11.113,11.113,0,0,1-5.247,5.372s1.364,1.466,5.419,1.532a6.667,6.667,0,0,0,3.648-1.274,21.806,21.806,0,0,1-4.832,3.426c5.1-.849,8.642-6.641,9.006-7.257a7.336,7.336,0,0,1,1.245,3.159c.056,1.553-.549,4.551.336,4.687C606.975,434.666,610.062,430.7,608.67,427.594Z"/>
			<path class="ao"
				  d="M604.634,445.763s-15.2-3.691-21.815,1.762l3.3,46.079,29.736-7.185s-.836-2.914-6.538-10.667S606.1,456.625,604.634,445.763Z"/>
			<path class="at"
				  d="M595.771,488.474s.017.156.048.455c.014.126.031.283.05.463.128,1.194.37,3.485.682,6.464.2,1.894.423,4.065.663,6.409h20.258a66.823,66.823,0,0,0-.674-11.76,27.422,27.422,0,0,0-.893-3.944,8.469,8.469,0,0,0-.359-.969A24.6,24.6,0,0,0,595.771,488.474Z"/>
			<path class="as"
				  d="M580.769,460.668c.734,5.543,3.671,12.327,4.719,15.978,0,0-1.753,12.677-.079,16.157a1.549,1.549,0,0,0,.713.8c6.2,2.7,30.347.079,31.366-7.71.37-2.83-9.2-12.786-9.755-13.994-.231-.5-.477-2.12.645-5.477,1.59,4.9,10.366,3.492,10.366,3.492-1.03-1.761-3.6-13.955-6.462-19.459-2.154-4.137-7.906-4.736-7.906-4.736s-2.394,3.8-8.183,3.257-6.849-4.082-6.849-4.082-5.134.682-6.717,1.959C582.352,447.074,579.807,453.4,580.769,460.668Z"/>
			<path class="ar"
				  d="M585.488,476.646s-1.753,12.677-.079,16.157c4.516-2.267,8.077-8.4,7.256-15.235-.608-5.05-1.512-6.2-4.213-9.093-1.987-2.123-6.577-2.243-6.216-1.233C583.306,470.251,584.934,474.717,585.488,476.646Z"/>
			<path class="n" d="M604.346,461.656l-10.354,16.609h17.616l9.865-16.25Z"/>
			<path class="av" d="M594.531,477.431l-.179-.579,9.8-15.719.2.524Z"/>
			<path class="aw" d="M604.148,461.132l16.6.472.729.41-17.127-.358Z"/>
			<path class="au" d="M621.473,462.014l9.31-5.039L619.93,474.017l-8.322,4.247Z"/>
			<path class="ao"
				  d="M572.206,473.654c1,.456,3.556,3.47,4.47,3.777,4.108,1.374,21.591-2.283,21.591-2.283l-.542-3.062s-17.158.455-19.045-.05c-.355-.1-2.209-2.994-2.923-3.411Z"/>
			<path class="ao"
				  d="M597.725,472.085s2.068-1.683,3.466-1.3,3.456,2.149,4.22,2.567,2.839,1.916,1.787,2.822-4.326.127-5.624-.566a6.7,6.7,0,0,0-3.309-.458Z"/>
			<path class="ao"
				  d="M600.795,470.727s2.514-.3,3.2-.286.5.165.12.7-1.687.737-1.747.924S600.795,470.727,600.795,470.727Z"/>
			<path class="as"
				  d="M589.344,444.894s-7.458.885-9.512,4.082c-2.595,4.045-8.722,20.148-8.525,24.206,0,0,4.481,7.625,19.841,6.4,0,0,1.6-5.646-1.633-7.508,0,0-7.89-1.4-8.8-2.205l6.432-11.689Z"/>
			<path class="ao"
				  d="M619.087,468.086c.231-.94,2.279-.353,2.971.189a2.8,2.8,0,0,1,.525.615c.022-.155.041-.306.051-.423.038-.443.552-1.233.679-.642s.338,3.079.338,3.079c.026,2-1.262,2.831-2.089,2.179S618.857,469.026,619.087,468.086Z"/>
			<rect class="ay" width="4.154" height="2.654" transform="translate(1159.489 468.353)"/>
			<rect class="az" width="82.145" height="2.654" transform="translate(1163.643 468.353)"/>
			<path class="ba"
				  d="M1153.593,492.257v-3.77a4.755,4.755,0,0,1,4.741-4.739h53.27a4.755,4.755,0,0,1,4.745,4.739v3.77Z"/>
			<path class="bb"
				  d="M3.016,0h59.15a3.015,3.015,0,0,1,3.015,3.015V53.589a3.016,3.016,0,0,1-3.016,3.016H3.015A3.015,3.015,0,0,1,0,53.59V3.016A3.016,3.016,0,0,1,3.016,0Z"
				  transform="translate(1154.057 431.337)"/>
			<path class="bc"
				  d="M1168.455,467.9a50.218,50.218,0,0,0-3.768,13.994h46.45s-4.258-13.6-8.072-15.11S1168.455,467.9,1168.455,467.9Z"/>
			<path class="bd"
				  d="M1177.813,398.483s-3.115-6.6-5.008-11.787c-2.262-6.186,1.352-14.717,13.891-14.222,0,0,4.08-.065,5.394-.881,0,0-.341,1.433-.765,1.747,0,0,9.947.637,9.8,5.083-.449,13.607-3.88,17.938-3.88,17.938Z"/>
			<path class="ao"
				  d="M1207.835,465.75c-1.634-9.02-6.409-19.289-6.409-19.289,3.464-14.379-.074-30.547-.074-30.547a40.926,40.926,0,0,0-5.81-1.1c-.246-1.283-.944-5.142-1.24-8.465-.033-.387-.062-.765-.087-1.131a18.246,18.246,0,0,1-.013-2.511l-2.441.159-10.052.663-.428.028s.062.891.079,2.238a32.011,32.011,0,0,1-.965,9.061c-4.321.443-7.253,1.068-7.253,1.068-2.828.478-2.237,17.922,3.057,31.481,2.433,6.24-4.446,15.9-4.446,18.345S1208.426,469.008,1207.835,465.75Z"/>
			<path class="w"
				  d="M1194.3,406.349c-.944,1.1-3.327,3.462-6.358,3.515-3.947.07-6.584-4.069-6.584-4.069a16.647,16.647,0,0,1,.349-2.266l12.007-1.816c.474.3.391,2.393.5,3.5C1194.24,405.584,1194.269,405.962,1194.3,406.349Z"/>
			<path class="ao"
				  d="M1187.765,406.567h0a9.974,9.974,0,0,1-9.952-9.94l-.005-8.287a6.718,6.718,0,0,1,6.7-6.7l6.03,0a6.719,6.719,0,0,1,6.7,6.7l.005,8.748A9.511,9.511,0,0,1,1187.765,406.567Z"/>
			<path class="be"
				  d="M1221.618,459.058l-8.763-4.376-2.637-1.321c-.782-1.773-3.419-7.323-5.053-10.5.366,1.59.728,3.218,1.073,4.841.133.6.258,1.2.383,1.8,1.8,8.587,3.16,16.664,2.948,18.395-.482,3.939-15.874,2.163-19.841,1.216s-12.988,1.222-20.2,1.081c-4.15-.074-2.878-11.634-1.048-21.424.433-2.349.907-4.6,1.339-6.56-2.329,4.64-4.741,9.54-5.3,11.084l-4.97,2.614-5.494,2.891-.141.074a.2.2,0,0,1-.025-.073h0c-.333-1.787,5.431-34.995,13.058-40.69a8.208,8.208,0,0,1,.707-.544,14.686,14.686,0,0,1,10.281-2.423s2.508,4.46,9.748,4.8a13.74,13.74,0,0,0,11.092-4.629,19.208,19.208,0,0,1,6.3,1.315,6.625,6.625,0,0,1,2.192,1.482C1209.665,420.719,1221.372,443.092,1221.618,459.058Z"/>
			<path class="bf"
				  d="M1209.569,467.9c-.482,3.939-15.874,2.163-19.841,1.216s-12.988,1.22-20.2,1.083c-4.15-.078-2.878-11.636-1.048-21.426,0,0,7.819,13.693,17.571,13.6s20.574-12.867,20.574-12.867C1208.417,458.091,1209.781,466.169,1209.569,467.9Z"/>
			<path class="bg" d="M1210.6,452.959s-12.423,13.279-18.478,17.748l1.93,3.968s19.2-7.264,27.3-17.459Z"/>
			<path class="bg" d="M1193.683,469.775s-5.111,1.431-5.943,3.02-.483,6.129.807,5.374,8.4-5.428,8.4-5.428Z"/>
			<path class="bh"
				  d="M1180.982,412.24s3.389,6.662,6.695,7.7c0,0-4.7,1.777-11.549-4.932A5.613,5.613,0,0,1,1180.982,412.24Z"/>
			<path class="bh"
				  d="M1195.226,412.24s-4.247,6.662-7.549,7.7c0,0,5.548,1.777,12.4-4.932A5.617,5.617,0,0,0,1195.226,412.24Z"/>
			<path class="ao" d="M1164.55,452.959s12.934,12.785,19.156,17.016l-1.776,4.04s-18.345-6.236-26.837-16.107Z"/>
			<path class="ao" d="M1179.077,468.848s5.3.362,6.438,1.747,1.717,5.9.3,5.427-9.328-3.605-9.328-3.605Z"/>
			<path class="m" d="M1185.882,450.627a1.371,1.371,0,1,1,1.371,1.371A1.369,1.369,0,0,1,1185.882,450.627Z"/>
			<path class="bd"
				  d="M1198.22,379.157c-.25-.168-17.646-2.583-17.646-2.583l-4.932,3.515-.749,4.954,2.915,3.3s.932-3.194,3.107-3.3,9.366,4.155,11.458,2.23,3.543-2.608,4.445-1.263S1198.469,379.324,1198.22,379.157Z"/>
			<path class="at"
				  d="M1166.183,492.257a40.2,40.2,0,0,1,.1-6.374c1.28-9.148,5.439-14.433,10.692-13.992s10.168,4.08,10.534,8.493c.095,1.145.187,5.724.272,11.873Z"/>
			<path class="at"
				  d="M1187.89,492.257c.035-3.267.073-6.089.116-8.185.037-1.837.075-3.12.116-3.653.354-4.415,5.253-8.072,10.506-8.53s9.428,4.814,10.737,13.96a40.545,40.545,0,0,1,.119,6.408Z"/>
			<path class="be"
				  d="M1171.753,435.3l-1.938,6.912c-2.329,4.64-4.741,9.54-5.3,11.084l-4.97,2.614-5.494,2.891h-.166c-.333-1.787,5.431-34.995,13.058-40.69a8.208,8.208,0,0,1,.707-.544C1170.106,422.208,1174.631,431.859,1171.753,435.3Z"/>
			<path class="e"
				  d="M1168.455,455.832,1166,457.973l-6.333,5.514c-3.5-.273-6.03-4.427-6.03-4.427a13.3,13.3,0,0,1,5-4.448,23.159,23.159,0,0,1,6.285-2.283Z"/>
			<path class="be"
				  d="M1221.618,459.058l-5.12-2.559-3.643-1.817-2.637-1.321c-.782-1.773-3.419-7.323-5.053-10.5.366,1.59.728,3.218,1.073,4.841l-3.8-14.08c-1.693-2.488,1.876-14.549,2.624-16.992a6.625,6.625,0,0,1,2.192,1.482,45.223,45.223,0,0,1,4.545,7.84h.005v.01C1216.036,434.525,1221.451,448.257,1221.618,459.058Z"/>
			<path class="e"
				  d="M1221.613,459.06s-2.528,4.154-6.03,4.427l-7.2-6.271-1.589-1.384,3-3.4a24.91,24.91,0,0,1,4.849,1.4C1217.142,454.831,1220,456.47,1221.613,459.06Z"/>
			<path class="bi"
				  d="M1187.89,492.257c.035-3.267.073-6.089.116-8.185.3-1.3.474-2.069.495-2.169a90.817,90.817,0,0,0,.016,10.354Z"/>
			<rect class="bj" width="119.855" height="9.048" transform="translate(1125.933 447.358)"/>
			<rect class="bj" width="119.855" height="21.465" transform="translate(1125.933 470.793)"/>
			<path class="aw"
				  d="M1183.657,442.381H1165.49v-6.414h18.222a2.561,2.561,0,0,1,2.564,2.564v1.227A2.62,2.62,0,0,1,1183.657,442.381Z"/>
			<path class="bk"
				  d="M1201.783,438.605v.964a2.813,2.813,0,0,1-2.808,2.812h-34.04a.409.409,0,0,1-.41-.407v-.145a.409.409,0,0,1,.41-.407h20.753a3.115,3.115,0,0,0,.288-.437,2.6,2.6,0,0,0,.3-1.227v-1.227a2.549,2.549,0,0,0-.083-.653,2.471,2.471,0,0,0-.477-.952h-20.781a.409.409,0,0,1-.41-.407v-.145a.407.407,0,0,1,.41-.407h34.212a2.625,2.625,0,0,1,2.636,2.638Z"/>
			<path class="bl"
				  d="M1201.684,437.878h-15.491a2.471,2.471,0,0,0-.477-.952h-20.781a.409.409,0,0,1-.41-.407v-.145a.407.407,0,0,1,.41-.407h34.212A2.639,2.639,0,0,1,1201.684,437.878Z"/>
			<path class="bm" d="M1165.49,439.172l2.52.109-2.52.064Z"/>
			<path class="bm" d="M1165.49,440.181l5.994.107-5.994.066Z"/>
			<path class="at"
				  d="M1169.825,447.358h19.337v-4.99h-19.5a2.416,2.416,0,0,0-2.414,2.417A2.572,2.572,0,0,0,1169.825,447.358Z"/>
			<path class="aw"
				  d="M1188.047,447.358h22.012v-4.99H1188a2.457,2.457,0,0,0-2.459,2.456v.02A2.513,2.513,0,0,0,1188.047,447.358Z"/>
			<path class="at" d="M1184.067,447.358h26.752a.373.373,0,1,0,0-.745h-26.752a.372.372,0,0,0,0,.745Z"/>
			<path class="at" d="M1184.067,443.114h26.752a.373.373,0,1,0,0-.746h-26.752a.373.373,0,0,0,0,.746Z"/>
			<path class="bm" d="M1210.059,444.862l-2.975.084,2.975.051Z"/>
			<path class="bm" d="M1210.059,443.714l-7.076.084,7.076.05Z"/>
			<path class="bk"
				  d="M1203.06,443.78a1.182,1.182,0,0,1,.4.568.774.774,0,0,1,.033.2c.017.468,0,1.526,0,1.526l.894-.529.893.529v-1.435a1.162,1.162,0,0,0-.216-.71.351.351,0,0,0-.25-.148Z"/>
			<path class="bn" d="M1203.06,443.78a1.182,1.182,0,0,1,.4.568l1.793.023s-.067-.506-.439-.591Z"/>
			<path class="aw"
				  d="M1185.8,435.979h19.759v-7.33h-19.82a2.863,2.863,0,0,0-2.864,2.862v1.537A2.929,2.929,0,0,0,1185.8,435.979Z"/>
			<path class="bo"
				  d="M1183.335,431.491v1.58a1.838,1.838,0,0,0,1.837,1.812h21.457a.455.455,0,0,1,.455.455v.186a.455.455,0,0,1-.455.455h-37.065a3.135,3.135,0,0,1-3.136-3.139V431.6a2.9,2.9,0,0,1,.289-1.282,2.95,2.95,0,0,1,2.659-1.664h37.253a.454.454,0,0,1,.455.453v.186a.456.456,0,0,1-.455.455h-21.518a1.792,1.792,0,0,0-1.31.57A1.753,1.753,0,0,0,1183.335,431.491Z"/>
			<path class="bm" d="M1205.558,432.313l-2.753.124,2.753.075Z"/>
			<path class="bm" d="M1205.558,430.625l-6.544.125,6.544.074Z"/>
			<path class="as"
				  d="M1199.081,430.725a1.34,1.34,0,0,1,.571.613.685.685,0,0,1,.05.217c.022.506,0,1.656,0,1.656l1.271-.575,1.277.575v-1.557a1.037,1.037,0,0,0-.317-.769.515.515,0,0,0-.349-.16Z"/>
			<path class="ar" d="M1199.081,430.725a1.34,1.34,0,0,1,.571.613l2.559.023a.813.813,0,0,0-.627-.636Z"/>
			<path class="at"
				  d="M876.191,427.386c3.24-1.02,12.449.383,21.7,2.262l1.963-3.184,20.018-1.422a55.542,55.542,0,0,1,3.269,10.717l-16.731,8.092-38.1-8.092C871.5,431.232,874.328,427.972,876.191,427.386Z"/>
			<path class="ac"
				  d="M900.166,398.912c7.1,3.973,21.491,12.206,21.569,12.155,0,0,5.3,2.04,8.326.06,5.045-3.3,7.8-12.26-1.33-20.051-4.555-3.886-7.8-4.847-8.252-11-.247-3.339-4.732-14.388-12.322-13.422a11.491,11.491,0,0,1-1.911.111,7.106,7.106,0,0,0-3.852.967C898.085,370.252,889.494,397.319,900.166,398.912Z"/>
			<path class="bp"
				  d="M906.161,395.615c-.033.021,3.5,1.253,5.87.221,2.232-.967,3.94-4.615,3.907-4.617-1.013-.054-2.117-.947-2.927-6.759l-.435.152-7.262,2.555s.5,2.33.829,4.545C906.415,393.572,906.559,395.355,906.161,395.615Z"/>
			<path class="g" d="M905.314,387.167s.306,1.633.737,3.966c4.168-.721,5.921-4.274,6.525-6.521Z"/>
			<path class="bp"
				  d="M904.217,389.469s9.924-1.262,9.04-7.428-.191-10.485-6.562-9.94-7.265,3.072-7.475,5.2S901.613,389.637,904.217,389.469Z"/>
			<path class="ac"
				  d="M899.606,373.929s6.308,5.513,10.621,5.984,5.958-.9,5.958-.9a16.9,16.9,0,0,1-4.036-5.55,3.031,3.031,0,0,0-2.489-1.806C906.577,371.366,900.737,371.2,899.606,373.929Z"/>
			<path class="ac"
				  d="M903.58,373.467a15.584,15.584,0,0,0-2.818,3.556,11.993,11.993,0,0,0-.371,6.376s-3.263-6.455-1.366-9.567C901.031,370.532,903.58,373.467,903.58,373.467Z"/>
			<path class="ap"
				  d="M897.71,410.159c.158,20.069-.03,15.876,2.15,17.8.527.463,2.011.746,3.97.888,6.15.453,16.973-.484,17.393-1.619,1.447-3.925.453-5.154,1.679-11.17.129-.64.287-1.332.471-2.085,1.017-4.131,1.989-5.533-1.469-12.2-3.134-6.044-6.4-10.953-6.7-10.779-8.414,4.915-9.062.729-9.062.729S897.632,400.371,897.71,410.159Z"/>
			<path class="ap"
				  d="M906.143,391.712s-8.632,1.4-9.67,5.107-7.152,25.492-7.152,25.492,4.375.819,6.415-1.192,7.181-18.741,7.181-18.741Z"/>
			<path class="bq"
				  d="M903.83,428.842c6.15.453,16.973-.484,17.393-1.619,1.447-3.925.453-5.154,1.679-11.17l-2.909-8.379s.427,9.311-2.335,11.74-11.272,4.646-12.62,6.681A7.389,7.389,0,0,0,903.83,428.842Z"/>
			<path class="bp"
				  d="M910.908,424.978s-6.062-1.394-7.045-.863a14.212,14.212,0,0,0-3.7,3.159c-.306.68,2.184-.5,2.994-.714a7.174,7.174,0,0,1,2.574.583,8.572,8.572,0,0,0,4.618.5Z"/>
			<path class="ap"
				  d="M915.213,390.98s8.146.56,10.941,4.515c3.932,5.568,11.647,29.235,7.107,32.352-5.108,3.511-23.152.764-23.152.764s-.582-2.812.265-4.167,14.45-3.452,15.083-4.075-7.755-12.285-7.74-14.165S915.213,390.98,915.213,390.98Z"/>
			<path class="bp" d="M903.558,425.8a11.912,11.912,0,0,1-1.7,1.825,1.248,1.248,0,0,1-.688.141l.869-1.536Z"/>
			<path class="bp" d="M903.863,424.115l-3.712,1.771a.655.655,0,0,0,.611.24,8.821,8.821,0,0,0,1.606-.429Z"/>
			<path class="as" d="M902.644,430.276l-29.253-.206-8.645-21.945,29.207.206Z"/>
			<path class="ar" d="M873.054,429.215l38.631.272-.007.853-38.286-.27Z"/>
			<path class="e"
				  d="M880.855,419.181a1.012,1.012,0,0,1,1-1.386,2,2,0,0,1,1.782,1.4,1.014,1.014,0,0,1-1,1.386A1.994,1.994,0,0,1,880.855,419.181Z"/>
			<path class="br"
				  d="M681.115,517.6c-8.717-4.63-18.878-.482-19.638,11.681s7.822,16.451,16.064,15.645S693.887,522.706,681.115,517.6Z"/>
			<path class="br" d="M666.73,537.5a4.144,4.144,0,1,1-4.144-4.143A4.144,4.144,0,0,1,666.73,537.5Z"/>
			<path class="br" d="M670.87,541.418a4.143,4.143,0,1,1-4.143-4.144A4.142,4.142,0,0,1,670.87,541.418Z"/>
			<path class="br" d="M676.3,544.394a4.143,4.143,0,1,1-4.143-4.143A4.144,4.144,0,0,1,676.3,544.394Z"/>
			<path class="br" d="M664.915,530.668a4.144,4.144,0,1,1-4.144-4.144A4.143,4.143,0,0,1,664.915,530.668Z"/>
			<path class="br" d="M666.338,523.551a4.143,4.143,0,1,1-4.144-4.144A4.143,4.143,0,0,1,666.338,523.551Z"/>
			<path class="br" d="M671.126,519.021a4.143,4.143,0,1,1-4.143-4.143A4.143,4.143,0,0,1,671.126,519.021Z"/>
			<path class="br" d="M677.467,517.139A4.143,4.143,0,1,1,673.324,513,4.143,4.143,0,0,1,677.467,517.139Z"/>
			<path class="br" d="M684.067,517.657a4.144,4.144,0,1,1-4.144-4.144A4.143,4.143,0,0,1,684.067,517.657Z"/>
			<path class="br" d="M688.984,522.833a4.143,4.143,0,1,1-4.143-4.144A4.143,4.143,0,0,1,688.984,522.833Z"/>
			<path class="br" d="M688.855,536.033a4.144,4.144,0,1,1-4.144-4.144A4.143,4.143,0,0,1,688.855,536.033Z"/>
			<path class="br" d="M684.714,542.244a4.143,4.143,0,1,1-4.144-4.143A4.145,4.145,0,0,1,684.714,542.244Z"/>
			<path class="br" d="M690.537,529.044a4.143,4.143,0,1,1-4.143-4.143A4.143,4.143,0,0,1,690.537,529.044Z"/>
			<path class="br" d="M679.02,543.8a4.144,4.144,0,1,1-4.143-4.144A4.144,4.144,0,0,1,679.02,543.8Z"/>
			<path class="bs" d="M685.8,554.9l11.054-.38a31.992,31.992,0,0,1-8.914,9.118Z"/>
			<path class="bt"
				  d="M680.158,553.543c-16.217.756-1.959,14.337-1.959,14.337l1.26-.179a31.918,31.918,0,0,0,18.494-15.028C692.085,552.755,683.375,553.393,680.158,553.543Z"/>
			<path class="bt"
				  d="M667.622,550.948s-6.97-.124-10.675,3.923c-1.245,1.36-.995,5.829-.089,11.355a31.874,31.874,0,0,0,28.622-1.086c-1.848-5.069-4.043-10.4-4.819-11.248C679.313,552.419,667.622,550.948,667.622,550.948Z"/>
			<path class="bu"
				  d="M670.738,538.406s-.048.277-.135.747c-.417,2.256-2.026,9.742-3.112,11.8-1.312,2.486,4.494,10.419,10.083,9.45,1.664-.288-1.406-7.287-1.258-8.03.282-1.418.665-3.355,1.057-5.34.22-1.12.445-2.256.655-3.323l1.085-5.514Z"/>
			<path class="bv"
				  d="M670.6,539.153c.087-.47.135-.747.135-.747l8.375-.209-1.085,5.514c-.209,1.061-.432,2.19-.652,3.3a7.838,7.838,0,0,1-4-2.009,10.58,10.58,0,0,1-3.029-4.515C670.452,539.96,670.538,539.5,670.6,539.153Z"/>
			<path class="bu"
				  d="M676.375,519.328a7.539,7.539,0,0,0-6.421,2.75c-2.475,3.207-5.141,13.126,1.005,18.518s12.22-.711,13.12-7.183S685.329,519.094,676.375,519.328Z"/>
			<path class="bu"
				  d="M685.9,533.317c-.733,1.43-1.965,2.222-2.75,1.768s-.828-1.979-.094-3.408,1.965-2.221,2.751-1.768S686.631,531.888,685.9,533.317Z"/>
			<path class="br"
				  d="M676.817,518.267s-5.274,9.432-9.046,9.868-4.268,5.448-4.268,5.448,1.349-11.549,5.083-13.776A13.849,13.849,0,0,1,676.817,518.267Z"/>
			<path class="bu"
				  d="M668.76,530.505c.307,1.675-.311,3.212-1.378,3.431s-2.182-.959-2.49-2.635.311-3.211,1.379-3.43S668.453,528.83,668.76,530.505Z"/>
			<path class="bt"
				  d="M654.086,564.787c-.85-4.417.556-9.4,4.013-10.93,3.517-1.555,14.877,8.437,20.816,14.006a31.909,31.909,0,0,1-24.829-3.076Z"/>
			<rect class="bw" width="23.334" height="0.233" transform="translate(645.883 358.602)"/>
			<rect class="bx" width="5.466" height="0.625" transform="translate(665.565 358.21)"/>
			<rect class="by" width="0.426" height="17.503" transform="translate(670.605 341.332)"/>
			<path class="bz"
				  d="M620.265,338.331s-.983,13.783,1.711,15.434c1.613.987,7.831,4.217,8.2,5.07H618.151c-2.635-2.078-4.925-4.169-5.1-5.273-.406-2.619.637-20.182,2.412-20.99,1.331-.607,2.033-.1,3.709,1.14C621.528,335.459,620.265,338.331,620.265,338.331Z"/>
			<path class="ca" d="M643.814,342.267l1.139-.423s-1.42-3.333-2.04-3.251a15.7,15.7,0,0,0-1.605.328Z"/>
			<path class="cb" d="M644.075,342.842c-.146-.109-2.421-4.474-2.421-4.474l-4.861.661,2.626,5.171Z"/>
			<path class="cc"
				  d="M629.3,309.583s5.89-1.629,8.137,2.943,1.229,13.241-1.74,14.056-7.238-.122-8.47-2.968-2.215-6.891-1.92-9.509S627.741,310.208,629.3,309.583Z"/>
			<path class="cc"
				  d="M634.163,325.67s-.065,3.478.319,4.219-8.2.555-8.2.555a17.409,17.409,0,0,0,.586-7.732C626.1,319.19,634.163,325.67,634.163,325.67Z"/>
			<path class="cd"
				  d="M626.4,321.395s.459.933,2.681.782,5.153-2.832,6.1-3.07,1-.778,1-.778l.5.888.967.146s-.657-2.685.774-3.632-.645-8.566-7.891-6.728c0,0-5.53,1.012-5.6,4.1S625.329,319.758,626.4,321.395Z"/>
			<path class="ce"
				  d="M634.933,329.8s-.024-1.417-.666-1.552-6.749-.975-7.537-.667l-.338,1.87S627.911,330.386,634.933,329.8Z"/>
			<path class="cc"
				  d="M636.7,317.7c-.165-1.16-1.485-2.494-2.241-.685s.511,4.441,1.358,4.3S636.924,319.271,636.7,317.7Z"/>
			<path class="cf" d="M660.51,346.534H660.5C660.543,346.553,660.55,346.556,660.51,346.534Z"/>
			<path class="cd" d="M627.587,310.411s-7.182-.338-1.254,10.873Z"/>
			<path class="bh" d="M671.031,350.319H649.855a2.7,2.7,0,0,1-2.7-2.7V315.6a2.7,2.7,0,0,1,2.7-2.7h21.176Z"/>
			<rect class="cg" width="21.796" height="29.528" transform="translate(649.234 314.926)"/>
			<path class="ch" d="M671.031,358.27a4.577,4.577,0,0,0-.216.565h.216Z"/>
			<path class="cc"
				  d="M670.531,355.867s.211-.017.5-.055v3.023h-1.905C669.4,358.076,670.531,355.867,670.531,355.867Z"/>
			<path class="bz"
				  d="M644.346,331.763c-4.586-.806-9.413-1.963-9.413-1.963l-8.541-.348s-7.839,1.726-10.926,3.12c-.293.131-.294,6.993-1.1,8.792l2.559,5.4s.953,6.893,1.487,12.073h24.3c-.146-1.277-.242-2.129-.263-2.341-.2-1.983.572-11.146.572-11.146,1.1,1.474,3.9,8.137,6.817,11.307.842.915,3.317,1.656,5.809,2.18h15.386v-4.516c-2.78-.245-11.787-.941-14.375-2.314-1.107-.588-4.418-7.8-4.418-7.8S646.876,332.9,644.346,331.763Z"/>
			<path class="ci"
				  d="M612.109,348.644a5.2,5.2,0,0,1,1.067-.11h14.339a5.191,5.191,0,0,1,5.191,5.193v5.108h-20.6Z"/>
			<path class="cj"
				  d="M.387,0H13.932a.385.385,0,0,1,.385.385v.788a.387.387,0,0,1-.387.387H.386A.386.386,0,0,1,0,1.175V.387A.387.387,0,0,1,.387,0Z"
				  transform="translate(652.701 317.278)"/>
			<path class="cj"
				  d="M.387,0H13.932a.385.385,0,0,1,.385.385v.789a.385.385,0,0,1-.385.385H.386A.386.386,0,0,1,0,1.175V.387A.387.387,0,0,1,.387,0Z"
				  transform="translate(652.701 320.625)"/>
			<path class="cj"
				  d="M1.3,0H13.018a1.3,1.3,0,0,1,1.3,1.3V16.34a1.3,1.3,0,0,1-1.3,1.3H1.3a1.3,1.3,0,0,1-1.3-1.3V1.3A1.3,1.3,0,0,1,1.3,0Z"
				  transform="translate(652.701 324.461)"/>
			<path class="ck" d="M671.031,341.877a2.057,2.057,0,0,1-1.122-1.832V319.336a2.058,2.058,0,0,1,1.122-1.833Z"/>
			<path class="cl"
				  d="M848.739,538.283a21.151,21.151,0,0,0-2.388-.486c-3.167-.533-3.791-.646-3.791-.646l-.116-.015-.507,2.625A26.391,26.391,0,0,0,848.739,538.283Z"/>
			<path class="cm"
				  d="M843.6,539.57a20.555,20.555,0,0,0-1.058-2.386l-10.852-1.537s-.262.026-.34.025c-.155,0-.444.921-.823,2.512A26.644,26.644,0,0,0,843.6,539.57Z"/>
			<path class="cl"
				  d="M831.692,535.647s-6.079-1.507-10.1-3.016a26.363,26.363,0,0,0,9.8,5.858C831.577,536.627,831.692,535.647,831.692,535.647Z"/>
			<path class="cn"
				  d="M833.883,526.23l-2.191,9.417s.487,1.424,1.278,3.309c.755.2,1.524.369,2.308.5a26.508,26.508,0,0,0,7.4.229c-.019-1.226-.094-2.085-.094-2.085s-.1-2.192-.344-4.734a17.739,17.739,0,0,1,.071-5C843.031,524.645,833.883,526.23,833.883,526.23Z"/>
			<path class="bt"
				  d="M842.311,527.869c.72-3.224-8.428-1.639-8.428-1.639l-.214.92a4.86,4.86,0,0,0,.734,1.268,11.929,11.929,0,0,0,7.8,4.029A16.68,16.68,0,0,1,842.311,527.869Z"/>
			<path class="br"
				  d="M846.487,506.267s2.478,6.042,1.848,10.587a23.753,23.753,0,0,1-2.191,7.42l-8.659-15.843Z"/>
			<path class="co"
				  d="M849.7,516.169c-.153,1.6-1.034,2.834-1.966,2.745s-1.565-1.462-1.412-3.067,1.033-2.833,1.965-2.745S849.848,514.564,849.7,516.169Z"/>
			<path class="cn"
				  d="M833.376,509.875c-.25-.107-2.827,12.973.35,16.8s9.72,5.415,12.264,2.7c2.813-3,3.528-17.186-1.526-21.234S833.376,509.875,833.376,509.875Z"/>
			<path class="br"
				  d="M834.028,501.575c-3.4,1.962-5.168,3.536-8.023,7.656-3.511,5.066.121,11.762,3.671,14.843s3.334,5.907,3.334,5.907l.5-1.668a4.324,4.324,0,0,0,.26-1.576,7.431,7.431,0,0,0-.295-1.494c-.2-.8-.793-3.512-1.09-4.256-.781-1.962-.927-2.382-.043-3.923.682-1.187.744-4.088,1.823-6.052l5.622-.089s3.535-.14,5.629-1.766C851.434,504.488,843.017,496.271,834.028,501.575Z"/>
			<path class="cn"
				  d="M833.344,518.75c.378,1.567-.053,3.016-.965,3.236s-1.955-.872-2.334-2.439.053-3.016.964-3.236S832.965,517.183,833.344,518.75Z"/>
			<path class="cp"
				  d="M1046.785,423.713c.449.019,1.679.431,3.479,3.831.264.5.543,1.116.828,1.815a24.658,24.658,0,0,1-7.541,6.136l-1.064-10.575S1046.661,423.708,1046.785,423.713Z"/>
			<path class="cl"
				  d="M1033.534,421.822a61.233,61.233,0,0,1,13.251,1.892s.437,3.759.586,9.294a24.551,24.551,0,0,1-30.556-.068c-.214-4.716-.224-9.086-.224-9.086s.2-.032,6.674-1.151A67.311,67.311,0,0,1,1033.534,421.822Z"/>
			<path class="cn"
				  d="M1016.268,426.164c1.084-.407,1.952,3.161,2.63,8.274a24.7,24.7,0,0,1-5.24-4.515C1014.351,427.919,1015.22,426.557,1016.268,426.164Z"/>
			<path class="cp"
				  d="M1012.538,428.548c.866-2.307,2.126-3.987,3.929-4.663,1.722-.646,4.412,2.051,5.407,12.18A24.644,24.644,0,0,1,1012.538,428.548Z"/>
			<path class="cq"
				  d="M1040.2,396.436a21.359,21.359,0,0,1-2.481-.994,12.438,12.438,0,0,0-2.829-1.065c-1.565-.242-4.254-.081-5.739,1.53-1.85,2.006-5.137.362-4.475,10.872.75,11.9,7.364,10.591,7.525,10.389s5.9-7.611,5.9-7.611,2.007,4.39,2.007,4.229S1050.351,399.855,1040.2,396.436Z"/>
			<path class="bu" d="M1035.177,418.047l.571,4.25s1.279,6.125-.366,7.3-7-7.479-7-7.479l.565-10.771Z"/>
			<path class="cr" d="M1028.766,414.842a12.191,12.191,0,0,0,6.9,6.808l-.484-3.6-6.228-6.7Z"/>
			<path class="bu"
				  d="M1034.839,399.631a5.668,5.668,0,0,1,6.528,5.732,43.149,43.149,0,0,1-.478,5.452c-.758,4.907-4.106,9.228-6.32,8.842s-7.783-4.619-6.8-11.6C1028.372,403.744,1031.18,400.222,1034.839,399.631Z"/>
			<path class="bu" d="M1029.3,408.889a1.65,1.65,0,1,1-1.254-2.231A1.826,1.826,0,0,1,1029.3,408.889Z"/>
			<path class="cq"
				  d="M1028.049,406.658s2.676.664,3.669-1.057,4.545-5.436,9.06-3.9-3.973-3.745-4.334-3.745-4.695-.03-4.695-.03-3.341,2.749-3.462,3.051-1.083,3.593-1.083,3.593Z"/>
			<path class="cs"
				  d="M980.094,347.424q.563.756,1.154,1.462h20.034a64.248,64.248,0,0,1-5.465-7.127,15.338,15.338,0,0,0-8-6.652C982.435,333.188,972.645,337.417,980.094,347.424Z"/>
			<path class="ao"
				  d="M982.657,337.81a7.823,7.823,0,0,1-5.4.728,11.211,11.211,0,0,1-3.66-1.545,10.782,10.782,0,0,1-1.477-1.112s.065-.094.174-.278c.565-.967,2.28-4.445,1.517-10.033a3.987,3.987,0,0,1,1.38.228c2.488.589,7.49,2.008,7.712,2.071h.008s.061,1.176.268,3.282q.024.279.056.581c.025.247.051.509.081.779A17.41,17.41,0,0,1,982.657,337.81Z"/>
			<path class="ct"
				  d="M983.177,331.151c-3.715.851-9.259-4.632-9.259-4.632a5.876,5.876,0,0,1,1.271-.721c2.488.589,7.49,2.008,7.712,2.071h.008S982.97,329.045,983.177,331.151Z"/>
			<path class="ao"
				  d="M984.438,327.573a18.854,18.854,0,0,1-3.474.809c-2.848.385-6.592.158-7.769-3.287-1.981-5.8-4.512-9.277,1.318-11.645,3.122-1.268,5.119-1.335,6.475-.851a4.684,4.684,0,0,1,2.4,2.077C984.519,316.451,986.8,326.557,984.438,327.573Z"/>
			<path class="cu"
				  d="M987.977,315.134c-3.376,2.426-8.047.041-9.5.686s-1.711,3.077-1.737,3.849-.128,1.426-2.1.963a.955.955,0,0,0-.715.043c-.816.484.228,2.834.542,3.342,0,0,.453,1.683-.552,2.5-.122.1-2.1.961-6.858-6.324a6.768,6.768,0,0,1-.307-6.2c1.155-2.48,5.979-4.877,10.07-6.148a5.481,5.481,0,0,1,3.559-.133c1.484.542,2.274,1.944,3.06,3.352C984.758,313.432,987.977,315.134,987.977,315.134Z"/>
			<path class="cs"
				  d="M963.3,348.886c-.387-3.248-1.162-11.242.368-12.828,2.261-2.342,8.9-3.061,9.315-2.972.125-.026.25-.057.378-.079,0,0,5.654,3.187,9.854.827,0,0,.04.009.119.019,1.022.162,6.129,1.342,7.892,3.207a16.383,16.383,0,0,1,3.1,8.906c.015.963.021,1.947.022,2.92Z"/>
			<path class="cv"
				  d="M973.016,333.093s6.257,6.453,10.73,5.131c0,0,.6-.872-1.418-1.151S978.138,336.908,973.016,333.093Z"/>
			<path class="cs"
				  d="M964.25,335.4s-3.553,1.681-6.814,13.489h13.773C970.595,343.42,964.25,335.4,964.25,335.4Z"/>
			<path class="cw"
				  d="M921.745,517.866c1.995-4.582,4.323-6.576,5.229-7.221a3.7,3.7,0,0,1,.392-.251s.006.108.014.314c.023.446.064,1.343.106,2.573s.085,2.8.111,4.585Z"/>
			<path class="h"
				  d="M934.007,493.729s4.539,3.865.377,8.314c0,0,3.469.34,4.643-.621a3.244,3.244,0,0,1-.445.679s3.877.14,5.478-1.07.573-21.048-10.19-18.831c0,0-9.122-.688-8.272,9.867s-2.6,10.555-2.6,10.555a4.9,4.9,0,0,0,1.421.473s.676-.258.809-.632a2.4,2.4,0,0,1-.307.774s3.718.352,5.574-1.052S934.537,495.906,934.007,493.729Z"/>
			<path class="cx"
				  d="M945.579,517.866c-1.781-4.965-4.562-8.643-6.636-9.068-1.032-.273-2.782-4-2.76-10.007l-.465.092-7.811,1.546s.178,2.458.183,4.774c.006,1.93-.1,3.893-.536,4.124-.562.05-1.073.153-1.073.153s-4.88,3.427-6.525,8.386Z"/>
			<path class="g" d="M927.907,500.429s.178,2.458.183,4.774c4.371-.123,6.681-4.111,7.628-6.32Z"/>
			<path class="h"
				  d="M936.525,498.032a22.979,22.979,0,0,0,2.84-6.713c.393-2.21-.733-10.4-8.962-9.22a11.185,11.185,0,0,0-4.637,1.753c-1.787,1.207-4.366,3.812-1.482,10.959l.748,2.414Z"/>
			<path class="cx"
				  d="M926.447,502.622s10.342.171,10.349-6.271,1.347-10.758-5.256-11.139-7.887,2.075-8.413,4.225S923.758,502.412,926.447,502.622Z"/>
			<path class="h"
				  d="M926.83,485.054s2.832,7.558,7.177,8.675,6.23-.047,6.23-.047a12.308,12.308,0,0,1-4.025-7.27S928.966,481.457,926.83,485.054Z"/>
			<path class="h"
				  d="M927.532,485.667a9.144,9.144,0,0,0-2.63,3.328c-.515,1.641-.747,5.017-1.731,4.9,0,0-2.134-5.137.264-8.043C925.977,482.774,927.532,485.667,927.532,485.667Z"/>
			<path class="cw"
				  d="M940.56,517.866l-2.139-9.261a35.412,35.412,0,0,1,7.912,1.73,3.63,3.63,0,0,1,1.961,1.451,39.372,39.372,0,0,1,1.959,6.08Z"/>
			<path class="h"
				  d="M927.139,485.923s2.018,7.914,7.5,10.448c0,0-5.482-4.862-5.948-10.086S927.139,485.923,927.139,485.923Z"/>
			<path class="aa"
				  d="M918.942,517.866a21.477,21.477,0,0,1,.608-5.345c1.068-2.027,7.992-3.329,7.992-3.329s.235,3.593.347,8.674Z"/>
			<path class="aa"
				  d="M919.269,517.866a3.3,3.3,0,0,1,.175-.542c.879-2.015,5.466-6.173,7.3-7.966a2.178,2.178,0,0,0,.212-1.932.843.843,0,0,1,1.033-1,10.87,10.87,0,0,0,5.579-.494,13.48,13.48,0,0,0,3.411-1.666.521.521,0,0,1,.809.369c.173,1.4.6,3.97,1.372,3.97,1.067-.007,8.35.888,8.883,1.788.154.26,1.477,3.238,3.283,7.473Z"/>
			<path class="z"
				  d="M939.161,508.605s-5.453,3.453-9.579,2.636c0,0-.99-.626.376-1.255,1.282-.589,4.266-2.333,3.611-4.054a13.48,13.48,0,0,0,3.411-1.666.521.521,0,0,1,.809.369C937.962,506.039,938.386,508.605,939.161,508.605Z"/>
			<path class="au"
				  d="M1147.388,506.63a6.952,6.952,0,0,0-5.495-.589c-9.332-1.1-12.052,9.788-11.926,13.533s.554,7.768-3.615,12.632c-4.853,5.663-3.653,9.146-.49,11.285a15.3,15.3,0,0,0,3.88,1.793c.5.161,1,.306,1.51.435,1.17.3,2.34.523,3.414.688a42.764,42.764,0,0,0,4.863.473c.14-7.492,6.18-8.162,10.009-7.437a10.477,10.477,0,0,1,2.016.575c.752.313,1.17.645,1.054.868a12.4,12.4,0,0,0,1.238.237c2.53.363,4.228-.247,5.268-1.537C1164.361,533.113,1153.03,509.556,1147.388,506.63Z"/>
			<path class="ap"
				  d="M1124.192,547.8c1.722-4.4,3.673-9.615,4.367-10.67,1.227-1.863,5.4-2.83,5.4-2.83l.789,13.5Z"/>
			<path class="ao"
				  d="M1151.825,547.8c-.243-7.3-.505-14.125-.505-14.125-.388-.12-1.167-.227-1.589-.322a3.977,3.977,0,0,1-2.911-2.532,20.284,20.284,0,0,1-.989-6.737l-.418.083-7.037,1.392s.16,2.215.167,4.3v.052a4.049,4.049,0,0,1-2.921,3.913c-.888.255-1.663.475-1.663.475A65.75,65.75,0,0,0,1131,547.8Z"/>
			<path class="bg" d="M1138.376,525.555s.16,2.215.167,4.3c3.935-.11,6.016-3.7,6.87-5.693Z"/>
			<path class="ao"
				  d="M1137.064,527.53s9.314.155,9.321-5.648,1.211-9.69-4.737-10.034-7.1,1.869-7.577,3.806S1134.639,527.342,1137.064,527.53Z"/>
			<path class="au"
				  d="M1137.407,511.706s2.551,6.807,6.465,7.814,5.611-.043,5.611-.043a11.074,11.074,0,0,1-3.625-6.548S1139.332,508.466,1137.407,511.706Z"/>
			<path class="au"
				  d="M1138.04,512.258a5.781,5.781,0,0,0-2.67,2.087,9.36,9.36,0,0,0-1.258,5.327s-1.921-4.627.238-7.245C1136.639,509.652,1138.04,512.258,1138.04,512.258Z"/>
			<path class="ap"
				  d="M1155.8,546.879s0,.34-.011.917h-26.452a13.053,13.053,0,0,1,.353-2.293,50.874,50.874,0,0,1,4.271-11.207s7.539,7.384,17.361-.627Z"/>
			<path class="ap"
				  d="M1151.32,533.671a11.334,11.334,0,0,1,7.923,6.163,36.811,36.811,0,0,1,2.237,7.962h-14.524Z"/>
			<path class="h" d="M1202.245,294.055l17.735-7.563,16.352,7.8-16.352,8.3Z"/>
			<path class="j"
				  d="M1205.114,302.746l.253-.336c-3.571-2.687-2.877-7.178-2.662-8.206a.338.338,0,0,0-.136-.344h0a.186.186,0,0,0-.29.116C1202.044,295.173,1201.39,299.943,1205.114,302.746Z"/>
			<path class="k" d="M1205.367,302.41l.534.2-.446.571-.341-.435Z"/>
			<path class="j" d="M1205.9,302.609s.662.48.894.333c0,0-.215.63-.539.7a2.189,2.189,0,0,1-.8-.458Z"/>
			<path class="ao"
				  d="M1215.636,311.278a46.644,46.644,0,0,1-.873,7.875l-5.509,11.877,12.192,16.882,8.548-21.811-4.946-6.835s-1.494-7.292-.71-9.99S1215.636,311.278,1215.636,311.278Z"/>
			<path class="an" d="M1215.6,312.029s1.64,3.948,4.73,3.861,3.792-3.581,3.792-3.581Z"/>
			<path class="i"
				  d="M1213.761,308.832a49.587,49.587,0,0,0-1.693-6.489c-.7-1.508-1.277-8.238,6.439-8.586,0,0,2.959.348,4.583-.638,0,0,0,.986-.406,1.334,0,0,2.01-1.264,4.1,1.057s-.733,11.069-.559,12.983Z"/>
			<path class="ao"
				  d="M1219.98,314.364c-2.238-.039-6.358-3.02-6.358-6.711v-5.76a2.3,2.3,0,0,1,2.089-2.451h8.54a2.3,2.3,0,0,1,2.088,2.451v5.434C1226.339,311.2,1222.548,314.409,1219.98,314.364Z"/>
			<path class="i"
				  d="M1213.622,304.968s.012-3.46,2.753-3.993,8.877,1.687,9.747-.836-11.859-2.481-12.5-.871S1213.622,304.968,1213.622,304.968Z"/>
			<path class="e" d="M1214.764,319.153l5.1,1.145,5.157-1.243,1.316,7.915-5.788,19.7-6.332-23.61Z"/>
			<path class="cy"
				  d="M1214.514,320.772l4.054,3.025,1.326-2.174,1.229,2.174,4.318-3.76-.852-.982-4.723,1.243-5.1-.231Z"/>
			<path class="n"
				  d="M1202.954,357.346c3.11-20.133,5.8-37.048,5.8-37.048s1.044-.3,2.8-.632c.9-.17,1.982-.346,3.208-.494.014.381,2.638,16.919,6.209,23.368,0,0,4.049-8.9,4.074-23.275a1.606,1.606,0,0,0-.025-.209c.765.082,1.542.188,2.321.322.33.057.659.118.989.187a32.034,32.034,0,0,1,3.765.99s2.121,16.723,4.586,36.791Z"/>
			<path class="n"
				  d="M1213.162,319.362s-3.1,23.826-5.644,37.984h-17.327c.119-.614.26-1.251.414-1.911,1.235-5.26,9.314-30.584,12.041-32.371A26.17,26.17,0,0,1,1213.162,319.362Z"/>
			<path class="ao"
				  d="M1225.023,319.056a45.926,45.926,0,0,0-10.258.116v-.019S1224.258,313.28,1225.023,319.056Z"/>
			<path class="o"
				  d="M1221.68,346.672c-5.874-4.325-10.122-27.006-10.122-27.006.9-.17,1.982-.346,3.208-.494.014.381,2.492,16.009,6.063,22.458,0,0,4.2-7.992,4.22-22.365a1.585,1.585,0,0,0-.025-.209c.765.082,1.542.188,2.321.322.33.057.659.118.989.187C1228.343,331.671,1221.68,346.672,1221.68,346.672Z"/>
			<path class="ao"
				  d="M1218,310.1a16.623,16.623,0,0,1,3.921.035,2.318,2.318,0,0,1-1.758,1.07A2.155,2.155,0,0,1,1218,310.1Z"/>
			<path class="n"
				  d="M1211.53,296.691l.159,2.608s6.01-4.015,15.867-.328l-.138-3.772a2.592,2.592,0,0,0-1.248-1.747c-1.849-1.064-6.178-3.037-13.018.266A3.76,3.76,0,0,0,1211.53,296.691Z"/>
			<path class="e" d="M1215.212,316.754l-2.05,2.608,5.42,3.7,1.284-2.766Z"/>
			<path class="e" d="M1224.607,316.754l-4.741,3.544,1.359,2.766,4.665-3.9Z"/>
			<path class="cy" d="M1219.713,326.412a.374.374,0,1,1,0,.529A.374.374,0,0,1,1219.713,326.412Z"/>
			<path class="cy" d="M1219.713,330.437a.374.374,0,1,1,0,.529A.374.374,0,0,1,1219.713,330.437Z"/>
			<path class="cy" d="M1219.713,334.579a.374.374,0,1,1,0,.529A.374.374,0,0,1,1219.713,334.579Z"/>
			<path class="n"
				  d="M1232.1,320.556a11.767,11.767,0,0,1,5.607,5.993c1.953,4.475,10.061,16.7,9.826,22.424-.132,3.223-.539,6.283-1.842,8.373h-10.4a9.9,9.9,0,0,1-2.093-6.277C1233.2,345.594,1232.1,320.556,1232.1,320.556Z"/>
			<path class="h"
				  d="M1243.7,356.874c-.015.161-.035.319-.06.472h-7.213a8.219,8.219,0,0,1-.216-4.593c.03-.137.065-.27.1-.4.933-3.02,4.289-3.483,5.528-3.55.291-.017.465-.01.465-.01s.025.068.069.194C1242.695,349.917,1243.983,353.935,1243.7,356.874Z"/>
			<path class="ao"
				  d="M1243.7,356.874s-12.739-5.733-17.782-12.317c-.373-.486.581-1.081.581-1.081l15.345,5.331.534.184C1242.695,349.917,1243.983,353.935,1243.7,356.874Z"/>
			<rect class="cz" width="16.832" height="13.557" transform="translate(1211.885 343.789)"/>
			<path class="o" d="M1218.714,357.346a2.425,2.425,0,0,1,1.521-.719,1.617,1.617,0,0,1,1.749.719Z"/>
			<path class="da"
				  d="M1220.507,357.221a1.68,1.68,0,0,0-.259.021,2.665,2.665,0,0,0-.443.1h-.462a2.285,2.285,0,0,1,.875-.3,1.372,1.372,0,0,1,1.151.276l.023.021h-.338A1.164,1.164,0,0,0,1220.507,357.221Z"/>
			<path class="n"
				  d="M1222.644,346.459h-4.685a.141.141,0,0,1-.141-.14h0a.141.141,0,0,1,.141-.142h4.685a.141.141,0,0,1,.14.142h0A.141.141,0,0,1,1222.644,346.459Z"/>
			<path class="n"
				  d="M1223.552,347.05h-6.5a.142.142,0,0,1-.141-.142h0a.141.141,0,0,1,.141-.14h6.5a.141.141,0,0,1,.141.14h0A.142.142,0,0,1,1223.552,347.05Z"/>
			<path class="n"
				  d="M1225.1,351.947h-9.592a.163.163,0,0,1-.162-.163h0a.161.161,0,0,1,.162-.16h9.592a.16.16,0,0,1,.161.16h0A.163.163,0,0,1,1225.1,351.947Z"/>
			<path class="n"
				  d="M1225.1,352.753h-9.592a.163.163,0,0,1-.162-.162h0a.162.162,0,0,1,.162-.161h9.592a.161.161,0,0,1,.161.161h0A.162.162,0,0,1,1225.1,352.753Z"/>
			<path class="n"
				  d="M1225.1,353.457h-9.592a.162.162,0,0,1-.162-.161h0a.162.162,0,0,1,.162-.161h9.592a.161.161,0,0,1,.161.161h0A.161.161,0,0,1,1225.1,353.457Z"/>
			<path class="n"
				  d="M1225.1,354.229h-9.592a.162.162,0,0,1-.162-.161h0a.162.162,0,0,1,.162-.16h9.592a.161.161,0,0,1,.161.16h0A.161.161,0,0,1,1225.1,354.229Z"/>
			<path class="n" d="M1227.879,357.346V344.733h-15.04v12.613h-.176V344.557h15.393v12.789Z"/>
			<path class="ao"
				  d="M1222.784,342.1s-3.1,2.665-1.984,3.064,4.112-1.376,4.7-1.376h1.939s-1.916-2.217-2.926-2.158A4.289,4.289,0,0,0,1222.784,342.1Z"/>
			<path class="h"
				  d="M1205.114,337.37l-2.492,19.976h-2.612C1202.072,350.381,1205.114,337.37,1205.114,337.37Z"/>
		</g>
		<path class="e"
			  d="M786.906,412.359a43.354,43.354,0,1,1-12.7-30.654,43.216,43.216,0,0,1,12.7,30.654Zm-15.664,27.687a39.16,39.16,0,1,0-27.687,11.467,39.036,39.036,0,0,0,27.687-11.467Zm90.4,79.168a24.424,24.424,0,1,1-7.153-17.269,24.347,24.347,0,0,1,7.153,17.269Zm-10.119,14.3a20.229,20.229,0,1,0-14.3,5.924,20.169,20.169,0,0,0,14.3-5.924Zm226.683-4.36a45.663,45.663,0,1,1-13.375-32.288,45.523,45.523,0,0,1,13.375,32.288Zm-16.342,29.321a41.467,41.467,0,1,0-29.321,12.145,41.335,41.335,0,0,0,29.321-12.145ZM1325,526.938a30.5,30.5,0,1,1-8.933-21.565A30.4,30.4,0,0,1,1325,526.938Zm-11.9,18.6a26.3,26.3,0,1,0-18.6,7.7,26.223,26.223,0,0,0,18.6-7.7Zm-219.879-88.959a9.788,9.788,0,1,0,2.867-6.921,9.755,9.755,0,0,0-2.867,6.921Zm-.1,9.887a13.982,13.982,0,1,1,9.888,4.1,13.94,13.94,0,0,1-9.888-4.1Zm61.832-136.019a4.974,4.974,0,1,0,1.457-3.518,4.958,4.958,0,0,0-1.457,3.518Zm-1.509,6.485a9.17,9.17,0,1,1,6.484,2.686,9.141,9.141,0,0,1-6.484-2.686Zm54.646,177.795a8.1,8.1,0,1,0,2.373-5.728,8.076,8.076,0,0,0-2.373,5.728Zm-.594,8.694a12.294,12.294,0,1,1,8.695,3.6,12.258,12.258,0,0,1-8.695-3.6ZM901.582,315.189a7.969,7.969,0,1,0,2.334-5.636,7.946,7.946,0,0,0-2.334,5.636Zm-.632,8.6a12.166,12.166,0,1,1,8.6,3.563,12.129,12.129,0,0,1-8.6-3.563Zm-188.35-8.6a7.648,7.648,0,1,0,2.24-5.409,7.626,7.626,0,0,0-2.24,5.409Zm-.726,8.376a11.843,11.843,0,1,1,8.376,3.47,11.808,11.808,0,0,1-8.376-3.47ZM825.126,455.8a9.789,9.789,0,1,0,2.867-6.921,9.758,9.758,0,0,0-2.867,6.921Zm-.1,9.887a13.982,13.982,0,1,1,9.887,4.1,13.94,13.94,0,0,1-9.887-4.1Zm86.624,93.372a9.787,9.787,0,1,0,2.867-6.921,9.757,9.757,0,0,0-2.867,6.921Zm-.1,9.888a13.983,13.983,0,1,1,9.888,4.1,13.944,13.944,0,0,1-9.888-4.1Zm53.48-125.033a5.615,5.615,0,1,0,1.645-3.97,5.595,5.595,0,0,0-1.645,3.97Zm-1.322,6.937a9.808,9.808,0,1,1,6.937,2.874,9.781,9.781,0,0,1-6.937-2.874ZM745.653,521.19a5.869,5.869,0,1,0,1.719-4.151,5.849,5.849,0,0,0-1.719,4.151Zm-1.248,7.117a10.064,10.064,0,1,1,7.117,2.948,10.037,10.037,0,0,1-7.117-2.948ZM590.3,518.292a9.787,9.787,0,1,0,2.867-6.921,9.753,9.753,0,0,0-2.867,6.921Zm-.1,9.888a13.982,13.982,0,1,1,9.888,4.1,13.94,13.94,0,0,1-9.888-4.1Zm54.545-136.317a9.785,9.785,0,1,0,2.866-6.921,9.757,9.757,0,0,0-2.866,6.921Zm-.1,9.888a13.982,13.982,0,1,1,9.887,4.1,13.939,13.939,0,0,1-9.887-4.1Zm692.986,95.138a9.787,9.787,0,1,0,2.866-6.921,9.757,9.757,0,0,0-2.866,6.921Zm-.1,9.888a13.981,13.981,0,1,1,9.888,4.1,13.943,13.943,0,0,1-9.888-4.1ZM641.1,538.675a30.171,30.171,0,1,0,30.17-30.17,30.077,30.077,0,0,0-30.17,30.17Zm5.87,24.3a34.365,34.365,0,1,1,24.3,10.066,34.26,34.26,0,0,1-24.3-10.066Zm520.167-37.29a24.663,24.663,0,1,1-7.223-17.44,24.594,24.594,0,0,1,7.223,17.44Zm-10.19,14.474a20.468,20.468,0,1,0-14.473,6,20.408,20.408,0,0,0,14.473-6Zm75.361-127.8a46.317,46.317,0,1,1-13.566-32.751,46.171,46.171,0,0,1,13.566,32.751Zm-16.532,29.783a42.12,42.12,0,1,0-29.783,12.337,41.992,41.992,0,0,0,29.783-12.337ZM944.2,402.691a41.309,41.309,0,1,1-12.1-29.209,41.181,41.181,0,0,1,12.1,29.209Zm-15.066,26.243A37.114,37.114,0,1,0,902.886,439.8a37,37,0,0,0,26.243-10.869ZM830.942,305.386a33.975,33.975,0,1,1-9.951-24.022,33.866,33.866,0,0,1,9.951,24.022Zm-12.917,21.056a29.779,29.779,0,1,0-21.056,8.721,29.687,29.687,0,0,0,21.056-8.721ZM1117,303.3a38.278,38.278,0,1,1-11.212-27.067A38.159,38.159,0,0,1,1117,303.3Zm-14.178,24.1a34.084,34.084,0,1,0-24.1,9.982,33.975,33.975,0,0,0,24.1-9.982Zm147.52-14.429a32.2,32.2,0,1,1-9.431-22.77,32.1,32.1,0,0,1,9.431,22.77Zm-12.4,19.8a28.008,28.008,0,1,0-19.8,8.2,27.92,27.92,0,0,0,19.8-8.2Zm-566.455-5.911a28.835,28.835,0,1,1-8.445-20.389,28.744,28.744,0,0,1,8.445,20.389Zm-11.412,17.422a24.637,24.637,0,1,0-17.422,7.217,24.562,24.562,0,0,0,17.422-7.217Zm-21.294,99.624a38.69,38.69,0,1,1-11.332-27.355,38.567,38.567,0,0,1,11.332,27.355Zm-14.3,24.389a34.492,34.492,0,1,0-24.389,10.1,34.383,34.383,0,0,0,24.389-10.1Zm328.776,28.587a19.934,19.934,0,1,1-5.839-14.1,19.869,19.869,0,0,1,5.839,14.1Zm-8.8,11.128a15.737,15.737,0,1,0-11.129,4.61,15.69,15.69,0,0,0,11.129-4.61Zm56.723-182.76a22.817,22.817,0,1,1-6.683-16.134,22.748,22.748,0,0,1,6.683,16.134Zm-9.65,13.168a18.623,18.623,0,1,0-13.168,5.454,18.561,18.561,0,0,0,13.168-5.454ZM1058.28,415.5a25.731,25.731,0,1,1-7.537-18.2,25.655,25.655,0,0,1,7.537,18.2Zm-10.5,15.228a21.535,21.535,0,1,0-15.228,6.308,21.469,21.469,0,0,0,15.228-6.308Zm300.752-10.274a28.032,28.032,0,1,1-8.211-19.821,27.94,27.94,0,0,1,8.211,19.821ZM1337.351,437.3a23.835,23.835,0,1,0-16.854,6.981A23.761,23.761,0,0,0,1337.351,437.3Z"/>
	</g>
</svg>
