<svg xmlns="http://www.w3.org/2000/svg" width="24" height="24" viewBox="0 0 24 24">
	<defs>
		<style>.a{fill:#f7f7ff;fill-rule:evenodd;}</style>
	</defs>
	<g transform="translate(-1055.961 -580.159)">
		<path class="a" d="M1069.9,604c-.1.017-.2.032-.3.045C1069.695,604.035,1069.8,604.02,1069.9,604Zm0,0"/>
		<path class="a" d="M1070.136,603.962l-.143.025Zm0,0"/>
		<path class="a"
			  d="M1069.327,604.082c-.117.013-.235.025-.353.034C1069.092,604.107,1069.21,604.095,1069.327,604.082Zm0,0"/>
		<path class="a" d="M1069.557,604.053l-.169.022Zm0,0"/>
		<path class="a"
			  d="M1070.463,603.9c-.042.01-.085.018-.127.027C1070.378,603.915,1070.421,603.907,1070.463,603.9Zm0,0"/>
		<path class="a" d="M1071.273,603.7l-.1.029Zm0,0"/>
		<path class="a" d="M1071.028,603.763l-.111.029Zm0,0"/>
		<path class="a" d="M1070.708,603.843l-.119.027Zm0,0"/>
		<path class="a" d="M1068.97,604.117l-.189.014Zm0,0"/>
		<path class="a"
			  d="M1079.961,592.159a12,12,0,1,0-12,12l.211,0v-9.342h-2.578V591.81h2.578V589.6a3.609,3.609,0,0,1,3.853-3.96,21.336,21.336,0,0,1,2.311.118v2.681h-1.577c-1.245,0-1.486.591-1.486,1.459v1.913h2.976l-.388,3.005h-2.588V603.7A12.007,12.007,0,0,0,1079.961,592.159Zm0,0"/>
		<path class="a"
			  d="M1068.754,604.133c-.125.008-.25.014-.376.018C1068.5,604.147,1068.629,604.141,1068.754,604.133Zm0,0"/>
		<path class="a" d="M1068.371,604.152l-.2.005Zm0,0"/>
	</g>
</svg>
