<svg xmlns="http://www.w3.org/2000/svg" width="24.002" height="24" viewBox="0 0 24.002 24">
	<defs>
		<style>.a{fill:#f7f7ff;fill-rule:evenodd;}</style>
	</defs>
	<path class="a"
		  d="M970.492,602.017c-3.828,0-7.562.217-8.074-4.313-.214-1.884-.156-5.123-.156-7.177,0-3.683-.231-7.562,4.312-8.076,1.887-.215,5.125-.159,7.179-.159,3.683,0,7.562-.229,8.076,4.314a90.194,90.194,0,0,1-.006,11.175,4.236,4.236,0,0,1-4.149,4.081c-1.887.214-5.126.155-7.182.155Zm6.6-16.219a1.427,1.427,0,0,0,2.853-.083,1.427,1.427,0,0,0-2.853.083Zm-11.086,6.6a6.11,6.11,0,0,0,5.87,5.87h.489a6.107,6.107,0,0,0,5.868-5.87v-.488a6.1,6.1,0,0,0-5.868-5.868h-.489a6.108,6.108,0,0,0-5.87,5.868v.488Zm10.108.165a4.016,4.016,0,0,0-3.587-4.4,4.012,4.012,0,0,0-3.241,1.158,4.149,4.149,0,0,0-1.16,2.428,4.006,4.006,0,0,0,1.16,3.242,4.878,4.878,0,0,0,1.038.756,4.015,4.015,0,0,0,5.79-3.182Zm-15.974.814c0,2.239-.074,5.377.921,7.227a8.134,8.134,0,0,0,1.134,1.556,7.192,7.192,0,0,0,1.583,1.109c2.282,1.114,6.73.865,9.484.865,3.116,0,6.618.2,8.826-2.014l.329-.405a6.2,6.2,0,0,0,1.447-3.28,77.36,77.36,0,0,0-.01-12.635,6.266,6.266,0,0,0-5.379-5.379,76.919,76.919,0,0,0-12.707,0,6.272,6.272,0,0,0-4.762,3.391C959.89,586.1,960.143,590.613,960.143,593.379Z"
		  transform="translate(-960.118 -580.16)"/>
</svg>
