<svg xmlns="http://www.w3.org/2000/svg" width="59.999" height="59.999" viewBox="0 0 59.999 59.999">
	<defs>
		<style>.a{fill:#4d5c6f;fill-rule:evenodd;}</style>
	</defs>
	<path class="a"
		  d="M1020,7650a30,30,0,1,0-30,30,30,30,0,0,0,30-30Zm-42.922-11.838a3.11,3.11,0,0,1,1.385-.3h23.076a3.113,3.113,0,0,1,1.385.3c-11.852,11.984-9.756,9.871-12.116,12.231a1.157,1.157,0,0,1-1.615,0c-2.359-2.36-.267-.25-12.115-12.231Zm9.484,14.653.969.993a3.455,3.455,0,0,0,4.939,0l.969-.993,11.169-11.261a3.294,3.294,0,0,1,.393,1.569v16.154c0,.873-.62,3.461-2.262,3.461H977.264c-1.643,0-2.262-2.588-2.262-3.461v-16.154a3.294,3.294,0,0,1,.392-1.569Z"
		  transform="translate(-960.002 -7619.996)"/>
</svg>
