<?xml version="1.0" encoding="UTF-8"?>
<!DOCTYPE svg PUBLIC "-//W3C//DTD SVG 1.1//EN" "http://www.w3.org/Graphics/SVG/1.1/DTD/svg11.dtd">
<!-- Creator: CorelDRAW 2019 (64-Bit) -->
<svg xmlns="http://www.w3.org/2000/svg" xml:space="preserve" width="480px" height="518px" version="1.1"
	 style="shape-rendering:geometricPrecision; text-rendering:geometricPrecision; image-rendering:optimizeQuality; fill-rule:evenodd; clip-rule:evenodd"
	 viewBox="0 0 480 518.48"
>
 <defs>
  <style type="text/css">
   <![CDATA[
    .fil2 {fill:#546DD3}
    .fil0 {fill:#FF8FC7}
    .fil1 {fill:white}
   ]]>
  </style>
 </defs>
	<g id="Layer_x0020_1">
  <metadata id="CorelCorpID_0Corel-Layer"/>
		<path class="fil0"
			  d="M432.43 160.38l-103.55 -81.06c-91.91,-71.94 -211.6,-44.36 -265.99,61.29l-49.44 96.05c-27.19,52.82 -11.84,125.47 34.12,161.44l103.55 81.06c91.91,71.94 211.6,44.36 265.98,-61.29l49.45 -96.05c27.19,-52.82 11.84,-125.47 -34.12,-161.44z"/>
		<path class="fil1"
			  d="M222 96.76l36 0c16.5,0 30,-13.5 30,-30l0 -18c0,-26.4 -21.6,-48 -48,-48l0 0c-26.4,0 -48,21.6 -48,48l0 18c0,16.5 13.5,30 30,30z"/>
		<path class="fil2"
			  d="M235.58 49.66l0 14.1 -14.11 0 0 -9.96c0,-3.87 0.65,-7.41 1.94,-10.64 1.29,-3.23 3.46,-6.36 6.5,-9.4l5.25 4.15c-3.59,3.96 -5.62,7.88 -6.08,11.75l6.5 0zm22.95 0l0 14.1 -14.11 0 0 -9.96c0,-3.87 0.65,-7.41 1.94,-10.64 1.29,-3.23 3.46,-6.36 6.5,-9.4l5.25 4.15c-3.59,3.96 -5.62,7.88 -6.08,11.75l6.5 0z"/>
 </g>
</svg>
