<svg xmlns="http://www.w3.org/2000/svg" width="24" height="24" viewBox="0 0 24 24">
	<defs>
		<style>.a{fill:#f7f7ff;fill-rule:evenodd;}</style>
	</defs>
	<path class="a"
		  d="M1020.04,580.159a12,12,0,1,0,12,12,12,12,0,0,0-12-12Zm5.48,9.357c.005.117.008.236.008.355a7.784,7.784,0,0,1-7.837,7.837h0a7.8,7.8,0,0,1-4.222-1.237,5.705,5.705,0,0,0,.657.038,5.527,5.527,0,0,0,3.421-1.179,2.756,2.756,0,0,1-2.573-1.913,2.742,2.742,0,0,0,1.244-.047,2.755,2.755,0,0,1-2.21-2.7v-.035a2.742,2.742,0,0,0,1.248.344,2.756,2.756,0,0,1-.853-3.677,7.817,7.817,0,0,0,5.677,2.878,2.756,2.756,0,0,1,4.694-2.512,5.543,5.543,0,0,0,1.749-.668,2.769,2.769,0,0,1-1.211,1.523,5.476,5.476,0,0,0,1.581-.434A5.592,5.592,0,0,1,1025.52,589.516Z"
		  transform="translate(-1008.04 -580.159)"/>
</svg>
