<svg xmlns="http://www.w3.org/2000/svg" width="24" height="24" viewBox="0 0 24 24">
	<defs>
		<style>.a{fill:#f7f7ff;fill-rule:evenodd;}</style>
	</defs>
	<path class="a"
		  d="M1114.387,594.407l3.9-2.248-3.9-2.248v4.5Zm1.495-14.248a12,12,0,1,1-12,12,12,12,0,0,1,12-12Zm7.5,12.012a19.8,19.8,0,0,1-.309,3.608,1.877,1.877,0,0,1-1.321,1.321,45.6,45.6,0,0,1-5.868.309,44.007,44.007,0,0,1-5.868-.321,1.879,1.879,0,0,1-1.322-1.322,21.21,21.21,0,0,1,0-7.214,1.918,1.918,0,0,1,1.322-1.334,45.6,45.6,0,0,1,5.868-.309,43.918,43.918,0,0,1,5.868.321,1.88,1.88,0,0,1,1.321,1.322,18.741,18.741,0,0,1,.309,3.619Z"
		  transform="translate(-1103.882 -580.159)"/>
</svg>
