<svg xmlns="http://www.w3.org/2000/svg" width="30" height="30" viewBox="0 0 30 30">
	<defs>
		<style>.a { fill: #4d5c6f; fill-rule: evenodd; }
		</style>
	</defs>
	<path class="a"
		  d="M325.874,625.5h-21.75A4.128,4.128,0,0,0,300,629.626v21.75a4.129,4.129,0,0,0,4.125,4.125h21.75A4.128,4.128,0,0,0,330,651.376v-21.75a4.128,4.128,0,0,0-4.125-4.125ZM315,651.376h-9.375a1.125,1.125,0,0,1,0-2.25H315a1.125,1.125,0,0,1,0,2.25Zm4.725-5.85h-14.1a1.125,1.125,0,0,1,0-2.251h14.1a1.125,1.125,0,0,1,0,2.251Zm4.65-5.851h-18.75a1.125,1.125,0,0,1,0-2.25h18.75a1.125,1.125,0,0,1,0,2.25Zm0-5.924h-18.75a1.125,1.125,0,0,1,0-2.25h18.75a1.125,1.125,0,0,1,0,2.25Z"
		  transform="translate(-299.999 -625.501)"/>
</svg>
