<svg xmlns="http://www.w3.org/2000/svg" width="42" height="42" viewBox="0 0 42 42">
	<defs>
		<style>.a{fill:#f5a454;}.a,.b,.c{fill-rule:evenodd;}.b{fill:#cd7f32;}.c{fill:#c47a31;}</style>
	</defs>
	<g transform="translate(-1464.002 -50.999)">
		<path class="a" d="M1464,72a21,21,0,1,0,21-21A21,21,0,0,0,1464,72Z"/>
		<path class="b" d="M1469.6,72A15.4,15.4,0,1,0,1485,56.6,15.4,15.4,0,0,0,1469.6,72Z"/>
		<path class="c"
			  d="M1483.715,86.112a15.4,15.4,0,0,0,11.514-25.624,15.4,15.4,0,1,1-21.74,21.735A15.338,15.338,0,0,0,1483.715,86.112Z"/>
		<path class="a"
			  d="M1475.917,67.992l10.921,8.191-1.145.859a1.185,1.185,0,0,1-1.338-.02l-4.9-3.672-3.507,2.63,7.512,5.634.891.668a1.185,1.185,0,0,0,1.338.02l.911-.683,7.483-5.613-10.921-8.191,1.146-.859a1.185,1.185,0,0,1,1.338.021l4.9,3.671,3.507-2.629-8.4-6.3a1.185,1.185,0,0,0-1.338-.021Z"/>
	</g>
</svg>
