<svg width="176" height="72" viewBox="0 0 176 72" fill="none" xmlns="http://www.w3.org/2000/svg">
<path fill-rule="evenodd" clip-rule="evenodd" d="M57.9919 22.4922C58.975 25.0412 59.5159 27.8102 59.5159 30.7064C59.5159 33.4977 59.0141 36.1716 58.0972 38.6441H15.2643C14.3475 36.1716 13.8457 33.4974 13.8457 30.7064C13.8457 27.8105 14.3862 25.0415 15.3697 22.4922H57.9922H57.9919ZM18.5426 40.7706C18.7149 40.7365 18.887 40.7114 19.0584 40.7033C19.4641 40.6844 19.8447 40.7598 20.1745 41.0148C20.6245 41.3629 21.0113 41.4974 21.3895 41.481C21.7912 41.4636 22.2229 41.2811 22.7256 41.0028C22.9782 40.863 23.3186 40.7842 23.6747 40.7771C23.8219 40.7743 23.9732 40.7833 24.1235 40.8053V41.728C23.9818 41.6952 23.8343 41.6809 23.6924 41.6837C23.4813 41.6877 23.291 41.728 23.163 41.799C22.549 42.1387 21.9994 42.3628 21.4285 42.3876C20.8337 42.4133 20.2554 42.2249 19.6197 41.7327C19.4864 41.6295 19.3057 41.6 19.1011 41.6099H19.0993C18.9294 41.6177 18.7397 41.653 18.5426 41.6995V40.7703V40.7706ZM50.4856 48.8952C49.7458 49.4578 48.9706 49.976 48.1638 50.4465C48.0532 50.466 47.9422 50.4784 47.8306 50.4834C47.2358 50.5091 46.6575 50.3206 46.0215 49.8285C45.8882 49.7252 45.7075 49.6958 45.5029 49.7054H45.501C45.3312 49.7135 45.1415 49.7488 44.9447 49.7953V48.8661C45.117 48.832 45.2891 48.8069 45.4605 48.7988C45.8659 48.7799 46.2468 48.8552 46.5763 49.1103C47.0263 49.4584 47.4131 49.5929 47.7912 49.5765C48.1929 49.5591 48.6247 49.3765 49.1274 49.0982C49.38 48.9584 49.7207 48.8797 50.0765 48.8726C50.2107 48.8698 50.348 48.8772 50.4853 48.8952H50.4856ZM21.5187 47.7791C20.9881 47.3074 20.4795 46.8114 19.9947 46.2926C20.0561 46.327 20.1159 46.3664 20.1745 46.4116C20.6245 46.76 21.0113 46.8942 21.3895 46.8778C21.7912 46.8604 22.2229 46.6775 22.7256 46.3995C22.9782 46.26 23.3186 46.181 23.6747 46.1739C23.8219 46.1711 23.9732 46.1801 24.1235 46.2021V47.1251C23.9818 47.0922 23.8343 47.078 23.6924 47.0808C23.4813 47.0848 23.291 47.1254 23.163 47.1961C22.5812 47.5178 22.0577 47.736 21.5187 47.7791ZM18.5426 43.469C18.7149 43.4349 18.887 43.4098 19.0584 43.4017C19.4641 43.3828 19.8447 43.4581 20.1745 43.7132C20.6245 44.0616 21.0113 44.1958 21.3895 44.1794C21.7912 44.162 22.2229 43.9792 22.7256 43.7011C22.9782 43.5614 23.3186 43.4826 23.6747 43.4755C23.8219 43.4727 23.9732 43.4817 24.1235 43.5037V44.4264C23.9818 44.3936 23.8343 44.3793 23.6924 44.3821C23.4813 44.3861 23.291 44.4264 23.163 44.4974C22.549 44.8371 21.9994 45.0615 21.4285 45.086C20.8337 45.1117 20.2554 44.9232 19.6197 44.4311C19.4864 44.3278 19.3057 44.2987 19.1011 44.3083H19.0993C18.9294 44.3164 18.7397 44.3517 18.5426 44.3979V43.4687V43.469ZM25.2582 40.7706C25.4305 40.7365 25.6026 40.7114 25.7736 40.7033C26.1794 40.6844 26.56 40.7598 26.8898 41.0148C27.3398 41.3629 27.7266 41.4974 28.1047 41.481C28.5064 41.4636 28.9382 41.2811 29.4409 41.0028C29.6935 40.863 30.0338 40.7842 30.39 40.7771C30.5372 40.7743 30.6884 40.7833 30.8388 40.8053V41.728C30.6971 41.6952 30.5496 41.6809 30.4076 41.6837C30.1966 41.6877 30.0063 41.728 29.8783 41.799C29.2643 42.1387 28.7147 42.3628 28.1438 42.3876C27.549 42.4133 26.9707 42.2249 26.335 41.7327C26.2017 41.6295 26.021 41.6 25.8164 41.6099H25.8146C25.6447 41.6177 25.455 41.653 25.2582 41.6995V40.7703V40.7706ZM25.2582 43.469C25.4305 43.4349 25.6026 43.4098 25.7736 43.4017C26.1794 43.3828 26.56 43.4581 26.8898 43.7132C27.3398 44.0616 27.7266 44.1958 28.1047 44.1794C28.5064 44.162 28.9382 43.9792 29.4409 43.7011C29.6935 43.5614 30.0338 43.4826 30.39 43.4755C30.5372 43.4727 30.6884 43.4817 30.8388 43.5037V44.4264C30.6971 44.3936 30.5496 44.3793 30.4076 44.3821C30.1966 44.3861 30.0063 44.4264 29.8783 44.4974C29.2643 44.8371 28.7147 45.0615 28.1438 45.086C27.549 45.1117 26.9707 44.9232 26.335 44.4311C26.2017 44.3278 26.021 44.2987 25.8164 44.3083H25.8146C25.6447 44.3164 25.455 44.3517 25.2582 44.3979V43.4687V43.469ZM25.2582 46.1674C25.4305 46.1333 25.6026 46.1085 25.7736 46.1001C26.1794 46.0809 26.56 46.1565 26.8898 46.4116C27.3398 46.76 27.7266 46.8942 28.1047 46.8778C28.5064 46.8604 28.9382 46.6775 29.4409 46.3995C29.6935 46.26 30.0338 46.181 30.39 46.1739C30.5372 46.1711 30.6884 46.1801 30.8388 46.2021V47.1251C30.6971 47.0922 30.5496 47.078 30.4076 47.0808C30.1966 47.0848 30.0063 47.1254 29.8783 47.1961C29.2643 47.5358 28.7147 47.7599 28.1438 47.7847C27.549 47.8104 26.9707 47.622 26.335 47.1298C26.2017 47.0265 26.021 46.9974 25.8164 47.007H25.8146C25.6447 47.0151 25.455 47.0501 25.2582 47.0966V46.1674ZM25.2582 48.8658C25.4305 48.8317 25.6026 48.8066 25.7736 48.7985C26.1794 48.7796 26.56 48.8549 26.8898 49.11C27.3398 49.4581 27.7266 49.5926 28.1047 49.5762C28.5064 49.5588 28.9382 49.3762 29.4409 49.0979C29.6935 48.9581 30.0338 48.8794 30.39 48.8723C30.5372 48.8695 30.6884 48.8785 30.8388 48.9005V49.8232C30.6971 49.7903 30.5496 49.7761 30.4076 49.7789C30.1966 49.7829 30.0063 49.8232 29.8783 49.8942C29.2643 50.2339 28.7147 50.4579 28.1438 50.4827C27.549 50.5085 26.9707 50.32 26.335 49.8278C26.2017 49.7246 26.021 49.6952 25.8164 49.7048H25.8146C25.6447 49.7128 25.455 49.7482 25.2582 49.7947V48.8655V48.8658ZM31.8204 40.7703C31.9927 40.7362 32.1647 40.7111 32.3361 40.703C32.7415 40.6841 33.1225 40.7594 33.4519 41.0145C33.902 41.3626 34.2888 41.4971 34.6669 41.4807C35.0686 41.4633 35.5004 41.2808 36.0031 41.0024C36.2557 40.8627 36.596 40.7839 36.9521 40.7768C37.0994 40.774 37.2506 40.783 37.4009 40.805V41.7277C37.2593 41.6949 37.1118 41.6806 36.9698 41.6834C36.7587 41.6874 36.5681 41.7277 36.4401 41.7987C35.8261 42.1384 35.2766 42.3625 34.7057 42.3873C34.1109 42.413 33.5325 42.2246 32.8968 41.7324C32.7635 41.6291 32.5828 41.5997 32.3783 41.6096H32.3764C32.2066 41.6174 32.0166 41.6527 31.8198 41.6992V40.77L31.8204 40.7703ZM31.8204 43.4687C31.9927 43.4346 32.1647 43.4095 32.3361 43.4014C32.7415 43.3825 33.1225 43.4578 33.4519 43.7129C33.902 44.0613 34.2888 44.1955 34.6669 44.1791C35.0686 44.1617 35.5004 43.9788 36.0031 43.7008C36.2557 43.561 36.596 43.4823 36.9521 43.4752C37.0994 43.4724 37.2506 43.4814 37.4009 43.5034V44.4261C37.2593 44.3932 37.1118 44.379 36.9698 44.3818C36.7587 44.3858 36.5681 44.4261 36.4401 44.4971C35.8261 44.8368 35.2766 45.0612 34.7057 45.0857C34.1109 45.1114 33.5325 44.9229 32.8968 44.4308C32.7635 44.3275 32.5828 44.2984 32.3783 44.308H32.3764C32.2066 44.3161 32.0166 44.3514 31.8198 44.3976V43.4684L31.8204 43.4687ZM31.8204 46.1671C31.9927 46.133 32.1647 46.1082 32.3361 46.0998C32.7415 46.0806 33.1225 46.1562 33.4519 46.4113C33.902 46.7597 34.2888 46.8939 34.6669 46.8775C35.0686 46.8601 35.5004 46.6772 36.0031 46.3992C36.2557 46.2597 36.596 46.1807 36.9521 46.1736C37.0994 46.1708 37.2506 46.1798 37.4009 46.2018V47.1248C37.2593 47.0919 37.1118 47.0777 36.9698 47.0805C36.7587 47.0845 36.5681 47.1251 36.4401 47.1958C35.8261 47.5355 35.2766 47.7596 34.7057 47.7844C34.1109 47.8101 33.5325 47.6216 32.8968 47.1294C32.7635 47.0262 32.5828 46.9971 32.3783 47.0067H32.3764C32.2066 47.0148 32.0166 47.0498 31.8198 47.0963V46.1671H31.8204ZM31.8204 48.8655C31.9927 48.8314 32.1647 48.8062 32.3361 48.7982C32.7415 48.7793 33.1225 48.8546 33.4519 49.1097C33.902 49.4578 34.2888 49.5923 34.6669 49.5758C35.0686 49.5585 35.5004 49.3759 36.0031 49.0976C36.2557 48.9578 36.596 48.8791 36.9521 48.872C37.0994 48.8692 37.2506 48.8782 37.4009 48.9002V49.8229C37.2593 49.79 37.1118 49.7758 36.9698 49.7785C36.7587 49.7826 36.5681 49.8229 36.4401 49.8939C35.8261 50.2336 35.2766 50.4576 34.7057 50.4824C34.1109 50.5082 33.5325 50.3197 32.8968 49.8275C32.7635 49.7243 32.5828 49.6949 32.3783 49.7045H32.3764C32.2066 49.7125 32.0166 49.7479 31.8198 49.7944V48.8651L31.8204 48.8655ZM31.8204 51.045C31.9927 51.0109 32.1647 50.9861 32.3361 50.978C32.7415 50.9588 33.1225 51.0344 33.4519 51.2895C33.902 51.6379 34.2888 51.7721 34.6669 51.7557C35.0686 51.7383 35.5004 51.5555 36.0031 51.2774C36.2557 51.1377 36.596 51.0589 36.9521 51.0518C37.0994 51.049 37.2506 51.058 37.4009 51.08V52.0027C37.2593 51.9699 37.1118 51.9556 36.9698 51.9584C36.7587 51.9624 36.5681 52.0027 36.4401 52.0737C35.8261 52.4134 35.2766 52.6378 34.7057 52.6623C34.1109 52.688 33.5325 52.4996 32.8968 52.0074C32.7635 51.9042 32.5828 51.875 32.3783 51.8846H32.3764C32.2066 51.8927 32.0166 51.928 31.8198 51.9742V51.045H31.8204ZM38.3825 40.7703C38.5549 40.7362 38.7269 40.7111 38.8983 40.703C39.304 40.6841 39.6846 40.7594 40.0144 41.0145C40.4644 41.3626 40.8513 41.4971 41.2294 41.4807C41.6311 41.4633 42.0628 41.2808 42.5656 41.0024C42.8182 40.8627 43.1585 40.7839 43.5146 40.7768C43.6618 40.774 43.8131 40.783 43.9634 40.805V41.7277C43.8218 41.6949 43.6742 41.6806 43.5323 41.6834C43.3212 41.6874 43.1309 41.7277 43.0029 41.7987C42.3889 42.1384 41.8394 42.3625 41.2684 42.3873C40.6737 42.413 40.0953 42.2246 39.4596 41.7324C39.3263 41.6291 39.1456 41.5997 38.9411 41.6096H38.9392C38.7693 41.6174 38.5797 41.6527 38.3825 41.6992V40.77V40.7703ZM38.3825 43.4687C38.5549 43.4346 38.7269 43.4095 38.8983 43.4014C39.304 43.3825 39.6846 43.4578 40.0144 43.7129C40.4644 44.0613 40.8513 44.1955 41.2294 44.1791C41.6311 44.1617 42.0628 43.9788 42.5656 43.7008C42.8182 43.561 43.1585 43.4823 43.5146 43.4752C43.6618 43.4724 43.8131 43.4814 43.9634 43.5034V44.4261C43.8218 44.3932 43.6742 44.379 43.5323 44.3818C43.3212 44.3858 43.1309 44.4261 43.0029 44.4971C42.3889 44.8368 41.8394 45.0612 41.2684 45.0857C40.6737 45.1114 40.0953 44.9229 39.4596 44.4308C39.3263 44.3275 39.1456 44.2984 38.9411 44.308H38.9392C38.7693 44.3161 38.5797 44.3514 38.3825 44.3976V43.4684V43.4687ZM38.3825 46.1671C38.5549 46.133 38.7269 46.1082 38.8983 46.0998C39.304 46.0806 39.6846 46.1562 40.0144 46.4113C40.4644 46.7597 40.8513 46.8939 41.2294 46.8775C41.6311 46.8601 42.0628 46.6772 42.5656 46.3992C42.8182 46.2597 43.1585 46.1807 43.5146 46.1736C43.6618 46.1708 43.8131 46.1798 43.9634 46.2018V47.1248C43.8218 47.0919 43.6742 47.0777 43.5323 47.0805C43.3212 47.0845 43.1309 47.1251 43.0029 47.1958C42.3889 47.5355 41.8394 47.7596 41.2684 47.7844C40.6737 47.8101 40.0953 47.6216 39.4596 47.1294C39.3263 47.0262 39.1456 46.9971 38.9411 47.0067H38.9392C38.7693 47.0148 38.5797 47.0498 38.3825 47.0963V46.1671ZM38.3825 48.8655C38.5549 48.8314 38.7269 48.8062 38.8983 48.7982C39.304 48.7793 39.6846 48.8546 40.0144 49.1097C40.4644 49.4578 40.8513 49.5923 41.2294 49.5758C41.6311 49.5585 42.0628 49.3759 42.5656 49.0976C42.8182 48.9578 43.1585 48.8791 43.5146 48.872C43.6618 48.8692 43.8131 48.8782 43.9634 48.9002V49.8229C43.8218 49.79 43.6742 49.7758 43.5323 49.7785C43.3212 49.7826 43.1309 49.8229 43.0029 49.8939C42.3889 50.2336 41.8394 50.4576 41.2684 50.4824C40.6737 50.5082 40.0953 50.3197 39.4596 49.8275C39.3263 49.7243 39.1456 49.6949 38.9411 49.7045H38.9392C38.7693 49.7125 38.5797 49.7479 38.3825 49.7944V48.8651V48.8655ZM38.3825 51.045C38.5549 51.0109 38.7269 50.9861 38.8983 50.978C39.304 50.9588 39.6846 51.0344 40.0144 51.2895C40.4644 51.6379 40.8513 51.7721 41.2294 51.7557C41.6311 51.7383 42.0628 51.5555 42.5656 51.2774C42.8182 51.1377 43.1585 51.0589 43.5146 51.0518C43.6618 51.049 43.8131 51.058 43.9634 51.08V52.0027C43.8218 51.9699 43.6742 51.9556 43.5323 51.9584C43.3212 51.9624 43.1309 52.0027 43.0029 52.0737C42.3889 52.4134 41.8394 52.6378 41.2684 52.6623C40.6737 52.688 40.0953 52.4996 39.4596 52.0074C39.3263 51.9042 39.1456 51.875 38.9411 51.8846H38.9392C38.7693 51.8927 38.5797 51.928 38.3825 51.9742V51.045ZM44.9447 40.7703C45.117 40.7362 45.2891 40.7111 45.4605 40.703C45.8659 40.6841 46.2468 40.7594 46.5763 41.0145C47.0263 41.3626 47.4131 41.4971 47.7912 41.4807C48.1929 41.4633 48.6247 41.2808 49.1274 41.0024C49.38 40.8627 49.7207 40.7839 50.0765 40.7768C50.2237 40.774 50.375 40.783 50.5253 40.805V41.7277C50.3836 41.6949 50.2361 41.6806 50.0941 41.6834C49.8831 41.6874 49.6928 41.7277 49.5648 41.7987C48.9507 42.1384 48.4012 42.3625 47.8303 42.3873C47.2355 42.413 46.6572 42.2246 46.0211 41.7324C45.8879 41.6291 45.7072 41.5997 45.5026 41.6096H45.5007C45.3309 41.6174 45.1412 41.6527 44.9444 41.6992V40.77L44.9447 40.7703ZM44.9447 43.4687C45.117 43.4346 45.2891 43.4095 45.4605 43.4014C45.8659 43.3825 46.2468 43.4578 46.5763 43.7129C47.0263 44.0613 47.4131 44.1955 47.7912 44.1791C48.1929 44.1617 48.6247 43.9788 49.1274 43.7008C49.38 43.561 49.7207 43.4823 50.0765 43.4752C50.2237 43.4724 50.375 43.4814 50.5253 43.5034V44.4261C50.3836 44.3932 50.2361 44.379 50.0941 44.3818C49.8831 44.3858 49.6928 44.4261 49.5648 44.4971C48.9507 44.8368 48.4012 45.0612 47.8303 45.0857C47.2355 45.1114 46.6572 44.9229 46.0211 44.4308C45.8879 44.3275 45.7072 44.2984 45.5026 44.308H45.5007C45.3309 44.3161 45.1412 44.3514 44.9444 44.3976V43.4684L44.9447 43.4687ZM44.9447 46.1671C45.117 46.133 45.2891 46.1082 45.4605 46.0998C45.8659 46.0806 46.2468 46.1562 46.5763 46.4113C47.0263 46.7597 47.4131 46.8939 47.7912 46.8775C48.1929 46.8601 48.6247 46.6772 49.1274 46.3992C49.38 46.2597 49.7207 46.1807 50.0765 46.1736C50.2237 46.1708 50.375 46.1798 50.5253 46.2018V47.1248C50.3836 47.0919 50.2361 47.0777 50.0941 47.0805C49.8831 47.0845 49.6928 47.1251 49.5648 47.1958C48.9507 47.5355 48.4012 47.7596 47.8303 47.7844C47.2355 47.8101 46.6572 47.6216 46.0211 47.1294C45.8879 47.0262 45.7072 46.9971 45.5026 47.0067H45.5007C45.3309 47.0148 45.1412 47.0498 44.9444 47.0963V46.1671H44.9447ZM37.9483 33.5495C38.5567 33.1828 39.1624 32.911 39.7513 32.7173L39.9239 33.9131C39.3651 34.1266 38.7938 34.4121 38.2223 34.7825L37.9483 33.5495ZM40.2782 32.5632C41.1398 32.3429 41.9537 32.2877 42.6728 32.3463L42.7748 33.3889C42.0616 33.3784 41.2725 33.4788 40.4471 33.7327L40.2782 32.5629V32.5632ZM43.2288 32.417C43.4368 32.4532 43.6343 32.4994 43.8196 32.5539C44.4987 32.7532 45.0724 32.9361 45.5748 33.1013L45.6644 34.0175C45.2757 33.8929 44.8465 33.7596 44.3639 33.618C44.0502 33.5259 43.7021 33.4574 43.3268 33.4202L43.2285 32.417H43.2288ZM46.1423 33.2901C46.8555 33.529 47.4218 33.7231 47.9722 33.8684L48.02 34.7905C47.5018 34.6328 46.9376 34.4356 46.2316 34.2022L46.1423 33.2901ZM48.528 33.9986C49.1869 34.1319 49.8858 34.1942 50.8439 34.1793L50.9629 35.2446C49.9931 35.2347 49.2945 35.1333 48.5776 34.9483L48.5283 33.9986H48.528ZM51.3913 34.1638C52.0266 34.1381 52.7699 34.0841 53.6687 34.0008L53.8615 35.0964C52.9196 35.1795 52.1574 35.2269 51.5118 35.2409L51.3916 34.1638H51.3913ZM38.8211 26.2732L39.1097 28.2724C38.367 28.5141 37.612 28.9059 36.8437 29.4746L36.795 35.9559C43.3476 35.9559 49.5325 35.9559 55.8988 35.9559C55.1469 32.7718 54.3946 29.5878 53.6424 26.4037C50.7903 27.1187 48.0113 26.957 45.2187 25.1252C43.1684 23.7803 40.2639 24.2889 36.8703 25.9149L36.8595 27.3627C37.5231 26.8736 38.1767 26.5162 38.8211 26.2732ZM39.2079 28.953L39.3793 30.1401C38.7697 30.3236 38.1166 30.6295 37.4031 31.0957L37.1632 30.0158C37.9037 29.5044 38.5787 29.1631 39.2079 28.953ZM39.4739 30.7944L39.6567 32.0605C39.0467 32.2338 38.4176 32.4851 37.7887 32.8304L37.5389 31.7053C38.2223 31.276 38.866 30.9813 39.4739 30.7944ZM40.1867 31.9282L40.0029 30.6562C40.9194 30.46 41.751 30.5071 42.5113 30.6961L42.6182 31.7899C41.9026 31.7078 41.0713 31.7372 40.1864 31.9282H40.1867ZM39.9096 30.0084L39.7358 28.8042C40.6786 28.5876 41.521 28.6626 42.334 28.8789L42.4586 30.1543C41.6574 29.9262 40.8302 29.8292 39.9096 30.0087V30.0084ZM39.6378 28.1251L39.3455 26.1003C40.2636 25.8396 41.1634 25.8058 42.0476 25.9503L42.2566 28.0879C41.3989 27.9206 40.5267 27.9181 39.6378 28.1251ZM43.1765 31.8807L43.0763 30.8558C44.0077 31.131 44.7652 31.3932 45.4307 31.6257L45.5249 32.5884C44.959 32.3996 44.3013 32.1895 43.4985 31.961C43.3953 31.9319 43.288 31.9049 43.1768 31.8814L43.1765 31.8807ZM43.024 30.3214L42.8988 29.0423C43.8354 29.3249 44.5929 29.6048 45.2578 29.8577L45.3839 31.1468C44.7184 30.893 43.9622 30.609 43.024 30.3214ZM42.8185 28.2212L42.6077 26.0656C43.3488 26.249 44.079 26.5519 44.8009 26.9442C44.861 26.9771 44.9215 27.0087 44.9819 27.04L45.1976 29.2468C45.0646 29.1833 44.9323 29.116 44.8006 29.0444C44.1472 28.6892 43.4867 28.4075 42.8182 28.2212H42.8185ZM46.0924 32.7799L45.9988 31.8234C46.6761 32.0574 47.2721 32.2502 47.8948 32.3794L47.9462 33.3734C47.3769 33.2247 46.8075 33.0244 46.0924 32.7799ZM45.9539 31.3641L45.8277 30.075C46.5316 30.3422 47.1487 30.5641 47.808 30.7036L47.8731 31.9585C47.229 31.8277 46.6286 31.6182 45.9539 31.3638V31.3641ZM45.7713 29.4957L45.5578 27.3106C46.2548 27.6085 46.9569 27.8016 47.6636 27.9094L47.7727 30.0164C47.0967 29.92 46.4272 29.7517 45.7716 29.4954L45.7713 29.4957ZM48.5023 33.5005L48.449 32.4758C49.0927 32.5663 49.7941 32.5877 50.6582 32.5199L50.7869 33.6694C49.84 33.6856 49.1426 33.6257 48.5023 33.5005ZM48.4269 32.049L48.3622 30.7993C48.9737 30.8809 49.6456 30.8898 50.4664 30.8015L50.6034 32.0274C49.7492 32.1284 49.0549 32.1268 48.4269 32.049ZM48.3247 30.0793L48.2156 27.9767C48.8571 28.0359 49.5021 28.0297 50.1505 27.9739L50.3843 30.0666C49.6968 30.1283 49.0081 30.1379 48.3247 30.0793ZM51.3339 33.6527L51.2016 32.4675C51.8221 32.3977 52.5241 32.2865 53.3386 32.1268L53.5776 33.4853C52.698 33.5709 51.964 33.626 51.3339 33.653V33.6527ZM51.1439 31.9527L51.0075 30.7324C51.5964 30.6456 52.2594 30.5136 53.0222 30.3288L53.2013 31.3464V31.5262C52.4221 31.7193 51.7449 31.8591 51.1439 31.9527ZM50.9267 30.0074L50.6929 27.9162C51.3054 27.8384 51.9203 27.72 52.5374 27.5737L52.9001 29.6343C52.2492 29.7933 51.5893 29.9228 50.9267 30.0077V30.0074ZM35.2859 33.5498C34.6774 33.1831 34.0718 32.9113 33.4829 32.7176L33.3103 33.9134C33.8691 34.1269 34.4403 34.4124 35.0119 34.7828L35.2859 33.5498ZM32.956 32.5636C32.0947 32.3432 31.2804 32.288 30.5617 32.3466L30.4597 33.3893C31.1729 33.3787 31.962 33.4791 32.7874 33.733L32.956 32.5632V32.5636ZM30.0056 32.4173C29.7977 32.4535 29.6002 32.4997 29.4149 32.5543C28.7358 32.7536 28.1624 32.9364 27.6597 33.1016L27.5701 34.0178C27.9588 33.8932 28.388 33.7599 28.8706 33.6183C29.1843 33.5263 29.5324 33.4578 29.9077 33.4206L30.0059 32.4173H30.0056ZM27.0922 33.2904C26.379 33.5293 25.8127 33.7234 25.2622 33.8687L25.2145 34.7908C25.7327 34.6331 26.2968 34.4359 27.0029 34.2025L27.0922 33.2904ZM24.7065 33.9989C24.0476 34.1322 23.3486 34.1945 22.3906 34.1796L22.2716 35.2449C23.2417 35.235 23.94 35.1336 24.6572 34.9486L24.7065 33.9989ZM21.8432 34.1641C21.2075 34.1384 20.4646 34.0845 19.5657 34.0011L19.373 35.0967C20.3149 35.1798 21.077 35.2272 21.7227 35.2412L21.8429 34.1641H21.8432ZM34.4134 26.2735L34.1248 28.2727C34.8678 28.5144 35.6225 28.9062 36.3911 29.475L36.4398 35.9562C29.8872 35.9562 23.7023 35.9562 17.336 35.9562C18.0882 32.7722 18.8405 29.5881 19.5924 26.404C22.4442 27.1191 25.2235 26.9573 28.0161 25.1255C30.0664 23.7806 32.9709 24.2893 36.3645 25.9152L36.3753 27.363C35.7114 26.8739 35.0581 26.5165 34.4134 26.2735ZM34.0266 28.9533L33.8552 30.1404C34.4648 30.3239 35.1179 30.6298 35.8314 31.096L36.0713 30.0161C35.3308 29.5047 34.6554 29.1635 34.0266 28.9533ZM33.7606 30.7947L33.5781 32.0608C34.188 32.2341 34.8172 32.4854 35.4458 32.8307L35.6959 31.7056C35.0125 31.2764 34.3687 30.9816 33.7606 30.7947ZM33.0481 31.9285L33.2319 30.6565C32.3154 30.4603 31.4838 30.5074 30.7232 30.6964L30.6162 31.7902C31.3319 31.7081 32.1632 31.7376 33.0481 31.9285ZM33.3252 30.0087L33.499 28.8045C32.5565 28.5879 31.7138 28.6629 30.9011 28.8792L30.7765 30.1547C31.5777 29.9265 32.4049 29.8295 33.3255 30.009L33.3252 30.0087ZM33.597 28.1254L33.8893 26.1006C32.9712 25.8399 32.0714 25.8061 31.1872 25.9506L30.9783 28.0883C31.8362 27.9209 32.7081 27.9184 33.5973 28.1254H33.597ZM30.058 31.8811L30.1584 30.8561C29.2271 31.1313 28.4696 31.3935 27.8041 31.626L27.7099 32.5887C28.2761 32.3999 28.9339 32.1898 29.7366 31.9613C29.8398 31.9322 29.9471 31.9052 30.0583 31.8817L30.058 31.8811ZM30.2105 30.3217L30.3357 29.0426C29.3988 29.3252 28.6416 29.6051 27.9767 29.858L27.8506 31.1471C28.516 30.8933 29.2723 30.6093 30.2105 30.3217ZM30.416 28.2215L30.6268 26.0659C29.8857 26.2494 29.1555 26.5522 28.4336 26.9446C28.3735 26.9774 28.313 27.009 28.2526 27.0403L28.0369 29.2471C28.1698 29.1836 28.3022 29.1163 28.4339 29.0447C29.0873 28.6895 29.7478 28.4078 30.4163 28.2215H30.416ZM27.1421 32.7802L27.2357 31.8237C26.5584 32.0577 25.9624 32.2505 25.3397 32.3798L25.288 33.3738C25.8573 33.225 26.4267 33.0248 27.1421 32.7802ZM27.2806 31.3644L27.4067 30.0753C26.7029 30.3425 26.0858 30.5644 25.4265 30.7039L25.3614 31.9589C26.0055 31.8281 26.6058 31.6185 27.2806 31.3641V31.3644ZM27.4632 29.496L27.6767 27.3109C26.9796 27.6088 26.2776 27.8019 25.5709 27.9097L25.4618 30.0167C26.1381 29.9203 26.8073 29.752 27.4632 29.4957V29.496ZM24.7322 33.5008L24.7855 32.4761C24.1418 32.5667 23.4404 32.588 22.5759 32.5202L22.4476 33.6698C23.3945 33.6859 24.0919 33.626 24.7322 33.5008ZM24.8075 32.0494L24.8723 30.7997C24.2608 30.8812 23.5888 30.8902 22.7681 30.8018L22.6311 32.0277C23.4853 32.1287 24.1796 32.1272 24.8075 32.0494ZM24.9098 30.0797L25.0189 27.977C24.3773 28.0362 23.7323 28.03 23.0839 27.9742L22.8502 30.0669C23.5377 30.1286 24.2264 30.1382 24.9098 30.0797ZM21.9006 33.653L22.0332 32.4678C21.4127 32.398 20.7107 32.2868 19.8961 32.1272L19.6572 33.4856C20.5368 33.5712 21.2708 33.6264 21.9009 33.6533L21.9006 33.653ZM22.0906 31.953L22.2269 30.7327C21.638 30.6459 20.9751 30.5139 20.2123 30.3292L20.0331 31.3467V31.5265C20.8123 31.7196 21.4896 31.8594 22.0906 31.953ZM22.3078 30.0077L22.5415 27.9165C21.9291 27.8387 21.3141 27.7203 20.697 27.5741L20.3344 29.6346C20.9853 29.7936 21.6452 29.9231 22.3078 30.0081V30.0077ZM57.738 39.5547C57.5056 40.1067 57.2517 40.6476 56.978 41.1766C57.0152 41.1047 57.0521 41.0325 57.0884 40.96V40.8059C56.938 40.7839 56.7868 40.7749 56.6396 40.7777C56.2834 40.7846 55.9428 40.8636 55.6905 41.0034C55.1878 41.2817 54.7557 41.4643 54.3543 41.4816C53.9762 41.498 53.5891 41.3635 53.1394 41.0155C52.8099 40.7604 52.429 40.6847 52.0235 40.704C51.8521 40.712 51.6801 40.7368 51.5078 40.7712V41.7004C51.7046 41.6539 51.8943 41.6186 52.0645 41.6109H52.0663C52.2706 41.6013 52.4516 41.6307 52.5849 41.7336C53.2206 42.2255 53.7992 42.4139 54.3937 42.3885C54.9646 42.3637 55.5142 42.1396 56.1282 41.7999C56.2562 41.729 56.4465 41.6887 56.6578 41.6846C56.6746 41.6843 56.691 41.684 56.7081 41.6843C56.289 42.4471 55.8281 43.1842 55.3276 43.8911C54.9748 44.061 54.6565 44.1673 54.355 44.18C53.9768 44.1961 53.5897 44.0619 53.14 43.7138C52.8105 43.4588 52.4296 43.3834 52.0242 43.4024C51.8528 43.4104 51.6807 43.4352 51.5084 43.4696V44.3988C51.7052 44.3523 51.8949 44.317 52.0651 44.3092H52.0669C52.2712 44.2996 52.4522 44.3291 52.5855 44.432C53.2212 44.9242 53.7998 45.1123 54.3943 45.0869L54.4204 45.0857C54.5037 44.9831 54.5862 44.8799 54.6677 44.7757C54.2087 45.3621 53.7217 45.9253 53.2085 46.4637C53.1858 46.4469 53.1632 46.4299 53.1403 46.4122C52.8108 46.1571 52.4299 46.0815 52.0245 46.1007C51.8531 46.1088 51.6811 46.1336 51.5087 46.168V47.0972C51.7055 47.0507 51.8952 47.0154 52.0654 47.0076H52.0672C52.26 46.9986 52.4318 47.0244 52.5625 47.1136C52.6205 47.0575 52.6785 47.0011 52.7358 46.9447C50.948 48.7126 48.8698 50.1871 46.5793 51.2908L46.5787 51.2902C46.2493 51.0351 45.8683 50.9594 45.4629 50.9787C45.2915 50.9867 45.1195 51.0115 44.9472 51.0456V51.9748C44.9955 51.9634 45.0433 51.9525 45.0907 51.9429L45.118 51.932C42.5082 52.9704 39.6623 53.541 36.6828 53.541C34.1205 53.541 31.6573 53.1182 29.3579 52.3399C29.528 52.2624 29.7016 52.1732 29.8807 52.0743C30.0087 52.0036 30.199 51.963 30.4101 51.959C30.5521 51.9562 30.6996 51.9705 30.8413 52.0033V51.0806C30.6909 51.0586 30.5397 51.0496 30.3925 51.0524C30.0363 51.0596 29.696 51.1383 29.4434 51.2781C28.9407 51.5561 28.5089 51.739 28.1072 51.7563C27.9879 51.7616 27.8679 51.7517 27.7452 51.7247C27.2493 51.5136 26.7627 51.2855 26.2854 51.041C26.5519 51.1776 26.8219 51.3084 27.094 51.4346C27.028 51.3912 26.9607 51.3428 26.8922 51.2898C26.6812 51.1268 26.4493 51.0369 26.2032 50.9985C25.2557 50.5082 24.347 49.9537 23.4825 49.3403C23.6942 49.4903 23.909 49.6366 24.126 49.7798V48.9011C23.9757 48.8791 23.8244 48.8701 23.6772 48.8729C23.4345 48.8775 23.1992 48.9157 22.9941 48.9835C19.7716 46.5666 17.2092 43.3174 15.626 39.5544H57.7399L57.738 39.5547ZM54.8806 44.4989C54.8438 44.5476 54.8062 44.5959 54.769 44.6446C54.8066 44.5963 54.8438 44.5476 54.8806 44.4989Z" fill="#0367B0"/>
<path fill-rule="evenodd" clip-rule="evenodd" d="M46.1581 9.92578C51.2675 12.2606 55.3662 16.425 57.6164 21.581H46.1581V9.92578ZM15.7422 21.581C17.9924 16.425 22.0908 12.2609 27.2006 9.92578V21.581H15.7422Z" fill="#00A859"/>
<path fill-rule="evenodd" clip-rule="evenodd" d="M32.8659 11.852C33.161 11.852 33.4 12.0913 33.4 12.3861C33.4 12.6811 33.161 12.9201 32.8659 12.9201C32.5709 12.9201 32.3319 12.6808 32.3319 12.3861C32.3319 12.091 32.5709 11.852 32.8659 11.852ZM40.4931 11.852C40.7881 11.852 41.0271 12.0913 41.0271 12.3861C41.0271 12.6811 40.7878 12.9201 40.4931 12.9201C40.198 12.9201 39.959 12.6808 39.959 12.3861C39.959 12.091 40.1983 11.852 40.4931 11.852ZM34.1621 9.55968C34.4572 9.55968 34.6962 9.79864 34.6962 10.0937C34.6962 10.3888 34.4569 10.6277 34.1621 10.6277C33.8671 10.6277 33.6281 10.3888 33.6281 10.0937C33.6281 9.79864 33.8674 9.55968 34.1621 9.55968ZM39.1969 9.55968C39.492 9.55968 39.7309 9.79864 39.7309 10.0937C39.7309 10.3888 39.4916 10.6277 39.1969 10.6277C38.9018 10.6277 38.6628 10.3888 38.6628 10.0937C38.6628 9.79864 38.9021 9.55968 39.1969 9.55968ZM43.5364 13.4845V19.8902C42.1122 18.5797 39.5741 17.7072 36.6795 17.7072C33.7849 17.7072 31.2468 18.5797 29.8223 19.8902V13.4982L34.4786 17.1233L36.6705 13.473L38.8624 17.1233L43.5361 13.4842L43.5364 13.4845ZM36.6795 7.87109C37.1035 7.87109 37.4475 8.21482 37.4475 8.63883C37.4475 9.06314 37.1038 9.40688 36.6795 9.40688C36.2555 9.40688 35.9118 9.06314 35.9118 8.63883C35.9118 8.21482 36.2555 7.87109 36.6795 7.87109Z" fill="#ED3237"/>
<path d="M7.67735 58.0724C6.11832 56.4207 4.69908 54.6357 3.43853 52.7367C2.18759 50.8522 1.09256 48.8562 0.172327 46.7678L0 46.3769L0.380302 46.1814L7.54717 42.4936L7.98233 42.2695L8.17295 42.7211C8.89233 44.4258 9.76142 46.054 10.7638 47.5891C11.7739 49.1364 12.9207 50.5894 14.1871 51.9308L14.4983 52.2603L14.1676 52.5724L8.31956 58.0922L7.98977 58.4034L7.67766 58.0727L7.67735 58.0724ZM4.19573 52.2352C5.34377 53.9644 6.62601 55.5969 8.02851 57.1175L13.2167 52.2209C12.0377 50.9359 10.9618 49.552 10.0029 48.0832C9.06156 46.6413 8.23339 45.1167 7.53136 43.5229L1.17872 46.7916C2.04192 48.6935 3.05234 50.5131 4.19573 52.2355V52.2352Z" fill="#0367B0"/>
<path d="M73.2989 46.5153C72.3833 48.6325 71.2935 50.6502 70.0479 52.549C68.7913 54.4644 67.3696 56.2702 65.8013 57.946L65.5013 58.2665L65.1718 57.978L59.1198 52.6773L58.7637 52.3655L59.0897 52.023C60.3273 50.7222 61.4528 49.3131 62.4508 47.8118C63.4414 46.3212 64.3061 44.7411 65.0292 43.0873L65.2074 42.6797L65.6178 42.8489L73.0556 45.9158L73.482 46.0919L73.2992 46.5153H73.2989ZM69.2869 52.0512C70.4266 50.3136 71.4296 48.484 72.281 46.5782L65.6801 43.8562C64.9728 45.414 64.1446 46.9036 63.208 48.3133C62.2685 49.7269 61.2184 51.0615 60.0704 52.3041L65.4377 57.0051C66.8446 55.4671 68.1327 53.8104 69.2869 52.0512Z" fill="#0367B0"/>
<path d="M7.62209 58.7478C11.3123 62.5712 15.7507 65.6691 20.7027 67.8053C25.602 69.9188 31.0041 71.0898 36.6804 71.0898C42.3977 71.0898 47.8344 69.9027 52.7585 67.7625C57.7325 65.6006 62.1867 62.4655 65.881 58.599L60.4328 53.8271C57.4139 56.9284 53.7937 59.4405 49.761 61.1743C45.7472 62.9001 41.3249 63.856 36.6807 63.856C32.017 63.856 27.5751 62.8902 23.5446 61.148C19.5001 59.3999 15.8738 56.8704 12.8561 53.7508L7.6224 58.7478H7.62209ZM20.3435 68.6409C15.1383 66.3957 10.4863 63.109 6.64917 59.0441L6.33984 58.7164L6.66684 58.4043L12.5577 52.7801L12.8877 52.4648L13.2011 52.798C16.1983 55.9824 19.8342 58.5574 23.9032 60.3164C27.8175 62.0084 32.1375 62.9463 36.6801 62.9463C41.1988 62.9463 45.4993 62.0171 49.4012 60.3393C53.4571 58.5956 57.0829 56.0441 60.0763 52.8879L60.3757 52.5718L60.704 52.8594L66.8331 58.2277L67.1859 58.5367L66.8666 58.8786C63.0264 62.9918 58.3552 66.32 53.1208 68.5953C48.0808 70.786 42.5213 72.001 36.6801 72.001C30.8776 72.001 25.3541 70.8031 20.3432 68.6415L20.3435 68.6409Z" fill="#0367B0"/>
<path d="M36.6812 5.98438C43.508 5.98438 49.6887 8.75157 54.1624 13.2256C58.6362 17.6994 61.4033 23.8803 61.4033 30.7069C61.4033 37.5337 58.6362 43.7143 54.1624 48.1881C49.6887 52.6619 43.5077 55.4294 36.6812 55.4294C29.8543 55.4294 23.6737 52.6622 19.1999 48.1881C14.7262 43.7143 11.959 37.5337 11.959 30.7069C11.959 23.88 14.7262 17.6994 19.1999 13.2256C23.6737 8.75188 29.8546 5.98438 36.6812 5.98438ZM53.6259 13.7618C49.2894 9.42539 43.2985 6.74312 36.6812 6.74312C30.0638 6.74312 24.0726 9.42539 19.7364 13.7618C15.4 18.0983 12.7177 24.0892 12.7177 30.7066C12.7177 37.3239 15.4 43.3148 19.7364 47.6513C24.0729 51.9877 30.0638 54.67 36.6812 54.67C43.2985 54.67 49.2898 51.9877 53.6259 47.6513C57.9623 43.3148 60.6446 37.3239 60.6446 30.7066C60.6446 24.0892 57.9623 18.098 53.6259 13.7618Z" fill="#0367B0"/>
<path d="M15.3484 45.1641L15.7712 45.7049L14.3436 46.8201C14.1173 46.9971 13.9751 47.1189 13.9187 47.1843C13.8288 47.2918 13.7857 47.4149 13.7885 47.5525C13.791 47.6914 13.8517 47.8358 13.9695 47.9867C14.0894 48.1402 14.2106 48.2322 14.3334 48.2617C14.4558 48.2917 14.5683 48.279 14.6703 48.2248C14.7732 48.1705 14.9278 48.0614 15.1367 47.8984L16.5947 46.7594L17.0172 47.3002L15.633 48.3816C15.3162 48.6289 15.0816 48.7892 14.9282 48.862C14.7744 48.9349 14.6229 48.9671 14.4713 48.959C14.3204 48.9504 14.166 48.9011 14.0104 48.8118C13.8542 48.7219 13.6933 48.5704 13.5275 48.3584C13.3276 48.1027 13.2049 47.886 13.1602 47.7084C13.115 47.5305 13.1091 47.3675 13.1419 47.2184C13.1748 47.0693 13.2328 46.9425 13.3155 46.8387C13.4386 46.6853 13.6478 46.4937 13.9428 46.2631L15.3484 45.1647V45.1641ZM14.975 49.9685L17.421 47.6876L17.8767 48.1761L17.1923 50.717L18.8257 49.194L19.2609 49.6607L16.8148 51.9416L16.3446 51.4374L17.0054 48.9479L15.4104 50.4353L14.9753 49.9688L14.975 49.9685ZM17.4926 52.4509L19.7305 49.9654L20.2403 50.4245L18.0025 52.9099L17.4926 52.4509ZM19.304 53.9278L20.2868 50.5078L20.8893 50.9458L20.1297 53.4535L22.2584 51.9404L22.8473 52.3684L19.8966 54.3586L19.3037 53.9278H19.304ZM21.3016 55.3089L23.0239 52.4422L25.1843 53.7403L24.8926 54.2253L23.3205 53.2809L22.9387 53.9163L24.4016 54.7953L24.1115 55.2779L22.6489 54.3989L22.1803 55.1793L23.8078 56.1572L23.5174 56.6404L21.3016 55.3089ZM24.1518 56.9429L25.4046 53.8419L26.7445 54.3834C27.0814 54.5195 27.3145 54.6462 27.4447 54.7637C27.5749 54.8812 27.6576 55.0293 27.6917 55.2088C27.7258 55.3889 27.7057 55.5696 27.6316 55.753C27.5377 55.9855 27.3901 56.1501 27.1902 56.2455C26.9906 56.3404 26.7433 56.3522 26.451 56.2793C26.5567 56.4145 26.6354 56.5468 26.6869 56.6776C26.7383 56.8084 26.791 57.0244 26.8452 57.3269L26.986 58.0875L26.2247 57.7801L26.0372 56.919C25.9709 56.6119 25.9207 56.4151 25.886 56.328C25.8513 56.2409 25.8045 56.1724 25.7465 56.1213C25.6885 56.0707 25.5866 56.0162 25.44 55.957L25.3116 55.9052L24.7884 57.1999L24.1515 56.9426L24.1518 56.9429ZM25.5119 55.4106L25.9824 55.6005C26.2877 55.7239 26.4835 55.7887 26.57 55.7943C26.6559 55.7995 26.733 55.7797 26.8015 55.7351C26.8691 55.6901 26.9224 55.6216 26.9599 55.5286C27.0024 55.4239 27.0077 55.3287 26.977 55.2416C26.9463 55.1545 26.8828 55.0817 26.7864 55.0225C26.7377 54.9952 26.5843 54.9292 26.3261 54.8247L25.8302 54.6242L25.5125 55.4106H25.5119ZM27.6186 57.1695L28.2787 57.2916C28.2558 57.5151 28.2896 57.6933 28.3798 57.8269C28.4694 57.9595 28.6141 58.0553 28.8149 58.1127C29.0273 58.1734 29.2002 58.1753 29.3332 58.1173C29.4665 58.06 29.5501 57.9719 29.5842 57.8539C29.6059 57.7776 29.6019 57.7066 29.5712 57.6403C29.5418 57.5737 29.4761 57.5042 29.3738 57.4329C29.3047 57.384 29.1413 57.2866 28.8859 57.1407C28.5571 56.9531 28.3392 56.7755 28.2332 56.6091C28.0829 56.3748 28.0444 56.1306 28.1173 55.8761C28.1644 55.7121 28.2552 55.573 28.3903 55.457C28.5255 55.3417 28.6928 55.2723 28.8915 55.2484C29.0908 55.2255 29.3152 55.2494 29.5663 55.3213C29.9772 55.4391 30.2599 55.6157 30.4171 55.8522C30.573 56.0887 30.6142 56.3559 30.5401 56.6547L29.8725 56.4938C29.8917 56.3202 29.8651 56.1839 29.7928 56.0853C29.7209 55.9861 29.592 55.9102 29.406 55.8569C29.2145 55.802 29.0527 55.7967 28.9225 55.8439C28.8382 55.873 28.7843 55.9297 28.7604 56.0128C28.7384 56.0893 28.7523 56.1637 28.8026 56.2362C28.8658 56.3289 29.0477 56.4588 29.3471 56.6249C29.6468 56.792 29.8619 56.937 29.9931 57.0604C30.1235 57.1844 30.2128 57.3276 30.2605 57.4912C30.3077 57.6546 30.3021 57.8377 30.2438 58.0404C30.1911 58.2245 30.0898 58.3826 29.9397 58.5128C29.7894 58.6439 29.6081 58.7214 29.3955 58.7449C29.1826 58.7691 28.9343 58.7397 28.6504 58.6585C28.2372 58.5401 27.9468 58.3553 27.7794 58.104C27.6117 57.8526 27.5578 57.5408 27.6183 57.1692L27.6186 57.1695ZM30.6294 59.1175L31.2676 55.8342L31.9411 55.965L31.3029 59.2483L30.6294 59.1175ZM32.8644 59.4711L33.2032 56.7132L32.2023 56.5905L32.2712 56.0286L34.9525 56.3577L34.8834 56.9197L33.8847 56.7972L33.546 59.5548L32.8641 59.4711H32.8644ZM35.9849 59.7061L36.0342 58.2989L34.8577 56.3199L35.662 56.3481L36.4154 57.6983L37.2448 56.4033L38.0352 56.4309L36.7186 58.3274L36.6696 59.7296L35.9852 59.7058L35.9849 59.7061ZM39.3485 58.0488C39.2834 57.7141 39.2793 57.4236 39.337 57.1769C39.3807 56.9956 39.4548 56.8248 39.5601 56.6661C39.6658 56.5084 39.7904 56.3819 39.9342 56.2874C40.1255 56.1597 40.3564 56.0704 40.6285 56.0177C41.1204 55.922 41.5429 55.9954 41.8962 56.2384C42.2499 56.4808 42.4786 56.8695 42.5824 57.4035C42.6856 57.9341 42.6193 58.377 42.3844 58.7335C42.1497 59.0893 41.7871 59.3152 41.2974 59.4104C40.8009 59.5068 40.3775 59.4346 40.0266 59.194C39.6757 58.9529 39.4498 58.5708 39.3485 58.0488ZM40.0378 57.8917C40.11 58.2633 40.2529 58.5283 40.4639 58.6864C40.6759 58.8441 40.9162 58.8968 41.1849 58.8444C41.453 58.7924 41.6551 58.6547 41.7905 58.43C41.9253 58.2063 41.956 57.9044 41.8823 57.5238C41.8091 57.1475 41.6706 56.8834 41.4672 56.73C41.2636 56.5778 41.0225 56.5285 40.7451 56.5824C40.4667 56.6364 40.2612 56.7743 40.1276 56.9947C39.9947 57.2147 39.964 57.5135 40.0375 57.8917H40.0378ZM43.5281 58.9123L42.6063 55.6976L44.8472 55.055L45.0034 55.5993L43.423 56.0524L43.6412 56.8131L45.0056 56.4219L45.1618 56.9662L43.7974 57.3573L44.1892 58.7232L43.5287 58.9126L43.5281 58.9123ZM47.8162 57.5467L46.4143 54.5402L47.036 54.2504L48.1999 56.7458L49.7465 56.0246L49.9848 56.5353L47.8162 57.5467ZM53.1584 54.6819L52.5177 55.0668L51.8718 54.5684L50.707 55.2683L50.8583 56.0642L50.2341 56.4393L49.6467 52.8904L50.2688 52.5166L53.1581 54.6822L53.1584 54.6819ZM51.3935 54.199L50.3524 53.3764L50.5982 54.6769L51.3935 54.199ZM54.0451 52.4484L53.6902 52.0101L54.8398 51.0791L55.6782 52.1146C55.6525 52.3117 55.567 52.5364 55.4204 52.7896C55.2731 53.0419 55.0915 53.2564 54.8742 53.4325C54.5981 53.6559 54.3111 53.7945 54.0132 53.8469C53.715 53.8989 53.429 53.8611 53.1534 53.7325C52.8782 53.6039 52.6398 53.4151 52.4378 53.1656C52.2186 52.895 52.0816 52.6074 52.0261 52.3037C51.9716 51.9999 52.0094 51.7021 52.1414 51.4098C52.2406 51.1863 52.4167 50.9724 52.669 50.7682C52.9966 50.5029 53.3081 50.3628 53.6013 50.3488C53.8957 50.3352 54.1657 50.4257 54.4121 50.6222L53.9614 51.1485C53.8204 51.0512 53.6685 51.0068 53.5061 51.0164C53.3437 51.0257 53.1856 51.0924 53.0319 51.217C52.7988 51.4057 52.6727 51.6286 52.6522 51.8852C52.6324 52.1428 52.7387 52.4134 52.9706 52.6998C53.2201 53.0079 53.477 53.1833 53.7417 53.2245C54.0058 53.266 54.2506 53.1951 54.4763 53.0122C54.5882 52.9214 54.6827 52.8089 54.7605 52.675C54.8377 52.5414 54.8916 52.4106 54.9226 52.2841L54.6554 51.9543L54.0448 52.449L54.0451 52.4484ZM55.2251 50.9566C54.9756 50.7242 54.8017 50.4914 54.7035 50.258C54.6322 50.0854 54.5919 49.9037 54.5838 49.7138C54.5767 49.5241 54.603 49.3483 54.6638 49.1875C54.7434 48.9717 54.8779 48.7638 55.0667 48.5611C55.4083 48.1947 55.7932 48.0056 56.2222 47.9945C56.6505 47.9827 57.064 48.1628 57.462 48.5338C57.8571 48.9023 58.0639 49.2997 58.0837 49.7261C58.1029 50.152 57.9424 50.5478 57.6024 50.9126C57.2574 51.2824 56.8722 51.473 56.4472 51.4848C56.0217 51.4959 55.6144 51.3196 55.2251 50.9566ZM55.6906 50.4241C55.9674 50.6823 56.2386 50.8128 56.5027 50.8165C56.7671 50.8196 56.9921 50.7211 57.1787 50.5208C57.365 50.3212 57.4477 50.091 57.4248 49.8297C57.4025 49.5693 57.25 49.3071 56.9661 49.0427C56.6859 48.7814 56.4187 48.6491 56.1642 48.6444C55.9098 48.641 55.686 48.7427 55.4932 48.9494C55.2998 49.1568 55.2146 49.3886 55.2359 49.6456C55.2576 49.9019 55.4086 50.1613 55.6903 50.4241H55.6906ZM58.1795 48.6258L58.54 48.0596C58.7386 48.1646 58.9165 48.2 59.074 48.1665C59.2305 48.133 59.3734 48.0348 59.502 47.8702C59.6381 47.6963 59.7047 47.5364 59.7004 47.3913C59.697 47.2463 59.6471 47.1356 59.5501 47.06C59.4875 47.011 59.4202 46.9884 59.3471 46.9918C59.2742 46.994 59.1856 47.029 59.0811 47.0972C59.0098 47.1431 58.8586 47.258 58.6277 47.44C58.3304 47.6749 58.0843 47.8101 57.8903 47.846C57.6166 47.8978 57.3758 47.842 57.1672 47.679C57.0327 47.5739 56.9375 47.4372 56.8808 47.2686C56.8247 47.1003 56.8229 46.919 56.8752 46.7256C56.9286 46.5322 57.0349 46.3329 57.1954 46.1271C57.4586 45.7902 57.7282 45.5943 58.0062 45.5369C58.2839 45.4808 58.5474 45.5428 58.7963 45.7235L58.3971 46.2823C58.2433 46.1996 58.107 46.1732 57.9886 46.2033C57.8695 46.2328 57.7508 46.3239 57.6321 46.4761C57.5094 46.6332 57.4443 46.7814 57.4387 46.9196C57.4344 47.0085 57.4666 47.0801 57.5345 47.1331C57.5971 47.1821 57.6715 47.197 57.7577 47.1778C57.8674 47.1539 58.0558 47.034 58.3221 46.8182C58.5892 46.6031 58.8043 46.4578 58.968 46.3825C59.132 46.3078 59.2981 46.2786 59.4676 46.2957C59.6369 46.3133 59.8045 46.3871 59.9707 46.517C60.1216 46.6351 60.2304 46.7882 60.2949 46.976C60.3603 47.1645 60.3643 47.3616 60.3063 47.5674C60.249 47.7735 60.1287 47.9929 59.9471 48.2257C59.6824 48.5645 59.4025 48.7647 59.1068 48.8258C58.8112 48.8868 58.5015 48.8199 58.1798 48.6249L58.1795 48.6258Z" fill="#0367B0"/>
<path d="M36.6809 0.000310366C45.1601 0.000310366 52.8365 3.43729 58.3935 8.994C63.9502 14.5507 67.3872 22.2274 67.3872 30.7066C67.3872 39.1858 63.9502 46.8625 58.3935 52.4192C52.8368 57.9759 45.1601 61.4129 36.6809 61.4129C28.2017 61.4129 20.525 57.9759 14.9683 52.4189C9.41159 46.8622 5.97461 39.1855 5.97461 30.7063C5.97461 22.2274 9.41159 14.5507 14.9683 8.99369C20.525 3.43698 28.2017 0 36.6809 0V0.000310366ZM57.7498 9.63775C52.3579 4.24594 44.9087 0.910929 36.6809 0.910929C28.4528 0.910929 21.0039 4.24594 15.6121 9.63775C10.2202 15.0296 6.88522 22.4788 6.88522 30.7066C6.88522 38.9347 10.2202 46.3836 15.6121 51.7755C21.0039 57.1673 28.4531 60.5026 36.6809 60.5026C44.9087 60.5026 52.3579 57.1676 57.7498 51.7758C63.1416 46.384 66.4766 38.9347 66.4766 30.7066C66.4766 22.4788 63.1416 15.0296 57.7498 9.63775Z" fill="#0367B0"/>
<path d="M12.5862 60.6524L14.626 57.9453L15.1724 58.3569L13.1324 61.064L12.5859 60.6524H12.5862ZM13.6435 61.4691L15.6358 58.7267L16.1748 59.1181L15.9668 61.7648L17.2974 59.9336L17.8119 60.3074L15.8196 63.0498L15.2636 62.6456L15.4576 60.0542L14.1583 61.8426L13.6438 61.4688L13.6435 61.4691ZM18.2028 60.5222L19.2749 61.1666C19.5163 61.3116 19.6893 61.4406 19.7943 61.554C19.9347 61.7065 20.0271 61.8835 20.0711 62.0849C20.1161 62.2858 20.1142 62.4987 20.0665 62.7222C20.0178 62.946 19.9121 63.1939 19.7485 63.4664C19.605 63.705 19.4512 63.8938 19.2876 64.0311C19.0883 64.1988 18.8819 64.3079 18.6683 64.3571C18.5071 64.3956 18.3233 64.3903 18.1169 64.3417C17.9629 64.3054 17.7775 64.2214 17.5603 64.0909L16.4568 63.4279L18.2028 60.5225V60.5222ZM18.4938 61.3665L17.3377 63.2903L17.7754 63.5532C17.939 63.6514 18.0627 63.714 18.1473 63.7388C18.2561 63.772 18.3593 63.7797 18.4563 63.7605C18.5533 63.7416 18.6606 63.6778 18.7786 63.5721C18.8958 63.4658 19.0232 63.2999 19.158 63.0752C19.2928 62.8508 19.3759 62.6667 19.4091 62.5226C19.4416 62.3782 19.4425 62.2508 19.4119 62.1414C19.3809 62.0307 19.3173 61.9306 19.2219 61.841C19.1515 61.7728 18.9962 61.6678 18.757 61.5239L18.4938 61.3659V61.3665ZM19.4246 65.0964L20.8032 61.9997L23.099 63.0219L22.8656 63.546L21.195 62.8022L20.8894 63.4887L22.4437 64.1808L22.2116 64.7021L20.6572 64.01L20.2819 64.8528L22.0114 65.6227L21.7789 66.1446L19.424 65.0964H19.4246ZM22.3099 66.3941L23.4136 63.1893L25.7896 64.0072L25.6027 64.5496L23.8738 63.9545L23.6293 64.6649L25.2382 65.2188L25.0523 65.7584L23.4433 65.2045L23.143 66.077L24.9332 66.6935L24.7473 67.2338L22.3102 66.3947L22.3099 66.3941ZM26.2638 64.1597L27.4661 64.5044C27.737 64.5822 27.9375 64.6618 28.068 64.7443C28.2431 64.8552 28.3783 65.0025 28.4728 65.1853C28.5683 65.3679 28.6216 65.5737 28.6334 65.8021C28.6442 66.0312 28.6064 66.2977 28.5187 66.6033C28.4418 66.8711 28.3423 67.093 28.2196 67.2682C28.0705 67.4817 27.8994 67.6401 27.7057 67.743C27.56 67.822 27.3812 67.8642 27.1692 67.8707C27.0111 67.8753 26.8106 67.8425 26.5666 67.7728L25.3293 67.4182L26.2638 64.1597ZM26.7635 64.8999L26.1448 67.0574L26.6355 67.1981C26.8189 67.2508 26.9547 67.279 27.0427 67.2812C27.1565 67.2852 27.2581 67.2657 27.3468 67.2223C27.4357 67.1789 27.5228 67.0896 27.6093 66.957C27.6952 66.824 27.7751 66.6309 27.8473 66.3789C27.9196 66.1269 27.9521 65.928 27.9468 65.7801C27.9406 65.6323 27.909 65.5089 27.8507 65.411C27.7922 65.3121 27.7051 65.2321 27.5898 65.1701C27.5042 65.1227 27.3272 65.061 27.0585 64.9842L26.7635 64.8996V64.8999ZM32.746 68.9217L32.0068 68.8309L31.8069 68.0303L30.462 67.8651L30.0907 68.5957L29.3701 68.5073L31.0937 65.3037L31.8119 65.3921L32.746 68.9217ZM31.6584 67.4374L31.3479 66.1319L30.7401 67.3246L31.6581 67.4374H31.6584ZM33.1393 68.9642L33.4347 65.5876L34.0983 65.6456L35.2832 68.0213L35.4804 65.7665L36.1139 65.822L35.8185 69.1985L35.1338 69.1387L33.9657 66.8175L33.7729 69.0197L33.1393 68.9642ZM36.3736 65.7674L37.6227 65.702C37.9041 65.6871 38.1195 65.6974 38.2702 65.733C38.472 65.781 38.6474 65.8759 38.7965 66.0181C38.9462 66.1598 39.0636 66.3371 39.1489 66.5491C39.2338 66.762 39.2846 67.0264 39.3014 67.3441C39.3159 67.6224 39.2939 67.8648 39.235 68.07C39.1634 68.3204 39.0534 68.5262 38.9037 68.6865C38.7915 68.8086 38.6362 68.9068 38.4379 68.9822C38.2897 69.0383 38.0895 69.0723 37.8363 69.0854L36.5509 69.1529L36.3736 65.7677V65.7674ZM37.0868 66.3045L37.2043 68.5458L37.7141 68.5191C37.9048 68.5092 38.0421 68.4915 38.1264 68.4652C38.2352 68.432 38.325 68.3806 38.3948 68.3105C38.4645 68.2405 38.5181 68.1279 38.5566 67.9742C38.5944 67.8205 38.6071 67.6119 38.5935 67.3503C38.5798 67.0887 38.5457 66.8897 38.4924 66.7518C38.4385 66.6139 38.3681 66.5079 38.2813 66.4341C38.1936 66.3597 38.0855 66.3123 37.9562 66.2915C37.8598 66.2742 37.6723 66.2739 37.3933 66.2887L37.0868 66.3048V66.3045ZM41.2652 68.8467L40.852 65.4823L41.5311 65.3989L41.9443 68.7633L41.2652 68.8467ZM42.557 68.6772L41.9102 65.3499L42.5639 65.2228L44.3578 67.1801L43.9258 64.9581L44.5503 64.8369L45.1971 68.1642L44.5224 68.2953L42.7597 66.3861L43.1816 68.556L42.557 68.6775V68.6772ZM47.9405 67.4656L46.9775 64.8196L46.0328 65.1633L45.8366 64.6243L48.3676 63.7032L48.5638 64.2422L47.6212 64.5853L48.5842 67.2313L47.9408 67.4656H47.9405ZM49.9263 66.7732L48.7116 63.6086L50.0571 63.0923C50.3952 62.9624 50.6519 62.897 50.8267 62.8948C51.0018 62.8927 51.1636 62.9466 51.3115 63.0563C51.4596 63.1666 51.5687 63.3151 51.6406 63.502C51.7317 63.7394 51.7373 63.9629 51.6573 64.1712C51.5771 64.3785 51.4054 64.5571 51.1431 64.7034C51.3127 64.7313 51.4608 64.7759 51.5879 64.8379C51.7147 64.8999 51.9013 65.0245 52.1483 65.212L52.7722 65.6809L52.0082 65.9741L51.2817 65.4624C51.0229 65.2795 50.8515 65.1677 50.7666 65.1267C50.6816 65.0861 50.6007 65.0669 50.5239 65.0688C50.447 65.0713 50.3357 65.1004 50.1882 65.1571L50.0593 65.2064L50.5663 66.5274L49.9269 66.7729L49.9263 66.7732ZM49.8646 64.7012L50.337 64.5199C50.6435 64.4021 50.8301 64.3162 50.8971 64.2611C50.9631 64.2062 51.0055 64.1383 51.0247 64.0584C51.043 63.9787 51.035 63.8913 50.9984 63.7962C50.9575 63.6892 50.8958 63.6148 50.814 63.5711C50.7322 63.5274 50.6361 63.5169 50.5254 63.5389C50.4715 63.5522 50.3144 63.6083 50.0552 63.7075L49.5572 63.8987L49.8652 64.7012H49.8646ZM51.5498 62.4445L52.1595 62.1339L52.9929 63.7695C53.1249 64.0289 53.2188 64.1938 53.2728 64.2629C53.3617 64.3736 53.4749 64.4408 53.6106 64.4656C53.7473 64.4907 53.9007 64.4594 54.0709 64.373C54.2438 64.2846 54.3567 64.183 54.4084 64.067C54.4605 63.9521 54.4686 63.8377 54.4338 63.7261C54.3994 63.6136 54.3207 63.4385 54.1992 63.1992L53.3481 61.5283L53.9578 61.2177L54.7661 62.804C54.9508 63.167 55.0652 63.431 55.1083 63.5978C55.1517 63.7645 55.1554 63.9211 55.1194 64.0698C55.0832 64.2177 55.0063 64.3603 54.8898 64.4969C54.7726 64.6336 54.5938 64.7629 54.3548 64.8847C54.0666 65.0316 53.831 65.11 53.6478 65.119C53.4646 65.1283 53.3031 65.1016 53.1624 65.0393C53.0217 64.9774 52.908 64.8943 52.8209 64.7917C52.6926 64.6389 52.5429 64.394 52.3705 64.0556L51.5498 62.4445ZM56.8024 63.5008L55.2688 61.1393L54.4258 61.687L54.113 61.2059L56.3722 59.739L56.6847 60.2203L55.8432 60.7667L57.3768 63.1282L56.8021 63.5014L56.8024 63.5008ZM58.5732 62.3376L56.5808 59.5952L57.135 59.1925L57.9189 60.2714L59.0037 59.4833L58.2195 58.4043L58.7731 58.002L60.7654 60.7444L60.2118 61.1467L59.3406 59.9476L58.2558 60.7357L59.127 61.9349L58.5728 62.3376H58.5732Z" fill="#0367B0"/>
<path d="M95.4764 31.216C94.5764 31.216 93.7604 31.042 93.0284 30.694C92.3084 30.334 91.7324 29.788 91.3004 29.056C90.8804 28.324 90.6704 27.394 90.6704 26.266V18.4H92.5784V26.284C92.5784 27.388 92.8424 28.198 93.3704 28.714C93.8984 29.23 94.6124 29.488 95.5124 29.488C96.4004 29.488 97.1084 29.23 97.6364 28.714C98.1644 28.198 98.4284 27.388 98.4284 26.284V18.4H100.336V26.266C100.336 27.394 100.114 28.324 99.6704 29.056C99.2384 29.788 98.6504 30.334 97.9064 30.694C97.1744 31.042 96.3644 31.216 95.4764 31.216ZM102.712 31V22.072H104.404L104.548 23.638C104.824 23.086 105.226 22.654 105.754 22.342C106.294 22.018 106.912 21.856 107.608 21.856C108.688 21.856 109.534 22.192 110.146 22.864C110.77 23.536 111.082 24.538 111.082 25.87V31H109.192V26.068C109.192 24.34 108.484 23.476 107.068 23.476C106.36 23.476 105.772 23.728 105.304 24.232C104.848 24.736 104.62 25.456 104.62 26.392V31H102.712ZM114.409 20.38C114.049 20.38 113.749 20.272 113.509 20.056C113.281 19.828 113.167 19.546 113.167 19.21C113.167 18.874 113.281 18.598 113.509 18.382C113.749 18.154 114.049 18.04 114.409 18.04C114.769 18.04 115.063 18.154 115.291 18.382C115.531 18.598 115.651 18.874 115.651 19.21C115.651 19.546 115.531 19.828 115.291 20.056C115.063 20.272 114.769 20.38 114.409 20.38ZM113.455 31V22.072H115.363V31H113.455ZM120.384 31L117.036 22.072H119.034L121.518 29.182L124.002 22.072H125.982L122.652 31H120.384ZM131.269 31.216C130.393 31.216 129.613 31.024 128.929 30.64C128.257 30.244 127.729 29.698 127.345 29.002C126.961 28.306 126.769 27.496 126.769 26.572C126.769 25.636 126.955 24.814 127.327 24.106C127.711 23.398 128.239 22.846 128.911 22.45C129.595 22.054 130.387 21.856 131.287 21.856C132.163 21.856 132.925 22.054 133.573 22.45C134.221 22.834 134.725 23.35 135.085 23.998C135.445 24.646 135.625 25.36 135.625 26.14C135.625 26.26 135.619 26.392 135.607 26.536C135.607 26.668 135.601 26.818 135.589 26.986H128.641C128.701 27.85 128.983 28.51 129.487 28.966C130.003 29.41 130.597 29.632 131.269 29.632C131.809 29.632 132.259 29.512 132.619 29.272C132.991 29.02 133.267 28.684 133.447 28.264H135.355C135.115 29.104 134.635 29.806 133.915 30.37C133.207 30.934 132.325 31.216 131.269 31.216ZM131.269 23.422C130.633 23.422 130.069 23.614 129.577 23.998C129.085 24.37 128.785 24.934 128.677 25.69H133.717C133.681 24.994 133.435 24.442 132.979 24.034C132.523 23.626 131.953 23.422 131.269 23.422ZM137.604 31V22.072H139.314L139.476 23.764C139.788 23.176 140.22 22.714 140.772 22.378C141.336 22.03 142.014 21.856 142.806 21.856V23.854H142.284C141.756 23.854 141.282 23.944 140.862 24.124C140.454 24.292 140.124 24.586 139.872 25.006C139.632 25.414 139.512 25.984 139.512 26.716V31H137.604ZM148.006 31.216C146.878 31.216 145.948 30.94 145.216 30.388C144.484 29.836 144.064 29.104 143.956 28.192H145.882C145.978 28.6 146.206 28.954 146.566 29.254C146.926 29.542 147.4 29.686 147.988 29.686C148.564 29.686 148.984 29.566 149.248 29.326C149.512 29.086 149.644 28.81 149.644 28.498C149.644 28.042 149.458 27.736 149.086 27.58C148.726 27.412 148.222 27.262 147.574 27.13C147.07 27.022 146.566 26.878 146.062 26.698C145.57 26.518 145.156 26.266 144.82 25.942C144.496 25.606 144.334 25.156 144.334 24.592C144.334 23.812 144.634 23.164 145.234 22.648C145.834 22.12 146.674 21.856 147.754 21.856C148.75 21.856 149.554 22.096 150.166 22.576C150.79 23.056 151.156 23.734 151.264 24.61H149.428C149.368 24.226 149.188 23.926 148.888 23.71C148.6 23.494 148.21 23.386 147.718 23.386C147.238 23.386 146.866 23.488 146.602 23.692C146.338 23.884 146.206 24.136 146.206 24.448C146.206 24.76 146.386 25.006 146.746 25.186C147.118 25.366 147.604 25.528 148.204 25.672C148.804 25.804 149.356 25.96 149.86 26.14C150.376 26.308 150.79 26.56 151.102 26.896C151.414 27.232 151.57 27.724 151.57 28.372C151.582 29.188 151.264 29.866 150.616 30.406C149.98 30.946 149.11 31.216 148.006 31.216ZM154.733 20.38C154.373 20.38 154.073 20.272 153.833 20.056C153.605 19.828 153.491 19.546 153.491 19.21C153.491 18.874 153.605 18.598 153.833 18.382C154.073 18.154 154.373 18.04 154.733 18.04C155.093 18.04 155.387 18.154 155.615 18.382C155.855 18.598 155.975 18.874 155.975 19.21C155.975 19.546 155.855 19.828 155.615 20.056C155.387 20.272 155.093 20.38 154.733 20.38ZM153.779 31V22.072H155.687V31H153.779ZM161.95 31C161.074 31 160.378 30.79 159.862 30.37C159.346 29.938 159.088 29.176 159.088 28.084V23.674H157.558V22.072H159.088L159.322 19.804H160.996V22.072H163.516V23.674H160.996V28.084C160.996 28.576 161.098 28.918 161.302 29.11C161.518 29.29 161.884 29.38 162.4 29.38H163.426V31H161.95ZM166.527 34.96L168.669 30.262H168.147L164.619 22.072H166.689L169.425 28.678L172.287 22.072H174.303L168.543 34.96H166.527ZM94.8644 54.216C94.0124 54.216 93.2444 54.024 92.5604 53.64C91.8884 53.244 91.3544 52.698 90.9584 52.002C90.5624 51.294 90.3644 50.472 90.3644 49.536C90.3644 48.6 90.5624 47.784 90.9584 47.088C91.3664 46.38 91.9124 45.834 92.5964 45.45C93.2804 45.054 94.0424 44.856 94.8824 44.856C95.7344 44.856 96.4964 45.054 97.1684 45.45C97.8524 45.834 98.3924 46.38 98.7884 47.088C99.1964 47.784 99.4004 48.6 99.4004 49.536C99.4004 50.472 99.1964 51.294 98.7884 52.002C98.3924 52.698 97.8524 53.244 97.1684 53.64C96.4844 54.024 95.7164 54.216 94.8644 54.216ZM94.8644 52.578C95.3204 52.578 95.7404 52.464 96.1244 52.236C96.5204 52.008 96.8384 51.672 97.0784 51.228C97.3184 50.772 97.4384 50.208 97.4384 49.536C97.4384 48.864 97.3184 48.306 97.0784 47.862C96.8504 47.406 96.5384 47.064 96.1424 46.836C95.7584 46.608 95.3384 46.494 94.8824 46.494C94.4264 46.494 94.0004 46.608 93.6044 46.836C93.2204 47.064 92.9084 47.406 92.6684 47.862C92.4284 48.306 92.3084 48.864 92.3084 49.536C92.3084 50.208 92.4284 50.772 92.6684 51.228C92.9084 51.672 93.2204 52.008 93.6044 52.236C93.9884 52.464 94.4084 52.578 94.8644 52.578ZM101.914 54V46.674H100.636V45.072H101.914V43.776C101.914 42.804 102.154 42.108 102.634 41.688C103.126 41.256 103.816 41.04 104.704 41.04H105.64V42.66H104.992C104.572 42.66 104.272 42.75 104.092 42.93C103.912 43.098 103.822 43.386 103.822 43.794V45.072H105.874V46.674H103.822V54H101.914ZM112.294 54V41.4H114.202V52.488H119.926V54H112.294ZM124.931 54.216C124.175 54.216 123.551 54.09 123.059 53.838C122.567 53.586 122.201 53.256 121.961 52.848C121.721 52.428 121.601 51.972 121.601 51.48C121.601 50.616 121.937 49.932 122.609 49.428C123.281 48.924 124.241 48.672 125.489 48.672H127.829V48.51C127.829 47.814 127.637 47.292 127.253 46.944C126.881 46.596 126.395 46.422 125.795 46.422C125.267 46.422 124.805 46.554 124.409 46.818C124.025 47.07 123.791 47.448 123.707 47.952H121.799C121.859 47.304 122.075 46.752 122.447 46.296C122.831 45.828 123.311 45.474 123.887 45.234C124.475 44.982 125.117 44.856 125.813 44.856C127.061 44.856 128.027 45.186 128.711 45.846C129.395 46.494 129.737 47.382 129.737 48.51V54H128.081L127.919 52.47C127.667 52.962 127.301 53.376 126.821 53.712C126.341 54.048 125.711 54.216 124.931 54.216ZM125.309 52.668C125.825 52.668 126.257 52.548 126.605 52.308C126.965 52.056 127.241 51.726 127.433 51.318C127.637 50.91 127.763 50.46 127.811 49.968H125.687C124.931 49.968 124.391 50.1 124.067 50.364C123.755 50.628 123.599 50.958 123.599 51.354C123.599 51.762 123.749 52.086 124.049 52.326C124.361 52.554 124.781 52.668 125.309 52.668ZM135.616 51.264C135.148 51.264 134.716 51.21 134.32 51.102L133.546 51.858C133.678 51.942 133.84 52.014 134.032 52.074C134.224 52.134 134.494 52.188 134.842 52.236C135.19 52.284 135.664 52.332 136.264 52.38C137.452 52.488 138.31 52.776 138.838 53.244C139.366 53.7 139.63 54.312 139.63 55.08C139.63 55.608 139.486 56.106 139.198 56.574C138.922 57.054 138.484 57.438 137.884 57.726C137.296 58.026 136.54 58.176 135.616 58.176C134.368 58.176 133.354 57.936 132.574 57.456C131.806 56.988 131.422 56.274 131.422 55.314C131.422 54.942 131.518 54.57 131.71 54.198C131.914 53.838 132.232 53.496 132.664 53.172C132.412 53.064 132.19 52.95 131.998 52.83C131.818 52.698 131.656 52.566 131.512 52.434V52.002L133.06 50.418C132.364 49.818 132.016 49.032 132.016 48.06C132.016 47.472 132.154 46.938 132.43 46.458C132.718 45.966 133.132 45.576 133.672 45.288C134.212 45 134.86 44.856 135.616 44.856C136.12 44.856 136.588 44.928 137.02 45.072H140.35V46.332L138.766 46.422C139.054 46.914 139.198 47.46 139.198 48.06C139.198 48.66 139.054 49.2 138.766 49.68C138.49 50.16 138.082 50.544 137.542 50.832C137.014 51.12 136.372 51.264 135.616 51.264ZM135.616 49.77C136.168 49.77 136.612 49.626 136.948 49.338C137.296 49.038 137.47 48.618 137.47 48.078C137.47 47.526 137.296 47.106 136.948 46.818C136.612 46.53 136.168 46.386 135.616 46.386C135.052 46.386 134.596 46.53 134.248 46.818C133.912 47.106 133.744 47.526 133.744 48.078C133.744 48.618 133.912 49.038 134.248 49.338C134.596 49.626 135.052 49.77 135.616 49.77ZM133.222 55.134C133.222 55.65 133.45 56.034 133.906 56.286C134.362 56.55 134.932 56.682 135.616 56.682C136.276 56.682 136.81 56.538 137.218 56.25C137.626 55.974 137.83 55.602 137.83 55.134C137.83 54.786 137.692 54.486 137.416 54.234C137.14 53.994 136.618 53.844 135.85 53.784C135.274 53.748 134.764 53.694 134.32 53.622C133.9 53.85 133.612 54.096 133.456 54.36C133.3 54.624 133.222 54.882 133.222 55.134ZM145.876 54.216C145.024 54.216 144.256 54.024 143.572 53.64C142.9 53.244 142.366 52.698 141.97 52.002C141.574 51.294 141.376 50.472 141.376 49.536C141.376 48.6 141.574 47.784 141.97 47.088C142.378 46.38 142.924 45.834 143.608 45.45C144.292 45.054 145.054 44.856 145.894 44.856C146.746 44.856 147.508 45.054 148.18 45.45C148.864 45.834 149.404 46.38 149.8 47.088C150.208 47.784 150.412 48.6 150.412 49.536C150.412 50.472 150.208 51.294 149.8 52.002C149.404 52.698 148.864 53.244 148.18 53.64C147.496 54.024 146.728 54.216 145.876 54.216ZM145.876 52.578C146.332 52.578 146.752 52.464 147.136 52.236C147.532 52.008 147.85 51.672 148.09 51.228C148.33 50.772 148.45 50.208 148.45 49.536C148.45 48.864 148.33 48.306 148.09 47.862C147.862 47.406 147.55 47.064 147.154 46.836C146.77 46.608 146.35 46.494 145.894 46.494C145.438 46.494 145.012 46.608 144.616 46.836C144.232 47.064 143.92 47.406 143.68 47.862C143.44 48.306 143.32 48.864 143.32 49.536C143.32 50.208 143.44 50.772 143.68 51.228C143.92 51.672 144.232 52.008 144.616 52.236C145 52.464 145.42 52.578 145.876 52.578ZM156.04 54.216C154.912 54.216 153.982 53.94 153.25 53.388C152.518 52.836 152.098 52.104 151.99 51.192H153.916C154.012 51.6 154.24 51.954 154.6 52.254C154.96 52.542 155.434 52.686 156.022 52.686C156.598 52.686 157.018 52.566 157.282 52.326C157.546 52.086 157.678 51.81 157.678 51.498C157.678 51.042 157.492 50.736 157.12 50.58C156.76 50.412 156.256 50.262 155.608 50.13C155.104 50.022 154.6 49.878 154.096 49.698C153.604 49.518 153.19 49.266 152.854 48.942C152.53 48.606 152.368 48.156 152.368 47.592C152.368 46.812 152.668 46.164 153.268 45.648C153.868 45.12 154.708 44.856 155.788 44.856C156.784 44.856 157.588 45.096 158.2 45.576C158.824 46.056 159.19 46.734 159.298 47.61H157.462C157.402 47.226 157.222 46.926 156.922 46.71C156.634 46.494 156.244 46.386 155.752 46.386C155.272 46.386 154.9 46.488 154.636 46.692C154.372 46.884 154.24 47.136 154.24 47.448C154.24 47.76 154.42 48.006 154.78 48.186C155.152 48.366 155.638 48.528 156.238 48.672C156.838 48.804 157.39 48.96 157.894 49.14C158.41 49.308 158.824 49.56 159.136 49.896C159.448 50.232 159.604 50.724 159.604 51.372C159.616 52.188 159.298 52.866 158.65 53.406C158.014 53.946 157.144 54.216 156.04 54.216Z" fill="#05090D"/>
</svg>
