<svg width="182" height="72" viewBox="0 0 182 72" fill="none" xmlns="http://www.w3.org/2000/svg">
<path d="M74.5163 31V18.4H76.7663L81.0323 26.788L85.2803 18.4H87.5303V31H85.6223V21.694L81.7703 29.2H80.2943L76.4243 21.712V31H74.5163ZM94.2485 31.216C93.3725 31.216 92.5865 31.018 91.8905 30.622C91.2065 30.226 90.6665 29.68 90.2705 28.984C89.8865 28.276 89.6945 27.46 89.6945 26.536C89.6945 25.612 89.8865 24.802 90.2705 24.106C90.6665 23.398 91.2065 22.846 91.8905 22.45C92.5865 22.054 93.3725 21.856 94.2485 21.856C95.3525 21.856 96.2765 22.144 97.0205 22.72C97.7765 23.296 98.2625 24.076 98.4785 25.06H96.4805C96.3605 24.568 96.0965 24.184 95.6885 23.908C95.2805 23.632 94.8005 23.494 94.2485 23.494C93.7805 23.494 93.3485 23.614 92.9525 23.854C92.5565 24.082 92.2385 24.424 91.9985 24.88C91.7585 25.324 91.6385 25.876 91.6385 26.536C91.6385 27.196 91.7585 27.754 91.9985 28.21C92.2385 28.654 92.5565 28.996 92.9525 29.236C93.3485 29.476 93.7805 29.596 94.2485 29.596C94.8005 29.596 95.2805 29.458 95.6885 29.182C96.0965 28.906 96.3605 28.516 96.4805 28.012H98.4785C98.2745 28.972 97.7945 29.746 97.0385 30.334C96.2825 30.922 95.3525 31.216 94.2485 31.216ZM100.548 31V18.04H102.456V25.762L105.876 22.072H108.162L104.364 26.122L108.72 31H106.308L102.456 26.428V31H100.548ZM113.689 31.216C112.813 31.216 112.033 31.024 111.349 30.64C110.677 30.244 110.149 29.698 109.765 29.002C109.381 28.306 109.189 27.496 109.189 26.572C109.189 25.636 109.375 24.814 109.747 24.106C110.131 23.398 110.659 22.846 111.331 22.45C112.015 22.054 112.807 21.856 113.707 21.856C114.583 21.856 115.345 22.054 115.993 22.45C116.641 22.834 117.145 23.35 117.505 23.998C117.865 24.646 118.045 25.36 118.045 26.14C118.045 26.26 118.039 26.392 118.027 26.536C118.027 26.668 118.021 26.818 118.009 26.986H111.061C111.121 27.85 111.403 28.51 111.907 28.966C112.423 29.41 113.017 29.632 113.689 29.632C114.229 29.632 114.679 29.512 115.039 29.272C115.411 29.02 115.687 28.684 115.867 28.264H117.775C117.535 29.104 117.055 29.806 116.335 30.37C115.627 30.934 114.745 31.216 113.689 31.216ZM113.689 23.422C113.053 23.422 112.489 23.614 111.997 23.998C111.505 24.37 111.205 24.934 111.097 25.69H116.137C116.101 24.994 115.855 24.442 115.399 24.034C114.943 23.626 114.373 23.422 113.689 23.422ZM120.024 31V22.072H121.716L121.86 23.638C122.136 23.086 122.538 22.654 123.066 22.342C123.606 22.018 124.224 21.856 124.92 21.856C126 21.856 126.846 22.192 127.458 22.864C128.082 23.536 128.394 24.538 128.394 25.87V31H126.504V26.068C126.504 24.34 125.796 23.476 124.38 23.476C123.672 23.476 123.084 23.728 122.616 24.232C122.16 24.736 121.932 25.456 121.932 26.392V31H120.024ZM132.424 31L129.796 22.072H131.704L133.432 28.804L135.376 22.072H137.5L139.444 28.804L141.172 22.072H143.08L140.452 31H138.49L136.438 23.98L134.386 31H132.424ZM145.731 20.38C145.371 20.38 145.071 20.272 144.831 20.056C144.603 19.828 144.489 19.546 144.489 19.21C144.489 18.874 144.603 18.598 144.831 18.382C145.071 18.154 145.371 18.04 145.731 18.04C146.091 18.04 146.385 18.154 146.613 18.382C146.853 18.598 146.973 18.874 146.973 19.21C146.973 19.546 146.853 19.828 146.613 20.056C146.385 20.272 146.091 20.38 145.731 20.38ZM144.777 31V22.072H146.685V31H144.777ZM149.204 31V22.072H150.896L151.04 23.638C151.316 23.086 151.718 22.654 152.246 22.342C152.786 22.018 153.404 21.856 154.1 21.856C155.18 21.856 156.026 22.192 156.638 22.864C157.262 23.536 157.574 24.538 157.574 25.87V31H155.684V26.068C155.684 24.34 154.976 23.476 153.56 23.476C152.852 23.476 152.264 23.728 151.796 24.232C151.34 24.736 151.112 25.456 151.112 26.392V31H149.204ZM74.5163 54V41.4H76.4243V54H74.5163ZM78.9091 54V45.072H80.6011L80.7451 46.638C81.0211 46.086 81.4231 45.654 81.9511 45.342C82.4911 45.018 83.1091 44.856 83.8051 44.856C84.8851 44.856 85.7311 45.192 86.3431 45.864C86.9671 46.536 87.2791 47.538 87.2791 48.87V54H85.3891V49.068C85.3891 47.34 84.6811 46.476 83.2651 46.476C82.5571 46.476 81.9691 46.728 81.5011 47.232C81.0451 47.736 80.8171 48.456 80.8171 49.392V54H78.9091ZM93.2703 54C92.3943 54 91.6983 53.79 91.1823 53.37C90.6663 52.938 90.4083 52.176 90.4083 51.084V46.674H88.8783V45.072H90.4083L90.6423 42.804H92.3163V45.072H94.8363V46.674H92.3163V51.084C92.3163 51.576 92.4183 51.918 92.6223 52.11C92.8383 52.29 93.2043 52.38 93.7203 52.38H94.7463V54H93.2703ZM100.751 54.216C99.8751 54.216 99.0951 54.024 98.4111 53.64C97.7391 53.244 97.2111 52.698 96.8271 52.002C96.4431 51.306 96.2511 50.496 96.2511 49.572C96.2511 48.636 96.4371 47.814 96.8091 47.106C97.1931 46.398 97.7211 45.846 98.3931 45.45C99.0771 45.054 99.8691 44.856 100.769 44.856C101.645 44.856 102.407 45.054 103.055 45.45C103.703 45.834 104.207 46.35 104.567 46.998C104.927 47.646 105.107 48.36 105.107 49.14C105.107 49.26 105.101 49.392 105.089 49.536C105.089 49.668 105.083 49.818 105.071 49.986H98.1231C98.1831 50.85 98.4651 51.51 98.9691 51.966C99.4851 52.41 100.079 52.632 100.751 52.632C101.291 52.632 101.741 52.512 102.101 52.272C102.473 52.02 102.749 51.684 102.929 51.264H104.837C104.597 52.104 104.117 52.806 103.397 53.37C102.689 53.934 101.807 54.216 100.751 54.216ZM100.751 46.422C100.115 46.422 99.5511 46.614 99.0591 46.998C98.5671 47.37 98.2671 47.934 98.1591 48.69H103.199C103.163 47.994 102.917 47.442 102.461 47.034C102.005 46.626 101.435 46.422 100.751 46.422ZM107.087 54V45.072H108.797L108.959 46.764C109.271 46.176 109.703 45.714 110.255 45.378C110.819 45.03 111.497 44.856 112.289 44.856V46.854H111.767C111.239 46.854 110.765 46.944 110.345 47.124C109.937 47.292 109.607 47.586 109.355 48.006C109.115 48.414 108.995 48.984 108.995 49.716V54H107.087ZM113.925 54V45.072H115.617L115.761 46.638C116.037 46.086 116.439 45.654 116.967 45.342C117.507 45.018 118.125 44.856 118.821 44.856C119.901 44.856 120.747 45.192 121.359 45.864C121.983 46.536 122.295 47.538 122.295 48.87V54H120.405V49.068C120.405 47.34 119.697 46.476 118.281 46.476C117.573 46.476 116.985 46.728 116.517 47.232C116.061 47.736 115.833 48.456 115.833 49.392V54H113.925ZM127.566 54.216C126.81 54.216 126.186 54.09 125.694 53.838C125.202 53.586 124.836 53.256 124.596 52.848C124.356 52.428 124.236 51.972 124.236 51.48C124.236 50.616 124.572 49.932 125.244 49.428C125.916 48.924 126.876 48.672 128.124 48.672H130.464V48.51C130.464 47.814 130.272 47.292 129.888 46.944C129.516 46.596 129.03 46.422 128.43 46.422C127.902 46.422 127.44 46.554 127.044 46.818C126.66 47.07 126.426 47.448 126.342 47.952H124.434C124.494 47.304 124.71 46.752 125.082 46.296C125.466 45.828 125.946 45.474 126.522 45.234C127.11 44.982 127.752 44.856 128.448 44.856C129.696 44.856 130.662 45.186 131.346 45.846C132.03 46.494 132.372 47.382 132.372 48.51V54H130.716L130.554 52.47C130.302 52.962 129.936 53.376 129.456 53.712C128.976 54.048 128.346 54.216 127.566 54.216ZM127.944 52.668C128.46 52.668 128.892 52.548 129.24 52.308C129.6 52.056 129.876 51.726 130.068 51.318C130.272 50.91 130.398 50.46 130.446 49.968H128.322C127.566 49.968 127.026 50.1 126.702 50.364C126.39 50.628 126.234 50.958 126.234 51.354C126.234 51.762 126.384 52.086 126.684 52.326C126.996 52.554 127.416 52.668 127.944 52.668ZM138.165 54C137.289 54 136.593 53.79 136.077 53.37C135.561 52.938 135.303 52.176 135.303 51.084V46.674H133.773V45.072H135.303L135.537 42.804H137.211V45.072H139.731V46.674H137.211V51.084C137.211 51.576 137.313 51.918 137.517 52.11C137.733 52.29 138.099 52.38 138.615 52.38H139.641V54H138.165ZM142.778 43.38C142.418 43.38 142.118 43.272 141.878 43.056C141.65 42.828 141.536 42.546 141.536 42.21C141.536 41.874 141.65 41.598 141.878 41.382C142.118 41.154 142.418 41.04 142.778 41.04C143.138 41.04 143.432 41.154 143.66 41.382C143.9 41.598 144.02 41.874 144.02 42.21C144.02 42.546 143.9 42.828 143.66 43.056C143.432 43.272 143.138 43.38 142.778 43.38ZM141.824 54V45.072H143.732V54H141.824ZM150.427 54.216C149.575 54.216 148.807 54.024 148.123 53.64C147.451 53.244 146.917 52.698 146.521 52.002C146.125 51.294 145.927 50.472 145.927 49.536C145.927 48.6 146.125 47.784 146.521 47.088C146.929 46.38 147.475 45.834 148.159 45.45C148.843 45.054 149.605 44.856 150.445 44.856C151.297 44.856 152.059 45.054 152.731 45.45C153.415 45.834 153.955 46.38 154.351 47.088C154.759 47.784 154.963 48.6 154.963 49.536C154.963 50.472 154.759 51.294 154.351 52.002C153.955 52.698 153.415 53.244 152.731 53.64C152.047 54.024 151.279 54.216 150.427 54.216ZM150.427 52.578C150.883 52.578 151.303 52.464 151.687 52.236C152.083 52.008 152.401 51.672 152.641 51.228C152.881 50.772 153.001 50.208 153.001 49.536C153.001 48.864 152.881 48.306 152.641 47.862C152.413 47.406 152.101 47.064 151.705 46.836C151.321 46.608 150.901 46.494 150.445 46.494C149.989 46.494 149.563 46.608 149.167 46.836C148.783 47.064 148.471 47.406 148.231 47.862C147.991 48.306 147.871 48.864 147.871 49.536C147.871 50.208 147.991 50.772 148.231 51.228C148.471 51.672 148.783 52.008 149.167 52.236C149.551 52.464 149.971 52.578 150.427 52.578ZM157.026 54V45.072H158.718L158.862 46.638C159.138 46.086 159.54 45.654 160.068 45.342C160.608 45.018 161.226 44.856 161.922 44.856C163.002 44.856 163.848 45.192 164.46 45.864C165.084 46.536 165.396 47.538 165.396 48.87V54H163.506V49.068C163.506 47.34 162.798 46.476 161.382 46.476C160.674 46.476 160.086 46.728 159.618 47.232C159.162 47.736 158.934 48.456 158.934 49.392V54H157.026ZM170.668 54.216C169.912 54.216 169.288 54.09 168.796 53.838C168.304 53.586 167.938 53.256 167.698 52.848C167.458 52.428 167.338 51.972 167.338 51.48C167.338 50.616 167.674 49.932 168.346 49.428C169.018 48.924 169.978 48.672 171.226 48.672H173.566V48.51C173.566 47.814 173.374 47.292 172.99 46.944C172.618 46.596 172.132 46.422 171.532 46.422C171.004 46.422 170.542 46.554 170.146 46.818C169.762 47.07 169.528 47.448 169.444 47.952H167.536C167.596 47.304 167.812 46.752 168.184 46.296C168.568 45.828 169.048 45.474 169.624 45.234C170.212 44.982 170.854 44.856 171.55 44.856C172.798 44.856 173.764 45.186 174.448 45.846C175.132 46.494 175.474 47.382 175.474 48.51V54H173.818L173.656 52.47C173.404 52.962 173.038 53.376 172.558 53.712C172.078 54.048 171.448 54.216 170.668 54.216ZM171.046 52.668C171.562 52.668 171.994 52.548 172.342 52.308C172.702 52.056 172.978 51.726 173.17 51.318C173.374 50.91 173.5 50.46 173.548 49.968H171.424C170.668 49.968 170.128 50.1 169.804 50.364C169.492 50.628 169.336 50.958 169.336 51.354C169.336 51.762 169.486 52.086 169.786 52.326C170.098 52.554 170.518 52.668 171.046 52.668ZM177.698 54V41.04H179.606V54H177.698Z" fill="#05090D"/>
<path fill-rule="evenodd" clip-rule="evenodd" d="M36.6742 27.3698C36.5666 26.7249 36.876 25.4997 37.0922 24.9458C37.3242 24.3515 37.861 23.5528 38.56 23.5694C38.8738 23.2879 39.8717 23.5173 40.1647 23.7102C41.2694 24.4373 41.1345 27.1012 41.1486 28.4344C41.2029 33.539 41.0901 38.5916 41.1269 43.6644C41.1451 46.1782 41.2097 48.7866 41.1324 51.2924L41.1288 62.8174C41.776 62.9441 46.6337 62.7834 46.9201 62.8491C47.1073 62.892 46.9801 62.8171 47.0988 62.9391L47.1105 70.5485L40.815 70.5546L34.4744 70.5574L32.8525 70.5632L13.9302 70.5711L12.0271 70.5728L10.373 70.5594L10.3224 62.808L10.6255 62.8094L12.4045 62.8237L13.9993 62.8303L16.0918 62.8219L16.1385 60.1923L16.1429 52.3732C16.1602 51.6538 16.0448 49.4971 16.1805 48.9788C16.0698 48.7642 16.1204 32.5172 16.0637 29.4619L16.1599 26.842C16.1625 26.8182 16.172 26.8123 16.1806 26.7989C16.1037 26.3861 16.3153 25.61 16.4521 25.2118C17.2232 22.9671 19.1703 23.2982 19.8146 23.8768C20.8851 24.8382 20.5974 28.5439 20.6195 30.319L20.6095 34.3308L20.5924 43.9034L20.5919 58.301L20.6255 62.8205L36.6585 62.8416C36.7107 61.5863 36.72 60.3291 36.72 59.0758C36.7201 58.1927 36.5818 55.9729 36.7241 55.2584C36.583 54.9532 36.6591 42.7294 36.6642 41.247C36.6691 39.8489 36.5634 27.5426 36.6742 27.3698L36.6742 27.3698ZM41.6828 1.40988L47.114 1.4188L47.1067 8.18141C45.5197 8.03673 44.2876 7.59375 42.5733 7.5884C41.7488 7.58583 40.8978 7.61481 40.0762 7.69096C39.5507 7.73965 38.2045 8.00879 37.8527 7.98042C37.7932 8.02937 37.8366 8.01044 37.732 8.05683C37.691 8.07497 37.6045 8.09081 37.5602 8.1013C35.5477 8.49702 33.6019 9.79462 32.1818 11.0332C31.9373 11.2464 30.8893 12.2822 30.7471 12.329C30.64 12.5828 30.73 12.4005 30.5785 12.575C30.5241 12.6376 30.5057 12.6527 30.4399 12.7356C30.3521 12.8461 30.2597 12.9588 30.1722 13.0721C29.786 13.5714 28.8709 14.9482 28.5323 15.0749C28.1587 14.5866 27.8815 13.9921 27.1832 13.1227C24.3545 9.60102 21.0246 7.69479 16.163 7.60132C12.482 7.53052 12.6249 8.11927 10.3295 8.37505L10.3428 1.39883L41.6828 1.40988H41.6828ZM0.0636295 32.7457L0.0533166 34.1081L0.0418723 37.3183L0.0417854 37.4392L0.028731 41.9121L0.0369117 60.1029L0.0919138 62.8174C0.580014 62.8777 5.85957 62.8429 6.79478 62.8402C7.15734 62.8391 7.52003 62.8407 7.88263 62.8398L8.7309 62.838C9.07793 62.8791 8.84922 62.8195 8.96192 62.9205C9.07532 63.1227 9.0989 64.4857 9.03537 64.7936C9.18001 65.1448 9.23045 68.635 9.26156 69.3476C9.28271 69.8314 9.23793 71.2766 9.44528 71.5948C9.8239 72.1759 10.732 71.9025 11.4984 71.9263L13.9475 71.9269L15.9017 71.9249L31.7146 71.9213L34.8087 71.9301L40.4059 71.9243L40.8701 71.9226C42.4645 71.9756 44.1373 71.8535 45.7179 71.9486C46.3918 71.9892 47.2999 72.0943 47.858 71.7957C48.5392 71.4312 48.3189 70.773 48.4611 69.9271C48.3229 69.7072 48.3436 64.898 48.3656 64.0316C48.3877 63.1599 48.2108 62.7938 49.159 62.8293C50.135 62.8658 56.6768 62.917 57.2104 62.8121L57.181 37.3713L57.1843 35.7121L57.1829 33.2889L57.1725 31.5498C57.2908 28.6686 57.2923 23.3495 56.8424 20.4532C56.7585 19.9135 56.652 19.3511 56.5285 18.8279C56.4434 18.4671 56.1441 17.565 56.1418 17.2969C55.967 17.1234 55.8737 16.7295 55.8099 16.4683C55.6847 16.2937 55.5025 15.7488 55.3789 15.5097C55.0185 14.8121 54.7535 14.2806 54.3167 13.609C54.1329 13.3265 53.8107 12.9685 53.7347 12.6979C53.5809 12.6126 52.7828 11.5676 52.4614 11.2332C52.0193 10.7733 51.0804 10.1218 50.9861 9.96672C50.8042 9.93312 49.963 9.45081 49.6761 9.30391C49.354 9.13903 48.5949 8.81698 48.4044 8.6112C48.3645 7.09634 48.3962 5.53835 48.3914 4.018C48.389 3.25254 48.389 2.48691 48.3879 1.7214C48.3856 0.150796 48.5093 1.04575 47.7707 0.0190777C46.9844 -0.0701702 44.9445 0.205363 44.3483 0.0223413L44.2507 0.05328C44.2346 0.0567611 44.2174 0.0619393 44.199 0.0651159L42.9357 0.0752983C42.4731 0.0720782 42.0086 0.0784748 41.5457 0.0799543L22.0851 0.0707292C18.4311 0.0605033 14.6731 0.129778 11.0252 0.00637149C10.0589 -0.0263078 9.30991 0.0407478 9.057 0.835363C8.85971 1.45518 9.15547 7.02793 8.94578 8.96428C8.75244 9.08355 8.46538 9.16914 8.24707 9.27419C6.56846 10.0817 5.44252 11.149 4.22769 12.4509C-1.06196 18.12 0.147003 25.1988 0.0635426 32.7456L0.0636295 32.7457Z" fill="#FF3232"/>
</svg>
