<svg width="126" height="64" viewBox="0 0 126 64" fill="none" xmlns="http://www.w3.org/2000/svg">
<path fill-rule="evenodd" clip-rule="evenodd" d="M32.4284 61.0645C29.4585 62.4991 26.1263 63.3039 22.6065 63.3039C10.1215 63.3039 0 53.1824 0 40.6974C0 28.2125 10.1215 18.091 22.6065 18.091C26.1263 18.091 29.4585 18.8953 32.4284 20.3304V17.3958H47.3834V64H32.4284V61.0654V61.0645ZM22.6069 31.5676C27.6489 31.5676 31.7363 35.655 31.7363 40.697C31.7363 45.739 27.6489 49.8264 22.6069 49.8264C17.5649 49.8264 13.4775 45.739 13.4775 40.697C13.4775 35.655 17.5649 31.5676 22.6069 31.5676ZM101.936 41.3004L88.7787 54.4576L78.2036 43.8825L91.3609 30.7253L78.2041 17.5685L88.7792 6.99337L101.936 20.1502L115.093 6.99337L125.668 17.5685L112.511 30.7253L125.668 43.8825L115.093 54.4576L101.936 41.3004ZM56.4554 6.99337L71.4103 0V63.9991H56.4554V6.99337Z" fill="black"/>
</svg>
