<svg width="187" height="33" viewBox="0 0 187 33" fill="none" xmlns="http://www.w3.org/2000/svg">
	<path d="M60.8845 8.06769V11.3185H56.471V24.725H52.4135V11.3185H48V8.06769H60.8845Z" fill="#0B081A"/>
	<path
		d="M75.9952 11.4846V24.725H71.9376V22.9216C71.5263 23.5069 70.9648 23.9815 70.2529 24.3453C69.5569 24.6933 68.7817 24.8674 67.9275 24.8674C66.9151 24.8674 66.0214 24.6459 65.2462 24.203C64.4711 23.7442 63.87 23.0877 63.4429 22.2335C63.0158 21.3793 62.8022 20.3748 62.8022 19.22V11.4846H66.836V18.6743C66.836 19.5601 67.0654 20.2482 67.5241 20.7386C67.9829 21.229 68.5998 21.4742 69.375 21.4742C70.1659 21.4742 70.7908 21.229 71.2495 20.7386C71.7082 20.2482 71.9376 19.5601 71.9376 18.6743V11.4846H75.9952Z"
		fill="#0B081A"/>
	<path
		d="M86.2892 21.2844V24.725H84.2248C82.7537 24.725 81.6068 24.3691 80.7842 23.6572C79.9616 22.9295 79.5503 21.751 79.5503 20.1217V14.854H77.9368V11.4846H79.5503V8.25752H83.6079V11.4846H86.2654V14.854H83.6079V20.1691C83.6079 20.5646 83.7028 20.8494 83.8926 21.0234C84.0824 21.1974 84.3988 21.2844 84.8418 21.2844H86.2892Z"
		fill="#0B081A"/>
	<path
		d="M94.5763 24.9148C93.2791 24.9148 92.1086 24.638 91.0645 24.0843C90.0363 23.5307 89.2216 22.7397 88.6205 21.7115C88.0352 20.6833 87.7425 19.481 87.7425 18.1048C87.7425 16.7444 88.0431 15.55 88.6442 14.5218C89.2453 13.4778 90.0679 12.6789 91.112 12.1252C92.156 11.5716 93.3266 11.2947 94.6238 11.2947C95.9209 11.2947 97.0915 11.5716 98.1355 12.1252C99.1796 12.6789 100.002 13.4778 100.603 14.5218C101.204 15.55 101.505 16.7444 101.505 18.1048C101.505 19.4652 101.196 20.6674 100.58 21.7115C99.9784 22.7397 99.148 23.5307 98.0881 24.0843C97.044 24.638 95.8734 24.9148 94.5763 24.9148ZM94.5763 21.403C95.3514 21.403 96.0079 21.1183 96.5457 20.5488C97.0994 19.9793 97.3762 19.1646 97.3762 18.1048C97.3762 17.0449 97.1073 16.2302 96.5695 15.6608C96.0475 15.0913 95.3989 14.8065 94.6238 14.8065C93.8328 14.8065 93.1763 15.0913 92.6543 15.6608C92.1323 16.2144 91.8713 17.0291 91.8713 18.1048C91.8713 19.1646 92.1244 19.9793 92.6306 20.5488C93.1526 21.1183 93.8012 21.403 94.5763 21.403Z"
		fill="#0B081A"/>
	<path
		d="M107.715 13.6913C108.19 12.9636 108.783 12.3942 109.495 11.9829C110.207 11.5558 110.998 11.3422 111.868 11.3422V15.637H110.752C109.74 15.637 108.981 15.8585 108.474 16.3014C107.968 16.7285 107.715 17.4878 107.715 18.5793V24.725H103.658V11.4846H107.715V13.6913Z"
		fill="#0B081A"/>
	<path
		d="M124.862 24.8911C123.644 24.8911 122.553 24.6934 121.588 24.2979C120.623 23.9024 119.848 23.3171 119.262 22.542C118.693 21.7669 118.392 20.8335 118.361 19.742H122.679C122.743 20.359 122.956 20.8335 123.32 21.1657C123.684 21.4821 124.158 21.6403 124.744 21.6403C125.345 21.6403 125.819 21.5058 126.167 21.2369C126.515 20.9522 126.689 20.5646 126.689 20.0742C126.689 19.6629 126.547 19.3228 126.262 19.0539C125.993 18.785 125.653 18.5635 125.242 18.3895C124.847 18.2155 124.277 18.0178 123.534 17.7963C122.458 17.4641 121.58 17.1319 120.9 16.7997C120.22 16.4675 119.634 15.9771 119.144 15.3286C118.653 14.68 118.408 13.8337 118.408 12.7896C118.408 11.2394 118.97 10.0292 120.093 9.1592C121.216 8.27334 122.679 7.83041 124.483 7.83041C126.318 7.83041 127.797 8.27334 128.92 9.1592C130.043 10.0292 130.644 11.2473 130.723 12.8134H126.334C126.302 12.2755 126.104 11.8563 125.74 11.5558C125.376 11.2394 124.91 11.0812 124.34 11.0812C123.85 11.0812 123.454 11.2157 123.154 11.4846C122.853 11.7377 122.703 12.1094 122.703 12.5998C122.703 13.1376 122.956 13.5568 123.462 13.8574C123.969 14.158 124.76 14.4823 125.835 14.8303C126.911 15.1941 127.781 15.5421 128.445 15.8743C129.126 16.2065 129.711 16.689 130.201 17.3217C130.692 17.9545 130.937 18.7692 130.937 19.7658C130.937 20.7149 130.692 21.577 130.201 22.3522C129.727 23.1273 129.031 23.7442 128.113 24.203C127.196 24.6617 126.112 24.8911 124.862 24.8911Z"
		fill="#0B081A"/>
	<path
		d="M140.813 21.2844V24.725H138.749C137.278 24.725 136.131 24.3691 135.308 23.6572C134.486 22.9295 134.075 21.751 134.075 20.1217V14.854H132.461V11.4846H134.075V8.25752H138.132V11.4846H140.79V14.854H138.132V20.1691C138.132 20.5646 138.227 20.8494 138.417 21.0234C138.607 21.1974 138.923 21.2844 139.366 21.2844H140.813Z"
		fill="#0B081A"/>
	<path
		d="M142.267 18.0811C142.267 16.7206 142.52 15.5263 143.026 14.4981C143.548 13.4698 144.252 12.6789 145.138 12.1252C146.024 11.5716 147.012 11.2947 148.104 11.2947C149.037 11.2947 149.852 11.4846 150.548 11.8642C151.26 12.2439 151.806 12.7422 152.185 13.3591V11.4846H156.243V24.725H152.185V22.8504C151.79 23.4674 151.236 23.9657 150.524 24.3453C149.828 24.725 149.013 24.9148 148.08 24.9148C147.004 24.9148 146.024 24.638 145.138 24.0843C144.252 23.5148 143.548 22.716 143.026 21.6878C142.52 20.6437 142.267 19.4415 142.267 18.0811ZM152.185 18.1048C152.185 17.0924 151.9 16.2935 151.331 15.7082C150.777 15.1229 150.097 14.8303 149.29 14.8303C148.484 14.8303 147.795 15.1229 147.226 15.7082C146.672 16.2777 146.395 17.0686 146.395 18.0811C146.395 19.0935 146.672 19.9002 147.226 20.5013C147.795 21.0866 148.484 21.3793 149.29 21.3793C150.097 21.3793 150.777 21.0866 151.331 20.5013C151.9 19.916 152.185 19.1172 152.185 18.1048Z"
		fill="#0B081A"/>
	<path
		d="M158.371 18.1048C158.371 16.7285 158.648 15.5263 159.202 14.4981C159.771 13.4698 160.554 12.6789 161.551 12.1252C162.563 11.5716 163.718 11.2947 165.015 11.2947C166.676 11.2947 168.06 11.7298 169.168 12.5998C170.291 13.4698 171.026 14.6958 171.375 16.2777H167.056C166.692 15.2653 165.988 14.7591 164.944 14.7591C164.201 14.7591 163.607 15.0517 163.165 15.637C162.722 16.2065 162.5 17.0291 162.5 18.1048C162.5 19.1805 162.722 20.011 163.165 20.5963C163.607 21.1657 164.201 21.4505 164.944 21.4505C165.988 21.4505 166.692 20.9443 167.056 19.9319H171.375C171.026 21.4821 170.291 22.7002 169.168 23.586C168.045 24.4719 166.66 24.9148 165.015 24.9148C163.718 24.9148 162.563 24.638 161.551 24.0843C160.554 23.5307 159.771 22.7397 159.202 21.7115C158.648 20.6833 158.371 19.481 158.371 18.1048Z"
		fill="#0B081A"/>
	<path
		d="M181.636 24.725L177.602 19.1726V24.725H173.545V7.16602H177.602V16.8709L181.613 11.4846H186.619L181.114 18.1285L186.667 24.725H181.636Z"
		fill="#0B081A"/>
	<path fill-rule="evenodd" clip-rule="evenodd"
		  d="M24.6007 4.22227L17.6408 0.881809C16.5801 0.37273 15.4205 0.37273 14.3598 0.881809L7.39928 4.22227L0.405364 7.57894C-0.13434 7.83788 -0.13434 8.8628 0.405364 9.12241L3.95792 10.8274L7.39928 12.4791L7.61059 12.5818L14.3592 15.8202C15.4199 16.33 16.5795 16.33 17.6396 15.8202L24.3877 12.5818L24.5996 12.4791L28.0403 10.8274L31.5935 9.12241C32.1332 8.86347 32.1332 7.83855 31.5935 7.57962L24.6001 4.22295L24.6007 4.22227ZM28.6573 22.4693C28.2592 22.278 27.8249 22.278 27.4269 22.4693L17.6402 27.1653C16.5795 27.6744 15.4199 27.6744 14.3598 27.1653L4.57315 22.4693C4.17511 22.278 3.74076 22.278 3.34271 22.4693L0.405364 23.879C-0.13434 24.1379 -0.13434 25.1628 0.405364 25.4224L7.39928 28.7777L14.3598 32.1182C15.4205 32.6273 16.5801 32.6273 17.6408 32.1182L24.6013 28.7777L31.5952 25.4224C32.1349 25.1635 32.1349 24.1379 31.5952 23.879L28.6567 22.4693H28.6573ZM28.6573 14.3078C28.2592 14.1172 27.8249 14.1172 27.4269 14.3078L17.6402 19.0045C16.5795 19.5136 15.4199 19.5136 14.3598 19.0045L4.57315 14.3078C4.17511 14.1172 3.74076 14.1172 3.34271 14.3078L0.404778 15.7174C-0.134926 15.9764 -0.134926 17.002 0.404778 17.2602L7.39869 20.6162L14.3592 23.9567C15.4199 24.4658 16.5795 24.4658 17.6402 23.9567L24.6007 20.6162L31.5946 17.2602C32.1343 17.0013 32.1343 15.9764 31.5946 15.7174L28.6561 14.3072L28.6573 14.3078Z"
		  fill="#663399"/>
</svg>
