<?xml version="1.0" encoding="UTF-8"?>
<!DOCTYPE svg PUBLIC "-//W3C//DTD SVG 1.1//EN" "http://www.w3.org/Graphics/SVG/1.1/DTD/svg11.dtd">
<!-- Creator: CorelDRAW 2019 (64-Bit) -->
<svg xmlns="http://www.w3.org/2000/svg" xml:space="preserve" width="500px" height="500px" version="1.1"
	 style="shape-rendering:geometricPrecision; text-rendering:geometricPrecision; image-rendering:optimizeQuality; fill-rule:evenodd; clip-rule:evenodd"
	 viewBox="0 0 500 500"
>
 <defs>
  <style type="text/css">
   <![CDATA[
    .fil1 {fill:#132740}
    .fil3 {fill:#374B99}
    .fil0 {fill:#E6B34D}
    .fil2 {fill:white}
   ]]>
  </style>
 </defs>
	<g id="Layer_x0020_1">
  <metadata id="CorelCorpID_0Corel-Layer"/>
		<g id="_2708068847232">
   <polygon class="fil0"
			points="250,0 354.17,62.5 458.34,125 458.34,250 458.34,375 354.17,437.5 250,500 145.83,437.5 41.67,375 41.67,250 41.67,125 145.83,62.5 "/>
			<polygon class="fil1" points="250,50 83.34,149.47 83.34,350.53 250,450 416.67,350.53 416.67,149.47 "/>
			<path class="fil2"
				  d="M296.87 172.99c0.24,2.51 0.9,4.87 1.97,7.02 2.92,5.84 1.78,12.87 -2.84,17.49l-3.13 3.13c0.33,0.65 0.64,1.31 0.92,1.98 1.4,3.37 2.11,6.93 2.11,10.57 0,0.81 -0.11,1.6 -0.3,2.37l12.44 10.74c4.6,-6.45 6.13,-14.52 4.2,-22.23 -0.33,-1.34 0.14,-2.75 1.22,-3.61 1.07,-0.87 2.55,-1.02 3.79,-0.41l9.84 4.92c0.53,-6.51 -1.33,-13.01 -5.33,-18.35l-1.86 -2.48c-0.8,-1.07 -0.93,-2.5 -0.33,-3.69 0.6,-1.2 1.82,-1.95 3.16,-1.95l10.51 0c-0.5,-6.39 -3.3,-12.51 -7.84,-17.06l-5.17 -5.16c-1.01,-1.01 -1.31,-2.53 -0.76,-3.85 0.54,-1.32 1.83,-2.18 3.26,-2.18l9.82 0c-3.09,-12.06 -12.01,-21.72 -24.03,-25.72l-8.09 -2.7c-1.49,-0.5 -2.47,-1.92 -2.41,-3.49 0.06,-1.57 1.15,-2.91 2.67,-3.29l13.75 -3.43 1.78 -0.89c-0.2,-0.11 -11.26,-9.9 -27.82,-9.9l-0.98 0c-1.63,0 -3.05,-1.13 -3.43,-2.72 -0.38,-1.6 0.39,-3.24 1.86,-3.97 2.39,-1.2 4.51,-2.54 6.75,-3.96 0.62,-0.39 1.25,-0.79 1.89,-1.19 -4.34,-1.81 -9.76,-2.64 -15.21,-2.2 -6.83,0.54 -17.02,3.24 -26.78,13 -1.38,1.38 -3.62,1.38 -4.99,0 -14.73,-14.72 -32.27,-14.72 -41.96,-11 0.65,0.43 1.29,0.86 1.93,1.28 2.22,1.49 4.32,2.89 6.68,4.07 1.46,0.73 2.23,2.37 1.85,3.97 -0.37,1.59 -1.8,2.72 -3.43,2.72l-0.98 0c-9.55,0 -18.93,3.15 -26.53,8.9 9.9,2.51 5.27,0.79 14.97,5.59 1.27,0.64 2.04,1.98 1.94,3.41 -0.1,1.42 -1.05,2.65 -2.41,3.1l-8.09 2.69c-12.02,4.01 -20.94,13.67 -24.03,25.73l9.82 0c1.43,0 2.72,0.86 3.26,2.18 0.55,1.32 0.25,2.84 -0.76,3.85 -2.5,3.16 -11.96,8.95 -13.01,22.22l10.51 0c1.34,0 2.56,0.75 3.16,1.95 0.6,1.19 0.47,2.62 -0.33,3.69 -0.67,1.25 -8.18,8.51 -7.19,20.84l9.85 -4.93c1.23,-0.61 2.71,-0.46 3.78,0.41 1.08,0.86 1.55,2.27 1.22,3.61 -1.93,7.71 -0.4,15.78 4.2,22.23l12.44 -10.74c-0.19,-0.77 -0.3,-1.56 -0.3,-2.37 0,-4.39 1.04,-8.68 3.03,-12.56l-3.13 -3.12c-4.62,-4.62 -5.76,-11.65 -2.84,-17.49 1.81,-3.63 2.46,-7.88 1.87,-12.31 -3.21,-24.23 15.69,-45.7 40.06,-45.7l13.82 0c24.45,0 43.26,21.55 40.06,45.7 -0.2,1.5 -0.25,2.98 -0.17,4.43 0.05,0.23 0.07,0.46 0.07,0.71 0,0.05 0,0.1 0,0.15zm-78.63 16.09c-3.39,-2.55 -5.84,-6.29 -6.72,-10.59l-2.24 0c-0.46,1.62 -1.06,3.18 -1.8,4.67 -1.56,3.12 -0.95,6.88 1.52,9.34l2.19 2.2c0.33,-0.36 0.66,-0.71 1.01,-1.06 1.81,-1.8 3.84,-3.33 6.04,-4.56zm70.53 -12.71c-0.41,5.18 -3.07,9.75 -7.01,12.71 2.2,1.23 4.24,2.76 6.04,4.56 0.35,0.35 0.68,0.7 1.01,1.06l2.2 -2.2c2.47,-2.46 3.07,-6.22 1.51,-9.33 -1.06,-2.14 -1.83,-4.42 -2.29,-6.8l-1.46 0zm-32.85 7.46c-1.57,-2.69 -2.39,-5.73 -2.39,-8.88 0,-1.18 0.12,-2.4 0.36,-3.56l-7.78 0c0.24,1.16 0.36,2.38 0.36,3.56 0,3.15 -0.82,6.19 -2.39,8.88l0.94 4.69c0.09,0.47 0.25,0.92 0.47,1.35 0.88,1.69 2.61,2.74 4.51,2.74 1.9,0 3.63,-1.05 4.51,-2.74 0.22,-0.43 0.38,-0.88 0.47,-1.35l0.94 -4.69zm4.67 -8.87c0,5.63 4.36,10.13 9.75,10.55 6.09,0.52 11.44,-4.35 11.43,-10.55 0,-5.94 -4.89,-10.6 -10.59,-10.6 -5.75,0 -10.59,4.66 -10.59,10.6zm-31.77 10.59c5.84,0 10.59,-4.73 10.59,-10.59 0,-5.95 -4.85,-10.6 -10.59,-10.6 -5.84,0 -10.59,4.76 -10.59,10.6 0,5.84 4.75,10.59 10.59,10.59zm32.57 28.06c1.24,0.83 2.82,0.9 4.13,0.2 1.32,-0.7 2.13,-2.06 2.13,-3.55 0,-1.3 0.72,-2.5 1.87,-3.11 1.15,-0.62 2.54,-0.55 3.62,0.17 13.55,9.04 11.52,7.69 11.87,7.91 1.64,1.1 3.83,-0.06 3.83,-2.05 0,-10.72 -8.27,-19.71 -19.05,-20.51 -3.27,-0.25 -6.6,0.31 -9.7,1.61 -2.24,3.35 -5.99,5.39 -10.09,5.39 -4.1,0 -7.85,-2.04 -10.09,-5.39 -3.1,-1.31 -6.45,-1.86 -9.73,-1.61 -10.72,0.81 -19.01,9.77 -19.01,20.51 0,1.48 1.2,2.48 2.48,2.48 0.94,0 0.3,0.27 13.21,-8.34 1.08,-0.72 2.48,-0.79 3.62,-0.17 1.15,0.61 1.87,1.81 1.87,3.11 0,1.49 0.81,2.85 2.12,3.55 1.32,0.7 2.9,0.63 4.14,-0.2l5.52 -3.68c3.56,-2.38 8.18,-2.38 11.75,0.01l5.51 3.67zm-11.39 23.48c11.67,0 22.09,-8.08 27.68,-18.25l-4.48 -2.99c-1.01,1.74 -2.5,3.2 -4.35,4.19 -3.6,1.93 -7.96,1.72 -11.37,-0.56l-5.52 -3.67c-1.19,-0.79 -2.73,-0.79 -3.91,0l-5.53 3.68c-3.41,2.27 -7.77,2.48 -11.38,0.54 -1.84,-0.98 -3.33,-2.44 -4.34,-4.18l-4.48 2.99c5.6,10.18 16.02,18.25 27.68,18.25zm17.65 2.08c-5.54,3.27 -11.54,4.98 -17.65,4.98 -6.11,0 -12.11,-1.71 -17.65,-4.98l0 14.16 35.3 0 0 -14.16zm-10.58 -74.81c3.31,-4.39 8.54,-7.06 14.11,-7.06 7.62,0 14.34,4.99 16.73,12.01l1.83 0c0.04,-0.85 0.12,-1.69 0.23,-2.54 2.64,-19.92 -12.88,-37.71 -33.06,-37.71l-13.82 0c-20.17,0 -35.7,17.79 -33.06,37.71 0.21,1.57 0.3,3.12 0.27,4.65l1.22 0c1.64,-8.04 8.77,-14.12 17.3,-14.12 5.57,0 10.8,2.67 14.11,7.06l14.14 0z"/>
			<rect class="fil3" x="41.67" y="250" width="416.67" height="125" rx="7.72" ry="16.67"/>
			<path class="fil2"
				  d="M91.61 280.81l42.61 0 0 9.21 -31.24 0 0 17.51 29.43 0 0 9.12 -29.43 0 0 18.6 31.24 0 0 9.21 -42.61 0 0 -63.65zm301.07 18.42c5.29,0 9.24,1.5 11.82,4.51 2.59,3.01 3.89,7.56 3.89,13.64l0 27.08 -11.29 0 0 -26.45c0,-3.43 -0.65,-5.93 -1.94,-7.5 -1.29,-1.56 -3.32,-2.34 -6.09,-2.34 -3.25,0 -5.86,1.02 -7.81,3.07 -1.96,2.04 -2.94,4.78 -2.94,8.21l0 25.01 -11.28 0 0 -44.15 11.01 0 0 6.59c1.51,-2.47 3.52,-4.36 6.05,-5.68 2.53,-1.33 5.39,-1.99 8.58,-1.99zm-48.57 1.08l11.28 0 0 44.15 -11.28 0 0 -44.15zm11.83 -20.49l0 11.1 -12.46 0 0 -11.1 12.46 0zm-21.04 44.6l-30.06 0c0.36,4.09 1.59,7.13 3.7,9.11 2.11,1.99 5.12,2.98 9.03,2.98 4.87,0 9.33,-1.56 13.36,-4.69l3.25 7.76c-2.05,1.69 -4.62,3.04 -7.72,4.07 -3.1,1.02 -6.21,1.53 -9.34,1.53 -7.22,0 -12.93,-2.05 -17.11,-6.14 -4.18,-4.09 -6.27,-9.69 -6.27,-16.79 0,-4.51 0.9,-8.52 2.7,-12.01 1.81,-3.49 4.35,-6.2 7.63,-8.12 3.28,-1.93 7,-2.89 11.15,-2.89 6.08,0 10.88,1.96 14.4,5.87 3.52,3.91 5.28,9.3 5.28,16.16l0 3.16zm-19.41 -17.25c-3.01,0 -5.43,0.97 -7.27,2.89 -1.83,1.93 -2.96,4.7 -3.38,8.31l20.4 0c-0.12,-3.67 -1.02,-6.46 -2.71,-8.35 -1.68,-1.9 -4.03,-2.85 -7.04,-2.85zm-30.06 29.52c1.32,0 2.71,-0.09 4.15,-0.27l-0.54 8.4c-1.8,0.18 -3.46,0.27 -4.96,0.27 -6.2,0 -10.78,-1.43 -13.73,-4.29 -2.95,-2.86 -4.42,-7.12 -4.42,-12.77l0 -19.23 -8.49 0 0 -8.49 8.49 0 0 -13.18 11.29 0 0 13.18 11.64 0 0 8.49 -11.64 0 0 19.05c0,5.9 2.73,8.84 8.21,8.84zm-49.65 8.49c-3.91,0 -7.51,-0.48 -10.79,-1.44 -3.28,-0.97 -6.06,-2.35 -8.35,-4.16l3.16 -7.85c4.69,3.43 10.08,5.15 16.16,5.15 2.59,0 4.56,-0.43 5.91,-1.27 1.36,-0.84 2.03,-2.05 2.03,-3.61 0,-1.32 -0.46,-2.35 -1.4,-3.07 -0.93,-0.72 -2.6,-1.38 -5.01,-1.99l-7.22 -1.62c-4.09,-0.9 -7.13,-2.38 -9.12,-4.42 -1.98,-2.05 -2.97,-4.7 -2.97,-7.95 0,-2.71 0.76,-5.1 2.3,-7.18 1.53,-2.07 3.67,-3.68 6.41,-4.83 2.73,-1.14 5.91,-1.71 9.52,-1.71 3.13,0 6.15,0.48 9.07,1.44 2.92,0.97 5.5,2.32 7.72,4.07l-3.16 7.67c-4.57,-3.31 -9.15,-4.97 -13.72,-4.97 -2.47,0 -4.39,0.46 -5.78,1.36 -1.38,0.9 -2.07,2.17 -2.07,3.79 0,1.2 0.43,2.2 1.3,2.98 0.88,0.78 2.28,1.38 4.2,1.81l7.5 1.71c4.39,0.96 7.61,2.48 9.66,4.56 2.04,2.08 3.07,4.8 3.07,8.17 0,4.09 -1.66,7.34 -4.97,9.75 -3.31,2.41 -7.79,3.61 -13.45,3.61zm-43.43 -45.95c5.3,0 9.24,1.5 11.83,4.51 2.59,3.01 3.88,7.56 3.88,13.64l0 27.08 -11.28 0 0 -26.45c0,-3.43 -0.65,-5.93 -1.94,-7.5 -1.3,-1.56 -3.33,-2.34 -6.1,-2.34 -3.25,0 -5.85,1.02 -7.8,3.07 -1.96,2.04 -2.94,4.78 -2.94,8.21l0 25.01 -11.28 0 0 -44.15 11.01 0 0 6.59c1.51,-2.47 3.52,-4.36 6.05,-5.68 2.53,-1.33 5.39,-1.99 8.57,-1.99zm-48.56 1.08l11.28 0 0 44.15 -11.28 0 0 -44.15zm11.82 -20.49l0 11.1 -12.46 0 0 -11.1 12.46 0z"/>
  </g>
 </g>
</svg>
