<?xml version="1.0" encoding="UTF-8"?>
<!DOCTYPE svg PUBLIC "-//W3C//DTD SVG 1.1//EN" "http://www.w3.org/Graphics/SVG/1.1/DTD/svg11.dtd">
<!-- Creator: CorelDRAW 2019 (64-Bit) -->
<svg xmlns="http://www.w3.org/2000/svg" xml:space="preserve" width="500px" height="500px" version="1.1"
	 style="shape-rendering:geometricPrecision; text-rendering:geometricPrecision; image-rendering:optimizeQuality; fill-rule:evenodd; clip-rule:evenodd"
	 viewBox="0 0 500 500"
>
 <defs>
  <style type="text/css">
   <![CDATA[
    .fil1 {fill:#132740}
    .fil3 {fill:#374B99}
    .fil0 {fill:#D8A572}
    .fil2 {fill:white}
   ]]>
  </style>
 </defs>
	<g id="Layer_x0020_1">
  <metadata id="CorelCorpID_0Corel-Layer"/>
		<g id="_2672890873504">
   <polygon class="fil0"
			points="250,0 354.17,62.5 458.33,125 458.33,250 458.33,375 354.17,437.5 250,500 145.83,437.5 41.66,375 41.66,250 41.66,125 145.83,62.5 "/>
			<polygon class="fil1" points="250,50 83.33,149.47 83.33,350.53 250,450 416.66,350.53 416.66,149.47 "/>
			<path class="fil2"
				  d="M268.07 125.71c4.51,-4.69 6.98,-10.8 6.98,-17.33 0,-13.81 -11.24,-25.05 -25.05,-25.05 -13.81,0 -25.05,11.24 -25.05,25.05 0,6.53 2.47,12.64 6.98,17.33l36.14 0zm12.47 88.32l-61.08 0c-7.75,0 -14.24,5.45 -15.86,12.71l30.56 0c1.94,0 3.53,1.58 3.53,3.53 0,1.95 -1.59,3.53 -3.53,3.53l-36.42 0c-4.28,0 -7.77,3.49 -7.77,7.77l0 8.43 120.06 0 0 -8.43c0,-4.28 -3.49,-7.77 -7.77,-7.77l-36.33 0c-1.95,0 -3.53,-1.58 -3.53,-3.53 0,-1.95 1.58,-3.53 3.53,-3.53l30.47 0c-1.62,-7.26 -8.11,-12.71 -15.86,-12.71zm-13.75 -65.73l-33.58 0c-0.05,20.19 -4.53,40.35 -13.01,58.67l59.6 0c-8.48,-18.32 -12.96,-38.48 -13.01,-58.67zm5.96 -15.53l-45.5 0c-2.34,0 -4.24,1.9 -4.24,4.23 0,2.34 1.9,4.24 4.24,4.24l45.5 0c2.34,0 4.24,-1.9 4.24,-4.24 0,-2.33 -1.9,-4.23 -4.24,-4.23z"/>
			<rect class="fil3" x="41.66" y="250" width="416.67" height="125" rx="7.72" ry="16.67"/>
			<path class="fil2"
				  d="M159.05 346.92l-13.61 0 -11.77 -21.88c-1.1,-2.07 -2.46,-3.53 -4.08,-4.37 -1.62,-0.85 -3.66,-1.27 -6.13,-1.27l-9.52 0 0 27.52 -12.35 0 0 -68.54 30.33 0c7.78,0 13.7,1.73 17.75,5.2 4.05,3.47 6.07,8.47 6.07,15.02 0,5.25 -1.47,9.57 -4.42,12.98 -2.95,3.4 -7.12,5.62 -12.49,6.66 3.63,0.97 6.54,3.53 8.75,7.68l11.47 21zm239.36 -21.59l-32.38 0c0.39,4.41 1.72,7.68 3.99,9.82 2.27,2.14 5.51,3.21 9.72,3.21 5.25,0 10.05,-1.68 14.39,-5.05l3.5 8.36c-2.21,1.81 -4.98,3.27 -8.31,4.37 -3.34,1.1 -6.7,1.66 -10.07,1.66 -7.77,0 -13.92,-2.21 -18.42,-6.62 -4.5,-4.4 -6.76,-10.43 -6.76,-18.08 0,-4.86 0.98,-9.17 2.92,-12.93 1.94,-3.76 4.68,-6.68 8.22,-8.75 3.53,-2.07 7.53,-3.11 12,-3.11 6.55,0 11.72,2.11 15.51,6.32 3.79,4.21 5.69,10.01 5.69,17.4l0 3.4zm-20.91 -18.56c-3.24,0 -5.85,1.03 -7.82,3.11 -1.98,2.07 -3.19,5.05 -3.65,8.94l21.97 0c-0.13,-3.95 -1.1,-6.95 -2.91,-8.99 -1.82,-2.04 -4.35,-3.06 -7.59,-3.06zm-45.5 -7.39l12.16 0 0 47.54 -12.16 0 0 -47.54zm12.74 -22.07l0 11.95 -13.42 0 0 -11.95 13.42 0zm-32.28 69.61l-20.41 -21.68 0 21.68 -12.16 0 0 -68.54 12.16 0 0 41.8 19.15 -20.71 14.78 0 -21.39 22.75 22.94 24.7 -15.07 0zm-66.79 0.78c-4.86,0 -9.12,-1.01 -12.78,-3.02 -3.66,-2.01 -6.5,-4.89 -8.51,-8.65 -2.01,-3.76 -3.01,-8.14 -3.01,-13.13 0,-4.99 1,-9.35 3.01,-13.07 2.01,-3.73 4.85,-6.6 8.51,-8.61 3.66,-2.01 7.92,-3.01 12.78,-3.01 4.86,0 9.12,1 12.79,3.01 3.66,2.01 6.48,4.88 8.45,8.61 1.98,3.72 2.97,8.08 2.97,13.07 0,4.99 -0.99,9.37 -2.97,13.13 -1.97,3.76 -4.79,6.64 -8.45,8.65 -3.67,2.01 -7.93,3.02 -12.79,3.02zm-0.1 -9.44c3.96,0 6.97,-1.29 9.05,-3.88 2.07,-2.6 3.11,-6.42 3.11,-11.48 0,-4.99 -1.04,-8.8 -3.11,-11.42 -2.08,-2.63 -5.06,-3.94 -8.95,-3.94 -3.89,0 -6.88,1.31 -8.99,3.94 -2.11,2.62 -3.16,6.43 -3.16,11.42 0,5.06 1.04,8.88 3.11,11.48 2.07,2.59 5.06,3.88 8.94,3.88zm-55.8 9.44c-4.86,0 -9.12,-1.01 -12.78,-3.02 -3.67,-2.01 -6.5,-4.89 -8.51,-8.65 -2.01,-3.76 -3.02,-8.14 -3.02,-13.13 0,-4.99 1.01,-9.35 3.02,-13.07 2.01,-3.73 4.84,-6.6 8.51,-8.61 3.66,-2.01 7.92,-3.01 12.78,-3.01 4.86,0 9.12,1 12.78,3.01 3.67,2.01 6.49,4.88 8.46,8.61 1.98,3.72 2.97,8.08 2.97,13.07 0,4.99 -0.99,9.37 -2.97,13.13 -1.97,3.76 -4.79,6.64 -8.46,8.65 -3.66,2.01 -7.92,3.02 -12.78,3.02zm-0.1 -9.44c3.96,0 6.97,-1.29 9.04,-3.88 2.08,-2.6 3.12,-6.42 3.12,-11.48 0,-4.99 -1.04,-8.8 -3.12,-11.42 -2.07,-2.63 -5.05,-3.94 -8.94,-3.94 -3.89,0 -6.89,1.31 -8.99,3.94 -2.11,2.62 -3.16,6.43 -3.16,11.42 0,5.06 1.03,8.88 3.11,11.48 2.07,2.59 5.05,3.88 8.94,3.88zm-59.5 -28.48c4.73,0 8.2,-0.89 10.41,-2.67 2.2,-1.79 3.3,-4.53 3.3,-8.22 0,-3.76 -1.1,-6.5 -3.3,-8.22 -2.21,-1.71 -5.68,-2.57 -10.41,-2.57l-16.33 0 0 21.68 16.33 0z"/>
  </g>
 </g>
</svg>
