<?xml version="1.0" encoding="UTF-8"?>
<!DOCTYPE svg PUBLIC "-//W3C//DTD SVG 1.1//EN" "http://www.w3.org/Graphics/SVG/1.1/DTD/svg11.dtd">
<!-- Creator: CorelDRAW 2019 (64-Bit) -->
<svg xmlns="http://www.w3.org/2000/svg" xml:space="preserve" width="500px" height="500px" version="1.1"
	 style="shape-rendering:geometricPrecision; text-rendering:geometricPrecision; image-rendering:optimizeQuality; fill-rule:evenodd; clip-rule:evenodd"
	 viewBox="0 0 500 500"
>
 <defs>
  <style type="text/css">
   <![CDATA[
    .fil1 {fill:#132740}
    .fil3 {fill:#374B99}
    .fil0 {fill:silver}
    .fil4 {fill:white}
    .fil2 {fill:white;fill-rule:nonzero}
   ]]>
  </style>
 </defs>
	<g id="Layer_x0020_1">
  <metadata id="CorelCorpID_0Corel-Layer"/>
		<g id="_2708169551088">
   <polygon class="fil0"
			points="250,0 354.17,62.5 458.34,125 458.34,250 458.34,375 354.17,437.5 250,500 145.83,437.5 41.67,375 41.67,250 41.67,125 145.83,62.5 "/>
			<polygon class="fil1" points="250,50 83.34,149.47 83.34,350.53 250,450 416.67,350.53 416.67,149.47 "/>
			<path id="XMLID_134_" class="fil2"
				  d="M328.64 118.05l-89.32 0c-2.97,0 -5.38,2.41 -5.38,5.38l0 37.93 3.89 -4.54c1.84,-2.16 4.28,-3.49 6.86,-4.05l0 -23.97 78.58 0 0 70.23 -78.58 0 0 -11.75 -2.42 2.83c-2.11,2.47 -5.1,4 -8.33,4.3l0 10c0,2.97 2.41,5.38 5.38,5.38l29.01 0 -14.74 66.91c-0.66,3 1.24,5.97 4.24,6.63 2.97,0.65 5.97,-1.24 6.62,-4.23l15.27 -69.31 8.87 0 15.26 69.31c0.58,2.59 2.88,4.36 5.43,4.36 0.4,0 0.8,-0.04 1.2,-0.13 3.01,-0.66 4.9,-3.63 4.24,-6.63l-14.74 -66.91 28.66 0c2.97,0 5.38,-2.41 5.38,-5.38l0 -80.98c0,-2.97 -2.41,-5.38 -5.38,-5.38zm-135.33 29.37c2.23,1.16 4.74,1.88 7.42,1.88 2.7,0 5.21,-0.72 7.44,-1.88 5.22,-2.7 8.82,-8.09 8.82,-14.37 0,-8.98 -7.28,-16.26 -16.26,-16.26 -8.97,0 -16.25,7.28 -16.25,16.26 0,6.28 3.6,11.67 8.83,14.37zm10.42 5.01l-5.97 0c-4.57,0 -8.59,2.22 -11.14,5.6l-18.32 16.87c-2.86,2.54 -3.11,6.95 -0.54,9.82l14.94 16.68c2.55,2.85 6.96,3.11 9.82,0.54 2.86,-2.56 3.1,-6.96 0.53,-9.81l-10.3 -11.51 14.64 -13.09 -8.53 11.58 8.34 9.3c4.61,5.15 4.17,13.06 -0.97,17.67 -3.52,3.15 -8.31,3.89 -12.47,2.44 0,0 0.07,32.16 0.07,66.6 0,4.6 3.73,8.34 8.34,8.34 4.6,0 8.34,-3.74 8.34,-8.34 0,-34.43 0,-14.78 0,-49.71l5.56 0c0,34.9 0,15.27 0,49.71 0,2.4 -0.67,4.63 -1.74,6.6 1.4,1.08 3.14,1.74 5.04,1.74 4.61,0 8.35,-3.74 8.35,-8.34 0,-34.43 0.01,-20 0.01,-108.7 0,-7.73 -6.27,-13.99 -14,-13.99zm82.21 -2.98c-0.42,-1.06 -1.62,-1.59 -2.69,-1.17l-31.67 11.18c-2.91,-2.25 -7.1,-1.85 -9.52,0.97l-10.05 11.74 -8.91 -7.64c0.06,0.63 0.19,1.24 0.19,1.89l0 16.58 4.96 4.25c2.94,2.52 7.34,2.13 9.8,-0.75l11.96 -13.99 9.65 -5.65 25.4 -14.86c0.87,-0.5 1.26,-1.58 0.88,-2.55z"/>
			<rect class="fil3" x="41.67" y="250" width="416.67" height="125" rx="7.72" ry="16.67"/>
			<path class="fil4"
				  d="M120 345.14c-4.88,0 -9.45,-0.67 -13.72,-1.99 -4.27,-1.32 -7.89,-3.19 -10.83,-5.6l3.88 -8.48c3.07,2.34 6.3,4.06 9.7,5.14 3.4,1.09 7.09,1.63 11.06,1.63 4.39,0 7.78,-0.77 10.16,-2.3 2.37,-1.54 3.56,-3.69 3.56,-6.46 0,-2.41 -1.1,-4.24 -3.29,-5.5 -2.2,-1.27 -5.86,-2.47 -10.97,-3.62 -5.3,-1.14 -9.6,-2.46 -12.91,-3.97 -3.31,-1.5 -5.81,-3.43 -7.49,-5.78 -1.69,-2.34 -2.53,-5.32 -2.53,-8.93 0,-3.74 1.02,-7.08 3.07,-10.02 2.04,-2.95 4.93,-5.26 8.66,-6.91 3.74,-1.66 8.04,-2.48 12.91,-2.48 4.46,0 8.7,0.67 12.73,2.03 4.04,1.35 7.35,3.2 9.93,5.55l-3.88 8.49c-5.66,-4.52 -11.91,-6.77 -18.78,-6.77 -4.09,0 -7.32,0.82 -9.7,2.48 -2.38,1.65 -3.57,3.95 -3.57,6.9 0,2.47 1.06,4.37 3.16,5.69 2.11,1.33 5.69,2.56 10.75,3.7 5.35,1.21 9.7,2.55 13.04,4.02 3.34,1.47 5.9,3.36 7.67,5.64 1.78,2.29 2.67,5.18 2.67,8.67 0,3.79 -1.01,7.12 -3.03,9.97 -2.01,2.86 -4.93,5.06 -8.75,6.59 -3.83,1.54 -8.32,2.31 -13.5,2.31zm284.55 -36.66l-6.59 0.64c-7.46,0.78 -11.19,4.57 -11.19,11.37l0 23.83 -11.29 0 0 -44.14 10.75 0 0 7.76c2.28,-5.29 7.01,-8.18 14.17,-8.66l3.43 -0.27 0.72 9.47zm-58.86 -9.38c6.2,0 10.81,1.5 13.82,4.51 3,3.01 4.51,7.64 4.51,13.9l0 26.81 -10.74 0 0 -6.77c-1.03,2.35 -2.64,4.19 -4.83,5.51 -2.2,1.32 -4.74,1.99 -7.63,1.99 -2.95,0 -5.63,-0.61 -8.04,-1.81 -2.4,-1.2 -4.3,-2.86 -5.68,-4.96 -1.39,-2.11 -2.08,-4.46 -2.08,-7.05 0,-3.25 0.83,-5.8 2.48,-7.67 1.66,-1.86 4.35,-3.22 8.08,-4.06 3.73,-0.84 8.88,-1.27 15.44,-1.27l2.26 0 0 -2.07c0,-3.01 -0.65,-5.18 -1.95,-6.5 -1.29,-1.33 -3.44,-1.99 -6.45,-1.99 -2.35,0 -4.8,0.41 -7.36,1.22 -2.56,0.81 -5.07,1.94 -7.54,3.39l-3.15 -7.77c2.46,-1.56 5.44,-2.86 8.93,-3.88 3.49,-1.02 6.8,-1.53 9.93,-1.53zm-2.62 37.82c3.01,0 5.47,-1.01 7.36,-3.02 1.9,-2.02 2.85,-4.62 2.85,-7.81l0 -1.9 -1.63 0c-4.03,0 -7.16,0.18 -9.39,0.54 -2.23,0.37 -3.82,1 -4.78,1.9 -0.97,0.9 -1.45,2.14 -1.45,3.7 0,1.93 0.66,3.51 1.99,4.74 1.32,1.23 3.01,1.85 5.05,1.85zm-39.27 -56.24l11.29 0 0 63.64 -11.29 0 0 -63.64zm-31.77 64.37c-4.52,0 -8.47,-0.94 -11.87,-2.8 -3.41,-1.87 -6.04,-4.55 -7.9,-8.04 -1.87,-3.49 -2.8,-7.55 -2.8,-12.18 0,-4.64 0.93,-8.69 2.8,-12.15 1.86,-3.46 4.49,-6.12 7.9,-7.99 3.4,-1.86 7.35,-2.79 11.87,-2.79 4.51,0 8.47,0.93 11.87,2.79 3.4,1.87 6.02,4.53 7.85,7.99 1.84,3.46 2.76,7.51 2.76,12.15 0,4.63 -0.92,8.69 -2.76,12.18 -1.83,3.49 -4.45,6.17 -7.85,8.04 -3.4,1.86 -7.36,2.8 -11.87,2.8zm-0.09 -8.76c3.67,0 6.47,-1.2 8.39,-3.61 1.93,-2.41 2.89,-5.96 2.89,-10.65 0,-4.64 -0.96,-8.17 -2.89,-10.61 -1.92,-2.44 -4.69,-3.66 -8.3,-3.66 -3.61,0 -6.4,1.22 -8.35,3.66 -1.96,2.44 -2.94,5.97 -2.94,10.61 0,4.69 0.96,8.24 2.89,10.65 1.93,2.41 4.69,3.61 8.31,3.61zm-47.22 -37.19c5.3,0 9.24,1.5 11.83,4.51 2.59,3.01 3.88,7.55 3.88,13.63l0 27.08 -11.28 0 0 -26.45c0,-3.43 -0.65,-5.92 -1.95,-7.49 -1.29,-1.56 -3.32,-2.35 -6.09,-2.35 -3.25,0 -5.85,1.03 -7.81,3.07 -1.96,2.05 -2.93,4.79 -2.93,8.22l0 25 -11.29 0 0 -63.64 11.29 0 0 25.64c1.5,-2.35 3.5,-4.14 6,-5.37 2.5,-1.24 5.28,-1.85 8.35,-1.85zm-49.56 45.95c-4.64,0 -8.65,-0.94 -12.05,-2.8 -3.4,-1.87 -6.01,-4.52 -7.81,-7.95 -1.81,-3.43 -2.71,-7.43 -2.71,-12 0,-4.58 0.95,-8.62 2.84,-12.15 1.9,-3.52 4.59,-6.24 8.08,-8.17 3.49,-1.92 7.53,-2.88 12.1,-2.88 3.13,0 6.18,0.49 9.16,1.49 2.98,0.99 5.38,2.33 7.18,4.01l-3.25 7.95c-1.87,-1.51 -3.84,-2.65 -5.91,-3.43 -2.08,-0.79 -4.14,-1.18 -6.19,-1.18 -3.91,0 -6.95,1.22 -9.11,3.66 -2.17,2.44 -3.25,5.94 -3.25,10.52 0,4.51 1.08,7.99 3.25,10.42 2.16,2.44 5.2,3.66 9.11,3.66 2.05,0 4.11,-0.39 6.19,-1.17 2.07,-0.79 4.04,-1.93 5.91,-3.43l3.25 7.85c-1.93,1.74 -4.39,3.11 -7.4,4.11 -3.01,0.99 -6.14,1.49 -9.39,1.49z"/>
  </g>
 </g>
</svg>
