<svg xmlns="http://www.w3.org/2000/svg" width="20.4" height="20.4" viewBox="0 0 20.4 20.4">
	<defs>
		<style>.a{fill:#4d5c6f;fill-rule:evenodd;}</style>
	</defs>
	<path class="a"
		  d="M98.04,590.4h16.32a2.046,2.046,0,0,1,2.04,2.04h0a2.046,2.046,0,0,1-2.04,2.04H98.04a2.046,2.046,0,0,1-2.04-2.04h0a2.046,2.046,0,0,1,2.04-2.04Zm0,16.32h11.22a2.046,2.046,0,0,1,2.04,2.04h0a2.046,2.046,0,0,1-2.04,2.04H98.04a2.046,2.046,0,0,1-2.04-2.04h0a2.046,2.046,0,0,1,2.04-2.04Zm0-8.16h16.32a2.046,2.046,0,0,1,2.04,2.04h0a2.046,2.046,0,0,1-2.04,2.04H98.04A2.046,2.046,0,0,1,96,600.6h0A2.046,2.046,0,0,1,98.04,598.561Z"
		  transform="translate(-96 -590.401)"/>
</svg>
