<svg xmlns="http://www.w3.org/2000/svg" width="36.48" height="36.479" viewBox="0 0 36.48 36.479">
	<defs>
		<style>
			.a{fill:#f8f8ff;stroke:#d7e2ec;stroke-miterlimit:2.613;stroke-width:0.48px;}.a,.b{fill-rule:evenodd;}.b{fill:#4d5c6f;}
		</style>
	</defs>
	<g transform="translate(-1841.76 -713.76)">
		<path class="a" d="M1860,750a18,18,0,1,0-18-18A18.035,18.035,0,0,0,1860,750Z"/>
		<path class="b"
			  d="M1863.738,739.057l-.251,1.028q-1.133.447-1.806.68a4.743,4.743,0,0,1-1.566.235,3.126,3.126,0,0,1-2.131-.669,2.163,2.163,0,0,1-.76-1.7,6.042,6.042,0,0,1,.057-.817c.038-.279.1-.593.184-.943l.943-3.338c.083-.319.155-.622.212-.908a3.955,3.955,0,0,0,.086-.783,1.21,1.21,0,0,0-.264-.891,1.487,1.487,0,0,0-1.009-.252,2.617,2.617,0,0,0-.749.114c-.257.076-.476.149-.66.217l.252-1.029q.927-.377,1.773-.645a5.273,5.273,0,0,1,1.6-.269,3.054,3.054,0,0,1,2.1.657,2.185,2.185,0,0,1,.737,1.709c0,.145-.016.4-.051.766a5.133,5.133,0,0,1-.189,1.006l-.939,3.324a8.819,8.819,0,0,0-.206.916,4.729,4.729,0,0,0-.092.777,1.118,1.118,0,0,0,.3.9,1.671,1.671,0,0,0,1.027.24,3,3,0,0,0,.777-.12,4.424,4.424,0,0,0,.627-.211Zm.239-13.955a1.945,1.945,0,0,1-.657,1.48,2.357,2.357,0,0,1-3.171,0,1.939,1.939,0,0,1-.663-1.48,1.961,1.961,0,0,1,.663-1.486,2.348,2.348,0,0,1,3.171,0A1.965,1.965,0,0,1,1863.977,725.1Z"/>
	</g>
</svg>
