<svg xmlns="http://www.w3.org/2000/svg" width="20.399" height="22.79" viewBox="0 0 20.399 22.79">
	<defs>
		<style>.a{fill:#4d5c6f;fill-rule:evenodd;}</style>
	</defs>
	<path class="a"
		  d="M106.2,732.01a5.917,5.917,0,1,0,5.917,5.917,5.933,5.933,0,0,0-5.917-5.917Zm10.155,16.563a5.483,5.483,0,0,0-.6-1.085,7.353,7.353,0,0,0-5.09-3.2,1.088,1.088,0,0,0-.749.18,6.3,6.3,0,0,1-7.441,0,.969.969,0,0,0-.75-.18,7.3,7.3,0,0,0-5.09,3.2,6.388,6.388,0,0,0-.594,1.085.55.55,0,0,0,.026.491,10.229,10.229,0,0,0,.7,1.033,9.832,9.832,0,0,0,1.189,1.344,15.381,15.381,0,0,0,1.188,1.033,11.782,11.782,0,0,0,14.057,0,11.493,11.493,0,0,0,1.188-1.033,11.952,11.952,0,0,0,1.189-1.344,8.9,8.9,0,0,0,.7-1.033A.441.441,0,0,0,116.356,748.573Z"
		  transform="translate(-96 -732.01)"/>
</svg>
