<svg xmlns="http://www.w3.org/2000/svg" width="20.4" height="20.4" viewBox="0 0 20.4 20.4">
	<defs>
		<style>.a{fill:#4d5c6f;fill-rule:evenodd;}</style>
	</defs>
	<path class="a"
		  d="M106.2,518.4A10.2,10.2,0,0,0,96,528.6v10.2h10.2a10.2,10.2,0,1,0,0-20.4Zm-.387,13.183c-.675,0-.905-.246-.905-1.1a3.009,3.009,0,0,1,1.1-2.5c.543-.461,1.465-.972,1.465-1.86,0-.758-.659-1.12-1.482-1.12-1.679,0-1.317,1.267-2.205,1.267a.944.944,0,0,1-.988-.938c0-.888,1.02-2.205,3.242-2.205,2.107,0,3.507,1.168,3.507,2.716a4.216,4.216,0,0,1-1.844,3.012,2.067,2.067,0,0,0-.922,2.057c0,.313-.165.675-.971.675Zm-1.234,2.4a1.264,1.264,0,0,1,1.25-1.268,1.268,1.268,0,1,1,0,2.535A1.264,1.264,0,0,1,104.579,533.987Z"
		  transform="translate(-96 -518.4)"/>
</svg>
