<svg xmlns="http://www.w3.org/2000/svg" width="22.417" height="20.4" viewBox="0 0 22.417 20.4">
	<defs>
		<style>.a{fill:#4d5c6f;fill-rule:evenodd;}</style>
	</defs>
	<path class="a"
		  d="M100.28,668.692a1.194,1.194,0,0,0,.3.647c.289,1.923,1.9,3.707,3.366,3.707,1.713,0,3.273-1.931,3.573-3.7a1.18,1.18,0,0,0,.3-.651c.1-.36.222-.986,0-1.28a.522.522,0,0,0-.035-.042,3.742,3.742,0,0,0-.467-3.383,3.465,3.465,0,0,0-1.73-1.064l-.536-.184a8.765,8.765,0,0,0-1.461-.338.377.377,0,0,0-.121.011.6.6,0,0,1-.217.025,1.472,1.472,0,0,0-.584.1,4.185,4.185,0,0,0-2.3,2.307,5.165,5.165,0,0,0,.019,2.465.5.5,0,0,0-.11.1c-.222.291-.1.917,0,1.277Zm15.551,4.683a9.133,9.133,0,0,1,2.586-1.33,8.694,8.694,0,0,0-2.208,1.765,19.414,19.414,0,0,0-1.762,2.2c-.539.769-1.036,1.568-1.5,2.382s-.912,1.657-1.287,2.469l-.748,1.62-1.3-1.7a6.02,6.02,0,0,0-1.787-1.4c-.367-.205-.752-.4-1.146-.569-.2-.087-.394-.17-.6-.247s-.414-.162-.568-.2l1.688-3.436c.272.172.466.316.687.476s.422.323.629.489c.411.334.811.685,1.2,1.065a11.26,11.26,0,0,1,1.1,1.246l.007.013c.233-.278.467-.556.709-.83.65-.736,1.325-1.449,2.038-2.126a20.706,20.706,0,0,1,2.26-1.878Zm-14.259-1.3,0-.016c0,.006-.007.012-.009.017l.006-.031.008.03Zm4.745.128c.027-.055.059-.1.086-.158a.221.221,0,0,0,.008.038c-.031.043-.064.082-.094.12Zm.8,8.605a4.71,4.71,0,0,1,1.344,1.023l.276.361a30.719,30.719,0,0,1-4.413.6l-.006-.022c-.221.012-.442.025-.681.02a24.8,24.8,0,0,1-7.226-1.478s-.4-.1-.414-1.018c0,0,.144-4.038,1.367-5.852a2.723,2.723,0,0,1,1.177-.794s2.783-.846,3.014-1.573c0,0,.148,2.652,2.361,2.849l.34.016c2.441-.066,2.152-2.859,2.152-2.859.086.263.5.541,1,.788.118.052.25.1.4.159a13.122,13.122,0,0,1,1.434.566l.177.057a2.709,2.709,0,0,1,1.176.793,5.548,5.548,0,0,1,.613,1.314c-.13.142-.26.273-.393.42l-.089-.087a16.843,16.843,0,0,0-1.3-1.162q-.333-.269-.678-.524l-.048-.035c-.232-.171-.443-.323-.73-.5l-1.359-.857-3.17,6.454,1.695.457c.115.03.281.1.421.152.178.07.359.144.536.222C106.461,680.465,106.8,680.635,107.12,680.812Z"
		  transform="translate(-96 -662.4)"/>
</svg>
