<svg xmlns="http://www.w3.org/2000/svg" width="20.399" height="19.124" viewBox="0 0 20.399 19.124">
	<defs>
		<style>.a{fill:#4d5c6f;fill-rule:evenodd;}</style>
	</defs>
	<path class="a"
		  d="M99.846,707.8a1.274,1.274,0,0,1,.132-2.3,1.268,1.268,0,0,1,1.326.224,1.274,1.274,0,0,1,.433.956,1.26,1.26,0,0,1-.173.638,1.278,1.278,0,0,1-1.1.636,1.265,1.265,0,0,1-.615-.159Zm13.472,1.6a9.585,9.585,0,0,1-9.031,5.573h-3.553a8.571,8.571,0,0,0,7.378,3.825h7.649a.637.637,0,0,0,.589-.4.63.63,0,0,0-.139-.693l-1.585-1.586a6.344,6.344,0,0,0,1.772-4.338,6.039,6.039,0,0,0-.493-2.386,7.058,7.058,0,0,0-2.056-2.67,7.3,7.3,0,0,1-.531,2.67Zm-10.134-2.076a1.259,1.259,0,0,1-.172-.638,1.277,1.277,0,1,1,.172.638Zm1.1,6.374a8.435,8.435,0,0,0,7.641-4.3,6.058,6.058,0,0,0,.646-2.714,6.3,6.3,0,0,0-1.649-4.193,8.848,8.848,0,0,0-6.638-2.819c-4.57,0-8.286,3.144-8.286,7.012a6.352,6.352,0,0,0,1.772,4.339l-1.585,1.585a.637.637,0,0,0,.45,1.088Zm3.825-5.736a1.275,1.275,0,1,1,1.275-1.275A1.278,1.278,0,0,1,108.112,707.965Z"
		  transform="translate(-96 -699.677)"/>
</svg>
