<svg width="24" height="24" viewBox="0 0 24 24" fill="none" xmlns="http://www.w3.org/2000/svg">
<path d="M12.0004 17.9991C11.8612 17.9991 11.7243 17.9627 11.6034 17.8936L4.60071 13.8912C4.53986 13.8561 4.47083 13.8376 4.40057 13.8376C4.33031 13.8377 4.26129 13.8562 4.20047 13.8914C4.13965 13.9266 4.08916 13.9771 4.0541 14.038C4.01904 14.0989 4.00063 14.168 4.00073 14.2382V17.9991C4.00061 18.1419 4.03871 18.2821 4.11107 18.4051C4.18342 18.5282 4.2874 18.6297 4.41222 18.6991L11.6119 22.6989C11.7308 22.7649 11.8645 22.7996 12.0004 22.7996C12.1364 22.7996 12.2701 22.7649 12.3889 22.6989L19.5886 18.6991C19.7134 18.6297 19.8174 18.5282 19.8898 18.4051C19.9621 18.2821 20.0002 18.1419 20.0001 17.9991V14.2382C20.0002 14.168 19.9818 14.0989 19.9467 14.038C19.9117 13.9771 19.8612 13.9266 19.8004 13.8914C19.7396 13.8562 19.6705 13.8377 19.6003 13.8376C19.53 13.8376 19.461 13.8561 19.4001 13.8912L12.3974 17.8936C12.2765 17.9627 12.1397 17.9991 12.0004 17.9991Z" fill="#8B9EB1"/>
<path d="M23.996 9.12468C23.996 9.12468 23.996 9.12068 23.996 9.11918C23.9831 8.99238 23.94 8.8705 23.8704 8.7637C23.8009 8.65691 23.7068 8.56828 23.596 8.50521L12.3964 2.10545C12.2756 2.03635 12.1387 2 11.9995 2C11.8602 2 11.7234 2.03635 11.6025 2.10545L0.402908 8.50521C0.280506 8.57519 0.178775 8.67628 0.10802 8.79824C0.037265 8.92019 0 9.05868 0 9.19968C0 9.34068 0.037265 9.47917 0.10802 9.60112C0.178775 9.72308 0.280506 9.82417 0.402908 9.89415L11.6025 16.2939C11.7234 16.363 11.8602 16.3994 11.9995 16.3994C12.1387 16.3994 12.2756 16.363 12.3964 16.2939L22.2501 10.6636C22.2653 10.6548 22.2826 10.6502 22.3002 10.6502C22.3178 10.6502 22.335 10.6549 22.3502 10.6637C22.3654 10.6725 22.3781 10.6852 22.3868 10.7005C22.3956 10.7157 22.4001 10.733 22.4001 10.7506V17.9768C22.4001 18.4073 22.7311 18.7768 23.1615 18.7983C23.2697 18.8035 23.3778 18.7867 23.4793 18.7489C23.5807 18.7111 23.6735 18.6531 23.7519 18.5784C23.8303 18.5037 23.8927 18.4139 23.9353 18.3143C23.978 18.2148 24 18.1076 24 17.9993V9.19968C23.9999 9.17463 23.9986 9.1496 23.996 9.12468Z" fill="#8B9EB1"/>
</svg>
