<svg width="24" height="24" viewBox="0 0 24 24" fill="none" xmlns="http://www.w3.org/2000/svg">
<path d="M2.40166 24C2.03731 23.9983 1.6885 23.8522 1.43172 23.5937C1.17493 23.3352 1.03113 22.9854 1.03184 22.6211C1.03503 22.4826 1.05665 22.3451 1.09613 22.2123L2.08291 18.6429C2.12416 18.5111 2.07756 18.3782 2.01702 18.2732L2.00524 18.2518C2.00095 18.2448 1.98059 18.2164 1.96613 18.1955C1.95166 18.1746 1.93506 18.1521 1.92006 18.1302L1.90988 18.1157C0.663891 16.2272 -0.000182383 14.0145 5.73359e-05 11.752C-0.00958552 8.66679 1.19738 5.75197 3.3997 3.54054C5.67863 1.25732 8.72684 1.48809e-06 11.9904 1.48809e-06C14.759 -0.0013664 17.4454 0.940347 19.6072 2.67C21.7206 4.37089 23.1895 6.74143 23.7434 9.34929C23.914 10.1415 23.9998 10.9496 23.9995 11.76C23.9995 14.917 22.7867 17.8821 20.5838 20.1102C18.3617 22.3602 15.3777 23.5955 12.1822 23.5955C11.0572 23.5955 9.61773 23.3084 8.92666 23.1134C8.09523 22.8809 7.3072 22.5777 7.22041 22.5455C7.12857 22.5104 7.03109 22.4922 6.93273 22.492C6.82607 22.4913 6.72037 22.5123 6.62202 22.5536L6.57648 22.5712L2.96149 23.8773C2.78394 23.9521 2.5942 23.9936 2.40166 24Z" fill="#8B9EB1"/>
</svg>
