<svg xmlns="http://www.w3.org/2000/svg" width="42" height="41.999" viewBox="0 0 42 41.999">
	<defs>
		<style>.a{fill:#ffd033;}.a,.b,.c{fill-rule:evenodd;}.b{fill:#e3b233;}.c{fill:#d89b35;}</style>
	</defs>
	<g transform="translate(-1842 -51)">
		<path class="a" d="M1842,72a21,21,0,1,0,21-21A21,21,0,0,0,1842,72Z"/>
		<path class="b" d="M1847.6,72A15.4,15.4,0,1,0,1863,56.6,15.4,15.4,0,0,0,1847.6,72Z"/>
		<path class="c"
			  d="M1861.713,86.111a15.4,15.4,0,0,0,11.513-25.622,15.4,15.4,0,1,1-21.739,21.734A15.337,15.337,0,0,0,1861.713,86.111Z"/>
		<path class="a"
			  d="M1853.914,67.991l10.922,8.192-1.145.859a1.187,1.187,0,0,1-1.338-.02l-4.9-3.672-3.507,2.63,7.513,5.635.891.667a1.185,1.185,0,0,0,1.338.021l.911-.684,7.484-5.613-10.922-8.192,1.146-.859a1.185,1.185,0,0,1,1.338.021l4.9,3.672,3.507-2.631-8.4-6.3a1.185,1.185,0,0,0-1.338-.021Z"/>
	</g>
</svg>
