<svg width="101" height="20" viewBox="0 0 101 20" fill="none" xmlns="http://www.w3.org/2000/svg">
<path fill-rule="evenodd" clip-rule="evenodd" d="M3.74 13.75C4.14446 13.7746 4.54979 13.7188 4.9325 13.5856C5.04887 13.5278 5.14474 13.4357 5.2072 13.3217C5.26966 13.2077 5.29572 13.0773 5.28187 12.9481C5.27098 12.8098 5.22335 12.6768 5.14392 12.563C5.06448 12.4491 4.95612 12.3586 4.83 12.3006C4.39077 12.0526 3.93068 11.8435 3.455 11.6756C3.01074 11.5127 2.57497 11.3275 2.14937 11.1206C1.78166 10.946 1.4441 10.7139 1.14937 10.4331C0.872773 10.1623 0.655657 9.83688 0.511875 9.4775C0.351378 9.05075 0.274768 8.59704 0.28625 8.14125C0.268445 7.67915 0.361841 7.21952 0.558586 6.80102C0.755332 6.38251 1.04967 6.01736 1.41687 5.73625C2.32247 5.10061 3.416 4.78902 4.52063 4.85187C5.15517 4.84993 5.78845 4.90853 6.41187 5.02687C6.90101 5.11257 7.38192 5.23991 7.84937 5.4075L7.315 7.79188C6.9341 7.66151 6.54646 7.55177 6.15375 7.46313C5.6913 7.3622 5.21893 7.31377 4.74562 7.31875C3.78729 7.31875 3.30812 7.58604 3.30812 8.12062C3.30626 8.23333 3.32753 8.34521 3.37062 8.44937C3.42627 8.56252 3.5116 8.65843 3.6175 8.72687C3.77696 8.83699 3.94549 8.93338 4.12125 9.015C4.38609 9.1429 4.65727 9.25721 4.93375 9.3575C5.50589 9.56215 6.06237 9.80822 6.59875 10.0938C6.98514 10.2957 7.33583 10.5596 7.63688 10.875C7.88281 11.1437 8.0654 11.464 8.17125 11.8125C8.27994 12.1988 8.33194 12.5988 8.32562 13C8.35081 13.4732 8.25328 13.9449 8.04248 14.3694C7.83169 14.7938 7.51478 15.1566 7.1225 15.4225C6.09468 16.0264 4.91065 16.3114 3.72062 16.2412C2.44906 16.2705 1.18436 16.0468 0 15.5831L0.513749 13.0956C1.03394 13.3011 1.57039 13.4627 2.1175 13.5787C2.65151 13.6941 3.19619 13.7527 3.7425 13.7537L3.74 13.75ZM71.0525 5.38688C71.8012 13.385 69.72 20 61.1062 20C59.8069 20.0007 58.5152 19.8009 57.2769 19.4075C54.1912 18.42 52.9775 16.3281 52.9775 14.6819V7.09875C52.9775 4.28313 55.0706 2.36187 58.9031 1.54625C60.168 1.27962 61.4546 1.12879 62.7469 1.09562C63.9719 1.05477 65.1978 1.14634 66.4031 1.36875C69.0987 1.89562 71.0544 3.1925 71.0544 5.38875L71.0525 5.38688ZM69.7369 5.38688C69.7369 4.01188 68.2369 3.14562 66.165 2.74062C65.0474 2.53593 63.9111 2.45211 62.7756 2.49063C61.5595 2.5238 60.3489 2.66731 59.1587 2.91938C55.8994 3.61313 54.2912 5.08375 54.2912 7.09813V14.6819C54.2912 15.7556 55.0969 17.2494 57.6506 18.0662C58.7603 18.4282 59.9209 18.6098 61.0881 18.6044C68.46 18.5075 70.4269 12.4631 69.7356 5.38875L69.7369 5.38688ZM82.3981 5.38688C81.6525 13.385 83.7337 20 92.3475 20C93.6468 20.0007 94.9385 19.8009 96.1769 19.4075C99.2631 18.42 100.476 16.3281 100.476 14.6819V7.09875C100.476 4.74188 99.0094 3.01187 96.2831 2.03187V0L93.2206 0.493126V1.3125C92.3876 1.19241 91.5482 1.12104 90.7069 1.09875C89.4818 1.05792 88.256 1.14949 87.0506 1.37187C84.355 1.89875 82.4 3.19562 82.4 5.39187L82.3981 5.38688ZM83.7106 5.38688C83.7106 4.01188 85.2106 3.14562 87.2825 2.74062C88.3998 2.53592 89.536 2.45211 90.6712 2.49063C91.5234 2.51366 92.3733 2.5911 93.2156 2.7225V5.385C92.8873 5.23906 92.5468 5.12215 92.1981 5.03562C91.8241 4.94845 91.4409 4.90649 91.0569 4.91062C90.3553 4.89766 89.6587 5.03068 89.0112 5.30125C88.4258 5.55416 87.9083 5.94151 87.5006 6.43187C87.0696 6.96302 86.7481 7.5744 86.555 8.23062C86.3264 9.00122 86.2156 9.80192 86.2262 10.6056C86.2148 11.3996 86.3435 12.1894 86.6062 12.9388C86.8411 13.6004 87.2164 14.2033 87.7062 14.7062C88.2057 15.2057 88.8095 15.5884 89.4744 15.8269C90.2395 16.0983 91.047 16.2306 91.8587 16.2175C92.2287 16.2175 92.6158 16.2002 93.02 16.1656C93.4242 16.131 93.8217 16.0867 94.2125 16.0325C94.6033 15.9775 94.9767 15.9123 95.3325 15.8369C95.6883 15.7615 96.0035 15.6827 96.2781 15.6006V3.52062C98.2031 4.32 99.1531 5.54813 99.1531 7.09875V14.6819C99.1531 15.7556 98.3475 17.2494 95.7944 18.0662C94.6846 18.4281 93.5241 18.6098 92.3569 18.6044C84.985 18.5075 83.0181 12.4631 83.71 5.38875L83.7106 5.38688ZM83.3875 3.0375C81.4578 2.16875 79.3581 1.74334 77.2425 1.7925C74.4169 1.7925 71.9181 2.44125 70.4044 3.43375C70.7136 3.83915 70.9192 4.31395 71.0031 4.81687C72.8732 3.67273 75.0339 3.09285 77.2256 3.14687C79.0726 3.121 80.9009 3.51823 82.5706 4.30813C82.741 3.8271 83.0206 3.39216 83.3875 3.0375ZM89.3506 10.4606C89.3506 8.48771 90.0771 7.50104 91.53 7.50062C91.8466 7.5009 92.1618 7.54292 92.4675 7.62562C92.7318 7.68932 92.9847 7.79325 93.2175 7.93375V13.5044C93.0671 13.5319 92.8752 13.5558 92.6419 13.5762C92.4085 13.5967 92.155 13.6071 91.8812 13.6075C91.5192 13.6306 91.1571 13.5638 90.8271 13.4131C90.4972 13.2624 90.2096 13.0325 89.99 12.7437C89.5365 12.072 89.3128 11.2714 89.3525 10.4619L89.3506 10.4606ZM79.8506 7.85062C79.5764 7.78187 79.2544 7.70979 78.8844 7.63437C78.4917 7.55666 78.0922 7.51876 77.6919 7.52125C77.4619 7.52428 77.2323 7.5414 77.0044 7.5725C76.7997 7.59506 76.5971 7.63287 76.3981 7.68562V15.9513H73.3356V5.71437C73.9727 5.49735 74.6211 5.31541 75.2781 5.16938C76.0992 4.99022 76.9378 4.90405 77.7781 4.9125C77.9425 4.9125 78.1406 4.92312 78.3737 4.94375C78.6069 4.96437 78.84 4.99125 79.0731 5.02562C79.3062 5.06 79.5387 5.10125 79.7719 5.15062C79.9758 5.18947 80.1754 5.24786 80.3681 5.325L79.8544 7.85375L79.8506 7.85062ZM56.2181 10.625C56.2118 11.3784 56.3264 12.1279 56.5575 12.845C56.7708 13.508 57.1288 14.1154 57.6056 14.6231C58.1082 15.1432 58.7188 15.5466 59.3944 15.805C60.2055 16.1089 61.0671 16.2555 61.9331 16.2369C62.3175 16.2366 62.7016 16.2158 63.0837 16.1744C63.4675 16.1327 63.8273 16.0813 64.1631 16.02C64.4716 15.9649 64.7769 15.8929 65.0775 15.8044C65.3034 15.7405 65.5235 15.658 65.7356 15.5575L65.3244 13.07C64.898 13.2458 64.4534 13.3735 63.9987 13.4506C63.4531 13.5537 62.899 13.6054 62.3437 13.605C61.6041 13.6425 60.8711 13.4485 60.2469 13.05C59.9979 12.8808 59.7896 12.6585 59.6368 12.3991C59.484 12.1398 59.3905 11.8498 59.3631 11.55H66.3112C66.325 11.385 66.3387 11.1969 66.3525 10.9875C66.3662 10.7781 66.3731 10.58 66.3731 10.4019C66.3731 8.57896 65.9277 7.19812 65.0369 6.25937C64.5635 5.78193 63.9947 5.40973 63.3677 5.16709C62.7407 4.92445 62.0696 4.81682 61.3981 4.85125C60.7398 4.85152 60.0875 4.97731 59.4762 5.22188C58.8553 5.46655 58.292 5.8375 57.8219 6.31125C57.3182 6.82712 56.9231 7.43877 56.66 8.11C56.3508 8.91169 56.2007 9.76593 56.2181 10.625ZM63.4137 9.45562C63.4002 9.19759 63.3553 8.94217 63.28 8.695C63.2079 8.45482 63.0892 8.23119 62.9306 8.03687C62.7665 7.83999 62.5635 7.67913 62.3344 7.56437C62.0553 7.43178 61.7488 7.36751 61.44 7.37688C61.1361 7.36891 60.8342 7.42869 60.5562 7.55187C60.32 7.66025 60.1096 7.81795 59.9394 8.01437C59.772 8.2113 59.643 8.43795 59.5594 8.6825C59.4708 8.93287 59.4053 9.19082 59.3637 9.45312L63.4137 9.45562ZM41.5 5.50875C42.1624 5.32795 42.835 5.18727 43.5144 5.0875C44.3712 4.95433 45.2372 4.88892 46.1044 4.89187C46.8842 4.86902 47.6616 4.99108 48.3969 5.25187C48.9603 5.45874 49.4598 5.80954 49.8456 6.26937C50.2117 6.72749 50.4715 7.26116 50.6062 7.83187C50.7638 8.49154 50.8398 9.16806 50.8325 9.84625V15.9513H47.77V10.2162C47.8259 9.49513 47.6912 8.772 47.3794 8.11937C47.2114 7.89748 46.9882 7.72352 46.732 7.61484C46.4758 7.50615 46.1956 7.46656 45.9194 7.5C45.7002 7.5 45.4671 7.51042 45.22 7.53125C44.97 7.55188 44.7544 7.57562 44.5625 7.60312V15.9513H41.5V5.50875ZM34.1844 13.8125C34.4856 13.8125 34.7733 13.8056 35.0475 13.7919C35.2679 13.7832 35.4876 13.7623 35.7056 13.7294V11.4081C35.5806 11.3815 35.3954 11.3542 35.15 11.3263C34.9249 11.3 34.6985 11.2862 34.4719 11.285C34.2002 11.2838 33.9287 11.301 33.6594 11.3362C33.4274 11.3641 33.2016 11.4302 32.9912 11.5319C32.8086 11.6198 32.6524 11.7546 32.5387 11.9225C32.4237 12.1069 32.3665 12.3215 32.3744 12.5387C32.3535 12.7339 32.3877 12.931 32.4731 13.1078C32.5585 13.2845 32.6916 13.4338 32.8575 13.5388C33.2684 13.7436 33.7252 13.8392 34.1837 13.8163L34.1844 13.8125ZM33.9344 4.84937C34.6998 4.82954 35.4635 4.9338 36.1956 5.15812C36.7438 5.32973 37.2414 5.63318 37.645 6.04187C38.0141 6.4366 38.279 6.91713 38.4156 7.44C38.5723 8.03696 38.6482 8.65224 38.6412 9.26937V15.6444C38.2029 15.7398 37.5931 15.8529 36.8119 15.9837C35.8733 16.1251 34.9248 16.1904 33.9756 16.1787C33.3368 16.1839 32.6993 16.121 32.0737 15.9912C31.5493 15.8863 31.0502 15.6804 30.6044 15.385C30.1972 15.1086 29.8709 14.729 29.6587 14.285C29.4248 13.7619 29.3124 13.1927 29.33 12.62C29.3123 12.0612 29.4434 11.5077 29.71 11.0162C29.9553 10.5866 30.3053 10.2261 30.7275 9.96812C31.1783 9.69874 31.6719 9.50849 32.1869 9.40563C32.7479 9.28752 33.3198 9.22886 33.8931 9.23062C34.2467 9.22831 34.6002 9.24542 34.9519 9.28187C35.205 9.30645 35.4558 9.35118 35.7019 9.41563V9.125C35.7123 8.89474 35.6758 8.66477 35.5944 8.44911C35.5131 8.23344 35.3887 8.03662 35.2287 7.87063C34.7623 7.50653 34.173 7.33719 33.5844 7.39812C33.0683 7.39764 32.5529 7.43546 32.0425 7.51125C31.5952 7.57235 31.1554 7.67916 30.73 7.83L30.3394 5.36313C30.5173 5.30813 30.74 5.24979 31.0075 5.18813C31.275 5.12646 31.5667 5.07167 31.8825 5.02375C32.1975 4.97583 32.5298 4.93417 32.8794 4.89875C33.229 4.86333 33.5819 4.84604 33.9381 4.84688L33.9344 4.84937ZM27.4794 7.84937C27.2056 7.78062 26.8837 7.70854 26.5137 7.63312C26.1211 7.55541 25.7215 7.51751 25.3212 7.52C25.0912 7.52303 24.8617 7.54015 24.6337 7.57125C24.4291 7.5938 24.2265 7.63162 24.0275 7.68437V15.9513H20.965V5.71437C21.6018 5.49717 22.2501 5.31523 22.9069 5.16938C23.7279 4.99025 24.5665 4.90408 25.4069 4.9125C25.5715 4.9125 25.77 4.92292 26.0025 4.94375C26.235 4.96458 26.4681 4.99187 26.7019 5.02562C26.9344 5.06021 27.1673 5.10187 27.4006 5.15062C27.6045 5.18955 27.8042 5.24795 27.9969 5.325L27.4825 7.85375L27.4794 7.84937ZM11.12 2.44562L14.1825 1.9525V5.14H17.8625V7.6875H14.1825V11.4906C14.1574 12.0255 14.2745 12.5576 14.5219 13.0325C14.6773 13.2422 14.8862 13.4063 15.1268 13.5075C15.3674 13.6088 15.6308 13.6435 15.8894 13.6081C16.2304 13.6068 16.5706 13.5759 16.9062 13.5156C17.2324 13.4601 17.5526 13.3739 17.8625 13.2581L18.2937 15.6431C17.8929 15.8034 17.4807 15.934 17.0606 16.0337C16.5139 16.1531 15.9551 16.2082 15.3956 16.1981C14.6881 16.2202 13.983 16.105 13.3194 15.8587C12.8093 15.659 12.3579 15.3337 12.0069 14.9131C11.6666 14.4832 11.4312 13.9799 11.3194 13.4431C11.1839 12.8152 11.1185 12.1742 11.1244 11.5319L11.12 2.44562Z" fill="#4D5C6F"/>
</svg>
