<svg width="20" height="20" viewBox="0 0 20 20" fill="none" xmlns="http://www.w3.org/2000/svg">
<path fill-rule="evenodd" clip-rule="evenodd" d="M14.3046 12.5925H13.4026L13.0832 12.2848C14.3373 10.8259 14.9772 8.93795 14.8686 7.01743C14.7599 5.09692 13.9111 3.29318 12.5003 1.98494C11.0896 0.676695 9.22669 -0.0342854 7.30271 0.00127223C5.37872 0.0368299 3.54336 0.81616 2.18195 2.17563C0.820552 3.53511 0.0389942 5.36898 0.00142004 7.2922C-0.0361541 9.21542 0.673177 11.0784 1.98044 12.49C3.2877 13.9015 5.09125 14.7519 7.01237 14.8625C8.9335 14.9732 10.8228 14.3354 12.2835 13.0832L12.5914 13.4026V14.3042L18.3001 20L20 18.2991L14.3029 12.5925H14.3046ZM7.45349 12.5925C6.43714 12.5925 5.4436 12.2912 4.59853 11.7268C3.75347 11.1624 3.09484 10.3601 2.7059 9.42147C2.31696 8.48284 2.21515 7.44999 2.41343 6.45355C2.61171 5.4571 3.10114 4.54181 3.8198 3.82341C4.53847 3.10501 5.45413 2.61577 6.45095 2.41757C7.44777 2.21936 8.48098 2.32109 9.41996 2.70988C10.3589 3.09868 11.1615 3.75708 11.7262 4.60183C12.2908 5.44657 12.5922 6.43972 12.5922 7.45569C12.5932 8.13055 12.461 8.79896 12.2031 9.42264C11.9452 10.0463 11.5667 10.613 11.0893 11.0902C10.6119 11.5674 10.045 11.9457 9.42113 12.2035C8.79722 12.4613 8.1286 12.5935 7.45349 12.5925Z" fill="#8B9EB1"/>
</svg>
