<svg width="82" height="64" viewBox="0 0 82 64" fill="none" xmlns="http://www.w3.org/2000/svg">
	<g clip-path="url(#clip0_5806_23991)">
		<path d="M73.8007 0.0410156H0.03125V47.2862H73.8007V0.0410156Z" fill="#E6E6E6"/>
		<path d="M71.6912 5.9668H2.14062V44.4913H71.6912V5.9668Z" fill="white"/>
		<path d="M73.7694 0H0V3.134H73.7694V0Z" fill="#BEC3CA"/>
		<path
			d="M2.32891 2.18321C2.64971 2.18321 2.90977 1.92315 2.90977 1.60235C2.90977 1.28155 2.64971 1.02148 2.32891 1.02148C2.00811 1.02148 1.74805 1.28155 1.74805 1.60235C1.74805 1.92315 2.00811 2.18321 2.32891 2.18321Z"
			fill="white"/>
		<path
			d="M4.53399 2.18321C4.85479 2.18321 5.11485 1.92315 5.11485 1.60235C5.11485 1.28155 4.85479 1.02148 4.53399 1.02148C4.21319 1.02148 3.95312 1.28155 3.95312 1.60235C3.95312 1.92315 4.21319 2.18321 4.53399 2.18321Z"
			fill="white"/>
		<path
			d="M6.73907 2.18321C7.05987 2.18321 7.31993 1.92315 7.31993 1.60235C7.31993 1.28155 7.05987 1.02148 6.73907 1.02148C6.41826 1.02148 6.1582 1.28155 6.1582 1.60235C6.1582 1.92315 6.41826 2.18321 6.73907 2.18321Z"
			fill="white"/>
		<path d="M26.3322 9.96484H8.46094V40.4949H26.3322V9.96484Z" fill="#E6E6E6"/>
		<path d="M44.3087 9.96484H29.416V18.3686H44.3087V9.96484Z" fill="#BEC3CA"/>
		<path d="M44.3087 20.709H29.416V29.751H44.3087V20.709Z" fill="#E6E6E6"/>
		<path d="M44.3087 32.0918H29.416V40.4955H44.3087V32.0918Z" fill="#E6E6E6"/>
		<path d="M65.3712 9.96484H47.5V23.2697H65.3712V9.96484Z" fill="#E6E6E6"/>
		<path d="M65.3712 27.1895H47.5V40.4943H65.3712V27.1895Z" fill="#E6E6E6"/>
		<path
			d="M58.4863 24.226V21.3616C58.4863 20.3437 58.8907 19.3674 59.6105 18.6476C60.3303 17.9278 61.3066 17.5234 62.3245 17.5234C63.3425 17.5234 64.3188 17.9278 65.0386 18.6476C65.7584 19.3674 66.1627 20.3437 66.1627 21.3616V24.226C66.1626 24.3627 66.1082 24.4937 66.0116 24.5904C65.9149 24.687 65.7839 24.7414 65.6472 24.7416H59.0019C58.8652 24.7414 58.7342 24.687 58.6375 24.5904C58.5409 24.4937 58.4865 24.3627 58.4863 24.226Z"
			fill="#2F2E41"/>
		<path d="M68.0018 61.5009L66.648 61.8755L64.5586 56.8322L66.5566 56.2793L68.0018 61.5009Z" fill="#FFB8B8"/>
		<path
			d="M65.5735 61.756L68.1844 61.0335L68.6393 62.6773L64.3846 63.8548C64.3249 63.6389 64.3082 63.4134 64.3357 63.1911C64.3631 62.9688 64.434 62.7541 64.5444 62.5592C64.6548 62.3643 64.8025 62.193 64.9791 62.0552C65.1557 61.9174 65.3577 61.8157 65.5735 61.756Z"
			fill="#2F2E41"/>
		<path d="M53.8874 62.5429H52.4828L51.8145 57.125H53.8877L53.8874 62.5429Z" fill="#FFB8B8"/>
		<path
			d="M51.4791 62.1406H54.188V63.8463H49.7734C49.7734 63.6223 49.8176 63.4005 49.9033 63.1935C49.989 62.9866 50.1146 62.7986 50.273 62.6402C50.4314 62.4818 50.6194 62.3562 50.8264 62.2705C51.0333 62.1847 51.2551 62.1406 51.4791 62.1406Z"
			fill="#2F2E41"/>
		<path
			d="M52.193 32.2641C52.2933 32.3994 52.422 32.5111 52.5701 32.5913C52.7182 32.6715 52.8821 32.7183 53.0502 32.7283C53.2183 32.7384 53.3866 32.7114 53.5432 32.6493C53.6998 32.5873 53.8409 32.4917 53.9565 32.3692L57.6905 34.0486L57.3508 31.9483L53.8571 30.6755C53.6384 30.4949 53.3612 30.4007 53.0778 30.4109C52.7944 30.4211 52.5246 30.5348 52.3194 30.7307C52.1143 30.9265 51.9882 31.1907 51.9649 31.4733C51.9416 31.756 52.0227 32.0373 52.193 32.2641H52.193Z"
			fill="#FFB8B8"/>
		<path
			d="M59.9509 44.8935C58.7778 44.8935 57.5633 44.7188 56.5425 44.199C56.0006 43.9286 55.5204 43.5492 55.1318 43.0846C54.7433 42.62 54.4548 42.0803 54.2844 41.4991C53.7525 39.8149 54.4232 38.1604 55.0717 36.5604C55.4736 35.5689 55.8532 34.6324 55.9516 33.7094L55.986 33.3816C56.1394 31.9096 56.2719 30.6384 57.0054 30.1616C57.3856 29.9144 57.8968 29.9003 58.5683 30.1184L64.8749 32.1671L64.6431 44.1389L64.6047 44.1517C64.5717 44.1628 62.3485 44.8935 59.9509 44.8935Z"
			fill="#2F2E41"/>
		<path
			d="M58.4594 26.3922C58.4594 26.3922 61.5529 25.4756 63.9589 25.8193C63.9589 25.8193 62.5841 33.3812 63.0424 35.9018C63.5006 38.4224 55.0795 36.8756 56.7981 34.4696L57.371 31.6053C57.371 31.6053 56.2252 30.4595 57.2564 29.0847L58.4594 26.3922Z"
			fill="#BEC3CA"/>
		<path
			d="M56.9376 44.6678L53.125 43.953L54.4561 33.7093C54.5456 33.4233 56.6075 26.9331 57.544 26.5819C58.224 26.3425 58.9194 26.1493 59.6254 26.0037L59.761 25.9766L58.9966 27.1233L55.953 34.4164L56.9376 44.6678Z"
			fill="#2F2E41"/>
		<path
			d="M54.9515 61.2867L50.0254 60.4658L52.7898 49.1775L56.9034 33.7402L56.944 34.0144C56.9472 34.0348 57.3315 36.0514 63.0336 35.1566L63.0838 35.1488L63.0976 35.1976L69.9895 59.5488L64.3765 60.4843L59.257 42.7177L54.9515 61.2867Z"
			fill="#2F2E41"/>
		<path
			d="M61.7773 46.5835L61.7804 46.4968C61.7839 46.4006 62.1228 36.83 62.0096 32.9809C61.896 29.1187 63.1464 25.7741 63.159 25.7408L63.1692 25.7139L63.1968 25.706C64.8145 25.2438 66.218 26.6232 66.232 26.6372L66.2517 26.6569L65.791 30.458L67.7635 44.2803L61.7773 46.5835Z"
			fill="#2F2E41"/>
		<path
			d="M61.5367 24.675C63.0908 24.675 64.3507 23.4151 64.3507 21.8609C64.3507 20.3068 63.0908 19.0469 61.5367 19.0469C59.9825 19.0469 58.7227 20.3068 58.7227 21.8609C58.7227 23.4151 59.9825 24.675 61.5367 24.675Z"
			fill="#FFB8B8"/>
		<path
			d="M57.5801 21.5909C57.581 20.7859 57.9012 20.0142 58.4704 19.445C59.0396 18.8758 59.8113 18.5556 60.6163 18.5547H61.1892C61.9941 18.5556 62.7659 18.8758 63.3351 19.445C63.9043 20.0142 64.2244 20.7859 64.2253 21.5909V21.6482H63.0147L62.6018 20.4919L62.5192 21.6482H61.8935L61.6852 21.0648L61.6435 21.6482H57.5801V21.5909Z"
			fill="#2F2E41"/>
		<path
			d="M61.2595 25.0621C61.2027 24.9852 61.1687 24.8937 61.1616 24.7983C61.1544 24.7029 61.1744 24.6074 61.2191 24.5228C61.8262 23.3682 62.6762 21.2346 61.548 19.9188L61.4669 19.8242H64.7422V24.7417L61.7668 25.2667C61.7367 25.272 61.7062 25.2747 61.6756 25.2747C61.5944 25.2747 61.5143 25.2555 61.442 25.2185C61.3696 25.1815 61.3071 25.128 61.2595 25.0621Z"
			fill="#2F2E41"/>
		<path
			d="M48.073 4.76C45.7811 2.82604 42.9764 1.59993 40.0004 1.23088C37.0243 0.861829 34.0052 1.36574 31.3103 2.6813C28.6154 3.99686 26.361 6.06735 24.8214 8.64081C23.2817 11.2143 22.5233 14.1798 22.6383 17.1764C22.7534 20.1731 23.7369 23.0717 25.4693 25.5195C27.2017 27.9674 29.6082 29.8589 32.396 30.964C35.1839 32.0691 38.2328 32.34 41.1718 31.7439C44.1108 31.1478 46.8132 29.7102 48.9501 27.6063L67.9255 43.6176C68.2142 43.8617 68.5881 43.9811 68.9648 43.9496C69.3416 43.918 69.6904 43.7381 69.9345 43.4494C70.1786 43.1607 70.298 42.7868 70.2664 42.4101C70.2349 42.0333 70.055 41.6845 69.7662 41.4404L69.7641 41.4386L50.7887 25.4273C52.9931 22.2635 53.9365 18.3907 53.4341 14.5676C52.9318 10.7445 51.0198 7.24685 48.073 4.76ZM46.8497 23.8855C45.3715 25.6374 43.4069 26.9116 41.2044 27.547C39.002 28.1824 36.6606 28.1504 34.4763 27.4551C32.292 26.7598 30.3629 25.4324 28.9331 23.6408C27.5032 21.8491 26.6367 19.6737 26.4432 17.3896C26.2497 15.1055 26.7379 12.8153 27.8459 10.8086C28.954 8.80198 30.6323 7.16896 32.6684 6.1161C34.7046 5.06323 37.0073 4.63781 39.2852 4.89363C41.5632 5.14944 43.7141 6.07501 45.4661 7.55328H45.4661C46.6293 8.53481 47.5879 9.73585 48.2869 11.0878C48.986 12.4398 49.4119 13.9162 49.5404 15.4328C49.6689 16.9494 49.4974 18.4764 49.0358 19.9267C48.5741 21.3771 47.8313 22.7222 46.8497 23.8855Z"
			fill="#3F3D56"/>
		<path opacity="0.3"
			  d="M30.5172 25.2702C28.2938 23.3939 26.8573 20.7501 26.493 17.8637C26.1286 14.9773 26.8631 12.0594 28.5505 9.68945C28.3289 9.91262 28.1147 10.1463 27.9078 10.3906C26.9263 11.5539 26.1835 12.899 25.7218 14.3494C25.2602 15.7997 25.0887 17.3267 25.2172 18.8433C25.3456 20.3599 25.7716 21.8363 26.4707 23.1883C27.1697 24.5403 28.1282 25.7413 29.2915 26.7228C30.4547 27.7044 31.7999 28.4472 33.2502 28.9088C34.7005 29.3705 36.2276 29.542 37.7442 29.4135C39.2607 29.285 40.7372 28.8591 42.0891 28.16C43.4411 27.4609 44.6422 26.5024 45.6237 25.3392C45.8301 25.0946 46.0244 24.8441 46.2068 24.5877C44.1545 26.6498 41.4018 27.8646 38.4952 27.9911C35.5886 28.1175 32.7408 27.1463 30.5172 25.2702Z"
			  fill="black"/>
		<path
			d="M62.4394 37.1841C62.603 37.2241 62.7734 37.2277 62.9386 37.1948C63.1038 37.1618 63.2597 37.093 63.3954 36.9932C63.5311 36.8935 63.6433 36.7652 63.7241 36.6174C63.8048 36.4696 63.8522 36.3059 63.8628 36.1378L67.808 35.0427L66.2043 33.6445L62.7038 34.8988C62.4202 34.8996 62.1468 35.0044 61.9353 35.1934C61.7239 35.3823 61.5891 35.6423 61.5565 35.924C61.5239 36.2057 61.5958 36.4896 61.7585 36.7218C61.9212 36.9541 62.1635 37.1185 62.4394 37.1841Z"
			fill="#FFB8B8"/>
		<path
			d="M64.0799 36.6029L63.8398 34.3222L67.1353 32.504L64.9867 29.9031L65.3373 26.9816L66.2103 26.6074L66.2375 26.6423C66.6491 27.1717 70.2596 31.8303 70.2596 32.4062C70.2596 32.9977 69.5689 34.7347 68.6239 35.2072C67.7124 35.663 64.2895 36.5488 64.1443 36.5863L64.0799 36.6029Z"
			fill="#2F2E41"/>
		<path
			d="M81.1792 64.0006H37.5267C37.4963 64.0006 37.4671 63.9886 37.4457 63.9671C37.4242 63.9456 37.4121 63.9164 37.4121 63.8861C37.4121 63.8557 37.4242 63.8265 37.4457 63.805C37.4671 63.7836 37.4963 63.7715 37.5267 63.7715H81.1792C81.2095 63.7715 81.2387 63.7836 81.2602 63.805C81.2817 63.8265 81.2937 63.8557 81.2937 63.8861C81.2937 63.9164 81.2817 63.9456 81.2602 63.9671C81.2387 63.9886 81.2095 64.0006 81.1792 64.0006Z"
			fill="#CCCCCC"/>
	</g>
	<defs>
		<clipPath id="clip0_5806_23991">
			<rect width="81.2936" height="64" fill="white"/>
		</clipPath>
	</defs>
</svg>
