<svg width="89" height="64" viewBox="0 0 89 64" fill="none" xmlns="http://www.w3.org/2000/svg">
	<g clip-path="url(#clip0_5806_24399)">
		<path
			d="M53.7727 0H0.94893C0.697375 0.000378435 0.45623 0.100476 0.278353 0.278353C0.100476 0.45623 0.000378435 0.697375 0 0.94893V32.1582C0.000378435 32.4098 0.100476 32.6509 0.278353 32.8288C0.45623 33.0066 0.697375 33.1068 0.94893 33.1071H53.7727C54.0243 33.1068 54.2654 33.0066 54.4433 32.8288C54.6212 32.6509 54.7213 32.4098 54.7217 32.1582V0.94893C54.7213 0.697375 54.6212 0.45623 54.4433 0.278353C54.2654 0.100476 54.0243 0.000378435 53.7727 0ZM54.5108 32.1582C54.5106 32.3539 54.4327 32.5415 54.2944 32.6798C54.156 32.8182 53.9684 32.896 53.7727 32.8963H0.94893C0.753252 32.896 0.56565 32.8182 0.427284 32.6798C0.288919 32.5415 0.211091 32.3539 0.210873 32.1582V0.94893C0.211091 0.753252 0.288919 0.56565 0.427284 0.427284C0.56565 0.288919 0.753252 0.211091 0.94893 0.210873H53.7727C53.9684 0.211091 54.156 0.288919 54.2944 0.427284C54.4327 0.56565 54.5106 0.753252 54.5108 0.94893V32.1582Z"
			fill="#3F3D56"/>
		<path d="M54.6162 3.58398H0.105469V3.79486H54.6162V3.58398Z" fill="#3F3D56"/>
		<path
			d="M1.89828 2.37273C2.18943 2.37273 2.42546 2.1367 2.42546 1.84554C2.42546 1.55439 2.18943 1.31836 1.89828 1.31836C1.60712 1.31836 1.37109 1.55439 1.37109 1.84554C1.37109 2.1367 1.60712 2.37273 1.89828 2.37273Z"
			fill="#CCCCCC"/>
		<path
			d="M3.48031 2.37273C3.77146 2.37273 4.00749 2.1367 4.00749 1.84554C4.00749 1.55439 3.77146 1.31836 3.48031 1.31836C3.18915 1.31836 2.95312 1.55439 2.95312 1.84554C2.95312 2.1367 3.18915 2.37273 3.48031 2.37273Z"
			fill="#CCCCCC"/>
		<path
			d="M5.06039 2.37273C5.35154 2.37273 5.58757 2.1367 5.58757 1.84554C5.58757 1.55439 5.35154 1.31836 5.06039 1.31836C4.76923 1.31836 4.5332 1.55439 4.5332 1.84554C4.5332 2.1367 4.76923 2.37273 5.06039 2.37273Z"
			fill="#CCCCCC"/>
		<path
			d="M40.1184 45.2076H14.6038C14.4986 45.2074 14.3978 45.1656 14.3234 45.0912C14.249 45.0169 14.2072 44.9161 14.207 44.811V16.2383C14.2072 16.1332 14.249 16.0325 14.3234 15.9581C14.3977 15.8838 14.4985 15.842 14.6036 15.8418H40.1186C40.2237 15.842 40.3245 15.8838 40.3988 15.9581C40.4732 16.0325 40.515 16.1334 40.5151 16.2386V44.8108C40.515 44.916 40.4732 45.0168 40.3988 45.0912C40.3244 45.1656 40.2236 45.2075 40.1184 45.2076Z"
			fill="white" stroke="#E4EAF0"/>
		<path
			d="M34.8466 29.9972H19.8746C19.5251 29.9972 19.1898 29.8584 18.9427 29.6112C18.6955 29.3641 18.5566 29.0288 18.5566 28.6793C18.5566 28.3297 18.6955 27.9945 18.9427 27.7473C19.1898 27.5002 19.5251 27.3613 19.8746 27.3613H34.8466C35.1962 27.3613 35.5314 27.5002 35.7785 27.7473C36.0257 27.9945 36.1646 28.3297 36.1646 28.6793C36.1646 29.0288 36.0257 29.3641 35.7785 29.6112C35.5314 29.8584 35.1962 29.9972 34.8466 29.9972Z"
			fill="#BEC3CA"/>
		<path
			d="M34.8466 34.8996H19.8746C19.5251 34.8996 19.1898 34.7607 18.9427 34.5136C18.6955 34.2664 18.5566 33.9312 18.5566 33.5816C18.5566 33.2321 18.6955 32.8969 18.9427 32.6497C19.1898 32.4025 19.5251 32.2637 19.8746 32.2637H34.8466C35.1962 32.2637 35.5314 32.4025 35.7785 32.6497C36.0257 32.8969 36.1646 33.2321 36.1646 33.5816C36.1646 33.9312 36.0257 34.2664 35.7785 34.5136C35.5314 34.7607 35.1962 34.8996 34.8466 34.8996Z"
			fill="#BEC3CA"/>
		<path
			d="M34.8466 39.8547H19.8746C19.5251 39.8547 19.1898 39.7158 18.9427 39.4686C18.6955 39.2215 18.5566 38.8863 18.5566 38.5367C18.5566 38.1872 18.6955 37.8519 18.9427 37.6048C19.1898 37.3576 19.5251 37.2188 19.8746 37.2188H34.8466C35.1962 37.2188 35.5314 37.3576 35.7785 37.6048C36.0257 37.8519 36.1646 38.1872 36.1646 38.5367C36.1646 38.8863 36.0257 39.2215 35.7785 39.4686C35.5314 39.7158 35.1962 39.8547 34.8466 39.8547Z"
			fill="#BEC3CA"/>
		<path
			d="M30.2596 23.5129H24.4605C24.111 23.5129 23.7758 23.374 23.5286 23.1268C23.2814 22.8797 23.1426 22.5445 23.1426 22.1949C23.1426 21.8454 23.2814 21.5101 23.5286 21.263C23.7758 21.0158 24.111 20.877 24.4605 20.877H30.2596C30.6091 20.877 30.9443 21.0158 31.1915 21.263C31.4387 21.5101 31.5775 21.8454 31.5775 22.1949C31.5775 22.5445 31.4387 22.8797 31.1915 23.1268C30.9443 23.374 30.6091 23.5129 30.2596 23.5129Z"
			fill="#BEC3CA"/>
		<path
			d="M49.0802 7.48633H5.64029C5.02886 7.48633 4.5332 7.98199 4.5332 8.59341V8.59341C4.5332 9.20484 5.02886 9.7005 5.64029 9.7005H49.0802C49.6916 9.7005 50.1873 9.20484 50.1873 8.59341C50.1873 7.98199 49.6916 7.48633 49.0802 7.48633Z"
			fill="#CCCCCC"/>
		<path
			d="M77.9831 50.1908C78.1168 50.1242 78.2344 50.0292 78.3274 49.9123C78.4204 49.7954 78.4867 49.6595 78.5215 49.5143C78.5563 49.369 78.5589 49.2179 78.529 49.0716C78.4991 48.9252 78.4375 48.7872 78.3485 48.6672L80.7295 35.4902L78.5076 35.4609L76.8542 48.4913C76.6626 48.6541 76.5373 48.8817 76.5022 49.1307C76.4671 49.3797 76.5246 49.633 76.6638 49.8425C76.8029 50.0519 77.0141 50.2031 77.2573 50.2673C77.5004 50.3315 77.7587 50.3043 77.9831 50.1908H77.9831Z"
			fill="#A0616A"/>
		<path
			d="M71.0876 49.5664L70.2441 53.573L70.3496 62.5351H71.9311L72.6692 53.7839L73.829 50.0936L71.0876 49.5664Z"
			fill="#A0616A"/>
		<path
			d="M76.3591 49.5664L75.5156 53.573L75.6211 62.5351H77.2026L77.9407 53.7839L79.1005 50.0936L76.3591 49.5664Z"
			fill="#A0616A"/>
		<path
			d="M69.8317 62.2841L72.322 62.3971L72.2509 63.9651L68.1925 63.7809C68.2018 63.575 68.2517 63.3729 68.3391 63.1863C68.4265 62.9996 68.5499 62.832 68.7021 62.693C68.8543 62.554 69.0324 62.4464 69.2262 62.3762C69.42 62.306 69.6258 62.2747 69.8317 62.2841Z"
			fill="#2F2E41"/>
		<path
			d="M75.1032 62.2841L77.5935 62.3971L77.5224 63.9651L73.464 63.7809C73.4733 63.575 73.5231 63.3729 73.6106 63.1863C73.698 62.9996 73.8214 62.832 73.9736 62.693C74.1258 62.554 74.3039 62.4464 74.4977 62.3762C74.6915 62.306 74.8972 62.2747 75.1032 62.2841Z"
			fill="#2F2E41"/>
		<path
			d="M74.9353 29.9176C76.3656 29.9176 77.525 28.7581 77.525 27.3279C77.525 25.8977 76.3656 24.7383 74.9353 24.7383C73.5051 24.7383 72.3457 25.8977 72.3457 27.3279C72.3457 28.7581 73.5051 29.9176 74.9353 29.9176Z"
			fill="#A0616A"/>
		<path
			d="M80.6593 33.7319C79.8024 32.3873 76.9515 29.0371 72.7222 31.7991C72.7222 31.7991 73.7239 40.1813 71.2988 44.7151C71.2988 44.7151 76.887 46.402 79.9446 44.8205C79.9446 44.8205 78.8903 37.7562 79.9446 36.3856C80.2962 35.9475 80.5809 35.4598 80.7895 34.9383C80.8627 34.7409 80.8891 34.5291 80.8665 34.3198C80.8439 34.1104 80.773 33.9092 80.6593 33.7319Z"
			fill="#CCCCCC"/>
		<path
			d="M79.6267 33.6445L80.6614 34.0757C80.7303 34.1044 80.7895 34.1521 80.8322 34.2133C80.8749 34.2746 80.8992 34.3467 80.9023 34.4212L80.9973 36.7022L78.6777 36.4913L79.6267 33.6445Z"
			fill="#CCCCCC"/>
		<path
			d="M71.7186 44.5039C71.7186 44.5039 69.399 48.8268 69.8208 52.8334L73.0893 53.3606L75.4089 47.7724L74.8817 53.466L78.2557 53.5715C78.2557 53.5715 80.4699 45.3474 79.7318 44.6093L71.7186 44.5039Z"
			fill="#2F2E41"/>
		<path
			d="M71.1296 49.1361C71.2633 49.0695 71.3808 48.9745 71.4739 48.8576C71.5669 48.7407 71.6331 48.6049 71.668 48.4596C71.7028 48.3143 71.7054 48.1632 71.6755 48.0169C71.6456 47.8705 71.584 47.7325 71.495 47.6125L73.876 34.4355L71.6541 34.4062L70.0007 47.4366C69.809 47.5995 69.6838 47.827 69.6487 48.076C69.6136 48.325 69.6711 48.5783 69.8103 48.7878C69.9494 48.9973 70.1606 49.1484 70.4038 49.2126C70.6469 49.2768 70.9052 49.2496 71.1296 49.1361H71.1296Z"
			fill="#A0616A"/>
		<path
			d="M73.7239 31.8529L72.7749 31.7474C72.7749 31.7474 71.9314 31.5365 71.6151 32.6963C71.2988 33.8562 71.2988 36.1758 71.2988 36.1758L74.2511 36.0703L73.7239 31.8529Z"
			fill="#CCCCCC"/>
		<path
			d="M75.3493 28.5737C75.4423 28.2509 75.4154 27.814 75.1024 27.6919C74.9394 27.6283 74.7574 27.6785 74.5833 27.6963C74.2425 27.7298 73.9015 27.6359 73.6258 27.4328C73.3021 27.1921 73.1021 26.8242 72.9122 26.4683L72.625 25.93C72.5611 25.8178 72.5066 25.7004 72.4621 25.5792C72.3023 25.104 72.4758 24.5538 72.831 24.1999C73.2022 23.8546 73.6908 23.6631 74.1978 23.6641C74.7008 23.6677 75.1978 23.7741 75.6582 23.9769C76.4765 24.3105 77.2176 24.8084 77.8358 25.4399C78.2398 25.8532 78.6076 26.3916 78.5232 26.9634C78.4575 27.4085 78.1331 27.7649 77.8237 28.0916L76.7013 29.2763C76.5026 29.4862 76.2902 29.7045 76.0126 29.7852C75.7351 29.8659 75.3776 29.7474 75.3019 29.4684C75.3019 29.4684 75.2563 28.8965 75.3493 28.5737Z"
			fill="#2F2E41"/>
		<path
			d="M88.3032 63.8945C88.3031 63.9224 88.292 63.9492 88.2722 63.969C88.2525 63.9887 88.2257 63.9999 88.1978 63.9999H57.832C57.804 63.9999 57.7772 63.9888 57.7574 63.9691C57.7377 63.9493 57.7266 63.9225 57.7266 63.8945C57.7266 63.8665 57.7377 63.8397 57.7574 63.8199C57.7772 63.8002 57.804 63.7891 57.832 63.7891H88.1978C88.2257 63.7891 88.2525 63.8003 88.2722 63.82C88.292 63.8398 88.3031 63.8666 88.3032 63.8945Z"
			fill="#3F3D56"/>
	</g>
	<defs>
		<clipPath id="clip0_5806_24399">
			<rect width="88.3032" height="64" fill="white"/>
		</clipPath>
	</defs>
</svg>
