<svg width="60" height="64" viewBox="0 0 60 64" fill="none" xmlns="http://www.w3.org/2000/svg">
<g clip-path="url(#clip0_5806_24113)">
<path d="M37.7306 36.3115L12.0196 42.9324C11.1474 43.1559 10.2222 43.0244 9.44694 42.5666C8.67166 42.1088 8.10961 41.3622 7.8841 40.4906L0.108416 10.2951C-0.115121 9.42297 0.0164181 8.49777 0.474178 7.72249C0.931938 6.9472 1.67854 6.38515 2.55017 6.15965L26.4701 0L32.5924 2.74078L40.1723 32.176C40.3959 33.0482 40.2643 33.9734 39.8066 34.7486C39.3488 35.5239 38.6022 36.086 37.7306 36.3115Z" fill="#F2F2F2"/>
<path d="M2.79316 7.10562C2.17245 7.26621 1.64078 7.66646 1.3148 8.21855C0.988816 8.77065 0.895144 9.42951 1.05433 10.0506L8.83002 40.2461C8.9906 40.8668 9.39085 41.3984 9.94295 41.7244C10.495 42.0504 11.1539 42.1441 11.775 41.9849L37.486 35.364C38.1067 35.2034 38.6384 34.8032 38.9643 34.2511C39.2903 33.699 39.384 33.0401 39.2248 32.4191L31.7623 3.43992L26.3819 1.03125L2.79316 7.10562Z" fill="white"/>
<path d="M32.5257 2.89589L28.5465 3.92056C28.256 3.99536 27.9477 3.9517 27.6894 3.79919C27.4311 3.64668 27.244 3.39781 27.1692 3.10732L26.4124 0.168394C26.4091 0.155527 26.4095 0.141987 26.4135 0.129327C26.4175 0.116666 26.425 0.105398 26.4352 0.0968135C26.4453 0.0882292 26.4577 0.0826765 26.4708 0.0807925C26.484 0.0789085 26.4974 0.080769 26.5095 0.0861611L32.5367 2.76283C32.5501 2.76878 32.5614 2.77877 32.5688 2.79139C32.5763 2.80402 32.5797 2.81866 32.5785 2.83329C32.5773 2.84791 32.5715 2.8618 32.5621 2.87301C32.5526 2.88423 32.5399 2.89223 32.5257 2.89589Z" fill="#F2F2F2"/>
<path d="M30.4339 28.6835L18.728 31.6979C18.6561 31.7164 18.5812 31.7206 18.5077 31.7101C18.4342 31.6997 18.3634 31.6749 18.2995 31.6372C18.2355 31.5994 18.1796 31.5494 18.135 31.4901C18.0904 31.4307 18.0579 31.3632 18.0393 31.2912C18.0208 31.2193 18.0167 31.1445 18.0271 31.0709C18.0375 30.9974 18.0623 30.9266 18.1 30.8627C18.1378 30.7987 18.1878 30.7429 18.2471 30.6982C18.3065 30.6536 18.3741 30.6211 18.446 30.6026L30.1518 27.5882C30.2237 27.5697 30.2986 27.5655 30.3721 27.5759C30.4457 27.5863 30.5164 27.6111 30.5804 27.6489C30.6443 27.6866 30.7002 27.7366 30.7448 27.796C30.7895 27.8553 30.822 27.9229 30.8405 27.9948C30.859 28.0667 30.8632 28.1416 30.8528 28.2151C30.8424 28.2886 30.8176 28.3594 30.7798 28.4233C30.7421 28.4873 30.6921 28.5432 30.6327 28.5878C30.5734 28.6324 30.5058 28.6649 30.4339 28.6835Z" fill="#CCCCCC"/>
<path d="M33.1675 29.949L19.2026 33.5451C19.0574 33.5825 18.9032 33.5607 18.7741 33.4844C18.6449 33.4081 18.5514 33.2837 18.514 33.1385C18.4766 32.9932 18.4984 32.8391 18.5746 32.7099C18.6509 32.5808 18.7753 32.4872 18.9206 32.4498L32.8855 28.8537C33.0307 28.8164 33.1847 28.8383 33.3137 28.9146C33.4428 28.9909 33.5363 29.1153 33.5736 29.2604C33.611 29.4056 33.5892 29.5596 33.5131 29.6888C33.4369 29.8179 33.3126 29.9115 33.1675 29.949Z" fill="#CCCCCC"/>
<path d="M13.9499 35.3276C15.0538 35.3276 15.9487 34.4327 15.9487 33.3288C15.9487 32.225 15.0538 31.3301 13.9499 31.3301C12.846 31.3301 11.9512 32.225 11.9512 33.3288C11.9512 34.4327 12.846 35.3276 13.9499 35.3276Z" fill="#BEC3CA"/>
<path d="M29.1888 23.4512L13.6423 27.4531C13.193 27.5683 12.7164 27.5004 12.317 27.2646C11.9176 27.0287 11.6281 26.6441 11.512 26.1951L8.25403 13.5386C8.13891 13.0893 8.20671 12.6127 8.44257 12.2133C8.67842 11.8139 9.06305 11.5244 9.51209 11.4083L25.0586 7.40637C25.5079 7.29125 25.9846 7.35906 26.3839 7.59491C26.7833 7.83076 27.0728 8.2154 27.1889 8.66444L30.4469 21.3209C30.562 21.7702 30.4942 22.2468 30.2584 22.6462C30.0225 23.0456 29.6379 23.3351 29.1888 23.4512Z" fill="white"/>
<path d="M29.1888 23.4512L13.6423 27.4531C13.193 27.5683 12.7164 27.5004 12.317 27.2646C11.9176 27.0287 11.6281 26.6441 11.512 26.1951L8.25403 13.5386C8.13891 13.0893 8.20671 12.6127 8.44257 12.2133C8.67842 11.8139 9.06305 11.5244 9.51209 11.4083L25.0586 7.40637C25.5079 7.29125 25.9846 7.35906 26.3839 7.59491C26.7833 7.83076 27.0728 8.2154 27.1889 8.66444L30.4469 21.3209C30.562 21.7702 30.4942 22.2468 30.2584 22.6462C30.0225 23.0456 29.6379 23.3351 29.1888 23.4512ZM9.5634 11.6076C9.1672 11.7101 8.82781 11.9655 8.61971 12.3179C8.4116 12.6703 8.35177 13.0908 8.45334 13.4873L11.7113 26.1438C11.8138 26.54 12.0692 26.8794 12.4216 27.0875C12.774 27.2956 13.1945 27.3554 13.591 27.2538L29.1375 23.2519C29.5337 23.1494 29.8731 22.894 30.0812 22.5416C30.2893 22.1892 30.3492 21.7687 30.2476 21.3722L26.9896 8.71574C26.8871 8.31953 26.6317 7.98015 26.2793 7.77204C25.9269 7.56394 25.5064 7.50411 25.1099 7.60568L9.5634 11.6076Z" fill="#E6E6E6"/>
<path d="M24.2695 11.6622L16.4233 13.6819C16.3547 13.701 16.2814 13.6934 16.2182 13.6606C16.155 13.6278 16.1066 13.5722 16.0829 13.5051C16.0718 13.47 16.068 13.433 16.0717 13.3964C16.0754 13.3598 16.0865 13.3244 16.1043 13.2922C16.1222 13.2601 16.1464 13.2319 16.1755 13.2094C16.2045 13.1869 16.2379 13.1706 16.2735 13.1614L24.2604 11.1055C24.583 11.2689 24.4982 11.6033 24.2694 11.6622L24.2695 11.6622Z" fill="#F2F2F2"/>
<path d="M24.623 13.0391L16.7768 15.0589C16.7082 15.078 16.6349 15.0704 16.5717 15.0376C16.5085 15.0047 16.4602 14.9491 16.4364 14.882C16.4253 14.8469 16.4215 14.81 16.4252 14.7734C16.4289 14.7368 16.44 14.7013 16.4578 14.6692C16.4757 14.637 16.4999 14.6089 16.529 14.5864C16.5581 14.5639 16.5914 14.5475 16.627 14.5384L24.6139 12.4824C24.9366 12.6459 24.8517 12.9803 24.6229 13.0392L24.623 13.0391Z" fill="#F2F2F2"/>
<path d="M15.2836 16.2786L12.889 16.895C12.8108 16.915 12.7278 16.9032 12.6583 16.8622C12.5888 16.8211 12.5384 16.7542 12.5182 16.676L11.7908 13.8502C11.7707 13.772 11.7825 13.6891 11.8236 13.6196C11.8647 13.55 11.9316 13.4996 12.0098 13.4794L14.4043 12.863C14.4825 12.843 14.5655 12.8548 14.635 12.8959C14.7045 12.9369 14.7549 13.0039 14.7751 13.082L15.5025 15.9078C15.5226 15.986 15.5108 16.069 15.4697 16.1385C15.4287 16.208 15.3617 16.2584 15.2836 16.2786V16.2786Z" fill="#E6E6E6"/>
<path d="M25.3257 15.8634L13.3511 18.9458C13.2825 18.965 13.2092 18.9574 13.146 18.9246C13.0828 18.8917 13.0344 18.8361 13.0106 18.769C12.9995 18.7339 12.9957 18.697 12.9994 18.6604C13.0031 18.6238 13.0142 18.5883 13.032 18.5562C13.0499 18.524 13.0741 18.4958 13.1032 18.4734C13.1323 18.4509 13.1657 18.4345 13.2013 18.4254L25.3168 15.3066C25.6394 15.4701 25.5545 15.8045 25.3257 15.8634L25.3257 15.8634Z" fill="#F2F2F2"/>
<path d="M25.6812 17.2403L13.7065 20.3228C13.6379 20.3419 13.5646 20.3343 13.5014 20.3015C13.4382 20.2687 13.3898 20.2131 13.3661 20.1459C13.355 20.1109 13.3512 20.0739 13.3549 20.0373C13.3586 20.0007 13.3697 19.9653 13.3875 19.9331C13.4054 19.901 13.4296 19.8728 13.4587 19.8503C13.4878 19.8278 13.5211 19.8115 13.5567 19.8023L25.6722 16.6836C25.9949 16.8471 25.91 17.1814 25.6812 17.2403V17.2403Z" fill="#F2F2F2"/>
<path d="M26.0347 18.6153L14.06 21.6978C13.9914 21.7169 13.9181 21.7093 13.8549 21.6765C13.7917 21.6437 13.7434 21.5881 13.7196 21.5209C13.7085 21.4859 13.7047 21.4489 13.7084 21.4123C13.7121 21.3757 13.7232 21.3403 13.741 21.3081C13.7589 21.276 13.7831 21.2478 13.8122 21.2253C13.8413 21.2028 13.8746 21.1865 13.9103 21.1773L26.0257 18.0586C26.3484 18.2221 26.2635 18.5564 26.0347 18.6153Z" fill="#F2F2F2"/>
<path d="M26.3882 19.9923L14.4136 23.0747C14.345 23.0939 14.2717 23.0863 14.2085 23.0535C14.1453 23.0206 14.0969 22.965 14.0731 22.8979C14.062 22.8628 14.0582 22.8259 14.0619 22.7893C14.0656 22.7527 14.0767 22.7172 14.0945 22.6851C14.1124 22.6529 14.1366 22.6247 14.1657 22.6023C14.1948 22.5798 14.2282 22.5634 14.2638 22.5543L26.3793 19.4355C26.7019 19.599 26.617 19.9334 26.3882 19.9923L26.3882 19.9923Z" fill="#F2F2F2"/>
<path d="M26.7437 21.3673L14.769 24.4497C14.7004 24.4689 14.6271 24.4613 14.5639 24.4285C14.5007 24.3956 14.4523 24.34 14.4286 24.2729C14.4175 24.2378 14.4137 24.2009 14.4174 24.1643C14.4211 24.1277 14.4322 24.0922 14.45 24.0601C14.4679 24.0279 14.4921 23.9997 14.5212 23.9773C14.5502 23.9548 14.5836 23.9384 14.6192 23.9293L26.7347 20.8105C27.0574 20.974 26.9725 21.3084 26.7437 21.3673Z" fill="#F2F2F2"/>
<path d="M14.0966 34.0296C14.0531 34.0409 14.007 34.0377 13.9655 34.0205L13.9629 34.0195L13.4184 33.7886C13.3931 33.7779 13.3702 33.7624 13.351 33.7428C13.3317 33.7232 13.3165 33.7001 13.3062 33.6746C13.2959 33.6492 13.2908 33.622 13.291 33.5945C13.2913 33.5671 13.2969 33.54 13.3077 33.5147C13.3184 33.4895 13.334 33.4666 13.3536 33.4474C13.3732 33.4282 13.3964 33.413 13.4218 33.4027C13.4473 33.3925 13.4745 33.3874 13.502 33.3877C13.5294 33.388 13.5565 33.3937 13.5818 33.4044L13.9346 33.5545L14.3969 32.4669C14.4077 32.4416 14.4232 32.4188 14.4428 32.3996C14.4623 32.3804 14.4855 32.3652 14.5109 32.355C14.5363 32.3447 14.5635 32.3396 14.5909 32.3399C14.6183 32.3401 14.6454 32.3458 14.6706 32.3565L14.6707 32.3565L14.6679 32.3636L14.6708 32.3565C14.7217 32.3782 14.7619 32.4192 14.7826 32.4705C14.8033 32.5218 14.8027 32.5793 14.7811 32.6302L14.2372 33.9091C14.2246 33.9385 14.2053 33.9647 14.181 33.9856C14.1566 34.0064 14.1278 34.0214 14.0967 34.0293L14.0966 34.0296Z" fill="white"/>
<path d="M47.5922 47.8181H21.0424C20.142 47.8171 19.2789 47.459 18.6422 46.8223C18.0056 46.1857 17.6475 45.3225 17.6465 44.4222V13.2416C17.6475 12.3413 18.0056 11.4781 18.6422 10.8415C19.2789 10.2048 20.142 9.84672 21.0424 9.8457H45.7426L50.9881 14.0267V44.4222C50.9871 45.3225 50.629 46.1857 49.9923 46.8223C49.3557 47.459 48.4925 47.8171 47.5922 47.8181Z" fill="#E6E6E6"/>
<path d="M21.0413 10.8242C20.4002 10.8249 19.7855 11.08 19.3321 11.5333C18.8788 11.9867 18.6238 12.6014 18.623 13.2425V44.4231C18.6238 45.0642 18.8788 45.6789 19.3321 46.1323C19.7855 46.5856 20.4002 46.8407 21.0413 46.8414H47.5911C48.2323 46.8407 48.847 46.5856 49.3003 46.1323C49.7537 45.6789 50.0087 45.0642 50.0094 44.4231V14.4985L45.3996 10.8242H21.0413Z" fill="white"/>
<path d="M42.4267 19.8908H30.3389C30.189 19.8908 30.0451 19.8312 29.9391 19.7251C29.833 19.6191 29.7734 19.4753 29.7734 19.3253C29.7734 19.1753 29.833 19.0315 29.9391 18.9254C30.0451 18.8193 30.189 18.7598 30.3389 18.7598H42.4267C42.5767 18.7598 42.7205 18.8193 42.8266 18.9254C42.9326 19.0315 42.9922 19.1753 42.9922 19.3253C42.9922 19.4753 42.9326 19.6191 42.8266 19.7251C42.7205 19.8312 42.5767 19.8908 42.4267 19.8908Z" fill="#BEC3CA"/>
<path d="M44.7606 21.799H30.3401C30.1903 21.7988 30.0466 21.7391 29.9408 21.6331C29.8349 21.5271 29.7754 21.3833 29.7754 21.2335C29.7754 21.0836 29.8349 20.9399 29.9408 20.8339C30.0466 20.7278 30.1903 20.6682 30.3401 20.668H44.7606C44.8349 20.6679 44.9086 20.6824 44.9773 20.7108C45.046 20.7392 45.1084 20.7808 45.161 20.8333C45.2136 20.8859 45.2553 20.9482 45.2838 21.0169C45.3122 21.0855 45.3269 21.1591 45.3269 21.2335C45.3269 21.3078 45.3122 21.3814 45.2838 21.4501C45.2553 21.5187 45.2136 21.5811 45.161 21.6336C45.1084 21.6861 45.046 21.7278 44.9773 21.7562C44.9086 21.7845 44.8349 21.7991 44.7606 21.799Z" fill="#BEC3CA"/>
<path d="M42.4282 27.3125H30.3409C30.1909 27.3125 30.0471 27.3721 29.941 27.4781C29.835 27.5842 29.7754 27.728 29.7754 27.878C29.7754 28.0279 29.835 28.1718 29.941 28.2778C30.0471 28.3839 30.1909 28.4434 30.3409 28.4434H42.4282C42.5782 28.4434 42.722 28.3839 42.8281 28.2778C42.9341 28.1718 42.9937 28.0279 42.9937 27.878C42.9937 27.728 42.9341 27.5842 42.8281 27.4781C42.722 27.3721 42.5782 27.3125 42.4282 27.3125Z" fill="#CCCCCC"/>
<path d="M44.7611 29.2207H30.3409C30.1909 29.2207 30.0471 29.2803 29.941 29.3863C29.835 29.4924 29.7754 29.6362 29.7754 29.7862C29.7754 29.9361 29.835 30.08 29.941 30.186C30.0471 30.2921 30.1909 30.3516 30.3409 30.3516H44.7611C44.9111 30.3516 45.0549 30.2921 45.1609 30.186C45.267 30.08 45.3266 29.9361 45.3266 29.7862C45.3266 29.6362 45.267 29.4924 45.1609 29.3863C45.0549 29.2803 44.9111 29.2207 44.7611 29.2207Z" fill="#CCCCCC"/>
<path d="M42.4267 36.9963H30.3389C30.189 36.9963 30.0451 36.9367 29.9391 36.8306C29.833 36.7246 29.7734 36.5807 29.7734 36.4307C29.7734 36.2808 29.833 36.1369 29.9391 36.0309C30.0451 35.9248 30.189 35.8652 30.3389 35.8652H42.4267C42.5767 35.8652 42.7205 35.9248 42.8266 36.0309C42.9326 36.1369 42.9922 36.2808 42.9922 36.4307C42.9922 36.5807 42.9326 36.7246 42.8266 36.8306C42.7205 36.9367 42.5767 36.9963 42.4267 36.9963Z" fill="#CCCCCC"/>
<path d="M44.7606 38.9045H30.3401C30.1903 38.9043 30.0466 38.8446 29.9408 38.7386C29.8349 38.6325 29.7754 38.4888 29.7754 38.3389C29.7754 38.1891 29.8349 38.0454 29.9408 37.9393C30.0466 37.8333 30.1903 37.7736 30.3401 37.7734H44.7606C44.8349 37.7733 44.9086 37.7879 44.9773 37.8163C45.046 37.8446 45.1084 37.8863 45.161 37.9388C45.2136 37.9913 45.2553 38.0537 45.2838 38.1224C45.3122 38.191 45.3269 38.2646 45.3269 38.3389C45.3269 38.4133 45.3122 38.4869 45.2838 38.5555C45.2553 38.6242 45.2136 38.6866 45.161 38.7391C45.1084 38.7916 45.046 38.8333 44.9773 38.8616C44.9086 38.89 44.8349 38.9046 44.7606 38.9045Z" fill="#CCCCCC"/>
<path d="M25.3054 22.2768C26.4093 22.2768 27.3042 21.3819 27.3042 20.2781C27.3042 19.1742 26.4093 18.2793 25.3054 18.2793C24.2015 18.2793 23.3066 19.1742 23.3066 20.2781C23.3066 21.3819 24.2015 22.2768 25.3054 22.2768Z" fill="#BEC3CA"/>
<path d="M25.1085 21.0416C25.0635 21.0417 25.0197 21.0272 24.9838 21.0002L24.9815 20.9985L24.5118 20.6392C24.49 20.6225 24.4716 20.6017 24.4579 20.578C24.4441 20.5542 24.4351 20.528 24.4315 20.5008C24.4279 20.4736 24.4297 20.4459 24.4367 20.4194C24.4438 20.3929 24.4561 20.368 24.4728 20.3462C24.4895 20.3245 24.5103 20.3062 24.5341 20.2925C24.5579 20.2787 24.5841 20.2698 24.6113 20.2663C24.6385 20.2627 24.6662 20.2645 24.6927 20.2717C24.7192 20.2788 24.744 20.2911 24.7658 20.3079L25.0701 20.5412L25.789 19.6032C25.8057 19.5814 25.8265 19.5632 25.8502 19.5495C25.8739 19.5358 25.9001 19.5269 25.9273 19.5233C25.9545 19.5197 25.9821 19.5215 26.0085 19.5286C26.035 19.5357 26.0598 19.5479 26.0816 19.5646L26.0816 19.5646L26.0772 19.5708L26.0818 19.5646C26.1256 19.5983 26.1543 19.6481 26.1616 19.7029C26.1688 19.7578 26.154 19.8133 26.1204 19.8572L25.2747 20.96C25.2551 20.9854 25.23 21.006 25.2012 21.0201C25.1724 21.0342 25.1407 21.0415 25.1087 21.0414L25.1085 21.0416Z" fill="white"/>
<path d="M27.511 28.8313C27.5111 29.0938 27.4594 29.3537 27.3591 29.5963C27.2587 29.8389 27.1115 30.0593 26.9259 30.2449C26.7403 30.4306 26.52 30.5779 26.2775 30.6784C26.035 30.7789 25.775 30.8307 25.5125 30.8307C25.4954 30.8311 25.4782 30.8304 25.4611 30.8287C25.0681 30.8186 24.6868 30.6928 24.3649 30.4671C24.043 30.2414 23.7948 29.9258 23.6514 29.5597C23.508 29.1937 23.4757 28.7935 23.5586 28.4092C23.6415 28.0249 23.8359 27.6736 24.1175 27.3992C24.3991 27.1249 24.7553 26.9396 25.1416 26.8667C25.5279 26.7938 25.9272 26.8364 26.2894 26.9893C26.6516 27.1421 26.9607 27.3984 27.178 27.726C27.3952 28.0537 27.5111 28.4381 27.511 28.8313Z" fill="#BEC3CA"/>
<path d="M25.3054 39.3842C26.4093 39.3842 27.3042 38.4894 27.3042 37.3855C27.3042 36.2816 26.4093 35.3867 25.3054 35.3867C24.2015 35.3867 23.3066 36.2816 23.3066 37.3855C23.3066 38.4894 24.2015 39.3842 25.3054 39.3842Z" fill="#BEC3CA"/>
<path d="M50.8845 14.1623H46.7756C46.4756 14.1623 46.1879 14.0431 45.9758 13.831C45.7637 13.6189 45.6445 13.3312 45.6445 13.0313V9.99647C45.6445 9.98318 45.6483 9.97017 45.6553 9.95891C45.6624 9.94765 45.6725 9.93862 45.6844 9.93283C45.6964 9.92705 45.7098 9.92475 45.723 9.92621C45.7362 9.92766 45.7487 9.93281 45.7591 9.94106L50.9284 14.0362C50.9399 14.0453 50.9483 14.0578 50.9524 14.0719C50.9565 14.086 50.9561 14.101 50.9513 14.1148C50.9464 14.1287 50.9374 14.1407 50.9254 14.1492C50.9135 14.1577 50.8992 14.1623 50.8845 14.1623Z" fill="#CCCCCC"/>
<path d="M27.5111 28.832C27.5112 29.0945 27.4595 29.3545 27.3592 29.597C27.2588 29.8396 27.1116 30.06 26.926 30.2457C26.7404 30.4314 26.5201 30.5786 26.2776 30.6792C26.0351 30.7797 25.7751 30.8314 25.5126 30.8315C25.4954 30.8318 25.4783 30.8311 25.4612 30.8294C25.203 30.1853 25.1034 29.4886 25.1709 28.798C25.2384 28.1074 25.4711 27.4432 25.8491 26.8613C26.3141 26.941 26.7359 27.1825 27.04 27.5431C27.3441 27.9037 27.511 28.3603 27.5111 28.832Z" fill="#BEC3CA"/>
<path d="M29.7734 27.8785C29.7737 27.7285 29.8334 27.5847 29.9395 27.4786C30.0456 27.3725 30.1894 27.3128 30.3394 27.3125H33.3515C33.5274 27.6703 33.6524 28.051 33.723 28.4434H30.3394C30.1895 28.4434 30.0457 28.3839 29.9396 28.278C29.8335 28.1721 29.7737 28.0284 29.7734 27.8785Z" fill="#BEC3CA"/>
<path d="M33.7944 29.2207C33.7946 29.6027 33.7441 29.983 33.6442 30.3516H30.3409C30.1909 30.3516 30.0471 30.2921 29.941 30.186C29.835 30.08 29.7754 29.9361 29.7754 29.7862C29.7754 29.6362 29.835 29.4924 29.941 29.3863C30.0471 29.2803 30.1909 29.2207 30.3409 29.2207H33.7944Z" fill="#BEC3CA"/>
<path d="M41.2469 36.1964C41.1617 36.3362 41.0243 36.4364 40.8652 36.4749C40.706 36.5135 40.5381 36.4872 40.3983 36.402L33.1944 32.0078C33.1251 31.9656 33.0649 31.9102 33.0171 31.8447C32.9693 31.7792 32.9349 31.7049 32.9158 31.6261C32.8967 31.5473 32.8933 31.4655 32.9058 31.3854C32.9184 31.3053 32.9465 31.2284 32.9888 31.1592C33.031 31.09 33.0864 31.0297 33.1519 30.982C33.2174 30.9342 33.2917 30.8997 33.3705 30.8806C33.4493 30.8615 33.5311 30.8582 33.6112 30.8707C33.6913 30.8832 33.7682 30.9114 33.8374 30.9536L41.0413 35.3477C41.1811 35.433 41.2813 35.5703 41.3199 35.7295C41.3584 35.8886 41.3322 36.0566 41.2469 36.1964Z" fill="#3F3D56"/>
<path d="M34.0432 31.8007C33.5344 32.6348 32.7898 33.2992 31.9035 33.71C31.0171 34.1209 30.0288 34.2597 29.0636 34.1088C28.0984 33.958 27.1995 33.5243 26.4808 32.8627C25.762 32.201 25.2556 31.3411 25.0256 30.3916C24.7956 29.4421 24.8523 28.4458 25.1885 27.5285C25.5247 26.6112 26.1254 25.8143 26.9146 25.2384C27.7038 24.6626 28.646 24.3337 29.6221 24.2933C30.5982 24.2529 31.5644 24.5029 32.3984 25.0116C33.5156 25.6948 34.3163 26.7933 34.6246 28.0661C34.9329 29.3388 34.7238 30.6819 34.0432 31.8007ZM26.6635 27.2994C26.282 27.925 26.0945 28.6496 26.1248 29.3817C26.155 30.1137 26.4017 30.8204 26.8336 31.4123C27.2655 32.0042 27.8632 32.4547 28.5512 32.7068C29.2391 32.959 29.9864 33.0015 30.6985 32.829C31.4106 32.6565 32.0555 32.2767 32.5518 31.7376C33.048 31.1986 33.3733 30.5244 33.4864 29.8005C33.5995 29.0766 33.4955 28.3354 33.1873 27.6706C32.8792 27.0059 32.3809 26.4474 31.7553 26.0659C30.9163 25.5553 29.9089 25.3985 28.9544 25.6298C27.9998 25.861 27.1759 26.4615 26.6635 27.2994Z" fill="#3F3D56"/>
<path d="M49.8693 30.0218C51.2652 30.0218 52.3968 28.8902 52.3968 27.4943C52.3968 26.0984 51.2652 24.9668 49.8693 24.9668C48.4734 24.9668 47.3418 26.0984 47.3418 27.4943C47.3418 28.8902 48.4734 30.0218 49.8693 30.0218Z" fill="#A0616A"/>
<path d="M49.7046 41.6635C49.6558 41.5117 49.6397 41.3512 49.6573 41.1927C49.6749 41.0341 49.7258 40.8811 49.8066 40.7436C49.8875 40.6061 49.9965 40.4873 50.1265 40.3948C50.2565 40.3024 50.4046 40.2385 50.561 40.2073C50.6105 40.1976 50.6607 40.1914 50.7112 40.1888L53.3735 35.9158L50.9416 33.6038C50.8487 33.5155 50.7742 33.4096 50.7224 33.2923C50.6706 33.175 50.6426 33.0486 50.6399 32.9205C50.6372 32.7923 50.66 32.6648 50.7069 32.5455C50.7537 32.4262 50.8238 32.3173 50.913 32.2252C51.0021 32.1331 51.1087 32.0595 51.2264 32.0088C51.3442 31.9581 51.4708 31.9312 51.599 31.9298C51.7272 31.9283 51.8544 31.9522 51.9733 32.0001C52.0923 32.0481 52.2005 32.1191 52.2918 32.2091L55.6495 35.52L55.6563 35.5283C55.7602 35.6863 55.8103 35.8736 55.7993 36.0624C55.7883 36.2512 55.7167 36.4314 55.5951 36.5763L51.8648 40.9882C51.8759 41.0236 51.8852 41.0595 51.8926 41.0958C51.9238 41.2523 51.9215 41.4135 51.8861 41.5691C51.8506 41.7246 51.7827 41.8708 51.6867 41.9983C51.5908 42.1257 51.469 42.2314 51.3293 42.3085C51.1897 42.3856 51.0353 42.4323 50.8764 42.4456C50.8442 42.4484 50.8123 42.4498 50.7804 42.4498C50.5411 42.4488 50.3083 42.3722 50.1151 42.231C49.9219 42.0899 49.7782 41.8912 49.7046 41.6635Z" fill="#A0616A"/>
<path d="M45.7055 62.6691L44.4439 62.669L43.8438 57.8027L45.7057 57.8028L45.7055 62.6691Z" fill="#A0616A"/>
<path d="M46.0269 63.8928L41.959 63.8926V63.8412C41.959 63.6332 41.9999 63.4273 42.0795 63.2352C42.1591 63.0431 42.2757 62.8686 42.4227 62.7215C42.5698 62.5745 42.7443 62.4579 42.9364 62.3783C43.1285 62.2988 43.3344 62.2578 43.5423 62.2578H43.5424L46.027 62.2579L46.0269 63.8928Z" fill="#2F2E41"/>
<path d="M58.2456 60.9253L57.1616 61.5708L54.1562 57.6967L55.7561 56.7441L58.2456 60.9253Z" fill="#A0616A"/>
<path d="M59.1469 61.811L55.6516 63.8921L55.6253 63.8479C55.5189 63.6692 55.4487 63.4713 55.4188 63.2656C55.3889 63.0598 55.3998 62.8502 55.4509 62.6486C55.502 62.4471 55.5923 62.2576 55.7167 62.0909C55.841 61.9243 55.997 61.7837 56.1756 61.6774L56.1757 61.6773L58.3105 60.4062L59.1469 61.811Z" fill="#2F2E41"/>
<path d="M43.6841 60.5265C42.8389 50.5749 42.3361 41.3299 45.4256 37.5585L45.4495 37.5293L50.6489 39.6091L50.6575 39.6277C50.675 39.6659 52.4042 43.4695 52.0009 46.0279L53.2833 51.9273L57.465 58.9292C57.4987 58.9855 57.52 59.0484 57.5275 59.1136C57.535 59.1788 57.5286 59.2449 57.5086 59.3075C57.4887 59.37 57.4557 59.4276 57.4117 59.4764C57.3678 59.5252 57.3141 59.5642 57.254 59.5906L55.4367 60.3902C55.3342 60.4348 55.219 60.441 55.1123 60.4076C55.0055 60.3742 54.9144 60.3035 54.8555 60.2085L50.3066 52.791L47.7373 47.1017C47.7233 47.0708 47.6996 47.0454 47.6697 47.0293C47.6399 47.0133 47.6056 47.0075 47.5721 47.0129C47.5387 47.0182 47.5079 47.0345 47.4846 47.059C47.4612 47.0836 47.4467 47.1152 47.4431 47.1489L46.0188 60.5367C46.0069 60.6504 45.9533 60.7558 45.8682 60.8323C45.7832 60.9088 45.6728 60.951 45.5584 60.9508H44.1456C44.0297 60.9501 43.9182 60.9063 43.8329 60.8278C43.7475 60.7494 43.6945 60.642 43.6841 60.5265Z" fill="#2F2E41"/>
<path d="M45.445 37.6381L45.4203 37.6262L45.4164 37.599C45.2222 36.2396 45.4521 34.7292 46.0997 33.1097C46.4189 32.3171 47.0122 31.6656 47.7716 31.2737C48.5309 30.8819 49.4058 30.776 50.2367 30.9751C50.7154 31.0931 51.1643 31.3091 51.5551 31.6096C51.9458 31.9101 52.27 32.2885 52.5069 32.7208C52.7407 33.1487 52.8832 33.6205 52.9252 34.1063C52.9673 34.5921 52.908 35.0813 52.7511 35.543C51.9346 37.9304 50.8755 40.1642 50.8649 40.1865L50.8427 40.2332L45.445 37.6381Z" fill="#BEC3CA"/>
<path d="M39.7718 34.2524C39.897 34.1535 40.0416 34.0823 40.1963 34.0432C40.3509 34.0042 40.5121 33.9983 40.6692 34.0259C40.8263 34.0535 40.9758 34.1139 41.1079 34.2033C41.24 34.2927 41.3517 34.409 41.4357 34.5446C41.4622 34.5877 41.4855 34.6325 41.5057 34.6788L46.4404 35.6762L47.7544 32.5886C47.8046 32.4707 47.8776 32.3638 47.9694 32.2742C48.0611 32.1847 48.1697 32.1141 48.2888 32.0668C48.4079 32.0194 48.5353 31.9961 48.6634 31.9982C48.7916 32.0003 48.9181 32.0278 49.0357 32.079C49.1532 32.1303 49.2594 32.2044 49.3481 32.2969C49.4368 32.3894 49.5063 32.4986 49.5526 32.6182C49.5989 32.7378 49.6211 32.8653 49.6178 32.9935C49.6145 33.1216 49.5859 33.2479 49.5335 33.3649L47.6082 37.6695L47.6028 37.6787C47.4911 37.8314 47.3332 37.9439 47.1525 37.9997C46.9718 38.0555 46.778 38.0516 46.5997 37.9885L41.1608 36.0393C41.1316 36.0622 41.1012 36.0834 41.0697 36.1031C40.9341 36.1871 40.7823 36.2415 40.6242 36.2627C40.4661 36.2839 40.3053 36.2715 40.1524 36.2263C39.9994 36.181 39.8577 36.104 39.7366 36.0002C39.6155 35.8963 39.5177 35.7681 39.4496 35.6239C39.4357 35.5948 39.4232 35.5653 39.4121 35.5355C39.3292 35.311 39.3194 35.0661 39.384 34.8356C39.4486 34.6052 39.5843 34.4011 39.7718 34.2524Z" fill="#A0616A"/>
<path d="M58.9999 30.2009C58.7564 29.7696 58.4017 29.3745 57.9328 29.215C57.3272 29.0091 56.6715 29.2284 56.0489 29.3747C55.5692 29.4875 55.068 29.5566 54.5845 29.4614C54.101 29.3662 53.6346 29.0848 53.4147 28.6439C53.091 27.9952 53.3637 27.2217 53.344 26.497C53.3338 26.1025 53.2343 25.7155 53.0528 25.3651C52.8714 25.0147 52.6128 24.71 52.2965 24.4741C51.9801 24.2381 51.6144 24.0771 51.2268 24.0031C50.8392 23.9291 50.4398 23.944 50.0588 24.0467C49.4627 23.8747 48.9229 23.8588 48.5541 24.3171C48.0901 24.3171 47.6452 24.5014 47.3171 24.8295C46.989 25.1576 46.8047 25.6025 46.8047 26.0665H48.4775C48.3982 26.493 48.4888 26.9337 48.73 27.2943C49.0253 27.7281 49.5388 28.0419 49.6376 28.5574C49.7334 29.0568 49.3939 29.5307 49.0378 29.8938C48.6817 30.2568 48.2685 30.6166 48.1573 31.1128C48.0892 31.4895 48.1666 31.8781 48.3738 32.2C48.5807 32.518 48.8373 32.8007 49.1339 33.0372C50.4702 34.182 52.0583 34.9945 53.7685 35.4082C54.973 35.6982 56.2903 35.7733 57.4084 35.2399C57.8557 35.0265 58.2543 34.7234 58.5795 34.3495C58.9047 33.9755 59.1496 33.5387 59.2988 33.0661C59.448 32.5936 59.4985 32.0954 59.4471 31.6025C59.3957 31.1096 59.2435 30.6325 58.9999 30.2009Z" fill="#2F2E41"/>
<path d="M59.3777 64.0007H39.8256C39.7983 64.0007 39.7721 63.9899 39.7528 63.9706C39.7335 63.9513 39.7227 63.9251 39.7227 63.8978C39.7227 63.8705 39.7335 63.8444 39.7528 63.8251C39.7721 63.8058 39.7983 63.7949 39.8256 63.7949H59.3777C59.405 63.7949 59.4312 63.8058 59.4505 63.8251C59.4698 63.8444 59.4806 63.8705 59.4806 63.8978C59.4806 63.9251 59.4698 63.9513 59.4505 63.9706C59.4312 63.9899 59.405 64.0007 59.3777 64.0007Z" fill="#CCCCCC"/>
</g>
<defs>
<clipPath id="clip0_5806_24113">
<rect width="59.4799" height="64" fill="white"/>
</clipPath>
</defs>
</svg>
