<svg width="58" height="64" viewBox="0 0 58 64" fill="none" xmlns="http://www.w3.org/2000/svg">
<g clip-path="url(#clip0_5806_24250)">
<path d="M54.641 60.3241C54.2835 60.4497 53.8998 60.4812 53.5267 60.4154C53.1536 60.3497 52.8037 60.189 52.5107 59.9488C51.7646 59.3226 51.5304 58.2909 51.3403 57.3355L50.7773 54.5098L51.956 55.3214C52.8036 55.9051 53.6703 56.5074 54.2573 57.3529C54.8442 58.1983 55.1004 59.3524 54.6288 60.2671" fill="#E6E6E6"/>
<path d="M54.5399 63.745C54.6592 62.876 54.7819 61.9959 54.6982 61.1175C54.6238 60.3375 54.3859 59.5757 53.9014 58.951C53.6442 58.62 53.3313 58.3365 52.9767 58.113C52.8842 58.0548 52.7991 58.2013 52.8912 58.2593C53.5047 58.6471 53.9793 59.2197 54.2465 59.8945C54.5415 60.645 54.5889 61.4632 54.5377 62.2604C54.5069 62.7425 54.4417 63.2213 54.376 63.6998C54.3707 63.7215 54.3739 63.7443 54.3849 63.7637C54.3959 63.7831 54.4139 63.7975 54.4352 63.8041C54.4569 63.8099 54.48 63.807 54.4995 63.7959C54.5191 63.7848 54.5334 63.7665 54.5395 63.7449L54.5399 63.745Z" fill="#F2F2F2"/>
<path d="M50.2686 49.3116H0.957031V0H50.2686V49.3116Z" fill="white"/>
<path d="M50.2686 49.3116H0.957031V0H50.2686V49.3116ZM1.6856 48.583H49.5401V0.728576H1.6856V48.583Z" fill="#E5E5E5"/>
<path d="M41.5317 7.71484H20.1777V8.38003H41.5317V7.71484Z" fill="#E5E5E5"/>
<path d="M41.5317 9.44336H20.1777V10.1085H41.5317V9.44336Z" fill="#E5E5E5"/>
<path d="M41.5317 11.1738H20.1777V11.839H41.5317V11.1738Z" fill="#E5E5E5"/>
<path d="M41.5317 22.5664H20.1777V23.2316H41.5317V22.5664Z" fill="#E5E5E5"/>
<path d="M41.5317 24.2949H20.1777V24.9601H41.5317V24.2949Z" fill="#E5E5E5"/>
<path d="M41.5317 26.0254H20.1777V26.6906H41.5317V26.0254Z" fill="#E5E5E5"/>
<path d="M41.5317 37.416H20.1777V38.0812H41.5317V37.416Z" fill="#E5E5E5"/>
<path d="M41.5317 39.1465H20.1777V39.8117H41.5317V39.1465Z" fill="#E5E5E5"/>
<path d="M41.5317 40.875H20.1777V41.5402H41.5317V40.875Z" fill="#E5E5E5"/>
<path d="M11.629 13.0149C11.2642 12.8227 10.8834 12.6624 10.4909 12.536L10.4409 11.9823L8.41119 11.7637L8.15324 12.4713L7.42483 12.7446C7.39877 12.7545 7.37396 12.7674 7.35092 12.7831H7.35013C7.30948 12.8106 7.27486 12.8461 7.24838 12.8874C7.2219 12.9287 7.20412 12.975 7.19613 13.0234C7.18835 13.0715 7.19019 13.1207 7.20155 13.1681L7.24004 13.326C7.29547 13.3591 7.35246 13.3907 7.40942 13.4207L7.44563 13.4392C7.52879 13.4823 7.61349 13.5231 7.70049 13.5608C7.7182 13.5685 7.73745 13.5762 7.75516 13.5839C7.7567 13.5847 7.75746 13.5847 7.759 13.5855C7.79983 13.6024 7.84062 13.6186 7.8822 13.634C8.01879 13.6861 8.1581 13.7309 8.29953 13.7679C8.66048 13.8641 9.03245 13.9128 9.40601 13.9127C9.5423 13.9127 9.67704 13.9065 9.81025 13.8935C10.1146 13.8654 10.4151 13.8047 10.7065 13.7125C10.7073 13.7125 10.7081 13.7117 10.7088 13.7117C10.8929 13.6531 11.0728 13.5818 11.2471 13.4984C11.2478 13.4977 11.2494 13.4977 11.2501 13.4969C11.2894 13.4784 11.3271 13.4584 11.3656 13.4392L11.3841 13.4299C11.4149 13.4137 11.4457 13.3976 11.4765 13.3806C11.5535 13.3383 11.629 13.2936 11.7036 13.2459C11.7244 13.2336 11.7445 13.2205 11.7653 13.2066C11.7945 13.1874 11.8238 13.1673 11.8523 13.1466C11.7806 13.1004 11.706 13.0565 11.629 13.0149Z" fill="#3F3D56"/>
<path d="M7.82037 13.3549L7.69333 12.7812H7.36146C7.35812 12.7813 7.35478 12.7816 7.35146 12.782H7.35067C7.23141 12.7921 7.11655 12.8318 7.01651 12.8975C6.94866 12.9408 6.88833 12.9949 6.83789 13.0577C6.93643 13.1324 7.03884 13.2017 7.14434 13.2679L7.14897 13.2702C7.17897 13.2887 7.2098 13.3071 7.24059 13.3249C7.29602 13.358 7.35301 13.3895 7.40997 13.4196L7.44618 13.438C7.52934 13.4812 7.61404 13.522 7.70104 13.5597C7.71875 13.5674 7.738 13.5751 7.75571 13.5828C7.75725 13.5836 7.75801 13.5836 7.75955 13.5843C7.80038 13.6013 7.84117 13.6175 7.88275 13.6329L7.82037 13.3549Z" fill="#3F3D56"/>
<path d="M9.34655 11.4138C10.1539 11.4138 10.8083 10.7593 10.8083 9.95202C10.8083 9.1447 10.1539 8.49023 9.34655 8.49023C8.53923 8.49023 7.88477 9.1447 7.88477 9.95202C7.88477 10.7593 8.53923 11.4138 9.34655 11.4138Z" fill="#FFB8B8"/>
<path d="M8.36458 9.2392C8.51591 9.41827 8.77199 9.46881 9.00822 9.48952C9.56053 9.52003 10.1144 9.47481 10.6544 9.3551C10.6879 9.67943 10.5967 10.0291 10.7877 10.2959C10.8772 9.97293 10.9293 9.6407 10.9429 9.3058C10.9571 9.16211 10.9384 9.01706 10.888 8.88173C10.8611 8.81391 10.8157 8.755 10.757 8.7117C10.6982 8.6684 10.6285 8.64244 10.5558 8.63678C10.6647 8.55416 10.7923 8.49963 10.9272 8.47798L10.4631 8.24473L10.5823 8.12236L9.74195 8.07094L9.98534 7.91632C9.61903 7.86598 9.24843 7.85428 8.87967 7.88141C8.70735 7.88149 8.5383 7.92848 8.39065 8.01735C8.25191 8.11656 8.17174 8.31376 8.25787 8.45943C8.15003 8.47713 8.0485 8.52208 7.9629 8.59C7.87729 8.65793 7.81045 8.74658 7.76869 8.84757C7.71589 9.00809 7.70314 9.17908 7.73156 9.34565C7.76321 9.61291 7.82532 9.87567 7.91668 10.1288L8.36458 9.2392Z" fill="#2F2E41"/>
<path d="M13.4578 8.36765C13.2527 7.77845 12.9216 7.24107 12.4875 6.793C12.0533 6.34493 11.5267 5.99695 10.9443 5.77332C10.3619 5.54969 9.73767 5.4558 9.11523 5.4982C8.49279 5.54059 7.88709 5.71825 7.34037 6.01879C6.79365 6.31933 6.31906 6.7355 5.94971 7.2383C5.58035 7.7411 5.32512 8.31841 5.20181 8.92999C5.0785 9.54156 5.09008 10.1727 5.23574 10.7793C5.3814 11.3859 5.65763 11.9535 6.04518 12.4424C6.08368 12.4909 6.12372 12.5394 6.16455 12.5864C6.16763 12.5895 6.16993 12.5926 6.17301 12.5957C6.27338 12.7113 6.38005 12.8213 6.49254 12.9252C6.52183 12.9522 6.55263 12.9799 6.58342 13.0061C6.64192 13.0584 6.702 13.1085 6.76437 13.1562C6.789 13.1755 6.81287 13.1947 6.83828 13.2132C6.93683 13.2879 7.03924 13.3572 7.14474 13.4234L7.14936 13.4257C7.17936 13.4442 7.2102 13.4627 7.24099 13.4804C7.29641 13.5135 7.35341 13.545 7.41037 13.5751L7.44657 13.5936C7.52973 13.6367 7.61444 13.6775 7.70144 13.7152C7.71915 13.7229 7.7384 13.7306 7.75611 13.7383C7.75765 13.7391 7.7584 13.7391 7.75994 13.7399C7.80077 13.7568 7.84157 13.773 7.88315 13.7884C8.01973 13.8405 8.15905 13.8853 8.30047 13.9223C8.66143 14.0185 9.0334 14.0672 9.40695 14.0671C9.54324 14.0671 9.67799 14.0609 9.8112 14.0478C10.1156 14.0198 10.416 13.9591 10.7075 13.8669C10.7082 13.8669 10.709 13.8661 10.7098 13.8661C10.8939 13.8075 11.0737 13.7362 11.248 13.6528C11.2488 13.6521 11.2503 13.6521 11.2511 13.6513C11.2903 13.6328 11.3281 13.6128 11.3666 13.5936L11.385 13.5843C11.4158 13.5681 11.4467 13.552 11.4775 13.535C11.5545 13.4927 11.6299 13.448 11.7046 13.4003C11.7254 13.388 11.7454 13.3749 11.7662 13.361C11.7955 13.3418 11.8247 13.3217 11.8532 13.301C11.8909 13.2748 11.9287 13.2478 11.9656 13.2201C11.9772 13.2116 11.9895 13.2032 12.001 13.1939C12.7224 12.6464 13.2519 11.8845 13.5136 11.0175C13.7753 10.1505 13.7558 9.22288 13.4578 8.36766V8.36765ZM11.8594 13.0068C11.834 13.0268 11.8078 13.0461 11.7816 13.0638C11.7562 13.0831 11.7308 13.1015 11.7046 13.1185C11.6823 13.1346 11.6599 13.15 11.6368 13.1647L11.6299 13.1693C11.613 13.1808 11.596 13.1916 11.5791 13.2024C11.5152 13.2424 11.4505 13.2809 11.385 13.3179L11.3643 13.3294C11.335 13.3456 11.3058 13.361 11.2765 13.3764C11.2726 13.3787 11.268 13.3803 11.2642 13.3826L11.2596 13.3849C11.2226 13.4041 11.1848 13.4226 11.1471 13.4403C11.0015 13.5104 10.8516 13.5711 10.6982 13.622C10.6782 13.629 10.6582 13.6359 10.6382 13.6421C10.3623 13.7298 10.0779 13.7876 9.78965 13.8145C9.66337 13.8261 9.53554 13.8323 9.40695 13.8323C9.05363 13.833 8.70177 13.7869 8.36056 13.6952C8.18544 13.6495 8.01381 13.5913 7.84698 13.5212C7.83848 13.5173 7.82924 13.5143 7.82077 13.5104C7.81156 13.5066 7.80307 13.5035 7.79461 13.4996C7.78536 13.4958 7.7769 13.4919 7.76765 13.4873C7.69527 13.4557 7.62365 13.4211 7.55361 13.3849L7.51973 13.3672C7.43424 13.3225 7.35032 13.2748 7.2687 13.224C7.24482 13.2093 7.2202 13.1939 7.19708 13.1778C7.19095 13.1739 7.18554 13.1701 7.17937 13.1662C7.1247 13.13 7.07004 13.0923 7.01691 13.053C6.98074 13.0261 6.94454 12.9991 6.90912 12.9714C6.84983 12.9267 6.79283 12.879 6.73741 12.8297C6.70816 12.8051 6.67966 12.7781 6.65196 12.7527C6.54278 12.6519 6.43943 12.545 6.34242 12.4324C6.31009 12.3955 6.27851 12.3585 6.24846 12.32C6.24164 12.3124 6.23521 12.3044 6.22921 12.2961C5.72893 11.6648 5.42802 10.8988 5.36485 10.0958C5.30167 9.2928 5.47911 8.48916 5.87452 7.7874C6.26994 7.08564 6.86541 6.51755 7.585 6.15559C8.30459 5.79362 9.11568 5.65419 9.91483 5.75507C10.714 5.85595 11.465 6.19256 12.072 6.72199C12.6791 7.25142 13.1147 7.94966 13.3234 8.72767C13.532 9.50569 13.5041 10.3282 13.2434 11.0903C12.9827 11.8525 12.5008 12.5197 11.8594 13.0068L11.8594 13.0068Z" fill="#3F3D56"/>
<path d="M13.4578 23.2173C13.2527 22.6281 12.9216 22.0907 12.4875 21.6426C12.0533 21.1945 11.5267 20.8466 10.9443 20.6229C10.3619 20.3993 9.73767 20.3054 9.11523 20.3478C8.49279 20.3902 7.88709 20.5679 7.34037 20.8684C6.79365 21.1689 6.31906 21.5851 5.94971 22.0879C5.58035 22.5907 5.32512 23.168 5.20181 23.7796C5.0785 24.3912 5.09008 25.0223 5.23574 25.6289C5.38139 26.2356 5.65763 26.8031 6.04517 27.292C6.08367 27.3405 6.12371 27.389 6.16451 27.436C6.16759 27.4391 6.16988 27.4422 6.17297 27.4453C6.27336 27.5609 6.38004 27.6709 6.49254 27.7748C6.52179 27.8018 6.55258 27.8295 6.58337 27.8557C6.64191 27.908 6.70196 27.9581 6.76433 28.0058C6.88611 28.1018 7.01309 28.191 7.1447 28.273L7.14932 28.2753C7.23478 28.3284 7.32178 28.3777 7.41036 28.4247L7.44653 28.4432C7.52969 28.4863 7.6144 28.5271 7.7014 28.5648C7.71911 28.5725 7.73836 28.5802 7.75606 28.5879C7.75761 28.5887 7.75839 28.5887 7.75994 28.5895C7.93573 28.6626 8.11633 28.7235 8.30047 28.7719C8.66141 28.8681 9.03337 28.9168 9.40691 28.9167C9.5432 28.9167 9.67795 28.9105 9.81115 28.8974C10.1155 28.8694 10.416 28.8087 10.7074 28.7165C10.7082 28.7165 10.709 28.7157 10.7097 28.7157C10.8938 28.6571 11.0737 28.5858 11.248 28.5024C11.2487 28.5017 11.2503 28.5017 11.251 28.5009C11.2903 28.4824 11.328 28.4624 11.3665 28.4432L11.385 28.4339C11.4158 28.4177 11.4466 28.4016 11.4774 28.3846C11.5544 28.3423 11.6299 28.2976 11.7046 28.2499C11.7254 28.2376 11.7454 28.2245 11.7662 28.2106C11.8339 28.166 11.9009 28.1182 11.9656 28.0697C11.9772 28.0612 11.9894 28.0528 12.001 28.0435C12.7224 27.496 13.2519 26.7341 13.5136 25.8671C13.7753 25.0001 13.7558 24.0725 13.4578 23.2173V23.2173Z" fill="white"/>
<path d="M10.8225 26.3951C11.1776 26.3951 11.4654 26.1073 11.4654 25.7522C11.4654 25.3972 11.1776 25.1094 10.8225 25.1094C10.4675 25.1094 10.1797 25.3972 10.1797 25.7522C10.1797 26.1073 10.4675 26.3951 10.8225 26.3951Z" fill="#2F2E41"/>
<path d="M11.0019 25.1271C11.1131 25.1271 11.2225 25.156 11.3193 25.2109C11.416 25.2659 11.4969 25.345 11.5539 25.4405C11.6109 25.5361 11.6422 25.6448 11.6446 25.756C11.6471 25.8672 11.6206 25.9772 11.5678 26.0751C11.6235 26.0054 11.6641 25.9248 11.687 25.8386C11.7098 25.7523 11.7145 25.6622 11.7006 25.574C11.6867 25.4858 11.6546 25.4015 11.6063 25.3264C11.5581 25.2513 11.4947 25.1871 11.4202 25.1379C11.3458 25.0886 11.2619 25.0555 11.1739 25.0404C11.0859 25.0254 10.9958 25.0289 10.9092 25.0506C10.8226 25.0723 10.7415 25.1119 10.6711 25.1667C10.6006 25.2215 10.5424 25.2903 10.5 25.3689C10.5601 25.2935 10.6364 25.2325 10.7234 25.1907C10.8103 25.1488 10.9055 25.1271 11.002 25.1271L11.0019 25.1271Z" fill="#2F2E41"/>
<path d="M9.62089 25.7515C10.6639 25.7515 11.5094 24.9061 11.5094 23.8631C11.5094 22.8201 10.6639 21.9746 9.62089 21.9746C8.57792 21.9746 7.73242 22.8201 7.73242 23.8631C7.73242 24.9061 8.57792 25.7515 9.62089 25.7515Z" fill="#2F2E41"/>
<path d="M8.13866 22.6924C8.46406 22.3265 8.91891 22.1012 9.40722 22.0643C9.89552 22.0273 10.3791 22.1815 10.7558 22.4944C10.7404 22.4797 10.725 22.4649 10.7091 22.4506C10.3361 22.1164 9.84553 21.9441 9.34543 21.9716C8.84533 21.9991 8.37663 22.2241 8.04243 22.5971C7.70823 22.9702 7.53592 23.4607 7.56339 23.9608C7.59087 24.4609 7.81588 24.9296 8.18893 25.2638C8.19252 25.267 8.19611 25.2702 8.19972 25.2734C8.21574 25.2876 8.23221 25.3011 8.24862 25.3148C7.89382 24.9772 7.68404 24.5151 7.66354 24.0258C7.64304 23.5365 7.81342 23.0584 8.13874 22.6924L8.13866 22.6924Z" fill="#2F2E41"/>
<path d="M9.60494 25.7353C10.2767 25.7353 10.8212 25.1907 10.8212 24.519C10.8212 23.8473 10.2767 23.3027 9.60494 23.3027C8.93321 23.3027 8.38867 23.8473 8.38867 24.519C8.38867 25.1907 8.93321 25.7353 9.60494 25.7353Z" fill="#A0616A"/>
<path d="M11.7816 27.6885V28.0966C11.7069 28.1444 11.6314 28.189 11.5544 28.2314C11.5237 28.2483 11.4929 28.2645 11.4621 28.2807L11.4436 28.2899C11.4051 28.3091 11.3673 28.3292 11.3281 28.3476C11.3273 28.3484 11.3257 28.3484 11.325 28.3492C11.1507 28.4326 10.9709 28.5038 10.7868 28.5625C10.786 28.5625 10.7853 28.5632 10.7845 28.5632C10.493 28.6554 10.1926 28.7161 9.88819 28.7442C9.75498 28.7573 9.62023 28.7634 9.48394 28.7634C9.1104 28.7635 8.73845 28.7149 8.3775 28.6187C8.19337 28.5703 8.01277 28.5093 7.83697 28.4362C7.83543 28.4354 7.83464 28.4354 7.8331 28.4347C7.81539 28.427 7.79614 28.4193 7.77843 28.4116C7.69143 28.3738 7.60673 28.333 7.52356 28.2899L7.48739 28.2714C7.39882 28.2244 7.31182 28.1752 7.22636 28.122L7.22173 28.1197C7.09013 28.0377 6.96315 27.9485 6.84137 27.8525C6.77899 27.8048 6.71895 27.7548 6.66041 27.7024C6.62962 27.6762 6.59883 27.6485 6.56958 27.6215C6.45708 27.5176 6.35039 27.4076 6.25 27.292C6.26331 27.2118 6.28289 27.1328 6.30854 27.0556L6.30929 27.0548C6.3139 27.0417 6.3193 27.0288 6.32546 27.0163C6.32971 27.0053 6.33459 26.9945 6.34008 26.984C6.47791 26.7261 6.72741 26.6621 7.03694 26.6483C7.21173 26.6406 7.40498 26.6491 7.60906 26.6467C7.71685 26.646 7.82847 26.6421 7.94014 26.6321C8.64467 26.5682 8.51688 26.1524 8.54842 25.9283C8.58 25.7112 8.77558 25.8991 8.78867 25.9114L8.78942 25.9122C9.18811 26.0988 9.62922 26.1761 10.0676 26.1362C10.1431 26.127 10.2185 26.1216 10.294 26.1193C10.4926 26.117 10.4495 26.174 10.381 26.2209C10.3478 26.2428 10.313 26.2624 10.2771 26.2795C10.2771 26.2795 10.2455 26.472 10.2131 26.7599C10.1824 27.0356 10.7106 27.1649 10.7544 27.175C10.7553 27.1756 10.7564 27.1758 10.7575 27.1757C10.9504 27.1257 11.1535 27.131 11.3435 27.1911H11.3443C11.4528 27.231 11.5497 27.2975 11.6261 27.3843C11.7024 27.4712 11.7559 27.5758 11.7816 27.6885Z" fill="#BEC3CA"/>
<path d="M7.84405 28.1843C7.84405 28.2412 7.84254 28.2959 7.84021 28.3475C7.83946 28.3783 7.83792 28.4083 7.83638 28.4368C7.83484 28.4361 7.83405 28.4361 7.8325 28.4353C7.81479 28.4276 7.79554 28.4199 7.77784 28.4122C7.69084 28.3745 7.60613 28.3337 7.52297 28.2905L7.4868 28.2721C7.39822 28.2251 7.31122 28.1758 7.22576 28.1227C7.22806 28.0957 7.23193 28.0688 7.23576 28.0418C7.24422 27.9825 7.25118 27.9225 7.2558 27.8632C7.28607 27.4467 7.21058 27.0292 7.03635 26.6497V26.6489C7.02093 26.6181 7.01172 26.6012 7.01172 26.6012C7.01172 26.6012 7.23576 26.4087 7.5553 26.6012C7.57571 26.6132 7.59373 26.6288 7.60846 26.6474C7.80096 26.8745 7.85329 27.6384 7.84405 28.1843Z" fill="#2F2E41"/>
<path d="M11.3413 28.0788C11.3382 28.165 11.3336 28.2551 11.3282 28.3467V28.3475C11.3275 28.3482 11.3259 28.3482 11.3251 28.349C11.1508 28.4324 10.971 28.5037 10.7869 28.5623C10.7861 28.5623 10.7854 28.5631 10.7846 28.5631L10.7761 28.3467L10.7754 28.3182L10.7346 27.2649C10.7335 27.241 10.7372 27.2172 10.7456 27.1949C10.754 27.1725 10.7668 27.1521 10.7832 27.1348C10.7997 27.1175 10.8195 27.1038 10.8415 27.0944C10.8634 27.085 10.887 27.0801 10.9109 27.0801H11.3013C11.3205 27.0801 11.3344 27.1193 11.3436 27.1902V27.191C11.3626 27.4866 11.3618 27.7832 11.3413 28.0788Z" fill="#2F2E41"/>
<path d="M8.56445 22.998V24.2146H8.84611L9.20455 23.8306L9.15658 24.2146H10.4016L10.3246 23.8306L10.4786 24.2146H10.6771V22.998H8.56445Z" fill="#2F2E41"/>
<path d="M8.37336 24.4399C8.42639 24.4399 8.46938 24.3611 8.46938 24.2639C8.46938 24.1667 8.42639 24.0879 8.37336 24.0879C8.32033 24.0879 8.27734 24.1667 8.27734 24.2639C8.27734 24.3611 8.32033 24.4399 8.37336 24.4399Z" fill="#A0616A"/>
<path d="M10.8363 24.4399C10.8893 24.4399 10.9323 24.3611 10.9323 24.2639C10.9323 24.1667 10.8893 24.0879 10.8363 24.0879C10.7832 24.0879 10.7402 24.1667 10.7402 24.2639C10.7402 24.3611 10.7832 24.4399 10.8363 24.4399Z" fill="#A0616A"/>
<path d="M12.0415 27.916C11.9768 27.9645 11.9098 28.0122 11.8421 28.0569C11.8213 28.0707 11.8013 28.0838 11.7805 28.0961C11.7058 28.1439 11.6303 28.1885 11.5533 28.2309C11.5225 28.2478 11.4917 28.264 11.4609 28.2802V27.4316C11.4609 27.4316 11.5841 27.5302 11.7805 27.6942C11.8051 27.715 11.8305 27.7366 11.8575 27.7597C11.9144 27.8074 11.9761 27.8598 12.0415 27.916Z" fill="#BEC3CA"/>
<path d="M13.4578 23.2173C13.2527 22.6281 12.9216 22.0907 12.4875 21.6426C12.0533 21.1945 11.5267 20.8466 10.9443 20.6229C10.3619 20.3993 9.73767 20.3054 9.11523 20.3478C8.49279 20.3902 7.88709 20.5679 7.34037 20.8684C6.79365 21.1689 6.31906 21.5851 5.94971 22.0879C5.58035 22.5907 5.32512 23.168 5.20181 23.7796C5.0785 24.3912 5.09008 25.0223 5.23574 25.6289C5.38139 26.2356 5.65763 26.8031 6.04517 27.292C6.08367 27.3405 6.12371 27.389 6.16451 27.436C6.16759 27.4391 6.16988 27.4422 6.17297 27.4453C6.27336 27.5609 6.38004 27.6709 6.49254 27.7748C6.52179 27.8018 6.55258 27.8295 6.58337 27.8557C6.64191 27.908 6.70196 27.9581 6.76433 28.0058C6.88611 28.1018 7.01309 28.191 7.1447 28.273L7.14932 28.2753C7.23478 28.3284 7.32178 28.3777 7.41036 28.4247L7.44653 28.4432C7.52969 28.4863 7.6144 28.5271 7.7014 28.5648C7.71911 28.5725 7.73836 28.5802 7.75606 28.5879C7.75761 28.5887 7.75839 28.5887 7.75994 28.5895C7.93573 28.6626 8.11633 28.7235 8.30047 28.7719C8.66141 28.8681 9.03337 28.9168 9.40691 28.9167C9.5432 28.9167 9.67795 28.9105 9.81115 28.8974C10.1155 28.8694 10.416 28.8087 10.7074 28.7165C10.7082 28.7165 10.709 28.7157 10.7097 28.7157C10.8938 28.6571 11.0737 28.5858 11.248 28.5024C11.2487 28.5017 11.2503 28.5017 11.251 28.5009C11.2903 28.4824 11.328 28.4624 11.3665 28.4432L11.385 28.4339C11.4158 28.4177 11.4466 28.4016 11.4774 28.3846C11.5544 28.3423 11.6299 28.2976 11.7046 28.2499C11.7254 28.2376 11.7454 28.2245 11.7662 28.2106C11.8339 28.166 11.9009 28.1182 11.9656 28.0697C11.9772 28.0612 11.9894 28.0528 12.001 28.0435C12.7224 27.496 13.2519 26.7341 13.5136 25.8671C13.7753 25.0001 13.7558 24.0725 13.4578 23.2173V23.2173ZM11.8593 27.8564C11.8339 27.8764 11.8077 27.8957 11.7816 27.9134C11.7562 27.9327 11.7307 27.9511 11.7046 27.9681C11.6822 27.9842 11.6599 27.9996 11.6368 28.0143C11.6175 28.0274 11.5983 28.0397 11.579 28.052C11.5152 28.092 11.4505 28.1305 11.385 28.1675L11.3642 28.1791C11.335 28.1952 11.3057 28.2106 11.2765 28.226C11.2726 28.2283 11.268 28.2299 11.2641 28.2322L11.2595 28.2345C11.2225 28.2537 11.1848 28.2722 11.1471 28.2899C11.0015 28.36 10.8516 28.4207 10.6982 28.4716C10.6782 28.4786 10.6581 28.4855 10.6381 28.4917C10.3623 28.5794 10.0778 28.6372 9.78961 28.6641C9.66332 28.6757 9.53549 28.6818 9.40691 28.6818C9.05359 28.6826 8.70173 28.6365 8.36051 28.5448C8.1854 28.4991 8.01377 28.4409 7.84694 28.3708C7.82923 28.3638 7.81152 28.3561 7.79456 28.3492C7.78535 28.3454 7.77686 28.3415 7.76761 28.3369C7.69523 28.3053 7.62365 28.2707 7.55357 28.2345L7.51969 28.2168C7.43424 28.1721 7.35028 28.1244 7.26866 28.0736C7.23866 28.0551 7.20861 28.0358 7.17936 28.0158C7.08695 27.955 6.99687 27.8895 6.90908 27.821C6.84979 27.7763 6.79283 27.7286 6.73737 27.6793C6.70812 27.6547 6.67962 27.6277 6.65192 27.6023C6.54275 27.5015 6.4394 27.3946 6.34238 27.282C6.31005 27.2451 6.27847 27.2081 6.24842 27.1696C6.2416 27.162 6.23517 27.154 6.22917 27.1457C5.72889 26.5144 5.42798 25.7484 5.36481 24.9454C5.30163 24.1424 5.47907 23.3388 5.87448 22.637C6.2699 21.9352 6.86537 21.3672 7.58496 21.0052C8.30455 20.6432 9.11563 20.5038 9.91479 20.6047C10.7139 20.7055 11.4649 21.0422 12.072 21.5716C12.6791 22.101 13.1147 22.7993 13.3233 23.5773C13.5319 24.3553 13.5041 25.1778 13.2434 25.9399C12.9826 26.7021 12.5008 27.3693 11.8593 27.8564V27.8564Z" fill="#3F3D56"/>
<path d="M9.43061 41.4061C10.3588 41.4061 11.1112 40.6537 11.1112 39.7255C11.1112 38.7974 10.3588 38.0449 9.43061 38.0449C8.50244 38.0449 7.75 38.7974 7.75 39.7255C7.75 40.6537 8.50244 41.4061 9.43061 41.4061Z" fill="#2F2E41"/>
<path d="M8.11997 38.8201C8.39155 38.5485 8.44659 38.1632 8.24291 37.9595C8.03922 37.7559 7.65395 37.8109 7.38237 38.0825C7.11078 38.3541 7.05574 38.7393 7.25943 38.943C7.46311 39.1467 7.84839 39.0917 8.11997 38.8201Z" fill="#2F2E41"/>
<path d="M11.1831 38.2855C11.2963 38.0206 11.1017 37.6835 10.7485 37.5326C10.3953 37.3818 10.0173 37.4742 9.9041 37.7391C9.79095 38.004 9.98554 38.3411 10.3387 38.4919C10.6919 38.6428 11.07 38.5504 11.1831 38.2855Z" fill="#2F2E41"/>
<path d="M11.4404 42.9861L11.2424 42.6745C11.1584 42.4868 11.0034 42.3401 10.8114 42.2664C10.6194 42.1928 10.4061 42.1982 10.2181 42.2815C10.0301 42.3649 9.88279 42.5193 9.80844 42.711C9.73409 42.9028 9.73875 43.1161 9.82141 43.3044L9.87771 43.5063L9.94179 43.7354C10.2012 43.7027 10.4572 43.6468 10.7066 43.5685C10.7074 43.5684 10.7081 43.568 10.7086 43.5675C10.893 43.5091 11.073 43.4378 11.2473 43.3539C11.2483 43.353 11.2492 43.353 11.2502 43.352C11.289 43.3336 11.3269 43.3142 11.3657 43.2947C11.372 43.2919 11.3782 43.2886 11.3841 43.285C11.4152 43.2695 11.4463 43.253 11.4764 43.2365C11.5074 43.22 11.5375 43.2025 11.5666 43.1841L11.4404 42.9861Z" fill="#CACACA"/>
<path d="M9.48491 41.5538C10.2726 41.5538 10.9112 40.9152 10.9112 40.1275C10.9112 39.3398 10.2726 38.7012 9.48491 38.7012C8.69718 38.7012 8.05859 39.3398 8.05859 40.1275C8.05859 40.9152 8.69718 41.5538 9.48491 41.5538Z" fill="#FFB6B6"/>
<path d="M11.5437 42.9241C11.3864 42.6625 11.1911 42.4256 10.9642 42.2213C10.8088 42.0825 10.6077 42.0058 10.3993 42.0059H8.39011C8.27433 42.0058 8.15978 42.0295 8.05352 42.0755C7.94727 42.1215 7.85157 42.1887 7.77233 42.2732C7.6931 42.3576 7.63202 42.4573 7.59287 42.5663C7.55371 42.6752 7.53731 42.7911 7.54469 42.9066C7.54907 42.9718 7.56081 43.0363 7.57966 43.0988C7.59399 43.1441 7.61183 43.1883 7.63303 43.2308L7.73203 43.4288C7.73981 43.4317 7.74758 43.4356 7.75531 43.4385C7.75725 43.4395 7.75824 43.4395 7.75919 43.4405C7.79995 43.457 7.84075 43.4735 7.88246 43.489C8.01905 43.5412 8.15839 43.5859 8.29986 43.6229C8.52759 43.6841 8.76005 43.726 8.9948 43.7482C9.13168 43.7608 9.26855 43.7676 9.40637 43.7676C9.54325 43.7676 9.67718 43.7608 9.81112 43.7482C9.85482 43.7443 9.89847 43.7394 9.94217 43.7346C10.2016 43.7018 10.4575 43.6459 10.707 43.5676C10.7078 43.5675 10.7084 43.5672 10.709 43.5666C10.8934 43.5083 11.0734 43.4369 11.2477 43.3531C11.2486 43.3521 11.2496 43.3521 11.2506 43.3512C11.2894 43.3327 11.3273 43.3133 11.3661 43.2939C11.3724 43.291 11.3786 43.2878 11.3845 43.2842C11.4156 43.2687 11.4466 43.2522 11.4767 43.2357C11.5078 43.2191 11.5379 43.2017 11.567 43.1832C11.5981 43.1667 11.6272 43.1483 11.6573 43.1299C11.6204 43.0571 11.5825 42.9891 11.5437 42.9241Z" fill="#CACACA"/>
<path d="M8.75494 42.2665C8.569 42.1795 8.3562 42.1697 8.16304 42.2392C7.96988 42.3087 7.81209 42.4518 7.72416 42.6373L7.54553 42.9071L7.46013 43.0362L7.33008 43.2323C7.35724 43.2469 7.38344 43.2614 7.41065 43.276L7.44653 43.2944C7.53003 43.3371 7.61445 43.3779 7.70184 43.4157C7.71151 43.4206 7.72222 43.4245 7.73288 43.4293C7.74065 43.4322 7.74843 43.4361 7.75615 43.439C7.75809 43.44 7.75909 43.44 7.76004 43.441C7.8008 43.4575 7.8416 43.474 7.88331 43.4895C8.0199 43.5417 8.15924 43.5864 8.30071 43.6235C8.52844 43.6846 8.7609 43.7265 8.99565 43.7487L9.06361 43.5186L9.12963 43.2993C9.21665 43.1126 9.22607 42.899 9.15582 42.7054C9.08558 42.5118 8.94141 42.354 8.75494 42.2665Z" fill="#CACACA"/>
<path d="M7.98633 39.2306C8.31226 39.4552 8.69912 39.5748 9.09497 39.5732C8.95377 39.6711 8.79302 39.7372 8.62379 39.767C9.1501 39.8799 9.69405 39.883 10.2216 39.776C10.3389 39.7572 10.452 39.7184 10.5561 39.6611C10.6079 39.6322 10.6531 39.5926 10.6887 39.5451C10.7243 39.4975 10.7494 39.443 10.7625 39.385C10.7976 39.1848 10.6415 39.0028 10.4794 38.8802C10.2311 38.6953 9.9448 38.568 9.64124 38.5073C9.33768 38.4466 9.02444 38.4542 8.72416 38.5295C8.52409 38.5697 8.34203 38.6726 8.20433 38.8232C8.1377 38.8999 8.09748 38.9959 8.0896 39.0972C8.08172 39.1984 8.10661 39.2995 8.16059 39.3856L7.98633 39.2306Z" fill="#2F2E41"/>
<path d="M13.4581 38.0693C13.2531 37.48 12.9219 36.9426 12.4878 36.4944C12.0537 36.0463 11.5271 35.6983 10.9446 35.4746C10.3622 35.2509 9.73792 35.157 9.11543 35.1994C8.49295 35.2417 7.8872 35.4194 7.34044 35.72C6.79367 36.0205 6.31905 36.4367 5.94968 36.9396C5.58031 37.4424 5.32507 38.0198 5.20178 38.6314C5.07848 39.243 5.09009 39.8742 5.2358 40.4808C5.38151 41.0875 5.6578 41.6551 6.04542 42.144C6.08324 42.1925 6.12405 42.2411 6.16481 42.2877C6.16715 42.2911 6.16974 42.2943 6.17258 42.2974C6.2731 42.413 6.38004 42.5228 6.49287 42.6264C6.52197 42.6536 6.55207 42.6817 6.58316 42.7079C6.64136 42.7604 6.70155 42.8099 6.76463 42.8574C6.7889 42.8768 6.81316 42.8962 6.83843 42.9147C6.93644 42.9894 7.03933 43.0583 7.14417 43.1253C7.14596 43.1253 7.14768 43.126 7.149 43.1273C7.1791 43.1457 7.21019 43.1641 7.24123 43.1816C7.27033 43.1991 7.30043 43.2166 7.32957 43.2331C7.35673 43.2476 7.38294 43.2622 7.41014 43.2767L7.44602 43.2952C7.52953 43.3379 7.61394 43.3786 7.70133 43.4165C7.711 43.4214 7.72172 43.4252 7.73238 43.4301C7.74015 43.433 7.74792 43.4369 7.75565 43.4398C7.75759 43.4408 7.75858 43.4408 7.75953 43.4417C7.80029 43.4582 7.8411 43.4747 7.8828 43.4903C8.01939 43.5425 8.15873 43.5872 8.3002 43.6242C8.52793 43.6854 8.7604 43.7273 8.99515 43.7494C9.13202 43.762 9.26889 43.7688 9.40672 43.7688C9.54359 43.7688 9.67752 43.762 9.81146 43.7494C9.85516 43.7455 9.89881 43.7407 9.94251 43.7358C10.2019 43.7031 10.4579 43.6472 10.7074 43.5689C10.7081 43.5688 10.7088 43.5685 10.7093 43.5679C10.8937 43.5096 11.0737 43.4382 11.248 43.3544C11.249 43.3534 11.2499 43.3534 11.2509 43.3524C11.2897 43.334 11.3276 43.3146 11.3664 43.2952C11.3728 43.2923 11.3789 43.2891 11.3849 43.2855C11.4159 43.2699 11.447 43.2534 11.4771 43.2369C11.5081 43.2204 11.5382 43.203 11.5673 43.1845C11.5984 43.168 11.6275 43.1496 11.6576 43.1311C11.6732 43.1214 11.6887 43.1117 11.7042 43.102C11.7256 43.0894 11.745 43.0768 11.7663 43.0622C11.7954 43.0438 11.8246 43.0234 11.8527 43.003C11.8906 42.9768 11.9284 42.9496 11.9653 42.9215C11.9777 42.9134 11.9897 42.9046 12.0012 42.8953C12.722 42.3473 13.2511 41.5855 13.5128 40.7187C13.7745 39.8519 13.7553 38.9245 13.4581 38.0693L13.4581 38.0693ZM11.8595 42.7079C11.8343 42.7283 11.808 42.7477 11.7819 42.7652C11.7556 42.7846 11.7304 42.8031 11.7042 42.8205C11.6819 42.8361 11.6596 42.8516 11.6363 42.8662C11.6342 42.868 11.6319 42.8696 11.6295 42.871C11.613 42.8827 11.5955 42.8933 11.579 42.904C11.5673 42.9108 11.5557 42.9186 11.5441 42.9254C11.5101 42.9467 11.4761 42.9671 11.4412 42.9865C11.4227 42.9982 11.4033 43.0088 11.3849 43.0195C11.3781 43.0234 11.3713 43.0273 11.3645 43.0312C11.3344 43.0477 11.3053 43.0622 11.2761 43.0778C11.2723 43.0807 11.2674 43.0816 11.2645 43.0845C11.2627 43.0846 11.261 43.0853 11.2596 43.0865C11.2228 43.1059 11.1849 43.1243 11.1471 43.1418C11.0013 43.212 10.8512 43.2726 10.6976 43.3233C10.6783 43.3301 10.6579 43.3379 10.6385 43.3437C10.3909 43.4222 10.1364 43.4768 9.87843 43.5068C9.84933 43.5107 9.81924 43.5136 9.78914 43.5165C9.66298 43.5281 9.53582 43.534 9.40672 43.534C9.29217 43.534 9.17667 43.5291 9.06311 43.5194C8.8257 43.4996 8.59053 43.4587 8.3604 43.3971C8.18522 43.3514 8.01361 43.293 7.84693 43.2224C7.83816 43.2185 7.82945 43.2156 7.82073 43.2117C7.81101 43.2078 7.80324 43.2049 7.79452 43.201C7.7848 43.1971 7.77703 43.1933 7.76731 43.1884C7.70423 43.1612 7.64115 43.1311 7.58001 43.1001C7.57124 43.0952 7.56252 43.0913 7.5538 43.0865L7.51982 43.069C7.49944 43.0583 7.47906 43.0477 7.45963 43.037C7.39461 43.002 7.33053 42.9642 7.26844 42.9254C7.24513 42.9108 7.21991 42.8953 7.19659 42.8797L7.1791 42.8681C7.12474 42.8312 7.07043 42.7943 7.01702 42.7545C6.98109 42.7274 6.94422 42.7011 6.90929 42.673C6.85009 42.6284 6.79279 42.5808 6.73749 42.5313C6.70834 42.507 6.67924 42.4798 6.65208 42.4546C6.54278 42.3539 6.4394 42.247 6.34246 42.1343C6.31042 42.0974 6.27838 42.0605 6.24828 42.0217C6.24151 42.0139 6.23568 42.0062 6.22885 41.9974C5.72845 41.3661 5.42744 40.6 5.36421 39.7969C5.30097 38.9938 5.47838 38.19 5.8738 37.4881C6.26922 36.7863 6.86474 36.2181 7.58441 35.856C8.30407 35.494 9.11527 35.3545 9.91453 35.4553C10.7138 35.5562 11.4649 35.8928 12.0721 36.4223C12.6792 36.9518 13.115 37.6501 13.3236 38.4282C13.5323 39.2063 13.5045 40.0289 13.2437 40.7912C12.983 41.5534 12.5011 42.2207 11.8595 42.7079H11.8595Z" fill="#3F3D56"/>
<path d="M16.5827 17.1109C15.0891 15.8505 13.2614 15.0515 11.3219 14.811C9.38249 14.5705 7.41496 14.8989 5.65875 15.7562C3.90254 16.6135 2.43338 17.9628 1.43005 19.6399C0.426708 21.317 -0.0675475 23.2495 0.00742278 25.2024C0.0823931 27.1553 0.723356 29.0442 1.85232 30.6394C2.98128 32.2347 4.54956 33.4673 6.36633 34.1875C8.1831 34.9077 10.17 35.0842 12.0853 34.6957C14.0006 34.3073 15.7617 33.3705 17.1543 31.9993L29.5202 42.4336C29.7084 42.5919 29.9518 42.669 30.1968 42.6481C30.4418 42.6273 30.6686 42.5101 30.8274 42.3223C30.9861 42.1345 31.064 41.8914 31.0438 41.6463C31.0236 41.4012 30.9071 41.1741 30.7198 41.0148L30.7184 41.0136L18.3525 30.5793C19.789 28.5176 20.4038 25.9937 20.0764 23.5023C19.7491 21.0109 18.5031 18.7315 16.5827 17.1109ZM15.7855 29.5746C14.8222 30.7163 13.5419 31.5467 12.1066 31.9607C10.6713 32.3748 9.14542 32.354 7.72197 31.9009C6.29851 31.4477 5.04139 30.5827 4.10957 29.4151C3.17775 28.2475 2.61308 26.8298 2.48698 25.3413C2.36087 23.8528 2.67899 22.3604 3.40111 21.0527C4.12322 19.7449 5.2169 18.6807 6.54384 17.9946C7.87078 17.3085 9.37138 17.0312 10.8559 17.1979C12.3404 17.3647 13.7421 17.9678 14.8838 18.9312C16.4148 20.223 17.3699 22.0701 17.539 24.0661C17.7081 26.0622 17.0773 28.0436 15.7855 29.5746Z" fill="#3F3D56"/>
<path opacity="0.3" d="M5.14304 30.4759C3.69408 29.2532 2.75794 27.5302 2.52051 25.6492C2.28307 23.7682 2.7617 21.8667 3.86136 20.3223C3.71695 20.4677 3.57734 20.62 3.44253 20.7792C2.80289 21.5373 2.31881 22.4139 2.01795 23.359C1.71709 24.3042 1.60534 25.2993 1.68907 26.2876C1.7728 27.276 2.05038 28.2381 2.50595 29.1192C2.96153 30.0002 3.58617 30.7829 4.34423 31.4226C5.1023 32.0622 5.97892 32.5463 6.92406 32.8472C7.8692 33.148 8.86434 33.2598 9.85267 33.1761C10.841 33.0923 11.8032 32.8147 12.6842 32.3592C13.5653 31.9036 14.348 31.2789 14.9876 30.5209C15.1221 30.3615 15.2488 30.1982 15.3676 30.0312C14.0301 31.375 12.2363 32.1667 10.3421 32.2491C8.44797 32.3315 6.59211 31.6985 5.14304 30.4759Z" fill="black"/>
<path d="M41.5126 42.824C41.6092 42.7061 41.6787 42.5685 41.7164 42.4207C41.754 42.273 41.7588 42.1188 41.7304 41.9691C41.702 41.8193 41.6411 41.6776 41.552 41.5539C41.4629 41.4302 41.3478 41.3275 41.2147 41.2531L38.9607 32.0273L37.3164 32.5522L39.7503 41.7151C39.6402 41.9469 39.6189 42.2111 39.6905 42.4575C39.7621 42.704 39.9217 42.9156 40.1389 43.0523C40.3561 43.189 40.6159 43.2413 40.8691 43.1992C41.1223 43.1571 41.3512 43.0236 41.5126 42.824H41.5126Z" fill="#FFB6B6"/>
<path d="M40.3481 36.9226L39.1465 37.9592L37.4653 39.4085L36.7228 35.6094L36.6451 35.2143L36.584 34.9008L38.2874 31.9336L39.7075 32.015L39.8046 32.0209L39.8065 32.0423L39.8288 32.2413L40.12 34.86L40.1268 34.9231L40.3481 36.9226Z" fill="#3F3D56"/>
<path d="M32.4924 62.7111L31.3025 62.711L30.7363 58.1211L32.4927 58.1212L32.4924 62.7111Z" fill="#FFB6B6"/>
<path d="M32.796 63.8644L28.959 63.8642V63.8157C28.959 63.4196 29.1164 63.0398 29.3964 62.7597C29.6765 62.4796 30.0564 62.3223 30.4524 62.3223H30.4526L32.7961 62.3224L32.796 63.8644Z" fill="#2F2E41"/>
<path d="M44.9182 62.8068L43.7283 62.8067L43.1621 58.2168L44.9185 58.2169L44.9182 62.8068Z" fill="#FFB6B6"/>
<path d="M45.2218 63.9601L41.3848 63.9599V63.9114C41.3848 63.5153 41.5422 63.1355 41.8222 62.8554C42.1023 62.5753 42.4822 62.418 42.8782 62.418H42.8783L45.2218 62.4181L45.2218 63.9601Z" fill="#2F2E41"/>
<path d="M45.8686 60.9809L42.6655 61.4662L38.0055 45.6953L33.0562 61.5632L29.4648 61.0779L34.1239 42.6359V41.1799L34.7548 38.996L34.6888 38.4048L34.2297 34.2709L34.0307 32.4782L34.0178 32.3623C34.007 32.2652 34.0327 32.1674 34.09 32.0882C34.1473 32.0089 34.2321 31.9538 34.3277 31.9336L35.8225 31.6191H38.2656L39.707 32.0161L39.806 32.0433L39.8506 32.0559L39.8283 32.2423L39.4905 35.0746L39.4721 35.2299L39.146 37.9603L39.0741 38.5592C41.889 40.5975 41.986 42.6359 41.986 42.6359L45.8686 60.9809Z" fill="#2F2E41"/>
<path d="M36.7492 30.391C38.0658 30.391 39.1332 29.3237 39.1332 28.007C39.1332 26.6904 38.0658 25.623 36.7492 25.623C35.4326 25.623 34.3652 26.6904 34.3652 28.007C34.3652 29.3237 35.4326 30.391 36.7492 30.391Z" fill="#FFB6B6"/>
<path d="M39.2531 38.0102L34.5371 38.627L34.6252 39.3007L39.3412 38.6839L39.2531 38.0102Z" fill="#3F3D56"/>
<path d="M28.2111 38.8299C28.2562 38.8591 28.299 38.8918 28.3389 38.9277L33.0034 37.7386L33.3216 36.6133L35.0827 36.8716L34.7129 38.9184C34.6831 39.0838 34.6004 39.235 34.4773 39.3493C34.3541 39.4637 34.1972 39.535 34.0301 39.5526L28.5838 40.1262C28.495 40.3131 28.3514 40.4685 28.1722 40.5718C27.9929 40.6751 27.7864 40.7214 27.5802 40.7045C27.374 40.6876 27.1778 40.6084 27.0178 40.4773C26.8577 40.3461 26.7414 40.1694 26.6842 39.9706C26.627 39.7717 26.6318 39.5602 26.6978 39.3641C26.7637 39.168 26.8879 38.9966 27.0536 38.8728C27.2194 38.749 27.4189 38.6785 27.6257 38.6709C27.8325 38.6632 28.0367 38.7187 28.2111 38.8299Z" fill="#FFB6B6"/>
<path d="M35.3866 32.5408L34.5616 31.9099C34.3385 31.8253 34.0329 32.0657 33.9792 32.2982L32.8145 37.0543L35.241 38.8014L35.5808 38.2676L35.3866 32.5408Z" fill="#3F3D56"/>
<g opacity="0.2">
<path d="M40.1186 34.8611C39.9127 34.9428 39.7027 35.0141 39.4896 35.0746C39.4217 35.095 39.3518 35.1144 39.2829 35.1328C38.8286 35.2589 38.3618 35.3344 37.8909 35.358C37.6883 35.3666 37.4853 35.3611 37.2834 35.3415C37.0666 35.3199 36.8524 35.2777 36.6437 35.2153C36.6369 35.2134 36.6291 35.2115 36.6223 35.2095C36.1883 35.0863 35.7904 34.8602 35.4624 34.5505C35.3891 34.4791 35.3207 34.4029 35.2576 34.3224C35.0764 34.1004 34.9434 33.843 34.8672 33.5668C34.791 33.2905 34.7732 33.0014 34.815 32.7179C34.8231 32.6665 34.8342 32.6156 34.848 32.5655C34.8846 32.4289 34.933 32.2958 34.9926 32.1675C35.0189 32.1074 35.048 32.0482 35.079 31.9899L36.1758 31.6191H38.2647L39.7061 32.0161L39.8031 32.022L39.8051 32.0433L39.8497 32.0559L39.8274 32.2423L40.1186 34.8611Z" fill="black"/>
</g>
<path d="M34.9221 26.0331C34.4763 25.9784 33.987 26.0171 33.6395 26.3017C33.292 26.5863 33.1799 27.178 33.5089 27.4838C33.8002 27.7545 34.2556 27.6908 34.6458 27.7678C34.9819 27.8431 35.283 28.029 35.5009 28.2958C35.7188 28.5625 35.8409 28.8946 35.8478 29.239C35.842 30.2265 34.8942 30.9743 34.724 31.9471C34.6078 32.611 34.8878 33.3097 35.3719 33.7787C35.8559 34.2476 36.5214 34.5011 37.1919 34.5697C37.8624 34.6384 38.5404 34.5335 39.192 34.3613C39.8463 34.1883 40.4905 33.9429 41.0395 33.5471C41.5885 33.1513 42.0386 32.5934 42.2149 31.9399C42.3911 31.2865 42.2646 30.5373 41.8103 30.0356C41.2902 29.461 40.4248 29.2635 39.9749 28.6324C39.4705 27.9251 39.6571 26.9177 39.2489 26.1508C38.9764 25.6388 38.4603 25.2895 37.9102 25.1056C37.3601 24.9216 36.7727 24.8853 36.193 24.8675C35.8882 24.8581 35.5741 24.855 35.2902 24.9661C35.0063 25.0772 34.7567 25.3304 34.742 25.6349C34.7273 25.9394 34.9221 26.0331 34.9221 26.0331Z" fill="#2F2E41"/>
<path d="M57.2404 64.0008H20.2592C20.2334 64.0008 20.2087 63.9905 20.1905 63.9723C20.1723 63.9541 20.1621 63.9294 20.1621 63.9037C20.1621 63.878 20.1723 63.8533 20.1905 63.8351C20.2087 63.8169 20.2334 63.8066 20.2592 63.8066H57.2404C57.2661 63.8066 57.2908 63.8169 57.309 63.8351C57.3272 63.8533 57.3374 63.878 57.3374 63.9037C57.3374 63.9294 57.3272 63.9541 57.309 63.9723C57.2908 63.9905 57.2661 64.0008 57.2404 64.0008Z" fill="#CACACA"/>
</g>
<defs>
<clipPath id="clip0_5806_24250">
<rect width="57.3377" height="64" fill="white"/>
</clipPath>
</defs>
</svg>
