<svg xmlns="http://www.w3.org/2000/svg" width="48.001" height="48" viewBox="0 0 48.001 48">
	<defs>
		<style>
			.a{fill:#afc4d9;}.b{fill:#748da5;}.b,.c,.d,.e,.f,.g,.h{fill-rule:evenodd;}.c{fill:#e08e3d;}.d{fill:#f5a454;}.e{fill:#cd7f32;}.f{fill:#c47a31;}.g{fill:#78bec0;}.h{fill:#bf7934;}
		</style>
	</defs>
	<g transform="translate(-588 -431.999)">
		<g transform="translate(-3984)">
			<circle class="a" cx="24" cy="24" r="24" transform="translate(4572 431.999)"/>
			<path class="b"
				  d="M4596,480c13.218,0,24-2.018,24-4.493s-10.782-4.493-24-4.493-24,2.019-24,4.493S4582.782,480,4596,480Z"/>
		</g>
		<g transform="translate(-3984)">
			<path class="c"
				  d="M4620,465.059v5.9a2.263,2.263,0,0,1-.824,1.612,5.858,5.858,0,0,1-.526.432,9.029,9.029,0,0,1-1.35.788c-.168.078-.343.16-.525.237a18,18,0,0,1-2.139.753c-.171.051-.345.1-.522.154-.867.232-1.806.443-2.814.623l-.525.093c-.825.134-1.688.257-2.589.355-.174.016-.348.036-.522.052-.6.061-1.212.108-1.839.149-.174.016-.348.026-.524.036-.784.041-1.584.067-2.4.083-.174,0-.348.005-.525.005H4602c-.762,0-1.511-.016-2.25-.042-.177-.005-.351-.015-.525-.02-.753-.036-1.491-.087-2.21-.15l-.529-.046c-.5-.046-.984-.1-1.461-.159-.176-.026-.35-.047-.525-.073-.606-.082-1.2-.175-1.764-.278-.177-.03-.351-.062-.522-.1-.495-.092-.969-.2-1.428-.308-.177-.042-.351-.083-.521-.129-.571-.144-1.108-.3-1.615-.469-.18-.056-.354-.118-.524-.18a13.828,13.828,0,0,1-1.462-.608c-.186-.088-.36-.18-.527-.273a6.854,6.854,0,0,1-1.123-.757,3.949,3.949,0,0,1-.527-.535,2,2,0,0,1-.487-1.247v-5.9Z"/>
			<path class="d"
				  d="M4620,465.061c0,2.628-8.058,4.759-18,4.759s-18-2.131-18-4.759,8.059-4.759,18-4.759S4620,462.432,4620,465.061Z"/>
			<path class="e"
				  d="M4616.776,464.428c0,1.807-6.615,3.273-14.774,3.273s-14.775-1.466-14.775-3.273,6.614-3.274,14.775-3.274S4616.776,462.62,4616.776,464.428Z"/>
			<path class="f"
				  d="M4587.678,465.232c1.619-1.418,7.417-2.468,14.324-2.468s12.7,1.05,14.323,2.468a1.1,1.1,0,0,0,.451-.8c0-1.808-6.615-3.274-14.774-3.274s-14.775,1.466-14.775,3.274A1.1,1.1,0,0,0,4587.678,465.232Z"/>
			<path class="f"
				  d="M4601.93,476.328h.446v-2.606H4602c-.762,0-1.511-.016-2.25-.042h0v2.606c.716.025,1.441.041,2.179.042ZM4584,468.35v2.606a2,2,0,0,0,.487,1.247h0V469.6a2,2,0,0,1-.487-1.246Zm18.9,7.973v-2.606h0c.817-.016,1.617-.042,2.4-.083v2.606h0c-.784.041-1.584.067-2.4.083Zm-3.675-.057h0c-.753-.036-1.491-.087-2.21-.15V473.51h0c.719.062,1.457.113,2.21.15v2.606Zm6.6-.062V473.6h0c.627-.041,1.239-.088,1.839-.149v2.606h0c-.6.061-1.212.108-1.839.149Zm-9.339-.134h0c-.5-.046-.984-.1-1.461-.159V473.3h0c.477.057.963.114,1.461.16v2.606Zm11.7-.067V473.4h0c.9-.1,1.764-.221,2.589-.355v2.606h0c-.825.134-1.688.257-2.589.355Zm-13.686-.165h0c-.606-.082-1.2-.175-1.764-.278v-2.606h0c.567.1,1.158.2,1.764.278v2.606Zm16.8-.283v-2.606h0c1.008-.18,1.947-.392,2.814-.623v2.606h0c-.867.232-1.806.443-2.814.623Zm-19.086-.093h0c-.495-.092-.969-.2-1.428-.308v-2.606h0c.459.112.933.215,1.428.308v2.606Zm-1.949-.437h0c-.571-.144-1.108-.3-1.615-.469v-2.607h0c.507.171,1.044.326,1.615.47v2.606Zm24.371-.247v-2.607h0a18.007,18.007,0,0,0,2.139-.752v2.606h0a18,18,0,0,1-2.139.753Zm-26.51-.4h0a13.828,13.828,0,0,1-1.462-.608v-2.606h0a13.822,13.822,0,0,0,1.462.608v2.606Zm29.174-.588v-2.606h0a9.119,9.119,0,0,0,1.35-.788V473h0a9.029,9.029,0,0,1-1.35.788Zm-31.163-.293h0a6.854,6.854,0,0,1-1.123-.757v-2.607h0a6.855,6.855,0,0,0,1.123.758v2.606Zm33.039-.927v-2.606h0a2.263,2.263,0,0,0,.824-1.612v2.606A2.263,2.263,0,0,1,4619.177,472.568Z"/>
		</g>
		<g transform="translate(-3984)">
			<path class="c"
				  d="M4582.674,456.772v5.9a2.258,2.258,0,0,0,.824,1.612,5.773,5.773,0,0,0,.525.433,9.205,9.205,0,0,0,1.35.788c.168.077.343.16.525.237a17.985,17.985,0,0,0,2.139.752c.171.051.345.1.522.154.867.232,1.807.443,2.814.623.171.031.348.063.525.093.825.134,1.689.258,2.589.356.174.015.348.035.522.051.6.062,1.213.108,1.84.149.173.016.347.027.524.036.783.042,1.584.067,2.4.083.174,0,.347,0,.524,0h.375c.762,0,1.512-.015,2.25-.041.177-.005.351-.016.525-.021.753-.035,1.491-.087,2.211-.149l.528-.046c.5-.047.984-.1,1.461-.16.177-.026.351-.046.526-.072.606-.082,1.2-.175,1.763-.279.177-.03.351-.061.522-.1.5-.092.97-.195,1.428-.308.177-.041.351-.083.522-.129.57-.144,1.108-.3,1.614-.469.181-.056.354-.118.525-.18a13.888,13.888,0,0,0,1.461-.608c.186-.087.36-.18.528-.273a6.718,6.718,0,0,0,1.122-.757,3.9,3.9,0,0,0,.528-.535,2.006,2.006,0,0,0,.486-1.247v-5.9Z"/>
			<path class="d"
				  d="M4582.674,456.774c0,2.629,8.058,4.759,18,4.759s18-2.13,18-4.759-8.059-4.759-18-4.759S4582.674,454.146,4582.674,456.774Z"/>
			<path class="e"
				  d="M4585.9,456.141c0,1.807,6.615,3.273,14.775,3.273s14.775-1.466,14.775-3.273-6.615-3.273-14.775-3.273S4585.9,454.333,4585.9,456.141Z"/>
			<path class="f"
				  d="M4615,456.946c-1.62-1.419-7.418-2.469-14.324-2.469s-12.7,1.05-14.324,2.469a1.109,1.109,0,0,1-.451-.805c0-1.808,6.615-3.273,14.775-3.273s14.775,1.465,14.775,3.273A1.109,1.109,0,0,1,4615,456.946Z"/>
			<path class="f"
				  d="M4600.745,468.041h-.447v-2.606h.375c.762,0,1.512-.016,2.25-.041h0V468c-.715.025-1.441.04-2.178.041Zm17.928-7.978v2.606a2.006,2.006,0,0,1-.486,1.247h0V461.31a2.008,2.008,0,0,0,.486-1.247Zm-18.9,7.973V465.43h0c-.817-.016-1.618-.041-2.4-.083v2.606h0c.783.042,1.584.067,2.4.083Zm3.674-.057h0c.753-.035,1.491-.087,2.211-.149v-2.606h0c-.72.062-1.458.113-2.211.149v2.606Zm-6.6-.062v-2.6h0c-.627-.042-1.24-.088-1.84-.15v2.606h0c.6.062,1.213.108,1.84.149Zm9.338-.133h0c.5-.047.984-.1,1.461-.16v-2.606h0c-.477.056-.963.113-1.461.159v2.607Zm-11.7-.067v-2.606h0c-.9-.1-1.764-.222-2.589-.356v2.606h0c.825.134,1.689.258,2.589.356Zm13.687-.165h0c.606-.082,1.2-.175,1.763-.279v-2.605h0c-.567.1-1.157.2-1.763.278v2.606Zm-16.8-.284v-2.606h0c-1.007-.179-1.947-.391-2.814-.623v2.606h0c.867.232,1.807.443,2.814.623Zm19.086-.093h0c.5-.092.97-.195,1.428-.308v-2.606h0c-.458.113-.932.216-1.428.308v2.606Zm1.95-.437h0c.57-.144,1.108-.3,1.614-.469v-2.606h0c-.506.17-1.044.325-1.614.469v2.606Zm-24.372-.247v-2.606h0a17.985,17.985,0,0,1-2.139-.752v2.606h0a17.985,17.985,0,0,0,2.139.752Zm26.511-.4h0a13.888,13.888,0,0,0,1.461-.608v-2.606h0a13.683,13.683,0,0,1-1.461.608v2.606Zm-29.175-.587V462.9h0a9.2,9.2,0,0,1-1.35-.788v2.606h0a9.205,9.205,0,0,0,1.35.788Zm31.164-.294h0a6.718,6.718,0,0,0,1.122-.757v-2.606h0a6.78,6.78,0,0,1-1.122.757v2.606Zm-33.039-.927v-2.606h0a2.259,2.259,0,0,1-.824-1.612v2.606A2.258,2.258,0,0,0,4583.5,464.281Z"/>
		</g>
		<g transform="translate(-3984)">
			<path class="g" d="M4579.991,473.088l-.752-2.242,6.46-15.71Z"/>
			<path class="g" d="M4576.755,463.449l-.753-2.241,4.942-11.881Z"/>
			<path class="h"
				  d="M4605.4,461.4c0,.284-.007.562-.023.84-.012.233-.029.46-.057.687a14.135,14.135,0,0,1-.228,1.487c-.045.233-.1.46-.153.687a14.661,14.661,0,0,1-.987,2.718c-.1.233-.221.465-.34.687a14.862,14.862,0,0,1-.96,1.538,8.422,8.422,0,0,1-.516.687,12.922,12.922,0,0,1-1.351,1.487c-.25.244-.505.471-.766.686a14.184,14.184,0,0,1-1.97,1.4,12.615,12.615,0,0,1-1.293.687,14.857,14.857,0,0,1-6.351,1.413H4587v-30h3.406a14.9,14.9,0,0,1,6.833,1.652,11.941,11.941,0,0,1,1.2.686,14.286,14.286,0,0,1,1.958,1.488c.25.215.488.448.721.686a15.174,15.174,0,0,1,2.044,2.6c.135.222.272.449.4.682a14.722,14.722,0,0,1,1.187,2.815c.068.226.136.453.192.686a14.047,14.047,0,0,1,.386,2.248c.029.226.046.454.057.686C4605.392,460.888,4605.4,461.144,4605.4,461.4Z"/>
			<path class="c" d="M4605.376,462.239c-.012.233-.029.46-.057.687h-4.189v-.687Z"/>
			<path class="c" d="M4605.091,464.413c-.045.233-.1.46-.153.687h-5.147v-.687Z"/>
			<path class="c" d="M4603.951,467.818c-.1.233-.221.465-.34.687h-5.069v-.687Z"/>
			<path class="c" d="M4602.651,470.043a8.422,8.422,0,0,1-.516.687h-5.262v-.687Z"/>
			<path class="c" d="M4600.784,472.217c-.25.244-.505.471-.766.686h-4.926v-.686Z"/>
			<path class="c" d="M4598.048,474.3a12.615,12.615,0,0,1-1.293.687h-4.228V474.3Z"/>
			<path class="c" d="M4605.381,460.633h-4.534v-.686h4.477C4605.353,460.173,4605.37,460.4,4605.381,460.633Z"/>
			<path class="c" d="M4604.938,457.7h-4.608v-.686h4.416C4604.814,457.239,4604.882,457.466,4604.938,457.7Z"/>
			<path class="c" d="M4603.559,454.2h-4.619v-.682h4.223C4603.3,453.738,4603.435,453.965,4603.559,454.2Z"/>
			<path class="c"
				  d="M4601.119,450.911h-5.142v-.686h4.421C4600.648,450.44,4600.886,450.673,4601.119,450.911Z"/>
			<path class="c" d="M4598.44,448.737h-4.983v-.686h3.78A11.941,11.941,0,0,1,4598.44,448.737Z"/>
			<path class="d" d="M4572,461.4a15,15,0,1,0,15-15A15,15,0,0,0,4572,461.4Z"/>
			<path class="e" d="M4576,461.4a11,11,0,1,0,11-11A11,11,0,0,0,4576,461.4Z"/>
			<path class="f"
				  d="M4587.917,471.477a11,11,0,0,1-8.223-18.3,11,11,0,1,0,15.527,15.523A10.956,10.956,0,0,1,4587.917,471.477Z"/>
			<path class="d"
				  d="M4580.509,458.535l7.8,5.851-.818.613a.846.846,0,0,1-.956-.014l-3.5-2.623-2.5,1.879,5.366,4.024.636.477a.848.848,0,0,0,.956.015l.651-.489,5.345-4.009-7.8-5.85.818-.614a.848.848,0,0,1,.956.015l3.5,2.622,2.5-1.878-6-4.5a.848.848,0,0,0-.956-.014Z"/>
		</g>
	</g>
</svg>
