<svg xmlns="http://www.w3.org/2000/svg" width="48.001" height="48" viewBox="0 0 48.001 48">
	<defs>
		<style>
			.a{fill:#afc4d9;}.b{fill:#748da5;}.b,.c,.d,.e,.f,.g,.h{fill-rule:evenodd;}.c{fill:#e08e3d;}.d{fill:#f5a454;}.e{fill:#cd7f32;}.f{fill:#c47a31;}.g{fill:#78bec0;}.h{fill:#bf7934;}
		</style>
	</defs>
	<g transform="translate(-588 -503.999)">
		<g transform="translate(-3984)">
			<circle class="a" cx="24" cy="24" r="24" transform="translate(4572 503.999)"/>
			<path class="b"
				  d="M4596,552c13.218,0,24-2.019,24-4.493s-10.782-4.493-24-4.493-24,2.018-24,4.493S4582.782,552,4596,552Z"/>
		</g>
		<g transform="translate(-3984)">
			<path class="c"
				  d="M4620,537.058v5.9a2.26,2.26,0,0,1-.824,1.612,5.871,5.871,0,0,1-.526.433,9.116,9.116,0,0,1-1.35.788c-.168.077-.343.16-.525.237a17.829,17.829,0,0,1-2.139.752c-.171.052-.345.1-.522.155-.867.231-1.806.442-2.814.623l-.525.093c-.825.133-1.688.257-2.589.355-.174.015-.348.036-.522.052-.6.061-1.212.107-1.839.149-.174.015-.348.026-.524.036q-1.176.062-2.4.082c-.174,0-.348.006-.525.006H4602c-.762,0-1.511-.016-2.25-.042-.177-.005-.351-.015-.525-.021-.753-.035-1.491-.087-2.21-.149l-.529-.046c-.5-.047-.984-.1-1.461-.159-.176-.027-.35-.047-.525-.073-.606-.082-1.2-.175-1.764-.279-.177-.03-.351-.061-.522-.1-.495-.092-.969-.2-1.428-.309-.177-.041-.351-.083-.521-.129-.571-.144-1.108-.3-1.615-.468-.18-.057-.354-.118-.524-.18a13.822,13.822,0,0,1-1.462-.608c-.186-.088-.36-.181-.527-.273a6.792,6.792,0,0,1-1.123-.758,3.836,3.836,0,0,1-.527-.535,2,2,0,0,1-.487-1.247v-5.9Z"/>
			<path class="d"
				  d="M4620,537.06c0,2.629-8.058,4.76-18,4.76s-18-2.131-18-4.76,8.059-4.759,18-4.759S4620,534.432,4620,537.06Z"/>
			<path class="e"
				  d="M4616.776,536.427c0,1.808-6.615,3.273-14.774,3.273s-14.775-1.465-14.775-3.273,6.614-3.273,14.775-3.273S4616.776,534.619,4616.776,536.427Z"/>
			<path class="f"
				  d="M4587.678,537.232c1.619-1.419,7.417-2.469,14.324-2.469s12.7,1.05,14.323,2.469a1.105,1.105,0,0,0,.451-.8c0-1.808-6.615-3.273-14.774-3.273s-14.775,1.465-14.775,3.273A1.1,1.1,0,0,0,4587.678,537.232Z"/>
			<path class="f"
				  d="M4601.93,548.328h.446v-2.607H4602c-.762,0-1.511-.015-2.25-.041h0v2.606c.716.025,1.441.04,2.179.042ZM4584,540.349v2.606a2,2,0,0,0,.487,1.247h0V541.6a2,2,0,0,1-.487-1.247Zm18.9,7.973v-2.606h0q1.225-.023,2.4-.082v2.606h0q-1.176.062-2.4.082Zm-3.675-.057h0c-.753-.035-1.491-.087-2.21-.149V545.51h0c.719.062,1.457.113,2.21.15v2.605Zm6.6-.061V545.6h0c.627-.041,1.239-.088,1.839-.149v2.606h0c-.6.061-1.212.107-1.839.149Zm-9.339-.134h0c-.5-.047-.984-.1-1.461-.159V545.3h0c.477.056.963.113,1.461.16v2.606Zm11.7-.067V545.4h0c.9-.1,1.764-.222,2.589-.356v2.607h0c-.825.133-1.688.257-2.589.355Zm-13.686-.165h0c-.606-.082-1.2-.175-1.764-.279v-2.605h0c.567.1,1.158.2,1.764.278v2.606Zm16.8-.283v-2.607h0c1.008-.179,1.947-.391,2.814-.623v2.607h0c-.867.231-1.806.442-2.814.623Zm-19.086-.093h0c-.495-.092-.969-.2-1.428-.309v-2.606h0c.459.113.933.216,1.428.308v2.607Zm-1.949-.438h0c-.571-.144-1.108-.3-1.615-.468v-2.607h0c.507.171,1.044.325,1.615.469v2.606Zm24.371-.247v-2.606h0a18.012,18.012,0,0,0,2.139-.752v2.606h0a17.829,17.829,0,0,1-2.139.752Zm-26.51-.4h0a13.822,13.822,0,0,1-1.462-.608v-2.606h0a13.623,13.623,0,0,0,1.462.607v2.607Zm29.174-.588v-2.606h0a9.116,9.116,0,0,0,1.35-.788V545h0a9.116,9.116,0,0,1-1.35.788Zm-31.163-.293h0a6.792,6.792,0,0,1-1.123-.758v-2.606h0a6.853,6.853,0,0,0,1.123.758v2.606Zm33.039-.928v-2.605h0a2.263,2.263,0,0,0,.824-1.613v2.606A2.26,2.26,0,0,1,4619.177,544.567Z"/>
		</g>
		<g transform="translate(-3984)">
			<path class="c"
				  d="M4582.674,528.772v5.9a2.259,2.259,0,0,0,.824,1.612,5.781,5.781,0,0,0,.525.432,9.116,9.116,0,0,0,1.35.789c.168.077.343.159.525.236a17.8,17.8,0,0,0,2.139.753c.171.051.345.1.522.154.867.232,1.807.443,2.814.623l.525.093c.825.134,1.689.258,2.589.356.174.015.348.035.522.051.6.062,1.213.108,1.84.149.173.016.347.026.524.036.783.041,1.584.067,2.4.083.174,0,.347.005.524.005h.375c.762,0,1.512-.016,2.25-.042.177-.005.351-.015.525-.02q1.129-.054,2.211-.149l.528-.047c.5-.046.984-.1,1.461-.159.177-.026.351-.047.526-.072.606-.083,1.2-.176,1.763-.279.177-.03.351-.062.522-.1.5-.092.97-.2,1.428-.308.177-.042.351-.083.522-.129.57-.144,1.108-.3,1.614-.469.181-.056.354-.118.525-.18a13.888,13.888,0,0,0,1.461-.608c.186-.088.36-.18.528-.273a6.841,6.841,0,0,0,1.122-.757,3.955,3.955,0,0,0,.528-.535,2.008,2.008,0,0,0,.486-1.247v-5.9Z"/>
			<path class="d"
				  d="M4582.674,528.774c0,2.628,8.058,4.759,18,4.759s18-2.131,18-4.759-8.059-4.759-18-4.759S4582.674,526.145,4582.674,528.774Z"/>
			<path class="e"
				  d="M4585.9,528.141c0,1.807,6.615,3.273,14.775,3.273s14.775-1.466,14.775-3.273-6.615-3.274-14.775-3.274S4585.9,526.333,4585.9,528.141Z"/>
			<path class="f"
				  d="M4615,528.945c-1.62-1.418-7.418-2.468-14.324-2.468s-12.7,1.05-14.324,2.468a1.108,1.108,0,0,1-.451-.8c0-1.808,6.615-3.274,14.775-3.274s14.775,1.466,14.775,3.274A1.108,1.108,0,0,1,4615,528.945Z"/>
			<path class="f"
				  d="M4600.745,540.041h-.447v-2.606h.375c.762,0,1.512-.016,2.25-.042h0V540q-1.072.039-2.178.042Zm17.928-7.978v2.606a2.008,2.008,0,0,1-.486,1.247h0V533.31a2.01,2.01,0,0,0,.486-1.247Zm-18.9,7.973V537.43h0c-.817-.016-1.618-.042-2.4-.083v2.606h0c.783.041,1.584.067,2.4.083Zm3.674-.057h0q1.129-.054,2.211-.149v-2.606h0q-1.08.093-2.211.149v2.606Zm-6.6-.062v-2.606h0c-.627-.041-1.24-.087-1.84-.149v2.606h0c.6.062,1.213.108,1.84.149Zm9.338-.134h0c.5-.046.984-.1,1.461-.159v-2.607h0c-.477.057-.963.114-1.461.16v2.606Zm-11.7-.066V537.11h0c-.9-.1-1.764-.221-2.589-.355v2.606h0c.825.134,1.689.258,2.589.356Zm13.687-.165h0c.606-.083,1.2-.176,1.763-.279v-2.606h0c-.567.1-1.157.2-1.763.278v2.607Zm-16.8-.284v-2.606h0c-1.007-.18-1.947-.391-2.814-.623v2.606h0c.867.232,1.807.443,2.814.623Zm19.086-.093h0c.5-.092.97-.2,1.428-.308v-2.606h0c-.458.112-.932.215-1.428.308v2.606Zm1.95-.437h0c.57-.144,1.108-.3,1.614-.469v-2.606h0c-.506.17-1.044.325-1.614.469v2.606Zm-24.372-.247v-2.607h0a17.985,17.985,0,0,1-2.139-.751v2.6h0a17.8,17.8,0,0,0,2.139.753Zm26.511-.4h0a13.888,13.888,0,0,0,1.461-.608v-2.606h0a13.684,13.684,0,0,1-1.461.608v2.606Zm-29.175-.587V534.9h0a9.116,9.116,0,0,1-1.35-.788v2.606h0a9.116,9.116,0,0,0,1.35.789Zm31.164-.294h0a6.841,6.841,0,0,0,1.122-.757v-2.606h0a6.841,6.841,0,0,1-1.122.757v2.606Zm-33.039-.927v-2.606h0a2.259,2.259,0,0,1-.824-1.612v2.606A2.259,2.259,0,0,0,4583.5,536.281Z"/>
		</g>
		<g transform="translate(-3984)">
			<path class="c"
				  d="M4580.791,520.439v5.9a2.263,2.263,0,0,0,.824,1.612,6.162,6.162,0,0,0,.525.433,9.079,9.079,0,0,0,1.351.787c.168.078.342.16.525.237a17.764,17.764,0,0,0,2.139.753l.521.154c.867.232,1.807.443,2.814.623l.526.093c.824.134,1.688.257,2.588.355.174.016.348.036.522.052.6.062,1.213.108,1.84.149.173.016.348.026.524.036.783.041,1.584.067,2.4.083.174,0,.347.005.524.005h.375c.763,0,1.512-.015,2.25-.042.178-.005.351-.015.525-.02q1.129-.054,2.211-.149l.529-.047c.5-.046.983-.1,1.46-.159.177-.026.351-.047.526-.072.606-.083,1.2-.176,1.763-.279.177-.03.351-.062.522-.1.5-.092.97-.2,1.429-.308.176-.042.351-.083.521-.129.57-.144,1.108-.3,1.615-.469.18-.056.353-.118.524-.18a13.8,13.8,0,0,0,1.461-.608c.187-.088.36-.18.528-.273a6.739,6.739,0,0,0,1.122-.757,3.9,3.9,0,0,0,.528-.535,2.008,2.008,0,0,0,.486-1.247v-5.9Z"/>
			<path class="d"
				  d="M4580.791,520.441c0,2.628,8.058,4.759,18,4.759s18-2.131,18-4.759-8.058-4.759-18-4.759S4580.791,517.812,4580.791,520.441Z"/>
			<path class="e"
				  d="M4584.016,519.808c0,1.807,6.614,3.273,14.774,3.273s14.775-1.466,14.775-3.273-6.614-3.274-14.775-3.274S4584.016,518,4584.016,519.808Z"/>
			<path class="f"
				  d="M4613.114,520.612c-1.619-1.418-7.417-2.468-14.324-2.468s-12.7,1.05-14.323,2.468a1.1,1.1,0,0,1-.451-.8c0-1.808,6.614-3.274,14.774-3.274s14.775,1.466,14.775,3.274A1.1,1.1,0,0,1,4613.114,520.612Z"/>
			<path class="f"
				  d="M4598.862,531.708h-.447V529.1h.375c.763,0,1.512-.016,2.25-.042h0v2.606q-1.072.039-2.178.042Zm17.928-7.978v2.606a2.008,2.008,0,0,1-.486,1.247h0v-2.606a2.01,2.01,0,0,0,.486-1.247Zm-18.9,7.973V529.1h0c-.817-.016-1.618-.042-2.4-.083v2.606h0c.783.041,1.584.067,2.4.083Zm3.674-.057h0q1.129-.054,2.211-.149V528.89h0q-1.08.094-2.211.15v2.606Zm-6.6-.062v-2.606h0c-.627-.041-1.24-.088-1.84-.149v2.606h0c.6.062,1.213.108,1.84.149Zm9.339-.134h0c.5-.046.983-.1,1.46-.159v-2.607h0c-.477.057-.962.114-1.46.16v2.606Zm-11.7-.067v-2.606h0c-.9-.1-1.764-.221-2.588-.355v2.606h0c.824.134,1.688.257,2.588.355Zm13.687-.164h0c.606-.083,1.2-.176,1.763-.279v-2.606h0c-.567.1-1.157.2-1.763.278v2.607Zm-16.8-.284v-2.606h0c-1.007-.18-1.947-.391-2.814-.623v2.606h0c.867.232,1.807.443,2.814.623Zm19.086-.093h0c.5-.092.97-.2,1.429-.308v-2.606h0c-.459.112-.933.216-1.429.308v2.606Zm1.95-.437h0c.57-.144,1.108-.3,1.615-.469V527.33h0c-.507.17-1.045.325-1.615.469v2.606Zm-24.371-.247v-2.607h0a17.955,17.955,0,0,1-2.139-.751v2.605h0a17.764,17.764,0,0,0,2.139.753Zm26.51-.4h0a13.8,13.8,0,0,0,1.461-.608v-2.606h0a13.815,13.815,0,0,1-1.461.608v2.606Zm-29.174-.588v-2.606h0a9.079,9.079,0,0,1-1.351-.788v2.607h0a9.079,9.079,0,0,0,1.351.787Zm31.163-.293h0a6.739,6.739,0,0,0,1.122-.757v-2.606h0a6.8,6.8,0,0,1-1.122.757v2.606Zm-33.039-.927v-2.606h0a2.263,2.263,0,0,1-.824-1.612v2.606A2.263,2.263,0,0,0,4581.615,527.948Z"/>
		</g>
		<g transform="translate(-3984)">
			<path class="g" d="M4579.991,545.016l-.752-2.242,6.46-15.71Z"/>
			<path class="g" d="M4576.755,535.377l-.753-2.241,4.942-11.881Z"/>
			<path class="h"
				  d="M4605.4,533.328c0,.283-.007.562-.023.84-.012.232-.029.46-.057.686a14.135,14.135,0,0,1-.228,1.487c-.045.233-.1.46-.153.687a14.634,14.634,0,0,1-.987,2.718c-.1.234-.221.466-.34.687a14.866,14.866,0,0,1-.96,1.538,8.432,8.432,0,0,1-.516.687,12.925,12.925,0,0,1-1.351,1.487q-.375.366-.766.686a14.276,14.276,0,0,1-1.97,1.4,12.814,12.814,0,0,1-1.293.686,14.858,14.858,0,0,1-6.351,1.414H4587v-30h3.406a14.884,14.884,0,0,1,6.833,1.652,11.941,11.941,0,0,1,1.2.686,14.281,14.281,0,0,1,1.958,1.487c.25.216.488.448.721.686a15.175,15.175,0,0,1,2.044,2.6c.135.222.272.449.4.682a14.723,14.723,0,0,1,1.187,2.815c.068.227.136.454.192.686a14.047,14.047,0,0,1,.386,2.248c.029.227.046.454.057.686C4605.392,532.817,4605.4,533.072,4605.4,533.328Z"/>
			<path class="c" d="M4605.376,534.168c-.012.232-.029.46-.057.686h-4.189v-.686Z"/>
			<path class="c" d="M4605.091,536.341c-.045.233-.1.46-.153.687h-5.147v-.687Z"/>
			<path class="c" d="M4603.951,539.746c-.1.234-.221.466-.34.687h-5.069v-.687Z"/>
			<path class="c" d="M4602.651,541.971a8.432,8.432,0,0,1-.516.687h-5.262v-.687Z"/>
			<path class="c" d="M4600.784,544.145q-.375.366-.766.686h-4.926v-.686Z"/>
			<path class="c" d="M4598.048,546.228a12.814,12.814,0,0,1-1.293.686h-4.228v-.686Z"/>
			<path class="c" d="M4605.381,532.561h-4.534v-.686h4.477C4605.353,532.1,4605.37,532.329,4605.381,532.561Z"/>
			<path class="c" d="M4604.938,529.627h-4.608v-.686h4.416C4604.814,529.168,4604.882,529.4,4604.938,529.627Z"/>
			<path class="c" d="M4603.559,526.126h-4.619v-.682h4.223C4603.3,525.666,4603.435,525.893,4603.559,526.126Z"/>
			<path class="c" d="M4601.119,522.839h-5.142v-.686h4.421C4600.648,522.369,4600.886,522.6,4601.119,522.839Z"/>
			<path class="c" d="M4598.44,520.666h-4.983v-.686h3.78A11.941,11.941,0,0,1,4598.44,520.666Z"/>
			<path class="d" d="M4572,533.326a15,15,0,1,0,15-15A15,15,0,0,0,4572,533.326Z"/>
			<path class="e" d="M4576,533.325a11,11,0,1,0,11-11A11,11,0,0,0,4576,533.325Z"/>
			<path class="f"
				  d="M4587.917,543.405a11,11,0,0,1-8.223-18.3,11,11,0,1,0,15.527,15.523A10.96,10.96,0,0,1,4587.917,543.405Z"/>
			<path class="d"
				  d="M4580.509,530.463l7.8,5.851-.818.613a.846.846,0,0,1-.956-.014l-3.5-2.623-2.5,1.879,5.366,4.024.636.477a.848.848,0,0,0,.956.015l.651-.489,5.345-4.008-7.8-5.851.818-.614a.848.848,0,0,1,.956.015l3.5,2.623,2.5-1.879-6-4.5a.846.846,0,0,0-.956-.015Z"/>
		</g>
	</g>
</svg>
