<svg xmlns="http://www.w3.org/2000/svg" width="48" height="48" viewBox="0 0 48 48">
	<defs>
		<style>
			.a{fill:#afc4d9;}.b{fill:#748da5;}.b,.c,.d,.e,.f,.g,.h,.i,.j,.k,.l{fill-rule:evenodd;}.c{fill:#fec335;}.d{fill:#ffdd2f;}.e{fill:#ffd033;}.f{fill:#faac38;}.g{fill:#e4a636;}.h{fill:#78bec0;}.i{fill:#a7772e;}.j{fill:#c98e33;}.k{fill:#e3b233;}.l{fill:#d89b35;}
		</style>
	</defs>
	<g transform="translate(-983.999 -360)">
		<g transform="translate(-3984)">
			<circle class="a" cx="24" cy="24" r="24" transform="translate(4967.999 360)"/>
			<path class="b"
				  d="M4992,408c13.219,0,24-2.018,24-4.493s-10.781-4.493-24-4.493-24,2.019-24,4.493S4978.78,408,4992,408Z"/>
		</g>
		<g transform="translate(-3984)">
			<path class="c"
				  d="M4980,393.13v5.9a2.256,2.256,0,0,0,.824,1.612,5.841,5.841,0,0,0,.525.433,9.113,9.113,0,0,0,1.35.788c.168.077.343.16.525.237a17.889,17.889,0,0,0,2.139.752c.171.052.345.1.522.155.867.231,1.807.442,2.814.623l.525.093c.825.133,1.689.257,2.589.355.174.015.348.036.522.052.6.061,1.213.107,1.84.149.173.015.347.026.524.036q1.174.061,2.4.082c.174,0,.347,0,.524,0H4998c.762,0,1.512-.015,2.25-.041.177-.005.351-.015.525-.021.753-.035,1.491-.087,2.211-.149l.528-.046c.5-.046.984-.1,1.461-.159.177-.027.351-.047.526-.073.606-.082,1.2-.175,1.763-.279.177-.03.351-.061.522-.1.5-.093.97-.2,1.429-.309.176-.041.35-.083.521-.129q.855-.216,1.614-.468c.181-.057.354-.118.525-.18a13.9,13.9,0,0,0,1.461-.608c.186-.088.36-.181.528-.273a6.779,6.779,0,0,0,1.122-.758,3.9,3.9,0,0,0,.528-.535,2.006,2.006,0,0,0,.486-1.247v-5.9Z"/>
			<path class="d"
				  d="M4980,393.132c0,2.629,8.058,4.76,18,4.76s18-2.131,18-4.76-8.059-4.759-18-4.759S4980,390.5,4980,393.132Z"/>
			<path class="e"
				  d="M4983.224,392.5c0,1.808,6.615,3.273,14.775,3.273s14.775-1.465,14.775-3.273-6.615-3.273-14.775-3.273S4983.224,390.691,4983.224,392.5Z"/>
			<path class="f"
				  d="M5012.323,393.3c-1.62-1.419-7.418-2.469-14.324-2.469s-12.7,1.05-14.324,2.469a1.109,1.109,0,0,1-.451-.8c0-1.808,6.615-3.273,14.775-3.273s14.775,1.465,14.775,3.273A1.105,1.105,0,0,1,5012.323,393.3Z"/>
			<path class="g"
				  d="M4998.071,404.4h-.447v-2.606H4998c.762,0,1.512-.015,2.25-.041h0v2.606c-.715.025-1.441.041-2.178.041ZM5016,396.421v2.606a2.006,2.006,0,0,1-.486,1.247h0v-2.606a2.006,2.006,0,0,0,.486-1.247Zm-18.9,7.973v-2.606h0q-1.225-.022-2.4-.082v2.606h0q1.174.061,2.4.082Zm3.674-.057h0c.753-.035,1.491-.087,2.211-.149v-2.606h0q-1.08.093-2.211.15v2.605Zm-6.6-.061V401.67h0c-.627-.041-1.24-.088-1.84-.15v2.607h0c.6.061,1.213.107,1.84.149Zm9.338-.134h0c.5-.046.984-.1,1.461-.159v-2.607h0c-.477.056-.963.113-1.461.16v2.606Zm-11.7-.067v-2.606h0c-.9-.1-1.764-.221-2.589-.356v2.607h0c.825.133,1.689.257,2.589.355Zm13.687-.165h0c.606-.082,1.2-.175,1.763-.279v-2.605h0c-.567.1-1.157.2-1.763.278v2.606Zm-16.8-.283V401.02h0c-1.007-.179-1.947-.391-2.814-.623V403h0c.867.231,1.807.442,2.814.623Zm19.086-.093h0c.5-.093.97-.2,1.429-.309v-2.606h0c-.459.113-.933.216-1.429.308v2.607Zm1.95-.438h0q.855-.216,1.614-.468v-2.607h0c-.506.171-1.044.325-1.614.469V403.1Zm-24.372-.247v-2.606h0a18.068,18.068,0,0,1-2.139-.752V402.1h0a17.889,17.889,0,0,0,2.139.752Zm26.511-.4h0a13.9,13.9,0,0,0,1.461-.608v-2.606h0a13.687,13.687,0,0,1-1.461.607v2.607Zm-29.175-.588v-2.606h0a9.113,9.113,0,0,1-1.35-.788v2.606h0a9.113,9.113,0,0,0,1.35.788Zm31.164-.293h0a6.779,6.779,0,0,0,1.122-.758V398.2h0a6.844,6.844,0,0,1-1.122.758v2.606Zm-33.039-.928v-2.605h0a2.26,2.26,0,0,1-.824-1.613v2.606A2.256,2.256,0,0,0,4980.824,400.639Z"/>
		</g>
		<g transform="translate(-3984)">
			<path class="h" d="M4975.99,401.088l-.752-2.242,6.461-15.71Z"/>
			<path class="i" d="M4972.754,391.449l-.753-2.241,4.942-11.881Z"/>
			<path class="j"
				  d="M5001.4,389.4c0,.283-.006.562-.022.84-.012.232-.029.459-.057.686a14.135,14.135,0,0,1-.228,1.487c-.045.233-.1.46-.153.687a14.732,14.732,0,0,1-.987,2.718c-.1.234-.221.466-.34.687a14.862,14.862,0,0,1-.96,1.538,8.422,8.422,0,0,1-.516.687,12.922,12.922,0,0,1-1.351,1.487q-.375.366-.766.686a14.332,14.332,0,0,1-1.97,1.4,12.712,12.712,0,0,1-1.294.686,14.85,14.85,0,0,1-6.35,1.414H4983v-30h3.406a14.9,14.9,0,0,1,6.833,1.651,12.26,12.26,0,0,1,1.2.687,14.276,14.276,0,0,1,1.958,1.487c.25.215.488.448.721.686a15.222,15.222,0,0,1,2.044,2.6c.135.222.272.449.4.682a14.657,14.657,0,0,1,1.186,2.815c.068.227.136.454.193.686a14.047,14.047,0,0,1,.386,2.248c.029.227.046.454.057.686C5001.391,388.889,5001.4,389.144,5001.4,389.4Z"/>
			<path class="i" d="M5001.375,390.24c-.012.232-.029.459-.057.686h-4.189v-.686Z"/>
			<path class="i" d="M5001.09,392.413c-.045.233-.1.46-.153.687h-5.147v-.687Z"/>
			<path class="i" d="M4999.95,395.818c-.1.234-.221.466-.34.687h-5.069v-.687Z"/>
			<path class="i" d="M4998.65,398.043a8.422,8.422,0,0,1-.516.687h-5.262v-.687Z"/>
			<path class="i" d="M4996.783,400.217q-.375.366-.766.686h-4.926v-.686Z"/>
			<path class="i" d="M4994.047,402.3a12.712,12.712,0,0,1-1.294.686h-4.227V402.3Z"/>
			<path class="i" d="M5001.38,388.633h-4.534v-.686h4.477C5001.352,388.174,5001.369,388.4,5001.38,388.633Z"/>
			<path class="i" d="M5000.937,385.7h-4.608v-.686h4.415C5000.812,385.24,5000.88,385.467,5000.937,385.7Z"/>
			<path class="i" d="M4999.558,382.2h-4.619v-.682h4.223C4999.3,381.738,4999.434,381.965,4999.558,382.2Z"/>
			<path class="i"
				  d="M4997.118,378.911h-5.142v-.686h4.421C4996.647,378.44,4996.885,378.673,4997.118,378.911Z"/>
			<path class="i" d="M4994.439,376.738h-4.983v-.687h3.78A12.26,12.26,0,0,1,4994.439,376.738Z"/>
			<path class="e" d="M4968,389.4a15,15,0,1,0,15-15A15,15,0,0,0,4968,389.4Z"/>
			<path class="k" d="M4972,389.4a11,11,0,1,0,11-11A11,11,0,0,0,4972,389.4Z"/>
			<path class="l"
				  d="M4983.916,399.477a11,11,0,0,1-8.223-18.3A11,11,0,1,0,4991.22,396.7,10.96,10.96,0,0,1,4983.916,399.477Z"/>
			<path class="e"
				  d="M4976.508,386.535l7.8,5.851-.818.613a.846.846,0,0,1-.956-.014l-3.5-2.623-2.5,1.879,5.366,4.024.636.477a.848.848,0,0,0,.956.015l.651-.489,5.345-4.008-7.8-5.851.818-.614a.848.848,0,0,1,.956.015l3.5,2.623,2.5-1.879-6-4.5a.846.846,0,0,0-.956-.015Z"/>
		</g>
	</g>
</svg>
