<svg width="276" height="200" viewBox="0 0 276 200" fill="none" xmlns="http://www.w3.org/2000/svg">
<rect x="0.5" y="0.5" width="275" height="199" rx="23.5" fill="white" stroke="#C5C9D9"/>
<path fill-rule="evenodd" clip-rule="evenodd" d="M107.992 86.4922C108.975 89.0412 109.516 91.8102 109.516 94.7064C109.516 97.4977 109.014 100.172 108.097 102.644H65.2643C64.3475 100.172 63.8457 97.4974 63.8457 94.7064C63.8457 91.8105 64.3862 89.0415 65.3697 86.4922H107.992H107.992ZM68.5426 104.771C68.7149 104.737 68.887 104.711 69.0584 104.703C69.4641 104.684 69.8447 104.76 70.1745 105.015C70.6245 105.363 71.0113 105.497 71.3895 105.481C71.7912 105.464 72.2229 105.281 72.7256 105.003C72.9782 104.863 73.3186 104.784 73.6747 104.777C73.8219 104.774 73.9732 104.783 74.1235 104.805V105.728C73.9818 105.695 73.8343 105.681 73.6924 105.684C73.4813 105.688 73.291 105.728 73.163 105.799C72.549 106.139 71.9994 106.363 71.4285 106.388C70.8337 106.413 70.2554 106.225 69.6197 105.733C69.4864 105.629 69.3057 105.6 69.1011 105.61H69.0993C68.9294 105.618 68.7397 105.653 68.5426 105.7V104.77V104.771ZM100.486 112.895C99.7458 113.458 98.9706 113.976 98.1638 114.446C98.0532 114.466 97.9422 114.478 97.8306 114.483C97.2358 114.509 96.6575 114.321 96.0215 113.828C95.8882 113.725 95.7075 113.696 95.5029 113.705H95.501C95.3312 113.713 95.1415 113.749 94.9447 113.795V112.866C95.117 112.832 95.2891 112.807 95.4605 112.799C95.8659 112.78 96.2468 112.855 96.5763 113.11C97.0263 113.458 97.4131 113.593 97.7912 113.576C98.1929 113.559 98.6247 113.377 99.1274 113.098C99.38 112.958 99.7207 112.88 100.076 112.873C100.211 112.87 100.348 112.877 100.485 112.895H100.486ZM71.5187 111.779C70.9881 111.307 70.4795 110.811 69.9947 110.293C70.0561 110.327 70.1159 110.366 70.1745 110.412C70.6245 110.76 71.0113 110.894 71.3895 110.878C71.7912 110.86 72.2229 110.678 72.7256 110.4C72.9782 110.26 73.3186 110.181 73.6747 110.174C73.8219 110.171 73.9732 110.18 74.1235 110.202V111.125C73.9818 111.092 73.8343 111.078 73.6924 111.081C73.4813 111.085 73.291 111.125 73.163 111.196C72.5812 111.518 72.0577 111.736 71.5187 111.779ZM68.5426 107.469C68.7149 107.435 68.887 107.41 69.0584 107.402C69.4641 107.383 69.8447 107.458 70.1745 107.713C70.6245 108.062 71.0113 108.196 71.3895 108.179C71.7912 108.162 72.2229 107.979 72.7256 107.701C72.9782 107.561 73.3186 107.483 73.6747 107.475C73.8219 107.473 73.9732 107.482 74.1235 107.504V108.426C73.9818 108.394 73.8343 108.379 73.6924 108.382C73.4813 108.386 73.291 108.426 73.163 108.497C72.549 108.837 71.9994 109.061 71.4285 109.086C70.8337 109.112 70.2554 108.923 69.6197 108.431C69.4864 108.328 69.3057 108.299 69.1011 108.308H69.0993C68.9294 108.316 68.7397 108.352 68.5426 108.398V107.469V107.469ZM75.2582 104.771C75.4305 104.737 75.6026 104.711 75.7736 104.703C76.1794 104.684 76.56 104.76 76.8898 105.015C77.3398 105.363 77.7266 105.497 78.1047 105.481C78.5064 105.464 78.9382 105.281 79.4409 105.003C79.6935 104.863 80.0338 104.784 80.39 104.777C80.5372 104.774 80.6884 104.783 80.8388 104.805V105.728C80.6971 105.695 80.5496 105.681 80.4076 105.684C80.1966 105.688 80.0063 105.728 79.8783 105.799C79.2643 106.139 78.7147 106.363 78.1438 106.388C77.549 106.413 76.9707 106.225 76.335 105.733C76.2017 105.629 76.021 105.6 75.8164 105.61H75.8146C75.6447 105.618 75.455 105.653 75.2582 105.7V104.77V104.771ZM75.2582 107.469C75.4305 107.435 75.6026 107.41 75.7736 107.402C76.1794 107.383 76.56 107.458 76.8898 107.713C77.3398 108.062 77.7266 108.196 78.1047 108.179C78.5064 108.162 78.9382 107.979 79.4409 107.701C79.6935 107.561 80.0338 107.483 80.39 107.475C80.5372 107.473 80.6884 107.482 80.8388 107.504V108.426C80.6971 108.394 80.5496 108.379 80.4076 108.382C80.1966 108.386 80.0063 108.426 79.8783 108.497C79.2643 108.837 78.7147 109.061 78.1438 109.086C77.549 109.112 76.9707 108.923 76.335 108.431C76.2017 108.328 76.021 108.299 75.8164 108.308H75.8146C75.6447 108.316 75.455 108.352 75.2582 108.398V107.469V107.469ZM75.2582 110.167C75.4305 110.133 75.6026 110.108 75.7736 110.1C76.1794 110.081 76.56 110.157 76.8898 110.412C77.3398 110.76 77.7266 110.894 78.1047 110.878C78.5064 110.86 78.9382 110.678 79.4409 110.4C79.6935 110.26 80.0338 110.181 80.39 110.174C80.5372 110.171 80.6884 110.18 80.8388 110.202V111.125C80.6971 111.092 80.5496 111.078 80.4076 111.081C80.1966 111.085 80.0063 111.125 79.8783 111.196C79.2643 111.536 78.7147 111.76 78.1438 111.785C77.549 111.81 76.9707 111.622 76.335 111.13C76.2017 111.027 76.021 110.997 75.8164 111.007H75.8146C75.6447 111.015 75.455 111.05 75.2582 111.097V110.167ZM75.2582 112.866C75.4305 112.832 75.6026 112.807 75.7736 112.799C76.1794 112.78 76.56 112.855 76.8898 113.11C77.3398 113.458 77.7266 113.593 78.1047 113.576C78.5064 113.559 78.9382 113.376 79.4409 113.098C79.6935 112.958 80.0338 112.879 80.39 112.872C80.5372 112.869 80.6884 112.878 80.8388 112.9V113.823C80.6971 113.79 80.5496 113.776 80.4076 113.779C80.1966 113.783 80.0063 113.823 79.8783 113.894C79.2643 114.234 78.7147 114.458 78.1438 114.483C77.549 114.508 76.9707 114.32 76.335 113.828C76.2017 113.725 76.021 113.695 75.8164 113.705H75.8146C75.6447 113.713 75.455 113.748 75.2582 113.795V112.865V112.866ZM81.8204 104.77C81.9927 104.736 82.1647 104.711 82.3361 104.703C82.7415 104.684 83.1225 104.759 83.4519 105.015C83.902 105.363 84.2888 105.497 84.6669 105.481C85.0686 105.463 85.5004 105.281 86.0031 105.002C86.2557 104.863 86.596 104.784 86.9521 104.777C87.0994 104.774 87.2506 104.783 87.4009 104.805V105.728C87.2593 105.695 87.1118 105.681 86.9698 105.683C86.7587 105.687 86.5681 105.728 86.4401 105.799C85.8261 106.138 85.2766 106.362 84.7057 106.387C84.1109 106.413 83.5325 106.225 82.8968 105.732C82.7635 105.629 82.5828 105.6 82.3783 105.61H82.3764C82.2066 105.617 82.0166 105.653 81.8198 105.699V104.77L81.8204 104.77ZM81.8204 107.469C81.9927 107.435 82.1647 107.409 82.3361 107.401C82.7415 107.383 83.1225 107.458 83.4519 107.713C83.902 108.061 84.2888 108.196 84.6669 108.179C85.0686 108.162 85.5004 107.979 86.0031 107.701C86.2557 107.561 86.596 107.482 86.9521 107.475C87.0994 107.472 87.2506 107.481 87.4009 107.503V108.426C87.2593 108.393 87.1118 108.379 86.9698 108.382C86.7587 108.386 86.5681 108.426 86.4401 108.497C85.8261 108.837 85.2766 109.061 84.7057 109.086C84.1109 109.111 83.5325 108.923 82.8968 108.431C82.7635 108.328 82.5828 108.298 82.3783 108.308H82.3764C82.2066 108.316 82.0166 108.351 81.8198 108.398V107.468L81.8204 107.469ZM81.8204 110.167C81.9927 110.133 82.1647 110.108 82.3361 110.1C82.7415 110.081 83.1225 110.156 83.4519 110.411C83.902 110.76 84.2888 110.894 84.6669 110.877C85.0686 110.86 85.5004 110.677 86.0031 110.399C86.2557 110.26 86.596 110.181 86.9521 110.174C87.0994 110.171 87.2506 110.18 87.4009 110.202V111.125C87.2593 111.092 87.1118 111.078 86.9698 111.08C86.7587 111.085 86.5681 111.125 86.4401 111.196C85.8261 111.535 85.2766 111.76 84.7057 111.784C84.1109 111.81 83.5325 111.622 82.8968 111.129C82.7635 111.026 82.5828 110.997 82.3783 111.007H82.3764C82.2066 111.015 82.0166 111.05 81.8198 111.096V110.167H81.8204ZM81.8204 112.865C81.9927 112.831 82.1647 112.806 82.3361 112.798C82.7415 112.779 83.1225 112.855 83.4519 113.11C83.902 113.458 84.2888 113.592 84.6669 113.576C85.0686 113.558 85.5004 113.376 86.0031 113.098C86.2557 112.958 86.596 112.879 86.9521 112.872C87.0994 112.869 87.2506 112.878 87.4009 112.9V113.823C87.2593 113.79 87.1118 113.776 86.9698 113.779C86.7587 113.783 86.5681 113.823 86.4401 113.894C85.8261 114.234 85.2766 114.458 84.7057 114.482C84.1109 114.508 83.5325 114.32 82.8968 113.828C82.7635 113.724 82.5828 113.695 82.3783 113.704H82.3764C82.2066 113.713 82.0166 113.748 81.8198 113.794V112.865L81.8204 112.865ZM81.8204 115.045C81.9927 115.011 82.1647 114.986 82.3361 114.978C82.7415 114.959 83.1225 115.034 83.4519 115.29C83.902 115.638 84.2888 115.772 84.6669 115.756C85.0686 115.738 85.5004 115.555 86.0031 115.277C86.2557 115.138 86.596 115.059 86.9521 115.052C87.0994 115.049 87.2506 115.058 87.4009 115.08V116.003C87.2593 115.97 87.1118 115.956 86.9698 115.958C86.7587 115.962 86.5681 116.003 86.4401 116.074C85.8261 116.413 85.2766 116.638 84.7057 116.662C84.1109 116.688 83.5325 116.5 82.8968 116.007C82.7635 115.904 82.5828 115.875 82.3783 115.885H82.3764C82.2066 115.893 82.0166 115.928 81.8198 115.974V115.045H81.8204ZM88.3825 104.77C88.5549 104.736 88.7269 104.711 88.8983 104.703C89.304 104.684 89.6846 104.759 90.0144 105.015C90.4644 105.363 90.8513 105.497 91.2294 105.481C91.6311 105.463 92.0628 105.281 92.5656 105.002C92.8182 104.863 93.1585 104.784 93.5146 104.777C93.6618 104.774 93.8131 104.783 93.9634 104.805V105.728C93.8218 105.695 93.6742 105.681 93.5323 105.683C93.3212 105.687 93.1309 105.728 93.0029 105.799C92.3889 106.138 91.8394 106.362 91.2684 106.387C90.6737 106.413 90.0953 106.225 89.4596 105.732C89.3263 105.629 89.1456 105.6 88.9411 105.61H88.9392C88.7693 105.617 88.5797 105.653 88.3825 105.699V104.77V104.77ZM88.3825 107.469C88.5549 107.435 88.7269 107.409 88.8983 107.401C89.304 107.383 89.6846 107.458 90.0144 107.713C90.4644 108.061 90.8513 108.196 91.2294 108.179C91.6311 108.162 92.0628 107.979 92.5656 107.701C92.8182 107.561 93.1585 107.482 93.5146 107.475C93.6618 107.472 93.8131 107.481 93.9634 107.503V108.426C93.8218 108.393 93.6742 108.379 93.5323 108.382C93.3212 108.386 93.1309 108.426 93.0029 108.497C92.3889 108.837 91.8394 109.061 91.2684 109.086C90.6737 109.111 90.0953 108.923 89.4596 108.431C89.3263 108.328 89.1456 108.298 88.9411 108.308H88.9392C88.7693 108.316 88.5797 108.351 88.3825 108.398V107.468V107.469ZM88.3825 110.167C88.5549 110.133 88.7269 110.108 88.8983 110.1C89.304 110.081 89.6846 110.156 90.0144 110.411C90.4644 110.76 90.8513 110.894 91.2294 110.877C91.6311 110.86 92.0628 110.677 92.5656 110.399C92.8182 110.26 93.1585 110.181 93.5146 110.174C93.6618 110.171 93.8131 110.18 93.9634 110.202V111.125C93.8218 111.092 93.6742 111.078 93.5323 111.08C93.3212 111.085 93.1309 111.125 93.0029 111.196C92.3889 111.535 91.8394 111.76 91.2684 111.784C90.6737 111.81 90.0953 111.622 89.4596 111.129C89.3263 111.026 89.1456 110.997 88.9411 111.007H88.9392C88.7693 111.015 88.5797 111.05 88.3825 111.096V110.167ZM88.3825 112.865C88.5549 112.831 88.7269 112.806 88.8983 112.798C89.304 112.779 89.6846 112.855 90.0144 113.11C90.4644 113.458 90.8513 113.592 91.2294 113.576C91.6311 113.558 92.0628 113.376 92.5656 113.098C92.8182 112.958 93.1585 112.879 93.5146 112.872C93.6618 112.869 93.8131 112.878 93.9634 112.9V113.823C93.8218 113.79 93.6742 113.776 93.5323 113.779C93.3212 113.783 93.1309 113.823 93.0029 113.894C92.3889 114.234 91.8394 114.458 91.2684 114.482C90.6737 114.508 90.0953 114.32 89.4596 113.828C89.3263 113.724 89.1456 113.695 88.9411 113.704H88.9392C88.7693 113.713 88.5797 113.748 88.3825 113.794V112.865V112.865ZM88.3825 115.045C88.5549 115.011 88.7269 114.986 88.8983 114.978C89.304 114.959 89.6846 115.034 90.0144 115.29C90.4644 115.638 90.8513 115.772 91.2294 115.756C91.6311 115.738 92.0628 115.555 92.5656 115.277C92.8182 115.138 93.1585 115.059 93.5146 115.052C93.6618 115.049 93.8131 115.058 93.9634 115.08V116.003C93.8218 115.97 93.6742 115.956 93.5323 115.958C93.3212 115.962 93.1309 116.003 93.0029 116.074C92.3889 116.413 91.8394 116.638 91.2684 116.662C90.6737 116.688 90.0953 116.5 89.4596 116.007C89.3263 115.904 89.1456 115.875 88.9411 115.885H88.9392C88.7693 115.893 88.5797 115.928 88.3825 115.974V115.045ZM94.9447 104.77C95.117 104.736 95.2891 104.711 95.4605 104.703C95.8659 104.684 96.2468 104.759 96.5763 105.015C97.0263 105.363 97.4131 105.497 97.7912 105.481C98.1929 105.463 98.6247 105.281 99.1274 105.002C99.38 104.863 99.7207 104.784 100.076 104.777C100.224 104.774 100.375 104.783 100.525 104.805V105.728C100.384 105.695 100.236 105.681 100.094 105.683C99.8831 105.687 99.6928 105.728 99.5648 105.799C98.9507 106.138 98.4012 106.362 97.8303 106.387C97.2355 106.413 96.6572 106.225 96.0211 105.732C95.8879 105.629 95.7072 105.6 95.5026 105.61H95.5007C95.3309 105.617 95.1412 105.653 94.9444 105.699V104.77L94.9447 104.77ZM94.9447 107.469C95.117 107.435 95.2891 107.409 95.4605 107.401C95.8659 107.383 96.2468 107.458 96.5763 107.713C97.0263 108.061 97.4131 108.196 97.7912 108.179C98.1929 108.162 98.6247 107.979 99.1274 107.701C99.38 107.561 99.7207 107.482 100.076 107.475C100.224 107.472 100.375 107.481 100.525 107.503V108.426C100.384 108.393 100.236 108.379 100.094 108.382C99.8831 108.386 99.6928 108.426 99.5648 108.497C98.9507 108.837 98.4012 109.061 97.8303 109.086C97.2355 109.111 96.6572 108.923 96.0211 108.431C95.8879 108.328 95.7072 108.298 95.5026 108.308H95.5007C95.3309 108.316 95.1412 108.351 94.9444 108.398V107.468L94.9447 107.469ZM94.9447 110.167C95.117 110.133 95.2891 110.108 95.4605 110.1C95.8659 110.081 96.2468 110.156 96.5763 110.411C97.0263 110.76 97.4131 110.894 97.7912 110.877C98.1929 110.86 98.6247 110.677 99.1274 110.399C99.38 110.26 99.7207 110.181 100.076 110.174C100.224 110.171 100.375 110.18 100.525 110.202V111.125C100.384 111.092 100.236 111.078 100.094 111.08C99.8831 111.085 99.6928 111.125 99.5648 111.196C98.9507 111.535 98.4012 111.76 97.8303 111.784C97.2355 111.81 96.6572 111.622 96.0211 111.129C95.8879 111.026 95.7072 110.997 95.5026 111.007H95.5007C95.3309 111.015 95.1412 111.05 94.9444 111.096V110.167H94.9447ZM87.9483 97.5495C88.5567 97.1828 89.1624 96.911 89.7513 96.7173L89.9239 97.9131C89.3651 98.1266 88.7938 98.4121 88.2223 98.7825L87.9483 97.5495ZM90.2782 96.5632C91.1398 96.3429 91.9537 96.2877 92.6728 96.3463L92.7748 97.3889C92.0616 97.3784 91.2725 97.4788 90.4471 97.7327L90.2782 96.5629V96.5632ZM93.2288 96.417C93.4368 96.4532 93.6343 96.4994 93.8196 96.5539C94.4987 96.7532 95.0724 96.9361 95.5748 97.1013L95.6644 98.0175C95.2757 97.8929 94.8465 97.7596 94.3639 97.618C94.0502 97.5259 93.7021 97.4574 93.3268 97.4202L93.2285 96.417H93.2288ZM96.1423 97.2901C96.8555 97.529 97.4218 97.7231 97.9722 97.8684L98.02 98.7905C97.5018 98.6328 96.9376 98.4356 96.2316 98.2022L96.1423 97.2901ZM98.528 97.9986C99.1869 98.1319 99.8858 98.1942 100.844 98.1793L100.963 99.2446C99.9931 99.2347 99.2945 99.1333 98.5776 98.9483L98.5283 97.9986H98.528ZM101.391 98.1638C102.027 98.1381 102.77 98.0841 103.669 98.0008L103.862 99.0964C102.92 99.1795 102.157 99.2269 101.512 99.2409L101.392 98.1638H101.391ZM88.8211 90.2732L89.1097 92.2724C88.367 92.5141 87.612 92.9059 86.8437 93.4746L86.795 99.9559C93.3476 99.9559 99.5325 99.9559 105.899 99.9559C105.147 96.7718 104.395 93.5878 103.642 90.4037C100.79 91.1187 98.0113 90.957 95.2187 89.1252C93.1684 87.7803 90.2639 88.2889 86.8703 89.9149L86.8595 91.3627C87.5231 90.8736 88.1767 90.5162 88.8211 90.2732ZM89.2079 92.953L89.3793 94.1401C88.7697 94.3236 88.1166 94.6295 87.4031 95.0957L87.1632 94.0158C87.9037 93.5044 88.5787 93.1631 89.2079 92.953ZM89.4739 94.7944L89.6567 96.0605C89.0467 96.2338 88.4176 96.4851 87.7887 96.8304L87.5389 95.7053C88.2223 95.276 88.866 94.9813 89.4739 94.7944ZM90.1867 95.9282L90.0029 94.6562C90.9194 94.46 91.751 94.5071 92.5113 94.6961L92.6182 95.7899C91.9026 95.7078 91.0713 95.7372 90.1864 95.9282H90.1867ZM89.9096 94.0084L89.7358 92.8042C90.6786 92.5876 91.521 92.6626 92.334 92.8789L92.4586 94.1543C91.6574 93.9262 90.8302 93.8292 89.9096 94.0087V94.0084ZM89.6378 92.1251L89.3455 90.1003C90.2636 89.8396 91.1634 89.8058 92.0476 89.9503L92.2566 92.0879C91.3989 91.9206 90.5267 91.9181 89.6378 92.1251ZM93.1765 95.8807L93.0763 94.8558C94.0077 95.131 94.7652 95.3932 95.4307 95.6257L95.5249 96.5884C94.959 96.3996 94.3013 96.1895 93.4985 95.961C93.3953 95.9319 93.288 95.9049 93.1768 95.8814L93.1765 95.8807ZM93.024 94.3214L92.8988 93.0423C93.8354 93.3249 94.5929 93.6048 95.2578 93.8577L95.3839 95.1468C94.7184 94.893 93.9622 94.609 93.024 94.3214ZM92.8185 92.2212L92.6077 90.0656C93.3488 90.249 94.079 90.5519 94.8009 90.9442C94.861 90.9771 94.9215 91.0087 94.9819 91.04L95.1976 93.2468C95.0646 93.1833 94.9323 93.116 94.8006 93.0444C94.1472 92.6892 93.4867 92.4075 92.8182 92.2212H92.8185ZM96.0924 96.7799L95.9988 95.8234C96.6761 96.0574 97.2721 96.2502 97.8948 96.3794L97.9462 97.3734C97.3769 97.2247 96.8075 97.0244 96.0924 96.7799ZM95.9539 95.3641L95.8277 94.075C96.5316 94.3422 97.1487 94.5641 97.808 94.7036L97.8731 95.9585C97.229 95.8277 96.6286 95.6182 95.9539 95.3638V95.3641ZM95.7713 93.4957L95.5578 91.3106C96.2548 91.6085 96.9569 91.8016 97.6636 91.9094L97.7727 94.0164C97.0967 93.92 96.4272 93.7517 95.7716 93.4954L95.7713 93.4957ZM98.5023 97.5005L98.449 96.4758C99.0927 96.5663 99.7941 96.5877 100.658 96.5199L100.787 97.6694C99.84 97.6856 99.1426 97.6257 98.5023 97.5005ZM98.4269 96.049L98.3622 94.7993C98.9737 94.8809 99.6456 94.8898 100.466 94.8015L100.603 96.0274C99.7492 96.1284 99.0549 96.1268 98.4269 96.049ZM98.3247 94.0793L98.2156 91.9767C98.8571 92.0359 99.5021 92.0297 100.151 91.9739L100.384 94.0666C99.6968 94.1283 99.0081 94.1379 98.3247 94.0793ZM101.334 97.6527L101.202 96.4675C101.822 96.3977 102.524 96.2865 103.339 96.1268L103.578 97.4853C102.698 97.5709 101.964 97.626 101.334 97.653V97.6527ZM101.144 95.9527L101.008 94.7324C101.596 94.6456 102.259 94.5136 103.022 94.3288L103.201 95.3464V95.5262C102.422 95.7193 101.745 95.8591 101.144 95.9527ZM100.927 94.0074L100.693 91.9162C101.305 91.8384 101.92 91.72 102.537 91.5737L102.9 93.6343C102.249 93.7933 101.589 93.9228 100.927 94.0077V94.0074ZM85.2859 97.5498C84.6774 97.1831 84.0718 96.9113 83.4829 96.7176L83.3103 97.9134C83.8691 98.1269 84.4403 98.4124 85.0119 98.7828L85.2859 97.5498ZM82.956 96.5636C82.0947 96.3432 81.2804 96.288 80.5617 96.3466L80.4597 97.3893C81.1729 97.3787 81.962 97.4791 82.7874 97.733L82.956 96.5632V96.5636ZM80.0056 96.4173C79.7977 96.4535 79.6002 96.4997 79.4149 96.5543C78.7358 96.7536 78.1624 96.9364 77.6597 97.1016L77.5701 98.0178C77.9588 97.8932 78.388 97.7599 78.8706 97.6183C79.1843 97.5263 79.5324 97.4578 79.9077 97.4206L80.0059 96.4173H80.0056ZM77.0922 97.2904C76.379 97.5293 75.8127 97.7234 75.2622 97.8687L75.2145 98.7908C75.7327 98.6331 76.2968 98.4359 77.0029 98.2025L77.0922 97.2904ZM74.7065 97.9989C74.0476 98.1322 73.3486 98.1945 72.3906 98.1796L72.2716 99.2449C73.2417 99.235 73.94 99.1336 74.6572 98.9486L74.7065 97.9989ZM71.8432 98.1641C71.2075 98.1384 70.4646 98.0845 69.5657 98.0011L69.373 99.0967C70.3149 99.1798 71.077 99.2272 71.7227 99.2412L71.8429 98.1641H71.8432ZM84.4134 90.2735L84.1248 92.2727C84.8678 92.5144 85.6225 92.9062 86.3911 93.475L86.4398 99.9562C79.8872 99.9562 73.7023 99.9562 67.336 99.9562C68.0882 96.7722 68.8405 93.5881 69.5924 90.404C72.4442 91.1191 75.2235 90.9573 78.0161 89.1255C80.0664 87.7806 82.9709 88.2893 86.3645 89.9152L86.3753 91.363C85.7114 90.8739 85.0581 90.5165 84.4134 90.2735ZM84.0266 92.9533L83.8552 94.1404C84.4648 94.3239 85.1179 94.6298 85.8314 95.096L86.0713 94.0161C85.3308 93.5047 84.6554 93.1635 84.0266 92.9533ZM83.7606 94.7947L83.5781 96.0608C84.188 96.2341 84.8172 96.4854 85.4458 96.8307L85.6959 95.7056C85.0125 95.2764 84.3687 94.9816 83.7606 94.7947ZM83.0481 95.9285L83.2319 94.6565C82.3154 94.4603 81.4838 94.5074 80.7232 94.6964L80.6162 95.7902C81.3319 95.7081 82.1632 95.7376 83.0481 95.9285ZM83.3252 94.0087L83.499 92.8045C82.5565 92.5879 81.7138 92.6629 80.9011 92.8792L80.7765 94.1547C81.5777 93.9265 82.4049 93.8295 83.3255 94.009L83.3252 94.0087ZM83.597 92.1254L83.8893 90.1006C82.9712 89.8399 82.0714 89.8061 81.1872 89.9506L80.9783 92.0883C81.8362 91.9209 82.7081 91.9184 83.5973 92.1254H83.597ZM80.058 95.8811L80.1584 94.8561C79.2271 95.1313 78.4696 95.3935 77.8041 95.626L77.7099 96.5887C78.2761 96.3999 78.9339 96.1898 79.7366 95.9613C79.8398 95.9322 79.9471 95.9052 80.0583 95.8817L80.058 95.8811ZM80.2105 94.3217L80.3357 93.0426C79.3988 93.3252 78.6416 93.6051 77.9767 93.858L77.8506 95.1471C78.516 94.8933 79.2723 94.6093 80.2105 94.3217ZM80.416 92.2215L80.6268 90.0659C79.8857 90.2494 79.1555 90.5522 78.4336 90.9446C78.3735 90.9774 78.313 91.009 78.2526 91.0403L78.0369 93.2471C78.1698 93.1836 78.3022 93.1163 78.4339 93.0447C79.0873 92.6895 79.7478 92.4078 80.4163 92.2215H80.416ZM77.1421 96.7802L77.2357 95.8237C76.5584 96.0577 75.9624 96.2505 75.3397 96.3798L75.288 97.3738C75.8573 97.225 76.4267 97.0248 77.1421 96.7802ZM77.2806 95.3644L77.4067 94.0753C76.7029 94.3425 76.0858 94.5644 75.4265 94.7039L75.3614 95.9589C76.0055 95.8281 76.6058 95.6185 77.2806 95.3641V95.3644ZM77.4632 93.496L77.6767 91.3109C76.9796 91.6088 76.2776 91.8019 75.5709 91.9097L75.4618 94.0167C76.1381 93.9203 76.8073 93.752 77.4632 93.4957V93.496ZM74.7322 97.5008L74.7855 96.4761C74.1418 96.5667 73.4404 96.588 72.5759 96.5202L72.4476 97.6698C73.3945 97.6859 74.0919 97.626 74.7322 97.5008ZM74.8075 96.0494L74.8723 94.7997C74.2608 94.8812 73.5888 94.8902 72.7681 94.8018L72.6311 96.0277C73.4853 96.1287 74.1796 96.1272 74.8075 96.0494ZM74.9098 94.0797L75.0189 91.977C74.3773 92.0362 73.7323 92.03 73.0839 91.9742L72.8502 94.0669C73.5377 94.1286 74.2264 94.1382 74.9098 94.0797ZM71.9006 97.653L72.0332 96.4678C71.4127 96.398 70.7107 96.2868 69.8961 96.1272L69.6572 97.4856C70.5368 97.5712 71.2708 97.6264 71.9009 97.6533L71.9006 97.653ZM72.0906 95.953L72.2269 94.7327C71.638 94.6459 70.9751 94.5139 70.2123 94.3292L70.0331 95.3467V95.5265C70.8123 95.7196 71.4896 95.8594 72.0906 95.953ZM72.3078 94.0077L72.5415 91.9165C71.9291 91.8387 71.3141 91.7203 70.697 91.5741L70.3344 93.6346C70.9853 93.7936 71.6452 93.9231 72.3078 94.0081V94.0077ZM107.738 103.555C107.506 104.107 107.252 104.648 106.978 105.177C107.015 105.105 107.052 105.033 107.088 104.96V104.806C106.938 104.784 106.787 104.775 106.64 104.778C106.283 104.785 105.943 104.864 105.691 105.003C105.188 105.282 104.756 105.464 104.354 105.482C103.976 105.498 103.589 105.364 103.139 105.015C102.81 104.76 102.429 104.685 102.024 104.704C101.852 104.712 101.68 104.737 101.508 104.771V105.7C101.705 105.654 101.894 105.619 102.064 105.611H102.066C102.271 105.601 102.452 105.631 102.585 105.734C103.221 106.225 103.799 106.414 104.394 106.389C104.965 106.364 105.514 106.14 106.128 105.8C106.256 105.729 106.446 105.689 106.658 105.685C106.675 105.684 106.691 105.684 106.708 105.684C106.289 106.447 105.828 107.184 105.328 107.891C104.975 108.061 104.657 108.167 104.355 108.18C103.977 108.196 103.59 108.062 103.14 107.714C102.81 107.459 102.43 107.383 102.024 107.402C101.853 107.41 101.681 107.435 101.508 107.47V108.399C101.705 108.352 101.895 108.317 102.065 108.309H102.067C102.271 108.3 102.452 108.329 102.585 108.432C103.221 108.924 103.8 109.112 104.394 109.087L104.42 109.086C104.504 108.983 104.586 108.88 104.668 108.776C104.209 109.362 103.722 109.925 103.208 110.464C103.186 110.447 103.163 110.43 103.14 110.412C102.811 110.157 102.43 110.082 102.024 110.101C101.853 110.109 101.681 110.134 101.509 110.168V111.097C101.706 111.051 101.895 111.015 102.065 111.008H102.067C102.26 110.999 102.432 111.024 102.563 111.114C102.621 111.058 102.678 111.001 102.736 110.945C100.948 112.713 98.8698 114.187 96.5793 115.291L96.5787 115.29C96.2493 115.035 95.8683 114.959 95.4629 114.979C95.2915 114.987 95.1195 115.012 94.9472 115.046V115.975C94.9955 115.963 95.0433 115.953 95.0907 115.943L95.118 115.932C92.5082 116.97 89.6623 117.541 86.6828 117.541C84.1205 117.541 81.6573 117.118 79.3579 116.34C79.528 116.262 79.7016 116.173 79.8807 116.074C80.0087 116.004 80.199 115.963 80.4101 115.959C80.5521 115.956 80.6996 115.97 80.8413 116.003V115.081C80.6909 115.059 80.5397 115.05 80.3925 115.052C80.0363 115.06 79.696 115.138 79.4434 115.278C78.9407 115.556 78.5089 115.739 78.1072 115.756C77.9879 115.762 77.8679 115.752 77.7452 115.725C77.2493 115.514 76.7627 115.286 76.2854 115.041C76.5519 115.178 76.8219 115.308 77.094 115.435C77.028 115.391 76.9607 115.343 76.8922 115.29C76.6812 115.127 76.4493 115.037 76.2032 114.998C75.2557 114.508 74.347 113.954 73.4825 113.34C73.6942 113.49 73.909 113.637 74.126 113.78V112.901C73.9757 112.879 73.8244 112.87 73.6772 112.873C73.4345 112.878 73.1992 112.916 72.9941 112.984C69.7716 110.567 67.2092 107.317 65.626 103.554H107.74L107.738 103.555ZM104.881 108.499C104.844 108.548 104.806 108.596 104.769 108.645C104.807 108.596 104.844 108.548 104.881 108.499Z" fill="#0367B0"/>
<path fill-rule="evenodd" clip-rule="evenodd" d="M96.1581 73.9258C101.268 76.2606 105.366 80.425 107.616 85.581H96.1581V73.9258ZM65.7422 85.581C67.9924 80.425 72.0908 76.2609 77.2006 73.9258V85.581H65.7422Z" fill="#00A859"/>
<path fill-rule="evenodd" clip-rule="evenodd" d="M82.8659 75.852C83.161 75.852 83.4 76.0913 83.4 76.3861C83.4 76.6811 83.161 76.9201 82.8659 76.9201C82.5709 76.9201 82.3319 76.6808 82.3319 76.3861C82.3319 76.091 82.5709 75.852 82.8659 75.852ZM90.4931 75.852C90.7881 75.852 91.0271 76.0913 91.0271 76.3861C91.0271 76.6811 90.7878 76.9201 90.4931 76.9201C90.198 76.9201 89.959 76.6808 89.959 76.3861C89.959 76.091 90.1983 75.852 90.4931 75.852ZM84.1621 73.5597C84.4572 73.5597 84.6962 73.7986 84.6962 74.0937C84.6962 74.3888 84.4569 74.6277 84.1621 74.6277C83.8671 74.6277 83.6281 74.3888 83.6281 74.0937C83.6281 73.7986 83.8674 73.5597 84.1621 73.5597ZM89.1969 73.5597C89.492 73.5597 89.7309 73.7986 89.7309 74.0937C89.7309 74.3888 89.4916 74.6277 89.1969 74.6277C88.9018 74.6277 88.6628 74.3888 88.6628 74.0937C88.6628 73.7986 88.9021 73.5597 89.1969 73.5597ZM93.5364 77.4845V83.8902C92.1122 82.5797 89.5741 81.7072 86.6795 81.7072C83.7849 81.7072 81.2468 82.5797 79.8223 83.8902V77.4982L84.4786 81.1233L86.6705 77.473L88.8624 81.1233L93.5361 77.4842L93.5364 77.4845ZM86.6795 71.8711C87.1035 71.8711 87.4475 72.2148 87.4475 72.6388C87.4475 73.0631 87.1038 73.4069 86.6795 73.4069C86.2555 73.4069 85.9118 73.0631 85.9118 72.6388C85.9118 72.2148 86.2555 71.8711 86.6795 71.8711Z" fill="#ED3237"/>
<path d="M57.6773 122.072C56.1183 120.421 54.6991 118.636 53.4385 116.737C52.1876 114.852 51.0926 112.856 50.1723 110.768L50 110.377L50.3803 110.181L57.5472 106.494L57.9823 106.27L58.173 106.721C58.8923 108.426 59.7614 110.054 60.7638 111.589C61.7739 113.136 62.9207 114.589 64.1871 115.931L64.4983 116.26L64.1676 116.572L58.3196 122.092L57.9898 122.403L57.6777 122.073L57.6773 122.072ZM54.1957 116.235C55.3438 117.964 56.626 119.597 58.0285 121.117L63.2167 116.221C62.0377 114.936 60.9618 113.552 60.0029 112.083C59.0616 110.641 58.2334 109.117 57.5314 107.523L51.1787 110.792C52.0419 112.693 53.0523 114.513 54.1957 116.236V116.235Z" fill="#0367B0"/>
<path d="M123.299 110.515C122.383 112.632 121.294 114.65 120.048 116.549C118.791 118.464 117.37 120.27 115.801 121.946L115.501 122.267L115.172 121.978L109.12 116.677L108.764 116.365L109.09 116.023C110.327 114.722 111.453 113.313 112.451 111.812C113.441 110.321 114.306 108.741 115.029 107.087L115.207 106.68L115.618 106.849L123.056 109.916L123.482 110.092L123.299 110.515H123.299ZM119.287 116.051C120.427 114.314 121.43 112.484 122.281 110.578L115.68 107.856C114.973 109.414 114.145 110.904 113.208 112.313C112.269 113.727 111.218 115.062 110.07 116.304L115.438 121.005C116.845 119.467 118.133 117.81 119.287 116.051Z" fill="#0367B0"/>
<path d="M57.6221 122.748C61.3123 126.571 65.7507 129.669 70.7027 131.805C75.602 133.919 81.0041 135.09 86.6804 135.09C92.3977 135.09 97.8344 133.903 102.759 131.763C107.733 129.601 112.187 126.466 115.881 122.599L110.433 117.827C107.414 120.928 103.794 123.44 99.761 125.174C95.7472 126.9 91.3249 127.856 86.6807 127.856C82.017 127.856 77.5751 126.89 73.5446 125.148C69.5001 123.4 65.8738 120.87 62.8561 117.751L57.6224 122.748H57.6221ZM70.3435 132.641C65.1383 130.396 60.4863 127.109 56.6492 123.044L56.3398 122.716L56.6668 122.404L62.5577 116.78L62.8877 116.465L63.2011 116.798C66.1983 119.982 69.8342 122.557 73.9032 124.316C77.8175 126.008 82.1375 126.946 86.6801 126.946C91.1988 126.946 95.4993 126.017 99.4012 124.339C103.457 122.596 107.083 120.044 110.076 116.888L110.376 116.572L110.704 116.859L116.833 122.228L117.186 122.537L116.867 122.879C113.026 126.992 108.355 130.32 103.121 132.595C98.0808 134.786 92.5213 136.001 86.6801 136.001C80.8776 136.001 75.3541 134.803 70.3432 132.642L70.3435 132.641Z" fill="#0367B0"/>
<path d="M86.6812 69.9844C93.508 69.9844 99.6887 72.7516 104.162 77.2256C108.636 81.6994 111.403 87.8803 111.403 94.7069C111.403 101.534 108.636 107.714 104.162 112.188C99.6887 116.662 93.5077 119.429 86.6812 119.429C79.8543 119.429 73.6737 116.662 69.1999 112.188C64.7262 107.714 61.959 101.534 61.959 94.7069C61.959 87.88 64.7262 81.6994 69.1999 77.2256C73.6737 72.7519 79.8546 69.9844 86.6812 69.9844ZM103.626 77.7618C99.2894 73.4254 93.2985 70.7431 86.6812 70.7431C80.0638 70.7431 74.0726 73.4254 69.7364 77.7618C65.4 82.0983 62.7177 88.0892 62.7177 94.7066C62.7177 101.324 65.4 107.315 69.7364 111.651C74.0729 115.988 80.0638 118.67 86.6812 118.67C93.2985 118.67 99.2898 115.988 103.626 111.651C107.962 107.315 110.645 101.324 110.645 94.7066C110.645 88.0892 107.962 82.098 103.626 77.7618Z" fill="#0367B0"/>
<path d="M65.3484 109.164L65.7712 109.705L64.3436 110.82C64.1173 110.997 63.9751 111.119 63.9187 111.184C63.8288 111.292 63.7857 111.415 63.7885 111.553C63.791 111.691 63.8517 111.836 63.9695 111.987C64.0894 112.14 64.2106 112.232 64.3334 112.262C64.4558 112.292 64.5683 112.279 64.6703 112.225C64.7732 112.171 64.9278 112.061 65.1367 111.898L66.5947 110.759L67.0172 111.3L65.633 112.382C65.3162 112.629 65.0816 112.789 64.9282 112.862C64.7744 112.935 64.6229 112.967 64.4713 112.959C64.3204 112.95 64.166 112.901 64.0104 112.812C63.8542 112.722 63.6933 112.57 63.5275 112.358C63.3276 112.103 63.2049 111.886 63.1602 111.708C63.115 111.53 63.1091 111.367 63.1419 111.218C63.1748 111.069 63.2328 110.943 63.3155 110.839C63.4386 110.685 63.6478 110.494 63.9428 110.263L65.3484 109.165V109.164ZM64.975 113.969L67.421 111.688L67.8767 112.176L67.1923 114.717L68.8257 113.194L69.2609 113.661L66.8148 115.942L66.3446 115.437L67.0054 112.948L65.4104 114.435L64.9753 113.969L64.975 113.969ZM67.4926 116.451L69.7305 113.965L70.2403 114.424L68.0025 116.91L67.4926 116.451ZM69.304 117.928L70.2868 114.508L70.8893 114.946L70.1297 117.454L72.2584 115.94L72.8473 116.368L69.8966 118.359L69.3037 117.928H69.304ZM71.3016 119.309L73.0239 116.442L75.1843 117.74L74.8926 118.225L73.3205 117.281L72.9387 117.916L74.4016 118.795L74.1115 119.278L72.6489 118.399L72.1803 119.179L73.8078 120.157L73.5174 120.64L71.3016 119.309ZM74.1518 120.943L75.4046 117.842L76.7445 118.383C77.0814 118.519 77.3145 118.646 77.4447 118.764C77.5749 118.881 77.6576 119.029 77.6917 119.209C77.7258 119.389 77.7057 119.57 77.6316 119.753C77.5377 119.985 77.3901 120.15 77.1902 120.246C76.9906 120.34 76.7433 120.352 76.451 120.279C76.5567 120.414 76.6354 120.547 76.6869 120.678C76.7383 120.808 76.791 121.024 76.8452 121.327L76.986 122.088L76.2247 121.78L76.0372 120.919C75.9709 120.612 75.9207 120.415 75.886 120.328C75.8513 120.241 75.8045 120.172 75.7465 120.121C75.6885 120.071 75.5866 120.016 75.44 119.957L75.3116 119.905L74.7884 121.2L74.1515 120.943L74.1518 120.943ZM75.5119 119.411L75.9824 119.601C76.2877 119.724 76.4835 119.789 76.57 119.794C76.6559 119.8 76.733 119.78 76.8015 119.735C76.8691 119.69 76.9224 119.622 76.9599 119.529C77.0024 119.424 77.0077 119.329 76.977 119.242C76.9463 119.155 76.8828 119.082 76.7864 119.022C76.7377 118.995 76.5843 118.929 76.3261 118.825L75.8302 118.624L75.5125 119.411H75.5119ZM77.6186 121.169L78.2787 121.292C78.2558 121.515 78.2896 121.693 78.3798 121.827C78.4694 121.96 78.6141 122.055 78.8149 122.113C79.0273 122.173 79.2002 122.175 79.3332 122.117C79.4665 122.06 79.5501 121.972 79.5842 121.854C79.6059 121.778 79.6019 121.707 79.5712 121.64C79.5418 121.574 79.4761 121.504 79.3738 121.433C79.3047 121.384 79.1413 121.287 78.8859 121.141C78.5571 120.953 78.3392 120.776 78.2332 120.609C78.0829 120.375 78.0444 120.131 78.1173 119.876C78.1644 119.712 78.2552 119.573 78.3903 119.457C78.5255 119.342 78.6928 119.272 78.8915 119.248C79.0908 119.226 79.3152 119.249 79.5663 119.321C79.9772 119.439 80.2599 119.616 80.4171 119.852C80.573 120.089 80.6142 120.356 80.5401 120.655L79.8725 120.494C79.8917 120.32 79.8651 120.184 79.7928 120.085C79.7209 119.986 79.592 119.91 79.406 119.857C79.2145 119.802 79.0527 119.797 78.9225 119.844C78.8382 119.873 78.7843 119.93 78.7604 120.013C78.7384 120.089 78.7523 120.164 78.8026 120.236C78.8658 120.329 79.0477 120.459 79.3471 120.625C79.6468 120.792 79.8619 120.937 79.9931 121.06C80.1235 121.184 80.2128 121.328 80.2605 121.491C80.3077 121.655 80.3021 121.838 80.2438 122.04C80.1911 122.225 80.0898 122.383 79.9397 122.513C79.7894 122.644 79.6081 122.721 79.3955 122.745C79.1826 122.769 78.9343 122.74 78.6504 122.658C78.2372 122.54 77.9468 122.355 77.7794 122.104C77.6117 121.853 77.5578 121.541 77.6183 121.169L77.6186 121.169ZM80.6294 123.117L81.2676 119.834L81.9411 119.965L81.3029 123.248L80.6294 123.117ZM82.8644 123.471L83.2032 120.713L82.2023 120.591L82.2712 120.029L84.9525 120.358L84.8834 120.92L83.8847 120.797L83.546 123.555L82.8641 123.471H82.8644ZM85.9849 123.706L86.0342 122.299L84.8577 120.32L85.662 120.348L86.4154 121.698L87.2448 120.403L88.0352 120.431L86.7186 122.327L86.6696 123.73L85.9852 123.706L85.9849 123.706ZM89.3485 122.049C89.2834 121.714 89.2793 121.424 89.337 121.177C89.3807 120.996 89.4548 120.825 89.5601 120.666C89.6658 120.508 89.7904 120.382 89.9342 120.287C90.1255 120.16 90.3564 120.07 90.6285 120.018C91.1204 119.922 91.5429 119.995 91.8962 120.238C92.2499 120.481 92.4786 120.869 92.5824 121.403C92.6856 121.934 92.6193 122.377 92.3844 122.733C92.1497 123.089 91.7871 123.315 91.2974 123.41C90.8009 123.507 90.3775 123.435 90.0266 123.194C89.6757 122.953 89.4498 122.571 89.3485 122.049ZM90.0378 121.892C90.11 122.263 90.2529 122.528 90.4639 122.686C90.6759 122.844 90.9162 122.897 91.1849 122.844C91.453 122.792 91.6551 122.655 91.7905 122.43C91.9253 122.206 91.956 121.904 91.8823 121.524C91.8091 121.147 91.6706 120.883 91.4672 120.73C91.2636 120.578 91.0225 120.529 90.7451 120.582C90.4667 120.636 90.2612 120.774 90.1276 120.995C89.9947 121.215 89.964 121.514 90.0375 121.892H90.0378ZM93.5281 122.912L92.6063 119.698L94.8472 119.055L95.0034 119.599L93.423 120.052L93.6412 120.813L95.0056 120.422L95.1618 120.966L93.7974 121.357L94.1892 122.723L93.5287 122.913L93.5281 122.912ZM97.8162 121.547L96.4143 118.54L97.036 118.25L98.1999 120.746L99.7465 120.025L99.9848 120.535L97.8162 121.547ZM103.158 118.682L102.518 119.067L101.872 118.568L100.707 119.268L100.858 120.064L100.234 120.439L99.6467 116.89L100.269 116.517L103.158 118.682L103.158 118.682ZM101.394 118.199L100.352 117.376L100.598 118.677L101.394 118.199ZM104.045 116.448L103.69 116.01L104.84 115.079L105.678 116.115C105.653 116.312 105.567 116.536 105.42 116.79C105.273 117.042 105.092 117.256 104.874 117.432C104.598 117.656 104.311 117.794 104.013 117.847C103.715 117.899 103.429 117.861 103.153 117.733C102.878 117.604 102.64 117.415 102.438 117.166C102.219 116.895 102.082 116.607 102.026 116.304C101.972 116 102.009 115.702 102.141 115.41C102.241 115.186 102.417 114.972 102.669 114.768C102.997 114.503 103.308 114.363 103.601 114.349C103.896 114.335 104.166 114.426 104.412 114.622L103.961 115.148C103.82 115.051 103.669 115.007 103.506 115.016C103.344 115.026 103.186 115.092 103.032 115.217C102.799 115.406 102.673 115.629 102.652 115.885C102.632 116.143 102.739 116.413 102.971 116.7C103.22 117.008 103.477 117.183 103.742 117.224C104.006 117.266 104.251 117.195 104.476 117.012C104.588 116.921 104.683 116.809 104.76 116.675C104.838 116.541 104.892 116.411 104.923 116.284L104.655 115.954L104.045 116.449L104.045 116.448ZM105.225 114.957C104.976 114.724 104.802 114.491 104.703 114.258C104.632 114.085 104.592 113.904 104.584 113.714C104.577 113.524 104.603 113.348 104.664 113.187C104.743 112.972 104.878 112.764 105.067 112.561C105.408 112.195 105.793 112.006 106.222 111.994C106.651 111.983 107.064 112.163 107.462 112.534C107.857 112.902 108.064 113.3 108.084 113.726C108.103 114.152 107.942 114.548 107.602 114.913C107.257 115.282 106.872 115.473 106.447 115.485C106.022 115.496 105.614 115.32 105.225 114.957ZM105.691 114.424C105.967 114.682 106.239 114.813 106.503 114.817C106.767 114.82 106.992 114.721 107.179 114.521C107.365 114.321 107.448 114.091 107.425 113.83C107.402 113.569 107.25 113.307 106.966 113.043C106.686 112.781 106.419 112.649 106.164 112.644C105.91 112.641 105.686 112.743 105.493 112.949C105.3 113.157 105.215 113.389 105.236 113.646C105.258 113.902 105.409 114.161 105.69 114.424H105.691ZM108.179 112.626L108.54 112.06C108.739 112.165 108.917 112.2 109.074 112.167C109.231 112.133 109.373 112.035 109.502 111.87C109.638 111.696 109.705 111.536 109.7 111.391C109.697 111.246 109.647 111.136 109.55 111.06C109.487 111.011 109.42 110.988 109.347 110.992C109.274 110.994 109.186 111.029 109.081 111.097C109.01 111.143 108.859 111.258 108.628 111.44C108.33 111.675 108.084 111.81 107.89 111.846C107.617 111.898 107.376 111.842 107.167 111.679C107.033 111.574 106.938 111.437 106.881 111.269C106.825 111.1 106.823 110.919 106.875 110.726C106.929 110.532 107.035 110.333 107.195 110.127C107.459 109.79 107.728 109.594 108.006 109.537C108.284 109.481 108.547 109.543 108.796 109.724L108.397 110.282C108.243 110.2 108.107 110.173 107.989 110.203C107.87 110.233 107.751 110.324 107.632 110.476C107.509 110.633 107.444 110.781 107.439 110.92C107.434 111.009 107.467 111.08 107.535 111.133C107.597 111.182 107.671 111.197 107.758 111.178C107.867 111.154 108.056 111.034 108.322 110.818C108.589 110.603 108.804 110.458 108.968 110.382C109.132 110.308 109.298 110.279 109.468 110.296C109.637 110.313 109.805 110.387 109.971 110.517C110.122 110.635 110.23 110.788 110.295 110.976C110.36 111.164 110.364 111.362 110.306 111.567C110.249 111.773 110.129 111.993 109.947 112.226C109.682 112.564 109.403 112.765 109.107 112.826C108.811 112.887 108.502 112.82 108.18 112.625L108.179 112.626Z" fill="#0367B0"/>
<path d="M86.6811 64.0003C95.1603 64.0003 102.837 67.4373 108.394 72.994C113.95 78.5507 117.387 86.2274 117.387 94.7066C117.387 103.186 113.95 110.863 108.394 116.419C102.837 121.976 95.1603 125.413 86.6811 125.413C78.202 125.413 70.5252 121.976 64.9685 116.419C59.4118 110.862 55.9749 103.185 55.9749 94.7063C55.9749 86.2274 59.4118 78.5507 64.9685 72.9937C70.5252 67.437 78.202 64 86.6811 64V64.0003ZM107.75 73.6378C102.358 68.2459 94.909 64.9109 86.6811 64.9109C78.453 64.9109 71.0041 68.2459 65.6123 73.6378C60.2205 79.0296 56.8855 86.4788 56.8855 94.7066C56.8855 102.935 60.2205 110.384 65.6123 115.775C71.0041 121.167 78.4533 124.503 86.6811 124.503C94.909 124.503 102.358 121.168 107.75 115.776C113.142 110.384 116.477 102.935 116.477 94.7066C116.477 86.4788 113.142 79.0296 107.75 73.6378Z" fill="#0367B0"/>
<path d="M62.5862 124.652L64.626 121.945L65.1724 122.357L63.1324 125.064L62.5859 124.652H62.5862ZM63.6435 125.469L65.6358 122.727L66.1748 123.118L65.9668 125.765L67.2974 123.934L67.8119 124.307L65.8196 127.05L65.2636 126.646L65.4576 124.054L64.1583 125.843L63.6438 125.469L63.6435 125.469ZM68.2028 124.522L69.2749 125.167C69.5163 125.312 69.6893 125.441 69.7943 125.554C69.9347 125.707 70.0271 125.883 70.0711 126.085C70.1161 126.286 70.1142 126.499 70.0665 126.722C70.0178 126.946 69.9121 127.194 69.7485 127.466C69.605 127.705 69.4512 127.894 69.2876 128.031C69.0883 128.199 68.8819 128.308 68.6683 128.357C68.5071 128.396 68.3233 128.39 68.1169 128.342C67.9629 128.305 67.7775 128.221 67.5603 128.091L66.4568 127.428L68.2028 124.523V124.522ZM68.4938 125.366L67.3377 127.29L67.7754 127.553C67.939 127.651 68.0627 127.714 68.1473 127.739C68.2561 127.772 68.3593 127.78 68.4563 127.761C68.5533 127.742 68.6606 127.678 68.7786 127.572C68.8958 127.466 69.0232 127.3 69.158 127.075C69.2928 126.851 69.3759 126.667 69.4091 126.523C69.4416 126.378 69.4425 126.251 69.4119 126.141C69.3809 126.031 69.3173 125.931 69.2219 125.841C69.1515 125.773 68.9962 125.668 68.757 125.524L68.4938 125.366V125.366ZM69.4246 129.096L70.8032 126L73.099 127.022L72.8656 127.546L71.195 126.802L70.8894 127.489L72.4437 128.181L72.2116 128.702L70.6572 128.01L70.2819 128.853L72.0114 129.623L71.7789 130.145L69.424 129.096H69.4246ZM72.3099 130.394L73.4136 127.189L75.7896 128.007L75.6027 128.55L73.8738 127.955L73.6293 128.665L75.2382 129.219L75.0523 129.758L73.4433 129.205L73.143 130.077L74.9332 130.694L74.7473 131.234L72.3102 130.395L72.3099 130.394ZM76.2638 128.16L77.4661 128.504C77.737 128.582 77.9375 128.662 78.068 128.744C78.2431 128.855 78.3783 129.002 78.4728 129.185C78.5683 129.368 78.6216 129.574 78.6334 129.802C78.6442 130.031 78.6064 130.298 78.5187 130.603C78.4418 130.871 78.3423 131.093 78.2196 131.268C78.0705 131.482 77.8994 131.64 77.7057 131.743C77.56 131.822 77.3812 131.864 77.1692 131.871C77.0111 131.875 76.8106 131.842 76.5666 131.773L75.3293 131.418L76.2638 128.16ZM76.7635 128.9L76.1448 131.057L76.6355 131.198C76.8189 131.251 76.9547 131.279 77.0427 131.281C77.1565 131.285 77.2581 131.266 77.3468 131.222C77.4357 131.179 77.5228 131.09 77.6093 130.957C77.6952 130.824 77.7751 130.631 77.8473 130.379C77.9196 130.127 77.9521 129.928 77.9468 129.78C77.9406 129.632 77.909 129.509 77.8507 129.411C77.7922 129.312 77.7051 129.232 77.5898 129.17C77.5042 129.123 77.3272 129.061 77.0585 128.984L76.7635 128.9V128.9ZM82.746 132.922L82.0068 132.831L81.8069 132.03L80.462 131.865L80.0907 132.596L79.3701 132.507L81.0937 129.304L81.8119 129.392L82.746 132.922ZM81.6584 131.437L81.3479 130.132L80.7401 131.325L81.6581 131.437H81.6584ZM83.1393 132.964L83.4347 129.588L84.0983 129.646L85.2832 132.021L85.4804 129.766L86.1139 129.822L85.8185 133.199L85.1338 133.139L83.9657 130.817L83.7729 133.02L83.1393 132.964ZM86.3736 129.767L87.6227 129.702C87.9041 129.687 88.1195 129.697 88.2702 129.733C88.472 129.781 88.6474 129.876 88.7965 130.018C88.9462 130.16 89.0636 130.337 89.1489 130.549C89.2338 130.762 89.2846 131.026 89.3014 131.344C89.3159 131.622 89.2939 131.865 89.235 132.07C89.1634 132.32 89.0534 132.526 88.9037 132.686C88.7915 132.809 88.6362 132.907 88.4379 132.982C88.2897 133.038 88.0895 133.072 87.8363 133.085L86.5509 133.153L86.3736 129.768V129.767ZM87.0868 130.305L87.2043 132.546L87.7141 132.519C87.9048 132.509 88.0421 132.492 88.1264 132.465C88.2352 132.432 88.325 132.381 88.3948 132.311C88.4645 132.24 88.5181 132.128 88.5566 131.974C88.5944 131.82 88.6071 131.612 88.5935 131.35C88.5798 131.089 88.5457 130.89 88.4924 130.752C88.4385 130.614 88.3681 130.508 88.2813 130.434C88.1936 130.36 88.0855 130.312 87.9562 130.292C87.8598 130.274 87.6723 130.274 87.3933 130.289L87.0868 130.305V130.305ZM91.2652 132.847L90.852 129.482L91.5311 129.399L91.9443 132.763L91.2652 132.847ZM92.557 132.677L91.9102 129.35L92.5639 129.223L94.3578 131.18L93.9258 128.958L94.5503 128.837L95.1971 132.164L94.5224 132.295L92.7597 130.386L93.1816 132.556L92.557 132.677V132.677ZM97.9405 131.466L96.9775 128.82L96.0328 129.163L95.8366 128.624L98.3676 127.703L98.5638 128.242L97.6212 128.585L98.5842 131.231L97.9408 131.466H97.9405ZM99.9263 130.773L98.7116 127.609L100.057 127.092C100.395 126.962 100.652 126.897 100.827 126.895C101.002 126.893 101.164 126.947 101.311 127.056C101.46 127.167 101.569 127.315 101.641 127.502C101.732 127.739 101.737 127.963 101.657 128.171C101.577 128.379 101.405 128.557 101.143 128.703C101.313 128.731 101.461 128.776 101.588 128.838C101.715 128.9 101.901 129.024 102.148 129.212L102.772 129.681L102.008 129.974L101.282 129.462C101.023 129.28 100.851 129.168 100.767 129.127C100.682 129.086 100.601 129.067 100.524 129.069C100.447 129.071 100.336 129.1 100.188 129.157L100.059 129.206L100.566 130.527L99.9269 130.773L99.9263 130.773ZM99.8646 128.701L100.337 128.52C100.644 128.402 100.83 128.316 100.897 128.261C100.963 128.206 101.006 128.138 101.025 128.058C101.043 127.979 101.035 127.891 100.998 127.796C100.957 127.689 100.896 127.615 100.814 127.571C100.732 127.527 100.636 127.517 100.525 127.539C100.471 127.552 100.314 127.608 100.055 127.708L99.5572 127.899L99.8652 128.701H99.8646ZM101.55 126.444L102.159 126.134L102.993 127.769C103.125 128.029 103.219 128.194 103.273 128.263C103.362 128.374 103.475 128.441 103.611 128.466C103.747 128.491 103.901 128.459 104.071 128.373C104.244 128.285 104.357 128.183 104.408 128.067C104.46 127.952 104.469 127.838 104.434 127.726C104.399 127.614 104.321 127.438 104.199 127.199L103.348 125.528L103.958 125.218L104.766 126.804C104.951 127.167 105.065 127.431 105.108 127.598C105.152 127.765 105.155 127.921 105.119 128.07C105.083 128.218 105.006 128.36 104.89 128.497C104.773 128.634 104.594 128.763 104.355 128.885C104.067 129.032 103.831 129.11 103.648 129.119C103.465 129.128 103.303 129.102 103.162 129.039C103.022 128.977 102.908 128.894 102.821 128.792C102.693 128.639 102.543 128.394 102.371 128.056L101.55 126.444ZM106.802 127.501L105.269 125.139L104.426 125.687L104.113 125.206L106.372 123.739L106.685 124.22L105.843 124.767L107.377 127.128L106.802 127.501L106.802 127.501ZM108.573 126.338L106.581 123.595L107.135 123.193L107.919 124.271L109.004 123.483L108.22 122.404L108.773 122.002L110.765 124.744L110.212 125.147L109.341 123.948L108.256 124.736L109.127 125.935L108.573 126.338H108.573Z" fill="#0367B0"/>
<path d="M145.476 95.216C144.576 95.216 143.76 95.042 143.028 94.694C142.308 94.334 141.732 93.788 141.3 93.056C140.88 92.324 140.67 91.394 140.67 90.266V82.4H142.578V90.284C142.578 91.388 142.842 92.198 143.37 92.714C143.898 93.23 144.612 93.488 145.512 93.488C146.4 93.488 147.108 93.23 147.636 92.714C148.164 92.198 148.428 91.388 148.428 90.284V82.4H150.336V90.266C150.336 91.394 150.114 92.324 149.67 93.056C149.238 93.788 148.65 94.334 147.906 94.694C147.174 95.042 146.364 95.216 145.476 95.216ZM152.712 95V86.072H154.404L154.548 87.638C154.824 87.086 155.226 86.654 155.754 86.342C156.294 86.018 156.912 85.856 157.608 85.856C158.688 85.856 159.534 86.192 160.146 86.864C160.77 87.536 161.082 88.538 161.082 89.87V95H159.192V90.068C159.192 88.34 158.484 87.476 157.068 87.476C156.36 87.476 155.772 87.728 155.304 88.232C154.848 88.736 154.62 89.456 154.62 90.392V95H152.712ZM164.409 84.38C164.049 84.38 163.749 84.272 163.509 84.056C163.281 83.828 163.167 83.546 163.167 83.21C163.167 82.874 163.281 82.598 163.509 82.382C163.749 82.154 164.049 82.04 164.409 82.04C164.769 82.04 165.063 82.154 165.291 82.382C165.531 82.598 165.651 82.874 165.651 83.21C165.651 83.546 165.531 83.828 165.291 84.056C165.063 84.272 164.769 84.38 164.409 84.38ZM163.455 95V86.072H165.363V95H163.455ZM170.384 95L167.036 86.072H169.034L171.518 93.182L174.002 86.072H175.982L172.652 95H170.384ZM181.269 95.216C180.393 95.216 179.613 95.024 178.929 94.64C178.257 94.244 177.729 93.698 177.345 93.002C176.961 92.306 176.769 91.496 176.769 90.572C176.769 89.636 176.955 88.814 177.327 88.106C177.711 87.398 178.239 86.846 178.911 86.45C179.595 86.054 180.387 85.856 181.287 85.856C182.163 85.856 182.925 86.054 183.573 86.45C184.221 86.834 184.725 87.35 185.085 87.998C185.445 88.646 185.625 89.36 185.625 90.14C185.625 90.26 185.619 90.392 185.607 90.536C185.607 90.668 185.601 90.818 185.589 90.986H178.641C178.701 91.85 178.983 92.51 179.487 92.966C180.003 93.41 180.597 93.632 181.269 93.632C181.809 93.632 182.259 93.512 182.619 93.272C182.991 93.02 183.267 92.684 183.447 92.264H185.355C185.115 93.104 184.635 93.806 183.915 94.37C183.207 94.934 182.325 95.216 181.269 95.216ZM181.269 87.422C180.633 87.422 180.069 87.614 179.577 87.998C179.085 88.37 178.785 88.934 178.677 89.69H183.717C183.681 88.994 183.435 88.442 182.979 88.034C182.523 87.626 181.953 87.422 181.269 87.422ZM187.604 95V86.072H189.314L189.476 87.764C189.788 87.176 190.22 86.714 190.772 86.378C191.336 86.03 192.014 85.856 192.806 85.856V87.854H192.284C191.756 87.854 191.282 87.944 190.862 88.124C190.454 88.292 190.124 88.586 189.872 89.006C189.632 89.414 189.512 89.984 189.512 90.716V95H187.604ZM198.006 95.216C196.878 95.216 195.948 94.94 195.216 94.388C194.484 93.836 194.064 93.104 193.956 92.192H195.882C195.978 92.6 196.206 92.954 196.566 93.254C196.926 93.542 197.4 93.686 197.988 93.686C198.564 93.686 198.984 93.566 199.248 93.326C199.512 93.086 199.644 92.81 199.644 92.498C199.644 92.042 199.458 91.736 199.086 91.58C198.726 91.412 198.222 91.262 197.574 91.13C197.07 91.022 196.566 90.878 196.062 90.698C195.57 90.518 195.156 90.266 194.82 89.942C194.496 89.606 194.334 89.156 194.334 88.592C194.334 87.812 194.634 87.164 195.234 86.648C195.834 86.12 196.674 85.856 197.754 85.856C198.75 85.856 199.554 86.096 200.166 86.576C200.79 87.056 201.156 87.734 201.264 88.61H199.428C199.368 88.226 199.188 87.926 198.888 87.71C198.6 87.494 198.21 87.386 197.718 87.386C197.238 87.386 196.866 87.488 196.602 87.692C196.338 87.884 196.206 88.136 196.206 88.448C196.206 88.76 196.386 89.006 196.746 89.186C197.118 89.366 197.604 89.528 198.204 89.672C198.804 89.804 199.356 89.96 199.86 90.14C200.376 90.308 200.79 90.56 201.102 90.896C201.414 91.232 201.57 91.724 201.57 92.372C201.582 93.188 201.264 93.866 200.616 94.406C199.98 94.946 199.11 95.216 198.006 95.216ZM204.733 84.38C204.373 84.38 204.073 84.272 203.833 84.056C203.605 83.828 203.491 83.546 203.491 83.21C203.491 82.874 203.605 82.598 203.833 82.382C204.073 82.154 204.373 82.04 204.733 82.04C205.093 82.04 205.387 82.154 205.615 82.382C205.855 82.598 205.975 82.874 205.975 83.21C205.975 83.546 205.855 83.828 205.615 84.056C205.387 84.272 205.093 84.38 204.733 84.38ZM203.779 95V86.072H205.687V95H203.779ZM211.95 95C211.074 95 210.378 94.79 209.862 94.37C209.346 93.938 209.088 93.176 209.088 92.084V87.674H207.558V86.072H209.088L209.322 83.804H210.996V86.072H213.516V87.674H210.996V92.084C210.996 92.576 211.098 92.918 211.302 93.11C211.518 93.29 211.884 93.38 212.4 93.38H213.426V95H211.95ZM216.527 98.96L218.669 94.262H218.147L214.619 86.072H216.689L219.425 92.678L222.287 86.072H224.303L218.543 98.96H216.527ZM144.864 118.216C144.012 118.216 143.244 118.024 142.56 117.64C141.888 117.244 141.354 116.698 140.958 116.002C140.562 115.294 140.364 114.472 140.364 113.536C140.364 112.6 140.562 111.784 140.958 111.088C141.366 110.38 141.912 109.834 142.596 109.45C143.28 109.054 144.042 108.856 144.882 108.856C145.734 108.856 146.496 109.054 147.168 109.45C147.852 109.834 148.392 110.38 148.788 111.088C149.196 111.784 149.4 112.6 149.4 113.536C149.4 114.472 149.196 115.294 148.788 116.002C148.392 116.698 147.852 117.244 147.168 117.64C146.484 118.024 145.716 118.216 144.864 118.216ZM144.864 116.578C145.32 116.578 145.74 116.464 146.124 116.236C146.52 116.008 146.838 115.672 147.078 115.228C147.318 114.772 147.438 114.208 147.438 113.536C147.438 112.864 147.318 112.306 147.078 111.862C146.85 111.406 146.538 111.064 146.142 110.836C145.758 110.608 145.338 110.494 144.882 110.494C144.426 110.494 144 110.608 143.604 110.836C143.22 111.064 142.908 111.406 142.668 111.862C142.428 112.306 142.308 112.864 142.308 113.536C142.308 114.208 142.428 114.772 142.668 115.228C142.908 115.672 143.22 116.008 143.604 116.236C143.988 116.464 144.408 116.578 144.864 116.578ZM151.914 118V110.674H150.636V109.072H151.914V107.776C151.914 106.804 152.154 106.108 152.634 105.688C153.126 105.256 153.816 105.04 154.704 105.04H155.64V106.66H154.992C154.572 106.66 154.272 106.75 154.092 106.93C153.912 107.098 153.822 107.386 153.822 107.794V109.072H155.874V110.674H153.822V118H151.914ZM162.294 118V105.4H164.202V116.488H169.926V118H162.294ZM174.931 118.216C174.175 118.216 173.551 118.09 173.059 117.838C172.567 117.586 172.201 117.256 171.961 116.848C171.721 116.428 171.601 115.972 171.601 115.48C171.601 114.616 171.937 113.932 172.609 113.428C173.281 112.924 174.241 112.672 175.489 112.672H177.829V112.51C177.829 111.814 177.637 111.292 177.253 110.944C176.881 110.596 176.395 110.422 175.795 110.422C175.267 110.422 174.805 110.554 174.409 110.818C174.025 111.07 173.791 111.448 173.707 111.952H171.799C171.859 111.304 172.075 110.752 172.447 110.296C172.831 109.828 173.311 109.474 173.887 109.234C174.475 108.982 175.117 108.856 175.813 108.856C177.061 108.856 178.027 109.186 178.711 109.846C179.395 110.494 179.737 111.382 179.737 112.51V118H178.081L177.919 116.47C177.667 116.962 177.301 117.376 176.821 117.712C176.341 118.048 175.711 118.216 174.931 118.216ZM175.309 116.668C175.825 116.668 176.257 116.548 176.605 116.308C176.965 116.056 177.241 115.726 177.433 115.318C177.637 114.91 177.763 114.46 177.811 113.968H175.687C174.931 113.968 174.391 114.1 174.067 114.364C173.755 114.628 173.599 114.958 173.599 115.354C173.599 115.762 173.749 116.086 174.049 116.326C174.361 116.554 174.781 116.668 175.309 116.668ZM185.616 115.264C185.148 115.264 184.716 115.21 184.32 115.102L183.546 115.858C183.678 115.942 183.84 116.014 184.032 116.074C184.224 116.134 184.494 116.188 184.842 116.236C185.19 116.284 185.664 116.332 186.264 116.38C187.452 116.488 188.31 116.776 188.838 117.244C189.366 117.7 189.63 118.312 189.63 119.08C189.63 119.608 189.486 120.106 189.198 120.574C188.922 121.054 188.484 121.438 187.884 121.726C187.296 122.026 186.54 122.176 185.616 122.176C184.368 122.176 183.354 121.936 182.574 121.456C181.806 120.988 181.422 120.274 181.422 119.314C181.422 118.942 181.518 118.57 181.71 118.198C181.914 117.838 182.232 117.496 182.664 117.172C182.412 117.064 182.19 116.95 181.998 116.83C181.818 116.698 181.656 116.566 181.512 116.434V116.002L183.06 114.418C182.364 113.818 182.016 113.032 182.016 112.06C182.016 111.472 182.154 110.938 182.43 110.458C182.718 109.966 183.132 109.576 183.672 109.288C184.212 109 184.86 108.856 185.616 108.856C186.12 108.856 186.588 108.928 187.02 109.072H190.35V110.332L188.766 110.422C189.054 110.914 189.198 111.46 189.198 112.06C189.198 112.66 189.054 113.2 188.766 113.68C188.49 114.16 188.082 114.544 187.542 114.832C187.014 115.12 186.372 115.264 185.616 115.264ZM185.616 113.77C186.168 113.77 186.612 113.626 186.948 113.338C187.296 113.038 187.47 112.618 187.47 112.078C187.47 111.526 187.296 111.106 186.948 110.818C186.612 110.53 186.168 110.386 185.616 110.386C185.052 110.386 184.596 110.53 184.248 110.818C183.912 111.106 183.744 111.526 183.744 112.078C183.744 112.618 183.912 113.038 184.248 113.338C184.596 113.626 185.052 113.77 185.616 113.77ZM183.222 119.134C183.222 119.65 183.45 120.034 183.906 120.286C184.362 120.55 184.932 120.682 185.616 120.682C186.276 120.682 186.81 120.538 187.218 120.25C187.626 119.974 187.83 119.602 187.83 119.134C187.83 118.786 187.692 118.486 187.416 118.234C187.14 117.994 186.618 117.844 185.85 117.784C185.274 117.748 184.764 117.694 184.32 117.622C183.9 117.85 183.612 118.096 183.456 118.36C183.3 118.624 183.222 118.882 183.222 119.134ZM195.876 118.216C195.024 118.216 194.256 118.024 193.572 117.64C192.9 117.244 192.366 116.698 191.97 116.002C191.574 115.294 191.376 114.472 191.376 113.536C191.376 112.6 191.574 111.784 191.97 111.088C192.378 110.38 192.924 109.834 193.608 109.45C194.292 109.054 195.054 108.856 195.894 108.856C196.746 108.856 197.508 109.054 198.18 109.45C198.864 109.834 199.404 110.38 199.8 111.088C200.208 111.784 200.412 112.6 200.412 113.536C200.412 114.472 200.208 115.294 199.8 116.002C199.404 116.698 198.864 117.244 198.18 117.64C197.496 118.024 196.728 118.216 195.876 118.216ZM195.876 116.578C196.332 116.578 196.752 116.464 197.136 116.236C197.532 116.008 197.85 115.672 198.09 115.228C198.33 114.772 198.45 114.208 198.45 113.536C198.45 112.864 198.33 112.306 198.09 111.862C197.862 111.406 197.55 111.064 197.154 110.836C196.77 110.608 196.35 110.494 195.894 110.494C195.438 110.494 195.012 110.608 194.616 110.836C194.232 111.064 193.92 111.406 193.68 111.862C193.44 112.306 193.32 112.864 193.32 113.536C193.32 114.208 193.44 114.772 193.68 115.228C193.92 115.672 194.232 116.008 194.616 116.236C195 116.464 195.42 116.578 195.876 116.578ZM206.04 118.216C204.912 118.216 203.982 117.94 203.25 117.388C202.518 116.836 202.098 116.104 201.99 115.192H203.916C204.012 115.6 204.24 115.954 204.6 116.254C204.96 116.542 205.434 116.686 206.022 116.686C206.598 116.686 207.018 116.566 207.282 116.326C207.546 116.086 207.678 115.81 207.678 115.498C207.678 115.042 207.492 114.736 207.12 114.58C206.76 114.412 206.256 114.262 205.608 114.13C205.104 114.022 204.6 113.878 204.096 113.698C203.604 113.518 203.19 113.266 202.854 112.942C202.53 112.606 202.368 112.156 202.368 111.592C202.368 110.812 202.668 110.164 203.268 109.648C203.868 109.12 204.708 108.856 205.788 108.856C206.784 108.856 207.588 109.096 208.2 109.576C208.824 110.056 209.19 110.734 209.298 111.61H207.462C207.402 111.226 207.222 110.926 206.922 110.71C206.634 110.494 206.244 110.386 205.752 110.386C205.272 110.386 204.9 110.488 204.636 110.692C204.372 110.884 204.24 111.136 204.24 111.448C204.24 111.76 204.42 112.006 204.78 112.186C205.152 112.366 205.638 112.528 206.238 112.672C206.838 112.804 207.39 112.96 207.894 113.14C208.41 113.308 208.824 113.56 209.136 113.896C209.448 114.232 209.604 114.724 209.604 115.372C209.616 116.188 209.298 116.866 208.65 117.406C208.014 117.946 207.144 118.216 206.04 118.216Z" fill="#05090D"/>
</svg>
