<svg width="276" height="200" viewBox="0 0 276 200" fill="none" xmlns="http://www.w3.org/2000/svg">
<rect x="0.5" y="0.5" width="275" height="199" rx="23.5" fill="white" stroke="#C5C9D9"/>
<path d="M121.516 95V82.4H123.766L128.032 90.788L132.28 82.4H134.53V95H132.622V85.694L128.77 93.2H127.294L123.424 85.712V95H121.516ZM141.249 95.216C140.373 95.216 139.587 95.018 138.891 94.622C138.207 94.226 137.667 93.68 137.271 92.984C136.887 92.276 136.695 91.46 136.695 90.536C136.695 89.612 136.887 88.802 137.271 88.106C137.667 87.398 138.207 86.846 138.891 86.45C139.587 86.054 140.373 85.856 141.249 85.856C142.353 85.856 143.277 86.144 144.021 86.72C144.777 87.296 145.263 88.076 145.479 89.06H143.481C143.361 88.568 143.097 88.184 142.689 87.908C142.281 87.632 141.801 87.494 141.249 87.494C140.781 87.494 140.349 87.614 139.953 87.854C139.557 88.082 139.239 88.424 138.999 88.88C138.759 89.324 138.639 89.876 138.639 90.536C138.639 91.196 138.759 91.754 138.999 92.21C139.239 92.654 139.557 92.996 139.953 93.236C140.349 93.476 140.781 93.596 141.249 93.596C141.801 93.596 142.281 93.458 142.689 93.182C143.097 92.906 143.361 92.516 143.481 92.012H145.479C145.275 92.972 144.795 93.746 144.039 94.334C143.283 94.922 142.353 95.216 141.249 95.216ZM147.548 95V82.04H149.456V89.762L152.876 86.072H155.162L151.364 90.122L155.72 95H153.308L149.456 90.428V95H147.548ZM160.689 95.216C159.813 95.216 159.033 95.024 158.349 94.64C157.677 94.244 157.149 93.698 156.765 93.002C156.381 92.306 156.189 91.496 156.189 90.572C156.189 89.636 156.375 88.814 156.747 88.106C157.131 87.398 157.659 86.846 158.331 86.45C159.015 86.054 159.807 85.856 160.707 85.856C161.583 85.856 162.345 86.054 162.993 86.45C163.641 86.834 164.145 87.35 164.505 87.998C164.865 88.646 165.045 89.36 165.045 90.14C165.045 90.26 165.039 90.392 165.027 90.536C165.027 90.668 165.021 90.818 165.009 90.986H158.061C158.121 91.85 158.403 92.51 158.907 92.966C159.423 93.41 160.017 93.632 160.689 93.632C161.229 93.632 161.679 93.512 162.039 93.272C162.411 93.02 162.687 92.684 162.867 92.264H164.775C164.535 93.104 164.055 93.806 163.335 94.37C162.627 94.934 161.745 95.216 160.689 95.216ZM160.689 87.422C160.053 87.422 159.489 87.614 158.997 87.998C158.505 88.37 158.205 88.934 158.097 89.69H163.137C163.101 88.994 162.855 88.442 162.399 88.034C161.943 87.626 161.373 87.422 160.689 87.422ZM167.024 95V86.072H168.716L168.86 87.638C169.136 87.086 169.538 86.654 170.066 86.342C170.606 86.018 171.224 85.856 171.92 85.856C173 85.856 173.846 86.192 174.458 86.864C175.082 87.536 175.394 88.538 175.394 89.87V95H173.504V90.068C173.504 88.34 172.796 87.476 171.38 87.476C170.672 87.476 170.084 87.728 169.616 88.232C169.16 88.736 168.932 89.456 168.932 90.392V95H167.024ZM179.424 95L176.796 86.072H178.704L180.432 92.804L182.376 86.072H184.5L186.444 92.804L188.172 86.072H190.08L187.452 95H185.49L183.438 87.98L181.386 95H179.424ZM192.731 84.38C192.371 84.38 192.071 84.272 191.831 84.056C191.603 83.828 191.489 83.546 191.489 83.21C191.489 82.874 191.603 82.598 191.831 82.382C192.071 82.154 192.371 82.04 192.731 82.04C193.091 82.04 193.385 82.154 193.613 82.382C193.853 82.598 193.973 82.874 193.973 83.21C193.973 83.546 193.853 83.828 193.613 84.056C193.385 84.272 193.091 84.38 192.731 84.38ZM191.777 95V86.072H193.685V95H191.777ZM196.204 95V86.072H197.896L198.04 87.638C198.316 87.086 198.718 86.654 199.246 86.342C199.786 86.018 200.404 85.856 201.1 85.856C202.18 85.856 203.026 86.192 203.638 86.864C204.262 87.536 204.574 88.538 204.574 89.87V95H202.684V90.068C202.684 88.34 201.976 87.476 200.56 87.476C199.852 87.476 199.264 87.728 198.796 88.232C198.34 88.736 198.112 89.456 198.112 90.392V95H196.204ZM121.516 118V105.4H123.424V118H121.516ZM125.909 118V109.072H127.601L127.745 110.638C128.021 110.086 128.423 109.654 128.951 109.342C129.491 109.018 130.109 108.856 130.805 108.856C131.885 108.856 132.731 109.192 133.343 109.864C133.967 110.536 134.279 111.538 134.279 112.87V118H132.389V113.068C132.389 111.34 131.681 110.476 130.265 110.476C129.557 110.476 128.969 110.728 128.501 111.232C128.045 111.736 127.817 112.456 127.817 113.392V118H125.909ZM140.27 118C139.394 118 138.698 117.79 138.182 117.37C137.666 116.938 137.408 116.176 137.408 115.084V110.674H135.878V109.072H137.408L137.642 106.804H139.316V109.072H141.836V110.674H139.316V115.084C139.316 115.576 139.418 115.918 139.622 116.11C139.838 116.29 140.204 116.38 140.72 116.38H141.746V118H140.27ZM147.751 118.216C146.875 118.216 146.095 118.024 145.411 117.64C144.739 117.244 144.211 116.698 143.827 116.002C143.443 115.306 143.251 114.496 143.251 113.572C143.251 112.636 143.437 111.814 143.809 111.106C144.193 110.398 144.721 109.846 145.393 109.45C146.077 109.054 146.869 108.856 147.769 108.856C148.645 108.856 149.407 109.054 150.055 109.45C150.703 109.834 151.207 110.35 151.567 110.998C151.927 111.646 152.107 112.36 152.107 113.14C152.107 113.26 152.101 113.392 152.089 113.536C152.089 113.668 152.083 113.818 152.071 113.986H145.123C145.183 114.85 145.465 115.51 145.969 115.966C146.485 116.41 147.079 116.632 147.751 116.632C148.291 116.632 148.741 116.512 149.101 116.272C149.473 116.02 149.749 115.684 149.929 115.264H151.837C151.597 116.104 151.117 116.806 150.397 117.37C149.689 117.934 148.807 118.216 147.751 118.216ZM147.751 110.422C147.115 110.422 146.551 110.614 146.059 110.998C145.567 111.37 145.267 111.934 145.159 112.69H150.199C150.163 111.994 149.917 111.442 149.461 111.034C149.005 110.626 148.435 110.422 147.751 110.422ZM154.087 118V109.072H155.797L155.959 110.764C156.271 110.176 156.703 109.714 157.255 109.378C157.819 109.03 158.497 108.856 159.289 108.856V110.854H158.767C158.239 110.854 157.765 110.944 157.345 111.124C156.937 111.292 156.607 111.586 156.355 112.006C156.115 112.414 155.995 112.984 155.995 113.716V118H154.087ZM160.925 118V109.072H162.617L162.761 110.638C163.037 110.086 163.439 109.654 163.967 109.342C164.507 109.018 165.125 108.856 165.821 108.856C166.901 108.856 167.747 109.192 168.359 109.864C168.983 110.536 169.295 111.538 169.295 112.87V118H167.405V113.068C167.405 111.34 166.697 110.476 165.281 110.476C164.573 110.476 163.985 110.728 163.517 111.232C163.061 111.736 162.833 112.456 162.833 113.392V118H160.925ZM174.566 118.216C173.81 118.216 173.186 118.09 172.694 117.838C172.202 117.586 171.836 117.256 171.596 116.848C171.356 116.428 171.236 115.972 171.236 115.48C171.236 114.616 171.572 113.932 172.244 113.428C172.916 112.924 173.876 112.672 175.124 112.672H177.464V112.51C177.464 111.814 177.272 111.292 176.888 110.944C176.516 110.596 176.03 110.422 175.43 110.422C174.902 110.422 174.44 110.554 174.044 110.818C173.66 111.07 173.426 111.448 173.342 111.952H171.434C171.494 111.304 171.71 110.752 172.082 110.296C172.466 109.828 172.946 109.474 173.522 109.234C174.11 108.982 174.752 108.856 175.448 108.856C176.696 108.856 177.662 109.186 178.346 109.846C179.03 110.494 179.372 111.382 179.372 112.51V118H177.716L177.554 116.47C177.302 116.962 176.936 117.376 176.456 117.712C175.976 118.048 175.346 118.216 174.566 118.216ZM174.944 116.668C175.46 116.668 175.892 116.548 176.24 116.308C176.6 116.056 176.876 115.726 177.068 115.318C177.272 114.91 177.398 114.46 177.446 113.968H175.322C174.566 113.968 174.026 114.1 173.702 114.364C173.39 114.628 173.234 114.958 173.234 115.354C173.234 115.762 173.384 116.086 173.684 116.326C173.996 116.554 174.416 116.668 174.944 116.668ZM185.165 118C184.289 118 183.593 117.79 183.077 117.37C182.561 116.938 182.303 116.176 182.303 115.084V110.674H180.773V109.072H182.303L182.537 106.804H184.211V109.072H186.731V110.674H184.211V115.084C184.211 115.576 184.313 115.918 184.517 116.11C184.733 116.29 185.099 116.38 185.615 116.38H186.641V118H185.165ZM189.778 107.38C189.418 107.38 189.118 107.272 188.878 107.056C188.65 106.828 188.536 106.546 188.536 106.21C188.536 105.874 188.65 105.598 188.878 105.382C189.118 105.154 189.418 105.04 189.778 105.04C190.138 105.04 190.432 105.154 190.66 105.382C190.9 105.598 191.02 105.874 191.02 106.21C191.02 106.546 190.9 106.828 190.66 107.056C190.432 107.272 190.138 107.38 189.778 107.38ZM188.824 118V109.072H190.732V118H188.824ZM197.427 118.216C196.575 118.216 195.807 118.024 195.123 117.64C194.451 117.244 193.917 116.698 193.521 116.002C193.125 115.294 192.927 114.472 192.927 113.536C192.927 112.6 193.125 111.784 193.521 111.088C193.929 110.38 194.475 109.834 195.159 109.45C195.843 109.054 196.605 108.856 197.445 108.856C198.297 108.856 199.059 109.054 199.731 109.45C200.415 109.834 200.955 110.38 201.351 111.088C201.759 111.784 201.963 112.6 201.963 113.536C201.963 114.472 201.759 115.294 201.351 116.002C200.955 116.698 200.415 117.244 199.731 117.64C199.047 118.024 198.279 118.216 197.427 118.216ZM197.427 116.578C197.883 116.578 198.303 116.464 198.687 116.236C199.083 116.008 199.401 115.672 199.641 115.228C199.881 114.772 200.001 114.208 200.001 113.536C200.001 112.864 199.881 112.306 199.641 111.862C199.413 111.406 199.101 111.064 198.705 110.836C198.321 110.608 197.901 110.494 197.445 110.494C196.989 110.494 196.563 110.608 196.167 110.836C195.783 111.064 195.471 111.406 195.231 111.862C194.991 112.306 194.871 112.864 194.871 113.536C194.871 114.208 194.991 114.772 195.231 115.228C195.471 115.672 195.783 116.008 196.167 116.236C196.551 116.464 196.971 116.578 197.427 116.578ZM204.026 118V109.072H205.718L205.862 110.638C206.138 110.086 206.54 109.654 207.068 109.342C207.608 109.018 208.226 108.856 208.922 108.856C210.002 108.856 210.848 109.192 211.46 109.864C212.084 110.536 212.396 111.538 212.396 112.87V118H210.506V113.068C210.506 111.34 209.798 110.476 208.382 110.476C207.674 110.476 207.086 110.728 206.618 111.232C206.162 111.736 205.934 112.456 205.934 113.392V118H204.026ZM217.668 118.216C216.912 118.216 216.288 118.09 215.796 117.838C215.304 117.586 214.938 117.256 214.698 116.848C214.458 116.428 214.338 115.972 214.338 115.48C214.338 114.616 214.674 113.932 215.346 113.428C216.018 112.924 216.978 112.672 218.226 112.672H220.566V112.51C220.566 111.814 220.374 111.292 219.99 110.944C219.618 110.596 219.132 110.422 218.532 110.422C218.004 110.422 217.542 110.554 217.146 110.818C216.762 111.07 216.528 111.448 216.444 111.952H214.536C214.596 111.304 214.812 110.752 215.184 110.296C215.568 109.828 216.048 109.474 216.624 109.234C217.212 108.982 217.854 108.856 218.55 108.856C219.798 108.856 220.764 109.186 221.448 109.846C222.132 110.494 222.474 111.382 222.474 112.51V118H220.818L220.656 116.47C220.404 116.962 220.038 117.376 219.558 117.712C219.078 118.048 218.448 118.216 217.668 118.216ZM218.046 116.668C218.562 116.668 218.994 116.548 219.342 116.308C219.702 116.056 219.978 115.726 220.17 115.318C220.374 114.91 220.5 114.46 220.548 113.968H218.424C217.668 113.968 217.128 114.1 216.804 114.364C216.492 114.628 216.336 114.958 216.336 115.354C216.336 115.762 216.486 116.086 216.786 116.326C217.098 116.554 217.518 116.668 218.046 116.668ZM224.698 118V105.04H226.606V118H224.698Z" fill="#05090D"/>
<path fill-rule="evenodd" clip-rule="evenodd" d="M83.6742 91.3698C83.5666 90.7249 83.876 89.4997 84.0922 88.9458C84.3242 88.3515 84.861 87.5528 85.56 87.5694C85.8738 87.2879 86.8717 87.5173 87.1647 87.7102C88.2694 88.4373 88.1345 91.1012 88.1486 92.4344C88.2029 97.539 88.0901 102.592 88.1269 107.664C88.1451 110.178 88.2097 112.787 88.1324 115.292L88.1288 126.817C88.776 126.944 93.6337 126.783 93.9201 126.849C94.1073 126.892 93.9801 126.817 94.0988 126.939L94.1105 134.549L87.815 134.555L81.4744 134.557L79.8525 134.563L60.9302 134.571L59.0271 134.573L57.373 134.559L57.3224 126.808L57.6255 126.809L59.4045 126.824L60.9993 126.83L63.0918 126.822L63.1385 124.192L63.1429 116.373C63.1602 115.654 63.0448 113.497 63.1805 112.979C63.0698 112.764 63.1204 96.5172 63.0637 93.4619L63.1599 90.842C63.1625 90.8182 63.172 90.8123 63.1806 90.7989C63.1037 90.3861 63.3153 89.61 63.4521 89.2118C64.2232 86.9671 66.1703 87.2982 66.8146 87.8768C67.8851 88.8382 67.5974 92.5439 67.6195 94.319L67.6095 98.3308L67.5924 107.903L67.5919 122.301L67.6255 126.82L83.6585 126.842C83.7107 125.586 83.72 124.329 83.72 123.076C83.7201 122.193 83.5818 119.973 83.7241 119.258C83.583 118.953 83.6591 106.729 83.6642 105.247C83.6691 103.849 83.5634 91.5426 83.6742 91.3698L83.6742 91.3698ZM88.6828 65.4099L94.114 65.4188L94.1067 72.1814C92.5197 72.0367 91.2876 71.5937 89.5733 71.5884C88.7488 71.5858 87.8978 71.6148 87.0762 71.691C86.5507 71.7397 85.2045 72.0088 84.8527 71.9804C84.7932 72.0294 84.8366 72.0104 84.732 72.0568C84.691 72.075 84.6045 72.0908 84.5602 72.1013C82.5477 72.497 80.6019 73.7946 79.1818 75.0332C78.9373 75.2464 77.8893 76.2822 77.7471 76.329C77.64 76.5828 77.73 76.4005 77.5785 76.575C77.5241 76.6376 77.5057 76.6527 77.4399 76.7356C77.3521 76.8461 77.2597 76.9588 77.1722 77.0721C76.786 77.5714 75.8709 78.9482 75.5323 79.0749C75.1587 78.5866 74.8815 77.9921 74.1832 77.1227C71.3545 73.601 68.0246 71.6948 63.163 71.6013C59.482 71.5305 59.6249 72.1193 57.3295 72.375L57.3428 65.3988L88.6828 65.4099H88.6828ZM47.0636 96.7457L47.0533 98.1081L47.0419 101.318L47.0418 101.439L47.0287 105.912L47.0369 124.103L47.0919 126.817C47.58 126.878 52.8596 126.843 53.7948 126.84C54.1573 126.839 54.52 126.841 54.8826 126.84L55.7309 126.838C56.0779 126.879 55.8492 126.819 55.9619 126.92C56.0753 127.123 56.0989 128.486 56.0354 128.794C56.18 129.145 56.2304 132.635 56.2616 133.348C56.2827 133.831 56.2379 135.277 56.4453 135.595C56.8239 136.176 57.732 135.903 58.4984 135.926L60.9475 135.927L62.9017 135.925L78.7146 135.921L81.8087 135.93L87.4059 135.924L87.8701 135.923C89.4645 135.976 91.1373 135.854 92.7179 135.949C93.3918 135.989 94.2999 136.094 94.858 135.796C95.5392 135.431 95.3189 134.773 95.4611 133.927C95.3229 133.707 95.3436 128.898 95.3656 128.032C95.3877 127.16 95.2108 126.794 96.159 126.829C97.135 126.866 103.677 126.917 104.21 126.812L104.181 101.371L104.184 99.7121L104.183 97.2889L104.173 95.5498C104.291 92.6686 104.292 87.3495 103.842 84.4532C103.759 83.9135 103.652 83.3511 103.529 82.8279C103.443 82.4671 103.144 81.565 103.142 81.2969C102.967 81.1234 102.874 80.7295 102.81 80.4683C102.685 80.2937 102.503 79.7488 102.379 79.5097C102.019 78.8121 101.754 78.2806 101.317 77.609C101.133 77.3265 100.811 76.9685 100.735 76.6979C100.581 76.6126 99.7828 75.5676 99.4614 75.2332C99.0193 74.7733 98.0804 74.1218 97.9861 73.9667C97.8042 73.9331 96.963 73.4508 96.6761 73.3039C96.354 73.139 95.5949 72.817 95.4044 72.6112C95.3645 71.0963 95.3962 69.5383 95.3914 68.018C95.389 67.2525 95.389 66.4869 95.3879 65.7214C95.3856 64.1508 95.5093 65.0458 94.7707 64.0191C93.9844 63.9298 91.9445 64.2054 91.3483 64.0223L91.2507 64.0533C91.2346 64.0568 91.2174 64.0619 91.199 64.0651L89.9357 64.0753C89.4731 64.0721 89.0086 64.0785 88.5457 64.08L69.0851 64.0707C65.4311 64.0605 61.6731 64.1298 58.0252 64.0064C57.0589 63.9737 56.3099 64.0407 56.057 64.8354C55.8597 65.4552 56.1555 71.0279 55.9458 72.9643C55.7524 73.0835 55.4654 73.1691 55.2471 73.2742C53.5685 74.0817 52.4425 75.149 51.2277 76.4509C45.938 82.12 47.147 89.1988 47.0635 96.7456L47.0636 96.7457Z" fill="#FF3232"/>
</svg>
