<svg width="276" height="200" viewBox="0 0 276 200" fill="none" xmlns="http://www.w3.org/2000/svg">
<rect x="0.5" y="0.5" width="275" height="199" rx="23.5" fill="white" stroke="#C5C9D9"/>
<path fill-rule="evenodd" clip-rule="evenodd" d="M107.428 129.064C104.458 130.499 101.126 131.304 97.6065 131.304C85.1215 131.304 75 121.182 75 108.697C75 96.2125 85.1215 86.091 97.6065 86.091C101.126 86.091 104.458 86.8953 107.428 88.3304V85.3958H122.383V132H107.428V129.065V129.064ZM97.6069 99.5676C102.649 99.5676 106.736 103.655 106.736 108.697C106.736 113.739 102.649 117.826 97.6069 117.826C92.5649 117.826 88.4775 113.739 88.4775 108.697C88.4775 103.655 92.5649 99.5676 97.6069 99.5676ZM176.936 109.3L163.779 122.458L153.204 111.883L166.361 98.7253L153.204 85.5685L163.779 74.9934L176.936 88.1502L190.093 74.9934L200.668 85.5685L187.511 98.7253L200.668 111.883L190.093 122.458L176.936 109.3ZM131.455 74.9934L146.41 68V131.999H131.455V74.9934Z" fill="black"/>
</svg>
