<svg xmlns="http://www.w3.org/2000/svg" width="24.001" height="24" viewBox="0 0 24.001 24">
	<defs>
		<style>.a { fill: #374b99; fill-rule: evenodd; }
		</style>
	</defs>
	<path class="a"
		  d="M5698.037,153.422h-1.068a10.39,10.39,0,0,0-1.173-2.831l.756-.756a.7.7,0,0,0,0-.994l-2.652-2.652a.7.7,0,0,0-1,0l-.755.755a10.464,10.464,0,0,0-2.832-1.173V144.7a.7.7,0,0,0-.7-.7h-3.75a.7.7,0,0,0-.7.7v1.068a10.458,10.458,0,0,0-2.831,1.173l-.756-.755a.7.7,0,0,0-.994,0l-2.652,2.652a.7.7,0,0,0,0,.994l.755.756a10.4,10.4,0,0,0-1.172,2.831h-1.069a.7.7,0,0,0-.7.7v3.75a.7.7,0,0,0,.7.7h1.069a10.423,10.423,0,0,0,1.172,2.832l-.755.755a.7.7,0,0,0,0,1l2.652,2.651a.7.7,0,0,0,.994,0l.756-.755a10.4,10.4,0,0,0,2.831,1.173V167.3a.7.7,0,0,0,.7.7h3.75a.7.7,0,0,0,.7-.7v-1.068a10.4,10.4,0,0,0,2.832-1.173l.755.755a.7.7,0,0,0,1,0l2.652-2.651a.7.7,0,0,0,0-1l-.756-.755a10.4,10.4,0,0,0,1.173-2.832h1.068a.7.7,0,0,0,.7-.7v-3.75a.7.7,0,0,0-.7-.7Zm-8.262-.457a.858.858,0,0,1,1.214,1.214l-4.856,4.856a.859.859,0,0,1-1.214,0l-2.428-2.428a.859.859,0,0,1,1.215-1.214l1.82,1.821,4.249-4.249Zm-3.035,10.3a7.266,7.266,0,1,1,7.266-7.266A7.274,7.274,0,0,1,5686.74,163.266Z"
		  transform="translate(-5674.74 -144)"/>
</svg>
