<svg width="24" height="24" viewBox="0 0 24 24" fill="none" xmlns="http://www.w3.org/2000/svg">
	<path
		d="M22.156 16.5702C22.067 16.463 21.9797 16.3559 21.894 16.2525C20.7154 14.827 20.0024 13.9666 20.0024 9.93107C20.0024 7.84179 19.5026 6.1275 18.5174 4.84179C17.791 3.89197 16.809 3.17143 15.5147 2.63893C15.498 2.62966 15.4832 2.61751 15.4708 2.60304C15.0052 1.04411 13.7313 0 12.2945 0C10.8577 0 9.58435 1.04411 9.11881 2.60143C9.10639 2.61537 9.09172 2.62714 9.07542 2.63625C6.05506 3.87964 4.5872 6.26518 4.5872 9.92947C4.5872 13.9666 3.87524 14.827 2.69559 16.2509C2.60988 16.3543 2.52256 16.4593 2.43363 16.5686C2.20392 16.8456 2.05837 17.1826 2.01423 17.5398C1.97008 17.897 2.02918 18.2593 2.18452 18.5839C2.51506 19.2804 3.21952 19.7127 4.02363 19.7127H20.5713C21.3717 19.7127 22.0713 19.2809 22.4029 18.5877C22.5589 18.263 22.6186 17.9004 22.5748 17.5428C22.5311 17.1852 22.3857 16.8477 22.156 16.5702Z"
		fill="#8B9EB1"/>
	<path
		d="M12.2944 23.9999C13.0685 23.9993 13.828 23.7891 14.4924 23.3918C15.1567 22.9944 15.7012 22.4247 16.0679 21.7429C16.0852 21.7103 16.0937 21.6737 16.0927 21.6367C16.0917 21.5998 16.0811 21.5637 16.062 21.5321C16.0429 21.5004 16.016 21.4743 15.9838 21.4561C15.9516 21.438 15.9152 21.4284 15.8783 21.4285H8.7115C8.67449 21.4283 8.63809 21.4378 8.60582 21.4559C8.57356 21.474 8.54653 21.5002 8.52738 21.5319C8.50823 21.5635 8.49761 21.5996 8.49655 21.6366C8.49549 21.6736 8.50402 21.7102 8.52132 21.7429C8.88803 22.4246 9.43238 22.9943 10.0966 23.3916C10.7609 23.789 11.5203 23.9992 12.2944 23.9999Z"
		fill="#8B9EB1"/>
</svg>
