<svg width="24" height="25" viewBox="0 0 24 25" fill="none" xmlns="http://www.w3.org/2000/svg">
<path fill-rule="evenodd" clip-rule="evenodd" d="M0 2.88046V10.0804C0.00163297 10.6239 0.186977 11.1508 0.525917 11.5757C0.864857 12.0005 1.33747 12.2982 1.867 12.4205C2.65122 11.6987 3.64446 11.2446 4.70344 11.1238C5.76241 11.003 6.83239 11.2218 7.759 11.7484C8.26439 11.1071 8.90865 10.5887 9.64332 10.2322C10.378 9.87576 11.1839 9.69055 12.0005 9.69055C12.8171 9.69055 13.623 9.87576 14.3577 10.2322C15.0924 10.5887 15.7366 11.1071 16.242 11.7484C17.1684 11.2212 18.2384 11.002 19.2975 11.1227C20.3566 11.2433 21.3499 11.6974 22.134 12.4195C22.6632 12.297 23.1354 11.9994 23.4742 11.5748C23.8129 11.1502 23.9982 10.6236 24 10.0804V2.88046C23.9984 2.24443 23.745 1.63489 23.2953 1.18515C22.8456 0.735406 22.236 0.482053 21.6 0.480469H2.4C1.76405 0.482316 1.15467 0.735768 0.704987 1.18546C0.255299 1.63514 0.00184679 2.24451 0 2.88046ZM6.632 15.0905C6.63173 14.3724 6.77592 13.6616 7.056 13.0005C6.26442 12.5574 5.33475 12.4295 4.45293 12.6423C3.57112 12.8552 2.80216 13.3931 2.29987 14.1485C1.79758 14.9039 1.59899 15.821 1.74382 16.7166C1.88865 17.6121 2.36621 18.4199 3.081 18.9785C2.16214 19.3998 1.38355 20.0762 0.837753 20.927C0.291954 21.7779 0.00187922 22.7676 0.0019989 23.7785V24.4785H4.737V23.8004C4.73456 22.3367 5.17712 20.9069 6.006 19.7005C6.43065 19.0808 6.94803 18.53 7.54 18.0674C6.94889 17.1857 6.63351 16.148 6.634 15.0865L6.632 15.0905ZM14.21 18.3775C15.2879 18.8176 16.2104 19.5685 16.8602 20.5346C17.51 21.5006 17.8577 22.6382 17.859 23.8025V24.4805H6.144V23.8004C6.14517 22.6361 6.4928 21.4985 7.14262 20.5324C7.79244 19.5663 8.71505 18.8155 9.793 18.3755C9.08848 17.902 8.5547 17.2146 8.27035 16.4148C7.98599 15.615 7.96611 14.745 8.21362 13.933C8.46112 13.121 8.96293 12.4101 9.64508 11.9049C10.3272 11.3997 11.1536 11.127 12.0025 11.127C12.8514 11.127 13.6778 11.3997 14.3599 11.9049C15.0421 12.4101 15.5439 13.121 15.7914 13.933C16.0389 14.745 16.019 15.615 15.7346 16.4148C15.4503 17.2146 14.9165 17.902 14.212 18.3755L14.21 18.3775ZM20.921 18.9774C21.6323 18.4179 22.1067 17.6109 22.2497 16.7173C22.3928 15.8237 22.1941 14.909 21.6931 14.1553C21.1921 13.4016 20.4256 12.8642 19.5463 12.6502C18.667 12.4362 17.7393 12.5613 16.948 13.0005C17.2934 13.819 17.4301 14.7105 17.3458 15.5949C17.2615 16.4793 16.9588 17.3289 16.465 18.0674C17.0577 18.5295 17.5754 19.0804 18 19.7005C18.8289 20.9069 19.2714 22.3367 19.269 23.8004V24.4785H24V23.7785C24.0001 22.7676 23.71 21.7779 23.1642 20.927C22.6184 20.0762 21.8399 19.3998 20.921 18.9785V18.9774ZM17.1 6.36145C17.3387 6.36145 17.5676 6.45628 17.7364 6.62506C17.9052 6.79384 18 7.02275 18 7.26144C18 7.50014 17.9052 7.72907 17.7364 7.89786C17.5676 8.06664 17.3387 8.16147 17.1 8.16147H6.9C6.66131 8.16147 6.43239 8.06664 6.2636 7.89786C6.09482 7.72907 6 7.50014 6 7.26144C6 7.02275 6.09482 6.79384 6.2636 6.62506C6.43239 6.45628 6.66131 6.36145 6.9 6.36145H17.1ZM18.3 4.68045H5.7C5.4613 4.68045 5.23239 4.58562 5.06361 4.41684C4.89482 4.24806 4.8 4.01915 4.8 3.78046C4.8 3.54176 4.89482 3.31286 5.06361 3.14407C5.23239 2.97529 5.4613 2.88046 5.7 2.88046H18.3C18.5387 2.88046 18.7676 2.97529 18.9364 3.14407C19.1052 3.31286 19.2 3.54176 19.2 3.78046C19.2 4.01915 19.1052 4.24806 18.9364 4.41684C18.7676 4.58562 18.5387 4.68045 18.3 4.68045Z" fill="#4D5C6F"/>
</svg>
