<svg width="20" height="20" viewBox="0 0 20 20" fill="none" xmlns="http://www.w3.org/2000/svg">
<path fill-rule="evenodd" clip-rule="evenodd" d="M14.6219 0H5.38C4.67384 5.39331e-05 3.97462 0.139616 3.32251 0.410583C2.6704 0.681551 2.07821 1.07863 1.57996 1.57904C1.07923 2.07711 0.681917 2.66922 0.410767 3.32135C0.139617 3.97348 2.0811e-05 4.67277 6.20821e-09 5.37903V14.621C-3.39822e-05 15.3273 0.139491 16.0266 0.410645 16.6787C0.681798 17.3309 1.07919 17.923 1.57996 18.421C2.07803 18.9217 2.67013 19.3191 3.32227 19.5903C3.9744 19.8614 4.67375 20.001 5.38 20.001H14.6219C16.0475 19.9971 17.4136 19.429 18.4215 18.4208C19.4294 17.4127 19.9973 16.0466 20.001 14.621V5.37903C20.001 4.67277 19.8614 3.97348 19.5902 3.32135C19.3191 2.66922 18.9217 2.07711 18.421 1.57904C17.9227 1.07863 17.3306 0.681551 16.6785 0.410583C16.0264 0.139616 15.3271 5.39331e-05 14.621 0H14.6219ZM8.81299 10.9901H5.44598C5.18342 10.9901 4.93157 10.8857 4.74591 10.7001C4.56025 10.5144 4.45599 10.2626 4.45599 10C4.45599 9.73744 4.56025 9.48565 4.74591 9.29999C4.93157 9.11433 5.18342 9.01001 5.44598 9.01001H8.81299C8.83925 9.01001 8.86526 9.00486 8.88953 8.99481C8.91379 8.98476 8.93583 8.97005 8.95441 8.95148C8.97298 8.93291 8.98769 8.9108 8.99774 8.88654C9.00779 8.86227 9.013 8.83626 9.013 8.81V5.44C9.013 5.17744 9.11726 4.92565 9.30292 4.73999C9.48858 4.55433 9.74043 4.45001 10.003 4.45001C10.2656 4.45001 10.5173 4.55433 10.703 4.73999C10.8887 4.92565 10.993 5.17744 10.993 5.44V8.80701C10.993 8.86005 11.0141 8.91092 11.0516 8.94843C11.0891 8.98593 11.1399 9.00702 11.193 9.00702H14.56C14.8226 9.00702 15.0743 9.11134 15.26 9.297C15.4457 9.48266 15.55 9.73444 15.55 9.99701C15.55 10.2596 15.4457 10.5114 15.26 10.6971C15.0743 10.8827 14.8226 10.987 14.56 10.987H11.193C11.1399 10.987 11.0891 11.0081 11.0516 11.0456C11.0141 11.0831 10.993 11.134 10.993 11.187V14.554C10.993 14.8166 10.8887 15.0684 10.703 15.2541C10.5173 15.4398 10.2656 15.544 10.003 15.544C9.74043 15.544 9.48858 15.4398 9.30292 15.2541C9.11726 15.0684 9.013 14.8166 9.013 14.554V11.187C9.013 11.1607 9.00779 11.1347 8.99774 11.1105C8.98769 11.0862 8.97298 11.0642 8.95441 11.0456C8.93583 11.027 8.91379 11.0123 8.88953 11.0023C8.86526 10.9922 8.83925 10.987 8.81299 10.987V10.9901ZM5.38 1.51605H14.6219C15.6455 1.51922 16.6263 1.92717 17.35 2.65094C18.0738 3.37471 18.4818 4.35547 18.485 5.37903V14.621C18.4818 15.6446 18.0738 16.6253 17.35 17.3491C16.6263 18.0728 15.6455 18.4808 14.6219 18.484H5.38C4.3562 18.4816 3.375 18.0739 2.65106 17.35C1.92712 16.626 1.51934 15.6448 1.51697 14.621V5.37903C1.51934 4.35523 1.92712 3.37402 2.65106 2.65009C3.375 1.92615 4.3562 1.51843 5.38 1.51605Z" fill="#4D5C6F"/>
</svg>
