<svg xmlns="http://www.w3.org/2000/svg" width="24.001" height="22.348" viewBox="0 0 24.001 22.348">
	<defs>
		<style>
			.a {
			fill: #374b99;
			fill-rule: evenodd;
			}
		</style>
	</defs>
	<path class="a"
		  d="M95.6,244.924l-3.638-3.637v-4.2a1.375,1.375,0,0,0-2.751,0v1.451L86.5,235.827a3.619,3.619,0,0,0-5,0l-9.1,9.094a1.376,1.376,0,0,0,1.946,1.946l9.094-9.1a.811.811,0,0,1,1.113,0l9.1,9.1a1.376,1.376,0,1,0,1.947-1.946Zm-11.12-4.538,8,8a.673.673,0,0,1,.2.478v5.833a2.479,2.479,0,0,1-2.479,2.479h-3.96v-6.134H81.764v6.134H77.8a2.479,2.479,0,0,1-2.479-2.479v-5.833a.677.677,0,0,1,.2-.478l8-8A.675.675,0,0,1,84.478,240.386Z"
		  transform="translate(-72 -234.825)"/>
</svg>
