<svg width="24" height="21" viewBox="0 0 24 21" fill="none" xmlns="http://www.w3.org/2000/svg">
	<path fill-rule="evenodd" clip-rule="evenodd"
		  d="M1.66201 8.94766H1.79001V7.67166C1.79189 6.95984 2.05152 6.2728 2.52087 5.73764C2.99022 5.20248 3.63752 4.8554 4.34301 4.76065V3.19968C4.34747 2.42238 4.65823 1.67818 5.20787 1.12854C5.75751 0.578898 6.50171 0.268134 7.279 0.263672H20.888C21.7052 0.264878 22.4893 0.586973 23.0713 1.16061C23.6534 1.73426 23.9869 2.51354 24 3.33066V17.7567C23.9953 18.5341 23.6843 19.2782 23.1345 19.8279C22.5847 20.3775 21.8404 20.6882 21.063 20.6927H4.726C3.9487 20.6882 3.20451 20.3774 2.65487 19.8278C2.10522 19.2781 1.79447 18.534 1.79001 17.7567V16.3517H1.66201C1.44374 16.3526 1.22745 16.3103 1.02559 16.2273C0.823722 16.1443 0.640275 16.0222 0.485799 15.868C0.331323 15.7138 0.208874 15.5305 0.125501 15.3288C0.0421279 15.1271 -0.000524614 14.9109 4.86983e-06 14.6927V10.6077C-0.000522201 10.3896 0.0420221 10.1736 0.125196 9.97202C0.208369 9.77044 0.330533 9.58728 0.484677 9.43304C0.638822 9.27881 0.821912 9.15654 1.02343 9.07324C1.22496 8.98995 1.44094 8.94727 1.659 8.94766H1.66201ZM4.215 12.6477C4.2148 12.9003 4.28953 13.1473 4.42973 13.3574C4.56993 13.5675 4.7693 13.7313 5.00262 13.8282C5.23595 13.925 5.49274 13.9504 5.74052 13.9013C5.9883 13.8521 6.21594 13.7305 6.39463 13.552C6.57332 13.3734 6.69504 13.1459 6.7444 12.8982C6.79375 12.6504 6.76852 12.3936 6.6719 12.1602C6.57527 11.9268 6.4116 11.7273 6.20157 11.5869C5.99155 11.4466 5.74461 11.3717 5.492 11.3717C5.15349 11.3717 4.82884 11.5061 4.58938 11.7453C4.34993 11.9846 4.21527 12.3092 4.215 12.6477ZM22.215 3.37967C22.2129 3.0282 22.0723 2.69173 21.8237 2.4433C21.575 2.19486 21.2385 2.05451 20.887 2.05267H7.30501C7.15393 2.05201 7.00422 2.08129 6.86452 2.13879C6.72482 2.1963 6.59789 2.2809 6.49106 2.38773C6.38424 2.49455 6.29962 2.62147 6.24212 2.76117C6.18461 2.90087 6.15534 3.05059 6.156 3.20166V4.73367H20.888C21.2423 4.72585 21.5794 4.57987 21.8275 4.3269C22.0756 4.07394 22.2151 3.734 22.216 3.37967H22.215ZM1.79001 14.5647H6C6.2551 14.5705 6.5088 14.5253 6.74617 14.4317C6.98355 14.3381 7.19984 14.198 7.38231 14.0197C7.56479 13.8413 7.70978 13.6283 7.80877 13.3931C7.90777 13.1579 7.95876 12.9053 7.95876 12.6502C7.95876 12.395 7.90777 12.1424 7.80877 11.9072C7.70978 11.672 7.56479 11.459 7.38231 11.2807C7.19984 11.1023 6.98355 10.9622 6.74617 10.8686C6.5088 10.775 6.2551 10.7298 6 10.7357H1.79001V14.5647Z"
		  fill="#4D5C6F"/>
</svg>
