<svg width="20" height="20" viewBox="0 0 20 20" fill="none" xmlns="http://www.w3.org/2000/svg">
	<rect width="20" height="20" rx="4" fill="white"/>
	<path
		d="M8.47024 16C8.40322 16.0001 8.33701 15.9854 8.27625 15.9572C8.21549 15.9289 8.16165 15.8877 8.11853 15.8364C8.0754 15.7851 8.04404 15.725 8.02663 15.6603C8.00922 15.5955 8.0062 15.5278 8.01777 15.4618V15.459L8.72047 11.6003H5.99991C5.92439 11.6003 5.85042 11.5789 5.78655 11.5386C5.72268 11.4983 5.67152 11.4408 5.63899 11.3726C5.60646 11.3045 5.59389 11.2285 5.60272 11.1535C5.61156 11.0785 5.64145 11.0076 5.68893 10.9488L11.1678 4.1758C11.2302 4.09664 11.3167 4.04008 11.4143 4.01478C11.5118 3.98947 11.615 3.99681 11.708 4.03568C11.801 4.07454 11.8786 4.14279 11.9292 4.22999C11.9797 4.31719 12.0003 4.41854 11.9877 4.51853C11.9877 4.52603 11.9857 4.53328 11.9845 4.54078L11.2793 8.40052H13.9994C14.0749 8.40053 14.1488 8.42191 14.2127 8.4622C14.2766 8.50249 14.3277 8.56004 14.3603 8.62818C14.3928 8.69633 14.4054 8.7723 14.3965 8.84729C14.3877 8.92229 14.3578 8.99325 14.3103 9.05197L8.83071 15.825C8.78766 15.8794 8.73288 15.9234 8.67047 15.9537C8.60806 15.984 8.53961 15.9998 8.47024 16Z"
		fill="#C864DC"/>
</svg>
