<svg width="24" height="24" viewBox="0 0 24 24" fill="none" xmlns="http://www.w3.org/2000/svg">
<path d="M19.8571 23.7143H7.85714C6.83417 23.7143 5.85309 23.3079 5.12973 22.5846C4.40638 21.8612 4 20.8801 4 19.8571V7.85714C4 6.83417 4.40638 5.85309 5.12973 5.12973C5.85309 4.40638 6.83417 4 7.85714 4H19.8571C20.8801 4 21.8612 4.40638 22.5846 5.12973C23.3079 5.85309 23.7143 6.83417 23.7143 7.85714V19.8571C23.7143 20.8801 23.3079 21.8612 22.5846 22.5846C21.8612 23.3079 20.8801 23.7143 19.8571 23.7143Z" fill="#8B9EB1"/>
<path d="M6.85714 2.57143H19.4936C19.2269 1.81995 18.7342 1.1694 18.0832 0.709011C17.4321 0.248625 16.6545 0.000962683 15.8571 0H3.85714C2.83417 0 1.85309 0.406376 1.12973 1.12973C0.406376 1.85309 0 2.83417 0 3.85714V15.8571C0.000962683 16.6545 0.248625 17.4321 0.709011 18.0832C1.1694 18.7342 1.81995 19.2269 2.57143 19.4936V6.85714C2.57143 5.7205 3.02296 4.63041 3.82669 3.82669C4.63041 3.02296 5.7205 2.57143 6.85714 2.57143Z" fill="#8B9EB1"/>
<g clip-path="url(#clip0_4872_27382)">
<path d="M12.6412 19.3346C12.5816 19.3347 12.5228 19.3217 12.4688 19.2966C12.4147 19.2714 12.3669 19.2348 12.3286 19.1892C12.2902 19.1436 12.2623 19.0902 12.2469 19.0326C12.2314 18.9751 12.2287 18.9149 12.239 18.8562V18.8538L12.8636 15.4238H10.4453C10.3782 15.4238 10.3125 15.4048 10.2557 15.369C10.1989 15.3331 10.1534 15.282 10.1245 15.2214C10.0956 15.1608 10.0844 15.0933 10.0923 15.0267C10.1001 14.96 10.1267 14.8969 10.1689 14.8447L15.039 8.82424C15.0945 8.75387 15.1714 8.7036 15.2581 8.6811C15.3448 8.65861 15.4365 8.66514 15.5192 8.69968C15.6018 8.73423 15.6709 8.7949 15.7158 8.87241C15.7607 8.94991 15.779 9.04 15.7679 9.12889C15.7679 9.13555 15.7661 9.142 15.765 9.14866L15.1381 12.5795H17.556C17.6231 12.5795 17.6888 12.5986 17.7456 12.6344C17.8024 12.6702 17.8479 12.7213 17.8768 12.7819C17.9057 12.8425 17.9169 12.91 17.909 12.9767C17.9012 13.0433 17.8746 13.1064 17.8324 13.1586L12.9616 19.1791C12.9233 19.2274 12.8747 19.2665 12.8192 19.2935C12.7637 19.3204 12.7029 19.3345 12.6412 19.3346Z" fill="white"/>
</g>
<defs>
<clipPath id="clip0_4872_27382">
<rect width="10.6667" height="10.6667" fill="white" transform="translate(8.66797 8.66797)"/>
</clipPath>
</defs>
</svg>
