<svg width="48" height="48" viewBox="0 0 48 48" fill="none" xmlns="http://www.w3.org/2000/svg">
	<path
		d="M39.7143 47.4286H15.7143C13.6683 47.4286 11.7062 46.6158 10.2595 45.1691C8.81275 43.7224 8 41.7602 8 39.7143V15.7143C8 13.6683 8.81275 11.7062 10.2595 10.2595C11.7062 8.81275 13.6683 8 15.7143 8H39.7143C41.7602 8 43.7224 8.81275 45.1691 10.2595C46.6158 11.7062 47.4286 13.6683 47.4286 15.7143V39.7143C47.4286 41.7602 46.6158 43.7224 45.1691 45.1691C43.7224 46.6158 41.7602 47.4286 39.7143 47.4286Z"
		fill="#8B9EB1"/>
	<path
		d="M13.7143 5.14286H38.9871C38.4538 3.6399 37.4684 2.33879 36.1663 1.41802C34.8642 0.49725 33.3091 0.00192537 31.7143 0H7.71429C5.66833 0 3.70617 0.812753 2.25946 2.25946C0.812753 3.70617 0 5.66833 0 7.71429V31.7143C0.00192537 33.3091 0.49725 34.8642 1.41802 36.1663C2.33879 37.4684 3.6399 38.4538 5.14286 38.9871V13.7143C5.14286 11.441 6.04592 9.26083 7.65337 7.65337C9.26083 6.04592 11.441 5.14286 13.7143 5.14286Z"
		fill="#8B9EB1"/>
	<g clip-path="url(#clip0_3529_21082)">
		<path
			d="M25.2804 38.6654C25.1613 38.6655 25.0436 38.6395 24.9356 38.5892C24.8275 38.539 24.7318 38.4657 24.6552 38.3745C24.5785 38.2833 24.5227 38.1764 24.4918 38.0614C24.4608 37.9463 24.4555 37.8259 24.476 37.7085V37.7037L25.7253 30.8437H20.8887C20.7545 30.8437 20.623 30.8056 20.5094 30.734C20.3959 30.6624 20.3049 30.5601 20.2471 30.4389C20.1893 30.3178 20.1669 30.1827 20.1826 30.0494C20.1983 29.9161 20.2515 29.7899 20.3359 29.6855L30.0761 17.6446C30.187 17.5038 30.3409 17.4033 30.5143 17.3583C30.6877 17.3133 30.8711 17.3264 31.0364 17.3955C31.2017 17.4646 31.3398 17.5859 31.4296 17.7409C31.5195 17.8959 31.556 18.0761 31.5338 18.2539C31.5338 18.2672 31.5302 18.2801 31.528 18.2934L30.2743 25.1552H35.11C35.2442 25.1552 35.3757 25.1932 35.4893 25.2648C35.6028 25.3365 35.6938 25.4388 35.7516 25.5599C35.8094 25.6811 35.8318 25.8161 35.8161 25.9494C35.8004 26.0828 35.7472 26.2089 35.6628 26.3133L25.9213 38.3543C25.8447 38.451 25.7473 38.5292 25.6364 38.5831C25.5254 38.6369 25.4038 38.6651 25.2804 38.6654Z"
			fill="white"/>
	</g>
	<defs>
		<clipPath id="clip0_3529_21082">
			<rect width="21.3333" height="21.3333" fill="white" transform="translate(17.334 17.332)"/>
		</clipPath>
	</defs>
</svg>
