<svg xmlns="http://www.w3.org/2000/svg" width="37.54" height="37.54" viewBox="0 0 37.54 37.54">
	<defs>
		<style>.a{fill:#fcc526;}.a,.b,.c,.d{fill-rule:evenodd;}.b{fill:#6b9ffa;}.c{fill:#48bf61;}.d{fill:#f45f54;}
		</style>
	</defs>
	<g transform="translate(-8838.63 -318.001)">
		<path class="a"
			  d="M8846.608,339.756l-1.253,4.678-4.58.1a18.032,18.032,0,0,1-.133-16.809h0l4.078.748,1.786,4.053a10.747,10.747,0,0,0,.1,7.233Z"/>
		<path class="b"
			  d="M8874.316,332.638a18,18,0,0,1-6.417,17.4h0l-5.137-.262-.727-4.538a10.733,10.733,0,0,0,4.616-5.478h-9.625v-7.121h17.29Z"/>
		<path class="c"
			  d="M8867.9,350.037h0a18.006,18.006,0,0,1-27.124-5.507l5.833-4.775a10.705,10.705,0,0,0,15.427,5.481Z"/>
		<path class="d"
			  d="M8868.119,322.144l-5.831,4.774a10.7,10.7,0,0,0-15.781,5.605l-5.864-4.8h0a18.005,18.005,0,0,1,27.477-5.578Z"/>
	</g>
</svg>
