<?xml version="1.0" encoding="UTF-8"?>
<!DOCTYPE svg PUBLIC "-//W3C//DTD SVG 1.1//EN" "http://www.w3.org/Graphics/SVG/1.1/DTD/svg11.dtd">
<!-- Creator: CorelDRAW 2019 (64-Bit) -->
<svg xmlns="http://www.w3.org/2000/svg" xml:space="preserve" width="500px" height="400px" version="1.1"
	 style="shape-rendering:geometricPrecision; text-rendering:geometricPrecision; image-rendering:optimizeQuality; fill-rule:evenodd; clip-rule:evenodd"
	 viewBox="0 0 500 400"
>
 <defs>
  <style type="text/css">
   <![CDATA[
    .fil0 {fill:#374B99}
   ]]>
  </style>
 </defs>
	<g id="Layer_x0020_1">
  <metadata id="CorelCorpID_0Corel-Layer"/>
		<path class="fil0"
			  d="M40 0l420 0c22.01,0 40,17.99 40,39.99l0 0.01c0,22 -17.99,40 -40,40l-420 0c-22.01,0 -40,-18 -40,-40l0 -0.01c0,-22 17.99,-39.99 40,-39.99zm0 320l420 0c22.01,0 40,17.99 40,40l0 0c0,22.01 -17.99,40 -40,40l-420 0c-22.01,0 -40,-17.99 -40,-40l0 0c0,-22.01 17.99,-40 40,-40zm0 -160l420 0c22.01,0 40,17.99 40,40l0 0c0,22.01 -17.99,40 -40,40l-420 0c-22.01,0 -40,-17.99 -40,-40l0 0c0,-22.01 17.99,-40 40,-40z"/>
 </g>
</svg>
