<svg width="20" height="21" viewBox="0 0 20 21" fill="none" xmlns="http://www.w3.org/2000/svg">
	<path fill-rule="evenodd" clip-rule="evenodd"
		  d="M11.7399 0.72101L19.2819 8.26502C19.51 8.4929 19.6909 8.76352 19.8143 9.0614C19.9377 9.35929 20.0011 9.67861 20.0009 10.001C20.0019 10.3236 19.9391 10.6432 19.8162 10.9414C19.6934 11.2397 19.5128 11.5107 19.2849 11.739C19.0014 12.0342 18.6435 12.2473 18.2489 12.356C18.1729 12.377 18.0989 12.394 18.0249 12.407V17.251C18.0238 17.9798 17.7339 18.6784 17.2186 19.1937C16.7033 19.709 16.0047 19.9989 15.2759 20H12.3259C11.9811 20 11.6505 19.8631 11.4067 19.6193C11.1629 19.3755 11.0259 19.0448 11.0259 18.7V14.35C11.0267 14.3107 11.012 14.2726 10.9849 14.244C10.9565 14.2166 10.9184 14.2015 10.8789 14.202H9.13892C9.09895 14.2023 9.0607 14.2183 9.03244 14.2465C9.00418 14.2748 8.98818 14.3131 8.98792 14.353V18.703C8.98792 19.0478 8.85095 19.3785 8.60715 19.6223C8.36335 19.8661 8.03271 20.0031 7.68793 20.0031H4.73892C4.01008 20.002 3.31137 19.7121 2.7959 19.1968C2.28043 18.6815 1.99025 17.9829 1.98892 17.254V12.42C1.51934 12.3294 1.08793 12.0994 0.750917 11.76C0.517447 11.5264 0.331664 11.2496 0.20392 10.945C0.0743217 10.6404 0.00633492 10.3131 0.00390743 9.98206C0.00359076 9.66341 0.0669495 9.3479 0.190248 9.05408C0.313546 8.76026 0.494316 8.49406 0.721925 8.27106L8.26593 0.724001C8.49325 0.495075 8.76352 0.31333 9.06125 0.189089C9.35898 0.0648481 9.6783 0.000557453 10.0009 2.05602e-06C10.3233 -0.000415686 10.6426 0.0628285 10.9405 0.186037C11.2384 0.309246 11.509 0.490014 11.7369 0.71802L11.7399 0.72101ZM18.2119 9.33203L10.6689 1.79303C10.5819 1.70444 10.4781 1.63407 10.3636 1.586C10.249 1.53793 10.1261 1.51309 10.0019 1.513C9.87797 1.51292 9.75522 1.53736 9.64075 1.5849C9.52628 1.63244 9.42236 1.70217 9.33493 1.79004L1.78992 9.33405C1.70386 9.41762 1.63538 9.51751 1.5885 9.62793C1.54162 9.73835 1.51726 9.85709 1.51691 9.97705C1.51799 10.2417 1.62325 10.4954 1.80991 10.683C1.89247 10.7659 1.99071 10.8314 2.09888 10.8759C2.20704 10.9203 2.32297 10.9428 2.43991 10.942H3.50092V17.249C3.50059 17.4107 3.53212 17.5708 3.59372 17.7203C3.65532 17.8697 3.74579 18.0056 3.85993 18.1201C3.97417 18.235 4.11004 18.3261 4.25971 18.3882C4.40937 18.4504 4.56985 18.4823 4.7319 18.4821H7.46491V14.35C7.46544 13.9081 7.64126 13.4844 7.95377 13.1719C8.26628 12.8594 8.68997 12.6836 9.13193 12.683H10.8719C11.3126 12.6842 11.7348 12.86 12.0459 13.172C12.2006 13.3261 12.3234 13.5093 12.4073 13.7109C12.4913 13.9125 12.5346 14.1287 12.5349 14.347V18.481H15.2689C15.5959 18.4808 15.9093 18.3507 16.1405 18.1196C16.3716 17.8884 16.5017 17.575 16.5019 17.248V10.94H17.2599C17.454 10.9487 17.6485 10.9336 17.8389 10.895C17.98 10.8523 18.1071 10.7725 18.2069 10.664C18.3842 10.4872 18.4842 10.2474 18.4849 9.99701C18.4852 9.74802 18.3871 9.50902 18.2119 9.33203Z"
		  fill="#4D5C6F"/>
</svg>
