<svg width="59" height="12" viewBox="0 0 59 12" fill="none" xmlns="http://www.w3.org/2000/svg">
	<path fill-rule="evenodd" clip-rule="evenodd"
		  d="M2.19673 8.07612C2.43423 8.09068 2.67226 8.05798 2.89702 7.97989C2.96538 7.94594 3.02169 7.89185 3.05836 7.82491C3.09503 7.75797 3.1103 7.6814 3.10212 7.60552C3.09582 7.52424 3.06787 7.44614 3.02118 7.37932C2.97449 7.31249 2.91077 7.25939 2.83662 7.22552C2.57866 7.07934 2.30837 6.95606 2.02886 6.85712C1.76806 6.76156 1.51229 6.65279 1.26255 6.53121C1.04714 6.42847 0.84951 6.29201 0.677108 6.12698C0.514574 5.96777 0.387062 5.77638 0.302731 5.56506C0.208389 5.31452 0.163313 5.04812 0.16998 4.78049C0.15953 4.50908 0.214394 4.23913 0.32996 3.99333C0.445525 3.74753 0.618415 3.53307 0.834092 3.36798C1.36587 2.9949 2.00791 2.81202 2.65645 2.84891C3.02917 2.8477 3.40114 2.88216 3.76729 2.95181C4.05475 3.00209 4.33743 3.07669 4.61227 3.17482L4.2983 4.57504C4.07453 4.49863 3.84687 4.43415 3.61627 4.38188C3.34472 4.32297 3.06741 4.29469 2.78956 4.29759C2.22577 4.29759 1.94399 4.45446 1.94423 4.7682C1.94259 4.83431 1.95455 4.90005 1.97935 4.96136C2.01194 5.02777 2.06195 5.08409 2.12404 5.12431C2.21766 5.18897 2.31658 5.2456 2.41975 5.29359C2.54477 5.35575 2.70351 5.42213 2.89667 5.49447C3.23267 5.61474 3.55944 5.75935 3.8744 5.92715C4.10132 6.04571 4.30727 6.20065 4.48408 6.38581C4.62834 6.54317 4.73551 6.73086 4.7977 6.93508C4.86169 7.16217 4.89221 7.39737 4.88831 7.63326C4.90327 7.91113 4.84609 8.18813 4.72234 8.43737C4.59858 8.6866 4.41246 8.89958 4.18205 9.05561C3.57857 9.41037 2.88325 9.57772 2.18444 9.5364C1.43794 9.55342 0.695473 9.42223 0 9.15043L0.301678 7.6898C0.607082 7.81045 0.92203 7.90536 1.24324 7.97357C1.5566 8.04107 1.87619 8.07544 2.19673 8.07612ZM41.7243 3.16499C42.1629 7.86049 40.9408 11.7451 35.8828 11.7451C35.1202 11.7454 34.362 11.628 33.6352 11.397C31.823 10.8172 31.1104 9.58908 31.1104 8.62258V4.16941C31.1104 2.51597 32.3396 1.38793 34.5901 0.908547C35.3329 0.752303 36.0884 0.663789 36.8472 0.644095C37.5665 0.620182 38.2863 0.673993 38.9941 0.804592C40.5769 1.114 41.7253 1.87539 41.7253 3.16499H41.7243ZM40.9517 3.16499C40.9517 2.35723 40.0698 1.84905 38.8543 1.61164C38.1982 1.49087 37.5309 1.4413 36.8641 1.46379C36.1499 1.48326 35.439 1.56754 34.74 1.7156C32.8264 2.12298 31.882 2.98623 31.882 4.16941V8.62223C31.882 9.25439 32.3551 10.1299 33.8547 10.6097C34.5064 10.8224 35.1881 10.9292 35.8737 10.9257C40.2029 10.8692 41.3576 7.31964 40.9517 3.16428V3.16499ZM48.3865 3.16499C47.9478 7.86049 49.1697 11.7451 54.2276 11.7451C54.9903 11.7454 55.7484 11.628 56.4753 11.397C58.2878 10.8172 59 9.58908 59 8.62258V4.16941C59 2.78534 58.1385 1.76968 56.5378 1.19407V0L54.7393 0.289738V0.769824C54.2505 0.699267 53.758 0.657286 53.2643 0.644095C52.5448 0.620184 51.8249 0.673995 51.117 0.804592C49.5342 1.114 48.3861 1.87539 48.3861 3.16499H48.3865ZM49.1591 3.16499C49.1591 2.35723 50.0406 1.84905 51.2565 1.61164C51.9125 1.49086 52.5797 1.44128 53.2463 1.46379C53.7467 1.47722 54.2457 1.52262 54.7403 1.5997V3.16323C54.5477 3.07759 54.3479 3.00897 54.1433 2.95813C53.9236 2.90729 53.6987 2.883 53.4732 2.88578C53.0613 2.87813 52.6523 2.95623 52.2721 3.11511C51.9282 3.26334 51.6243 3.49078 51.385 3.77888C51.132 4.09074 50.9432 4.44967 50.8298 4.83493C50.6956 5.2873 50.6304 5.75735 50.6366 6.22918C50.6299 6.69532 50.7055 7.159 50.86 7.59885C50.9977 7.98747 51.2181 8.34164 51.5058 8.63698C51.7991 8.9301 52.1536 9.15473 52.544 9.29477C52.9932 9.45436 53.4675 9.53203 53.9442 9.52411C54.1615 9.52411 54.3888 9.51404 54.6262 9.4939C54.8636 9.47377 55.0969 9.44766 55.3261 9.41559C55.5554 9.38328 55.7746 9.345 55.9839 9.30075C56.1932 9.25649 56.3783 9.20967 56.5392 9.16026V2.06609C57.6693 2.53564 58.2288 3.25665 58.2288 4.1673V8.62223C58.2288 9.25439 57.7561 10.1299 56.2565 10.6097C55.6046 10.8224 54.9228 10.9292 54.2371 10.9257C49.9082 10.8692 48.7531 7.31964 49.1595 3.16428L49.1591 3.16499ZM48.9695 1.78548C47.8362 1.27567 46.6032 1.02595 45.3609 1.05464C43.7015 1.05464 42.2353 1.43534 41.3457 2.01833C41.527 2.25653 41.6476 2.53535 41.6969 2.83065C42.7947 2.15916 44.0629 1.81869 45.3493 1.85011C46.4338 1.83477 47.5074 2.06808 48.4876 2.53213C48.5878 2.2495 48.7522 1.99393 48.9677 1.78548H48.9695ZM52.4709 6.14489C52.4709 4.98594 52.8975 4.40647 53.7507 4.40647C53.9361 4.40658 54.1208 4.4309 54.2999 4.47881C54.4551 4.51651 54.6036 4.57761 54.7403 4.66003V7.93108C54.6518 7.94723 54.5392 7.9614 54.4025 7.97357C54.2658 7.98575 54.1169 7.99172 53.9558 7.99148C53.7432 8.00507 53.5307 7.96592 53.3369 7.8775C53.1432 7.78909 52.9743 7.65415 52.8453 7.48471C52.579 7.09028 52.4477 6.62021 52.4709 6.14489ZM46.8943 4.61157C46.7332 4.57153 46.544 4.52938 46.3267 4.48513C46.0962 4.4396 45.8617 4.41736 45.6268 4.41876C45.4914 4.42031 45.3563 4.43028 45.2222 4.44861C45.102 4.46184 44.9829 4.48415 44.8661 4.51534V9.36782H43.0676V3.35639C43.4417 3.22903 43.8225 3.12222 44.2083 3.03645C44.69 2.93147 45.1819 2.88093 45.6749 2.88578C45.7716 2.88578 45.8887 2.89175 46.0261 2.9037C46.1635 2.91564 46.3004 2.93179 46.4366 2.95216C46.5734 2.97229 46.7101 2.99641 46.8468 3.02451C46.9669 3.04738 47.0845 3.08172 47.198 3.12706L46.8964 4.61157H46.8943ZM33.0125 6.24147C33.0087 6.68375 33.076 7.12378 33.2116 7.54476C33.3367 7.93425 33.547 8.29094 33.8273 8.58887C34.1222 8.89445 34.4807 9.13148 34.8774 9.28318C35.3537 9.46164 35.8596 9.5477 36.3682 9.53675C36.5939 9.53695 36.8194 9.52523 37.0439 9.50163C37.2694 9.47822 37.4801 9.44801 37.676 9.41102C37.8572 9.37851 38.0365 9.33619 38.213 9.28424C38.3456 9.24665 38.4748 9.19813 38.5993 9.13919L38.3577 7.67892C38.1072 7.78187 37.8461 7.85666 37.5791 7.90193C37.2588 7.96256 36.9334 7.9929 36.6073 7.99254C36.173 8.01492 35.7425 7.90097 35.3761 7.66663C35.2298 7.56725 35.1074 7.43668 35.0176 7.28432C34.9278 7.13195 34.873 6.96158 34.857 6.78547H38.9372C38.9451 6.68878 38.9532 6.57815 38.9614 6.45359C38.9696 6.32903 38.9736 6.21431 38.9734 6.10942C38.9734 5.03921 38.7118 4.22853 38.1888 3.67738C37.9109 3.39693 37.5769 3.1783 37.2087 3.03577C36.8405 2.89325 36.4464 2.83006 36.0521 2.85031C35.6656 2.85047 35.2826 2.92424 34.9237 3.0677C34.5591 3.21162 34.2282 3.42949 33.952 3.70758C33.6563 4.01047 33.4244 4.36957 33.2699 4.76363C33.0888 5.23482 33.0014 5.7368 33.0125 6.24147ZM37.237 5.55347C37.2293 5.40193 37.203 5.2519 37.1587 5.10675C37.1165 4.96572 37.0468 4.83443 36.9536 4.72044C36.8569 4.60469 36.7373 4.51013 36.6024 4.44264C36.438 4.36501 36.2574 4.3278 36.0756 4.33412C35.8972 4.32959 35.7199 4.36461 35.5566 4.43667C35.4179 4.50045 35.2944 4.59313 35.1945 4.7085C35.0961 4.82412 35.0204 4.95718 34.9711 5.10078C34.9192 5.24788 34.8807 5.3994 34.8563 5.55347H37.237ZM24.3695 3.23558C24.7585 3.12996 25.1535 3.04787 25.5524 2.98974C26.0556 2.91162 26.5642 2.87322 27.0734 2.8749C27.5312 2.86134 27.9875 2.93278 28.4192 3.08561C28.75 3.20715 29.0433 3.41295 29.2701 3.68265C29.4851 3.9516 29.6377 4.26491 29.7169 4.59998C29.8092 4.98736 29.8538 5.38459 29.8496 5.78281V9.36782H28.0511V5.99985C28.0838 5.57642 28.0047 5.15184 27.8218 4.76855C27.7229 4.6387 27.5917 4.53697 27.4413 4.47346C27.291 4.40995 27.1266 4.38685 26.9645 4.40647C26.836 4.40647 26.6993 4.41255 26.5543 4.42473C26.4094 4.4369 26.2806 4.45095 26.168 4.46687V9.36782H24.3695V3.23558ZM20.0737 8.11229C20.2507 8.11229 20.4198 8.10831 20.5808 8.10035C20.7102 8.09577 20.8391 8.08405 20.9671 8.06523V6.70013C20.8943 6.68398 20.7857 6.66782 20.6412 6.65167C20.509 6.63628 20.3761 6.62819 20.243 6.62743C20.0835 6.62687 19.9242 6.63697 19.7661 6.65764C19.6299 6.67408 19.4973 6.71288 19.3738 6.77248C19.2665 6.824 19.1748 6.90315 19.1083 7.00181C19.0405 7.11008 19.0068 7.23624 19.0117 7.36389C18.9997 7.47819 19.0199 7.59355 19.07 7.69699C19.1201 7.80043 19.198 7.88783 19.2951 7.94934C19.5363 8.0696 19.8045 8.12572 20.0737 8.11229ZM19.929 2.84926C20.3785 2.83757 20.827 2.89877 21.2569 3.03048C21.5787 3.13129 21.8709 3.30952 22.1078 3.54955C22.3246 3.78123 22.4802 4.06333 22.5605 4.37029C22.6527 4.72084 22.6973 5.08217 22.6933 5.4446V9.18661C22.4357 9.2428 22.0776 9.30917 21.619 9.38573C21.0677 9.469 20.5107 9.5074 19.9532 9.50058C19.5782 9.504 19.2038 9.46751 18.8364 9.3917C18.5284 9.33017 18.2353 9.20922 17.9736 9.03559C17.7344 8.87364 17.5427 8.65081 17.4183 8.39009C17.2809 8.08282 17.2149 7.74844 17.2251 7.41201C17.2149 7.08402 17.292 6.75919 17.4485 6.4708C17.5922 6.21837 17.7976 6.00654 18.0455 5.85515C18.31 5.69622 18.5999 5.58396 18.9025 5.52327C19.2319 5.45396 19.5678 5.41947 19.9044 5.42037C20.112 5.41913 20.3195 5.42921 20.526 5.45057C20.6748 5.4649 20.8222 5.49121 20.9668 5.52924V5.36032C20.9731 5.22495 20.9517 5.08972 20.904 4.9629C20.8562 4.83609 20.7831 4.72036 20.689 4.6228C20.4152 4.40898 20.0691 4.30955 19.7236 4.34536C19.4206 4.34521 19.118 4.36728 18.8182 4.41138C18.5549 4.44721 18.296 4.50994 18.0455 4.59857L17.8162 3.15024C17.9209 3.11793 18.0516 3.08374 18.2085 3.04769C18.3654 3.01163 18.5364 2.97944 18.7216 2.95111C18.9068 2.92278 19.1019 2.89854 19.307 2.87841C19.5121 2.85827 19.7193 2.84821 19.9287 2.84821L19.929 2.84926ZM16.1389 4.61157C15.9778 4.57153 15.7886 4.52938 15.5714 4.48513C15.3409 4.4396 15.1064 4.41736 14.8714 4.41876C14.7361 4.42031 14.601 4.43028 14.4669 4.44861C14.3466 4.46184 14.2276 4.48415 14.1107 4.51534V9.36782H12.3123V3.35639C12.6864 3.22903 13.0672 3.12222 13.4529 3.03645C13.9346 2.93147 14.4266 2.88093 14.9195 2.88578C15.0162 2.88578 15.1333 2.89175 15.2707 2.9037C15.4082 2.91564 15.545 2.93179 15.6813 2.95216C15.8178 2.97229 15.9545 2.99641 16.0915 3.02451C16.2116 3.04738 16.3292 3.08172 16.4427 3.12706L16.141 4.61157H16.1389ZM6.53015 1.4371L8.32898 1.14736V3.01854H10.4895V4.51534H8.32898V6.74825C8.3141 7.06234 8.38282 7.37476 8.52811 7.65363C8.61934 7.77676 8.742 7.8731 8.88325 7.93254C9.0245 7.99198 9.17913 8.01234 9.33095 7.99148C9.53115 7.99085 9.73092 7.97276 9.92798 7.9374C10.1196 7.90471 10.3077 7.85415 10.4899 7.78638L10.7435 9.18661C10.5081 9.2809 10.266 9.35756 10.0193 9.41594C9.69824 9.486 9.37012 9.51841 9.04156 9.51252C8.62607 9.52546 8.212 9.45784 7.82221 9.31339C7.52203 9.19629 7.25628 9.00531 7.04957 8.75814C6.84958 8.50572 6.71117 8.21015 6.64534 7.8949C6.56544 7.52572 6.52692 7.14879 6.5305 6.77107L6.53015 1.4371Z"
		  fill="white"/>
</svg>
