<svg xmlns="http://www.w3.org/2000/svg" width="79.185" height="84" viewBox="0 0 79.185 84">
	<defs>
		<style>
			.a {
			fill: #374b99;
			fill-rule: evenodd;
			}
		</style>
	</defs>
	<path class="a"
		  d="M1471.106,1908.713v-5.606a31.107,31.107,0,1,0-62.213,0v5.606a10.948,10.948,0,0,0,.442,21.428,31.111,31.111,0,0,0,61.329,0,10.948,10.948,0,0,0,.442-21.428Zm-12.29,10.667a6.025,6.025,0,1,1-6.024-6.024,6.031,6.031,0,0,1,6.024,6.024Zm-6.024-10.945a10.961,10.961,0,0,0-10.113,6.761h-5.359a10.936,10.936,0,0,0-18.086-3.3l-5.419-2.658v-3.008q1,.03,1.983.031a60.343,60.343,0,0,0,24.389-4.978,48.216,48.216,0,0,0,8.461-4.758c2.91,3.046,9.449,8.858,17.536,9.542v3.171l-5.419,2.658a10.914,10.914,0,0,0-7.973-3.457Zm-25.584,4.921a6.025,6.025,0,1,1-6.025,6.024,6.031,6.031,0,0,1,6.025-6.024Zm41.451,12.05h-.017l-.111,0-2.255-.036-.232,2.244a26.187,26.187,0,0,1-52.09,0l-.231-2.244-2.255.036-.111,0h-.016a6.025,6.025,0,0,1-.283-12.043l5.689,2.791a10.945,10.945,0,1,0,21.379,3.964h3.747a10.945,10.945,0,1,0,21.379-3.964l5.689-2.791a6.025,6.025,0,0,1-.282,12.043Z"
		  transform="translate(-1400.407 -1872)"/>
</svg>
