<svg width="20" height="20" viewBox="0 0 20 20" fill="none" xmlns="http://www.w3.org/2000/svg">
<path fill-rule="evenodd" clip-rule="evenodd" d="M16.9596 6.81832C16.9652 7.86632 17.032 8.91311 17.1596 9.95333C17.276 10.9886 17.5491 12.0002 17.9696 12.9533C18.0875 13.208 18.2295 13.4507 18.3936 13.6783C18.4839 13.8119 18.5923 13.9324 18.7157 14.0363C19.0319 14.2113 19.2686 14.5014 19.3766 14.8463C19.4523 15.092 19.4568 15.3541 19.3896 15.6023C19.3079 15.903 19.1294 16.1683 18.8818 16.3574C18.6342 16.5464 18.3312 16.6487 18.0196 16.6483H14.0966L13.7296 17.4783C13.3315 18.4014 12.5993 19.1401 11.6797 19.5463C11.1549 19.7777 10.5876 19.8972 10.0141 19.8972C9.44061 19.8972 8.87342 19.7777 8.34866 19.5463C7.42894 19.1399 6.69645 18.4013 6.29763 17.4783L5.93063 16.6483H2.00863C1.69027 16.6479 1.38094 16.5424 1.12863 16.3483C0.872243 16.1495 0.694999 15.8659 0.628626 15.5483C0.536 15.286 0.540834 14.9992 0.642176 14.7401C0.743518 14.4811 0.93461 14.2671 1.18063 14.1373C1.566 13.8207 1.86838 13.4151 2.06161 12.9553C2.42149 12.1431 2.67044 11.286 2.80166 10.4073C2.98539 9.23103 3.07366 8.04185 3.06564 6.85134C3.09178 5.02821 3.83323 3.28832 5.13015 2.00673C6.42707 0.725147 8.17562 0.00448071 9.99893 2.08222e-05C11.8222 -0.00443907 13.5743 0.707704 14.8775 1.98293C16.1806 3.25816 16.9306 4.99437 16.9657 6.81734L16.9596 6.81832ZM15.6596 10.1483C15.525 9.0494 15.4552 7.94347 15.4506 6.83632V6.82729C15.4283 5.39781 14.8438 4.03466 13.8239 3.03286C12.8039 2.03106 11.4305 1.47122 10.0008 1.47451C8.57116 1.47779 7.2003 2.04395 6.18496 3.05044C5.16962 4.05692 4.59147 5.42274 4.57565 6.85232C4.58268 8.12469 4.48634 9.39552 4.28762 10.6523C4.13407 11.6682 3.8434 12.6586 3.42361 13.5963C3.17196 14.178 2.8014 14.7005 2.33566 15.1303H17.6736C17.4882 14.9616 17.3207 14.7743 17.1736 14.5713C16.952 14.2655 16.7605 13.939 16.6016 13.5963C16.1136 12.5001 15.7962 11.3356 15.6606 10.1433L15.6596 10.1483ZM12.3277 16.8743C12.3587 16.8033 12.3866 16.7283 12.4116 16.6513H7.61166C7.63666 16.7283 7.66464 16.8033 7.69564 16.8743L7.78762 17.0843C8.04692 17.5639 8.4581 17.9437 8.95663 18.1643C9.2896 18.3094 9.6489 18.3843 10.0121 18.3843C10.3753 18.3843 10.7347 18.3094 11.0677 18.1643C11.5636 17.9448 11.9731 17.5676 12.2326 17.0913L12.3277 16.8743Z" fill="#4D5C6F"/>
</svg>
