<svg xmlns="http://www.w3.org/2000/svg" width="23.778" height="30" viewBox="0 0 23.778 30">
	<defs>
		<style>.a { fill: #374b99; fill-rule: evenodd; }
		</style>
	</defs>
	<path class="a"
		  d="M1270.849,79.795a4.532,4.532,0,0,0,8.3,0Zm15.133-1.761h-21.97a.894.894,0,0,1-.883-.687.855.855,0,0,1,.47-.972,4.664,4.664,0,0,0,1.419-1.928c1.222-2.583,1.479-6.222,1.479-8.819a8.5,8.5,0,0,1,17-.034v.034c0,2.6.257,6.236,1.479,8.819a4.665,4.665,0,0,0,1.419,1.928.854.854,0,0,1,.47.972.9.9,0,0,1-.883.687Zm.423-1.652ZM1275,55.368h0a10.193,10.193,0,0,1,3.48.609v-.134a3.345,3.345,0,0,0-3.341-3.341h-.277a3.345,3.345,0,0,0-3.342,3.341v.132A10.212,10.212,0,0,1,1275,55.368Z"
		  transform="translate(-1263.108 -52.502)"/>
</svg>
