<svg width="24" height="24" viewBox="0 0 24 24" fill="none" xmlns="http://www.w3.org/2000/svg">
	<path fill-rule="evenodd" clip-rule="evenodd"
		  d="M12 2.04421e-06C10.4239 -0.000918165 8.86303 0.308847 7.40671 0.911577C5.95039 1.51431 4.62715 2.39818 3.51267 3.51267C2.39818 4.62715 1.5143 5.95039 0.91157 7.40671C0.308839 8.86303 -0.000918165 10.4239 2.04426e-06 12V24H12C15.1826 24 18.2348 22.7357 20.4853 20.4853C22.7357 18.2348 24 15.1826 24 12C24 8.8174 22.7357 5.76516 20.4853 3.51473C18.2348 1.26429 15.1826 2.04421e-06 12 2.04421e-06ZM11.545 15.509C10.751 15.509 10.481 15.219 10.481 14.209C10.45 13.6505 10.5516 13.0926 10.7776 12.5809C11.0035 12.0693 11.3474 11.6183 11.781 11.265C12.42 10.723 13.504 10.123 13.504 9.077C13.504 8.186 12.73 7.76 11.762 7.76C9.786 7.76 10.212 9.25101 9.162 9.25101C9.01268 9.25802 8.86347 9.23478 8.72334 9.18271C8.58321 9.13064 8.45504 9.05079 8.34652 8.94797C8.238 8.84515 8.15137 8.72147 8.09183 8.58435C8.03228 8.44723 8.00105 8.29949 8 8.15C8 7.105 9.2 5.556 11.815 5.556C14.293 5.556 15.94 6.93 15.94 8.756C15.94 10.582 14.293 11.893 13.771 12.3C13.3751 12.5548 13.0617 12.9192 12.8691 13.3488C12.6764 13.7785 12.6128 14.2549 12.686 14.72C12.686 15.088 12.493 15.514 11.543 15.514L11.545 15.509ZM10.1 18.337C10.0989 17.9444 10.253 17.5673 10.5287 17.2879C10.8045 17.0084 11.1794 16.8492 11.572 16.845C11.9609 16.8551 12.3305 17.0166 12.602 17.2952C12.8734 17.5739 13.0254 17.9475 13.0254 18.3365C13.0254 18.7255 12.8734 19.0992 12.602 19.3778C12.3305 19.6564 11.9609 19.8179 11.572 19.828C11.1795 19.824 10.8046 19.6651 10.5288 19.3858C10.2531 19.1065 10.0989 18.7295 10.1 18.337Z"
		  fill="#132740"/>
</svg>
