<svg width="20" height="20" viewBox="0 0 20 20" fill="none" xmlns="http://www.w3.org/2000/svg">
<path fill-rule="evenodd" clip-rule="evenodd" d="M17.0703 2.92516C15.3919 1.24853 13.172 0.223189 10.8073 0.0324018C8.44256 -0.158386 6.08704 0.497803 4.1615 1.88366C2.23597 3.26952 0.865853 5.29478 0.295925 7.59771C-0.274003 9.90063 -0.00661433 12.3312 1.05031 14.4551L0.0203132 18.9841C-0.0103661 19.1195 -0.00623711 19.2604 0.0323143 19.3937C0.0708656 19.527 0.142577 19.6484 0.240757 19.7465C0.338937 19.8445 0.460378 19.9162 0.593731 19.9546C0.727084 19.993 0.867996 19.9969 1.00331 19.9661L5.53431 18.9371C7.65731 19.9924 10.0862 20.2591 12.3876 19.6896C14.689 19.1201 16.7132 17.7515 18.099 15.8279C19.4849 13.9044 20.1423 11.5509 19.9538 9.18761C19.7654 6.8243 18.7435 4.60485 17.0703 2.92516ZM12.4763 13.2352H6.21831C6.00057 13.2352 5.79174 13.1486 5.63778 12.9947C5.48381 12.8407 5.39731 12.6319 5.39731 12.4141C5.39731 12.1964 5.48381 11.9876 5.63778 11.8336C5.79174 11.6796 6.00057 11.5931 6.21831 11.5931H12.4763C12.694 11.5931 12.9029 11.6796 13.0568 11.8336C13.2108 11.9876 13.2973 12.1964 13.2973 12.4141C13.2973 12.6319 13.2108 12.8407 13.0568 12.9947C12.9029 13.1486 12.694 13.2352 12.4763 13.2352ZM14.4843 8.67516H6.14031C5.92257 8.67516 5.71374 8.58865 5.55977 8.43468C5.40581 8.28072 5.31931 8.07186 5.31931 7.85412C5.31931 7.63637 5.40581 7.42758 5.55977 7.27361C5.71374 7.11965 5.92257 7.03313 6.14031 7.03313H14.4843C14.7021 7.03313 14.9109 7.11965 15.0648 7.27361C15.2188 7.42758 15.3053 7.63637 15.3053 7.85412C15.3053 8.07186 15.2188 8.28072 15.0648 8.43468C14.9109 8.58865 14.7021 8.67516 14.4843 8.67516Z" fill="#132740"/>
</svg>
