<?xml version="1.0" encoding="UTF-8"?>
<!DOCTYPE svg PUBLIC "-//W3C//DTD SVG 1.1//EN" "http://www.w3.org/Graphics/SVG/1.1/DTD/svg11.dtd">
<!-- Creator: CorelDRAW 2019 (64-Bit) -->
<svg xmlns="http://www.w3.org/2000/svg" xml:space="preserve" width="500px" height="500px" version="1.1"
	 style="shape-rendering:geometricPrecision; text-rendering:geometricPrecision; image-rendering:optimizeQuality; fill-rule:evenodd; clip-rule:evenodd"
	 viewBox="0 0 500 500"
>
 <defs>
  <style type="text/css">
   <![CDATA[
    .fil0 {fill:#374B99;fill-rule:nonzero}
   ]]>
  </style>
 </defs>
	<g id="Layer_x0020_1">
  <metadata id="CorelCorpID_0Corel-Layer"/>
		<path class="fil0"
			  d="M134.26 0l231.49 0c36.93,0 70.51,15.1 94.83,39.43 24.33,24.31 39.43,57.89 39.43,94.83l0 231.48c0,36.89 -15.1,70.44 -39.43,94.76l0 0.07c-24.32,24.33 -57.9,39.43 -94.83,39.43l-231.49 0c-36.89,0 -70.44,-15.1 -94.76,-39.43l-0.07 -0.07c-24.33,-24.32 -39.43,-57.87 -39.43,-94.76l0 -231.48c0,-36.94 15.1,-70.52 39.43,-94.83l0.07 0c24.32,-24.33 57.87,-39.43 94.76,-39.43zm183.81 329.16c10.47,10.47 10.47,27.51 0,37.98 -10.47,10.47 -27.51,10.47 -37.98,0l-98.15 -98.15c-10.47,-10.47 -10.47,-27.51 0,-37.98l98.15 -98.15c10.47,-10.48 27.51,-10.48 37.98,0 10.47,10.47 10.47,27.51 0,37.98l-79.15 79.16 79.15 79.16zm47.68 -292.12l-231.49 0c-26.76,0 -51.06,10.92 -68.68,28.54 -17.59,17.64 -28.54,41.95 -28.54,68.68l0 231.48c0,26.76 10.92,51.06 28.54,68.68 17.62,17.62 41.92,28.54 68.68,28.54l231.49 0c26.72,0 51.03,-10.95 68.65,-28.56 17.64,-17.6 28.57,-41.9 28.57,-68.66l0 -231.48c0,-26.73 -10.95,-51.04 -28.57,-68.66 -17.62,-17.61 -41.93,-28.56 -68.65,-28.56z"/>
 </g>
</svg>
