<svg width="24" height="25" viewBox="0 0 24 25" fill="none" xmlns="http://www.w3.org/2000/svg">
<path fill-rule="evenodd" clip-rule="evenodd" d="M2.40001 2.88046H3.6V1.68045C3.6 1.36219 3.72643 1.05698 3.95147 0.83194C4.17652 0.606896 4.48175 0.480469 4.80001 0.480469C5.11827 0.480469 5.42349 0.606896 5.64853 0.83194C5.87358 1.05698 6.00001 1.36219 6.00001 1.68045V2.88046H18V1.68045C18 1.36219 18.1264 1.05698 18.3515 0.83194C18.5765 0.606896 18.8817 0.480469 19.2 0.480469C19.5183 0.480469 19.8235 0.606896 20.0485 0.83194C20.2736 1.05698 20.4 1.36219 20.4 1.68045V2.88046H22.8C23.1183 2.88046 23.4235 3.00689 23.6485 3.23193C23.8736 3.45698 24 3.76218 24 4.08044V20.8805C24 21.1987 23.8736 21.5039 23.6485 21.729C23.4235 21.954 23.1183 22.0804 22.8 22.0804H15.48C16.6183 20.148 17.0403 17.8766 16.6721 15.6642C16.3039 13.4519 15.1689 11.4396 13.4661 9.98004C11.7632 8.52045 9.60106 7.70658 7.35841 7.68106C5.11576 7.65554 2.93563 8.41999 1.2 9.84045V4.08044C1.22106 3.76912 1.35425 3.47598 1.5749 3.25534C1.79554 3.0347 2.08868 2.90152 2.40001 2.88046ZM7.2 10.0804C5.77598 10.0804 4.38394 10.5027 3.1999 11.2939C2.01587 12.085 1.09302 13.2095 0.548071 14.5251C0.00311965 15.8408 -0.139464 17.2885 0.138349 18.6851C0.416163 20.0818 1.1019 21.3647 2.10884 22.3716C3.11578 23.3786 4.39869 24.0643 5.79535 24.3421C7.19202 24.6199 8.6397 24.4774 9.95533 23.9324C11.271 23.3875 12.3954 22.4646 13.1866 21.2806C13.9777 20.0965 14.4 18.7045 14.4 17.2805C14.3945 15.3726 13.6341 13.5445 12.2851 12.1954C10.936 10.8463 9.10786 10.086 7.2 10.0804ZM4.80001 18.4805H7.2C7.3601 18.4901 7.52042 18.4656 7.67037 18.4087C7.82032 18.3518 7.9565 18.2638 8.06991 18.1504C8.18332 18.037 8.27138 17.9008 8.32828 17.7508C8.38519 17.6009 8.40963 17.4406 8.40001 17.2805V13.6805C8.40001 13.3622 8.27358 13.057 8.04854 12.8319C7.82349 12.6069 7.51826 12.4805 7.2 12.4805C6.88174 12.4805 6.57652 12.6069 6.35148 12.8319C6.12643 13.057 6.00001 13.3622 6.00001 13.6805V16.0804H4.80001C4.48175 16.0804 4.17652 16.2069 3.95147 16.4319C3.72643 16.657 3.6 16.9622 3.6 17.2805C3.6 17.5987 3.72643 17.904 3.95147 18.129C4.17652 18.354 4.48175 18.4805 4.80001 18.4805Z" fill="#4D5C6F"/>
</svg>
