<svg xmlns="http://www.w3.org/2000/svg" width="30" height="24.491" viewBox="0 0 30 24.491">
	<defs>
		<style>.a { fill: #374b99; fill-rule: evenodd; }
		</style>
	</defs>
	<path class="a"
		  d="M1362.242,77.909a.5.5,0,0,1-.038-.259c.013-.069-.032-.127-.134-.171s-.153-.08-.153-.106-.074-.044-.22-.057l-.22-.019h-5.97a3.071,3.071,0,0,1-3.061-3.061V60.766a3.069,3.069,0,0,1,3.061-3.061h6.123a.583.583,0,0,0,.392-.124.637.637,0,0,0,.191-.374,3.29,3.29,0,0,0,.058-.449,4.805,4.805,0,0,0-.01-.507c-.013-.2-.019-.332-.019-.383a.621.621,0,0,0-.612-.612h-6.123a5.521,5.521,0,0,0-5.51,5.51v13.47a5.523,5.523,0,0,0,5.51,5.511h6.123a.578.578,0,0,0,.392-.125.631.631,0,0,0,.191-.374,3.126,3.126,0,0,0,.058-.449,4.783,4.783,0,0,0-.01-.506c-.013-.205-.019-.332-.019-.384Zm17.391-11.269h0a1.2,1.2,0,0,1,0,1.722l-10.407,10.409a1.225,1.225,0,0,1-2.086-.861V72.4h-8.571a1.243,1.243,0,0,1-1.225-1.225V63.828a1.241,1.241,0,0,1,1.225-1.225h8.571v-5.51a1.218,1.218,0,0,1,2.086-.861Z"
		  transform="translate(-1349.997 -55.256)"/>
</svg>
