<svg width="24" height="21" viewBox="0 0 24 21" fill="none" xmlns="http://www.w3.org/2000/svg">
<path fill-rule="evenodd" clip-rule="evenodd" d="M0 18.0419C0.00105807 18.7661 0.289233 19.4604 0.801353 19.9725C1.31347 20.4847 2.00776 20.7728 2.732 20.7739H22.484V19.5599H21.219V16.5249H22.484V15.9939H24V14.7799H23.09V11.7449H24V10.5309H23.014V9.4939L21.514 6.68689H23.089V5.05489L19.128 0.212891H5.155L1.555 5.89189C1.11603 6.2429 0.796714 6.7214 0.64106 7.26147C0.485406 7.80155 0.501069 8.3766 0.685898 8.90739C0.870727 9.43819 1.21562 9.8986 1.67306 10.2252C2.13049 10.5518 2.67795 10.7285 3.24 10.7309C2.80314 10.9037 2.41866 11.187 2.12423 11.5531C1.8298 11.9192 1.63551 12.3554 1.5604 12.8192C1.48529 13.2829 1.53194 13.7582 1.69578 14.1985C1.85961 14.6388 2.13502 15.029 2.495 15.3309C1.81536 15.3887 1.18207 15.6992 0.720169 16.2011C0.258263 16.703 0.00129998 17.3598 0 18.0419ZM1.746 7.99989C1.74703 7.73156 1.81945 7.46834 1.95582 7.23724C2.09219 7.00615 2.28761 6.81551 2.522 6.68489H20.612V9.5179H3.264C2.86156 9.51737 2.47576 9.35726 2.19119 9.07269C1.90663 8.78813 1.74653 8.40233 1.746 7.99989ZM4.246 11.7429H21.877V14.7779H4.25C3.85428 14.7677 3.47818 14.6034 3.20188 14.3199C2.92559 14.0364 2.77096 13.6562 2.77096 13.2604C2.77096 12.8645 2.92559 12.4843 3.20188 12.2009C3.47818 11.9174 3.85428 11.753 4.25 11.7429H4.246ZM2.729 16.5229H20.006V19.5579H2.733C2.53044 19.5631 2.32889 19.5277 2.14023 19.4538C1.95157 19.3798 1.77962 19.2689 1.63451 19.1275C1.48941 18.986 1.37409 18.817 1.29535 18.6303C1.21661 18.4436 1.17604 18.243 1.17604 18.0404C1.17604 17.8378 1.21661 17.6372 1.29535 17.4505C1.37409 17.2638 1.48941 17.0948 1.63451 16.9533C1.77962 16.8119 1.95157 16.701 2.14023 16.627C2.32889 16.5531 2.53044 16.5177 2.733 16.5229H2.729Z" fill="#4D5C6F"/>
</svg>
