<svg width="24" height="22" viewBox="0 0 24 22" fill="none" xmlns="http://www.w3.org/2000/svg">
<path fill-rule="evenodd" clip-rule="evenodd" d="M7.43402 20.791V12.8911L9.68502 14.0171C9.93084 14.1403 10.2002 14.2095 10.475 14.2199C10.7498 14.2304 11.0236 14.1818 11.2781 14.0776C11.5325 13.9734 11.7617 13.8159 11.9503 13.6157C12.1388 13.4155 12.2823 13.1773 12.371 12.9171V12.9081C12.494 12.5472 12.5007 12.1569 12.39 11.7921L14.135 8.30307C14.2184 8.13625 14.2322 7.94311 14.1732 7.76617C14.1142 7.58923 13.9873 7.44297 13.8205 7.35956C13.6537 7.27615 13.4606 7.26243 13.2836 7.32141C13.1067 7.38039 12.9604 7.50725 12.877 7.67407L11.389 10.6501L8.05902 8.99405C7.17037 8.42042 6.14642 8.09072 5.09002 8.03806H4.46802C3.28395 8.04146 2.14892 8.51144 1.30902 9.34607C0.892488 9.7601 0.562295 10.2527 0.337593 10.7953C0.11289 11.3379 -0.00184914 11.9198 2.25346e-05 12.507V14.7661C-0.00060036 15.2297 0.144442 15.6819 0.414665 16.0587C0.684888 16.4355 1.06664 16.7179 1.50602 16.8661V20.7961C1.50602 20.9817 1.57978 21.1598 1.71105 21.291C1.84233 21.4223 2.02037 21.4961 2.20602 21.4961H6.72502C6.91067 21.4961 7.08873 21.4223 7.22 21.291C7.35128 21.1598 7.42503 20.9817 7.42503 20.7961L7.43402 20.791ZM6.85002 6.90005C6.39503 7.46109 5.75641 7.84327 5.04696 7.9791C4.33751 8.11492 3.60288 7.99564 2.97285 7.64233C2.34281 7.28903 1.85792 6.72441 1.60381 6.04825C1.3497 5.37208 1.34273 4.62788 1.58414 3.94708C1.82554 3.26628 2.29979 2.69268 2.9231 2.32764C3.5464 1.96259 4.27866 1.8296 4.99053 1.95212C5.7024 2.07463 6.34807 2.44478 6.81348 2.99719C7.2789 3.54961 7.5341 4.24873 7.53402 4.97107C7.53451 5.67357 7.29296 6.35479 6.85002 6.90005ZM16.261 13.2001L13.416 21.0221C13.3683 21.1542 13.282 21.2689 13.1682 21.3513C13.0544 21.4337 12.9184 21.48 12.778 21.4841H12.733C12.6217 21.4811 12.5128 21.4517 12.4151 21.3982C12.3175 21.3447 12.234 21.2687 12.1716 21.1765C12.1092 21.0843 12.0698 20.9786 12.0564 20.8681C12.0431 20.7575 12.0563 20.6454 12.095 20.541L14.765 13.2001H13.752C13.8662 12.8072 13.9035 12.3961 13.862 11.9891L15.395 8.92206C15.5189 8.67432 15.5928 8.40459 15.6125 8.1283C15.6321 7.852 15.5972 7.57456 15.5096 7.31177C15.4221 7.04898 15.2836 6.80599 15.1021 6.59671C14.9207 6.38743 14.6998 6.21597 14.452 6.09207C14.2043 5.96817 13.9346 5.89427 13.6583 5.8746C13.382 5.85494 13.1045 5.88988 12.8417 5.97745C12.5789 6.06501 12.336 6.20348 12.1267 6.38495C11.9174 6.56641 11.7459 6.78733 11.622 7.03506L10.762 8.75607L9.04002 7.90005V2.70605C9.04002 2.12019 9.27276 1.55834 9.68703 1.14407C10.1013 0.729806 10.6632 0.49707 11.249 0.49707H21.794C22.0847 0.497462 22.3724 0.555209 22.6408 0.667023C22.9091 0.778837 23.1527 0.942506 23.3576 1.14865C23.5626 1.3548 23.7248 1.59938 23.835 1.86835C23.9453 2.13731 24.0013 2.42539 24 2.71606V11.0001C24 11.5859 23.7673 12.1478 23.353 12.5621C22.9388 12.9763 22.3769 13.2091 21.791 13.2091H18.251L20.951 20.5481C20.9901 20.6526 21.0036 20.7649 20.9905 20.8757C20.9774 20.9865 20.938 21.0925 20.8755 21.185C20.8131 21.2774 20.7295 21.3536 20.6316 21.4072C20.5338 21.4608 20.4246 21.4903 20.313 21.4931H20.27C20.1297 21.4893 19.9937 21.4435 19.8797 21.3614C19.7658 21.2794 19.6791 21.165 19.631 21.0331L16.758 13.2091L16.261 13.2001ZM20.287 10.188C20.4736 10.188 20.6525 10.114 20.7845 9.98203C20.9164 9.85009 20.9905 9.67114 20.9905 9.48456C20.9905 9.29798 20.9164 9.11905 20.7845 8.98712C20.6525 8.85519 20.4736 8.78107 20.287 8.78107H17.132C16.9454 8.78107 16.7665 8.85519 16.6346 8.98712C16.5026 9.11905 16.4285 9.29798 16.4285 9.48456C16.4285 9.67114 16.5026 9.85009 16.6346 9.98203C16.7665 10.114 16.9454 10.188 17.132 10.188H20.287ZM20.287 7.55206C20.4736 7.55206 20.6525 7.47794 20.7845 7.34601C20.9164 7.21408 20.9905 7.03515 20.9905 6.84857C20.9905 6.66199 20.9164 6.48304 20.7845 6.3511C20.6525 6.21917 20.4736 6.14505 20.287 6.14505H17.132C16.9454 6.14505 16.7665 6.21917 16.6346 6.3511C16.5026 6.48304 16.4285 6.66199 16.4285 6.84857C16.4285 7.03515 16.5026 7.21408 16.6346 7.34601C16.7665 7.47794 16.9454 7.55206 17.132 7.55206H20.287ZM20.287 4.91605C20.4735 4.91605 20.6523 4.84198 20.7841 4.71014C20.916 4.57831 20.99 4.39952 20.99 4.21307C20.99 4.02663 20.916 3.84781 20.7841 3.71597C20.6523 3.58413 20.4735 3.51007 20.287 3.51007H12.756C12.5696 3.51007 12.3908 3.58413 12.2589 3.71597C12.1271 3.84781 12.053 4.02663 12.053 4.21307C12.053 4.39952 12.1271 4.57831 12.2589 4.71014C12.3908 4.84198 12.5696 4.91605 12.756 4.91605H20.287Z" fill="#4D5C6F"/>
</svg>
