<svg xmlns="http://www.w3.org/2000/svg" width="20.413" height="24.001" viewBox="0 0 20.413 24.001">
	<defs>
		<style>.a { fill: #374b99; fill-rule: evenodd; }
		</style>
	</defs>
	<path class="a"
		  d="M1474.122,612.931h.159a4.588,4.588,0,0,0,3.5-1.516c1.913-2.157,1.595-5.855,1.56-6.207a5.071,5.071,0,0,0-2.41-4.508,5.533,5.533,0,0,0-2.674-.7h-.085a5.527,5.527,0,0,0-2.673.681,5.074,5.074,0,0,0-2.44,4.528c-.035.352-.353,4.05,1.56,6.207a4.57,4.57,0,0,0,3.5,1.516Zm10.293,6.133h0a8.057,8.057,0,0,1-.239,2.246.668.668,0,0,1-.259.313,20.984,20.984,0,0,1-19.4,0,.638.638,0,0,1-.258-.313,7.631,7.631,0,0,1-.253-2.251v-.015a1,1,0,0,0,.005-.124c.029-.979.094-3.28,2.251-4.021l.05-.015a14.107,14.107,0,0,0,4.124-1.879c2.048,1.933,6.343,1.225,7.549.006a14.384,14.384,0,0,0,4.125,1.879l.05.014c2.157.736,2.221,3.037,2.251,4.021,0,.044.006.084.006.124Z"
		  transform="translate(-1464.003 -599.999)"/>
</svg>
