<svg width="18" height="17" viewBox="0 0 18 17" fill="none" xmlns="http://www.w3.org/2000/svg">
	<path fill-rule="evenodd" clip-rule="evenodd"
		  d="M12.021 7.5131L8.11501 11.3811C7.98113 11.5136 7.80038 11.588 7.61202 11.588C7.42365 11.588 7.2429 11.5136 7.10903 11.3811L5.27699 9.56709C5.21047 9.50191 5.15768 9.42412 5.1216 9.33827C5.08552 9.25241 5.06691 9.16021 5.06691 9.06709C5.06691 8.97396 5.08552 8.88179 5.1216 8.79594C5.15768 8.71008 5.21047 8.63226 5.27699 8.56709C5.41087 8.43457 5.59168 8.36024 5.78005 8.36024C5.96841 8.36024 6.14916 8.43457 6.28304 8.56709L7.61202 9.88209L11.012 6.5131C11.1459 6.38059 11.3267 6.30625 11.515 6.30625C11.7034 6.30625 11.8841 6.38059 12.018 6.5131C12.0845 6.57828 12.1374 6.65607 12.1735 6.74192C12.2096 6.82778 12.2281 6.91997 12.2281 7.0131C12.2281 7.10623 12.2096 7.19843 12.1735 7.28428C12.1374 7.37014 12.0845 7.44793 12.018 7.5131H12.021ZM4.76003 3.10011C1.73503 2.92211 1.17901 3.68411 2.28401 6.49311C-0.268987 8.12011 -0.268987 9.06111 2.28401 10.6871C1.18401 13.4971 1.735 14.2581 4.761 14.0811C5.526 17.0001 6.425 17.2901 8.769 15.3811C11.112 17.2941 12.011 17.0041 12.777 14.0811C15.803 14.2581 16.358 13.4971 15.253 10.6871C17.806 9.06111 17.806 8.12011 15.253 6.49311C16.353 3.68411 15.803 2.92211 12.777 3.10011C12.011 0.181108 11.112 -0.109911 8.769 1.80009C6.425 -0.111911 5.52603 0.179107 4.76003 3.10011Z"
		  fill="#546DD3"/>
</svg>
