<svg xmlns="http://www.w3.org/2000/svg" width="30" height="19.603" viewBox="0 0 30 19.603">
	<defs>
		<style>.a { fill: #374b99; fill-rule: evenodd; }
		</style>
	</defs>
	<path class="a"
		  d="M1296,470.2a16.471,16.471,0,0,0-14.939,9.529.639.639,0,0,0,0,.544,16.475,16.475,0,0,0,29.879,0,.647.647,0,0,0,0-.544A16.472,16.472,0,0,0,1296,470.2Zm4.329,9.8a4.328,4.328,0,1,1-4.329-4.329A4.329,4.329,0,0,1,1300.33,480ZM1296,486.763a6.762,6.762,0,1,1,6.762-6.762A6.761,6.761,0,0,1,1296,486.763Z"
		  transform="translate(-1281.001 -470.198)"/>
</svg>
