<svg width="160" height="32" viewBox="0 0 160 32" fill="none" xmlns="http://www.w3.org/2000/svg">
<path fill-rule="evenodd" clip-rule="evenodd" d="M5.95564 21.9738C6.59971 22.0131 7.24516 21.9241 7.85459 21.7121C8.03991 21.62 8.19257 21.4733 8.29203 21.2918C8.39149 21.1103 8.43299 20.9027 8.41094 20.6969C8.39359 20.4766 8.31775 20.2649 8.19126 20.0836C8.06477 19.9024 7.8922 19.7581 7.69137 19.6658C6.99193 19.2709 6.25928 18.9379 5.5018 18.6706C4.79435 18.4111 4.10043 18.1161 3.42269 17.7868C2.83714 17.5087 2.29961 17.1391 1.83028 16.692C1.38982 16.2608 1.04408 15.7425 0.815118 15.1703C0.55954 14.4907 0.437545 13.7682 0.455829 13.0424C0.427475 12.3065 0.576201 11.5746 0.889502 10.9082C1.2028 10.2417 1.67152 9.66026 2.25625 9.21262C3.69833 8.20041 5.4397 7.70423 7.19872 7.80433C8.20918 7.80124 9.21763 7.89455 10.2104 8.083C10.9893 8.21946 11.7551 8.42224 12.4995 8.68912L11.6485 12.486C11.042 12.2784 10.4247 12.1037 9.79933 11.9625C9.06291 11.8018 8.31071 11.7247 7.557 11.7326C6.03094 11.7326 5.26791 12.1583 5.26791 13.0095C5.26495 13.189 5.29882 13.3672 5.36744 13.533C5.45605 13.7132 5.59192 13.866 5.76056 13.9749C6.01449 14.1503 6.28286 14.3038 6.56275 14.4338C6.98448 14.6374 7.41632 14.8195 7.85658 14.9792C8.76767 15.3051 9.65381 15.6969 10.508 16.1516C11.1233 16.4732 11.6817 16.8934 12.1611 17.3957C12.5527 17.8235 12.8435 18.3336 13.012 18.8885C13.1851 19.5036 13.2679 20.1406 13.2579 20.7795C13.298 21.5331 13.1427 22.2843 12.807 22.9602C12.4713 23.6361 11.9667 24.2137 11.342 24.6372C9.70527 25.5988 7.8198 26.0526 5.92478 25.941C3.89992 25.9876 1.886 25.6313 0 24.8929L0.818102 20.9318C1.64646 21.259 2.50071 21.5163 3.37194 21.7011C4.2223 21.8848 5.08966 21.9782 5.95962 21.9798L5.95564 21.9738ZM113.145 8.65627C114.337 21.3926 111.023 31.9264 97.3066 31.9264C95.2375 31.9276 93.1806 31.6094 91.2086 30.9829C86.295 29.4104 84.3622 26.0793 84.3622 23.4578V11.3823C84.3622 6.89864 87.6954 3.83921 93.7983 2.5404C95.8125 2.11581 97.8613 1.87562 99.9191 1.82281C101.87 1.75776 103.822 1.90358 105.741 2.25774C110.034 3.09675 113.148 5.16192 113.148 8.65926L113.145 8.65627ZM111.05 8.65627C111.05 6.4667 108.661 5.08727 105.362 4.44234C103.583 4.11637 101.773 3.98291 99.9649 4.04424C98.0284 4.09707 96.1006 4.32559 94.2054 4.72699C89.0151 5.83173 86.4543 8.17357 86.4543 11.3813V23.4578C86.4543 25.1676 87.7372 27.5463 91.8038 28.8471C93.5709 29.4234 95.419 29.7127 97.2777 29.704C109.017 29.5498 112.149 19.9246 111.048 8.65926L111.05 8.65627ZM131.212 8.65627C130.025 21.3926 133.339 31.9264 147.056 31.9264C149.125 31.9276 151.182 31.6094 153.154 30.9829C158.068 29.4104 160 26.0793 160 23.4578V11.3823C160 7.62917 157.664 4.87428 153.323 3.31372V0.078125L148.446 0.863387V2.16817C147.119 1.97694 145.783 1.86329 144.443 1.82779C142.492 1.76277 140.54 1.9086 138.621 2.26272C134.328 3.10172 131.215 5.16689 131.215 8.66423L131.212 8.65627ZM133.302 8.65627C133.302 6.4667 135.691 5.08727 138.99 4.44234C140.769 4.11637 142.579 3.9829 144.386 4.04424C145.743 4.08091 147.097 4.20424 148.438 4.41348V8.65328C147.915 8.42088 147.373 8.23472 146.818 8.09694C146.222 7.95813 145.612 7.8913 145 7.89788C143.883 7.87723 142.774 8.08906 141.743 8.51992C140.811 8.92266 139.987 9.53948 139.337 10.3203C138.651 11.1662 138.139 12.1397 137.832 13.1847C137.468 14.4118 137.291 15.6869 137.308 16.9667C137.29 18.2311 137.495 19.4887 137.913 20.682C138.287 21.7356 138.885 22.6957 139.665 23.4966C140.46 24.292 141.422 24.9014 142.48 25.2811C143.699 25.7133 144.985 25.924 146.277 25.9031C146.867 25.9031 147.483 25.8756 148.127 25.8205C148.77 25.7655 149.403 25.6948 150.025 25.6085C150.648 25.521 151.242 25.4171 151.809 25.297C152.376 25.1769 152.878 25.0515 153.315 24.9208V5.68442C156.38 6.95736 157.893 8.91305 157.893 11.3823V23.4578C157.893 25.1676 156.61 27.5463 152.545 28.8471C150.777 29.4233 148.929 29.7126 147.071 29.704C135.331 29.5498 132.199 19.9246 133.301 8.65926L133.302 8.65627ZM132.788 4.91509C129.715 3.53168 126.371 2.85424 123.002 2.93253C118.503 2.93253 114.524 3.96561 112.113 5.54608C112.605 6.19165 112.933 6.94774 113.067 7.7486C116.045 5.92664 119.485 5.00322 122.975 5.08926C125.916 5.04806 128.828 5.68061 131.487 6.93845C131.758 6.17247 132.203 5.47985 132.788 4.91509ZM142.283 16.7358C142.283 13.5941 143.44 12.0229 145.754 12.0222C146.258 12.0227 146.76 12.0896 147.247 12.2213C147.668 12.3227 148.07 12.4882 148.441 12.712V21.5827C148.202 21.6265 147.896 21.6647 147.524 21.6972C147.153 21.7297 146.749 21.7463 146.313 21.7469C145.737 21.7837 145.16 21.6774 144.635 21.4374C144.109 21.1975 143.651 20.8313 143.302 20.3715C142.579 19.3018 142.223 18.0269 142.286 16.7378L142.283 16.7358ZM127.155 12.5796C126.719 12.4701 126.206 12.3553 125.617 12.2352C124.991 12.1115 124.355 12.0511 123.718 12.0551C123.352 12.0599 122.986 12.0872 122.623 12.1367C122.297 12.1726 121.974 12.2328 121.658 12.3168V25.4792H116.781V9.17779C117.795 8.83219 118.828 8.54248 119.874 8.30993C121.182 8.02463 122.517 7.88741 123.855 7.90087C124.117 7.90087 124.432 7.91779 124.804 7.95063C125.175 7.98348 125.546 8.02627 125.917 8.08101C126.289 8.13575 126.659 8.20144 127.03 8.28006C127.355 8.34192 127.673 8.43491 127.979 8.55774L127.161 12.5846L127.155 12.5796ZM89.5227 16.9975C89.5126 18.1973 89.695 19.3908 90.0631 20.5327C90.4028 21.5885 90.9729 22.5557 91.7321 23.3642C92.5325 24.1924 93.5048 24.8349 94.5806 25.2463C95.8722 25.7302 97.2443 25.9636 98.6233 25.934C99.2354 25.9336 99.847 25.9004 100.456 25.8345C101.067 25.7681 101.64 25.6862 102.174 25.5886C102.666 25.5009 103.152 25.3862 103.63 25.2453C103.99 25.1436 104.341 25.0121 104.678 24.8521L104.024 20.891C103.345 21.171 102.637 21.3743 101.913 21.4971C101.044 21.6613 100.161 21.7436 99.2772 21.7429C98.0993 21.8026 96.9322 21.4937 95.9381 20.8592C95.5417 20.5896 95.2099 20.2357 94.9666 19.8227C94.7232 19.4097 94.5744 18.9479 94.5308 18.4705H105.595C105.617 18.2078 105.639 17.9082 105.661 17.5748C105.683 17.2414 105.694 16.9259 105.694 16.6422C105.694 13.7394 104.984 11.5405 103.566 10.0457C102.812 9.28537 101.906 8.69267 100.908 8.30628C99.9093 7.91989 98.8406 7.74851 97.7714 7.80334C96.723 7.80377 95.6843 8.00408 94.7109 8.39353C93.7222 8.78315 92.8251 9.37386 92.0765 10.1283C91.2745 10.9497 90.6453 11.9237 90.2263 12.9926C89.7339 14.2692 89.4949 15.6295 89.5227 16.9975ZM100.981 15.1354C100.96 14.7245 100.888 14.3178 100.768 13.9242C100.653 13.5417 100.464 13.1856 100.212 12.8762C99.9505 12.5627 99.6272 12.3065 99.2623 12.1238C98.8179 11.9126 98.3298 11.8103 97.838 11.8252C97.3541 11.8125 96.8734 11.9077 96.4307 12.1039C96.0545 12.2764 95.7196 12.5276 95.4484 12.8403C95.1818 13.1539 94.9766 13.5148 94.8433 13.9043C94.7023 14.303 94.598 14.7137 94.5318 15.1314L100.981 15.1354ZM66.0853 8.85035C67.1401 8.56244 68.2112 8.33842 69.293 8.17954C70.6575 7.96749 72.0365 7.86333 73.4173 7.86803C74.6592 7.83163 75.897 8.02601 77.068 8.4413C77.9652 8.77071 78.7606 9.32933 79.375 10.0616C79.9579 10.7911 80.3716 11.6409 80.5862 12.5497C80.8371 13.6002 80.9581 14.6775 80.9465 15.7575V25.4792H76.0697V16.3466C76.1587 15.1983 75.9442 14.0468 75.4477 13.0075C75.1802 12.6542 74.8248 12.3772 74.4169 12.2041C74.0089 12.031 73.5627 11.968 73.1228 12.0212C72.7738 12.0212 72.4025 12.0378 72.0091 12.071C71.611 12.1039 71.2676 12.1417 70.962 12.1855V25.4792H66.0853V8.85035ZM54.4358 22.0734C54.9155 22.0734 55.3736 22.0624 55.8102 22.0405C56.1611 22.0266 56.511 21.9934 56.8582 21.941V18.2446C56.6592 18.2021 56.3642 18.1587 55.9734 18.1142C55.615 18.0725 55.2545 18.0505 54.8936 18.0485C54.4609 18.0467 54.0287 18.074 53.5997 18.1302C53.2303 18.1745 52.8708 18.2798 52.5358 18.4417C52.2449 18.5817 51.9963 18.7964 51.8152 19.0637C51.632 19.3574 51.5409 19.6991 51.5535 20.045C51.5203 20.3558 51.5747 20.6697 51.7107 20.9511C51.8467 21.2326 52.0587 21.4703 52.3228 21.6375C52.9771 21.9637 53.7045 22.1159 54.4348 22.0793L54.4358 22.0734ZM54.0376 7.80035C55.2566 7.76876 56.4726 7.9348 57.6385 8.29201C58.5114 8.56527 59.3039 9.04849 59.9465 9.6993C60.5343 10.3279 60.9561 11.0931 61.1737 11.9257C61.4232 12.8763 61.544 13.8561 61.5329 14.8388V24.9905C60.8349 25.1424 59.8639 25.3226 58.6198 25.5309C57.1252 25.7561 55.6147 25.8599 54.1033 25.8414C53.0861 25.8496 52.0708 25.7495 51.0748 25.5428C50.2396 25.3758 49.4449 25.0479 48.7349 24.5774C48.0866 24.1374 47.5669 23.5328 47.2291 22.8258C46.8566 21.9929 46.6776 21.0864 46.7056 20.1744C46.6774 19.2846 46.8862 18.4032 47.3107 17.6206C47.7013 16.9364 48.2587 16.3623 48.931 15.9515C49.6488 15.5226 50.4348 15.2196 51.2549 15.0558C52.1483 14.8677 53.059 14.7743 53.972 14.7771C54.535 14.7734 55.0979 14.8007 55.6579 14.8587C56.0611 14.8979 56.4604 14.9691 56.8522 15.0717V14.6089C56.8689 14.2423 56.8107 13.876 56.6812 13.5326C56.5516 13.1892 56.3535 12.8758 56.0988 12.6114C55.356 12.0317 54.4176 11.762 53.4803 11.859C52.6585 11.8583 51.8378 11.9185 51.025 12.0392C50.3128 12.1365 49.6124 12.3065 48.9349 12.5467L48.3129 8.61845C48.5962 8.53087 48.9509 8.43798 49.3768 8.33978C49.8028 8.24158 50.2673 8.15433 50.7702 8.07803C51.2718 8.00172 51.801 7.93537 52.3576 7.87897C52.9143 7.82258 53.4763 7.79504 54.0436 7.79637L54.0376 7.80035ZM43.7586 12.5776C43.3227 12.4681 42.8101 12.3533 42.2209 12.2332C41.5956 12.1095 40.9594 12.0491 40.322 12.0531C39.9557 12.0579 39.5901 12.0852 39.2272 12.1347C38.9013 12.1706 38.5786 12.2308 38.2618 12.3148V25.4792H33.385V9.17779C34.399 8.83191 35.4314 8.54219 36.4773 8.30993C37.7847 8.02468 39.1202 7.88746 40.4583 7.90087C40.7204 7.90087 41.0366 7.91746 41.4068 7.95063C41.777 7.98381 42.1483 8.02727 42.5205 8.08101C42.8907 8.13608 43.2616 8.20243 43.6332 8.28006C43.9578 8.34205 44.2758 8.43504 44.5827 8.55774L43.7636 12.5846L43.7586 12.5776ZM17.7077 3.97258L22.5844 3.18732V8.26314H28.4445V12.3198H22.5844V18.376C22.5445 19.2278 22.7309 20.075 23.1249 20.8313C23.3724 21.1652 23.7051 21.4265 24.0882 21.5877C24.4713 21.749 24.8907 21.8043 25.3025 21.7479C25.8455 21.7458 26.3873 21.6965 26.9218 21.6006C27.4412 21.5123 27.951 21.375 28.4445 21.1906L29.1313 24.9885C28.4929 25.2438 27.8366 25.4517 27.1676 25.6105C26.297 25.8005 25.4072 25.8884 24.5162 25.8723C23.3896 25.9075 22.2668 25.7239 21.21 25.3319C20.3977 25.0137 19.6789 24.4958 19.1199 23.826C18.5781 23.1414 18.2033 22.3399 18.0252 21.4852C17.8094 20.4853 17.7053 19.4645 17.7146 18.4417L17.7077 3.97258Z" fill="#132740"/>
</svg>
