<svg width="32" height="30" viewBox="0 0 32 30" fill="none" xmlns="http://www.w3.org/2000/svg">
	<path
		d="M16.0001 7.09045C17.7436 7.09045 19.1569 5.67718 19.1569 3.93412C19.1569 2.19061 17.7436 0.777344 16.0001 0.777344C14.2566 0.777344 12.8438 2.19061 12.8438 3.93412C12.8438 5.67763 14.257 7.09045 16.0001 7.09045Z"
		fill="#185DE7"/>
	<path
		d="M3.15678 14.6393C4.90028 14.6393 6.31355 13.226 6.31355 11.4825C6.31355 9.739 4.90028 8.32617 3.15678 8.32617C1.41327 8.32617 0 9.73944 0 11.4825C0 13.226 1.41327 14.6393 3.15678 14.6393Z"
		fill="#FF8800"/>
	<path
		d="M28.8438 14.6412C30.5873 14.6412 32.0006 13.228 32.0006 11.4845C32.0006 9.74095 30.5873 8.32812 28.8438 8.32812C27.1003 8.32812 25.6875 9.7414 25.6875 11.4845C25.6875 13.228 27.1008 14.6412 28.8438 14.6412Z"
		fill="#17BAA7"/>
	<path
		d="M5.86721 24.7419C4.6346 23.5093 4.6346 21.5106 5.86721 20.278C7.10027 19.0454 9.09856 19.0454 10.3312 20.278C11.5638 21.5106 11.5638 23.5093 10.3312 24.7419C9.09812 25.9746 7.09983 25.975 5.86721 24.7419Z"
		fill="#964DDE"/>
	<path
		d="M21.6295 24.8142C20.3969 23.5816 20.3969 21.5829 21.6295 20.3502C22.8626 19.1176 24.8609 19.1176 26.0935 20.3502C27.3261 21.5829 27.3261 23.5816 26.0935 24.8142C24.8604 26.0468 22.8622 26.0473 21.6295 24.8142Z"
		fill="#3495EF"/>
	<path fill-rule="evenodd" clip-rule="evenodd"
		  d="M7.87026 10.1028C7.97324 10.4548 8.36651 10.6634 8.69408 10.4992L12.581 8.55239C12.9552 8.36507 12.9823 7.82844 12.6747 7.54526C12.625 7.49954 12.5761 7.45293 12.5282 7.40499C11.6396 6.51637 11.0901 5.28864 11.0901 3.93352C11.0901 3.5407 10.6737 3.23221 10.3226 3.40798L5.4472 5.84969L5.39971 5.87366C4.93365 6.10669 5.02508 6.91097 5.48315 7.1582C5.90615 7.38635 6.29143 7.67442 6.62832 8.01131C7.20269 8.58568 7.6359 9.30163 7.8707 10.1024L7.87026 10.1028Z"
		  fill="#185DE7"/>
	<path fill-rule="evenodd" clip-rule="evenodd"
		  d="M10.9035 14.2322C10.9035 13.8282 10.6753 13.4589 10.314 13.2783L8.69301 12.4669C8.36543 12.3031 7.97217 12.5117 7.86919 12.8637C7.63483 13.6645 7.20206 14.3804 6.62725 14.9548C6.09239 15.4901 5.4337 15.9024 4.69865 16.1457C4.3298 16.2677 4.13361 16.7085 4.34578 17.0338L4.99116 18.0228C5.15584 18.2753 5.49628 18.3384 5.76083 18.1941C6.48877 17.7977 7.29483 17.5989 8.1 17.5989C8.74982 17.5989 9.39964 17.7281 10.0086 17.9859C10.4059 18.1542 10.903 17.8887 10.903 17.4569V14.2322H10.9035Z"
		  fill="#FF8800"/>
	<path fill-rule="evenodd" clip-rule="evenodd"
		  d="M21.6869 13.2652C21.3247 13.4459 21.0957 13.8156 21.0957 14.2204L21.0961 17.5148C21.0961 17.944 21.5884 18.2095 21.9848 18.0448C22.5849 17.7958 23.2236 17.671 23.8614 17.671C24.6759 17.671 25.4913 17.8739 26.2259 18.2796C26.4953 18.4283 26.8442 18.3613 27.0071 18.0998L27.6756 17.0257C27.878 16.7003 27.6805 16.2702 27.3165 16.1512C26.5757 15.9085 25.9125 15.4943 25.3732 14.9559C24.7967 14.3798 24.363 13.6607 24.1295 12.8569C24.0274 12.5049 23.6346 12.2954 23.3066 12.4587L21.6865 13.2652H21.6869Z"
		  fill="#3495EF"/>
	<path fill-rule="evenodd" clip-rule="evenodd"
		  d="M19.3229 7.55012C19.0144 7.83375 19.0415 8.37172 19.4161 8.55903L23.3066 10.5058C23.6346 10.6701 24.0279 10.4606 24.1304 10.1086C24.3643 9.30606 24.798 8.58832 25.3732 8.01263C25.7088 7.67707 26.0927 7.38944 26.514 7.16174C26.972 6.9145 27.0621 6.11022 26.5965 5.87763L26.5424 5.85056L21.6714 3.41329C21.3238 3.23929 20.911 3.54512 20.911 3.9335C20.911 5.28907 20.3615 6.5168 19.4729 7.40542C19.4236 7.45469 19.3735 7.50307 19.322 7.55012H19.3229Z"
		  fill="#17BAA7"/>
	<path fill-rule="evenodd" clip-rule="evenodd"
		  d="M18.9887 21.9735L16.4853 23.2284C16.1848 23.3788 15.831 23.3788 15.5305 23.2288L13.4777 22.2026C13.2633 22.0952 13.0103 22.2696 13.0103 22.5093C13.0103 23.7659 12.5309 25.022 11.5721 25.9812C11.4532 26.0997 11.3302 26.2111 11.2028 26.315C10.8633 26.5929 10.8717 27.1721 11.2641 27.3678L13.8838 28.6777C14.5487 29.0164 15.2775 29.1841 16.0006 29.1841C16.7232 29.1841 17.4516 29.0164 18.1156 28.6875L20.6652 27.4091C21.0545 27.2138 21.0656 26.6421 20.7304 26.3638C20.6137 26.2671 20.501 26.1641 20.3918 26.0549C20.3904 26.0536 20.3895 26.0513 20.3895 26.0491C20.3895 26.0469 20.3887 26.0451 20.3869 26.0434C19.4299 25.0846 18.951 23.8316 18.951 22.5808C18.951 22.3775 18.9634 22.1746 18.9887 21.9731C18.9887 21.9731 18.9887 21.9727 18.9883 21.9727L18.9887 21.9735Z"
		  fill="#964DDE"/>
</svg>
