<svg width="161" height="32" viewBox="0 0 161 32" fill="none" xmlns="http://www.w3.org/2000/svg">
<path fill-rule="evenodd" clip-rule="evenodd" d="M5.98511 22.0038C6.63217 22.0434 7.28069 21.9543 7.89307 21.7416C8.07932 21.6491 8.23273 21.5017 8.33264 21.3193C8.43255 21.137 8.47417 20.9283 8.45187 20.7216C8.4347 20.5002 8.35856 20.2874 8.23136 20.1053C8.10415 19.9232 7.93052 19.7785 7.7285 19.6863C7.02587 19.2876 6.28942 18.9517 5.52773 18.6825C4.81716 18.4222 4.1203 18.1258 3.43988 17.7946C2.85319 17.5143 2.31478 17.1426 1.84481 16.6932C1.40198 16.2595 1.05457 15.738 0.824806 15.1623C0.567765 14.4797 0.444955 13.7538 0.463117 13.0247C0.434647 12.2852 0.584126 11.5497 0.898991 10.88C1.21385 10.2103 1.6849 9.62601 2.27252 9.17621C3.72137 8.15973 5.47063 7.66148 7.23763 7.76198C8.2531 7.7587 9.26656 7.85258 10.2641 8.04234C11.0474 8.17932 11.8175 8.38259 12.5663 8.64994L11.7109 12.4649C11.1013 12.2567 10.481 12.0811 9.8527 11.9386C9.11284 11.7781 8.35731 11.7011 7.60028 11.709C6.06421 11.709 5.2965 12.1364 5.29713 12.9912C5.29269 13.1713 5.32525 13.3504 5.39282 13.5174C5.48163 13.6984 5.61788 13.8518 5.78704 13.9614C6.04194 14.1376 6.31149 14.2916 6.59271 14.4217C7.01625 14.6264 7.44995 14.8094 7.89212 14.9699C8.80771 15.2972 9.69806 15.6912 10.556 16.1488C11.1742 16.4718 11.7354 16.894 12.2171 17.3984C12.6101 17.8272 12.9021 18.3385 13.0716 18.895C13.2458 19.5133 13.329 20.1538 13.3184 20.7962C13.3593 21.5534 13.2035 22.3083 12.8663 22.9875C12.5292 23.6667 12.022 24.2472 11.3942 24.6724C9.74981 25.6385 7.85552 26.0945 5.95162 25.9824C3.91774 26.0287 1.89485 25.6713 0 24.9308L0.821937 20.9512C1.65402 21.2799 2.51211 21.5385 3.38726 21.7244C4.2411 21.9078 5.11178 22.0014 5.98511 22.0038ZM113.68 8.62315C114.875 21.4163 111.545 32 97.7644 32C95.6865 32.0005 93.621 31.6807 91.6406 31.0518C86.7032 29.472 84.7618 26.1259 84.7618 23.4926V11.3597C84.7618 6.85489 88.1108 3.78148 94.2423 2.47538C96.2661 2.04968 98.3245 1.80852 100.392 1.75487C102.352 1.68971 104.313 1.83632 106.241 2.19215C110.554 3.03513 113.683 5.10959 113.683 8.62315H113.68ZM111.575 8.62315C111.575 6.42239 109.172 5.03783 105.86 4.39004C104.073 4.0618 102.255 3.92706 100.438 3.98816C98.492 4.04074 96.555 4.27038 94.6508 4.67422C89.437 5.78417 86.864 8.13611 86.864 11.3597V23.4907C86.864 25.213 88.1528 27.5994 92.2386 28.9065C94.0144 29.4858 95.8717 29.7765 97.7396 29.7677C109.535 29.6136 112.681 19.9427 111.575 8.62123V8.62315ZM131.831 8.62315C130.636 21.4163 133.965 32 147.746 32C149.823 32.0005 151.889 31.6807 153.869 31.0518C158.808 29.472 160.748 26.1259 160.748 23.4926V11.3597C160.748 7.58879 158.401 4.82062 154.04 3.2533V0L149.14 0.789404V2.09742C147.808 1.90519 146.466 1.79081 145.121 1.75487C143.161 1.68972 141.199 1.83633 139.271 2.19215C134.958 3.03513 131.83 5.10959 131.83 8.62315H131.831ZM133.936 8.62315C133.936 6.42239 136.338 5.03783 139.651 4.39004C141.438 4.06176 143.256 3.92703 145.072 3.98816C146.435 4.02476 147.795 4.14845 149.143 4.35846V8.61837C148.618 8.38505 148.073 8.19807 147.516 8.05956C146.918 7.92068 146.305 7.85418 145.69 7.8615C144.568 7.84095 143.453 8.05406 142.418 8.48728C141.481 8.89112 140.653 9.5108 140.001 10.2957C139.311 11.1454 138.797 12.1233 138.488 13.173C138.122 14.4055 137.945 15.6862 137.962 16.9717C137.943 18.2417 138.149 19.505 138.57 20.7034C138.946 21.7622 139.546 22.7272 140.33 23.5319C141.129 24.3305 142.095 24.9425 143.158 25.324C144.383 25.7584 145.675 25.97 146.973 25.9489C147.565 25.9489 148.185 25.9214 148.832 25.8666C149.478 25.8117 150.114 25.7406 150.739 25.6532C151.363 25.5652 151.961 25.4609 152.531 25.3403C153.101 25.2197 153.605 25.0922 154.044 24.9576V5.62916C157.123 6.90847 158.647 8.87289 158.647 11.354V23.4907C158.647 25.213 157.359 27.5994 153.273 28.9065C151.497 29.4858 149.64 29.7765 147.771 29.7677C135.977 29.6136 132.83 19.9427 133.937 8.62123L133.936 8.62315ZM133.42 4.86463C130.332 3.47561 126.973 2.79524 123.588 2.87343C119.067 2.87343 115.072 3.91065 112.648 5.49903C113.143 6.14792 113.471 6.90763 113.605 7.71223C116.596 5.88272 120.051 4.95511 123.556 5.0407C126.511 4.99892 129.436 5.63458 132.107 6.8989C132.38 6.12887 132.828 5.43257 133.415 4.86463H133.42ZM142.959 16.742C142.959 13.5844 144.122 12.0056 146.446 12.0056C146.951 12.0059 147.455 12.0722 147.943 12.2027C148.365 12.3054 148.77 12.4719 149.143 12.6965V21.6086C148.901 21.6526 148.595 21.6912 148.222 21.7244C147.85 21.7575 147.444 21.7738 147.005 21.7732C146.426 21.8102 145.847 21.7035 145.319 21.4626C144.791 21.2217 144.331 20.8541 143.979 20.3924C143.254 19.3178 142.896 18.0371 142.959 16.742ZM127.766 12.5644C127.327 12.4553 126.811 12.3405 126.219 12.22C125.591 12.0951 124.952 12.0342 124.312 12.0382C123.944 12.0428 123.575 12.0702 123.21 12.1204C122.882 12.1565 122.558 12.2173 122.24 12.3022V25.5221H117.34V9.14463C118.359 8.79764 119.396 8.50664 120.448 8.27294C121.76 7.98658 123.1 7.84857 124.443 7.8615C124.707 7.8615 125.024 7.87872 125.4 7.91125C125.776 7.94379 126.146 7.9878 126.519 8.0433C126.892 8.09879 127.264 8.16386 127.636 8.24041C127.964 8.30273 128.284 8.39629 128.593 8.51981L127.771 12.5644H127.766ZM89.9441 17.0052C89.9339 18.2102 90.117 19.4091 90.4866 20.5561C90.8272 21.6172 91.4003 22.5891 92.164 23.4008C92.9675 24.2333 93.9442 24.8791 95.025 25.2925C96.3227 25.7787 97.7013 26.0131 99.0868 25.9833C99.7017 25.9844 100.316 25.9524 100.928 25.8876C101.542 25.8238 102.116 25.7419 102.65 25.6417C103.144 25.5531 103.632 25.4378 104.113 25.2963C104.474 25.1939 104.826 25.0617 105.166 24.9011L104.507 20.9225C103.825 21.203 103.113 21.4068 102.386 21.5301C101.513 21.6953 100.627 21.778 99.7384 21.777C98.5549 21.838 97.382 21.5275 96.3837 20.889C95.9852 20.6182 95.6517 20.2625 95.4072 19.8474C95.1626 19.4323 95.0131 18.9681 94.9695 18.4883H106.086C106.108 18.2248 106.13 17.9234 106.152 17.5841C106.175 17.2447 106.185 16.9321 106.185 16.6464C106.185 13.7305 105.472 11.5218 104.047 10.0202C103.29 9.25605 102.38 8.66037 101.377 8.27207C100.374 7.88376 99.2999 7.71157 98.2256 7.76677C97.1725 7.76718 96.1292 7.9682 95.1513 8.35906C94.1577 8.75083 93.2561 9.34446 92.5037 10.1024C91.6979 10.9274 91.066 11.9059 90.6455 12.9797C90.1522 14.2632 89.914 15.6305 89.9441 17.0052ZM101.454 15.1307C101.433 14.7178 101.361 14.309 101.241 13.9136C101.126 13.5293 100.936 13.1716 100.682 12.861C100.418 12.5457 100.093 12.2881 99.725 12.1042C99.277 11.8927 98.7849 11.7913 98.2897 11.8085C97.8035 11.7957 97.3204 11.8911 96.8755 12.0879C96.4979 12.2617 96.1616 12.5138 95.889 12.8276C95.6212 13.1427 95.4148 13.5052 95.2804 13.8964C95.139 14.2975 95.0343 14.7106 94.9676 15.1307H101.454ZM66.396 8.81548C67.4557 8.52727 68.5318 8.30359 69.6186 8.14568C70.9897 7.93284 72.3753 7.82822 73.7628 7.83279C75.01 7.79585 76.2532 7.99051 77.4294 8.4069C78.3309 8.73767 79.1301 9.29844 79.7479 10.0335C80.3335 10.7663 80.7492 11.6199 80.965 12.5328C81.2165 13.5883 81.338 14.6706 81.3267 15.7555V25.5221H76.4266V16.3469C76.5155 15.1932 76.3001 14.0364 75.8018 12.9921C75.5323 12.6384 75.1749 12.3612 74.7652 12.1881C74.3555 12.0151 73.9077 11.9522 73.4661 12.0056C73.1159 12.0056 72.7434 12.0222 72.3485 12.0554C71.9537 12.0885 71.6028 12.1268 71.296 12.1702V25.5221H66.396V8.81548ZM54.6917 22.1023C55.174 22.1023 55.6346 22.0915 56.0734 22.0698C56.4258 22.0573 56.7772 22.0254 57.126 21.9741V18.2548C56.9276 18.2108 56.6316 18.1668 56.238 18.1228C55.8778 18.0808 55.5156 18.0588 55.1529 18.0568C54.7185 18.0552 54.2844 18.0827 53.8535 18.139C53.4824 18.1834 53.1212 18.2891 52.7847 18.4519C52.4924 18.5923 52.2427 18.808 52.0614 19.0768C51.8767 19.3718 51.785 19.7155 51.7982 20.0633C51.7656 20.3747 51.8206 20.689 51.9571 20.9708C52.0935 21.2526 52.3059 21.4907 52.5704 21.6583C53.2277 21.986 53.9582 22.1389 54.6917 22.1023ZM54.2975 7.76294C55.5222 7.73109 56.744 7.89783 57.9154 8.25668C58.7922 8.53134 59.5883 9.01694 60.2338 9.6709C60.8245 10.3021 61.2484 11.0707 61.4672 11.9071C61.7182 12.8622 61.8399 13.8466 61.8289 14.8341V25.0293C61.1272 25.1824 60.1515 25.3633 58.9019 25.5719C57.4 25.7984 55.8823 25.9027 54.3635 25.8838C53.3417 25.8934 52.3217 25.7943 51.3208 25.5881C50.4815 25.4205 49.683 25.0909 48.9698 24.6179C48.318 24.1763 47.7958 23.5689 47.457 22.8582C47.0826 22.0214 46.9026 21.1107 46.9307 20.1944C46.9027 19.3007 47.1127 18.4157 47.5393 17.63C47.9308 16.9422 48.4905 16.3651 49.1659 15.9526C49.8866 15.5196 50.6763 15.2138 51.5006 15.0484C52.3983 14.8596 53.3133 14.7656 54.2305 14.7681C54.7962 14.7647 55.3615 14.7921 55.9242 14.8503C56.3296 14.8889 56.7313 14.9606 57.125 15.0647V14.6044C57.1422 14.2356 57.084 13.8672 56.9539 13.5217C56.8237 13.1761 56.6244 12.8608 56.3681 12.595C55.6222 12.0121 54.6794 11.7409 53.7378 11.8382C52.9122 11.8376 52.0877 11.8981 51.271 12.019C50.5537 12.1166 49.8483 12.2875 49.1659 12.529L48.5411 8.58296C48.8262 8.49493 49.1825 8.40148 49.6099 8.30261C50.0373 8.20373 50.5033 8.11634 51.0079 8.04043C51.5124 7.96324 52.0441 7.89722 52.6029 7.84236C53.1617 7.7875 53.7263 7.76007 54.2966 7.76007L54.2975 7.76294ZM43.9712 12.5644C43.5323 12.4553 43.0169 12.3405 42.4249 12.22C41.797 12.0951 41.1581 12.0342 40.5179 12.0382C40.1491 12.0428 39.781 12.0702 39.4156 12.1204C39.0881 12.1565 38.7637 12.2173 38.4454 12.3022V25.5221H33.5453V9.14463C34.5646 8.79764 35.6021 8.50664 36.6532 8.27294C37.9655 7.98658 39.3058 7.84857 40.649 7.8615C40.9121 7.8615 41.2298 7.87872 41.6058 7.91125C41.9819 7.94379 42.3512 7.9878 42.7244 8.0433C43.0976 8.09879 43.4698 8.16386 43.842 8.24041C44.1691 8.30273 44.4896 8.39629 44.7989 8.51981L43.9769 12.5644H43.9712ZM17.7917 3.91544L22.6927 3.12604V8.22414H28.5792V12.3022H22.6927V18.3859C22.6522 19.2417 22.8394 20.0929 23.2352 20.8527C23.4839 21.188 23.8181 21.4503 24.2029 21.6123C24.5877 21.7742 25.009 21.8298 25.4226 21.7732C25.9681 21.7715 26.5123 21.7221 27.0492 21.6258C27.5713 21.5368 28.0839 21.399 28.5802 21.2144L29.2711 25.0293C28.6296 25.2858 27.9702 25.4947 27.298 25.6542C26.4233 25.8451 25.5293 25.9334 24.6342 25.9173C23.5021 25.9526 22.374 25.7683 21.312 25.3748C20.4943 25.0554 19.7703 24.5351 19.2069 23.862C18.662 23.1742 18.2849 22.3689 18.1055 21.51C17.8879 20.5042 17.7829 19.4772 17.7927 18.4481L17.7917 3.91544Z" fill="#4D5C6F"/>
</svg>
