<svg width="101" height="20" viewBox="0 0 101 20" fill="none" xmlns="http://www.w3.org/2000/svg">
<path fill-rule="evenodd" clip-rule="evenodd" d="M3.74069 13.7524C4.14511 13.7772 4.55043 13.7215 4.93317 13.5885C5.04957 13.5307 5.14545 13.4386 5.2079 13.3246C5.27035 13.2106 5.29636 13.0802 5.28242 12.951C5.27169 12.8126 5.2241 12.6796 5.1446 12.5658C5.06509 12.452 4.95657 12.3616 4.83031 12.3039C4.39117 12.0547 3.93089 11.8448 3.45483 11.6766C3.01072 11.5139 2.57519 11.3286 2.14993 11.1216C1.78324 10.9464 1.44673 10.7141 1.15301 10.4333C0.876238 10.1622 0.659106 9.83626 0.515504 9.47642C0.354853 9.04979 0.278097 8.59615 0.289448 8.14042C0.271655 7.67825 0.365079 7.21856 0.561869 6.80001C0.758659 6.38145 1.05306 6.01626 1.42033 5.73513C2.32585 5.09983 3.41915 4.78843 4.52352 4.85124C5.15819 4.84919 5.7916 4.90786 6.41509 5.02646C6.9046 5.11208 7.38596 5.23912 7.85396 5.40621L7.31932 7.79057C6.93829 7.66045 6.55061 7.55066 6.15794 7.46165C5.69552 7.36133 5.22332 7.31318 4.75017 7.31812C3.79013 7.31812 3.31031 7.58524 3.31071 8.11949C3.30793 8.23206 3.32828 8.34401 3.37051 8.4484C3.42602 8.56149 3.51117 8.65739 3.6169 8.72589C3.77621 8.836 3.94468 8.93224 4.12044 9.01355C4.38515 9.14149 4.65622 9.25587 4.93257 9.35622C5.50482 9.56075 6.06129 9.80701 6.59749 10.093C6.98389 10.2949 7.3346 10.5587 7.63568 10.874C7.88134 11.142 8.06383 11.4616 8.16972 11.8093C8.27865 12.1958 8.33062 12.5961 8.32401 12.9976C8.34954 13.4709 8.2522 13.9427 8.04147 14.3672C7.83073 14.7917 7.51376 15.1545 7.12137 15.4203C6.09363 16.0241 4.9097 16.309 3.71976 16.239C2.44859 16.268 1.18428 16.0446 0 15.5817L0.513711 13.0945C1.03376 13.3 1.57007 13.4616 2.11704 13.5777C2.65069 13.6924 3.19486 13.7509 3.74069 13.7524ZM71.0498 5.38947C71.7968 13.3852 69.7156 20 61.1028 20C59.8041 20.0003 58.5131 19.8004 57.2754 19.4074C54.1895 18.42 52.9761 16.3287 52.9761 14.6829V7.09984C52.9761 4.28431 55.0692 2.36342 58.9014 1.54711C60.1663 1.28105 61.4528 1.13033 62.745 1.09679C63.9698 1.05607 65.1955 1.1477 66.4007 1.37009C69.0961 1.89696 71.0516 3.19349 71.0516 5.38947H71.0498ZM69.7342 5.38947C69.7342 4.01399 68.2325 3.14864 66.1627 2.74377C65.0453 2.53862 63.9091 2.45441 62.7737 2.4926C61.5575 2.52546 60.3469 2.66899 59.1568 2.92139C55.8981 3.61511 54.29 5.08507 54.29 7.09984V14.6817C54.29 15.7582 55.0955 17.2496 57.6491 18.0666C58.759 18.4286 59.9198 18.6103 61.0872 18.6048C68.4592 18.5085 70.4255 12.4642 69.7342 5.38827V5.38947ZM82.3945 5.38947C81.6476 13.3852 83.7281 20 92.341 20C93.6397 20.0003 94.9306 19.8004 96.1684 19.4074C99.2548 18.42 100.468 16.3287 100.468 14.6829V7.09984C100.468 4.743 99.0007 3.01289 96.2748 2.03331V0L93.2123 0.493377V1.31089C92.38 1.19074 91.5413 1.11925 90.7006 1.09679C89.4755 1.05607 88.2496 1.14771 87.0442 1.37009C84.3489 1.89696 82.3939 3.19349 82.3939 5.38947H82.3945ZM83.7102 5.38947C83.7102 4.01399 85.2112 3.14864 87.2816 2.74377C88.3988 2.5386 89.5349 2.45439 90.6701 2.4926C91.5222 2.51548 92.3719 2.59278 93.2141 2.72404V5.38648C92.8861 5.24066 92.5459 5.1238 92.1975 5.03723C91.8234 4.95043 91.4403 4.90887 91.0564 4.91343C90.3549 4.9006 89.6584 5.03379 89.0111 5.30455C88.4255 5.55695 87.9079 5.94425 87.5005 6.43483C87.0696 6.96588 86.7483 7.57709 86.555 8.23311C86.3264 9.00343 86.2156 9.80386 86.2261 10.6073C86.2146 11.4011 86.3434 12.1906 86.6065 12.9396C86.8411 13.6014 87.2163 14.2045 87.7062 14.7074C88.2057 15.2065 88.8094 15.589 89.474 15.8275C90.2391 16.099 91.0467 16.2312 91.8584 16.218C92.2284 16.218 92.6155 16.2009 93.0198 16.1666C93.424 16.1323 93.8213 16.0879 94.2116 16.0333C94.6019 15.9782 94.9753 15.913 95.3317 15.8377C95.6882 15.7623 96.0033 15.6826 96.2772 15.5985V3.51822C98.2017 4.31779 99.1544 5.54556 99.1544 7.09625V14.6817C99.1544 15.7582 98.3494 17.2496 95.7958 18.0666C94.6857 18.4286 93.5248 18.6103 92.3571 18.6048C84.9858 18.5085 83.0189 12.4642 83.7108 5.38827L83.7102 5.38947ZM83.3873 3.0404C81.4575 2.17226 79.3579 1.74703 77.2425 1.79589C74.4168 1.79589 71.92 2.44416 70.4052 3.43689C70.7141 3.84245 70.9194 4.31727 71.0032 4.82014C72.8725 3.6767 75.0321 3.09694 77.2227 3.15043C79.0694 3.12432 80.8975 3.52161 82.5667 4.31181C82.7374 3.83054 83.0172 3.39535 83.3843 3.0404H83.3873ZM89.3496 10.4638C89.3496 8.49027 90.076 7.50351 91.5289 7.50351C91.8447 7.50371 92.1591 7.54513 92.4642 7.62671C92.7284 7.6909 92.9813 7.79495 93.2141 7.93529V13.5054C93.0634 13.5329 92.8716 13.557 92.6388 13.5777C92.406 13.5985 92.1524 13.6086 91.8781 13.6082C91.5162 13.6314 91.1542 13.5647 90.8243 13.4141C90.4944 13.2636 90.2068 13.0338 89.9871 12.7453C89.5337 12.0736 89.3101 11.2732 89.3496 10.4638ZM79.8535 7.85276C79.5792 7.78459 79.257 7.71282 78.8871 7.63747C78.4946 7.55942 78.0953 7.52135 77.6952 7.52385C77.4647 7.52672 77.2346 7.5439 77.0062 7.57528C76.8015 7.59782 76.5988 7.6358 76.3998 7.6889V15.9513H73.3373V5.7154C73.9744 5.49852 74.6228 5.31665 75.2797 5.17059C76.0999 4.99161 76.9376 4.90535 77.7771 4.91343C77.9416 4.91343 78.1401 4.9242 78.3751 4.94453C78.6102 4.96487 78.841 4.99237 79.0742 5.02706C79.3075 5.06175 79.5401 5.10241 79.7727 5.15026C79.9772 5.18921 80.1775 5.24768 80.3708 5.32488L79.8571 7.85276H79.8535ZM56.215 10.6282C56.2087 11.3814 56.3231 12.1307 56.5541 12.8475C56.767 13.5108 57.1252 14.1182 57.6025 14.6255C58.1047 15.1458 58.7151 15.5495 59.3906 15.8078C60.2017 16.1117 61.0633 16.2582 61.9292 16.2396C62.3136 16.2402 62.6977 16.2203 63.0799 16.1798C63.4638 16.1399 63.8226 16.0887 64.1563 16.0261C64.4648 15.9707 64.77 15.8986 65.0707 15.8102C65.2964 15.7462 65.5165 15.6636 65.7285 15.5632L65.3171 13.0766C64.8906 13.2519 64.4459 13.3793 63.9913 13.4563C63.4457 13.5596 62.8917 13.6112 62.3365 13.6106C61.5968 13.6487 60.8638 13.4547 60.2398 13.0556C59.9908 12.8864 59.7823 12.6641 59.6295 12.4046C59.4766 12.1452 59.3832 11.8551 59.3559 11.5552H66.3038C66.3174 11.3905 66.3312 11.2021 66.3451 10.99C66.3591 10.7779 66.3659 10.5826 66.3655 10.404C66.3655 8.58157 65.9201 7.20111 65.0294 6.2626C64.5562 5.78503 63.9875 5.41273 63.3606 5.17004C62.7336 4.92735 62.0624 4.81973 61.391 4.85423C60.7328 4.85449 60.0807 4.98012 59.4695 5.22441C58.8485 5.46927 58.2851 5.84029 57.8148 6.31403C57.3112 6.82964 56.9162 7.44117 56.6534 8.11231C56.3451 8.91448 56.1962 9.76907 56.215 10.6282ZM63.4088 9.45669C63.3956 9.19862 63.3508 8.94315 63.2754 8.69599C63.2035 8.45584 63.0848 8.23227 62.9262 8.03816C62.7614 7.84106 62.5579 7.68003 62.3281 7.56511C62.0481 7.43291 61.7406 7.36955 61.4311 7.38032C61.1272 7.3723 60.8252 7.43195 60.5472 7.55494C60.3112 7.66354 60.101 7.82113 59.9306 8.01722C59.7632 8.21419 59.6342 8.44076 59.5503 8.68522C59.4619 8.93594 59.3964 9.19415 59.3547 9.45669H63.4088ZM41.4975 5.50967C42.1598 5.32954 42.8324 5.18974 43.5116 5.09105C44.3685 4.95802 45.2346 4.89264 46.1017 4.89549C46.8812 4.8724 47.6582 4.99407 48.3934 5.25431C48.9568 5.46104 49.4563 5.81152 49.8424 6.27097C50.2084 6.72895 50.4683 7.26247 50.6031 7.83303C50.7603 8.49269 50.8363 9.1691 50.8292 9.8472V15.9513H47.7666V10.2168C47.8222 9.49575 47.6875 8.77277 47.3761 8.12008C47.2077 7.89897 46.9843 7.72575 46.7283 7.61759C46.4722 7.50944 46.1923 7.47011 45.9163 7.50351C45.6975 7.50351 45.4646 7.51388 45.2178 7.53461C44.971 7.55534 44.7518 7.57927 44.56 7.60638V15.9513H41.4975V5.50967ZM34.1823 13.814C34.4837 13.814 34.7716 13.8072 35.0459 13.7936C35.2661 13.7858 35.4857 13.7659 35.7037 13.7338V11.4093C35.5797 11.3818 35.3947 11.3542 35.1488 11.3267C34.9236 11.3005 34.6972 11.2868 34.4706 11.2855C34.199 11.2845 33.9277 11.3017 33.6585 11.3369C33.4265 11.3646 33.2007 11.4307 32.9905 11.5325C32.8078 11.6202 32.6517 11.755 32.5383 11.923C32.4229 12.1073 32.3656 12.3222 32.3739 12.5395C32.3535 12.7342 32.3879 12.9306 32.4732 13.1068C32.5584 13.2829 32.6912 13.4317 32.8565 13.5365C33.2673 13.7413 33.7239 13.8368 34.1823 13.814ZM33.9359 4.85184C34.7014 4.83193 35.465 4.93614 36.1971 5.16042C36.7451 5.33209 37.2427 5.63559 37.6461 6.04431C38.0153 6.43884 38.2803 6.9192 38.417 7.44192C38.5739 8.03885 38.6499 8.65413 38.6431 9.2713V15.6433C38.2045 15.739 37.5947 15.852 36.8137 15.9824C35.875 16.124 34.9264 16.1892 33.9772 16.1774C33.3385 16.1834 32.701 16.1215 32.0755 15.9926C31.5509 15.8878 31.0519 15.6818 30.6061 15.3862C30.1988 15.1102 29.8724 14.7305 29.6606 14.2864C29.4266 13.7634 29.3141 13.1942 29.3317 12.6215C29.3142 12.063 29.4454 11.5098 29.712 11.0187C29.9568 10.5889 30.3066 10.2282 30.7287 9.9704C31.1791 9.69976 31.6727 9.5086 32.1879 9.40526C32.7489 9.28723 33.3208 9.2285 33.8941 9.23003C34.2476 9.22791 34.601 9.24508 34.9526 9.28146C35.206 9.30556 35.457 9.35037 35.7031 9.41542V9.12777C35.7139 8.89726 35.6775 8.66699 35.5962 8.45104C35.5148 8.23509 35.3903 8.03802 35.2301 7.8719C34.7639 7.50759 34.1746 7.33805 33.5861 7.39886C33.0701 7.39851 32.5548 7.43629 32.0444 7.51189C31.5961 7.5729 31.1552 7.67971 30.7287 7.83064L30.3382 5.36435C30.5164 5.30933 30.7391 5.25093 31.0062 5.18913C31.2733 5.12733 31.5645 5.07271 31.8799 5.02527C32.1953 4.97703 32.5276 4.93576 32.8768 4.90147C33.2261 4.86719 33.5789 4.85004 33.9353 4.85004L33.9359 4.85184ZM27.482 7.85276C27.2077 7.78459 26.8855 7.71282 26.5156 7.63747C26.1231 7.55942 25.7238 7.52135 25.3237 7.52385C25.0932 7.52672 24.8631 7.5439 24.6348 7.57528C24.43 7.59782 24.2273 7.6358 24.0283 7.6889V15.9513H20.9658V5.7154C21.6029 5.49852 22.2513 5.31665 22.9082 5.17059C23.7284 4.99161 24.5662 4.90535 25.4056 4.91343C25.5701 4.91343 25.7686 4.9242 26.0036 4.94453C26.2387 4.96487 26.4695 4.99237 26.7027 5.02706C26.936 5.06175 27.1686 5.10241 27.4012 5.15026C27.6057 5.18921 27.806 5.24768 27.9993 5.32488L27.4856 7.85276H27.482ZM11.1198 2.44715L14.1829 1.95377V5.14009H17.862V7.6889H14.1829V11.4912C14.1576 12.0261 14.2746 12.5581 14.522 13.0329C14.6775 13.2425 14.8863 13.4065 15.1268 13.5077C15.3673 13.6089 15.6306 13.6436 15.8891 13.6082C16.23 13.6072 16.5702 13.5763 16.9058 13.5161C17.2321 13.4605 17.5524 13.3744 17.8626 13.259L18.2944 15.6433C17.8935 15.8036 17.4814 15.9342 17.0613 16.0338C16.5146 16.1532 15.9558 16.2084 15.3963 16.1983C14.6888 16.2203 13.9837 16.1052 13.32 15.8592C12.8089 15.6596 12.3564 15.3344 12.0043 14.9137C11.6637 14.4839 11.4281 13.9806 11.316 13.4438C11.1799 12.8151 11.1143 12.1732 11.1204 11.5301L11.1198 2.44715Z" fill="white"/>
</svg>
