<svg width="296" height="248" viewBox="0 0 296 248" fill="none" xmlns="http://www.w3.org/2000/svg">
<rect x="116" width="180" height="148" rx="8" fill="white"/>
<rect opacity="0.5" x="118" y="2" width="176" height="144" rx="6" stroke="#218FDF" stroke-width="4"/>
<rect x="132" y="32" width="130" height="4" rx="0.5" fill="#F1F3F7"/>
<rect x="132" y="42" width="148" height="4" rx="0.5" fill="#F1F3F7"/>
<rect x="132" y="52" width="100" height="4" rx="0.5" fill="#F1F3F7"/>
<rect x="142" y="69" width="23" height="4" rx="0.5" fill="#F1F3F7"/>
<rect x="132.5" y="68.5" width="5" height="5" rx="2.5" stroke="#C5C9D9"/>
<rect x="142" y="83" width="36" height="4" rx="0.5" fill="#F1F3F7"/>
<rect x="132.5" y="82.5" width="5" height="5" rx="2.5" stroke="#C5C9D9"/>
<rect x="142" y="97" width="28" height="4" rx="0.5" fill="#F1F3F7"/>
<rect x="132.5" y="96.5" width="5" height="5" rx="2.5" stroke="#C5C9D9"/>
<rect x="142" y="111" width="30" height="4" rx="0.5" fill="#F1F3F7"/>
<rect x="132.5" y="110.5" width="5" height="5" rx="2.5" stroke="#C5C9D9"/>
<rect x="132" y="16" width="8" height="4" rx="0.5" fill="#F1F3F7"/>
<rect opacity="0.5" x="2" y="2" width="96" height="144" rx="6" fill="white" stroke="#FFA84B" stroke-width="4"/>
<path d="M42.6853 18V13.8H45.3973V14.418H43.4533V15.594H45.0253V16.2H43.4533V18H42.6853ZM45.972 18V15.024H46.656L46.728 15.582C46.836 15.39 46.982 15.238 47.166 15.126C47.354 15.01 47.574 14.952 47.826 14.952V15.762H47.61C47.442 15.762 47.292 15.788 47.16 15.84C47.028 15.892 46.924 15.982 46.848 16.11C46.776 16.238 46.74 16.416 46.74 16.644V18H45.972ZM49.7262 18.072C49.4382 18.072 49.1782 18.006 48.9462 17.874C48.7182 17.742 48.5362 17.56 48.4002 17.328C48.2682 17.092 48.2022 16.82 48.2022 16.512C48.2022 16.204 48.2702 15.934 48.4062 15.702C48.5422 15.466 48.7242 15.282 48.9522 15.15C49.1842 15.018 49.4442 14.952 49.7322 14.952C50.0162 14.952 50.2722 15.018 50.5002 15.15C50.7322 15.282 50.9142 15.466 51.0462 15.702C51.1822 15.934 51.2502 16.204 51.2502 16.512C51.2502 16.82 51.1822 17.092 51.0462 17.328C50.9142 17.56 50.7322 17.742 50.5002 17.874C50.2682 18.006 50.0102 18.072 49.7262 18.072ZM49.7262 17.406C49.9262 17.406 50.1002 17.332 50.2482 17.184C50.3962 17.032 50.4702 16.808 50.4702 16.512C50.4702 16.216 50.3962 15.994 50.2482 15.846C50.1002 15.694 49.9282 15.618 49.7322 15.618C49.5282 15.618 49.3522 15.694 49.2042 15.846C49.0602 15.994 48.9882 16.216 48.9882 16.512C48.9882 16.808 49.0602 17.032 49.2042 17.184C49.3522 17.332 49.5262 17.406 49.7262 17.406ZM51.9369 18V15.024H52.6149L52.6749 15.528C52.7669 15.352 52.8989 15.212 53.0709 15.108C53.2469 15.004 53.4529 14.952 53.6889 14.952C54.0569 14.952 54.3429 15.068 54.5469 15.3C54.7509 15.532 54.8529 15.872 54.8529 16.32V18H54.0849V16.392C54.0849 16.136 54.0329 15.94 53.9289 15.804C53.8249 15.668 53.6629 15.6 53.4429 15.6C53.2269 15.6 53.0489 15.676 52.9089 15.828C52.7729 15.98 52.7049 16.192 52.7049 16.464V18H51.9369ZM56.9133 18C56.6013 18 56.3513 17.924 56.1633 17.772C55.9753 17.62 55.8813 17.35 55.8813 16.962V15.666H55.3713V15.024H55.8813L55.9713 14.226H56.6493V15.024H57.4533V15.666H56.6493V16.968C56.6493 17.112 56.6793 17.212 56.7393 17.268C56.8033 17.32 56.9113 17.346 57.0633 17.346H57.4353V18H56.9133Z" fill="#494C58"/>
<path d="M39.7485 58.072C39.3365 58.072 38.9745 57.982 38.6625 57.802C38.3545 57.618 38.1125 57.362 37.9365 57.034C37.7645 56.706 37.6785 56.328 37.6785 55.9C37.6785 55.472 37.7645 55.096 37.9365 54.772C38.1125 54.444 38.3545 54.188 38.6625 54.004C38.9745 53.82 39.3365 53.728 39.7485 53.728C40.1645 53.728 40.5265 53.82 40.8345 54.004C41.1465 54.188 41.3885 54.444 41.5605 54.772C41.7325 55.096 41.8185 55.472 41.8185 55.9C41.8185 56.328 41.7325 56.706 41.5605 57.034C41.3885 57.358 41.1525 57.61 40.8525 57.79L41.9145 58.81H41.2605L40.4085 57.982C40.2045 58.042 39.9845 58.072 39.7485 58.072ZM39.7485 57.628C40.0565 57.628 40.3265 57.56 40.5585 57.424C40.7945 57.284 40.9765 57.086 41.1045 56.83C41.2365 56.57 41.3025 56.26 41.3025 55.9C41.3025 55.54 41.2365 55.232 41.1045 54.976C40.9765 54.72 40.7945 54.524 40.5585 54.388C40.3265 54.248 40.0565 54.178 39.7485 54.178C39.4405 54.178 39.1685 54.248 38.9325 54.388C38.7005 54.524 38.5185 54.72 38.3865 54.976C38.2585 55.232 38.1945 55.54 38.1945 55.9C38.1945 56.26 38.2585 56.57 38.3865 56.83C38.5185 57.086 38.7005 57.284 38.9325 57.424C39.1685 57.56 39.4405 57.628 39.7485 57.628ZM43.6484 58.072C43.2964 58.072 43.0164 57.966 42.8084 57.754C42.6004 57.538 42.4964 57.208 42.4964 56.764V55.024H43.0004V56.71C43.0004 57.33 43.2544 57.64 43.7624 57.64C44.0224 57.64 44.2364 57.548 44.4044 57.364C44.5764 57.176 44.6624 56.91 44.6624 56.566V55.024H45.1664V58H44.7104L44.6744 57.466C44.5824 57.654 44.4444 57.802 44.2604 57.91C44.0804 58.018 43.8764 58.072 43.6484 58.072ZM47.334 58.072C47.05 58.072 46.798 58.008 46.578 57.88C46.358 57.748 46.184 57.566 46.056 57.334C45.932 57.102 45.87 56.828 45.87 56.512C45.87 56.2 45.932 55.928 46.056 55.696C46.18 55.46 46.352 55.278 46.572 55.15C46.796 55.018 47.054 54.952 47.346 54.952C47.634 54.952 47.882 55.018 48.09 55.15C48.302 55.278 48.464 55.448 48.576 55.66C48.688 55.872 48.744 56.1 48.744 56.344C48.744 56.388 48.742 56.432 48.738 56.476C48.738 56.52 48.738 56.57 48.738 56.626H46.368C46.38 56.854 46.432 57.044 46.524 57.196C46.62 57.344 46.738 57.456 46.878 57.532C47.022 57.608 47.174 57.646 47.334 57.646C47.542 57.646 47.716 57.598 47.856 57.502C47.996 57.406 48.098 57.276 48.162 57.112H48.66C48.58 57.388 48.426 57.618 48.198 57.802C47.974 57.982 47.686 58.072 47.334 58.072ZM47.334 55.378C47.094 55.378 46.88 55.452 46.692 55.6C46.508 55.744 46.402 55.956 46.374 56.236H48.246C48.234 55.968 48.142 55.758 47.97 55.606C47.798 55.454 47.586 55.378 47.334 55.378ZM50.552 58.072C50.196 58.072 49.9 57.982 49.664 57.802C49.428 57.622 49.29 57.378 49.25 57.07H49.766C49.798 57.226 49.88 57.362 50.012 57.478C50.148 57.59 50.33 57.646 50.558 57.646C50.77 57.646 50.926 57.602 51.026 57.514C51.126 57.422 51.176 57.314 51.176 57.19C51.176 57.01 51.11 56.89 50.978 56.83C50.85 56.77 50.668 56.716 50.432 56.668C50.272 56.636 50.112 56.59 49.952 56.53C49.792 56.47 49.658 56.386 49.55 56.278C49.442 56.166 49.388 56.02 49.388 55.84C49.388 55.58 49.484 55.368 49.676 55.204C49.872 55.036 50.136 54.952 50.468 54.952C50.784 54.952 51.042 55.032 51.242 55.192C51.446 55.348 51.564 55.572 51.596 55.864H51.098C51.078 55.712 51.012 55.594 50.9 55.51C50.792 55.422 50.646 55.378 50.462 55.378C50.282 55.378 50.142 55.416 50.042 55.492C49.946 55.568 49.898 55.668 49.898 55.792C49.898 55.912 49.96 56.006 50.084 56.074C50.212 56.142 50.384 56.2 50.6 56.248C50.784 56.288 50.958 56.338 51.122 56.398C51.29 56.454 51.426 56.54 51.53 56.656C51.638 56.768 51.692 56.932 51.692 57.148C51.696 57.416 51.594 57.638 51.386 57.814C51.182 57.986 50.904 58.072 50.552 58.072ZM53.4533 58C53.1813 58 52.9673 57.934 52.8113 57.802C52.6553 57.67 52.5773 57.432 52.5773 57.088V55.45H52.0613V55.024H52.5773L52.6433 54.31H53.0813V55.024H53.9573V55.45H53.0813V57.088C53.0813 57.276 53.1193 57.404 53.1953 57.472C53.2713 57.536 53.4053 57.568 53.5973 57.568H53.9093V58H53.4533ZM54.9036 54.364C54.8036 54.364 54.7196 54.332 54.6516 54.268C54.5876 54.2 54.5556 54.116 54.5556 54.016C54.5556 53.92 54.5876 53.84 54.6516 53.776C54.7196 53.712 54.8036 53.68 54.9036 53.68C54.9996 53.68 55.0816 53.712 55.1496 53.776C55.2176 53.84 55.2516 53.92 55.2516 54.016C55.2516 54.116 55.2176 54.2 55.1496 54.268C55.0816 54.332 54.9996 54.364 54.9036 54.364ZM54.6516 58V55.024H55.1556V58H54.6516ZM57.3891 58.072C57.1091 58.072 56.8571 58.008 56.6331 57.88C56.4091 57.752 56.2311 57.572 56.0991 57.34C55.9711 57.104 55.9071 56.828 55.9071 56.512C55.9071 56.196 55.9731 55.922 56.1051 55.69C56.2371 55.454 56.4151 55.272 56.6391 55.144C56.8671 55.016 57.1211 54.952 57.4011 54.952C57.6811 54.952 57.9331 55.016 58.1571 55.144C58.3811 55.272 58.5571 55.454 58.6851 55.69C58.8171 55.922 58.8831 56.196 58.8831 56.512C58.8831 56.828 58.8171 57.104 58.6851 57.34C58.5531 57.572 58.3731 57.752 58.1451 57.88C57.9211 58.008 57.6691 58.072 57.3891 58.072ZM57.3891 57.64C57.5611 57.64 57.7211 57.598 57.8691 57.514C58.0171 57.43 58.1371 57.304 58.2291 57.136C58.3211 56.968 58.3671 56.76 58.3671 56.512C58.3671 56.264 58.3211 56.056 58.2291 55.888C58.1411 55.72 58.0231 55.594 57.8751 55.51C57.7271 55.426 57.5691 55.384 57.4011 55.384C57.2291 55.384 57.0691 55.426 56.9211 55.51C56.7731 55.594 56.6531 55.72 56.5611 55.888C56.4691 56.056 56.4231 56.264 56.4231 56.512C56.4231 56.76 56.4691 56.968 56.5611 57.136C56.6531 57.304 56.7711 57.43 56.9151 57.514C57.0631 57.598 57.2211 57.64 57.3891 57.64ZM59.5839 58V55.024H60.0399L60.0699 55.558C60.1659 55.37 60.3039 55.222 60.4839 55.114C60.6639 55.006 60.8679 54.952 61.0959 54.952C61.4479 54.952 61.7279 55.06 61.9359 55.276C62.1479 55.488 62.2539 55.816 62.2539 56.26V58H61.7499V56.314C61.7499 55.694 61.4939 55.384 60.9819 55.384C60.7259 55.384 60.5119 55.478 60.3399 55.666C60.1719 55.85 60.0879 56.114 60.0879 56.458V58H59.5839Z" fill="#494C58"/>
<rect x="14" y="64" width="72.973" height="4" rx="0.5" fill="#F1F3F7"/>
<rect x="10" y="72" width="80" height="4" rx="0.5" fill="#F1F3F7"/>
<rect x="24" y="80" width="51.8919" height="4" rx="0.5" fill="#F1F3F7"/>
<rect x="2" y="102" width="96" height="144" rx="6" fill="white" stroke="white" stroke-width="4"/>
<rect opacity="0.5" x="2" y="102" width="96" height="144" rx="6" fill="white" stroke="#FFA84B" stroke-width="4"/>
<path d="M40.5228 164L42.0708 159.8H42.6048L44.1468 164H43.6128L43.2288 162.92H41.4408L41.0508 164H40.5228ZM41.5908 162.512H43.0788L42.3348 160.436L41.5908 162.512ZM44.7411 164V161.024H45.1971L45.2271 161.558C45.3231 161.37 45.4611 161.222 45.6411 161.114C45.8211 161.006 46.0251 160.952 46.2531 160.952C46.6051 160.952 46.8851 161.06 47.0931 161.276C47.3051 161.488 47.4111 161.816 47.4111 162.26V164H46.9071V162.314C46.9071 161.694 46.6511 161.384 46.1391 161.384C45.8831 161.384 45.6691 161.478 45.4971 161.666C45.3291 161.85 45.2451 162.114 45.2451 162.458V164H44.7411ZM49.3147 164.072C48.9587 164.072 48.6627 163.982 48.4267 163.802C48.1907 163.622 48.0527 163.378 48.0127 163.07H48.5287C48.5607 163.226 48.6427 163.362 48.7747 163.478C48.9107 163.59 49.0927 163.646 49.3207 163.646C49.5327 163.646 49.6887 163.602 49.7887 163.514C49.8887 163.422 49.9387 163.314 49.9387 163.19C49.9387 163.01 49.8727 162.89 49.7407 162.83C49.6127 162.77 49.4307 162.716 49.1947 162.668C49.0347 162.636 48.8747 162.59 48.7147 162.53C48.5547 162.47 48.4207 162.386 48.3127 162.278C48.2047 162.166 48.1507 162.02 48.1507 161.84C48.1507 161.58 48.2467 161.368 48.4387 161.204C48.6347 161.036 48.8987 160.952 49.2307 160.952C49.5467 160.952 49.8047 161.032 50.0047 161.192C50.2087 161.348 50.3267 161.572 50.3587 161.864H49.8607C49.8407 161.712 49.7747 161.594 49.6627 161.51C49.5547 161.422 49.4087 161.378 49.2247 161.378C49.0447 161.378 48.9047 161.416 48.8047 161.492C48.7087 161.568 48.6607 161.668 48.6607 161.792C48.6607 161.912 48.7227 162.006 48.8467 162.074C48.9747 162.142 49.1467 162.2 49.3627 162.248C49.5467 162.288 49.7207 162.338 49.8847 162.398C50.0527 162.454 50.1887 162.54 50.2927 162.656C50.4007 162.768 50.4547 162.932 50.4547 163.148C50.4587 163.416 50.3567 163.638 50.1487 163.814C49.9447 163.986 49.6667 164.072 49.3147 164.072ZM51.6634 164L50.7934 161.024H51.2974L51.9274 163.358L52.6234 161.024H53.1934L53.8954 163.358L54.5194 161.024H55.0294L54.1594 164H53.6434L52.9114 161.546L52.1794 164H51.6634ZM56.8135 164.072C56.5295 164.072 56.2775 164.008 56.0575 163.88C55.8375 163.748 55.6635 163.566 55.5355 163.334C55.4115 163.102 55.3495 162.828 55.3495 162.512C55.3495 162.2 55.4115 161.928 55.5355 161.696C55.6595 161.46 55.8315 161.278 56.0515 161.15C56.2755 161.018 56.5335 160.952 56.8255 160.952C57.1135 160.952 57.3615 161.018 57.5695 161.15C57.7815 161.278 57.9435 161.448 58.0555 161.66C58.1675 161.872 58.2235 162.1 58.2235 162.344C58.2235 162.388 58.2215 162.432 58.2175 162.476C58.2175 162.52 58.2175 162.57 58.2175 162.626H55.8475C55.8595 162.854 55.9115 163.044 56.0035 163.196C56.0995 163.344 56.2175 163.456 56.3575 163.532C56.5015 163.608 56.6535 163.646 56.8135 163.646C57.0215 163.646 57.1955 163.598 57.3355 163.502C57.4755 163.406 57.5775 163.276 57.6415 163.112H58.1395C58.0595 163.388 57.9055 163.618 57.6775 163.802C57.4535 163.982 57.1655 164.072 56.8135 164.072ZM56.8135 161.378C56.5735 161.378 56.3595 161.452 56.1715 161.6C55.9875 161.744 55.8815 161.956 55.8535 162.236H57.7255C57.7135 161.968 57.6215 161.758 57.4495 161.606C57.2775 161.454 57.0655 161.378 56.8135 161.378ZM58.8915 164V161.024H59.3475L59.3895 161.594C59.4815 161.398 59.6215 161.242 59.8095 161.126C59.9975 161.01 60.2295 160.952 60.5055 160.952V161.48H60.3675C60.1915 161.48 60.0295 161.512 59.8815 161.576C59.7335 161.636 59.6155 161.74 59.5275 161.888C59.4395 162.036 59.3955 162.24 59.3955 162.5V164H58.8915Z" fill="#494C58"/>
<rect x="14" y="170" width="72.973" height="4" rx="0.5" fill="#F1F3F7"/>
<rect x="10" y="178" width="80" height="4" rx="0.5" fill="#F1F3F7"/>
<rect x="24" y="186" width="51.8919" height="4" rx="0.5" fill="#F1F3F7"/>
<path d="M43.7801 118V113.8H45.4661C45.9021 113.8 46.2341 113.902 46.4621 114.106C46.6941 114.306 46.8101 114.564 46.8101 114.88C46.8101 115.144 46.7381 115.356 46.5941 115.516C46.4541 115.672 46.2821 115.778 46.0781 115.834C46.3181 115.882 46.5161 116.002 46.6721 116.194C46.8281 116.382 46.9061 116.602 46.9061 116.854C46.9061 117.186 46.7861 117.46 46.5461 117.676C46.3061 117.892 45.9661 118 45.5261 118H43.7801ZM44.5481 115.564H45.3521C45.5681 115.564 45.7341 115.514 45.8501 115.414C45.9661 115.314 46.0241 115.172 46.0241 114.988C46.0241 114.812 45.9661 114.674 45.8501 114.574C45.7381 114.47 45.5681 114.418 45.3401 114.418H44.5481V115.564ZM44.5481 117.376H45.4061C45.6341 117.376 45.8101 117.324 45.9341 117.22C46.0621 117.112 46.1261 116.962 46.1261 116.77C46.1261 116.574 46.0601 116.42 45.9281 116.308C45.7961 116.196 45.6181 116.14 45.3941 116.14H44.5481V117.376ZM48.5732 118.072C48.3172 118.072 48.1072 118.032 47.9432 117.952C47.7792 117.868 47.6572 117.758 47.5772 117.622C47.4972 117.486 47.4572 117.336 47.4572 117.172C47.4572 116.896 47.5652 116.672 47.7812 116.5C47.9972 116.328 48.3212 116.242 48.7532 116.242H49.5092V116.17C49.5092 115.966 49.4512 115.816 49.3352 115.72C49.2192 115.624 49.0752 115.576 48.9032 115.576C48.7472 115.576 48.6112 115.614 48.4952 115.69C48.3792 115.762 48.3072 115.87 48.2792 116.014H47.5292C47.5492 115.798 47.6212 115.61 47.7452 115.45C47.8732 115.29 48.0372 115.168 48.2372 115.084C48.4372 114.996 48.6612 114.952 48.9092 114.952C49.3332 114.952 49.6672 115.058 49.9112 115.27C50.1552 115.482 50.2772 115.782 50.2772 116.17V118H49.6232L49.5512 117.52C49.4632 117.68 49.3392 117.812 49.1792 117.916C49.0232 118.02 48.8212 118.072 48.5732 118.072ZM48.7472 117.472C48.9672 117.472 49.1372 117.4 49.2572 117.256C49.3812 117.112 49.4592 116.934 49.4912 116.722H48.8372C48.6332 116.722 48.4872 116.76 48.3992 116.836C48.3112 116.908 48.2672 116.998 48.2672 117.106C48.2672 117.222 48.3112 117.312 48.3992 117.376C48.4872 117.44 48.6032 117.472 48.7472 117.472ZM52.4681 118.072C52.1641 118.072 51.8961 118.006 51.6641 117.874C51.4321 117.742 51.2481 117.558 51.1121 117.322C50.9801 117.086 50.9141 116.816 50.9141 116.512C50.9141 116.208 50.9801 115.938 51.1121 115.702C51.2481 115.466 51.4321 115.282 51.6641 115.15C51.8961 115.018 52.1641 114.952 52.4681 114.952C52.8481 114.952 53.1681 115.052 53.4281 115.252C53.6881 115.448 53.8541 115.72 53.9261 116.068H53.1161C53.0761 115.924 52.9961 115.812 52.8761 115.732C52.7601 115.648 52.6221 115.606 52.4621 115.606C52.2501 115.606 52.0701 115.686 51.9221 115.846C51.7741 116.006 51.7001 116.228 51.7001 116.512C51.7001 116.796 51.7741 117.018 51.9221 117.178C52.0701 117.338 52.2501 117.418 52.4621 117.418C52.6221 117.418 52.7601 117.378 52.8761 117.298C52.9961 117.218 53.0761 117.104 53.1161 116.956H53.9261C53.8541 117.292 53.6881 117.562 53.4281 117.766C53.1681 117.97 52.8481 118.072 52.4681 118.072ZM54.6078 118V113.68H55.3758V116.23L56.4318 115.024H57.3438L56.1258 116.38L57.5418 118H56.5818L55.3758 116.506V118H54.6078Z" fill="#494C58"/>
<rect opacity="0.5" x="118" y="166" width="176" height="80" rx="6" stroke="#00C6B5" stroke-width="4"/>
<rect x="142" y="201" width="128" height="16" rx="4" fill="#F1F3F7"/>
<path d="M153.455 206C152.969 206 152.495 206.144 152.091 206.414C151.687 206.683 151.373 207.067 151.187 207.515C151.001 207.964 150.952 208.457 151.047 208.933C151.142 209.41 151.376 209.847 151.719 210.19C152.062 210.533 152.5 210.767 152.976 210.862C153.452 210.957 153.945 210.908 154.394 210.722C154.842 210.536 155.226 210.222 155.495 209.818C155.765 209.415 155.909 208.94 155.909 208.455C155.909 207.804 155.65 207.179 155.19 206.719C154.73 206.259 154.106 206 153.455 206V206Z" stroke="#494C58" stroke-miterlimit="10"/>
<path d="M155.286 210.285L157 211.999" stroke="#494C58" stroke-miterlimit="10" stroke-linecap="round"/>
<path d="M191.409 195L193.201 190.1H194.209L196.001 195H195.049L194.657 193.866H192.746L192.347 195H191.409ZM192.991 193.166H194.412L193.698 191.129L192.991 193.166ZM196.611 195V191.528H197.409L197.493 192.179C197.619 191.955 197.79 191.778 198.004 191.647C198.224 191.512 198.48 191.444 198.774 191.444V192.389H198.522C198.326 192.389 198.151 192.419 197.997 192.48C197.843 192.541 197.722 192.646 197.633 192.795C197.549 192.944 197.507 193.152 197.507 193.418V195H196.611ZM201.026 195.084C200.671 195.084 200.359 195.007 200.088 194.853C199.817 194.699 199.603 194.484 199.444 194.209C199.29 193.934 199.213 193.619 199.213 193.264C199.213 192.909 199.29 192.594 199.444 192.319C199.603 192.044 199.817 191.829 200.088 191.675C200.359 191.521 200.671 191.444 201.026 191.444C201.469 191.444 201.843 191.561 202.146 191.794C202.449 192.023 202.643 192.34 202.727 192.746H201.782C201.735 192.578 201.642 192.447 201.502 192.354C201.367 192.256 201.206 192.207 201.019 192.207C200.772 192.207 200.562 192.3 200.389 192.487C200.216 192.674 200.13 192.933 200.13 193.264C200.13 193.595 200.216 193.854 200.389 194.041C200.562 194.228 200.772 194.321 201.019 194.321C201.206 194.321 201.367 194.274 201.502 194.181C201.642 194.088 201.735 193.955 201.782 193.782H202.727C202.643 194.174 202.449 194.489 202.146 194.727C201.843 194.965 201.469 195.084 201.026 195.084ZM203.522 195V189.96H204.418V192.06C204.535 191.869 204.691 191.719 204.887 191.612C205.088 191.5 205.317 191.444 205.573 191.444C206.003 191.444 206.334 191.579 206.567 191.85C206.805 192.121 206.924 192.517 206.924 193.04V195H206.035V193.124C206.035 192.825 205.975 192.597 205.853 192.438C205.737 192.279 205.55 192.2 205.293 192.2C205.041 192.2 204.831 192.289 204.663 192.466C204.5 192.643 204.418 192.891 204.418 193.208V195H203.522ZM208.264 190.989C208.101 190.989 207.966 190.94 207.858 190.842C207.756 190.744 207.704 190.62 207.704 190.471C207.704 190.322 207.756 190.2 207.858 190.107C207.966 190.009 208.101 189.96 208.264 189.96C208.428 189.96 208.561 190.009 208.663 190.107C208.771 190.2 208.824 190.322 208.824 190.471C208.824 190.62 208.771 190.744 208.663 190.842C208.561 190.94 208.428 190.989 208.264 190.989ZM207.816 195V191.528H208.712V195H207.816ZM210.585 195L209.311 191.528H210.249L211.131 194.153L212.013 191.528H212.951L211.67 195H210.585ZM215.033 195.084C214.683 195.084 214.372 195.009 214.102 194.86C213.831 194.711 213.619 194.501 213.465 194.23C213.311 193.959 213.234 193.647 213.234 193.292C213.234 192.933 213.308 192.613 213.458 192.333C213.612 192.053 213.822 191.836 214.088 191.682C214.358 191.523 214.676 191.444 215.04 191.444C215.38 191.444 215.681 191.519 215.943 191.668C216.204 191.817 216.407 192.023 216.552 192.284C216.701 192.541 216.776 192.828 216.776 193.145C216.776 193.196 216.773 193.25 216.769 193.306C216.769 193.362 216.766 193.42 216.762 193.481H214.123C214.141 193.752 214.235 193.964 214.403 194.118C214.575 194.272 214.783 194.349 215.026 194.349C215.208 194.349 215.359 194.309 215.481 194.23C215.607 194.146 215.7 194.039 215.761 193.908H216.671C216.605 194.127 216.496 194.328 216.342 194.51C216.192 194.687 216.006 194.827 215.782 194.93C215.562 195.033 215.313 195.084 215.033 195.084ZM215.04 192.172C214.82 192.172 214.627 192.235 214.459 192.361C214.291 192.482 214.183 192.669 214.137 192.921H215.866C215.852 192.692 215.768 192.51 215.614 192.375C215.46 192.24 215.268 192.172 215.04 192.172ZM218.964 195.084C218.656 195.084 218.386 195.035 218.152 194.937C217.919 194.834 217.732 194.694 217.592 194.517C217.452 194.34 217.368 194.134 217.34 193.901H218.243C218.271 194.036 218.346 194.153 218.467 194.251C218.593 194.344 218.754 194.391 218.95 194.391C219.146 194.391 219.289 194.351 219.377 194.272C219.471 194.193 219.517 194.102 219.517 193.999C219.517 193.85 219.452 193.749 219.321 193.698C219.191 193.642 219.009 193.588 218.775 193.537C218.626 193.504 218.474 193.465 218.32 193.418C218.166 193.371 218.024 193.313 217.893 193.243C217.767 193.168 217.665 193.075 217.585 192.963C217.506 192.846 217.466 192.704 217.466 192.536C217.466 192.228 217.588 191.969 217.83 191.759C218.078 191.549 218.423 191.444 218.866 191.444C219.277 191.444 219.604 191.54 219.846 191.731C220.094 191.922 220.241 192.186 220.287 192.522H219.44C219.389 192.265 219.195 192.137 218.859 192.137C218.691 192.137 218.561 192.17 218.467 192.235C218.379 192.3 218.334 192.382 218.334 192.48C218.334 192.583 218.402 192.664 218.537 192.725C218.673 192.786 218.852 192.842 219.076 192.893C219.319 192.949 219.541 193.012 219.741 193.082C219.947 193.147 220.11 193.248 220.231 193.383C220.353 193.514 220.413 193.703 220.413 193.95C220.418 194.165 220.362 194.358 220.245 194.531C220.129 194.704 219.961 194.839 219.741 194.937C219.522 195.035 219.263 195.084 218.964 195.084Z" fill="#494C58"/>
</svg>
