<svg width="296" height="248" viewBox="0 0 296 248" fill="none" xmlns="http://www.w3.org/2000/svg">
	<path
		d="M4 8.24804C4 5.90191 5.89621 4 8.23529 4H287.765C290.104 4 292 5.90191 292 8.24804V161.752C292 164.098 290.104 166 287.765 166H8.2353C5.89621 166 4 164.098 4 161.752V8.24804Z"
		fill="white"/>
	<path fill-rule="evenodd" clip-rule="evenodd"
		  d="M8.23529 0H287.765C292.324 0 296 3.70412 296 8.24804V161.752C296 166.296 292.324 170 287.765 170H8.2353C3.67574 170 0 166.296 0 161.752V8.24804C0 3.70412 3.67574 0 8.23529 0ZM8.23529 4C5.89621 4 4 5.90191 4 8.24804V161.752C4 164.098 5.89621 166 8.2353 166H287.765C290.104 166 292 164.098 292 161.752V8.24804C292 5.90192 290.104 4 287.765 4H8.23529Z"
		  fill="#87EDB1"/>
	<rect x="21.5132" y="9.85547" width="11.6757" height="3.90361" rx="0.5" fill="#F1F3F7"/>
	<rect x="97.4048" y="9.85547" width="31.1351" height="3.90361" rx="0.5" fill="#F1F3F7"/>
	<rect x="221.946" y="9.85547" width="35.027" height="3.90361" rx="0.5" fill="#F1F3F7"/>
	<rect x="221.946" y="19.6133" width="64.2162" height="3.90361" rx="0.5" fill="#F1F3F7"/>
	<rect x="221.946" y="27.4199" width="64.2162" height="3.90361" rx="0.5" fill="#F1F3F7"/>
	<path d="M4 7.99999C4 5.79085 5.79086 4 8 4H15.6757V166H7.99999C5.79086 166 4 164.209 4 162V7.99999Z"
		  fill="#162565"/>
	<rect x="21.7087" y="19.6133" width="3.11351" height="3.12289" rx="0.5" fill="#B6D9FF"/>
	<rect x="27.1566" y="19.6133" width="19.2649" height="3.12289" rx="0.5" fill="#F1F3F7"/>
	<rect x="21.7085" y="41.4727" width="3.11351" height="3.12289" rx="0.5" fill="#B6D9FF"/>
	<rect x="27.1564" y="41.4727" width="17.9027" height="3.12289" rx="0.5" fill="#F1F3F7"/>
	<rect x="21.7085" y="50.4512" width="3.11351" height="3.12289" rx="0.5" fill="#B6D9FF"/>
	<rect x="27.1564" y="50.4512" width="7.3946" height="3.12289" rx="0.5" fill="#F1F3F7"/>
	<rect x="21.7085" y="59.4297" width="3.11351" height="3.12289" rx="0.5" fill="#B6D9FF"/>
	<rect x="27.1569" y="59.4297" width="10.8973" height="3.12289" rx="0.5" fill="#F1F3F7"/>
	<rect x="21.7085" y="68.4082" width="3.11351" height="3.12289" rx="0.5" fill="#B6D9FF"/>
	<rect x="27.1564" y="68.4082" width="16.3459" height="3.12289" rx="0.5" fill="#F1F3F7"/>
	<rect x="21.7085" y="77.3867" width="3.11351" height="3.12289" rx="0.5" fill="#B6D9FF"/>
	<rect x="27.1564" y="77.3867" width="7.58919" height="3.12289" rx="0.5" fill="#F1F3F7"/>
	<rect x="21.7085" y="86.3652" width="3.11351" height="3.12289" rx="0.5" fill="#B6D9FF"/>
	<rect x="27.1564" y="86.3652" width="6.81081" height="3.12289" rx="0.5" fill="#F1F3F7"/>
	<rect x="31.0483" y="30.543" width="8.95135" height="3.12289" rx="0.5" fill="#F1F3F7"/>
	<rect x="21.7085" y="28.5918" width="7.00541" height="7.02649" rx="3.5027" fill="#00C6B5"/>
	<rect x="82.4219" y="30.543" width="3.11351" height="3.12289" rx="0.5" fill="#B6D9FF"/>
	<rect x="21.7085" y="95.3438" width="18.2919" height="3.12289" rx="0.5" fill="#F1F3F7"/>
	<rect x="82.4221" y="95.3438" width="3.11351" height="3.12289" rx="0.5" fill="#B6D9FF"/>
	<rect x="21.7085" y="104.32" width="7.00541" height="7.02649" rx="3.5027" fill="#AC92EB"/>
	<rect x="30.2708" y="104.32" width="21.7946" height="3.12289" rx="0.5" fill="#F1F3F7"/>
	<rect x="30.2708" y="109.004" width="32.8865" height="2.34216" rx="0.5" fill="#F1F3F7"/>
	<rect x="77.5559" y="104.32" width="7.97838" height="2.34216" rx="0.5" fill="#F1F3F7"/>
	<rect x="82.4216" y="108.225" width="3.11351" height="3.12289" rx="1.55676" fill="#87EDB1"/>
	<rect x="21.5132" y="117.203" width="7.00541" height="7.02649" rx="3.5027" fill="#FF6496"/>
	<rect x="30.0754" y="117.203" width="21.7946" height="3.12289" rx="0.5" fill="#F1F3F7"/>
	<rect x="30.0754" y="121.887" width="32.8865" height="2.34216" rx="0.5" fill="#F1F3F7"/>
	<rect x="77.3625" y="117.203" width="7.97838" height="2.34216" rx="0.5" fill="#F1F3F7"/>
	<rect x="82.2263" y="121.107" width="3.11351" height="3.12289" rx="1.55676" fill="#87EDB1"/>
	<rect x="21.5132" y="130.084" width="7.00541" height="7.02649" rx="3.5027" fill="#FFA84B"/>
	<rect x="30.0754" y="130.084" width="21.7946" height="3.12289" rx="0.5" fill="#F1F3F7"/>
	<rect x="30.0754" y="134.768" width="32.8865" height="2.34216" rx="0.5" fill="#F1F3F7"/>
	<rect x="77.3625" y="130.084" width="7.97838" height="2.34216" rx="0.5" fill="#F1F3F7"/>
	<rect x="82.2263" y="133.988" width="3.11351" height="3.12289" rx="1.55676" fill="#87EDB1"/>
	<line x1="91.3179" y1="166" x2="91.3179" y2="4.00024" stroke="#F1F3F7" stroke-width="0.5"/>
	<line x1="215.857" y1="166" x2="215.857" y2="4.00024" stroke="#F1F3F7" stroke-width="0.5"/>
	<rect x="97.4048" y="19.6133" width="112.865" height="2.78372" rx="0.5" fill="#F1F3F7"/>
	<rect x="97.4048" y="25.4688" width="83.6757" height="2.92771" rx="0.5" fill="#F1F3F7"/>
	<rect x="97.4048" y="31.3242" width="6.22703" height="6.24577" rx="3.11351" fill="#218FDF"/>
	<rect x="106.162" y="32.6895" width="16.3459" height="3.12289" rx="0.5" fill="#F1F3F7"/>
	<rect x="97.4048" y="43.4258" width="112.865" height="2.78372" rx="0.5" fill="#F1F3F7"/>
	<rect x="97.4048" y="49.2812" width="83.6757" height="2.92771" rx="0.5" fill="#F1F3F7"/>
	<rect x="97.4048" y="55.1367" width="6.22703" height="6.24577" rx="3.11351" fill="#C5C9D9"/>
	<rect x="106.162" y="56.502" width="16.3459" height="3.12289" rx="0.5" fill="#F1F3F7"/>
	<rect x="97.4048" y="67.4336" width="112.865" height="2.78372" rx="0.5" fill="#F1F3F7"/>
	<rect x="97.4048" y="73.2891" width="83.6757" height="2.92771" rx="0.5" fill="#F1F3F7"/>
	<rect x="97.4048" y="79.1445" width="6.22703" height="6.24577" rx="3.11351" fill="#C5C9D9"/>
	<rect x="106.162" y="80.5098" width="16.3459" height="3.12289" rx="0.5" fill="#F1F3F7"/>
	<rect x="97.4048" y="91.4414" width="112.865" height="2.78372" rx="0.5" fill="#F1F3F7"/>
	<rect x="97.4048" y="97.2969" width="83.6757" height="2.92771" rx="0.5" fill="#F1F3F7"/>
	<rect x="97.4048" y="103.152" width="6.22703" height="6.24577" rx="3.11351" fill="#C5C9D9"/>
	<rect x="106.162" y="104.518" width="16.3459" height="3.12289" rx="0.5" fill="#F1F3F7"/>
	<rect x="97.4048" y="115.449" width="112.865" height="2.78372" rx="0.5" fill="#F1F3F7"/>
	<rect x="97.4048" y="121.305" width="83.6757" height="2.92771" rx="0.5" fill="#F1F3F7"/>
	<rect x="97.4048" y="127.16" width="6.22703" height="6.24577" rx="3.11351" fill="#C5C9D9"/>
	<rect x="106.162" y="128.525" width="16.3459" height="3.12289" rx="0.5" fill="#F1F3F7"/>
	<rect x="97.4048" y="139.65" width="112.865" height="2.78372" rx="0.5" fill="#F1F3F7"/>
	<rect x="97.4048" y="145.506" width="83.6757" height="2.92771" rx="0.5" fill="#F1F3F7"/>
	<rect x="97.4048" y="151.361" width="6.22703" height="6.24577" rx="3.11351" fill="#C5C9D9"/>
	<rect x="106.162" y="152.727" width="16.3459" height="3.12289" rx="0.5" fill="#F1F3F7"/>
	<rect x="282.659" y="9.46484" width="3.89189" height="3.90361" rx="1.94595" fill="#AC92EB"/>
	<rect x="273.708" y="9.85547" width="3.11351" height="3.12289" rx="0.5" fill="#B6D9FF"/>
	<rect x="264.756" y="9.85547" width="3.11351" height="3.12289" rx="0.5" fill="#B6D9FF"/>
	<rect x="221.946" y="37.1797" width="4.86487" height="4.87951" rx="2.43243" fill="#AC92EB"/>
	<rect x="228.757" y="38.0586" width="17.9027" height="3.12289" rx="0.5" fill="#F1F3F7"/>
	<rect x="273.514" y="38.1562" width="12.6486" height="2.92771" rx="0.5" fill="#F1F3F7"/>
	<rect x="221.946" y="45.9629" width="4.86487" height="4.87951" rx="2.43243" fill="#FF6496"/>
	<rect x="228.757" y="46.9395" width="21.4054" height="2.92771" rx="0.5" fill="#F1F3F7"/>
	<rect x="273.514" y="46.9395" width="12.6486" height="2.92771" rx="0.5" fill="#F1F3F7"/>
	<rect x="221.946" y="54.7461" width="4.86487" height="4.87951" rx="2.43243" fill="#FFA84B"/>
	<rect x="228.757" y="55.7227" width="19.4595" height="2.92771" rx="0.5" fill="#F1F3F7"/>
	<rect x="273.514" y="55.7227" width="12.6486" height="2.92771" rx="0.5" fill="#F1F3F7"/>
	<rect x="221.946" y="63.5293" width="4.86487" height="4.87951" rx="2.43243" fill="#218FDF"/>
	<rect x="228.757" y="64.5039" width="24.3243" height="2.92771" rx="0.5" fill="#F1F3F7"/>
	<rect x="273.514" y="64.5039" width="12.6486" height="2.92771" rx="0.5" fill="#F1F3F7"/>
	<rect x="221.946" y="72.3125" width="4.86487" height="4.87951" rx="2.43243" fill="#0FDC64"/>
	<rect x="228.757" y="73.2891" width="15.5676" height="2.92771" rx="0.5" fill="#F1F3F7"/>
	<rect x="273.514" y="73.2891" width="12.6486" height="2.92771" rx="0.5" fill="#F1F3F7"/>
	<rect x="221.946" y="81.0957" width="4.86487" height="4.87951" rx="2.43243" fill="#AC92EB"/>
	<rect x="228.757" y="82.0703" width="19.4595" height="2.92771" rx="0.5" fill="#F1F3F7"/>
	<rect x="273.514" y="82.0703" width="12.6486" height="2.92771" rx="0.5" fill="#F1F3F7"/>
	<rect x="221.946" y="89.8789" width="4.86487" height="4.87951" rx="2.43243" fill="#FF6496"/>
	<rect x="228.757" y="90.8555" width="21.4054" height="2.92771" rx="0.5" fill="#F1F3F7"/>
	<rect x="273.514" y="90.8555" width="12.6486" height="2.92771" rx="0.5" fill="#F1F3F7"/>
	<rect x="221.946" y="98.6621" width="4.86487" height="4.87951" rx="2.43243" fill="#FFA84B"/>
	<rect x="228.757" y="99.5391" width="17.9027" height="3.12289" rx="0.5" fill="#F1F3F7"/>
	<rect x="273.514" y="99.6387" width="12.6486" height="2.92771" rx="0.5" fill="#F1F3F7"/>
	<rect x="221.946" y="107.445" width="4.86487" height="4.87951" rx="2.43243" fill="#218FDF"/>
	<rect x="228.757" y="108.422" width="16.5405" height="2.92771" rx="0.5" fill="#F1F3F7"/>
	<rect x="273.514" y="108.422" width="12.6486" height="2.92771" rx="0.5" fill="#F1F3F7"/>
	<rect x="221.946" y="116.229" width="4.86487" height="4.87951" rx="2.43243" fill="#0FDC64"/>
	<rect x="228.757" y="117.205" width="20.4324" height="2.92771" rx="0.5" fill="#F1F3F7"/>
	<rect x="273.514" y="117.205" width="12.6486" height="2.92771" rx="0.5" fill="#F1F3F7"/>
	<rect x="221.946" y="125.012" width="4.86487" height="4.87951" rx="2.43243" fill="#AC92EB"/>
	<rect x="228.757" y="125.891" width="17.9027" height="3.12289" rx="0.5" fill="#F1F3F7"/>
	<rect x="273.514" y="125.988" width="12.6486" height="2.92771" rx="0.5" fill="#F1F3F7"/>
	<rect x="221.946" y="133.795" width="4.86487" height="4.87951" rx="2.43243" fill="#FF6496"/>
	<rect x="228.757" y="134.77" width="20.4324" height="2.92771" rx="0.5" fill="#F1F3F7"/>
	<rect x="273.514" y="134.77" width="12.6486" height="2.92771" rx="0.5" fill="#F1F3F7"/>
	<rect x="221.946" y="142.578" width="4.86487" height="4.87951" rx="2.43243" fill="#FFA84B"/>
	<rect x="228.757" y="143.555" width="19.4595" height="2.92771" rx="0.5" fill="#F1F3F7"/>
	<rect x="273.514" y="143.555" width="12.6486" height="2.92771" rx="0.5" fill="#F1F3F7"/>
	<rect x="221.946" y="153.312" width="64.2162" height="3.90361" rx="0.5" fill="#B6D9FF"/>
	<path
		d="M106 88C106 85.7909 107.791 84 110 84H186.706C188.915 84 190.706 85.7909 190.706 88V240C190.706 242.209 188.915 244 186.706 244H110C107.791 244 106 242.209 106 240V88Z"
		fill="white"/>
	<path fill-rule="evenodd" clip-rule="evenodd"
		  d="M110 80H186.706C191.124 80 194.706 83.5817 194.706 88V240C194.706 244.418 191.124 248 186.706 248H110C105.582 248 102 244.418 102 240V88C102 83.5817 105.582 80 110 80ZM110 84C107.791 84 106 85.7909 106 88V240C106 242.209 107.791 244 110 244H186.706C188.915 244 190.706 242.209 190.706 240V88C190.706 85.7909 188.915 84 186.706 84H110Z"
		  fill="#B6D9FF"/>
	<rect x="109.765" y="90.2344" width="3.76471" height="3.76471" rx="0.5" fill="#B6D9FF"/>
	<rect x="116.353" y="90.2344" width="23.2941" height="3.76471" rx="0.5" fill="#F1F3F7"/>
	<rect x="109.765" y="120.117" width="3.76471" height="3.76471" rx="0.5" fill="#B6D9FF"/>
	<rect x="116.353" y="120.117" width="21.6471" height="3.76471" rx="0.5" fill="#F1F3F7"/>
	<rect x="109.765" y="129.764" width="3.76471" height="3.76471" rx="0.5" fill="#B6D9FF"/>
	<rect x="116.353" y="129.764" width="8.94118" height="3.76471" rx="0.5" fill="#F1F3F7"/>
	<rect x="109.765" y="139.41" width="3.76471" height="3.76471" rx="0.5" fill="#B6D9FF"/>
	<rect x="116.354" y="139.41" width="13.1765" height="3.76471" rx="0.5" fill="#F1F3F7"/>
	<rect x="109.765" y="149.059" width="3.76471" height="3.76471" rx="0.5" fill="#B6D9FF"/>
	<rect x="116.353" y="149.059" width="19.7647" height="3.76471" rx="0.5" fill="#F1F3F7"/>
	<rect x="109.765" y="158.705" width="3.76471" height="3.76471" rx="0.5" fill="#B6D9FF"/>
	<rect x="116.353" y="158.705" width="9.17647" height="3.76471" rx="0.5" fill="#F1F3F7"/>
	<rect x="109.765" y="168.352" width="3.76471" height="3.76471" rx="0.5" fill="#B6D9FF"/>
	<rect x="116.353" y="168.352" width="8.23529" height="3.76471" rx="0.5" fill="#F1F3F7"/>
	<rect x="121.059" y="108.117" width="10.8235" height="3.76471" rx="0.5" fill="#F1F3F7"/>
	<rect x="109.765" y="105.764" width="8.47059" height="8.47059" rx="4.23529" fill="#00C6B5"/>
	<rect x="183.177" y="108.117" width="3.76471" height="3.76471" rx="0.5" fill="#B6D9FF"/>
	<rect x="109.765" y="183.881" width="22.1176" height="3.76471" rx="0.5" fill="#F1F3F7"/>
	<rect x="183.177" y="183.881" width="3.76471" height="3.76471" rx="0.5" fill="#B6D9FF"/>
	<line x1="106" y1="99.6309" x2="190.706" y2="99.6309" stroke="#F1F3F7" stroke-width="0.5"/>
	<line x1="106" y1="177.748" x2="190.706" y2="177.748" stroke="#F1F3F7" stroke-width="0.5"/>
	<rect x="109.765" y="193.527" width="8.47059" height="8.47059" rx="4.23529" fill="#AC92EB"/>
	<rect x="120.118" y="193.527" width="26.3529" height="3.76471" rx="0.5" fill="#F1F3F7"/>
	<rect x="120.118" y="199.174" width="39.7647" height="2.82353" rx="0.5" fill="#F1F3F7"/>
	<rect x="177.294" y="193.527" width="9.64706" height="2.82353" rx="0.5" fill="#F1F3F7"/>
	<rect x="183.177" y="198.232" width="3.76471" height="3.76471" rx="1.88235" fill="#87EDB1"/>
	<rect x="109.53" y="207.881" width="8.47059" height="8.47059" rx="4.23529" fill="#FF6496"/>
	<rect x="119.882" y="207.881" width="26.3529" height="3.76471" rx="0.5" fill="#F1F3F7"/>
	<rect x="119.882" y="213.527" width="39.7647" height="2.82353" rx="0.5" fill="#F1F3F7"/>
	<rect x="177.058" y="207.881" width="9.64706" height="2.82353" rx="0.5" fill="#F1F3F7"/>
	<rect x="182.941" y="212.586" width="3.76471" height="3.76471" rx="1.88235" fill="#87EDB1"/>
	<rect x="109.53" y="222.234" width="8.47059" height="8.47059" rx="4.23529" fill="#FFA84B"/>
	<rect x="119.882" y="222.234" width="26.3529" height="3.76471" rx="0.5" fill="#F1F3F7"/>
	<rect x="119.882" y="227.881" width="39.7647" height="2.82353" rx="0.5" fill="#F1F3F7"/>
	<rect x="177.058" y="222.234" width="9.64706" height="2.82353" rx="0.5" fill="#F1F3F7"/>
	<rect x="182.941" y="226.939" width="3.76471" height="3.76471" rx="1.88235" fill="#87EDB1"/>
</svg>
