<svg width="296" height="248" viewBox="0 0 296 248" fill="none" xmlns="http://www.w3.org/2000/svg">
	<rect opacity="0.5" x="2" y="2" width="176" height="176" rx="6" stroke="#AC92EB" stroke-width="4"/>
	<path
		d="M19.564 25.108C18.934 25.108 18.382 24.97 17.908 24.694C17.44 24.418 17.071 24.037 16.801 23.551C16.537 23.059 16.405 22.492 16.405 21.85C16.405 21.208 16.537 20.644 16.801 20.158C17.071 19.666 17.44 19.282 17.908 19.006C18.382 18.73 18.934 18.592 19.564 18.592C20.188 18.592 20.737 18.73 21.211 19.006C21.685 19.282 22.054 19.666 22.318 20.158C22.582 20.644 22.714 21.208 22.714 21.85C22.714 22.45 22.597 22.987 22.363 23.461C22.129 23.929 21.805 24.301 21.391 24.577L22.849 26.143H21.418L20.428 25.009C20.152 25.075 19.864 25.108 19.564 25.108ZM19.564 24.073C20.164 24.073 20.641 23.875 20.995 23.479C21.355 23.083 21.535 22.54 21.535 21.85C21.535 21.16 21.355 20.617 20.995 20.221C20.641 19.825 20.164 19.627 19.564 19.627C18.964 19.627 18.484 19.825 18.124 20.221C17.764 20.617 17.584 21.16 17.584 21.85C17.584 22.54 17.764 23.083 18.124 23.479C18.484 23.875 18.964 24.073 19.564 24.073ZM25.4485 25.108C24.8905 25.108 24.4585 24.934 24.1525 24.586C23.8525 24.238 23.7025 23.728 23.7025 23.056V20.536H24.8455V22.948C24.8455 23.332 24.9235 23.626 25.0795 23.83C25.2355 24.034 25.4815 24.136 25.8175 24.136C26.1355 24.136 26.3965 24.022 26.6005 23.794C26.8105 23.566 26.9155 23.248 26.9155 22.84V20.536H28.0675V25H27.0505L26.9605 24.244C26.8225 24.508 26.6215 24.718 26.3575 24.874C26.0995 25.03 25.7965 25.108 25.4485 25.108ZM31.419 25.108C30.969 25.108 30.57 25.012 30.222 24.82C29.874 24.628 29.601 24.358 29.403 24.01C29.205 23.662 29.106 23.26 29.106 22.804C29.106 22.342 29.202 21.931 29.394 21.571C29.592 21.211 29.862 20.932 30.204 20.734C30.552 20.53 30.96 20.428 31.428 20.428C31.866 20.428 32.253 20.524 32.589 20.716C32.925 20.908 33.186 21.172 33.372 21.508C33.564 21.838 33.66 22.207 33.66 22.615C33.66 22.681 33.657 22.75 33.651 22.822C33.651 22.894 33.648 22.969 33.642 23.047H30.249C30.273 23.395 30.393 23.668 30.609 23.866C30.831 24.064 31.098 24.163 31.41 24.163C31.644 24.163 31.839 24.112 31.995 24.01C32.157 23.902 32.277 23.764 32.355 23.596H33.525C33.441 23.878 33.3 24.136 33.102 24.37C32.91 24.598 32.67 24.778 32.382 24.91C32.1 25.042 31.779 25.108 31.419 25.108ZM31.428 21.364C31.146 21.364 30.897 21.445 30.681 21.607C30.465 21.763 30.327 22.003 30.267 22.327H32.49C32.472 22.033 32.364 21.799 32.166 21.625C31.968 21.451 31.722 21.364 31.428 21.364ZM36.4739 25.108C36.0779 25.108 35.7299 25.045 35.4299 24.919C35.1299 24.787 34.8899 24.607 34.7099 24.379C34.5299 24.151 34.4219 23.887 34.3859 23.587H35.5469C35.5829 23.761 35.6789 23.911 35.8349 24.037C35.9969 24.157 36.2039 24.217 36.4559 24.217C36.7079 24.217 36.8909 24.166 37.0049 24.064C37.1249 23.962 37.1849 23.845 37.1849 23.713C37.1849 23.521 37.1009 23.392 36.9329 23.326C36.7649 23.254 36.5309 23.185 36.2309 23.119C36.0389 23.077 35.8439 23.026 35.6459 22.966C35.4479 22.906 35.2649 22.831 35.0969 22.741C34.9349 22.645 34.8029 22.525 34.7009 22.381C34.5989 22.231 34.5479 22.048 34.5479 21.832C34.5479 21.436 34.7039 21.103 35.0159 20.833C35.3339 20.563 35.7779 20.428 36.3479 20.428C36.8759 20.428 37.2959 20.551 37.6079 20.797C37.9259 21.043 38.1149 21.382 38.1749 21.814H37.0859C37.0199 21.484 36.7709 21.319 36.3389 21.319C36.1229 21.319 35.9549 21.361 35.8349 21.445C35.7209 21.529 35.6639 21.634 35.6639 21.76C35.6639 21.892 35.7509 21.997 35.9249 22.075C36.0989 22.153 36.3299 22.225 36.6179 22.291C36.9299 22.363 37.2149 22.444 37.4729 22.534C37.7369 22.618 37.9469 22.747 38.1029 22.921C38.2589 23.089 38.3369 23.332 38.3369 23.65C38.3429 23.926 38.2709 24.175 38.1209 24.397C37.9709 24.619 37.7549 24.793 37.4729 24.919C37.1909 25.045 36.8579 25.108 36.4739 25.108ZM41.2058 25C40.7378 25 40.3628 24.886 40.0808 24.658C39.7988 24.43 39.6578 24.025 39.6578 23.443V21.499H38.8928V20.536H39.6578L39.7928 19.339H40.8098V20.536H42.0158V21.499H40.8098V23.452C40.8098 23.668 40.8548 23.818 40.9448 23.902C41.0408 23.98 41.2028 24.019 41.4308 24.019H41.9888V25H41.2058ZM43.6259 19.843C43.4159 19.843 43.2419 19.78 43.1039 19.654C42.9719 19.528 42.9059 19.369 42.9059 19.177C42.9059 18.985 42.9719 18.829 43.1039 18.709C43.2419 18.583 43.4159 18.52 43.6259 18.52C43.8359 18.52 44.0069 18.583 44.1389 18.709C44.2769 18.829 44.3459 18.985 44.3459 19.177C44.3459 19.369 44.2769 19.528 44.1389 19.654C44.0069 19.78 43.8359 19.843 43.6259 19.843ZM43.0499 25V20.536H44.2019V25H43.0499ZM47.5463 25.108C47.1143 25.108 46.7243 25.009 46.3763 24.811C46.0343 24.613 45.7613 24.34 45.5573 23.992C45.3593 23.638 45.2603 23.23 45.2603 22.768C45.2603 22.306 45.3623 21.901 45.5663 21.553C45.7703 21.199 46.0433 20.923 46.3853 20.725C46.7333 20.527 47.1233 20.428 47.5553 20.428C47.9813 20.428 48.3653 20.527 48.7073 20.725C49.0553 20.923 49.3283 21.199 49.5263 21.553C49.7303 21.901 49.8323 22.306 49.8323 22.768C49.8323 23.23 49.7303 23.638 49.5263 23.992C49.3283 24.34 49.0553 24.613 48.7073 24.811C48.3593 25.009 47.9723 25.108 47.5463 25.108ZM47.5463 24.109C47.8463 24.109 48.1073 23.998 48.3293 23.776C48.5513 23.548 48.6623 23.212 48.6623 22.768C48.6623 22.324 48.5513 21.991 48.3293 21.769C48.1073 21.541 47.8493 21.427 47.5553 21.427C47.2493 21.427 46.9853 21.541 46.7633 21.769C46.5473 21.991 46.4393 22.324 46.4393 22.768C46.4393 23.212 46.5473 23.548 46.7633 23.776C46.9853 23.998 47.2463 24.109 47.5463 24.109ZM50.8623 25V20.536H51.8793L51.9693 21.292C52.1073 21.028 52.3053 20.818 52.5633 20.662C52.8273 20.506 53.1363 20.428 53.4903 20.428C54.0423 20.428 54.4713 20.602 54.7773 20.95C55.0833 21.298 55.2363 21.808 55.2363 22.48V25H54.0843V22.588C54.0843 22.204 54.0063 21.91 53.8503 21.706C53.6943 21.502 53.4513 21.4 53.1213 21.4C52.7973 21.4 52.5303 21.514 52.3203 21.742C52.1163 21.97 52.0143 22.288 52.0143 22.696V25H50.8623Z"
		fill="#494C58"/>
	<rect x="16" y="36" width="135" height="4" rx="0.5" fill="#F1F3F7"/>
	<rect x="16" y="44" width="148" height="4" rx="0.5" fill="#F1F3F7"/>
	<rect x="16" y="52" width="96" height="4" rx="0.5" fill="#F1F3F7"/>
	<path
		d="M16.207 77L18.511 70.7H19.807L22.111 77H20.887L20.383 75.542H17.926L17.413 77H16.207ZM18.241 74.642H20.068L19.15 72.023L18.241 74.642ZM22.8955 77V72.536H23.9125L24.0025 73.292C24.1405 73.028 24.3385 72.818 24.5965 72.662C24.8605 72.506 25.1695 72.428 25.5235 72.428C26.0755 72.428 26.5045 72.602 26.8105 72.95C27.1165 73.298 27.2695 73.808 27.2695 74.48V77H26.1175V74.588C26.1175 74.204 26.0395 73.91 25.8835 73.706C25.7275 73.502 25.4845 73.4 25.1545 73.4C24.8305 73.4 24.5635 73.514 24.3535 73.742C24.1495 73.97 24.0475 74.288 24.0475 74.696V77H22.8955ZM30.2161 77.108C29.8201 77.108 29.4721 77.045 29.1721 76.919C28.8721 76.787 28.6321 76.607 28.4521 76.379C28.2721 76.151 28.1641 75.887 28.1281 75.587H29.2891C29.3251 75.761 29.4211 75.911 29.5771 76.037C29.7391 76.157 29.9461 76.217 30.1981 76.217C30.4501 76.217 30.6331 76.166 30.7471 76.064C30.8671 75.962 30.9271 75.845 30.9271 75.713C30.9271 75.521 30.8431 75.392 30.6751 75.326C30.5071 75.254 30.2731 75.185 29.9731 75.119C29.7811 75.077 29.5861 75.026 29.3881 74.966C29.1901 74.906 29.0071 74.831 28.8391 74.741C28.6771 74.645 28.5451 74.525 28.4431 74.381C28.3411 74.231 28.2901 74.048 28.2901 73.832C28.2901 73.436 28.4461 73.103 28.7581 72.833C29.0761 72.563 29.5201 72.428 30.0901 72.428C30.6181 72.428 31.0381 72.551 31.3501 72.797C31.6681 73.043 31.8571 73.382 31.9171 73.814H30.8281C30.7621 73.484 30.5131 73.319 30.0811 73.319C29.8651 73.319 29.6971 73.361 29.5771 73.445C29.4631 73.529 29.4061 73.634 29.4061 73.76C29.4061 73.892 29.4931 73.997 29.6671 74.075C29.8411 74.153 30.0721 74.225 30.3601 74.291C30.6721 74.363 30.9571 74.444 31.2151 74.534C31.4791 74.618 31.6891 74.747 31.8451 74.921C32.0011 75.089 32.0791 75.332 32.0791 75.65C32.0851 75.926 32.0131 76.175 31.8631 76.397C31.7131 76.619 31.4971 76.793 31.2151 76.919C30.9331 77.045 30.6001 77.108 30.2161 77.108ZM33.8408 77L32.5358 72.536H33.6788L34.4528 75.749L35.3528 72.536H36.6308L37.5308 75.749L38.3138 72.536H39.4568L38.1428 77H36.9458L35.9918 73.661L35.0378 77H33.8408ZM42.1944 77.108C41.7444 77.108 41.3454 77.012 40.9974 76.82C40.6494 76.628 40.3764 76.358 40.1784 76.01C39.9804 75.662 39.8814 75.26 39.8814 74.804C39.8814 74.342 39.9774 73.931 40.1694 73.571C40.3674 73.211 40.6374 72.932 40.9794 72.734C41.3274 72.53 41.7354 72.428 42.2034 72.428C42.6414 72.428 43.0284 72.524 43.3644 72.716C43.7004 72.908 43.9614 73.172 44.1474 73.508C44.3394 73.838 44.4354 74.207 44.4354 74.615C44.4354 74.681 44.4324 74.75 44.4264 74.822C44.4264 74.894 44.4234 74.969 44.4174 75.047H41.0244C41.0484 75.395 41.1684 75.668 41.3844 75.866C41.6064 76.064 41.8734 76.163 42.1854 76.163C42.4194 76.163 42.6144 76.112 42.7704 76.01C42.9324 75.902 43.0524 75.764 43.1304 75.596H44.3004C44.2164 75.878 44.0754 76.136 43.8774 76.37C43.6854 76.598 43.4454 76.778 43.1574 76.91C42.8754 77.042 42.5544 77.108 42.1944 77.108ZM42.2034 73.364C41.9214 73.364 41.6724 73.445 41.4564 73.607C41.2404 73.763 41.1024 74.003 41.0424 74.327H43.2654C43.2474 74.033 43.1394 73.799 42.9414 73.625C42.7434 73.451 42.4974 73.364 42.2034 73.364ZM45.4043 77V72.536H46.4303L46.5383 73.373C46.7003 73.085 46.9193 72.857 47.1953 72.689C47.4773 72.515 47.8073 72.428 48.1853 72.428V73.643H47.8613C47.6093 73.643 47.3843 73.682 47.1863 73.76C46.9883 73.838 46.8323 73.973 46.7183 74.165C46.6103 74.357 46.5563 74.624 46.5563 74.966V77H45.4043ZM50.8177 77.108C50.4217 77.108 50.0737 77.045 49.7737 76.919C49.4737 76.787 49.2337 76.607 49.0537 76.379C48.8737 76.151 48.7657 75.887 48.7297 75.587H49.8907C49.9267 75.761 50.0227 75.911 50.1787 76.037C50.3407 76.157 50.5477 76.217 50.7997 76.217C51.0517 76.217 51.2347 76.166 51.3487 76.064C51.4687 75.962 51.5287 75.845 51.5287 75.713C51.5287 75.521 51.4447 75.392 51.2767 75.326C51.1087 75.254 50.8747 75.185 50.5747 75.119C50.3827 75.077 50.1877 75.026 49.9897 74.966C49.7917 74.906 49.6087 74.831 49.4407 74.741C49.2787 74.645 49.1467 74.525 49.0447 74.381C48.9427 74.231 48.8917 74.048 48.8917 73.832C48.8917 73.436 49.0477 73.103 49.3597 72.833C49.6777 72.563 50.1217 72.428 50.6917 72.428C51.2197 72.428 51.6397 72.551 51.9517 72.797C52.2697 73.043 52.4587 73.382 52.5187 73.814H51.4297C51.3637 73.484 51.1147 73.319 50.6827 73.319C50.4667 73.319 50.2987 73.361 50.1787 73.445C50.0647 73.529 50.0077 73.634 50.0077 73.76C50.0077 73.892 50.0947 73.997 50.2687 74.075C50.4427 74.153 50.6737 74.225 50.9617 74.291C51.2737 74.363 51.5587 74.444 51.8167 74.534C52.0807 74.618 52.2907 74.747 52.4467 74.921C52.6027 75.089 52.6807 75.332 52.6807 75.65C52.6867 75.926 52.6147 76.175 52.4647 76.397C52.3147 76.619 52.0987 76.793 51.8167 76.919C51.5347 77.045 51.2017 77.108 50.8177 77.108ZM57.4117 78.305C57.0757 77.969 56.7757 77.579 56.5117 77.135C56.2537 76.697 56.0467 76.214 55.8907 75.686C55.7407 75.158 55.6657 74.597 55.6657 74.003C55.6657 73.409 55.7407 72.848 55.8907 72.32C56.0467 71.792 56.2537 71.309 56.5117 70.871C56.7757 70.427 57.0757 70.037 57.4117 69.701H58.5637V69.809C58.0237 70.379 57.5947 71.024 57.2767 71.744C56.9587 72.458 56.7997 73.211 56.7997 74.003C56.7997 74.795 56.9587 75.551 57.2767 76.271C57.5947 76.985 58.0237 77.627 58.5637 78.197V78.305H57.4117ZM59.3145 77V76.163C59.6985 75.845 60.0705 75.53 60.4305 75.218C60.7965 74.906 61.1205 74.597 61.4025 74.291C61.6905 73.985 61.9185 73.688 62.0865 73.4C62.2605 73.106 62.3475 72.821 62.3475 72.545C62.3475 72.287 62.2755 72.059 62.1315 71.861C61.9935 71.663 61.7625 71.564 61.4385 71.564C61.1085 71.564 60.8595 71.672 60.6915 71.888C60.5235 72.104 60.4395 72.365 60.4395 72.671H59.3235C59.3355 72.209 59.4375 71.825 59.6295 71.519C59.8215 71.207 60.0765 70.976 60.3945 70.826C60.7125 70.67 61.0695 70.592 61.4655 70.592C62.1075 70.592 62.6055 70.769 62.9595 71.123C63.3195 71.471 63.4995 71.924 63.4995 72.482C63.4995 72.83 63.4185 73.169 63.2565 73.499C63.1005 73.829 62.8935 74.147 62.6355 74.453C62.3775 74.759 62.0985 75.047 61.7985 75.317C61.4985 75.581 61.2075 75.827 60.9255 76.055H63.6525V77H59.3145ZM64.2851 78.305V78.197C64.8251 77.627 65.2541 76.985 65.5721 76.271C65.8901 75.551 66.0491 74.795 66.0491 74.003C66.0491 73.211 65.8901 72.458 65.5721 71.744C65.2541 71.024 64.8251 70.379 64.2851 69.809V69.701H65.4371C65.7731 70.037 66.0701 70.427 66.3281 70.871C66.5921 71.309 66.7991 71.792 66.9491 72.32C67.1051 72.848 67.1831 73.409 67.1831 74.003C67.1831 74.597 67.1051 75.158 66.9491 75.686C66.7991 76.214 66.5921 76.697 66.3281 77.135C66.0701 77.579 65.7731 77.969 65.4371 78.305H64.2851Z"
		fill="#494C58"/>
	<rect x="16" y="104" width="148" height="4" rx="0.5" fill="#F1F3F7"/>
	<rect x="16" y="112" width="96" height="4" rx="0.5" fill="#F1F3F7"/>
	<rect x="16.0269" y="92" width="8" height="8" rx="4" fill="#FFA84B"/>
	<rect x="28.0269" y="94" width="24" height="4" rx="0.5" fill="#F1F3F7"/>
	<rect x="16" y="140" width="148" height="4" rx="0.5" fill="#F1F3F7"/>
	<rect x="16" y="148" width="96" height="4" rx="0.5" fill="#F1F3F7"/>
	<rect x="16.0269" y="128" width="8" height="8" rx="4" fill="#218FDF"/>
	<rect x="28.0269" y="130" width="24" height="4" rx="0.5" fill="#F1F3F7"/>
	<rect x="116" y="68" width="180" height="180" rx="8" fill="white"/>
	<rect opacity="0.5" x="118" y="70" width="176" height="176" rx="6" stroke="#FF6496" stroke-width="4"/>
	<rect x="132" y="164" width="8" height="8" rx="4" fill="#AC92EB"/>
	<rect x="144" y="176" width="136" height="4" rx="0.5" fill="#F1F3F7"/>
	<rect x="144" y="184" width="91.514" height="4" rx="0.5" fill="#F1F3F7"/>
	<path
		d="M145.506 170.072C145.098 170.072 144.77 169.958 144.522 169.73C144.278 169.498 144.156 169.17 144.156 168.746H144.924C144.928 168.942 144.974 169.098 145.062 169.214C145.15 169.33 145.292 169.388 145.488 169.388C145.672 169.388 145.806 169.334 145.89 169.226C145.974 169.114 146.016 168.968 146.016 168.788V165.8H146.784V168.788C146.784 169.2 146.668 169.518 146.436 169.742C146.208 169.962 145.898 170.072 145.506 170.072ZM149.029 170.072C148.729 170.072 148.463 170.008 148.231 169.88C147.999 169.752 147.817 169.572 147.685 169.34C147.553 169.108 147.487 168.84 147.487 168.536C147.487 168.228 147.551 167.954 147.679 167.714C147.811 167.474 147.991 167.288 148.219 167.156C148.451 167.02 148.723 166.952 149.035 166.952C149.327 166.952 149.585 167.016 149.809 167.144C150.033 167.272 150.207 167.448 150.331 167.672C150.459 167.892 150.523 168.138 150.523 168.41C150.523 168.454 150.521 168.5 150.517 168.548C150.517 168.596 150.515 168.646 150.511 168.698H148.249C148.265 168.93 148.345 169.112 148.489 169.244C148.637 169.376 148.815 169.442 149.023 169.442C149.179 169.442 149.309 169.408 149.413 169.34C149.521 169.268 149.601 169.176 149.653 169.064H150.433C150.377 169.252 150.283 169.424 150.151 169.58C150.023 169.732 149.863 169.852 149.671 169.94C149.483 170.028 149.269 170.072 149.029 170.072ZM149.035 167.576C148.847 167.576 148.681 167.63 148.537 167.738C148.393 167.842 148.301 168.002 148.261 168.218H149.743C149.731 168.022 149.659 167.866 149.527 167.75C149.395 167.634 149.231 167.576 149.035 167.576ZM151.169 170V167.024H151.853L151.925 167.582C152.033 167.39 152.179 167.238 152.363 167.126C152.551 167.01 152.771 166.952 153.023 166.952V167.762H152.807C152.639 167.762 152.489 167.788 152.357 167.84C152.225 167.892 152.121 167.982 152.045 168.11C151.973 168.238 151.937 168.416 151.937 168.644V170H151.169ZM153.548 170V167.024H154.232L154.304 167.582C154.412 167.39 154.558 167.238 154.742 167.126C154.93 167.01 155.15 166.952 155.402 166.952V167.762H155.186C155.018 167.762 154.868 167.788 154.736 167.84C154.604 167.892 154.5 167.982 154.424 168.11C154.352 168.238 154.316 168.416 154.316 168.644V170H153.548ZM156.299 171.32L156.989 169.802H156.809L155.651 167.024H156.485L157.319 169.118L158.189 167.024H159.005L157.115 171.32H156.299Z"
		fill="#494C58"/>
	<rect x="132" y="92" width="8" height="8" rx="4" fill="#AC92EB"/>
	<rect x="144" y="104" width="136" height="4" rx="0.5" fill="#F1F3F7"/>
	<rect x="144" y="112" width="91.514" height="4" rx="0.5" fill="#F1F3F7"/>
	<path
		d="M145.506 98.072C145.098 98.072 144.77 97.958 144.522 97.73C144.278 97.498 144.156 97.17 144.156 96.746H144.924C144.928 96.942 144.974 97.098 145.062 97.214C145.15 97.33 145.292 97.388 145.488 97.388C145.672 97.388 145.806 97.334 145.89 97.226C145.974 97.114 146.016 96.968 146.016 96.788V93.8H146.784V96.788C146.784 97.2 146.668 97.518 146.436 97.742C146.208 97.962 145.898 98.072 145.506 98.072ZM149.029 98.072C148.729 98.072 148.463 98.008 148.231 97.88C147.999 97.752 147.817 97.572 147.685 97.34C147.553 97.108 147.487 96.84 147.487 96.536C147.487 96.228 147.551 95.954 147.679 95.714C147.811 95.474 147.991 95.288 148.219 95.156C148.451 95.02 148.723 94.952 149.035 94.952C149.327 94.952 149.585 95.016 149.809 95.144C150.033 95.272 150.207 95.448 150.331 95.672C150.459 95.892 150.523 96.138 150.523 96.41C150.523 96.454 150.521 96.5 150.517 96.548C150.517 96.596 150.515 96.646 150.511 96.698H148.249C148.265 96.93 148.345 97.112 148.489 97.244C148.637 97.376 148.815 97.442 149.023 97.442C149.179 97.442 149.309 97.408 149.413 97.34C149.521 97.268 149.601 97.176 149.653 97.064H150.433C150.377 97.252 150.283 97.424 150.151 97.58C150.023 97.732 149.863 97.852 149.671 97.94C149.483 98.028 149.269 98.072 149.029 98.072ZM149.035 95.576C148.847 95.576 148.681 95.63 148.537 95.738C148.393 95.842 148.301 96.002 148.261 96.218H149.743C149.731 96.022 149.659 95.866 149.527 95.75C149.395 95.634 149.231 95.576 149.035 95.576ZM151.169 98V95.024H151.853L151.925 95.582C152.033 95.39 152.179 95.238 152.363 95.126C152.551 95.01 152.771 94.952 153.023 94.952V95.762H152.807C152.639 95.762 152.489 95.788 152.357 95.84C152.225 95.892 152.121 95.982 152.045 96.11C151.973 96.238 151.937 96.416 151.937 96.644V98H151.169ZM153.548 98V95.024H154.232L154.304 95.582C154.412 95.39 154.558 95.238 154.742 95.126C154.93 95.01 155.15 94.952 155.402 94.952V95.762H155.186C155.018 95.762 154.868 95.788 154.736 95.84C154.604 95.892 154.5 95.982 154.424 96.11C154.352 96.238 154.316 96.416 154.316 96.644V98H153.548ZM156.299 99.32L156.989 97.802H156.809L155.651 95.024H156.485L157.319 97.118L158.189 95.024H159.005L157.115 99.32H156.299Z"
		fill="#494C58"/>
	<rect x="132" y="200" width="8" height="8" rx="4" fill="#218FDF"/>
	<rect x="144" y="212" width="136" height="4" rx="0.5" fill="#F1F3F7"/>
	<rect x="144" y="220" width="91.514" height="4" rx="0.5" fill="#F1F3F7"/>
	<path
		d="M144.408 206V201.8H145.95C146.286 201.8 146.562 201.858 146.778 201.974C146.998 202.086 147.162 202.24 147.27 202.436C147.378 202.628 147.432 202.842 147.432 203.078C147.432 203.334 147.364 203.568 147.228 203.78C147.096 203.992 146.888 204.146 146.604 204.242L147.474 206H146.592L145.812 204.344H145.176V206H144.408ZM145.176 203.78H145.902C146.158 203.78 146.346 203.718 146.466 203.594C146.586 203.47 146.646 203.306 146.646 203.102C146.646 202.902 146.586 202.742 146.466 202.622C146.35 202.502 146.16 202.442 145.896 202.442H145.176V203.78ZM149.043 206.072C148.787 206.072 148.577 206.032 148.413 205.952C148.249 205.868 148.127 205.758 148.047 205.622C147.967 205.486 147.927 205.336 147.927 205.172C147.927 204.896 148.035 204.672 148.251 204.5C148.467 204.328 148.791 204.242 149.223 204.242H149.979V204.17C149.979 203.966 149.921 203.816 149.805 203.72C149.689 203.624 149.545 203.576 149.373 203.576C149.217 203.576 149.081 203.614 148.965 203.69C148.849 203.762 148.777 203.87 148.749 204.014H147.999C148.019 203.798 148.091 203.61 148.215 203.45C148.343 203.29 148.507 203.168 148.707 203.084C148.907 202.996 149.131 202.952 149.379 202.952C149.803 202.952 150.137 203.058 150.381 203.27C150.625 203.482 150.747 203.782 150.747 204.17V206H150.093L150.021 205.52C149.933 205.68 149.809 205.812 149.649 205.916C149.493 206.02 149.291 206.072 149.043 206.072ZM149.217 205.472C149.437 205.472 149.607 205.4 149.727 205.256C149.851 205.112 149.929 204.934 149.961 204.722H149.307C149.103 204.722 148.957 204.76 148.869 204.836C148.781 204.908 148.737 204.998 148.737 205.106C148.737 205.222 148.781 205.312 148.869 205.376C148.957 205.44 149.073 205.472 149.217 205.472ZM151.48 206V201.68H152.248V203.48C152.348 203.316 152.482 203.188 152.65 203.096C152.822 203 153.018 202.952 153.238 202.952C153.606 202.952 153.89 203.068 154.09 203.3C154.294 203.532 154.396 203.872 154.396 204.32V206H153.634V204.392C153.634 204.136 153.582 203.94 153.478 203.804C153.378 203.668 153.218 203.6 152.998 203.6C152.782 203.6 152.602 203.676 152.458 203.828C152.318 203.98 152.248 204.192 152.248 204.464V206H151.48ZM156.576 206.072C156.276 206.072 156.01 206.008 155.778 205.88C155.546 205.752 155.364 205.572 155.232 205.34C155.1 205.108 155.034 204.84 155.034 204.536C155.034 204.228 155.098 203.954 155.226 203.714C155.358 203.474 155.538 203.288 155.766 203.156C155.998 203.02 156.27 202.952 156.582 202.952C156.874 202.952 157.132 203.016 157.356 203.144C157.58 203.272 157.754 203.448 157.878 203.672C158.006 203.892 158.07 204.138 158.07 204.41C158.07 204.454 158.068 204.5 158.064 204.548C158.064 204.596 158.062 204.646 158.058 204.698H155.796C155.812 204.93 155.892 205.112 156.036 205.244C156.184 205.376 156.362 205.442 156.57 205.442C156.726 205.442 156.856 205.408 156.96 205.34C157.068 205.268 157.148 205.176 157.2 205.064H157.98C157.924 205.252 157.83 205.424 157.698 205.58C157.57 205.732 157.41 205.852 157.218 205.94C157.03 206.028 156.816 206.072 156.576 206.072ZM156.582 203.576C156.394 203.576 156.228 203.63 156.084 203.738C155.94 203.842 155.848 204.002 155.808 204.218H157.29C157.278 204.022 157.206 203.866 157.074 203.75C156.942 203.634 156.778 203.576 156.582 203.576ZM160.162 206.072C159.862 206.072 159.596 206.008 159.364 205.88C159.132 205.752 158.95 205.572 158.818 205.34C158.686 205.108 158.62 204.84 158.62 204.536C158.62 204.228 158.684 203.954 158.812 203.714C158.944 203.474 159.124 203.288 159.352 203.156C159.584 203.02 159.856 202.952 160.168 202.952C160.46 202.952 160.718 203.016 160.942 203.144C161.166 203.272 161.34 203.448 161.464 203.672C161.592 203.892 161.656 204.138 161.656 204.41C161.656 204.454 161.654 204.5 161.65 204.548C161.65 204.596 161.648 204.646 161.644 204.698H159.382C159.398 204.93 159.478 205.112 159.622 205.244C159.77 205.376 159.948 205.442 160.156 205.442C160.312 205.442 160.442 205.408 160.546 205.34C160.654 205.268 160.734 205.176 160.786 205.064H161.566C161.51 205.252 161.416 205.424 161.284 205.58C161.156 205.732 160.996 205.852 160.804 205.94C160.616 206.028 160.402 206.072 160.162 206.072ZM160.168 203.576C159.98 203.576 159.814 203.63 159.67 203.738C159.526 203.842 159.434 204.002 159.394 204.218H160.876C160.864 204.022 160.792 203.866 160.66 203.75C160.528 203.634 160.364 203.576 160.168 203.576ZM162.302 206V203.024H162.98L163.046 203.426C163.142 203.282 163.268 203.168 163.424 203.084C163.584 202.996 163.768 202.952 163.976 202.952C164.436 202.952 164.762 203.13 164.954 203.486C165.062 203.322 165.206 203.192 165.386 203.096C165.57 203 165.77 202.952 165.986 202.952C166.374 202.952 166.672 203.068 166.88 203.3C167.088 203.532 167.192 203.872 167.192 204.32V206H166.424V204.392C166.424 204.136 166.374 203.94 166.274 203.804C166.178 203.668 166.028 203.6 165.824 203.6C165.616 203.6 165.448 203.676 165.32 203.828C165.196 203.98 165.134 204.192 165.134 204.464V206H164.366V204.392C164.366 204.136 164.316 203.94 164.216 203.804C164.116 203.668 163.962 203.6 163.754 203.6C163.55 203.6 163.384 203.676 163.256 203.828C163.132 203.98 163.07 204.192 163.07 204.464V206H162.302Z"
		fill="#494C58"/>
	<rect x="132" y="128" width="8" height="8" rx="4" fill="#218FDF"/>
	<rect x="144" y="140" width="136" height="4" rx="0.5" fill="#F1F3F7"/>
	<rect x="144" y="148" width="91.514" height="4" rx="0.5" fill="#F1F3F7"/>
	<path
		d="M144.408 134V129.8H145.95C146.286 129.8 146.562 129.858 146.778 129.974C146.998 130.086 147.162 130.24 147.27 130.436C147.378 130.628 147.432 130.842 147.432 131.078C147.432 131.334 147.364 131.568 147.228 131.78C147.096 131.992 146.888 132.146 146.604 132.242L147.474 134H146.592L145.812 132.344H145.176V134H144.408ZM145.176 131.78H145.902C146.158 131.78 146.346 131.718 146.466 131.594C146.586 131.47 146.646 131.306 146.646 131.102C146.646 130.902 146.586 130.742 146.466 130.622C146.35 130.502 146.16 130.442 145.896 130.442H145.176V131.78ZM149.043 134.072C148.787 134.072 148.577 134.032 148.413 133.952C148.249 133.868 148.127 133.758 148.047 133.622C147.967 133.486 147.927 133.336 147.927 133.172C147.927 132.896 148.035 132.672 148.251 132.5C148.467 132.328 148.791 132.242 149.223 132.242H149.979V132.17C149.979 131.966 149.921 131.816 149.805 131.72C149.689 131.624 149.545 131.576 149.373 131.576C149.217 131.576 149.081 131.614 148.965 131.69C148.849 131.762 148.777 131.87 148.749 132.014H147.999C148.019 131.798 148.091 131.61 148.215 131.45C148.343 131.29 148.507 131.168 148.707 131.084C148.907 130.996 149.131 130.952 149.379 130.952C149.803 130.952 150.137 131.058 150.381 131.27C150.625 131.482 150.747 131.782 150.747 132.17V134H150.093L150.021 133.52C149.933 133.68 149.809 133.812 149.649 133.916C149.493 134.02 149.291 134.072 149.043 134.072ZM149.217 133.472C149.437 133.472 149.607 133.4 149.727 133.256C149.851 133.112 149.929 132.934 149.961 132.722H149.307C149.103 132.722 148.957 132.76 148.869 132.836C148.781 132.908 148.737 132.998 148.737 133.106C148.737 133.222 148.781 133.312 148.869 133.376C148.957 133.44 149.073 133.472 149.217 133.472ZM151.48 134V129.68H152.248V131.48C152.348 131.316 152.482 131.188 152.65 131.096C152.822 131 153.018 130.952 153.238 130.952C153.606 130.952 153.89 131.068 154.09 131.3C154.294 131.532 154.396 131.872 154.396 132.32V134H153.634V132.392C153.634 132.136 153.582 131.94 153.478 131.804C153.378 131.668 153.218 131.6 152.998 131.6C152.782 131.6 152.602 131.676 152.458 131.828C152.318 131.98 152.248 132.192 152.248 132.464V134H151.48ZM156.576 134.072C156.276 134.072 156.01 134.008 155.778 133.88C155.546 133.752 155.364 133.572 155.232 133.34C155.1 133.108 155.034 132.84 155.034 132.536C155.034 132.228 155.098 131.954 155.226 131.714C155.358 131.474 155.538 131.288 155.766 131.156C155.998 131.02 156.27 130.952 156.582 130.952C156.874 130.952 157.132 131.016 157.356 131.144C157.58 131.272 157.754 131.448 157.878 131.672C158.006 131.892 158.07 132.138 158.07 132.41C158.07 132.454 158.068 132.5 158.064 132.548C158.064 132.596 158.062 132.646 158.058 132.698H155.796C155.812 132.93 155.892 133.112 156.036 133.244C156.184 133.376 156.362 133.442 156.57 133.442C156.726 133.442 156.856 133.408 156.96 133.34C157.068 133.268 157.148 133.176 157.2 133.064H157.98C157.924 133.252 157.83 133.424 157.698 133.58C157.57 133.732 157.41 133.852 157.218 133.94C157.03 134.028 156.816 134.072 156.576 134.072ZM156.582 131.576C156.394 131.576 156.228 131.63 156.084 131.738C155.94 131.842 155.848 132.002 155.808 132.218H157.29C157.278 132.022 157.206 131.866 157.074 131.75C156.942 131.634 156.778 131.576 156.582 131.576ZM160.162 134.072C159.862 134.072 159.596 134.008 159.364 133.88C159.132 133.752 158.95 133.572 158.818 133.34C158.686 133.108 158.62 132.84 158.62 132.536C158.62 132.228 158.684 131.954 158.812 131.714C158.944 131.474 159.124 131.288 159.352 131.156C159.584 131.02 159.856 130.952 160.168 130.952C160.46 130.952 160.718 131.016 160.942 131.144C161.166 131.272 161.34 131.448 161.464 131.672C161.592 131.892 161.656 132.138 161.656 132.41C161.656 132.454 161.654 132.5 161.65 132.548C161.65 132.596 161.648 132.646 161.644 132.698H159.382C159.398 132.93 159.478 133.112 159.622 133.244C159.77 133.376 159.948 133.442 160.156 133.442C160.312 133.442 160.442 133.408 160.546 133.34C160.654 133.268 160.734 133.176 160.786 133.064H161.566C161.51 133.252 161.416 133.424 161.284 133.58C161.156 133.732 160.996 133.852 160.804 133.94C160.616 134.028 160.402 134.072 160.162 134.072ZM160.168 131.576C159.98 131.576 159.814 131.63 159.67 131.738C159.526 131.842 159.434 132.002 159.394 132.218H160.876C160.864 132.022 160.792 131.866 160.66 131.75C160.528 131.634 160.364 131.576 160.168 131.576ZM162.302 134V131.024H162.98L163.046 131.426C163.142 131.282 163.268 131.168 163.424 131.084C163.584 130.996 163.768 130.952 163.976 130.952C164.436 130.952 164.762 131.13 164.954 131.486C165.062 131.322 165.206 131.192 165.386 131.096C165.57 131 165.77 130.952 165.986 130.952C166.374 130.952 166.672 131.068 166.88 131.3C167.088 131.532 167.192 131.872 167.192 132.32V134H166.424V132.392C166.424 132.136 166.374 131.94 166.274 131.804C166.178 131.668 166.028 131.6 165.824 131.6C165.616 131.6 165.448 131.676 165.32 131.828C165.196 131.98 165.134 132.192 165.134 132.464V134H164.366V132.392C164.366 132.136 164.316 131.94 164.216 131.804C164.116 131.668 163.962 131.6 163.754 131.6C163.55 131.6 163.384 131.676 163.256 131.828C163.132 131.98 163.07 132.192 163.07 132.464V134H162.302Z"
		fill="#494C58"/>
</svg>
