<svg width="296" height="248" viewBox="0 0 296 248" fill="none" xmlns="http://www.w3.org/2000/svg">
<rect opacity="0.5" x="2.00012" y="2" width="292" height="36" rx="6" stroke="#FFA84B" stroke-width="4"/>
<path d="M44.3601 24L47.4561 15.6H48.5241L51.6081 24H50.5401L49.7721 21.84H46.1961L45.4161 24H44.3601ZM46.4961 21.024H49.4721L47.9841 16.872L46.4961 21.024ZM52.7969 24V18.048H53.7089L53.7689 19.116C53.9609 18.74 54.2369 18.444 54.5969 18.228C54.9569 18.012 55.3649 17.904 55.8209 17.904C56.5249 17.904 57.0849 18.12 57.5009 18.552C57.9249 18.976 58.1369 19.632 58.1369 20.52V24H57.1289V20.628C57.1289 19.388 56.6169 18.768 55.5929 18.768C55.0809 18.768 54.6529 18.956 54.3089 19.332C53.9729 19.7 53.8049 20.228 53.8049 20.916V24H52.7969ZM59.6641 24V18.048H60.5761L60.6361 19.116C60.8281 18.74 61.1041 18.444 61.4641 18.228C61.8241 18.012 62.2321 17.904 62.6881 17.904C63.3921 17.904 63.9521 18.12 64.3681 18.552C64.7921 18.976 65.0041 19.632 65.0041 20.52V24H63.9961V20.628C63.9961 19.388 63.4841 18.768 62.4601 18.768C61.9481 18.768 61.5201 18.956 61.1761 19.332C60.8401 19.7 60.6721 20.228 60.6721 20.916V24H59.6641ZM69.2432 24.144C68.6832 24.144 68.1792 24.016 67.7312 23.76C67.2832 23.504 66.9272 23.144 66.6632 22.68C66.4072 22.208 66.2792 21.656 66.2792 21.024C66.2792 20.392 66.4112 19.844 66.6752 19.38C66.9392 18.908 67.2952 18.544 67.7432 18.288C68.1992 18.032 68.7072 17.904 69.2672 17.904C69.8272 17.904 70.3312 18.032 70.7792 18.288C71.2272 18.544 71.5792 18.908 71.8352 19.38C72.0992 19.844 72.2312 20.392 72.2312 21.024C72.2312 21.656 72.0992 22.208 71.8352 22.68C71.5712 23.144 71.2112 23.504 70.7552 23.76C70.3072 24.016 69.8032 24.144 69.2432 24.144ZM69.2432 23.28C69.5872 23.28 69.9072 23.196 70.2032 23.028C70.4992 22.86 70.7392 22.608 70.9232 22.272C71.1072 21.936 71.1992 21.52 71.1992 21.024C71.1992 20.528 71.1072 20.112 70.9232 19.776C70.7472 19.44 70.5112 19.188 70.2152 19.02C69.9192 18.852 69.6032 18.768 69.2672 18.768C68.9232 18.768 68.6032 18.852 68.3072 19.02C68.0112 19.188 67.7712 19.44 67.5872 19.776C67.4032 20.112 67.3112 20.528 67.3112 21.024C67.3112 21.52 67.4032 21.936 67.5872 22.272C67.7712 22.608 68.0072 22.86 68.2952 23.028C68.5912 23.196 68.9072 23.28 69.2432 23.28ZM75.8048 24.144C75.1008 24.144 74.5408 23.932 74.1248 23.508C73.7088 23.076 73.5008 22.416 73.5008 21.528V18.048H74.5088V21.42C74.5088 22.66 75.0168 23.28 76.0328 23.28C76.5528 23.28 76.9808 23.096 77.3168 22.728C77.6608 22.352 77.8328 21.82 77.8328 21.132V18.048H78.8408V24H77.9288L77.8568 22.932C77.6728 23.308 77.3968 23.604 77.0288 23.82C76.6688 24.036 76.2608 24.144 75.8048 24.144ZM80.5 24V18.048H81.412L81.472 19.116C81.664 18.74 81.94 18.444 82.3 18.228C82.66 18.012 83.068 17.904 83.524 17.904C84.228 17.904 84.788 18.12 85.204 18.552C85.628 18.976 85.84 19.632 85.84 20.52V24H84.832V20.628C84.832 19.388 84.32 18.768 83.296 18.768C82.784 18.768 82.356 18.956 82.012 19.332C81.676 19.7 81.508 20.228 81.508 20.916V24H80.5ZM90.1032 24.144C89.5352 24.144 89.0232 24.016 88.5672 23.76C88.1192 23.496 87.7632 23.132 87.4992 22.668C87.2432 22.196 87.1152 21.648 87.1152 21.024C87.1152 20.4 87.2432 19.856 87.4992 19.392C87.7632 18.92 88.1192 18.556 88.5672 18.3C89.0232 18.036 89.5352 17.904 90.1032 17.904C90.8072 17.904 91.3992 18.088 91.8792 18.456C92.3672 18.824 92.6752 19.316 92.8032 19.932H91.7712C91.6912 19.564 91.4952 19.28 91.1832 19.08C90.8712 18.872 90.5072 18.768 90.0912 18.768C89.7552 18.768 89.4392 18.852 89.1432 19.02C88.8472 19.188 88.6072 19.44 88.4232 19.776C88.2392 20.112 88.1472 20.528 88.1472 21.024C88.1472 21.52 88.2392 21.936 88.4232 22.272C88.6072 22.608 88.8472 22.864 89.1432 23.04C89.4392 23.208 89.7552 23.292 90.0912 23.292C90.5072 23.292 90.8712 23.192 91.1832 22.992C91.4952 22.784 91.6912 22.492 91.7712 22.116H92.8032C92.6832 22.716 92.3792 23.204 91.8912 23.58C91.4032 23.956 90.8072 24.144 90.1032 24.144ZM96.8869 24.144C96.3189 24.144 95.8149 24.016 95.3749 23.76C94.9349 23.496 94.5869 23.132 94.3309 22.668C94.0829 22.204 93.9589 21.656 93.9589 21.024C93.9589 20.4 94.0829 19.856 94.3309 19.392C94.5789 18.92 94.9229 18.556 95.3629 18.3C95.8109 18.036 96.3269 17.904 96.9109 17.904C97.4869 17.904 97.9829 18.036 98.3989 18.3C98.8229 18.556 99.1469 18.896 99.3709 19.32C99.5949 19.744 99.7069 20.2 99.7069 20.688C99.7069 20.776 99.7029 20.864 99.6949 20.952C99.6949 21.04 99.6949 21.14 99.6949 21.252H94.9549C94.9789 21.708 95.0829 22.088 95.2669 22.392C95.4589 22.688 95.6949 22.912 95.9749 23.064C96.2629 23.216 96.5669 23.292 96.8869 23.292C97.3029 23.292 97.6509 23.196 97.9309 23.004C98.2109 22.812 98.4149 22.552 98.5429 22.224H99.5389C99.3789 22.776 99.0709 23.236 98.6149 23.604C98.1669 23.964 97.5909 24.144 96.8869 24.144ZM96.8869 18.756C96.4069 18.756 95.9789 18.904 95.6029 19.2C95.2349 19.488 95.0229 19.912 94.9669 20.472H98.7109C98.6869 19.936 98.5029 19.516 98.1589 19.212C97.8149 18.908 97.3909 18.756 96.8869 18.756ZM101.043 24V18.048H101.955L102.027 18.912C102.219 18.592 102.475 18.344 102.795 18.168C103.115 17.992 103.475 17.904 103.875 17.904C104.347 17.904 104.751 18 105.087 18.192C105.431 18.384 105.695 18.676 105.879 19.068C106.087 18.708 106.371 18.424 106.731 18.216C107.099 18.008 107.495 17.904 107.919 17.904C108.631 17.904 109.199 18.12 109.623 18.552C110.047 18.976 110.259 19.632 110.259 20.52V24H109.263V20.628C109.263 20.012 109.139 19.548 108.891 19.236C108.643 18.924 108.287 18.768 107.823 18.768C107.343 18.768 106.943 18.956 106.623 19.332C106.311 19.7 106.155 20.228 106.155 20.916V24H105.147V20.628C105.147 20.012 105.023 19.548 104.775 19.236C104.527 18.924 104.171 18.768 103.707 18.768C103.235 18.768 102.839 18.956 102.519 19.332C102.207 19.7 102.051 20.228 102.051 20.916V24H101.043ZM114.453 24.144C113.885 24.144 113.381 24.016 112.941 23.76C112.501 23.496 112.153 23.132 111.897 22.668C111.649 22.204 111.525 21.656 111.525 21.024C111.525 20.4 111.649 19.856 111.897 19.392C112.145 18.92 112.489 18.556 112.929 18.3C113.377 18.036 113.893 17.904 114.477 17.904C115.053 17.904 115.549 18.036 115.965 18.3C116.389 18.556 116.713 18.896 116.937 19.32C117.161 19.744 117.273 20.2 117.273 20.688C117.273 20.776 117.269 20.864 117.261 20.952C117.261 21.04 117.261 21.14 117.261 21.252H112.521C112.545 21.708 112.649 22.088 112.833 22.392C113.025 22.688 113.261 22.912 113.541 23.064C113.829 23.216 114.133 23.292 114.453 23.292C114.869 23.292 115.217 23.196 115.497 23.004C115.777 22.812 115.981 22.552 116.109 22.224H117.105C116.945 22.776 116.637 23.236 116.181 23.604C115.733 23.964 115.157 24.144 114.453 24.144ZM114.453 18.756C113.973 18.756 113.545 18.904 113.169 19.2C112.801 19.488 112.589 19.912 112.533 20.472H116.277C116.253 19.936 116.069 19.516 115.725 19.212C115.381 18.908 114.957 18.756 114.453 18.756ZM118.609 24V18.048H119.521L119.581 19.116C119.773 18.74 120.049 18.444 120.409 18.228C120.769 18.012 121.177 17.904 121.633 17.904C122.337 17.904 122.897 18.12 123.313 18.552C123.737 18.976 123.949 19.632 123.949 20.52V24H122.941V20.628C122.941 19.388 122.429 18.768 121.405 18.768C120.893 18.768 120.465 18.956 120.121 19.332C119.785 19.7 119.617 20.228 119.617 20.916V24H118.609ZM127.829 24C127.285 24 126.857 23.868 126.545 23.604C126.233 23.34 126.077 22.864 126.077 22.176V18.9H125.045V18.048H126.077L126.209 16.62H127.085V18.048H128.837V18.9H127.085V22.176C127.085 22.552 127.161 22.808 127.313 22.944C127.465 23.072 127.733 23.136 128.117 23.136H128.741V24H127.829ZM132.397 24.144C131.685 24.144 131.093 23.964 130.621 23.604C130.149 23.244 129.873 22.756 129.793 22.14H130.825C130.889 22.452 131.053 22.724 131.317 22.956C131.589 23.18 131.953 23.292 132.409 23.292C132.833 23.292 133.145 23.204 133.345 23.028C133.545 22.844 133.645 22.628 133.645 22.38C133.645 22.02 133.513 21.78 133.249 21.66C132.993 21.54 132.629 21.432 132.157 21.336C131.837 21.272 131.517 21.18 131.197 21.06C130.877 20.94 130.609 20.772 130.393 20.556C130.177 20.332 130.069 20.04 130.069 19.68C130.069 19.16 130.261 18.736 130.645 18.408C131.037 18.072 131.565 17.904 132.229 17.904C132.861 17.904 133.377 18.064 133.777 18.384C134.185 18.696 134.421 19.144 134.485 19.728H133.489C133.449 19.424 133.317 19.188 133.093 19.02C132.877 18.844 132.585 18.756 132.217 18.756C131.857 18.756 131.577 18.832 131.377 18.984C131.185 19.136 131.089 19.336 131.089 19.584C131.089 19.824 131.213 20.012 131.461 20.148C131.717 20.284 132.061 20.4 132.493 20.496C132.861 20.576 133.209 20.676 133.537 20.796C133.873 20.908 134.145 21.08 134.353 21.312C134.569 21.536 134.677 21.864 134.677 22.296C134.685 22.832 134.481 23.276 134.065 23.628C133.657 23.972 133.101 24.144 132.397 24.144Z" fill="#494C58"/>
<path d="M28.7482 13.6319C28.7482 13.6319 26.0407 17 23.5001 17H18.5001C18.3675 17 18.2403 17.0527 18.1466 17.1465C18.0528 17.2403 18.0001 17.3674 18.0001 17.5V20.5C18.0001 20.6327 18.0528 20.7598 18.1466 20.8536C18.2403 20.9474 18.3675 21 18.5001 21H23.5001C26.0407 21 28.7482 24.3822 28.7482 24.3822C28.9376 24.6322 29.5001 24.461 29.5001 24.075V13.9375C29.5001 13.5529 28.9689 13.3494 28.7482 13.6319Z" stroke="#494C58" stroke-linecap="round" stroke-linejoin="round"/>
<path d="M18.0001 20C18.0001 20 17.5001 19.8125 17.5001 19C17.5001 18.1875 18.0001 18 18.0001 18" stroke="#494C58" stroke-linecap="round" stroke-linejoin="round"/>
<path d="M30.0001 19.6875C30.0001 19.6875 30.5001 19.5522 30.5001 19C30.5001 18.4478 30.0001 18.3125 30.0001 18.3125" stroke="#494C58" stroke-linecap="round" stroke-linejoin="round"/>
<path d="M24.0001 17V21" stroke="#494C58" stroke-linecap="round" stroke-linejoin="round"/>
<path d="M19.5001 17V21" stroke="#494C58" stroke-linecap="round" stroke-linejoin="round"/>
<path d="M20.5001 21V26.25C20.5001 26.3163 20.5265 26.3799 20.5733 26.4268C20.6202 26.4737 20.6838 26.5 20.7501 26.5H22.4064C22.4847 26.5 22.5619 26.4816 22.6319 26.4464C22.7018 26.4111 22.7624 26.3598 22.8089 26.2968C22.8554 26.2338 22.8864 26.1607 22.8995 26.0835C22.9126 26.0062 22.9073 25.927 22.8842 25.8522C22.6223 25.0122 22.0001 24.065 22.0001 22.5H22.5001C22.6327 22.5 22.7599 22.4473 22.8537 22.3536C22.9474 22.2598 23.0001 22.1326 23.0001 22V21.5C23.0001 21.3674 22.9474 21.2402 22.8537 21.1464C22.7599 21.0527 22.6327 21 22.5001 21H22.0001" stroke="#494C58" stroke-linecap="round" stroke-linejoin="round"/>
<rect opacity="0.5" x="2.00012" y="106" width="292" height="36" rx="6" stroke="#AC92EB" stroke-width="4"/>
<path d="M46.8561 128V120.428H44.3481V119.6H50.3721V120.428H47.8641V128H46.8561ZM52.155 120.728C51.955 120.728 51.787 120.664 51.651 120.536C51.523 120.4 51.459 120.232 51.459 120.032C51.459 119.84 51.523 119.68 51.651 119.552C51.787 119.424 51.955 119.36 52.155 119.36C52.347 119.36 52.511 119.424 52.647 119.552C52.783 119.68 52.851 119.84 52.851 120.032C52.851 120.232 52.783 120.4 52.647 120.536C52.511 120.664 52.347 120.728 52.155 120.728ZM51.651 128V122.048H52.659V128H51.651ZM54.4141 128V122.048H55.3261L55.3981 122.912C55.5901 122.592 55.8461 122.344 56.1661 122.168C56.4861 121.992 56.8461 121.904 57.2461 121.904C57.7181 121.904 58.1221 122 58.4581 122.192C58.8021 122.384 59.0661 122.676 59.2501 123.068C59.4581 122.708 59.7421 122.424 60.1021 122.216C60.4701 122.008 60.8661 121.904 61.2901 121.904C62.0021 121.904 62.5701 122.12 62.9941 122.552C63.4181 122.976 63.6301 123.632 63.6301 124.52V128H62.6341V124.628C62.6341 124.012 62.5101 123.548 62.2621 123.236C62.0141 122.924 61.6581 122.768 61.1941 122.768C60.7141 122.768 60.3141 122.956 59.9941 123.332C59.6821 123.7 59.5261 124.228 59.5261 124.916V128H58.5181V124.628C58.5181 124.012 58.3941 123.548 58.1461 123.236C57.8981 122.924 57.5421 122.768 57.0781 122.768C56.6061 122.768 56.2101 122.956 55.8901 123.332C55.5781 123.7 55.4221 124.228 55.4221 124.916V128H54.4141ZM67.8244 128.144C67.2564 128.144 66.7524 128.016 66.3124 127.76C65.8724 127.496 65.5244 127.132 65.2684 126.668C65.0204 126.204 64.8964 125.656 64.8964 125.024C64.8964 124.4 65.0204 123.856 65.2684 123.392C65.5164 122.92 65.8604 122.556 66.3004 122.3C66.7484 122.036 67.2644 121.904 67.8484 121.904C68.4244 121.904 68.9204 122.036 69.3364 122.3C69.7604 122.556 70.0844 122.896 70.3084 123.32C70.5324 123.744 70.6444 124.2 70.6444 124.688C70.6444 124.776 70.6404 124.864 70.6324 124.952C70.6324 125.04 70.6324 125.14 70.6324 125.252H65.8924C65.9164 125.708 66.0204 126.088 66.2044 126.392C66.3964 126.688 66.6324 126.912 66.9124 127.064C67.2004 127.216 67.5044 127.292 67.8244 127.292C68.2404 127.292 68.5884 127.196 68.8684 127.004C69.1484 126.812 69.3524 126.552 69.4804 126.224H70.4764C70.3164 126.776 70.0084 127.236 69.5524 127.604C69.1044 127.964 68.5284 128.144 67.8244 128.144ZM67.8244 122.756C67.3444 122.756 66.9164 122.904 66.5404 123.2C66.1724 123.488 65.9604 123.912 65.9044 124.472H69.6484C69.6244 123.936 69.4404 123.516 69.0964 123.212C68.7524 122.908 68.3284 122.756 67.8244 122.756ZM74.1332 128C73.5892 128 73.1612 127.868 72.8492 127.604C72.5372 127.34 72.3812 126.864 72.3812 126.176V122.9H71.3492V122.048H72.3812L72.5132 120.62H73.3892V122.048H75.1412V122.9H73.3892V126.176C73.3892 126.552 73.4652 126.808 73.6172 126.944C73.7692 127.072 74.0372 127.136 74.4212 127.136H75.0452V128H74.1332ZM78.4019 128.144C77.9059 128.144 77.4939 128.06 77.1659 127.892C76.8379 127.724 76.5939 127.5 76.4339 127.22C76.2739 126.94 76.1939 126.636 76.1939 126.308C76.1939 125.7 76.4259 125.232 76.8899 124.904C77.3539 124.576 77.9859 124.412 78.7859 124.412H80.3939V124.34C80.3939 123.82 80.2579 123.428 79.9859 123.164C79.7139 122.892 79.3499 122.756 78.8939 122.756C78.5019 122.756 78.1619 122.856 77.8739 123.056C77.5939 123.248 77.4179 123.532 77.3459 123.908H76.3139C76.3539 123.476 76.4979 123.112 76.7459 122.816C77.0019 122.52 77.3179 122.296 77.6939 122.144C78.0699 121.984 78.4699 121.904 78.8939 121.904C79.7259 121.904 80.3499 122.128 80.7659 122.576C81.1899 123.016 81.4019 123.604 81.4019 124.34V128H80.5019L80.4419 126.932C80.2739 127.268 80.0259 127.556 79.6979 127.796C79.3779 128.028 78.9459 128.144 78.4019 128.144ZM78.5579 127.292C78.9419 127.292 79.2699 127.192 79.5419 126.992C79.8219 126.792 80.0339 126.532 80.1779 126.212C80.3219 125.892 80.3939 125.556 80.3939 125.204V125.192H78.8699C78.2779 125.192 77.8579 125.296 77.6099 125.504C77.3699 125.704 77.2499 125.956 77.2499 126.26C77.2499 126.572 77.3619 126.824 77.5859 127.016C77.8179 127.2 78.1419 127.292 78.5579 127.292ZM86.0941 128.144C85.6061 128.144 85.1701 128.044 84.7861 127.844C84.4101 127.644 84.1221 127.364 83.9221 127.004L83.8261 128H82.9141V119.36H83.9221V123.032C84.1141 122.744 84.3861 122.484 84.7381 122.252C85.0981 122.02 85.5541 121.904 86.1061 121.904C86.6981 121.904 87.2141 122.04 87.6541 122.312C88.0941 122.584 88.4341 122.956 88.6741 123.428C88.9221 123.9 89.0461 124.436 89.0461 125.036C89.0461 125.636 88.9221 126.172 88.6741 126.644C88.4341 127.108 88.0901 127.476 87.6421 127.748C87.2021 128.012 86.6861 128.144 86.0941 128.144ZM85.9861 127.268C86.3861 127.268 86.7381 127.176 87.0421 126.992C87.3461 126.8 87.5861 126.536 87.7621 126.2C87.9381 125.864 88.0261 125.472 88.0261 125.024C88.0261 124.576 87.9381 124.184 87.7621 123.848C87.5861 123.512 87.3461 123.252 87.0421 123.068C86.7381 122.876 86.3861 122.78 85.9861 122.78C85.5861 122.78 85.2341 122.876 84.9301 123.068C84.6261 123.252 84.3861 123.512 84.2101 123.848C84.0341 124.184 83.9461 124.576 83.9461 125.024C83.9461 125.472 84.0341 125.864 84.2101 126.2C84.3861 126.536 84.6261 126.8 84.9301 126.992C85.2341 127.176 85.5861 127.268 85.9861 127.268ZM90.4492 128V119.36H91.4572V128H90.4492ZM95.7854 128.144C95.2174 128.144 94.7134 128.016 94.2734 127.76C93.8334 127.496 93.4854 127.132 93.2294 126.668C92.9814 126.204 92.8574 125.656 92.8574 125.024C92.8574 124.4 92.9814 123.856 93.2294 123.392C93.4774 122.92 93.8214 122.556 94.2614 122.3C94.7094 122.036 95.2254 121.904 95.8094 121.904C96.3854 121.904 96.8814 122.036 97.2974 122.3C97.7214 122.556 98.0454 122.896 98.2694 123.32C98.4934 123.744 98.6054 124.2 98.6054 124.688C98.6054 124.776 98.6014 124.864 98.5934 124.952C98.5934 125.04 98.5934 125.14 98.5934 125.252H93.8534C93.8774 125.708 93.9814 126.088 94.1654 126.392C94.3574 126.688 94.5934 126.912 94.8734 127.064C95.1614 127.216 95.4654 127.292 95.7854 127.292C96.2014 127.292 96.5494 127.196 96.8294 127.004C97.1094 126.812 97.3134 126.552 97.4414 126.224H98.4374C98.2774 126.776 97.9694 127.236 97.5134 127.604C97.0654 127.964 96.4894 128.144 95.7854 128.144ZM95.7854 122.756C95.3054 122.756 94.8774 122.904 94.5014 123.2C94.1334 123.488 93.9214 123.912 93.8654 124.472H97.6094C97.5854 123.936 97.4014 123.516 97.0574 123.212C96.7134 122.908 96.2894 122.756 95.7854 122.756Z" fill="#494C58"/>
<path d="M29.0001 118.5H19.0001C18.1717 118.5 17.5001 119.172 17.5001 120V129C17.5001 129.828 18.1717 130.5 19.0001 130.5H29.0001C29.8285 130.5 30.5001 129.828 30.5001 129V120C30.5001 119.172 29.8285 118.5 29.0001 118.5Z" stroke="#494C58" stroke-linejoin="round"/>
<path d="M20.0001 117.5V118.5" stroke="#494C58" stroke-linecap="round" stroke-linejoin="round"/>
<path d="M28.0001 117.5V118.5" stroke="#494C58" stroke-linecap="round" stroke-linejoin="round"/>
<path d="M30.5001 121H17.5001" stroke="#494C58" stroke-linecap="round" stroke-linejoin="round"/>
<rect opacity="0.5" x="2.00012" y="54" width="292" height="36" rx="6" stroke="#FF6496" stroke-width="4"/>
<path d="M48.5721 76.144C47.7481 76.144 47.0361 75.964 46.4361 75.604C45.8441 75.236 45.3841 74.728 45.0561 74.08C44.7281 73.424 44.5641 72.664 44.5641 71.8C44.5641 70.944 44.7281 70.192 45.0561 69.544C45.3841 68.888 45.8441 68.376 46.4361 68.008C47.0361 67.64 47.7481 67.456 48.5721 67.456C49.5321 67.456 50.3121 67.688 50.9121 68.152C51.5201 68.608 51.9081 69.248 52.0761 70.072H50.9601C50.8321 69.552 50.5681 69.136 50.1681 68.824C49.7761 68.504 49.2441 68.344 48.5721 68.344C47.9721 68.344 47.4481 68.484 47.0001 68.764C46.5521 69.036 46.2041 69.432 45.9561 69.952C45.7161 70.464 45.5961 71.08 45.5961 71.8C45.5961 72.52 45.7161 73.14 45.9561 73.66C46.2041 74.172 46.5521 74.568 47.0001 74.848C47.4481 75.12 47.9721 75.256 48.5721 75.256C49.2441 75.256 49.7761 75.104 50.1681 74.8C50.5681 74.488 50.8321 74.076 50.9601 73.564H52.0761C51.9081 74.372 51.5201 75.004 50.9121 75.46C50.3121 75.916 49.5321 76.144 48.5721 76.144ZM56.1768 76.144C55.6168 76.144 55.1128 76.016 54.6648 75.76C54.2168 75.504 53.8608 75.144 53.5968 74.68C53.3408 74.208 53.2128 73.656 53.2128 73.024C53.2128 72.392 53.3448 71.844 53.6088 71.38C53.8728 70.908 54.2288 70.544 54.6768 70.288C55.1328 70.032 55.6408 69.904 56.2008 69.904C56.7608 69.904 57.2648 70.032 57.7128 70.288C58.1608 70.544 58.5128 70.908 58.7688 71.38C59.0328 71.844 59.1648 72.392 59.1648 73.024C59.1648 73.656 59.0328 74.208 58.7688 74.68C58.5048 75.144 58.1448 75.504 57.6888 75.76C57.2408 76.016 56.7368 76.144 56.1768 76.144ZM56.1768 75.28C56.5208 75.28 56.8408 75.196 57.1368 75.028C57.4328 74.86 57.6728 74.608 57.8568 74.272C58.0408 73.936 58.1328 73.52 58.1328 73.024C58.1328 72.528 58.0408 72.112 57.8568 71.776C57.6808 71.44 57.4448 71.188 57.1488 71.02C56.8528 70.852 56.5368 70.768 56.2008 70.768C55.8568 70.768 55.5368 70.852 55.2408 71.02C54.9448 71.188 54.7048 71.44 54.5208 71.776C54.3368 72.112 54.2448 72.528 54.2448 73.024C54.2448 73.52 54.3368 73.936 54.5208 74.272C54.7048 74.608 54.9408 74.86 55.2288 75.028C55.5248 75.196 55.8408 75.28 56.1768 75.28ZM62.7384 76.144C62.0344 76.144 61.4744 75.932 61.0584 75.508C60.6424 75.076 60.4344 74.416 60.4344 73.528V70.048H61.4424V73.42C61.4424 74.66 61.9504 75.28 62.9664 75.28C63.4864 75.28 63.9144 75.096 64.2504 74.728C64.5944 74.352 64.7664 73.82 64.7664 73.132V70.048H65.7744V76H64.8624L64.7904 74.932C64.6064 75.308 64.3304 75.604 63.9624 75.82C63.6024 76.036 63.1944 76.144 62.7384 76.144ZM67.4336 76V70.048H68.3456L68.4296 71.188C68.6136 70.796 68.8936 70.484 69.2696 70.252C69.6456 70.02 70.1096 69.904 70.6616 69.904V70.96H70.3856C70.0336 70.96 69.7096 71.024 69.4136 71.152C69.1176 71.272 68.8816 71.48 68.7056 71.776C68.5296 72.072 68.4416 72.48 68.4416 73V76H67.4336ZM74.073 76.144C73.361 76.144 72.769 75.964 72.297 75.604C71.825 75.244 71.549 74.756 71.469 74.14H72.501C72.565 74.452 72.729 74.724 72.993 74.956C73.265 75.18 73.629 75.292 74.085 75.292C74.509 75.292 74.821 75.204 75.021 75.028C75.221 74.844 75.321 74.628 75.321 74.38C75.321 74.02 75.189 73.78 74.925 73.66C74.669 73.54 74.305 73.432 73.833 73.336C73.513 73.272 73.193 73.18 72.873 73.06C72.553 72.94 72.285 72.772 72.069 72.556C71.853 72.332 71.745 72.04 71.745 71.68C71.745 71.16 71.937 70.736 72.321 70.408C72.713 70.072 73.241 69.904 73.905 69.904C74.537 69.904 75.053 70.064 75.453 70.384C75.861 70.696 76.097 71.144 76.161 71.728H75.165C75.125 71.424 74.993 71.188 74.769 71.02C74.553 70.844 74.261 70.756 73.893 70.756C73.533 70.756 73.253 70.832 73.053 70.984C72.861 71.136 72.765 71.336 72.765 71.584C72.765 71.824 72.889 72.012 73.137 72.148C73.393 72.284 73.737 72.4 74.169 72.496C74.537 72.576 74.885 72.676 75.213 72.796C75.549 72.908 75.821 73.08 76.029 73.312C76.245 73.536 76.353 73.864 76.353 74.296C76.361 74.832 76.157 75.276 75.741 75.628C75.333 75.972 74.777 76.144 74.073 76.144ZM80.469 76.144C79.901 76.144 79.397 76.016 78.957 75.76C78.517 75.496 78.169 75.132 77.913 74.668C77.665 74.204 77.541 73.656 77.541 73.024C77.541 72.4 77.665 71.856 77.913 71.392C78.161 70.92 78.505 70.556 78.945 70.3C79.393 70.036 79.909 69.904 80.493 69.904C81.069 69.904 81.565 70.036 81.981 70.3C82.405 70.556 82.729 70.896 82.953 71.32C83.177 71.744 83.289 72.2 83.289 72.688C83.289 72.776 83.285 72.864 83.277 72.952C83.277 73.04 83.277 73.14 83.277 73.252H78.537C78.561 73.708 78.665 74.088 78.849 74.392C79.041 74.688 79.277 74.912 79.557 75.064C79.845 75.216 80.149 75.292 80.469 75.292C80.885 75.292 81.233 75.196 81.513 75.004C81.793 74.812 81.997 74.552 82.125 74.224H83.121C82.961 74.776 82.653 75.236 82.197 75.604C81.749 75.964 81.173 76.144 80.469 76.144ZM80.469 70.756C79.989 70.756 79.561 70.904 79.185 71.2C78.817 71.488 78.605 71.912 78.549 72.472H82.293C82.269 71.936 82.085 71.516 81.741 71.212C81.397 70.908 80.973 70.756 80.469 70.756ZM91.6768 76.144C90.8528 76.144 90.1288 75.964 89.5048 75.604C88.8888 75.236 88.4048 74.724 88.0528 74.068C87.7088 73.412 87.5368 72.656 87.5368 71.8C87.5368 70.944 87.7088 70.192 88.0528 69.544C88.4048 68.888 88.8888 68.376 89.5048 68.008C90.1288 67.64 90.8528 67.456 91.6768 67.456C92.5088 67.456 93.2328 67.64 93.8488 68.008C94.4728 68.376 94.9568 68.888 95.3008 69.544C95.6448 70.192 95.8168 70.944 95.8168 71.8C95.8168 72.656 95.6448 73.412 95.3008 74.068C94.9568 74.724 94.4728 75.236 93.8488 75.604C93.2328 75.964 92.5088 76.144 91.6768 76.144ZM91.6768 75.256C92.2928 75.256 92.8328 75.12 93.2968 74.848C93.7688 74.568 94.1328 74.172 94.3888 73.66C94.6528 73.14 94.7848 72.52 94.7848 71.8C94.7848 71.08 94.6528 70.464 94.3888 69.952C94.1328 69.44 93.7688 69.048 93.2968 68.776C92.8328 68.496 92.2928 68.356 91.6768 68.356C91.0608 68.356 90.5168 68.496 90.0448 68.776C89.5808 69.048 89.2168 69.44 88.9528 69.952C88.6968 70.464 88.5688 71.08 88.5688 71.8C88.5688 72.52 88.6968 73.14 88.9528 73.66C89.2168 74.172 89.5808 74.568 90.0448 74.848C90.5168 75.12 91.0608 75.256 91.6768 75.256ZM99.3829 76.144C98.6789 76.144 98.1189 75.932 97.7029 75.508C97.2869 75.076 97.0789 74.416 97.0789 73.528V70.048H98.0869V73.42C98.0869 74.66 98.5949 75.28 99.6109 75.28C100.131 75.28 100.559 75.096 100.895 74.728C101.239 74.352 101.411 73.82 101.411 73.132V70.048H102.419V76H101.507L101.435 74.932C101.251 75.308 100.975 75.604 100.607 75.82C100.247 76.036 99.8389 76.144 99.3829 76.144ZM106.43 76C105.886 76 105.458 75.868 105.146 75.604C104.834 75.34 104.678 74.864 104.678 74.176V70.9H103.646V70.048H104.678L104.81 68.62H105.686V70.048H107.438V70.9H105.686V74.176C105.686 74.552 105.762 74.808 105.914 74.944C106.066 75.072 106.334 75.136 106.718 75.136H107.342V76H106.43ZM108.719 76V67.36H109.727V76H108.719ZM111.991 68.728C111.791 68.728 111.623 68.664 111.487 68.536C111.359 68.4 111.295 68.232 111.295 68.032C111.295 67.84 111.359 67.68 111.487 67.552C111.623 67.424 111.791 67.36 111.991 67.36C112.183 67.36 112.347 67.424 112.483 67.552C112.619 67.68 112.687 67.84 112.687 68.032C112.687 68.232 112.619 68.4 112.483 68.536C112.347 68.664 112.183 68.728 111.991 68.728ZM111.487 76V70.048H112.495V76H111.487ZM114.25 76V70.048H115.162L115.222 71.116C115.414 70.74 115.69 70.444 116.05 70.228C116.41 70.012 116.818 69.904 117.274 69.904C117.978 69.904 118.538 70.12 118.954 70.552C119.378 70.976 119.59 71.632 119.59 72.52V76H118.582V72.628C118.582 71.388 118.07 70.768 117.046 70.768C116.534 70.768 116.106 70.956 115.762 71.332C115.426 71.7 115.258 72.228 115.258 72.916V76H114.25ZM123.793 76.144C123.225 76.144 122.721 76.016 122.281 75.76C121.841 75.496 121.493 75.132 121.237 74.668C120.989 74.204 120.865 73.656 120.865 73.024C120.865 72.4 120.989 71.856 121.237 71.392C121.485 70.92 121.829 70.556 122.269 70.3C122.717 70.036 123.233 69.904 123.817 69.904C124.393 69.904 124.889 70.036 125.305 70.3C125.729 70.556 126.053 70.896 126.277 71.32C126.501 71.744 126.613 72.2 126.613 72.688C126.613 72.776 126.609 72.864 126.601 72.952C126.601 73.04 126.601 73.14 126.601 73.252H121.861C121.885 73.708 121.989 74.088 122.173 74.392C122.365 74.688 122.601 74.912 122.881 75.064C123.169 75.216 123.473 75.292 123.793 75.292C124.209 75.292 124.557 75.196 124.837 75.004C125.117 74.812 125.321 74.552 125.449 74.224H126.445C126.285 74.776 125.977 75.236 125.521 75.604C125.073 75.964 124.497 76.144 123.793 76.144ZM123.793 70.756C123.313 70.756 122.885 70.904 122.509 71.2C122.141 71.488 121.929 71.912 121.873 72.472H125.617C125.593 71.936 125.409 71.516 125.065 71.212C124.721 70.908 124.297 70.756 123.793 70.756Z" fill="#494C58"/>
<path d="M21.0001 68.5H30.0001" stroke="#494C58" stroke-linecap="round" stroke-linejoin="round"/>
<path d="M21.0001 72H30.0001" stroke="#494C58" stroke-linecap="round" stroke-linejoin="round"/>
<path d="M21.0001 75.5H30.0001" stroke="#494C58" stroke-linecap="round" stroke-linejoin="round"/>
<path d="M18.5001 69C18.7763 69 19.0001 68.7761 19.0001 68.5C19.0001 68.2239 18.7763 68 18.5001 68C18.224 68 18.0001 68.2239 18.0001 68.5C18.0001 68.7761 18.224 69 18.5001 69Z" stroke="#494C58" stroke-linecap="round" stroke-linejoin="round"/>
<path d="M18.5001 72.5C18.7763 72.5 19.0001 72.2761 19.0001 72C19.0001 71.7239 18.7763 71.5 18.5001 71.5C18.224 71.5 18.0001 71.7239 18.0001 72C18.0001 72.2761 18.224 72.5 18.5001 72.5Z" stroke="#494C58" stroke-linecap="round" stroke-linejoin="round"/>
<path d="M18.5001 76C18.7763 76 19.0001 75.7761 19.0001 75.5C19.0001 75.2239 18.7763 75 18.5001 75C18.224 75 18.0001 75.2239 18.0001 75.5C18.0001 75.7761 18.224 76 18.5001 76Z" stroke="#494C58" stroke-linecap="round" stroke-linejoin="round"/>
<rect x="2" y="210" width="292" height="36" rx="6" stroke="#B6D9FF" stroke-width="4"/>
<path d="M44.888 232V223.6H45.896V231.196H49.808V232H44.888ZM51.7447 224.728C51.5447 224.728 51.3767 224.664 51.2407 224.536C51.1127 224.4 51.0487 224.232 51.0487 224.032C51.0487 223.84 51.1127 223.68 51.2407 223.552C51.3767 223.424 51.5447 223.36 51.7447 223.36C51.9367 223.36 52.1007 223.424 52.2367 223.552C52.3727 223.68 52.4407 223.84 52.4407 224.032C52.4407 224.232 52.3727 224.4 52.2367 224.536C52.1007 224.664 51.9367 224.728 51.7447 224.728ZM51.2407 232V226.048H52.2487V232H51.2407ZM57.1838 232.144C56.6958 232.144 56.2598 232.044 55.8758 231.844C55.4998 231.644 55.2118 231.364 55.0118 231.004L54.9158 232H54.0038V223.36H55.0118V227.032C55.2038 226.744 55.4758 226.484 55.8278 226.252C56.1878 226.02 56.6438 225.904 57.1958 225.904C57.7878 225.904 58.3038 226.04 58.7438 226.312C59.1838 226.584 59.5238 226.956 59.7638 227.428C60.0118 227.9 60.1358 228.436 60.1358 229.036C60.1358 229.636 60.0118 230.172 59.7638 230.644C59.5238 231.108 59.1798 231.476 58.7318 231.748C58.2918 232.012 57.7758 232.144 57.1838 232.144ZM57.0758 231.268C57.4758 231.268 57.8278 231.176 58.1318 230.992C58.4358 230.8 58.6758 230.536 58.8518 230.2C59.0278 229.864 59.1158 229.472 59.1158 229.024C59.1158 228.576 59.0278 228.184 58.8518 227.848C58.6758 227.512 58.4358 227.252 58.1318 227.068C57.8278 226.876 57.4758 226.78 57.0758 226.78C56.6758 226.78 56.3238 226.876 56.0198 227.068C55.7158 227.252 55.4758 227.512 55.2998 227.848C55.1238 228.184 55.0358 228.576 55.0358 229.024C55.0358 229.472 55.1238 229.864 55.2998 230.2C55.4758 230.536 55.7158 230.8 56.0198 230.992C56.3238 231.176 56.6758 231.268 57.0758 231.268ZM61.5389 232V226.048H62.4509L62.5349 227.188C62.7189 226.796 62.9989 226.484 63.3749 226.252C63.7509 226.02 64.2149 225.904 64.7669 225.904V226.96H64.4909C64.1389 226.96 63.8149 227.024 63.5189 227.152C63.2229 227.272 62.9869 227.48 62.8109 227.776C62.6349 228.072 62.5469 228.48 62.5469 229V232H61.5389ZM67.8783 232.144C67.3823 232.144 66.9703 232.06 66.6423 231.892C66.3143 231.724 66.0703 231.5 65.9103 231.22C65.7503 230.94 65.6703 230.636 65.6703 230.308C65.6703 229.7 65.9023 229.232 66.3663 228.904C66.8303 228.576 67.4623 228.412 68.2623 228.412H69.8703V228.34C69.8703 227.82 69.7343 227.428 69.4623 227.164C69.1903 226.892 68.8263 226.756 68.3703 226.756C67.9783 226.756 67.6383 226.856 67.3503 227.056C67.0703 227.248 66.8943 227.532 66.8223 227.908H65.7903C65.8303 227.476 65.9743 227.112 66.2223 226.816C66.4783 226.52 66.7943 226.296 67.1703 226.144C67.5463 225.984 67.9463 225.904 68.3703 225.904C69.2023 225.904 69.8263 226.128 70.2423 226.576C70.6663 227.016 70.8783 227.604 70.8783 228.34V232H69.9783L69.9183 230.932C69.7503 231.268 69.5023 231.556 69.1743 231.796C68.8543 232.028 68.4223 232.144 67.8783 232.144ZM68.0343 231.292C68.4183 231.292 68.7463 231.192 69.0183 230.992C69.2983 230.792 69.5103 230.532 69.6543 230.212C69.7983 229.892 69.8703 229.556 69.8703 229.204V229.192H68.3463C67.7543 229.192 67.3343 229.296 67.0863 229.504C66.8463 229.704 66.7263 229.956 66.7263 230.26C66.7263 230.572 66.8383 230.824 67.0623 231.016C67.2943 231.2 67.6183 231.292 68.0343 231.292ZM72.3905 232V226.048H73.3025L73.3865 227.188C73.5705 226.796 73.8505 226.484 74.2265 226.252C74.6025 226.02 75.0665 225.904 75.6185 225.904V226.96H75.3425C74.9905 226.96 74.6665 227.024 74.3705 227.152C74.0745 227.272 73.8385 227.48 73.6625 227.776C73.4865 228.072 73.3985 228.48 73.3985 229V232H72.3905ZM77.3979 234.64L78.8739 231.424H78.5259L76.1619 226.048H77.2539L79.2219 230.68L81.3099 226.048H82.3539L78.4539 234.64H77.3979Z" fill="#494C58"/>
<path d="M18.5 223H17.5C17.2239 223 17 223.224 17 223.5V234C17 234.276 17.2239 234.5 17.5 234.5H18.5C18.7761 234.5 19 234.276 19 234V223.5C19 223.224 18.7761 223 18.5 223Z" stroke="#494C58" stroke-linejoin="round"/>
<path d="M19.5 227H23.5" stroke="#494C58" stroke-linecap="round" stroke-linejoin="round"/>
<path d="M19.5 232.5H23.5" stroke="#494C58" stroke-linecap="round" stroke-linejoin="round"/>
<path d="M23 225H20C19.7239 225 19.5 225.224 19.5 225.5V234C19.5 234.276 19.7239 234.5 20 234.5H23C23.2761 234.5 23.5 234.276 23.5 234V225.5C23.5 225.224 23.2761 225 23 225Z" stroke="#494C58" stroke-linejoin="round"/>
<path d="M26.5 221.5H24.5C24.2239 221.5 24 221.724 24 222V234C24 234.276 24.2239 234.5 24.5 234.5H26.5C26.7761 234.5 27 234.276 27 234V222C27 221.724 26.7761 221.5 26.5 221.5Z" stroke="#494C58" stroke-linejoin="round"/>
<path d="M29.2019 223.003L27.9394 223.136C27.5919 223.173 27.34 223.498 27.3791 223.858L28.4703 233.908C28.5097 234.268 28.8256 234.533 29.1731 234.496L30.4356 234.364C30.7831 234.327 31.035 234.002 30.9959 233.642L29.9062 223.594C29.8653 223.232 29.5494 222.967 29.2019 223.003Z" stroke="#494C58" stroke-linejoin="round"/>
<rect x="2" y="158" width="292" height="36" rx="6" stroke="#87EDB1" stroke-width="4"/>
<path d="M44.888 180V171.6H47.468C48.948 171.6 50.036 171.976 50.732 172.728C51.436 173.48 51.788 174.512 51.788 175.824C51.788 177.112 51.436 178.132 50.732 178.884C50.036 179.628 48.948 180 47.468 180H44.888ZM45.896 179.16H47.444C48.26 179.16 48.908 179.028 49.388 178.764C49.876 178.492 50.224 178.108 50.432 177.612C50.64 177.108 50.744 176.512 50.744 175.824C50.744 175.12 50.64 174.516 50.432 174.012C50.224 173.508 49.876 173.12 49.388 172.848C48.908 172.576 48.26 172.44 47.444 172.44H45.896V179.16ZM53.7955 172.728C53.5955 172.728 53.4275 172.664 53.2915 172.536C53.1635 172.4 53.0995 172.232 53.0995 172.032C53.0995 171.84 53.1635 171.68 53.2915 171.552C53.4275 171.424 53.5955 171.36 53.7955 171.36C53.9875 171.36 54.1515 171.424 54.2875 171.552C54.4235 171.68 54.4915 171.84 54.4915 172.032C54.4915 172.232 54.4235 172.4 54.2875 172.536C54.1515 172.664 53.9875 172.728 53.7955 172.728ZM53.2915 180V174.048H54.2995V180H53.2915ZM58.3346 180.144C57.6226 180.144 57.0306 179.964 56.5586 179.604C56.0866 179.244 55.8106 178.756 55.7306 178.14H56.7626C56.8266 178.452 56.9906 178.724 57.2546 178.956C57.5266 179.18 57.8906 179.292 58.3466 179.292C58.7706 179.292 59.0826 179.204 59.2826 179.028C59.4826 178.844 59.5826 178.628 59.5826 178.38C59.5826 178.02 59.4506 177.78 59.1866 177.66C58.9306 177.54 58.5666 177.432 58.0946 177.336C57.7746 177.272 57.4546 177.18 57.1346 177.06C56.8146 176.94 56.5466 176.772 56.3306 176.556C56.1146 176.332 56.0066 176.04 56.0066 175.68C56.0066 175.16 56.1986 174.736 56.5826 174.408C56.9746 174.072 57.5026 173.904 58.1666 173.904C58.7986 173.904 59.3146 174.064 59.7146 174.384C60.1226 174.696 60.3586 175.144 60.4226 175.728H59.4266C59.3866 175.424 59.2546 175.188 59.0306 175.02C58.8146 174.844 58.5226 174.756 58.1546 174.756C57.7946 174.756 57.5146 174.832 57.3146 174.984C57.1226 175.136 57.0266 175.336 57.0266 175.584C57.0266 175.824 57.1506 176.012 57.3986 176.148C57.6546 176.284 57.9986 176.4 58.4306 176.496C58.7986 176.576 59.1466 176.676 59.4746 176.796C59.8106 176.908 60.0826 177.08 60.2906 177.312C60.5066 177.536 60.6146 177.864 60.6146 178.296C60.6226 178.832 60.4186 179.276 60.0026 179.628C59.5946 179.972 59.0386 180.144 58.3346 180.144ZM64.7906 180.144C64.2226 180.144 63.7106 180.016 63.2546 179.76C62.8066 179.496 62.4506 179.132 62.1866 178.668C61.9306 178.196 61.8026 177.648 61.8026 177.024C61.8026 176.4 61.9306 175.856 62.1866 175.392C62.4506 174.92 62.8066 174.556 63.2546 174.3C63.7106 174.036 64.2226 173.904 64.7906 173.904C65.4946 173.904 66.0866 174.088 66.5666 174.456C67.0546 174.824 67.3626 175.316 67.4906 175.932H66.4586C66.3786 175.564 66.1826 175.28 65.8706 175.08C65.5586 174.872 65.1946 174.768 64.7786 174.768C64.4426 174.768 64.1266 174.852 63.8306 175.02C63.5346 175.188 63.2946 175.44 63.1106 175.776C62.9266 176.112 62.8346 176.528 62.8346 177.024C62.8346 177.52 62.9266 177.936 63.1106 178.272C63.2946 178.608 63.5346 178.864 63.8306 179.04C64.1266 179.208 64.4426 179.292 64.7786 179.292C65.1946 179.292 65.5586 179.192 65.8706 178.992C66.1826 178.784 66.3786 178.492 66.4586 178.116H67.4906C67.3706 178.716 67.0666 179.204 66.5786 179.58C66.0906 179.956 65.4946 180.144 64.7906 180.144ZM71.0703 180.144C70.3663 180.144 69.8063 179.932 69.3903 179.508C68.9743 179.076 68.7663 178.416 68.7663 177.528V174.048H69.7743V177.42C69.7743 178.66 70.2823 179.28 71.2983 179.28C71.8183 179.28 72.2463 179.096 72.5823 178.728C72.9263 178.352 73.0983 177.82 73.0983 177.132V174.048H74.1063V180H73.1943L73.1223 178.932C72.9383 179.308 72.6623 179.604 72.2943 179.82C71.9343 180.036 71.5263 180.144 71.0703 180.144ZM78.0455 180.144C77.3335 180.144 76.7415 179.964 76.2695 179.604C75.7975 179.244 75.5215 178.756 75.4415 178.14H76.4735C76.5375 178.452 76.7015 178.724 76.9655 178.956C77.2375 179.18 77.6015 179.292 78.0575 179.292C78.4815 179.292 78.7935 179.204 78.9935 179.028C79.1935 178.844 79.2935 178.628 79.2935 178.38C79.2935 178.02 79.1615 177.78 78.8975 177.66C78.6415 177.54 78.2775 177.432 77.8055 177.336C77.4855 177.272 77.1655 177.18 76.8455 177.06C76.5255 176.94 76.2575 176.772 76.0415 176.556C75.8255 176.332 75.7175 176.04 75.7175 175.68C75.7175 175.16 75.9095 174.736 76.2935 174.408C76.6855 174.072 77.2135 173.904 77.8775 173.904C78.5095 173.904 79.0255 174.064 79.4255 174.384C79.8335 174.696 80.0695 175.144 80.1335 175.728H79.1375C79.0975 175.424 78.9655 175.188 78.7415 175.02C78.5255 174.844 78.2335 174.756 77.8655 174.756C77.5055 174.756 77.2255 174.832 77.0255 174.984C76.8335 175.136 76.7375 175.336 76.7375 175.584C76.7375 175.824 76.8615 176.012 77.1095 176.148C77.3655 176.284 77.7095 176.4 78.1415 176.496C78.5095 176.576 78.8575 176.676 79.1855 176.796C79.5215 176.908 79.7935 177.08 80.0015 177.312C80.2175 177.536 80.3255 177.864 80.3255 178.296C80.3335 178.832 80.1295 179.276 79.7135 179.628C79.3055 179.972 78.7495 180.144 78.0455 180.144ZM84.0455 180.144C83.3335 180.144 82.7415 179.964 82.2695 179.604C81.7975 179.244 81.5215 178.756 81.4415 178.14H82.4735C82.5375 178.452 82.7015 178.724 82.9655 178.956C83.2375 179.18 83.6015 179.292 84.0575 179.292C84.4815 179.292 84.7935 179.204 84.9935 179.028C85.1935 178.844 85.2935 178.628 85.2935 178.38C85.2935 178.02 85.1615 177.78 84.8975 177.66C84.6415 177.54 84.2775 177.432 83.8055 177.336C83.4855 177.272 83.1655 177.18 82.8455 177.06C82.5255 176.94 82.2575 176.772 82.0415 176.556C81.8255 176.332 81.7175 176.04 81.7175 175.68C81.7175 175.16 81.9095 174.736 82.2935 174.408C82.6855 174.072 83.2135 173.904 83.8775 173.904C84.5095 173.904 85.0255 174.064 85.4255 174.384C85.8335 174.696 86.0695 175.144 86.1335 175.728H85.1375C85.0975 175.424 84.9655 175.188 84.7415 175.02C84.5255 174.844 84.2335 174.756 83.8655 174.756C83.5055 174.756 83.2255 174.832 83.0255 174.984C82.8335 175.136 82.7375 175.336 82.7375 175.584C82.7375 175.824 82.8615 176.012 83.1095 176.148C83.3655 176.284 83.7095 176.4 84.1415 176.496C84.5095 176.576 84.8575 176.676 85.1855 176.796C85.5215 176.908 85.7935 177.08 86.0015 177.312C86.2175 177.536 86.3255 177.864 86.3255 178.296C86.3335 178.832 86.1295 179.276 85.7135 179.628C85.3055 179.972 84.7495 180.144 84.0455 180.144ZM88.3775 172.728C88.1775 172.728 88.0095 172.664 87.8735 172.536C87.7455 172.4 87.6815 172.232 87.6815 172.032C87.6815 171.84 87.7455 171.68 87.8735 171.552C88.0095 171.424 88.1775 171.36 88.3775 171.36C88.5695 171.36 88.7335 171.424 88.8695 171.552C89.0055 171.68 89.0735 171.84 89.0735 172.032C89.0735 172.232 89.0055 172.4 88.8695 172.536C88.7335 172.664 88.5695 172.728 88.3775 172.728ZM87.8735 180V174.048H88.8815V180H87.8735ZM93.3486 180.144C92.7886 180.144 92.2846 180.016 91.8366 179.76C91.3886 179.504 91.0326 179.144 90.7686 178.68C90.5126 178.208 90.3846 177.656 90.3846 177.024C90.3846 176.392 90.5166 175.844 90.7806 175.38C91.0446 174.908 91.4006 174.544 91.8486 174.288C92.3046 174.032 92.8126 173.904 93.3726 173.904C93.9326 173.904 94.4366 174.032 94.8846 174.288C95.3326 174.544 95.6846 174.908 95.9406 175.38C96.2046 175.844 96.3366 176.392 96.3366 177.024C96.3366 177.656 96.2046 178.208 95.9406 178.68C95.6766 179.144 95.3166 179.504 94.8606 179.76C94.4126 180.016 93.9086 180.144 93.3486 180.144ZM93.3486 179.28C93.6926 179.28 94.0126 179.196 94.3086 179.028C94.6046 178.86 94.8446 178.608 95.0286 178.272C95.2126 177.936 95.3046 177.52 95.3046 177.024C95.3046 176.528 95.2126 176.112 95.0286 175.776C94.8526 175.44 94.6166 175.188 94.3206 175.02C94.0246 174.852 93.7086 174.768 93.3726 174.768C93.0286 174.768 92.7086 174.852 92.4126 175.02C92.1166 175.188 91.8766 175.44 91.6926 175.776C91.5086 176.112 91.4166 176.528 91.4166 177.024C91.4166 177.52 91.5086 177.936 91.6926 178.272C91.8766 178.608 92.1126 178.86 92.4006 179.028C92.6966 179.196 93.0126 179.28 93.3486 179.28ZM97.7382 180V174.048H98.6502L98.7102 175.116C98.9022 174.74 99.1782 174.444 99.5382 174.228C99.8982 174.012 100.306 173.904 100.762 173.904C101.466 173.904 102.026 174.12 102.442 174.552C102.866 174.976 103.078 175.632 103.078 176.52V180H102.07V176.628C102.07 175.388 101.558 174.768 100.534 174.768C100.022 174.768 99.5942 174.956 99.2502 175.332C98.9142 175.7 98.7462 176.228 98.7462 176.916V180H97.7382ZM106.885 180.144C106.173 180.144 105.581 179.964 105.109 179.604C104.637 179.244 104.361 178.756 104.281 178.14H105.313C105.377 178.452 105.541 178.724 105.805 178.956C106.077 179.18 106.441 179.292 106.897 179.292C107.321 179.292 107.633 179.204 107.833 179.028C108.033 178.844 108.133 178.628 108.133 178.38C108.133 178.02 108.001 177.78 107.737 177.66C107.481 177.54 107.117 177.432 106.645 177.336C106.325 177.272 106.005 177.18 105.685 177.06C105.365 176.94 105.097 176.772 104.881 176.556C104.665 176.332 104.557 176.04 104.557 175.68C104.557 175.16 104.749 174.736 105.133 174.408C105.525 174.072 106.053 173.904 106.717 173.904C107.349 173.904 107.865 174.064 108.265 174.384C108.673 174.696 108.909 175.144 108.973 175.728H107.977C107.937 175.424 107.805 175.188 107.581 175.02C107.365 174.844 107.073 174.756 106.705 174.756C106.345 174.756 106.065 174.832 105.865 174.984C105.673 175.136 105.577 175.336 105.577 175.584C105.577 175.824 105.701 176.012 105.949 176.148C106.205 176.284 106.549 176.4 106.981 176.496C107.349 176.576 107.697 176.676 108.025 176.796C108.361 176.908 108.633 177.08 108.841 177.312C109.057 177.536 109.165 177.864 109.165 178.296C109.173 178.832 108.969 179.276 108.553 179.628C108.145 179.972 107.589 180.144 106.885 180.144Z" fill="#494C58"/>
<path d="M29.4688 178.019C29.4375 177.906 29.5063 177.75 29.5719 177.637C29.592 177.604 29.6139 177.572 29.6375 177.541C30.1989 176.707 30.4991 175.724 30.5 174.719C30.5094 171.838 28.0782 169.5 25.0719 169.5C22.45 169.5 20.2625 171.284 19.75 173.653C19.6734 174.004 19.6346 174.363 19.6344 174.722C19.6344 177.606 21.9719 180.006 24.9782 180.006C25.4563 180.006 26.1 179.862 26.4532 179.766C26.8063 179.669 27.1563 179.541 27.2469 179.506C27.3398 179.471 27.4383 179.453 27.5375 179.453C27.6459 179.453 27.7532 179.474 27.8532 179.516L29.625 180.144C29.6639 180.16 29.705 180.171 29.7469 180.175C29.8132 180.175 29.8768 180.149 29.9237 180.102C29.9706 180.055 29.9969 179.991 29.9969 179.925C29.9947 179.896 29.9895 179.868 29.9813 179.841L29.4688 178.019Z" stroke="#494C58" stroke-miterlimit="10" stroke-linecap="round"/>
<path d="M18.0769 175.25C17.667 175.986 17.4688 176.822 17.504 177.664C17.5392 178.506 17.8066 179.321 18.2766 180.021C18.3488 180.13 18.3894 180.214 18.3769 180.271C18.3644 180.327 18.0041 182.204 18.0041 182.204C17.9954 182.248 17.9987 182.294 18.0136 182.336C18.0285 182.378 18.0545 182.416 18.0888 182.444C18.1346 182.481 18.1915 182.5 18.25 182.5C18.2813 182.5 18.3123 182.494 18.341 182.481L20.0975 181.794C20.2184 181.746 20.3533 181.748 20.4725 181.8C21.0644 182.031 21.7188 182.175 22.3735 182.175C23.252 182.176 24.1151 181.944 24.875 181.503" stroke="#494C58" stroke-miterlimit="10" stroke-linecap="round"/>
</svg>
