<svg xmlns="http://www.w3.org/2000/svg" width="36" height="36" viewBox="0 0 36 36">
	<defs>
		<style>.a{fill:#afc4d9;}.a,.b{fill-rule:evenodd;}.b{fill:#fff;}</style>
	</defs>
	<g transform="translate(-450 -611.999)">
		<path class="a" d="M468,648a18,18,0,1,0-18-18A18.034,18.034,0,0,0,468,648Z"/>
		<path class="b"
			  d="M467.913,630.932h.159a4.589,4.589,0,0,0,3.5-1.517c1.913-2.157,1.6-5.854,1.559-6.207a5.067,5.067,0,0,0-2.41-4.508,5.526,5.526,0,0,0-2.673-.7h-.085a5.528,5.528,0,0,0-2.673.681,5.076,5.076,0,0,0-2.441,4.528c-.034.353-.352,4.05,1.561,6.207a4.57,4.57,0,0,0,3.5,1.517Zm10.293,6.132h0a8.06,8.06,0,0,1-.239,2.247.665.665,0,0,1-.259.312,20.984,20.984,0,0,1-19.4,0,.636.636,0,0,1-.258-.312,7.6,7.6,0,0,1-.253-2.252v-.015a.993.993,0,0,0,0-.124c.029-.979.094-3.28,2.251-4.021l.049-.014a14.141,14.141,0,0,0,4.125-1.88.671.671,0,0,1,.771,1.1,15.617,15.617,0,0,1-4.538,2.073c-1.157.412-1.287,1.65-1.322,2.783,0,.045,0,.084,0,.124a8.59,8.59,0,0,0,.1,1.536,19.841,19.841,0,0,0,17.528.005,9.186,9.186,0,0,0,.1-1.536.827.827,0,0,1-.006-.125c-.035-1.133-.164-2.37-1.321-2.783A15.484,15.484,0,0,1,471,632.109a.671.671,0,0,1,.77-1.1,14.356,14.356,0,0,0,4.125,1.879l.05.014c2.157.736,2.222,3.037,2.251,4.021,0,.045.006.085.006.125v.014ZM464.18,623.332h0c0-.015.005-.029.005-.04.164-3.563,2.694-3.946,3.778-3.946h.059c1.342.03,3.623.577,3.777,3.946a.1.1,0,0,0,0,.04c.005.035.353,3.414-1.228,5.194a3.263,3.263,0,0,1-2.559,1.064h-.05a3.252,3.252,0,0,1-2.554-1.064C463.838,626.756,464.175,623.362,464.18,623.332Z"/>
	</g>
</svg>
