<svg width="800" height="100" viewBox="0 0 800 100" fill="none" xmlns="http://www.w3.org/2000/svg">
<rect width="800" height="100" fill="#64778A"/>
<path d="M415 33.5H385C382.515 33.5 380.5 35.5147 380.5 38V62C380.5 64.4853 382.515 66.5 385 66.5H415C417.485 66.5 419.5 64.4853 419.5 62V38C419.5 35.5147 417.485 33.5 415 33.5Z" stroke="white" stroke-linejoin="round"/>
<path d="M407.5 45.5C409.157 45.5 410.5 44.1569 410.5 42.5C410.5 40.8431 409.157 39.5 407.5 39.5C405.843 39.5 404.5 40.8431 404.5 42.5C404.5 44.1569 405.843 45.5 407.5 45.5Z" stroke="white" stroke-miterlimit="10"/>
<path d="M404.5 57.481L396.001 48.9976C395.46 48.4569 394.733 48.1431 393.968 48.1205C393.204 48.0978 392.46 48.368 391.888 48.8757L380.5 59.0007" stroke="white" stroke-linecap="round" stroke-linejoin="round"/>
<path d="M397 66.5006L408.563 54.9375C409.092 54.4076 409.8 54.0946 410.548 54.0599C411.295 54.0252 412.029 54.2713 412.605 54.75L419.5 60.5006" stroke="white" stroke-linecap="round" stroke-linejoin="round"/>
</svg>
