<svg xmlns="http://www.w3.org/2000/svg" width="512" height="512" viewBox="0 0 512 512" version="1.1">
	<path d="M 251.479 118.083 C 245.161 118.892, 238.992 122.008, 234.175 126.825 C 229.598 131.402, 227.198 136.281, 225.784 143.886 C 224.299 151.871, 227.207 161.682, 233.014 168.279 C 244.923 181.808, 266.568 182.076, 278.523 168.843 C 284.098 162.672, 286.380 156.767, 286.415 148.423 C 286.440 142.420, 285.950 140.340, 283.187 134.729 C 277.147 122.460, 265.413 116.300, 251.479 118.083 M 175.500 155.798 C 151.186 168.151, 150.491 168.588, 150.190 171.704 C 149.771 176.035, 151.349 178.627, 155.783 180.891 C 161.779 183.953, 170.692 194.080, 174.107 201.712 C 178.374 211.249, 178.354 211.217, 180.786 212.117 C 182.503 212.752, 187.287 210.785, 202.883 203.034 C 213.831 197.593, 223.477 192.157, 224.319 190.955 C 226.235 188.219, 225.716 186.832, 220.241 180.062 C 212.824 170.890, 208 158.989, 208 149.861 C 208 145.660, 205.905 142.977, 202.679 143.048 C 201.480 143.075, 189.250 148.812, 175.500 155.798 M 305.655 144.829 C 304.730 145.851, 304 148.323, 304 150.434 C 304 160.108, 299.382 171.144, 291.354 180.659 C 286.671 186.209, 285.888 189.696, 288.750 192.253 C 289.712 193.113, 299.169 198.116, 309.764 203.371 C 324.824 210.841, 329.505 212.749, 331.216 212.116 C 333.646 211.217, 333.626 211.248, 337.893 201.712 C 341.309 194.079, 349.915 184.308, 356.756 180.298 C 361.246 177.666, 362.665 174.787, 361.588 170.493 C 361.060 168.391, 356.933 165.973, 335.987 155.493 C 322.253 148.622, 310.182 143, 309.163 143 C 308.144 143, 306.565 143.823, 305.655 144.829 M 122.951 192.362 C 109.497 195.990, 100.689 207.462, 100.563 221.519 C 100.362 243.910, 123.357 258.689, 143.540 249.141 C 169.317 236.946, 165.917 199.683, 138.373 192.509 C 131.559 190.734, 129.074 190.710, 122.951 192.362 M 374.500 191.877 C 366.219 194.054, 358.386 200.038, 354.521 207.138 C 352.271 211.272, 351.548 214.089, 351.202 220.069 C 350.811 226.826, 351.082 228.434, 353.539 233.908 C 358.660 245.318, 368.864 252, 381.167 252 C 393.125 252, 402.945 245.920, 408.187 235.271 C 414.021 223.421, 412.306 210.879, 403.523 201.157 C 396.847 193.767, 383.519 189.505, 374.500 191.877 M 178.781 232.750 C 177.941 233.713, 176.722 236.155, 176.073 238.178 C 174.259 243.830, 167.883 253.053, 162.535 257.760 C 159.884 260.094, 154.291 263.690, 150.107 265.752 C 140.519 270.477, 140.038 272.220, 145.926 280.892 C 148.155 284.173, 150.812 287.123, 151.831 287.446 C 152.850 287.770, 156.164 286.899, 159.198 285.510 C 169.795 280.658, 183.667 279.854, 193.982 283.494 C 199.440 285.419, 202.457 285.401, 204.429 283.429 C 205.743 282.114, 206 278.854, 206 263.484 C 206 241.719, 206.501 242.766, 192.654 235.586 C 182.919 230.539, 181.047 230.156, 178.781 232.750 M 318.856 235.508 C 305.755 242.187, 306 241.645, 306 263.980 C 306 288.186, 305.858 288.002, 321 283.499 C 329.328 281.023, 341.479 281.921, 350.966 285.715 C 355.072 287.357, 359.261 288.483, 360.275 288.218 C 363.183 287.458, 370.057 276.058, 369.755 272.500 C 369.528 269.834, 368.646 269.079, 361.820 265.716 C 349.388 259.590, 340.431 250.141, 336.502 239.007 C 334.585 233.572, 332.339 230.984, 329.595 231.051 C 328.443 231.078, 323.610 233.084, 318.856 235.508 M 168.698 300.385 C 145.769 308.920, 141.334 338.928, 160.816 353.708 C 173.250 363.140, 191.481 361.213, 201.910 349.364 C 214.920 334.584, 210.244 310.911, 192.500 301.725 C 187.356 299.063, 174.235 298.324, 168.698 300.385 M 326.723 300.066 C 317.606 301.546, 308.921 308.575, 304.626 317.949 C 301.384 325.026, 301.674 335.819, 305.306 343.214 C 310.674 354.146, 321.124 360.427, 333.637 360.243 C 342.194 360.117, 348.849 357.040, 354.914 350.404 C 360.554 344.233, 363 338.060, 363 330 C 363 321.940, 360.554 315.767, 354.914 309.596 C 347.546 301.534, 337.856 298.259, 326.723 300.066 M 271.500 331.187 C 263.610 335.187, 258.301 337.270, 256 337.270 C 253.739 337.270, 248.487 335.257, 241.164 331.584 C 228.912 325.438, 227 325.369, 227 331.073 C 227 341.386, 221.263 354.369, 212.866 363.058 C 206.672 369.467, 205.649 372.495, 208.750 375.238 C 211.574 377.735, 238.066 390.645, 243.959 392.395 C 250.269 394.269, 259.812 394.470, 266.725 392.874 C 269.408 392.255, 278.780 388.092, 287.552 383.624 C 302.727 375.894, 303.515 375.346, 303.808 372.327 C 304.057 369.751, 303.434 368.533, 300.495 365.859 C 291.399 357.582, 285 343.349, 285 331.395 C 285 327.878, 284.663 325.023, 284.250 325.052 C 283.837 325.080, 278.100 327.841, 271.500 331.187" stroke="none" fill="black" fill-rule="evenodd"/>
</svg>