<svg xmlns="http://www.w3.org/2000/svg" width="48.001" height="48" viewBox="0 0 48.001 48">
	<defs>
		<style>
			.a{fill:#afc4d9;}.b{fill:#748da5;}.b,.c,.d,.e,.f,.g,.h{fill-rule:evenodd;}.c{fill:#e08e3d;}.d{fill:#f5a454;}.e{fill:#cd7f32;}.f{fill:#c47a31;}.g{fill:#78bec0;}.h{fill:#bf7934;}
		</style>
	</defs>
	<g transform="translate(-588 -575.999)">
		<g transform="translate(-3984)">
			<circle class="a" cx="24" cy="24" r="24" transform="translate(4572 575.999)"/>
			<path class="b"
				  d="M4596,624c13.218,0,24-2.018,24-4.493s-10.782-4.493-24-4.493-24,2.019-24,4.493S4582.782,624,4596,624Z"/>
		</g>
		<g transform="translate(-3984)">
			<path class="c"
				  d="M4620,611.008v4.914a1.881,1.881,0,0,1-.687,1.343,4.938,4.938,0,0,1-.438.361,7.694,7.694,0,0,1-1.125.657c-.14.064-.286.133-.437.2a14.917,14.917,0,0,1-1.783.627l-.435.129c-.722.193-1.505.368-2.345.519l-.437.077c-.688.111-1.407.215-2.158.3-.144.013-.29.03-.435.043-.5.052-1.01.09-1.532.125-.145.013-.291.021-.437.03-.653.034-1.32.055-2,.069-.145,0-.29,0-.437,0H4605c-.635,0-1.259-.013-1.875-.035-.147,0-.292-.013-.437-.017-.628-.03-1.243-.073-1.842-.124l-.441-.039c-.415-.038-.82-.086-1.217-.133-.147-.021-.293-.039-.438-.06-.5-.068-1-.146-1.47-.232q-.22-.037-.435-.082c-.413-.076-.808-.163-1.19-.257-.147-.034-.293-.069-.434-.107-.476-.12-.923-.249-1.346-.391-.15-.047-.295-.1-.437-.15a11.25,11.25,0,0,1-1.217-.507c-.156-.072-.3-.15-.44-.227a5.687,5.687,0,0,1-.936-.631,3.232,3.232,0,0,1-.439-.446,1.668,1.668,0,0,1-.406-1.039v-4.914Z"/>
			<path class="d"
				  d="M4620,611.01c0,2.19-6.715,3.966-15,3.966s-15-1.776-15-3.966,6.716-3.966,15-3.966S4620,608.819,4620,611.01Z"/>
			<path class="e"
				  d="M4617.314,610.482c0,1.506-5.513,2.728-12.312,2.728s-12.313-1.222-12.313-2.728,5.512-2.728,12.313-2.728S4617.314,608.975,4617.314,610.482Z"/>
			<path class="f"
				  d="M4593.065,611.152c1.349-1.182,6.181-2.057,11.937-2.057s10.586.875,11.936,2.057a.919.919,0,0,0,.376-.67c0-1.507-5.513-2.728-12.312-2.728s-12.313,1.221-12.313,2.728A.919.919,0,0,0,4593.065,611.152Z"/>
			<path class="f"
				  d="M4604.942,620.4h.372v-2.172H4605c-.635,0-1.259-.013-1.875-.034h0v2.171c.6.021,1.2.034,1.816.035ZM4590,613.75v2.172a1.668,1.668,0,0,0,.406,1.039h0v-2.172a1.668,1.668,0,0,1-.406-1.039Zm15.75,6.645v-2.172h0q1.022-.02,2-.069v2.172h0c-.653.034-1.32.055-2,.069Zm-3.062-.048h0c-.628-.03-1.243-.073-1.842-.124v-2.172h0c.6.052,1.214.094,1.842.125v2.171Zm5.5-.051v-2.172h0c.522-.034,1.032-.073,1.532-.125v2.172h0c-.5.052-1.01.09-1.532.125Zm-7.783-.112h0c-.415-.038-.82-.086-1.217-.133v-2.172h0c.4.047.8.095,1.217.133v2.172Zm9.75-.056v-2.171h0c.751-.082,1.47-.185,2.158-.3v2.171h0c-.688.111-1.407.215-2.158.3Zm-11.4-.137h0c-.5-.068-1-.146-1.47-.232v-2.172h0c.473.087.965.163,1.47.232v2.172Zm14-.236v-2.172h0c.84-.15,1.623-.326,2.345-.519v2.172h0c-.722.193-1.505.368-2.345.519Zm-15.9-.078h0c-.413-.076-.808-.163-1.19-.257v-2.171h0c.382.094.777.179,1.19.256v2.172Zm-1.624-.364h0c-.476-.12-.923-.249-1.346-.391V616.75h0c.423.142.87.271,1.346.391v2.172Zm20.309-.206v-2.172h0a14.928,14.928,0,0,0,1.783-.627v2.172h0a14.917,14.917,0,0,1-1.783.627Zm-22.092-.335h0a11.25,11.25,0,0,1-1.217-.507v-2.171h0a11.241,11.241,0,0,0,1.217.506v2.172Zm24.312-.489v-2.172h0a7.694,7.694,0,0,0,1.125-.657v2.172h0a7.694,7.694,0,0,1-1.125.657Zm-25.969-.245h0a5.687,5.687,0,0,1-.936-.631v-2.172h0a5.75,5.75,0,0,0,.936.632v2.171Zm27.532-.773v-2.171h0a1.885,1.885,0,0,0,.687-1.344v2.172A1.881,1.881,0,0,1,4619.314,617.265Z"/>
		</g>
		<g transform="translate(-3984)">
			<path class="c"
				  d="M4588.817,604.837v4.915a1.885,1.885,0,0,0,.687,1.343,5.1,5.1,0,0,0,.438.361,7.613,7.613,0,0,0,1.125.656c.14.065.286.134.438.2a15.058,15.058,0,0,0,1.782.628l.435.128c.722.193,1.506.369,2.345.52l.438.077c.687.111,1.407.214,2.157.3.145.013.29.03.435.043.5.051,1.01.09,1.533.124.145.013.29.022.437.03.653.035,1.32.056,2,.069.146,0,.29,0,.437,0h.313q.953,0,1.875-.034c.148,0,.293-.013.438-.017.627-.03,1.242-.073,1.842-.125l.44-.038c.415-.039.82-.086,1.218-.133.147-.022.292-.039.438-.061.5-.068,1-.145,1.469-.232.148-.025.293-.051.435-.081.413-.077.808-.163,1.191-.257.147-.034.292-.069.434-.108.475-.12.923-.248,1.345-.39.151-.047.295-.1.437-.15a11.467,11.467,0,0,0,1.218-.507c.155-.073.3-.15.44-.227a5.613,5.613,0,0,0,.935-.632,3.242,3.242,0,0,0,.44-.445,1.674,1.674,0,0,0,.4-1.039v-4.915Z"/>
			<path class="d"
				  d="M4588.817,604.839c0,2.19,6.715,3.966,15,3.966s15-1.776,15-3.966-6.715-3.966-15-3.966S4588.817,602.649,4588.817,604.839Z"/>
			<path class="e"
				  d="M4591.5,604.312c0,1.506,5.512,2.727,12.312,2.727s12.312-1.221,12.312-2.727-5.512-2.728-12.312-2.728S4591.5,602.8,4591.5,604.312Z"/>
			<path class="f"
				  d="M4615.754,604.982c-1.35-1.182-6.182-2.057-11.937-2.057s-10.587.875-11.937,2.057a.924.924,0,0,1-.375-.67c0-1.507,5.512-2.728,12.312-2.728s12.312,1.221,12.312,2.728A.922.922,0,0,1,4615.754,604.982Z"/>
			<path class="f"
				  d="M4603.877,614.228h-.373v-2.171h.313c.635,0,1.26-.014,1.875-.035h0v2.172c-.6.021-1.2.034-1.815.034Zm14.94-6.648v2.172a1.674,1.674,0,0,1-.4,1.039h0v-2.172a1.674,1.674,0,0,0,.4-1.039Zm-15.75,6.644v-2.172h0c-.68-.013-1.347-.034-2-.068v2.171h0c.653.035,1.32.056,2,.069Zm3.063-.047h0c.627-.03,1.242-.073,1.842-.125V611.88h0c-.6.052-1.215.095-1.842.125v2.172Zm-5.5-.052v-2.172h0c-.523-.033-1.033-.073-1.533-.124V614h0c.5.051,1.01.09,1.533.124Zm7.782-.111h0c.415-.039.82-.086,1.218-.133v-2.172h0c-.4.047-.8.094-1.218.133v2.172Zm-9.75-.056v-2.172h0c-.75-.081-1.47-.184-2.157-.3v2.172h0c.687.111,1.407.214,2.157.3Zm11.406-.138h0c.5-.068,1-.145,1.469-.232v-2.171h0c-.472.086-.965.163-1.469.232v2.171Zm-14-.235v-2.172h0c-.839-.15-1.623-.327-2.345-.52v2.172h0c.722.193,1.506.369,2.345.52Zm15.905-.078h0c.413-.077.808-.163,1.191-.257v-2.172h0c-.383.094-.778.18-1.191.257v2.172Zm1.625-.365h0c.475-.12.923-.248,1.345-.39V610.58h0c-.422.142-.87.271-1.345.391v2.171Zm-20.31-.205v-2.172h0a15.052,15.052,0,0,1-1.782-.627v2.171h0a15.058,15.058,0,0,0,1.782.628Zm22.092-.335h0a11.467,11.467,0,0,0,1.218-.507v-2.172h0a11.267,11.267,0,0,1-1.218.507V612.6Zm-24.312-.49V609.94h0a7.613,7.613,0,0,1-1.125-.656v2.172h0a7.613,7.613,0,0,0,1.125.656Zm25.97-.244h0a5.613,5.613,0,0,0,.935-.632v-2.171h0a5.672,5.672,0,0,1-.935.631v2.172Zm-27.533-.773v-2.172h0a1.883,1.883,0,0,1-.687-1.343v2.172A1.885,1.885,0,0,0,4589.5,611.095Z"/>
		</g>
		<g transform="translate(-3984)">
			<path class="c"
				  d="M4618.2,597.982V602.9a1.884,1.884,0,0,1-.686,1.344,5.08,5.08,0,0,1-.438.36,7.622,7.622,0,0,1-1.125.657c-.141.064-.286.133-.438.2a14.817,14.817,0,0,1-1.783.627l-.434.129c-.723.193-1.506.369-2.345.519l-.438.078c-.687.111-1.407.214-2.157.3-.145.012-.29.03-.435.043-.5.051-1.01.09-1.533.124-.145.013-.29.022-.437.03q-.98.051-2,.069c-.145,0-.289,0-.437,0h-.312c-.635,0-1.26-.013-1.875-.035-.148,0-.293-.012-.438-.017-.627-.029-1.242-.072-1.842-.124l-.44-.039c-.415-.038-.82-.086-1.218-.133-.147-.021-.292-.038-.438-.06-.5-.068-1-.146-1.469-.232-.148-.025-.293-.051-.435-.081-.413-.077-.808-.163-1.191-.257-.147-.035-.292-.069-.434-.108-.475-.12-.923-.249-1.346-.391-.15-.046-.294-.1-.437-.15a11.583,11.583,0,0,1-1.217-.506c-.155-.073-.3-.151-.44-.228a5.575,5.575,0,0,1-.935-.631,3.243,3.243,0,0,1-.44-.446,1.669,1.669,0,0,1-.406-1.039v-4.914Z"/>
			<path class="d"
				  d="M4618.2,597.984c0,2.19-6.715,3.966-15,3.966s-15-1.776-15-3.966,6.716-3.966,15-3.966S4618.2,595.793,4618.2,597.984Z"/>
			<path class="e"
				  d="M4615.51,597.456c0,1.506-5.512,2.728-12.312,2.728s-12.313-1.222-12.313-2.728,5.512-2.728,12.313-2.728S4615.51,595.95,4615.51,597.456Z"/>
			<path class="f"
				  d="M4591.261,598.127c1.35-1.182,6.181-2.057,11.937-2.057s10.587.875,11.936,2.057a.921.921,0,0,0,.376-.671c0-1.506-5.512-2.728-12.312-2.728s-12.313,1.222-12.313,2.728A.925.925,0,0,0,4591.261,598.127Z"/>
			<path class="f"
				  d="M4603.138,607.373h.372V605.2h-.312c-.635,0-1.26-.013-1.875-.034h0v2.171q.894.033,1.815.035Zm-14.941-6.648V602.9a1.669,1.669,0,0,0,.406,1.039h0v-2.171a1.673,1.673,0,0,1-.406-1.039Zm15.75,6.644V605.2h0c.681-.013,1.348-.034,2-.069V607.3h0q-.98.051-2,.069Zm-3.062-.048h0c-.627-.029-1.242-.072-1.842-.124v-2.172h0c.6.052,1.215.095,1.842.125v2.171Zm5.5-.051V605.1h0c.523-.034,1.033-.073,1.533-.124v2.172h0c-.5.051-1.01.09-1.533.124Zm-7.782-.112h0c-.415-.038-.82-.086-1.218-.133v-2.171h0c.4.046.8.094,1.218.132v2.172Zm9.75-.055v-2.172h0c.75-.082,1.47-.185,2.157-.3v2.172h0c-.687.111-1.407.214-2.157.3Zm-11.406-.138h0c-.5-.068-1-.146-1.469-.232v-2.171h0c.472.086.964.163,1.469.231v2.172Zm14-.236v-2.172h0c.839-.15,1.622-.326,2.345-.519v2.172h0c-.723.193-1.506.369-2.345.519Zm-15.905-.077h0c-.413-.077-.808-.163-1.191-.257v-2.172h0c.383.094.778.18,1.191.257v2.172Zm-1.625-.365h0c-.475-.12-.923-.249-1.346-.391v-2.171h0c.423.142.871.271,1.346.39v2.172Zm20.309-.206v-2.172h0a14.843,14.843,0,0,0,1.783-.626v2.171h0a14.817,14.817,0,0,1-1.783.627Zm-22.092-.335h0a11.583,11.583,0,0,1-1.217-.506v-2.172h0a11.362,11.362,0,0,0,1.217.507v2.171Zm24.313-.489v-2.172h0a7.716,7.716,0,0,0,1.125-.656V604.6h0a7.622,7.622,0,0,1-1.125.657Zm-25.97-.245h0a5.575,5.575,0,0,1-.935-.631v-2.172h0a5.573,5.573,0,0,0,.935.632v2.171Zm27.533-.772v-2.172h0a1.884,1.884,0,0,0,.686-1.343V602.9A1.884,1.884,0,0,1,4617.511,604.24Z"/>
		</g>
		<g transform="translate(-3984)">
			<path class="c"
				  d="M4616.643,591.793v4.914a1.883,1.883,0,0,1-.687,1.343,4.938,4.938,0,0,1-.438.361,7.664,7.664,0,0,1-1.125.656c-.14.065-.286.134-.438.2a15.032,15.032,0,0,1-1.782.627l-.435.129c-.722.192-1.506.368-2.345.519l-.438.077c-.687.112-1.407.215-2.157.3-.145.013-.29.03-.435.043-.5.051-1.01.09-1.533.125-.145.012-.29.021-.437.029-.653.035-1.32.056-2,.069-.146,0-.29.005-.438.005h-.312c-.635,0-1.26-.013-1.875-.035-.148,0-.293-.013-.438-.017-.627-.03-1.242-.073-1.842-.125l-.44-.038c-.415-.039-.82-.086-1.218-.133l-.438-.06c-.5-.069-1-.146-1.469-.233q-.222-.036-.435-.081c-.413-.077-.808-.163-1.19-.257-.148-.034-.293-.069-.435-.107-.475-.121-.923-.249-1.345-.391-.151-.047-.295-.1-.437-.15a11.48,11.48,0,0,1-1.218-.507c-.155-.073-.3-.15-.44-.227a5.676,5.676,0,0,1-.935-.631,3.243,3.243,0,0,1-.44-.446,1.674,1.674,0,0,1-.4-1.039v-4.914Z"/>
			<path class="d"
				  d="M4616.643,591.795c0,2.19-6.715,3.966-15,3.966s-15-1.776-15-3.966,6.715-3.966,15-3.966S4616.643,589.6,4616.643,591.795Z"/>
			<path class="e"
				  d="M4613.955,591.267c0,1.506-5.512,2.727-12.312,2.727s-12.312-1.221-12.312-2.727,5.512-2.728,12.312-2.728S4613.955,589.76,4613.955,591.267Z"/>
			<path class="f"
				  d="M4589.706,591.937c1.35-1.182,6.182-2.057,11.937-2.057s10.587.875,11.936,2.057a.919.919,0,0,0,.376-.67c0-1.507-5.512-2.728-12.312-2.728s-12.312,1.221-12.312,2.728A.921.921,0,0,0,4589.706,591.937Z"/>
			<path class="f"
				  d="M4601.583,601.184h.372v-2.172h-.312c-.635,0-1.26-.013-1.875-.035h0v2.172c.6.021,1.2.034,1.815.035Zm-14.94-6.649v2.172a1.674,1.674,0,0,0,.4,1.039h0v-2.172a1.674,1.674,0,0,1-.4-1.039Zm15.75,6.644v-2.171h0c.68-.014,1.347-.035,2-.069v2.171h0c-.653.035-1.32.056-2,.069Zm-3.063-.047h0c-.627-.03-1.242-.073-1.842-.125v-2.171h0c.6.052,1.215.094,1.842.125v2.171Zm5.5-.051v-2.172h0c.523-.034,1.033-.073,1.533-.125v2.172h0c-.5.051-1.01.09-1.533.125Zm-7.782-.112h0c-.415-.039-.82-.086-1.218-.133v-2.172h0c.4.047.8.094,1.218.133v2.172Zm9.75-.056v-2.171h0c.75-.082,1.47-.185,2.157-.3v2.172h0c-.687.112-1.407.215-2.157.3Zm-11.406-.137h0c-.5-.069-1-.146-1.469-.233v-2.171h0c.472.086.965.163,1.469.232v2.172Zm14-.236v-2.172h0c.839-.15,1.623-.326,2.345-.519v2.172h0c-.722.192-1.506.368-2.345.519Zm-15.905-.078h0c-.413-.077-.808-.163-1.19-.257v-2.172h0c.382.094.777.18,1.19.257v2.172Zm-1.625-.364h0c-.475-.121-.923-.249-1.345-.391v-2.172h0c.422.142.87.271,1.345.391V600.1Zm20.31-.206V597.72h0a14.849,14.849,0,0,0,1.782-.627v2.172h0a15.032,15.032,0,0,1-1.782.627Zm-22.092-.335h0a11.48,11.48,0,0,1-1.218-.507v-2.171h0a11.484,11.484,0,0,0,1.218.506v2.172Zm24.312-.49V596.9h0a7.751,7.751,0,0,0,1.125-.657v2.172h0a7.664,7.664,0,0,1-1.125.656Zm-25.97-.244h0a5.676,5.676,0,0,1-.935-.631V596.02h0a5.676,5.676,0,0,0,.935.631v2.172Zm27.533-.773v-2.171h0a1.887,1.887,0,0,0,.687-1.344v2.172A1.883,1.883,0,0,1,4615.956,598.05Z"/>
		</g>
		<g transform="translate(-3984)">
			<path class="g" d="M4579.991,617.016l-.752-2.242,6.46-15.71Z"/>
			<path class="g" d="M4576.755,607.377l-.753-2.241,4.942-11.881Z"/>
			<path class="h"
				  d="M4605.4,605.327c0,.284-.007.562-.023.84-.012.233-.029.46-.057.687a14.135,14.135,0,0,1-.228,1.487c-.045.233-.1.46-.153.687a14.661,14.661,0,0,1-.987,2.718c-.1.233-.221.465-.34.687a14.866,14.866,0,0,1-.96,1.538,8.242,8.242,0,0,1-.516.686,12.849,12.849,0,0,1-1.351,1.488c-.25.244-.505.471-.766.686a14.264,14.264,0,0,1-1.97,1.4,12.616,12.616,0,0,1-1.293.687,14.857,14.857,0,0,1-6.351,1.413H4587v-30h3.406a14.9,14.9,0,0,1,6.833,1.652,11.941,11.941,0,0,1,1.2.686,14.289,14.289,0,0,1,1.958,1.488c.25.215.488.448.721.686a15.175,15.175,0,0,1,2.044,2.6c.135.222.272.449.4.682a14.723,14.723,0,0,1,1.187,2.815c.068.226.136.453.192.686a14.054,14.054,0,0,1,.386,2.247c.029.228.046.455.057.687C4605.392,604.816,4605.4,605.072,4605.4,605.327Z"/>
			<path class="c" d="M4605.376,606.167c-.012.233-.029.46-.057.687h-4.189v-.687Z"/>
			<path class="c" d="M4605.091,608.341c-.045.233-.1.46-.153.687h-5.147v-.687Z"/>
			<path class="c" d="M4603.951,611.746c-.1.233-.221.465-.34.687h-5.069v-.687Z"/>
			<path class="c" d="M4602.651,613.971a8.242,8.242,0,0,1-.516.686h-5.262v-.686Z"/>
			<path class="c" d="M4600.784,616.145c-.25.244-.505.471-.766.686h-4.926v-.686Z"/>
			<path class="c" d="M4598.048,618.227a12.616,12.616,0,0,1-1.293.687h-4.228v-.687Z"/>
			<path class="c" d="M4605.381,604.561h-4.534v-.687h4.477C4605.353,604.1,4605.37,604.329,4605.381,604.561Z"/>
			<path class="c"
				  d="M4604.938,601.627h-4.608v-.686h4.416C4604.814,601.167,4604.882,601.394,4604.938,601.627Z"/>
			<path class="c" d="M4603.559,598.126h-4.619v-.682h4.223C4603.3,597.666,4603.435,597.893,4603.559,598.126Z"/>
			<path class="c" d="M4601.119,594.839h-5.142v-.686h4.421C4600.648,594.368,4600.886,594.6,4601.119,594.839Z"/>
			<path class="c" d="M4598.44,592.665h-4.983v-.686h3.78A11.941,11.941,0,0,1,4598.44,592.665Z"/>
			<path class="d" d="M4572,605.326a15,15,0,1,0,15-15A15,15,0,0,0,4572,605.326Z"/>
			<path class="e" d="M4576,605.325a11,11,0,1,0,11-11A11,11,0,0,0,4576,605.325Z"/>
			<path class="f"
				  d="M4587.917,615.405a11,11,0,0,1-8.223-18.3,11,11,0,1,0,15.527,15.523A10.956,10.956,0,0,1,4587.917,615.405Z"/>
			<path class="d"
				  d="M4580.509,602.463l7.8,5.851-.818.613a.846.846,0,0,1-.956-.014l-3.5-2.623-2.5,1.879,5.366,4.024.636.477a.848.848,0,0,0,.956.015l.651-.489,5.345-4.009-7.8-5.85.818-.614a.848.848,0,0,1,.956.015l3.5,2.622,2.5-1.878-6-4.5a.848.848,0,0,0-.956-.014Z"/>
		</g>
	</g>
</svg>
