<svg xmlns="http://www.w3.org/2000/svg" width="48.001" height="48" viewBox="0 0 48.001 48">
	<defs>
		<style>
			.a{fill:#afc4d9;}.b{fill:#748da5;}.b,.c,.d,.e,.f,.g,.h{fill-rule:evenodd;}.c{fill:#e08e3d;}.d{fill:#f5a454;}.e{fill:#cd7f32;}.f{fill:#c47a31;}.g{fill:#78bec0;}.h{fill:#bf7934;}
		</style>
	</defs>
	<g transform="translate(-588 -360)">
		<g transform="translate(-3984)">
			<circle class="a" cx="24" cy="24" r="24" transform="translate(4572 360)"/>
			<path class="b"
				  d="M4596,408c13.218,0,24-2.018,24-4.493s-10.782-4.493-24-4.493-24,2.019-24,4.493S4582.782,408,4596,408Z"/>
		</g>
		<g transform="translate(-3984)">
			<path class="c"
				  d="M4584,393.13v5.9a2.26,2.26,0,0,0,.824,1.612,5.841,5.841,0,0,0,.525.433,9.113,9.113,0,0,0,1.35.788c.169.077.343.16.525.237a17.825,17.825,0,0,0,2.14.752c.17.052.344.1.521.155.867.231,1.807.442,2.814.623l.526.093c.824.133,1.688.257,2.588.355.174.015.348.036.522.052.6.061,1.213.107,1.84.149.173.015.347.026.524.036q1.174.061,2.4.082c.174,0,.347,0,.524,0H4602c.761,0,1.511-.015,2.249-.041.178-.005.351-.015.525-.021.753-.035,1.491-.087,2.211-.149l.528-.046c.5-.046.984-.1,1.461-.159.177-.027.351-.047.526-.073.606-.082,1.2-.175,1.763-.279.177-.03.351-.061.522-.1.5-.093.97-.2,1.429-.309.176-.041.351-.083.521-.129q.855-.216,1.615-.468c.18-.057.353-.118.524-.18a13.808,13.808,0,0,0,1.461-.608c.186-.088.361-.181.528-.273a6.7,6.7,0,0,0,1.122-.758,3.9,3.9,0,0,0,.528-.535,2.007,2.007,0,0,0,.487-1.247v-5.9Z"/>
			<path class="d"
				  d="M4584,393.132c0,2.629,8.058,4.76,18,4.76s18-2.131,18-4.76-8.059-4.759-18-4.759S4584,390.5,4584,393.132Z"/>
			<path class="e"
				  d="M4587.225,392.5c0,1.808,6.615,3.273,14.775,3.273s14.775-1.465,14.775-3.273-6.614-3.273-14.775-3.273S4587.225,390.691,4587.225,392.5Z"/>
			<path class="f"
				  d="M4616.324,393.3c-1.619-1.419-7.417-2.469-14.324-2.469s-12.7,1.05-14.324,2.469a1.109,1.109,0,0,1-.451-.8c0-1.808,6.615-3.273,14.775-3.273s14.775,1.465,14.775,3.273A1.105,1.105,0,0,1,4616.324,393.3Z"/>
			<path class="f"
				  d="M4602.072,404.4h-.447v-2.606H4602c.761,0,1.511-.015,2.249-.041h0v2.606c-.715.025-1.441.041-2.178.041ZM4620,396.421v2.606a2.007,2.007,0,0,1-.487,1.247h0v-2.606a2.007,2.007,0,0,0,.487-1.247Zm-18.9,7.973v-2.606h0q-1.225-.022-2.4-.082v2.606h0q1.174.061,2.4.082Zm3.674-.057h0c.753-.035,1.491-.087,2.211-.149v-2.606h0q-1.08.093-2.211.15v2.605Zm-6.6-.061V401.67h0c-.627-.041-1.24-.088-1.84-.15v2.607h0c.6.061,1.213.107,1.84.149Zm9.338-.134h0c.5-.046.984-.1,1.461-.159v-2.607h0c-.477.056-.962.113-1.461.16v2.606Zm-11.7-.067v-2.606h0c-.9-.1-1.764-.221-2.588-.356v2.607h0c.824.133,1.688.257,2.588.355Zm13.687-.165h0c.606-.082,1.2-.175,1.763-.279v-2.605h0c-.567.1-1.157.2-1.763.278v2.606Zm-16.8-.283V401.02h0c-1.007-.179-1.947-.391-2.814-.623V403h0c.867.231,1.807.442,2.814.623Zm19.086-.093h0c.5-.093.97-.2,1.429-.309v-2.606h0c-.459.113-.933.216-1.429.308v2.607Zm1.95-.438h0q.855-.216,1.615-.468v-2.607h0c-.507.171-1.045.325-1.615.469V403.1Zm-24.371-.247v-2.606h0a18,18,0,0,1-2.14-.752V402.1h0a17.825,17.825,0,0,0,2.14.752Zm26.51-.4h0a13.808,13.808,0,0,0,1.461-.608v-2.606h0a13.6,13.6,0,0,1-1.461.607v2.607Zm-29.175-.588v-2.606h0a9.113,9.113,0,0,1-1.35-.788v2.606h0a9.113,9.113,0,0,0,1.35.788Zm31.164-.293h0a6.7,6.7,0,0,0,1.122-.758V398.2h0a6.761,6.761,0,0,1-1.122.758v2.606Zm-33.039-.928v-2.605h0a2.263,2.263,0,0,1-.824-1.613v2.606A2.26,2.26,0,0,0,4584.825,400.639Z"/>
		</g>
		<g transform="translate(-3984)">
			<path class="g" d="M4579.991,401.088l-.752-2.242,6.46-15.71Z"/>
			<path class="g" d="M4576.755,391.449l-.753-2.241,4.942-11.881Z"/>
			<path class="h"
				  d="M4605.4,389.4c0,.283-.007.562-.023.84-.012.232-.029.459-.057.686a14.135,14.135,0,0,1-.228,1.487c-.045.233-.1.46-.153.687a14.661,14.661,0,0,1-.987,2.718c-.1.234-.221.466-.34.687a14.862,14.862,0,0,1-.96,1.538,8.422,8.422,0,0,1-.516.687,12.922,12.922,0,0,1-1.351,1.487q-.375.366-.766.686a14.273,14.273,0,0,1-1.97,1.4,12.8,12.8,0,0,1-1.293.686,14.858,14.858,0,0,1-6.351,1.414H4587v-30h3.406a14.9,14.9,0,0,1,6.833,1.651,12.147,12.147,0,0,1,1.2.687,14.276,14.276,0,0,1,1.958,1.487c.25.215.488.448.721.686a15.174,15.174,0,0,1,2.044,2.6c.135.222.272.449.4.682a14.722,14.722,0,0,1,1.187,2.815c.068.227.136.454.192.686a14.047,14.047,0,0,1,.386,2.248c.029.227.046.454.057.686C4605.392,388.889,4605.4,389.144,4605.4,389.4Z"/>
			<path class="c" d="M4605.376,390.24c-.012.232-.029.459-.057.686h-4.189v-.686Z"/>
			<path class="c" d="M4605.091,392.413c-.045.233-.1.46-.153.687h-5.147v-.687Z"/>
			<path class="c" d="M4603.951,395.818c-.1.234-.221.466-.34.687h-5.069v-.687Z"/>
			<path class="c" d="M4602.651,398.043a8.422,8.422,0,0,1-.516.687h-5.262v-.687Z"/>
			<path class="c" d="M4600.784,400.217q-.375.366-.766.686h-4.926v-.686Z"/>
			<path class="c" d="M4598.048,402.3a12.8,12.8,0,0,1-1.293.686h-4.228V402.3Z"/>
			<path class="c" d="M4605.381,388.633h-4.534v-.686h4.477C4605.353,388.174,4605.37,388.4,4605.381,388.633Z"/>
			<path class="c" d="M4604.938,385.7h-4.608v-.686h4.416C4604.814,385.24,4604.882,385.467,4604.938,385.7Z"/>
			<path class="c" d="M4603.559,382.2h-4.619v-.682h4.223C4603.3,381.738,4603.435,381.965,4603.559,382.2Z"/>
			<path class="c"
				  d="M4601.119,378.911h-5.142v-.686h4.421C4600.648,378.44,4600.886,378.673,4601.119,378.911Z"/>
			<path class="c" d="M4598.44,376.738h-4.983v-.687h3.78A12.147,12.147,0,0,1,4598.44,376.738Z"/>
			<path class="d" d="M4572,389.4a15,15,0,1,0,15-15A15,15,0,0,0,4572,389.4Z"/>
			<path class="e" d="M4576,389.4a11,11,0,1,0,11-11A11,11,0,0,0,4576,389.4Z"/>
			<path class="f"
				  d="M4587.917,399.477a11,11,0,0,1-8.223-18.3,11,11,0,1,0,15.527,15.523A10.96,10.96,0,0,1,4587.917,399.477Z"/>
			<path class="d"
				  d="M4580.509,386.535l7.8,5.851-.818.613a.846.846,0,0,1-.956-.014l-3.5-2.623-2.5,1.879,5.366,4.024.636.477a.848.848,0,0,0,.956.015l.651-.489,5.345-4.008-7.8-5.851.818-.614a.848.848,0,0,1,.956.015l3.5,2.623,2.5-1.879-6-4.5a.846.846,0,0,0-.956-.015Z"/>
		</g>
	</g>
</svg>
