<svg xmlns="http://www.w3.org/2000/svg" width="48" height="48" viewBox="0 0 48 48">
	<defs>
		<style>
			.a{fill:#afc4d9;}.b{fill:#748da5;}.b,.c,.d,.e,.f,.g,.h,.i,.j,.k,.l{fill-rule:evenodd;}.c{fill:#fec335;}.d{fill:#ffdd2f;}.e{fill:#ffd033;}.f{fill:#faac38;}.g{fill:#e4a636;}.h{fill:#78bec0;}.i{fill:#a7772e;}.j{fill:#c98e33;}.k{fill:#e3b233;}.l{fill:#d89b35;}
		</style>
	</defs>
	<g transform="translate(-983.999 -575.999)">
		<g transform="translate(-3984)">
			<circle class="a" cx="24" cy="24" r="24" transform="translate(4967.999 575.999)"/>
			<path class="b"
				  d="M4992,624c13.219,0,24-2.018,24-4.493s-10.781-4.493-24-4.493-24,2.019-24,4.493S4978.78,624,4992,624Z"/>
		</g>
		<g transform="translate(-3984)">
			<path class="c"
				  d="M4986,611.008v4.914a1.883,1.883,0,0,0,.687,1.343,4.938,4.938,0,0,0,.438.361,7.6,7.6,0,0,0,1.125.656c.14.065.286.134.438.2a14.838,14.838,0,0,0,1.782.627c.143.042.287.086.435.128.723.194,1.506.369,2.345.52l.438.077c.687.111,1.407.214,2.157.3.145.013.29.03.435.043.5.051,1.01.09,1.533.125.145.012.29.021.437.03.653.034,1.32.055,2,.068.144,0,.289.005.437.005H5001c.635,0,1.26-.013,1.875-.035.148,0,.293-.013.438-.017.627-.03,1.242-.073,1.842-.125l.44-.038c.415-.039.82-.086,1.218-.133.147-.022.292-.039.438-.06.5-.069,1-.146,1.469-.232q.222-.037.435-.082c.413-.076.808-.163,1.19-.257.148-.034.293-.069.435-.107.475-.12.923-.249,1.345-.391.151-.047.295-.1.438-.15a11.333,11.333,0,0,0,1.217-.507c.155-.073.3-.15.44-.227a5.65,5.65,0,0,0,.935-.631,3.22,3.22,0,0,0,.44-.446,1.674,1.674,0,0,0,.4-1.039v-4.914Z"/>
			<path class="d"
				  d="M4986,611.009c0,2.191,6.715,3.967,15,3.967s15-1.776,15-3.967-6.715-3.966-15-3.966S4986,608.819,4986,611.009Z"/>
			<path class="e"
				  d="M4988.687,610.482c0,1.506,5.512,2.727,12.312,2.727s12.313-1.221,12.313-2.727-5.513-2.728-12.313-2.728S4988.687,608.975,4988.687,610.482Z"/>
			<path class="f"
				  d="M5012.936,611.152c-1.35-1.182-6.182-2.057-11.937-2.057s-10.587.875-11.937,2.057a.921.921,0,0,1-.375-.67c0-1.507,5.512-2.728,12.312-2.728s12.313,1.221,12.313,2.728A.922.922,0,0,1,5012.936,611.152Z"/>
			<path class="g"
				  d="M5001.059,620.4h-.372v-2.172H5001c.635,0,1.26-.013,1.875-.035h0v2.172c-.6.021-1.2.034-1.815.035ZM5016,613.75v2.172a1.674,1.674,0,0,1-.4,1.039h0v-2.172a1.674,1.674,0,0,0,.4-1.039Zm-15.749,6.644v-2.171h0c-.681-.014-1.348-.035-2-.069v2.172h0c.653.034,1.32.055,2,.068Zm3.062-.047h0c.627-.03,1.242-.073,1.842-.125v-2.171h0c-.6.051-1.215.094-1.842.125v2.171Zm-5.5-.051v-2.172h0c-.523-.034-1.033-.073-1.533-.125v2.172h0c.5.051,1.01.09,1.533.125Zm7.782-.112h0c.415-.039.82-.086,1.218-.133v-2.172h0c-.4.047-.8.094-1.218.133v2.172Zm-9.75-.056v-2.172h0c-.75-.081-1.47-.184-2.157-.3v2.172h0c.687.111,1.407.214,2.157.3Zm11.406-.137h0c.5-.069,1-.146,1.469-.232v-2.172h0c-.472.086-.965.163-1.469.232v2.172Zm-14-.236v-2.172h0c-.839-.15-1.622-.326-2.345-.519v2.171h0c.723.194,1.506.369,2.345.52Zm15.9-.078h0c.413-.076.808-.163,1.19-.257v-2.172h0c-.382.1-.777.18-1.19.257v2.172Zm1.625-.364h0c.475-.12.923-.249,1.345-.391V616.75h0c-.422.142-.87.271-1.345.391v2.172Zm-20.31-.206v-2.172h0a14.849,14.849,0,0,1-1.782-.627v2.172h0a14.838,14.838,0,0,0,1.782.627Zm22.093-.335h0a11.333,11.333,0,0,0,1.217-.507v-2.171h0a11.54,11.54,0,0,1-1.217.506v2.172Zm-24.313-.49v-2.171h0a7.694,7.694,0,0,1-1.125-.657v2.172h0a7.6,7.6,0,0,0,1.125.656Zm25.97-.244h0a5.65,5.65,0,0,0,.935-.631v-2.172h0a5.65,5.65,0,0,1-.935.631v2.172Zm-27.533-.773v-2.171h0a1.885,1.885,0,0,1-.687-1.344v2.172A1.883,1.883,0,0,0,4986.686,617.265Z"/>
		</g>
		<g transform="translate(-3984)">
			<path class="c"
				  d="M4984.659,604.1v4.915a1.884,1.884,0,0,0,.687,1.343,4.915,4.915,0,0,0,.437.36,7.585,7.585,0,0,0,1.126.657c.14.065.285.133.437.2a14.934,14.934,0,0,0,1.783.628l.435.128c.722.193,1.5.369,2.345.52l.437.077c.687.111,1.407.214,2.157.3.145.013.291.03.436.043.5.051,1.01.09,1.533.124.144.013.289.022.436.03q.979.051,2,.069c.145,0,.29,0,.437,0h.313c.635,0,1.259-.013,1.875-.035.147-.005.292-.013.437-.017.628-.03,1.243-.073,1.843-.125l.44-.038c.415-.039.82-.087,1.217-.133.147-.022.292-.039.438-.06.5-.069,1-.146,1.47-.233.147-.025.292-.051.435-.081.413-.077.808-.163,1.19-.257.147-.034.293-.069.434-.108.476-.12.923-.249,1.346-.39.15-.047.295-.1.437-.15a11.556,11.556,0,0,0,1.218-.507c.155-.073.3-.15.439-.227a5.753,5.753,0,0,0,.936-.631,3.354,3.354,0,0,0,.439-.446,1.667,1.667,0,0,0,.406-1.039V604.1Z"/>
			<path class="d"
				  d="M4984.659,604.106c0,2.19,6.715,3.966,15,3.966s15-1.776,15-3.966-6.716-3.966-15-3.966S4984.659,601.916,4984.659,604.106Z"/>
			<path class="e"
				  d="M4987.346,603.579c0,1.506,5.512,2.727,12.313,2.727s12.312-1.221,12.312-2.727-5.512-2.728-12.312-2.728S4987.346,602.072,4987.346,603.579Z"/>
			<path class="f"
				  d="M5011.6,604.249c-1.349-1.182-6.181-2.057-11.936-2.057s-10.587.875-11.937,2.057a.921.921,0,0,1-.376-.67c0-1.507,5.512-2.728,12.313-2.728s12.312,1.221,12.312,2.728A.923.923,0,0,1,5011.6,604.249Z"/>
			<path class="g"
				  d="M4999.718,613.5h-.372v-2.172h.313c.635,0,1.259-.013,1.875-.035h0v2.172c-.6.021-1.2.034-1.816.035Zm14.941-6.649v2.172a1.667,1.667,0,0,1-.406,1.039h0v-2.172a1.667,1.667,0,0,0,.406-1.039Zm-15.75,6.644V611.32h0c-.681-.014-1.348-.035-2-.069v2.171h0q.979.051,2,.069Zm3.062-.047h0c.628-.03,1.243-.073,1.843-.125v-2.171h0c-.6.051-1.215.094-1.843.124v2.172Zm-5.5-.052v-2.171h0c-.523-.035-1.033-.073-1.533-.125v2.172h0c.5.051,1.01.09,1.533.124Zm7.782-.111h0c.415-.039.82-.087,1.217-.133v-2.172h0c-.4.047-.8.094-1.217.133v2.172Zm-9.751-.056v-2.172h0c-.75-.081-1.47-.184-2.157-.3v2.172h0c.687.111,1.407.214,2.157.3Zm11.406-.137h0c.5-.069,1-.146,1.47-.233v-2.171h0c-.473.086-.965.163-1.47.232v2.172Zm-14-.236V610.68h0c-.84-.15-1.623-.326-2.345-.52v2.172h0c.722.193,1.5.369,2.345.52Zm15.9-.078h0c.413-.077.808-.163,1.19-.257v-2.172h0c-.382.094-.777.18-1.19.257v2.172Zm1.624-.365h0c.476-.12.923-.249,1.346-.39v-2.172h0c-.423.142-.87.271-1.346.391v2.171Zm-20.309-.205v-2.172h0a14.949,14.949,0,0,1-1.783-.627v2.171h0a14.934,14.934,0,0,0,1.783.628Zm22.092-.335h0a11.556,11.556,0,0,0,1.218-.507V609.19h0a11.352,11.352,0,0,1-1.218.507v2.172Zm-24.312-.49v-2.171h0a7.765,7.765,0,0,1-1.126-.657v2.171h0a7.585,7.585,0,0,0,1.126.657Zm25.969-.244h0a5.753,5.753,0,0,0,.936-.631v-2.172h0a5.683,5.683,0,0,1-.936.631v2.172Zm-27.532-.773v-2.171h0a1.885,1.885,0,0,1-.687-1.344v2.172A1.884,1.884,0,0,0,4985.346,610.362Z"/>
		</g>
		<g transform="translate(-3984)">
			<path class="c"
				  d="M5013.659,596.885V601.8a1.881,1.881,0,0,1-.686,1.343,4.84,4.84,0,0,1-.438.361,7.684,7.684,0,0,1-1.125.657c-.14.064-.286.133-.438.2a14.879,14.879,0,0,1-1.782.627l-.435.129c-.723.193-1.506.369-2.345.519-.143.026-.29.052-.438.077-.687.112-1.407.215-2.157.3-.145.012-.29.029-.435.042-.5.052-1.01.091-1.533.125-.145.013-.29.021-.437.03-.653.034-1.32.055-2,.069-.145,0-.289,0-.437,0h-.312c-.635,0-1.26-.013-1.875-.035-.148,0-.293-.012-.438-.017-.627-.03-1.242-.072-1.842-.124l-.44-.039c-.415-.038-.82-.086-1.218-.132-.147-.022-.292-.039-.438-.061-.505-.068-1-.146-1.469-.232-.148-.025-.293-.051-.436-.082-.412-.076-.807-.162-1.19-.256-.147-.035-.292-.07-.434-.108-.475-.12-.923-.249-1.346-.391-.15-.047-.294-.1-.437-.15a11.55,11.55,0,0,1-1.217-.506c-.155-.074-.3-.151-.44-.228a5.672,5.672,0,0,1-.935-.631,3.246,3.246,0,0,1-.44-.446,1.672,1.672,0,0,1-.406-1.039v-4.914Z"/>
			<path class="d"
				  d="M5013.659,596.887c0,2.19-6.715,3.966-15,3.966s-15-1.776-15-3.966,6.716-3.966,15-3.966S5013.659,594.7,5013.659,596.887Z"/>
			<path class="e"
				  d="M5010.972,596.359c0,1.506-5.512,2.727-12.312,2.727s-12.313-1.221-12.313-2.727,5.513-2.728,12.313-2.728S5010.972,594.852,5010.972,596.359Z"/>
			<path class="f"
				  d="M4986.723,597.029c1.35-1.182,6.181-2.057,11.937-2.057s10.587.875,11.937,2.057a.922.922,0,0,0,.375-.67c0-1.507-5.512-2.728-12.312-2.728s-12.313,1.221-12.313,2.728A.922.922,0,0,0,4986.723,597.029Z"/>
			<path class="g"
				  d="M4998.6,606.276h.372V604.1h-.312c-.635,0-1.26-.013-1.875-.035h0v2.172c.6.021,1.2.034,1.815.035Zm-14.941-6.649V601.8a1.672,1.672,0,0,0,.406,1.039h0v-2.172a1.673,1.673,0,0,1-.406-1.039Zm15.75,6.645V604.1h0c.681-.014,1.348-.034,2-.069V606.2h0c-.653.034-1.32.055-2,.069Zm-3.062-.048h0c-.627-.03-1.242-.072-1.842-.124v-2.172h0c.6.052,1.215.094,1.842.125v2.171Zm5.5-.051V604h0c.523-.034,1.033-.073,1.533-.124v2.171h0c-.5.052-1.01.091-1.533.125Zm-7.782-.112h0c-.415-.038-.82-.086-1.218-.132v-2.173h0c.4.047.8.1,1.218.133v2.172Zm9.75-.055v-2.172h0c.75-.082,1.47-.185,2.157-.3v2.172h0c-.687.112-1.407.215-2.157.3Zm-11.406-.138h0c-.505-.068-1-.146-1.469-.232v-2.172h0c.472.086.964.163,1.469.232v2.172Zm14-.236V603.46h0c.839-.15,1.622-.326,2.345-.519v2.172h0c-.723.193-1.506.369-2.345.519Zm-15.906-.078h0c-.412-.076-.807-.162-1.19-.256v-2.172h0c.383.094.778.18,1.19.257v2.171Zm-1.624-.364h0c-.475-.12-.923-.249-1.346-.391v-2.172h0c.423.142.871.271,1.346.391v2.172Zm20.31-.206v-2.172h0a14.879,14.879,0,0,0,1.782-.627v2.172h0a14.879,14.879,0,0,1-1.782.627Zm-22.093-.335h0a11.55,11.55,0,0,1-1.217-.506v-2.172h0a11.346,11.346,0,0,0,1.217.506v2.172Zm24.313-.489v-2.172h0a7.592,7.592,0,0,0,1.125-.657V603.5h0a7.684,7.684,0,0,1-1.125.657Zm-25.97-.245h0a5.672,5.672,0,0,1-.935-.631v-2.172h0a5.672,5.672,0,0,0,.935.631v2.172Zm27.533-.773v-2.171h0a1.885,1.885,0,0,0,.686-1.344V601.8A1.881,1.881,0,0,1,5012.973,603.142Z"/>
		</g>
		<g transform="translate(-3984)">
			<path class="c"
				  d="M4981.969,589.88v4.915a1.884,1.884,0,0,0,.687,1.343,5.016,5.016,0,0,0,.438.36,7.522,7.522,0,0,0,1.125.657c.14.065.285.134.437.2a15.165,15.165,0,0,0,1.783.627l.435.128c.722.193,1.5.369,2.345.52l.437.077c.687.111,1.408.214,2.158.3.145.013.29.03.435.043.5.051,1.01.09,1.533.124.144.013.29.022.436.031.653.034,1.32.055,2,.068.145,0,.29,0,.437,0h.313c.635,0,1.259-.013,1.875-.035.148,0,.292-.013.437-.017.628-.03,1.243-.073,1.843-.125l.44-.038c.415-.039.82-.086,1.217-.133.148-.022.293-.039.438-.06.5-.069,1-.146,1.47-.233.147-.025.292-.051.435-.081.413-.077.808-.163,1.19-.257.147-.035.293-.069.435-.108.475-.12.923-.249,1.345-.39.15-.047.295-.1.437-.15a11.48,11.48,0,0,0,1.218-.507c.155-.073.3-.15.44-.227a5.742,5.742,0,0,0,.935-.631,3.3,3.3,0,0,0,.439-.446,1.667,1.667,0,0,0,.406-1.039V589.88Z"/>
			<path class="d"
				  d="M4981.969,589.882c0,2.19,6.715,3.966,15,3.966s15-1.776,15-3.966-6.716-3.966-15-3.966S4981.969,587.692,4981.969,589.882Z"/>
			<path class="e"
				  d="M4984.656,589.355c0,1.506,5.513,2.727,12.313,2.727s12.312-1.221,12.312-2.727-5.512-2.728-12.312-2.728S4984.656,587.848,4984.656,589.355Z"/>
			<path class="f"
				  d="M5008.9,590.025c-1.349-1.182-6.181-2.057-11.936-2.057s-10.587.875-11.937,2.057a.925.925,0,0,1-.376-.67c0-1.507,5.513-2.728,12.313-2.728s12.312,1.221,12.312,2.728A.921.921,0,0,1,5008.9,590.025Z"/>
			<path class="g"
				  d="M4997.029,599.272h-.373V597.1h.313c.635,0,1.259-.013,1.875-.035h0v2.172c-.6.021-1.2.034-1.815.035Zm14.94-6.649v2.172a1.667,1.667,0,0,1-.406,1.039h0v-2.172a1.667,1.667,0,0,0,.406-1.039Zm-15.75,6.644V597.1h0c-.681-.014-1.348-.035-2-.069V599.2h0c.653.034,1.32.055,2,.068Zm3.062-.047h0c.628-.03,1.243-.073,1.843-.125v-2.171h0c-.6.051-1.215.094-1.843.124v2.172Zm-5.5-.052V597h0c-.523-.035-1.033-.073-1.533-.125v2.172h0c.5.051,1.01.09,1.533.124Zm7.782-.111h0c.415-.039.82-.086,1.217-.133v-2.172h0c-.4.047-.8.094-1.217.133v2.172Zm-9.75-.056v-2.172h0c-.75-.081-1.471-.184-2.158-.3v2.172h0c.687.111,1.408.214,2.158.3Zm11.405-.137h0c.5-.069,1-.146,1.47-.233V596.46h0c-.473.086-.965.163-1.47.232v2.172Zm-14-.236v-2.172h0c-.84-.15-1.623-.326-2.345-.52v2.172h0c.722.193,1.5.369,2.345.52Zm15.9-.078h0c.413-.077.808-.163,1.19-.257v-2.172h0c-.382.094-.777.18-1.19.257v2.172Zm1.625-.365h0c.475-.12.923-.249,1.345-.39v-2.172h0c-.422.142-.87.271-1.345.391v2.171Zm-20.31-.205v-2.172h0a14.989,14.989,0,0,1-1.783-.627v2.172h0a15.165,15.165,0,0,0,1.783.627Zm22.092-.335h0a11.48,11.48,0,0,0,1.218-.507v-2.172h0a11.279,11.279,0,0,1-1.218.507v2.172Zm-24.312-.49v-2.171h0a7.7,7.7,0,0,1-1.125-.657V596.5h0a7.522,7.522,0,0,0,1.125.657Zm25.97-.244h0a5.742,5.742,0,0,0,.935-.631v-2.172h0a5.672,5.672,0,0,1-.935.631v2.172Zm-27.533-.773v-2.171h0a1.886,1.886,0,0,1-.687-1.344v2.172A1.884,1.884,0,0,0,4982.656,596.138Z"/>
		</g>
		<g transform="translate(-3984)">
			<path class="h" d="M4975.99,617.087l-.752-2.242,6.461-15.71Z"/>
			<path class="i" d="M4972.754,607.448l-.753-2.241,4.942-11.88Z"/>
			<path class="j"
				  d="M5001.4,605.4c0,.283-.006.562-.022.84-.012.233-.029.46-.057.686a14.133,14.133,0,0,1-.228,1.487c-.045.234-.1.46-.153.687a14.705,14.705,0,0,1-.987,2.718c-.1.234-.221.466-.34.687a14.865,14.865,0,0,1-.96,1.538,8.411,8.411,0,0,1-.516.687,12.92,12.92,0,0,1-1.351,1.487c-.25.244-.505.472-.766.687a14.412,14.412,0,0,1-1.97,1.4,12.52,12.52,0,0,1-1.294.686,14.85,14.85,0,0,1-6.35,1.414H4983v-30h3.406a14.884,14.884,0,0,1,6.833,1.652,12.037,12.037,0,0,1,1.2.686,14.281,14.281,0,0,1,1.958,1.487c.25.216.488.449.721.687a15.214,15.214,0,0,1,2.044,2.6c.135.222.272.449.4.682a14.682,14.682,0,0,1,1.186,2.815c.068.227.136.454.193.686a14.067,14.067,0,0,1,.386,2.248c.029.227.046.454.057.686Q5001.4,605.016,5001.4,605.4Z"/>
			<path class="i" d="M5001.375,606.239c-.012.233-.029.46-.057.686h-4.189v-.686Z"/>
			<path class="i" d="M5001.09,608.412c-.045.234-.1.46-.153.687h-5.147v-.687Z"/>
			<path class="i" d="M4999.95,611.817c-.1.234-.221.466-.34.687h-5.069v-.687Z"/>
			<path class="i" d="M4998.65,614.042a8.411,8.411,0,0,1-.516.687h-5.262v-.687Z"/>
			<path class="i" d="M4996.783,616.216c-.25.244-.505.472-.766.687h-4.926v-.687Z"/>
			<path class="i" d="M4994.047,618.3a12.52,12.52,0,0,1-1.294.686h-4.227V618.3Z"/>
			<path class="i" d="M5001.38,604.632h-4.534v-.686h4.477C5001.352,604.173,5001.369,604.4,5001.38,604.632Z"/>
			<path class="i" d="M5000.937,601.7h-4.608v-.686h4.415C5000.812,601.239,5000.88,601.466,5000.937,601.7Z"/>
			<path class="i" d="M4999.558,598.2h-4.619v-.682h4.223C4999.3,597.737,4999.434,597.964,4999.558,598.2Z"/>
			<path class="i"
				  d="M4997.118,594.911h-5.142v-.687h4.421C4996.647,594.44,4996.885,594.673,4997.118,594.911Z"/>
			<path class="i" d="M4994.439,592.737h-4.983v-.686h3.78A12.037,12.037,0,0,1,4994.439,592.737Z"/>
			<path class="e" d="M4968,605.4a15,15,0,1,0,15-15A15,15,0,0,0,4968,605.4Z"/>
			<path class="k" d="M4972,605.4a11,11,0,1,0,11-11A11,11,0,0,0,4972,605.4Z"/>
			<path class="l"
				  d="M4983.916,615.476a11,11,0,0,1-8.223-18.3A11,11,0,1,0,4991.22,612.7,10.955,10.955,0,0,1,4983.916,615.476Z"/>
			<path class="e"
				  d="M4976.508,602.534l7.8,5.851-.818.614a.848.848,0,0,1-.956-.015l-3.5-2.623-2.5,1.879,5.366,4.024.636.477a.848.848,0,0,0,.956.015l.651-.488,5.345-4.009-7.8-5.851.818-.614a.848.848,0,0,1,.956.015l3.5,2.623,2.5-1.879-6-4.5a.848.848,0,0,0-.956-.015Z"/>
		</g>
	</g>
</svg>
