<svg xmlns="http://www.w3.org/2000/svg" width="54.213" height="50.609" viewBox="0 0 54.213 50.609">
	<defs>
		<style>
			.a{fill:#afc4d9;}.b{fill:#748da5;}.b,.c,.d,.e,.f,.g,.h,.i,.j,.l,.m{fill-rule:evenodd;}.c{fill:#fec335;}.d{fill:#ffdd2f;}.e,.k{fill:#ffd033;}.f{fill:#faac38;}.g{fill:#e4a636;}.h{fill:#78bec0;}.i{fill:#a7772e;}.j{fill:#c98e33;}.l{fill:#e3b233;}.m{fill:#d89b35;}
		</style>
	</defs>
	<g transform="translate(-977.787 -503.999)">
		<g transform="translate(-3984)">
			<circle class="a" cx="24" cy="24" r="24" transform="translate(4967.999 503.999)"/>
			<path class="b"
				  d="M4992,552c13.219,0,24-2.019,24-4.493s-10.781-4.493-24-4.493-24,2.018-24,4.493S4978.78,552,4992,552Z"/>
		</g>
		<g transform="translate(-3984)">
			<path class="c"
				  d="M4980,537.13v5.9a2.259,2.259,0,0,0,.824,1.612,6.012,6.012,0,0,0,.525.433,9.208,9.208,0,0,0,1.35.788c.168.077.343.159.525.236a18.058,18.058,0,0,0,2.139.753c.171.051.345.1.522.154.867.232,1.807.443,2.814.623l.525.093c.825.134,1.689.257,2.589.356.174.015.348.035.522.051.6.062,1.213.108,1.84.149.173.016.347.026.524.036.783.041,1.584.067,2.4.083.174,0,.347.005.524.005H4998c.762,0,1.512-.016,2.25-.042.177-.005.351-.015.525-.02.753-.036,1.491-.087,2.211-.149l.528-.047c.5-.046.984-.1,1.461-.159.177-.026.351-.047.526-.073.606-.082,1.2-.175,1.763-.278.177-.03.351-.062.522-.1.5-.092.97-.2,1.429-.308.176-.042.35-.083.521-.129.57-.144,1.108-.3,1.614-.469.181-.056.354-.118.525-.18a13.9,13.9,0,0,0,1.461-.608c.186-.088.36-.18.528-.273a6.78,6.78,0,0,0,1.122-.757,4.018,4.018,0,0,0,.528-.535,2.008,2.008,0,0,0,.486-1.247v-5.9Z"/>
			<path class="d"
				  d="M4980,537.132c0,2.628,8.058,4.759,18,4.759s18-2.131,18-4.759-8.059-4.759-18-4.759S4980,534.5,4980,537.132Z"/>
			<path class="e"
				  d="M4983.224,536.5c0,1.807,6.615,3.273,14.775,3.273s14.775-1.466,14.775-3.273-6.615-3.274-14.775-3.274S4983.224,534.691,4983.224,536.5Z"/>
			<path class="f"
				  d="M5012.323,537.3c-1.62-1.418-7.418-2.468-14.324-2.468s-12.7,1.05-14.324,2.468a1.107,1.107,0,0,1-.451-.8c0-1.808,6.615-3.274,14.775-3.274s14.775,1.466,14.775,3.274A1.1,1.1,0,0,1,5012.323,537.3Z"/>
			<path class="g"
				  d="M4998.071,548.4h-.447v-2.606H4998c.762,0,1.512-.016,2.25-.042h0v2.606q-1.072.039-2.178.042ZM5016,540.421v2.606a2.008,2.008,0,0,1-.486,1.247h0v-2.606a2.01,2.01,0,0,0,.486-1.247Zm-18.9,7.973v-2.606h0c-.817-.016-1.618-.042-2.4-.083v2.606h0c.783.041,1.584.067,2.4.083Zm3.674-.057h0c.753-.036,1.491-.087,2.211-.149v-2.607h0q-1.08.094-2.211.15v2.606Zm-6.6-.062v-2.606h0c-.627-.041-1.24-.088-1.84-.149v2.606h0c.6.062,1.213.108,1.84.149Zm9.338-.134h0c.5-.046.984-.1,1.461-.159v-2.607h0c-.477.057-.963.114-1.461.16v2.606Zm-11.7-.066v-2.607h0c-.9-.1-1.764-.221-2.589-.355v2.606h0c.825.134,1.689.257,2.589.356Zm13.687-.166h0c.606-.082,1.2-.175,1.763-.278v-2.606h0c-.567.1-1.157.2-1.763.278v2.606Zm-16.8-.283V545.02h0c-1.007-.18-1.947-.391-2.814-.623V547h0c.867.232,1.807.443,2.814.623Zm19.086-.093h0c.5-.092.97-.2,1.429-.308v-2.606h0c-.459.112-.933.216-1.429.308v2.606Zm1.95-.437h0c.57-.144,1.108-.3,1.614-.469v-2.606h0c-.506.17-1.044.325-1.614.469V547.1Zm-24.372-.247v-2.607h0a18.079,18.079,0,0,1-2.139-.751v2.6h0a18.058,18.058,0,0,0,2.139.753Zm26.511-.4h0a13.9,13.9,0,0,0,1.461-.608v-2.606h0a13.671,13.671,0,0,1-1.461.608v2.606Zm-29.175-.587v-2.607h0a9.121,9.121,0,0,1-1.35-.788v2.607h0a9.208,9.208,0,0,0,1.35.788Zm31.164-.294h0a6.78,6.78,0,0,0,1.122-.757V542.2h0a6.781,6.781,0,0,1-1.122.758v2.606Zm-33.039-.927v-2.606h0a2.259,2.259,0,0,1-.824-1.612v2.606A2.259,2.259,0,0,0,4980.824,544.639Z"/>
		</g>
		<g transform="translate(-3984)">
			<path class="c"
				  d="M5014.825,528.671v5.9a2.259,2.259,0,0,1-.824,1.612,5.92,5.92,0,0,1-.526.433,9.016,9.016,0,0,1-1.35.788c-.168.077-.342.16-.525.237a18.01,18.01,0,0,1-2.139.752c-.171.051-.345.1-.522.154-.866.232-1.806.443-2.814.623-.171.031-.348.063-.525.093-.824.134-1.688.258-2.588.356-.174.015-.348.036-.523.051-.6.062-1.212.108-1.839.15-.173.015-.348.026-.524.036q-1.176.061-2.4.082c-.174,0-.348.005-.525.005h-.375c-.762,0-1.511-.015-2.25-.041-.177-.005-.351-.016-.525-.021-.752-.035-1.491-.087-2.21-.149l-.529-.046c-.5-.047-.984-.1-1.46-.159-.177-.027-.351-.047-.526-.073-.606-.082-1.2-.175-1.764-.279-.177-.03-.351-.061-.522-.1-.5-.092-.969-.195-1.428-.308-.177-.041-.351-.083-.521-.129-.57-.144-1.108-.3-1.615-.469-.18-.056-.354-.118-.524-.179a14.239,14.239,0,0,1-1.461-.608c-.187-.088-.361-.181-.528-.273a6.736,6.736,0,0,1-1.122-.758,3.841,3.841,0,0,1-.528-.535,2.007,2.007,0,0,1-.487-1.247v-5.9Z"/>
			<path class="d"
				  d="M5014.825,528.673c0,2.629-8.058,4.759-18,4.759s-18-2.13-18-4.759,8.059-4.759,18-4.759S5014.825,526.045,5014.825,528.673Z"/>
			<path class="e"
				  d="M5011.6,528.04c0,1.807-6.615,3.273-14.774,3.273s-14.775-1.466-14.775-3.273,6.614-3.273,14.775-3.273S5011.6,526.232,5011.6,528.04Z"/>
			<path class="f"
				  d="M4982.5,528.845c1.619-1.419,7.417-2.469,14.324-2.469s12.7,1.05,14.323,2.469a1.106,1.106,0,0,0,.451-.8c0-1.808-6.615-3.273-14.774-3.273s-14.775,1.465-14.775,3.273A1.106,1.106,0,0,0,4982.5,528.845Z"/>
			<path class="g"
				  d="M4996.754,539.94h.446v-2.606h-.375c-.762,0-1.511-.016-2.25-.041h0V539.9c.716.025,1.442.04,2.179.041Zm-17.929-7.978v2.606a2.007,2.007,0,0,0,.487,1.247h0v-2.606a2.007,2.007,0,0,1-.487-1.247Zm18.9,7.973v-2.606h0c.817-.016,1.617-.041,2.4-.083v2.607h0q-1.176.061-2.4.082Zm-3.675-.057h0c-.752-.035-1.491-.087-2.21-.149v-2.606h0c.719.062,1.458.113,2.21.15v2.6Zm6.6-.061v-2.606h0c.627-.041,1.24-.088,1.839-.15v2.606h0c-.6.062-1.212.108-1.839.15Zm-9.339-.134h0c-.5-.047-.984-.1-1.46-.159v-2.607h0c.476.056.962.113,1.46.16v2.606Zm11.7-.067V537.01h0c.9-.1,1.764-.222,2.588-.356v2.606h0c-.824.134-1.688.258-2.588.356Zm-13.687-.165h0c-.606-.082-1.2-.175-1.764-.279v-2.6h0c.567.1,1.158.2,1.764.278v2.606Zm16.8-.284v-2.606h0c1.008-.179,1.948-.391,2.814-.623v2.606h0c-.866.232-1.806.443-2.814.623Zm-19.086-.093h0c-.5-.092-.969-.195-1.428-.308V536.16h0c.459.113.933.216,1.428.308v2.606Zm-1.949-.437h0c-.57-.144-1.108-.3-1.615-.469v-2.606h0c.507.17,1.045.325,1.615.469v2.606Zm24.371-.247v-2.606h0a18.01,18.01,0,0,0,2.139-.752v2.606h0a18.01,18.01,0,0,1-2.139.752Zm-26.51-.4h0a14.239,14.239,0,0,1-1.461-.608v-2.607h0a13.391,13.391,0,0,0,1.461.608v2.607Zm29.174-.588v-2.606h0a9.1,9.1,0,0,0,1.35-.788v2.606h0a9.016,9.016,0,0,1-1.35.788Zm-31.163-.293h0a6.736,6.736,0,0,1-1.122-.758v-2.606h0a6.739,6.739,0,0,0,1.122.757v2.607ZM5014,536.18v-2.606h0a2.259,2.259,0,0,0,.824-1.612v2.606A2.259,2.259,0,0,1,5014,536.18Z"/>
		</g>
		<g transform="translate(-3984)">
			<path class="c"
				  d="M4977.206,520.26v5.9a2.264,2.264,0,0,0,.824,1.612,5.927,5.927,0,0,0,.526.432,9.049,9.049,0,0,0,1.35.788c.168.078.343.16.525.237a17.965,17.965,0,0,0,2.139.753c.171.051.345.1.522.154.867.232,1.806.443,2.814.623l.525.093c.825.134,1.689.257,2.589.355.174.016.348.036.522.052.6.062,1.212.108,1.839.149.174.016.348.026.524.036.784.041,1.584.067,2.4.083.174,0,.348.005.525.005h.375c.762,0,1.512-.016,2.25-.042.177-.005.351-.015.525-.02.753-.036,1.491-.087,2.211-.149l.528-.047c.5-.046.984-.1,1.461-.159.176-.026.351-.047.526-.073.6-.082,1.2-.175,1.763-.278.177-.03.351-.062.522-.1.495-.092.97-.2,1.428-.308.177-.042.351-.083.522-.129.57-.144,1.108-.3,1.614-.469.18-.056.354-.118.525-.18a13.9,13.9,0,0,0,1.461-.608c.186-.088.36-.18.528-.273a6.887,6.887,0,0,0,1.122-.757,3.949,3.949,0,0,0,.527-.535,2,2,0,0,0,.487-1.247v-5.9Z"/>
			<path class="d"
				  d="M4977.206,520.262c0,2.628,8.058,4.759,18,4.759s18-2.131,18-4.759-8.059-4.759-18-4.759S4977.206,517.633,4977.206,520.262Z"/>
			<path class="e"
				  d="M4980.431,519.629c0,1.807,6.615,3.273,14.775,3.273s14.775-1.466,14.775-3.273-6.615-3.274-14.775-3.274S4980.431,517.821,4980.431,519.629Z"/>
			<path class="f"
				  d="M5009.53,520.433c-1.62-1.418-7.418-2.468-14.324-2.468s-12.7,1.05-14.324,2.468a1.1,1.1,0,0,1-.451-.8c0-1.808,6.615-3.274,14.775-3.274s14.775,1.466,14.775,3.274A1.106,1.106,0,0,1,5009.53,520.433Z"/>
			<path class="g"
				  d="M4995.278,531.529h-.447v-2.606h.375c.762,0,1.512-.016,2.25-.042h0v2.606c-.715.025-1.441.041-2.178.042Zm17.928-7.978v2.606a2,2,0,0,1-.487,1.247h0V524.8a2,2,0,0,0,.487-1.246Zm-18.9,7.973v-2.606h0c-.817-.016-1.617-.042-2.4-.083v2.606h0c.784.041,1.584.067,2.4.083Zm3.675-.057h0c.753-.036,1.491-.087,2.211-.149v-2.607h0q-1.08.093-2.211.15v2.606Zm-6.6-.062V528.8h0c-.627-.041-1.239-.088-1.839-.149v2.606h0c.6.062,1.212.108,1.839.149Zm9.339-.134h0c.5-.046.984-.1,1.461-.159v-2.607h0c-.477.057-.963.114-1.461.16v2.606Zm-11.7-.067V528.6h0c-.9-.1-1.764-.221-2.589-.355v2.606h0c.825.134,1.689.257,2.589.355Zm13.687-.165h0c.6-.082,1.2-.175,1.763-.278v-2.606h0c-.567.1-1.158.2-1.763.278v2.606Zm-16.8-.283V528.15h0c-1.008-.18-1.947-.391-2.814-.623v2.606h0c.867.232,1.806.443,2.814.623Zm19.086-.093h0c.495-.092.97-.2,1.428-.308v-2.606h0q-.687.168-1.428.308v2.606Zm1.95-.437h0c.57-.144,1.108-.3,1.614-.469v-2.606h0c-.506.17-1.044.325-1.614.469v2.606Zm-24.372-.247v-2.607h0a18.15,18.15,0,0,1-2.139-.751v2.605h0a17.965,17.965,0,0,0,2.139.753Zm26.511-.4h0a13.9,13.9,0,0,0,1.461-.608v-2.606h0a13.888,13.888,0,0,1-1.461.608v2.606Zm-29.175-.588v-2.606h0a9.135,9.135,0,0,1-1.35-.788V528.2h0a9.049,9.049,0,0,0,1.35.788Zm31.164-.293h0a6.887,6.887,0,0,0,1.122-.757v-2.607h0a6.888,6.888,0,0,1-1.122.758V528.7Zm-33.04-.927v-2.606h0a2.264,2.264,0,0,1-.824-1.612v2.606A2.264,2.264,0,0,0,4978.03,527.769Z"/>
		</g>
		<g transform="translate(-3984)">
			<path class="h" d="M4975.99,545.088l-.752-2.242,6.461-15.71Z"/>
			<path class="i" d="M4972.754,535.449l-.753-2.241,4.942-11.88Z"/>
			<path class="j"
				  d="M5001.4,533.4c0,.283-.006.562-.022.84-.012.233-.029.46-.057.687a14.116,14.116,0,0,1-.228,1.486c-.045.234-.1.461-.153.688a14.757,14.757,0,0,1-.987,2.718c-.1.233-.221.465-.34.686a14.879,14.879,0,0,1-.96,1.539,8.242,8.242,0,0,1-.516.686,12.843,12.843,0,0,1-1.351,1.488q-.375.365-.766.686a14.412,14.412,0,0,1-1.97,1.4,12.541,12.541,0,0,1-1.294.687,14.865,14.865,0,0,1-6.35,1.413H4983v-30h3.406a14.9,14.9,0,0,1,6.833,1.652,12.037,12.037,0,0,1,1.2.686,14.281,14.281,0,0,1,1.958,1.487c.25.216.488.449.721.687a15.221,15.221,0,0,1,2.044,2.6c.135.222.272.449.4.681a14.71,14.71,0,0,1,1.186,2.815c.068.227.136.454.193.687a14.056,14.056,0,0,1,.386,2.247c.029.227.046.454.057.686Q5001.4,533.016,5001.4,533.4Z"/>
			<path class="i" d="M5001.375,534.239c-.012.233-.029.46-.057.687h-4.189v-.687Z"/>
			<path class="i" d="M5001.09,536.412c-.045.234-.1.461-.153.688h-5.147v-.688Z"/>
			<path class="i" d="M4999.95,539.818c-.1.233-.221.465-.34.686h-5.069v-.686Z"/>
			<path class="i" d="M4998.65,542.043a8.242,8.242,0,0,1-.516.686h-5.262v-.686Z"/>
			<path class="i" d="M4996.783,544.217q-.375.365-.766.686h-4.926v-.686Z"/>
			<path class="i" d="M4994.047,546.3a12.541,12.541,0,0,1-1.294.687h-4.227V546.3Z"/>
			<path class="i" d="M5001.38,532.632h-4.534v-.686h4.477C5001.352,532.173,5001.369,532.4,5001.38,532.632Z"/>
			<path class="i" d="M5000.937,529.7h-4.608v-.687h4.415C5000.812,529.239,5000.88,529.466,5000.937,529.7Z"/>
			<path class="i" d="M4999.558,526.2h-4.619v-.681h4.223C4999.3,525.738,4999.434,525.965,4999.558,526.2Z"/>
			<path class="i"
				  d="M4997.118,522.911h-5.142v-.687h4.421C4996.647,522.44,4996.885,522.673,4997.118,522.911Z"/>
			<path class="i" d="M4994.439,520.737h-4.983v-.686h3.78A12.037,12.037,0,0,1,4994.439,520.737Z"/>
			<circle class="k" cx="14.998" cy="14.998" r="14.998" transform="translate(4961.787 533.397) rotate(-45)"/>
			<path class="l" d="M4972,533.4a11,11,0,1,0,11-11A11,11,0,0,0,4972,533.4Z"/>
			<path class="m"
				  d="M4983.916,543.476a11,11,0,0,1-8.223-18.3A11,11,0,1,0,4991.22,540.7,10.955,10.955,0,0,1,4983.916,543.476Z"/>
			<path class="e"
				  d="M4976.508,530.535l7.8,5.85-.818.614a.849.849,0,0,1-.956-.014l-3.5-2.623-2.5,1.878,5.366,4.025.636.477a.848.848,0,0,0,.956.014l.651-.488,5.345-4.009-7.8-5.851.818-.613a.848.848,0,0,1,.956.014l3.5,2.623,2.5-1.878-6-4.5a.848.848,0,0,0-.956-.015Z"/>
		</g>
	</g>
</svg>
