<svg xmlns="http://www.w3.org/2000/svg" width="48" height="48" viewBox="0 0 48 48">
	<defs>
		<style>
			.a{fill:#afc4d9;}.b{fill:#748da5;}.b,.c,.d,.e,.f,.g,.h,.i,.j,.k,.l{fill-rule:evenodd;}.c{fill:#fec335;}.d{fill:#ffdd2f;}.e{fill:#ffd033;}.f{fill:#faac38;}.g{fill:#e4a636;}.h{fill:#78bec0;}.i{fill:#a7772e;}.j{fill:#c98e33;}.k{fill:#e3b233;}.l{fill:#d89b35;}
		</style>
	</defs>
	<g transform="translate(-983.999 -431.999)">
		<g transform="translate(-3984)">
			<circle class="a" cx="24" cy="24" r="24" transform="translate(4967.999 431.999)"/>
			<path class="b"
				  d="M4992,480c13.219,0,24-2.018,24-4.493s-10.781-4.493-24-4.493-24,2.019-24,4.493S4978.78,480,4992,480Z"/>
		</g>
		<g transform="translate(-3984)">
			<path class="c"
				  d="M4980,465.13v5.9a2.258,2.258,0,0,0,.824,1.612,6.018,6.018,0,0,0,.525.433,9.113,9.113,0,0,0,1.35.788c.168.077.343.16.525.236a17.885,17.885,0,0,0,2.139.753c.171.051.345.1.522.154.867.232,1.807.443,2.814.623l.525.093c.825.134,1.689.258,2.589.356.174.015.348.035.522.051.6.062,1.213.108,1.84.149.173.016.347.026.524.036.783.042,1.584.067,2.4.083.174,0,.347,0,.524,0H4998c.762,0,1.512-.015,2.25-.041.177-.005.351-.016.525-.021.753-.036,1.491-.087,2.211-.149l.528-.046c.5-.047.984-.1,1.461-.16.177-.026.351-.046.526-.072.606-.082,1.2-.175,1.763-.279.177-.03.351-.061.522-.1.5-.092.97-.195,1.429-.308.176-.041.35-.083.521-.129.57-.144,1.108-.3,1.614-.469.181-.056.354-.118.525-.18a13.888,13.888,0,0,0,1.461-.608c.186-.087.36-.18.528-.273a6.718,6.718,0,0,0,1.122-.757,3.957,3.957,0,0,0,.528-.535,2.006,2.006,0,0,0,.486-1.247v-5.9Z"/>
			<path class="d"
				  d="M4980,465.132c0,2.629,8.058,4.759,18,4.759s18-2.13,18-4.759-8.059-4.759-18-4.759S4980,462.5,4980,465.132Z"/>
			<path class="e"
				  d="M4983.224,464.5c0,1.807,6.615,3.273,14.775,3.273s14.775-1.466,14.775-3.273-6.615-3.273-14.775-3.273S4983.224,462.691,4983.224,464.5Z"/>
			<path class="f"
				  d="M5012.323,465.3c-1.62-1.419-7.418-2.469-14.324-2.469s-12.7,1.05-14.324,2.469a1.109,1.109,0,0,1-.451-.8c0-1.808,6.615-3.273,14.775-3.273s14.775,1.465,14.775,3.273A1.105,1.105,0,0,1,5012.323,465.3Z"/>
			<path class="g"
				  d="M4998.071,476.4h-.447v-2.606H4998c.762,0,1.512-.016,2.25-.041h0v2.606c-.715.025-1.441.04-2.178.041ZM5016,468.421v2.606a2.006,2.006,0,0,1-.486,1.247h0v-2.606a2.008,2.008,0,0,0,.486-1.247Zm-18.9,7.973v-2.606h0c-.817-.016-1.618-.041-2.4-.083v2.606h0c.783.042,1.584.067,2.4.083Zm3.674-.057h0c.753-.036,1.491-.087,2.211-.149v-2.606h0c-.72.062-1.458.113-2.211.149v2.606Zm-6.6-.062v-2.6h0c-.627-.042-1.24-.088-1.84-.15v2.606h0c.6.062,1.213.108,1.84.149Zm9.338-.133h0c.5-.047.984-.1,1.461-.16v-2.606h0c-.477.056-.963.113-1.461.159v2.607Zm-11.7-.067v-2.606h0c-.9-.1-1.764-.222-2.589-.356v2.606h0c.825.134,1.689.258,2.589.356Zm13.687-.165h0c.606-.082,1.2-.175,1.763-.279v-2.606h0c-.567.1-1.157.2-1.763.279v2.606Zm-16.8-.284V473.02h0c-1.007-.18-1.947-.391-2.814-.623V475h0c.867.232,1.807.443,2.814.623Zm19.086-.093h0c.5-.092.97-.195,1.429-.308v-2.606h0c-.459.113-.933.216-1.429.308v2.606Zm1.95-.437h0c.57-.144,1.108-.3,1.614-.469v-2.606h0c-.506.17-1.044.325-1.614.469V475.1Zm-24.372-.247v-2.606h0a18.068,18.068,0,0,1-2.139-.752V474.1h0a17.885,17.885,0,0,0,2.139.753Zm26.511-.4h0a13.888,13.888,0,0,0,1.461-.608v-2.606h0a13.683,13.683,0,0,1-1.461.608v2.606Zm-29.175-.587v-2.606h0a9.2,9.2,0,0,1-1.35-.788v2.606h0a9.113,9.113,0,0,0,1.35.788Zm31.164-.294h0a6.718,6.718,0,0,0,1.122-.757V470.2h0a6.78,6.78,0,0,1-1.122.757v2.606Zm-33.039-.927v-2.606h0a2.258,2.258,0,0,1-.824-1.612v2.606A2.258,2.258,0,0,0,4980.824,472.639Z"/>
		</g>
		<g transform="translate(-3984)">
			<path class="c"
				  d="M4979.138,456.562v5.9a2.259,2.259,0,0,0,.824,1.612,5.832,5.832,0,0,0,.526.433,9.139,9.139,0,0,0,1.35.788c.168.077.343.16.525.237a17.838,17.838,0,0,0,2.139.752c.171.052.345.1.522.155.867.231,1.806.442,2.814.623l.525.093c.825.133,1.688.257,2.589.355.174.015.348.036.522.052.6.061,1.212.107,1.839.149.174.015.348.026.524.036q1.176.062,2.4.082c.174,0,.348.006.525.006h.375c.762,0,1.511-.016,2.25-.042.177-.005.351-.015.525-.02.753-.036,1.491-.088,2.211-.15l.528-.046c.5-.046.984-.1,1.46-.159.177-.027.352-.047.526-.073.606-.082,1.2-.175,1.764-.279.177-.03.351-.061.522-.1.5-.093.969-.2,1.428-.309.177-.041.351-.083.521-.129.571-.144,1.108-.3,1.615-.468.18-.057.354-.119.524-.18a13.872,13.872,0,0,0,1.462-.608c.186-.088.36-.181.527-.273a6.792,6.792,0,0,0,1.123-.758,3.831,3.831,0,0,0,.527-.535,2.005,2.005,0,0,0,.487-1.247v-5.9Z"/>
			<path class="d"
				  d="M4979.138,456.565c0,2.628,8.058,4.759,18,4.759s18-2.131,18-4.759-8.059-4.76-18-4.76S4979.138,453.936,4979.138,456.565Z"/>
			<path class="e"
				  d="M4982.363,455.931c0,1.808,6.615,3.273,14.774,3.273s14.775-1.465,14.775-3.273-6.614-3.273-14.775-3.273S4982.363,454.123,4982.363,455.931Z"/>
			<path class="f"
				  d="M5011.461,456.736c-1.619-1.419-7.417-2.469-14.324-2.469s-12.7,1.05-14.323,2.469a1.106,1.106,0,0,1-.451-.8c0-1.808,6.615-3.273,14.774-3.273s14.775,1.465,14.775,3.273A1.106,1.106,0,0,1,5011.461,456.736Z"/>
			<path class="g"
				  d="M4997.209,467.832h-.446v-2.607h.375c.762,0,1.511-.015,2.25-.041h0v2.606c-.716.025-1.441.041-2.179.042Zm17.929-7.979v2.606a2.005,2.005,0,0,1-.487,1.247h0V461.1a2.005,2.005,0,0,0,.487-1.247Zm-18.9,7.973V465.22h0c-.817-.016-1.617-.041-2.4-.082v2.606h0q1.176.062,2.4.082Zm3.675-.056h0c.753-.036,1.491-.088,2.211-.15v-2.606h0q-1.08.093-2.211.15v2.606Zm-6.6-.062V465.1h0c-.627-.041-1.239-.088-1.839-.149v2.606h0c.6.061,1.212.107,1.839.149Zm9.339-.134h0c.5-.046.984-.1,1.46-.159v-2.607h0c-.476.056-.962.113-1.46.16v2.606Zm-11.7-.067V464.9h0c-.9-.1-1.764-.221-2.589-.356v2.607h0c.825.133,1.688.257,2.589.355Zm13.686-.165h0c.606-.082,1.2-.175,1.764-.279v-2.6h0c-.567.1-1.158.2-1.764.278v2.606Zm-16.8-.283v-2.607h0c-1.008-.179-1.947-.391-2.814-.623v2.607h0c.867.231,1.806.442,2.814.623Zm19.086-.093h0c.5-.093.969-.2,1.428-.309v-2.606h0c-.459.113-.933.216-1.428.309v2.606Zm1.949-.438h0c.571-.144,1.108-.3,1.615-.468v-2.607h0c-.507.171-1.044.325-1.615.469v2.606Zm-24.371-.247v-2.606h0a18.01,18.01,0,0,1-2.139-.752v2.606h0a17.838,17.838,0,0,0,2.139.752Zm26.51-.4h0a13.872,13.872,0,0,0,1.462-.608v-2.606h0a13.665,13.665,0,0,1-1.462.607v2.607Zm-29.174-.588v-2.606h0a9.144,9.144,0,0,1-1.35-.788V464.5h0a9.139,9.139,0,0,0,1.35.788ZM5013,465h0a6.792,6.792,0,0,0,1.123-.758v-2.606h0a6.791,6.791,0,0,1-1.123.757V465Zm-33.039-.928v-2.605h0a2.263,2.263,0,0,1-.824-1.613v2.606A2.259,2.259,0,0,0,4979.962,464.071Z"/>
		</g>
		<g transform="translate(-3984)">
			<path class="h" d="M4975.99,473.088l-.752-2.242,6.461-15.71Z"/>
			<path class="i" d="M4972.754,463.449l-.753-2.241,4.942-11.881Z"/>
			<path class="j"
				  d="M5001.4,461.4c0,.284-.006.562-.022.84-.012.233-.029.46-.057.687a14.135,14.135,0,0,1-.228,1.487c-.045.233-.1.46-.153.687a14.732,14.732,0,0,1-.987,2.718c-.1.233-.221.465-.34.687a14.862,14.862,0,0,1-.96,1.538,8.422,8.422,0,0,1-.516.687,12.922,12.922,0,0,1-1.351,1.487c-.25.244-.505.471-.766.686a14.242,14.242,0,0,1-1.97,1.4,12.529,12.529,0,0,1-1.294.687,14.849,14.849,0,0,1-6.35,1.413H4983v-30h3.406a14.9,14.9,0,0,1,6.833,1.652,12.05,12.05,0,0,1,1.2.686,14.286,14.286,0,0,1,1.958,1.488c.25.215.488.448.721.686a15.222,15.222,0,0,1,2.044,2.6c.135.222.272.449.4.682a14.657,14.657,0,0,1,1.186,2.815c.068.226.136.453.193.686a14.047,14.047,0,0,1,.386,2.248c.029.226.046.454.057.686C5001.391,460.888,5001.4,461.144,5001.4,461.4Z"/>
			<path class="i" d="M5001.375,462.239c-.012.233-.029.46-.057.687h-4.189v-.687Z"/>
			<path class="i" d="M5001.09,464.413c-.045.233-.1.46-.153.687h-5.147v-.687Z"/>
			<path class="i" d="M4999.95,467.818c-.1.233-.221.465-.34.687h-5.069v-.687Z"/>
			<path class="i" d="M4998.65,470.043a8.422,8.422,0,0,1-.516.687h-5.262v-.687Z"/>
			<path class="i" d="M4996.783,472.217c-.25.244-.505.471-.766.686h-4.926v-.686Z"/>
			<path class="i" d="M4994.047,474.3a12.529,12.529,0,0,1-1.294.687h-4.227V474.3Z"/>
			<path class="i" d="M5001.38,460.633h-4.534v-.686h4.477C5001.352,460.173,5001.369,460.4,5001.38,460.633Z"/>
			<path class="i" d="M5000.937,457.7h-4.608v-.686h4.415C5000.812,457.239,5000.88,457.466,5000.937,457.7Z"/>
			<path class="i" d="M4999.558,454.2h-4.619v-.682h4.223C4999.3,453.738,4999.434,453.965,4999.558,454.2Z"/>
			<path class="i"
				  d="M4997.118,450.911h-5.142v-.686h4.421C4996.647,450.44,4996.885,450.673,4997.118,450.911Z"/>
			<path class="i" d="M4994.439,448.737h-4.983v-.686h3.78A12.05,12.05,0,0,1,4994.439,448.737Z"/>
			<path class="e" d="M4968,461.4a15,15,0,1,0,15-15A15,15,0,0,0,4968,461.4Z"/>
			<path class="k" d="M4972,461.4a11,11,0,1,0,11-11A11,11,0,0,0,4972,461.4Z"/>
			<path class="l"
				  d="M4983.916,471.477a11,11,0,0,1-8.223-18.3A11,11,0,1,0,4991.22,468.7,10.956,10.956,0,0,1,4983.916,471.477Z"/>
			<path class="e"
				  d="M4976.508,458.535l7.8,5.851-.818.613a.846.846,0,0,1-.956-.014l-3.5-2.623-2.5,1.879,5.366,4.024.636.477a.848.848,0,0,0,.956.015l.651-.489,5.345-4.009-7.8-5.85.818-.614a.848.848,0,0,1,.956.015l3.5,2.622,2.5-1.878-6-4.5a.848.848,0,0,0-.956-.014Z"/>
		</g>
	</g>
</svg>
