<svg width="145" height="96" viewBox="0 0 145 96" fill="none" xmlns="http://www.w3.org/2000/svg">
<path d="M73.2395 26.9823C71.9504 24.8503 70.4229 22.5739 68.0307 21.8777C65.2603 21.0715 62.4145 22.6731 60.0006 24.2535C52.7816 28.98 45.8295 34.1022 39.1763 39.5966L39.1835 39.6793C44.3634 39.3221 49.5432 38.9649 54.7229 38.6077C58.4654 38.3496 62.3363 38.056 65.6436 36.2856C66.8986 35.6138 68.1219 34.7164 69.544 34.6538C71.3109 34.5762 72.8515 35.8101 74.0621 37.0993C81.2237 44.7254 83.2961 56.3875 91.3306 63.0876C86.2643 50.5931 80.2149 38.5202 73.2395 26.9823Z" fill="#F2F2F2"/>
<path d="M117.26 91.6647C116.469 90.6647 116.145 90.4305 115.364 89.4212C109.003 81.1945 103.024 72.69 97.428 63.9076C93.6267 57.9429 90.0139 51.8637 86.5896 45.6699C84.9593 42.7253 83.3738 39.7576 81.8329 36.7668C80.6372 34.4478 79.4682 32.1149 78.3259 29.7682C77.9993 29.0979 77.6818 28.4245 77.366 27.7496C76.6217 26.1625 75.8913 24.5677 75.1071 23.0022C74.2134 21.2179 73.1255 19.3473 71.4844 18.1485C70.7376 17.5805 69.8446 17.2369 68.9097 17.1577C67.5737 17.0714 66.341 17.6231 65.1823 18.2255C56.7045 22.6463 48.7675 28.1888 41.5886 34.4955C34.3914 40.8165 27.9582 47.9576 22.4202 55.7733C22.2508 56.0153 21.8501 55.7841 22.0212 55.5407C22.6945 54.5884 23.3812 53.6464 24.0813 52.7147C32.7861 41.1376 43.4595 31.1819 55.6135 23.3027C57.6583 21.9775 59.7416 20.7145 61.8633 19.5137C62.9326 18.9081 64.0067 18.3103 65.0991 17.7494C66.17 17.1993 67.3072 16.7047 68.5306 16.6862C72.694 16.6215 74.8497 21.3365 76.3305 24.5092C76.7958 25.5077 77.2668 26.5031 77.7435 27.4954C79.5447 31.2628 81.4153 34.9958 83.3553 38.6944C84.5525 40.978 85.776 43.2482 87.0257 45.505C90.9148 52.5329 95.0484 59.4185 99.4265 66.1618C105.226 75.0942 110.98 82.985 117.587 91.338C117.769 91.5692 117.444 91.8989 117.26 91.6647Z" fill="#E4E4E4"/>
<path d="M41.1772 32.1667C40.9353 31.8971 40.6949 31.6274 40.4514 31.3578C38.5315 29.2344 36.4714 27.1358 33.835 25.9185C32.5779 25.3198 31.2056 25.0017 29.8133 24.9863C28.3741 24.9909 26.9673 25.3684 25.6376 25.8969C25.0089 26.1481 24.3941 26.4332 23.7886 26.7367C23.0967 27.0849 22.4171 27.4563 21.7407 27.8307C20.471 28.5334 19.2178 29.2668 17.981 30.0311C15.5203 31.5519 13.1365 33.1888 10.8299 34.9418C9.63411 35.8509 8.46304 36.7898 7.31665 37.7585C6.25038 38.6584 5.20568 39.5824 4.18255 40.5305C3.96376 40.7324 3.63708 40.4057 3.85587 40.2039C4.12552 39.9527 4.39826 39.7031 4.671 39.4566C5.44143 38.7601 6.2242 38.077 7.01931 37.4072C8.46921 36.1837 9.95666 35.0076 11.4816 33.8786C13.8531 32.122 16.3061 30.4846 18.8408 28.9663C20.1074 28.2082 21.3915 27.482 22.6929 26.7876C23.0859 26.578 23.4835 26.3731 23.8856 26.1789C24.7981 25.7186 25.7463 25.3327 26.7208 25.0248C28.1013 24.5782 29.5619 24.4347 31.0029 24.6041C32.3942 24.8065 33.7347 25.2703 34.9537 25.9709C37.5423 27.4178 39.55 29.6551 41.5038 31.8385C41.7011 32.0604 41.3759 32.3886 41.1772 32.1667Z" fill="#E4E4E4"/>
<path d="M94.2173 54.17L100.42 51.9012L103.5 50.7747C104.503 50.4079 105.504 49.9902 106.541 49.7275C107.442 49.4701 108.399 49.4823 109.293 49.7626C110.09 50.0578 110.82 50.5103 111.439 51.0932C112.072 51.6757 112.66 52.3041 113.2 52.9735C113.871 53.7793 114.531 54.5936 115.195 55.4051C117.934 58.7546 120.655 62.1185 123.357 65.497C126.06 68.8755 128.745 72.2683 131.412 75.6754C134.085 79.0909 136.74 82.5207 139.377 85.9647C139.7 86.3866 140.022 86.8088 140.345 87.2311C140.523 87.4644 140.925 87.2344 140.744 86.9978C138.088 83.5191 135.413 80.0547 132.72 76.6045C130.021 73.146 127.303 69.7022 124.566 66.2731C121.829 62.8441 119.073 59.4299 116.3 56.0306C115.609 55.1837 114.916 54.3378 114.223 53.4928C113.638 52.78 113.06 52.0595 112.418 51.3961C111.241 50.1783 109.77 49.1021 108.009 49.0729C106.974 49.0557 105.972 49.3843 105.01 49.7323C103.973 50.1074 102.938 50.4896 101.902 50.8684L95.6561 53.1531L94.0945 53.7242C93.8173 53.8256 93.937 54.2725 94.2173 54.17L94.2173 54.17Z" fill="#E4E4E4"/>
<path d="M33.0187 28.5902C29.8664 26.9701 25.8295 27.2874 22.9329 29.3115C28.4581 30.2647 33.9228 31.5402 39.2991 33.1313C37.0666 31.823 35.3202 29.7731 33.0187 28.5902Z" fill="#F2F2F2"/>
<path d="M22.9018 29.3066L22.295 29.7999C22.5003 29.6273 22.7136 29.4654 22.9329 29.3122C22.9225 29.3104 22.9122 29.3084 22.9018 29.3066Z" fill="#F2F2F2"/>
<path d="M111.206 54.1926C110.595 53.4493 109.935 52.671 109.022 52.3691L108.169 52.4028C114.66 63.8725 123.427 73.8948 133.931 81.8543C126.356 72.6337 118.781 63.4131 111.206 54.1926Z" fill="#F2F2F2"/>
<path d="M58.1817 48.0625C58.5763 49.4961 59.4653 50.744 60.6914 51.5853C61.1654 51.908 61.7262 52.2176 61.8884 52.7677C61.9737 53.1183 61.9211 53.4884 61.7415 53.8014C61.5623 54.1104 61.3442 54.3952 61.0925 54.6487L61.0696 54.7348C59.8932 54.0377 58.7741 53.1559 58.1244 51.9528C57.4746 50.7498 57.3839 49.1729 58.1817 48.0625" fill="#F2F2F2"/>
<path d="M97.3449 82.1816C97.7395 83.6153 98.6285 84.8631 99.8546 85.7044C100.329 86.0272 100.889 86.3368 101.052 86.8868C101.137 87.2375 101.084 87.6075 100.905 87.9205C100.725 88.2295 100.507 88.5143 100.256 88.7679L100.233 88.8539C99.0564 88.1569 97.9374 87.2751 97.2876 86.072C96.6378 84.8689 96.5471 83.2921 97.3449 82.1816" fill="#F2F2F2"/>
<path d="M19.1865 79.8301C19.5811 81.2637 20.4701 82.5116 21.6962 83.3529C22.1702 83.6756 22.731 83.9852 22.8932 84.5353C22.9785 84.8859 22.9259 85.2559 22.7464 85.569C22.5671 85.878 22.349 86.1627 22.0973 86.4163L22.0744 86.5024C20.8981 85.8053 19.779 84.9235 19.1292 83.7204C18.4794 82.5173 18.3887 80.9405 19.1865 79.8301" fill="#F2F2F2"/>
<path d="M109.127 17.1444C113.862 17.1444 117.7 13.3065 117.7 8.57221C117.7 3.83791 113.862 0 109.127 0C104.393 0 100.555 3.83791 100.555 8.57221C100.555 13.3065 104.393 17.1444 109.127 17.1444Z" fill="#2F4DCB"/>
<path d="M124.597 1.99544C120.442 1.43389 115.699 3.67941 114.623 7.73101C114.351 7.01063 113.858 6.39517 113.214 5.97354C112.57 5.55191 111.808 5.34594 111.04 5.38539C110.271 5.42484 109.535 5.70767 108.937 6.19301C108.34 6.67835 107.912 7.34108 107.716 8.08545L108.191 8.42609C117.094 10.3514 126.31 10.3097 135.195 8.304C132.305 5.26693 128.751 2.55698 124.597 1.99544Z" fill="#F0F0F0"/>
<path d="M106.78 13.4251C102.626 12.8636 97.8827 15.1091 96.8059 19.1607C96.5345 18.4403 96.0412 17.8249 95.3971 17.4032C94.7531 16.9816 93.9917 16.7756 93.2229 16.8151C92.4541 16.8545 91.7178 17.1374 91.1203 17.6227C90.5228 18.108 90.095 18.7708 89.8988 19.5151L90.3744 19.8558C99.2773 21.781 108.493 21.7394 117.378 19.7337C114.489 16.6966 110.935 13.9867 106.78 13.4251Z" fill="#F0F0F0"/>
<path d="M143.04 15.5858C143.023 15.5859 143.006 15.5832 142.989 15.578C98.5472 1.52321 59.3777 3.36112 34.3442 7.37786C30.9374 7.9243 27.5215 8.55543 24.1914 9.25385C23.3412 9.43195 22.4592 9.62285 21.5699 9.82163C20.5078 10.0582 19.4598 10.3017 18.4549 10.5453C18.0209 10.6481 17.5954 10.7517 17.1784 10.8561C16.5467 11.012 15.9057 11.1745 15.2186 11.3531C14.4508 11.551 13.6707 11.7587 12.8995 11.9703C12.8967 11.9712 12.8938 11.9721 12.8909 11.9727L12.891 11.9729C12.0199 12.2107 11.1534 12.4555 10.3154 12.6999C9.86188 12.8309 9.42395 12.96 9.00448 13.0876C8.95762 13.1006 8.91609 13.113 8.87399 13.1258L8.78387 13.1532C8.73167 13.1692 8.68013 13.1848 8.62859 13.1995L8.62531 13.2005L8.62539 13.2007L8.48899 13.243C8.32632 13.2923 8.16759 13.3404 8.01149 13.3883C3.88592 14.6601 1.61796 15.5648 1.59555 15.5737C1.57506 15.5819 1.55316 15.586 1.53109 15.5858C1.50901 15.5855 1.48721 15.5809 1.46691 15.5722C1.44662 15.5635 1.42823 15.551 1.4128 15.5352C1.39738 15.5194 1.38521 15.5007 1.37699 15.4802C1.36878 15.4597 1.36469 15.4378 1.36494 15.4158C1.36519 15.3937 1.36979 15.3719 1.37847 15.3516C1.38715 15.3313 1.39974 15.3129 1.41553 15.2975C1.43132 15.282 1.44999 15.2699 1.47047 15.2617C1.49304 15.2528 3.77209 14.3435 7.91268 13.0669C8.06936 13.0188 8.22849 12.9707 8.39165 12.9213L8.51837 12.8819C8.52272 12.8803 8.52707 12.879 8.5315 12.8777C8.58279 12.863 8.63401 12.8475 8.68604 12.8317L8.77632 12.8043C8.82129 12.7907 8.86561 12.7772 8.911 12.7647C9.32759 12.638 9.767 12.5085 10.2217 12.377C11.06 12.1324 11.9273 11.8877 12.7991 11.6495C12.8018 11.6486 12.8046 11.6479 12.8073 11.6471V11.6469C13.5812 11.4347 14.3642 11.2262 15.1344 11.0276C15.8226 10.8488 16.4648 10.686 17.0976 10.5297C17.5164 10.4255 17.9427 10.3217 18.3766 10.2184C19.3826 9.97445 20.4327 9.73054 21.4967 9.49351C22.3874 9.29457 23.2709 9.10318 24.1225 8.92492C27.4578 8.22534 30.879 7.59323 34.291 7.04598C59.3603 3.02348 98.586 1.18261 143.091 15.2576C143.129 15.2696 143.162 15.295 143.183 15.3291C143.204 15.3632 143.212 15.4037 143.206 15.4434C143.2 15.483 143.18 15.5192 143.15 15.5453C143.119 15.5715 143.08 15.5858 143.04 15.5858Z" fill="#CCCCCC"/>
<path d="M44.2038 70.5677C44.1456 70.3975 44.0477 70.2437 43.9181 70.1189C43.8703 70.0746 43.8185 70.0346 43.7635 69.9996C43.3248 69.7071 42.6692 69.6416 42.2524 69.9996C42.2104 70.036 42.1716 70.0759 42.1364 70.1189C42.012 70.2719 41.8843 70.4215 41.7532 70.5677C41.538 70.8131 41.3179 71.0501 41.0876 71.2804C41.022 71.3442 40.9565 71.4098 40.8892 71.4737C40.8506 71.5123 40.8119 71.5493 40.7733 71.5863C40.6254 71.7275 40.4741 71.8636 40.3211 71.9981C40.2404 72.0704 40.1598 72.1409 40.0774 72.2099C39.9547 72.3124 39.832 72.4149 39.7076 72.5141C39.6959 72.5225 39.6841 72.5309 39.6723 72.541C39.669 72.5427 39.6673 72.546 39.6639 72.5477C39.6622 72.5477 39.6606 72.5477 39.6589 72.5511C39.6543 72.5529 39.6503 72.5558 39.6471 72.5595C39.6101 72.5847 39.5849 72.6015 39.5664 72.6166C39.5732 72.6133 39.5799 72.6082 39.5866 72.6049C39.5563 72.6284 39.5244 72.6519 39.4942 72.6755C39.2 72.8923 38.8991 73.1007 38.5916 73.2957C37.8305 73.7827 37.0312 74.2071 36.2014 74.5647C36.146 74.5866 36.0888 74.6101 36.0317 74.6319C33.8591 75.522 31.5024 75.8693 29.1655 75.6438C28.9268 75.6253 28.6881 75.6001 28.4495 75.5681C28.1738 75.5278 27.8998 75.4791 27.6275 75.4236C26.5909 75.2168 25.5766 74.9106 24.5987 74.5092C23.3754 73.9491 22.2119 73.2665 21.1261 72.4721C20.958 72.3527 20.7883 72.2334 20.6185 72.1174C20.8118 71.6434 21.0017 71.1694 21.1866 70.6921C21.2791 70.4618 21.3681 70.2315 21.4555 69.9996C22.143 68.2129 22.7884 66.4093 23.407 64.5991C24.0322 62.7653 24.6222 60.9209 25.1769 59.0658C25.234 58.8776 25.2895 58.6893 25.3433 58.5011C25.6341 57.5211 25.9131 56.539 26.1803 55.5546C26.2056 55.4588 26.2324 55.3646 26.256 55.2688C26.3333 54.9864 26.4089 54.7041 26.4829 54.4217C26.651 53.7847 26.2711 53.0232 25.6021 52.8703C25.28 52.7877 24.9385 52.8334 24.6494 52.9977C24.3603 53.162 24.1463 53.4321 24.0524 53.751C23.9801 54.0233 23.9079 54.2939 23.8339 54.5662C23.4793 55.8823 23.1061 57.1939 22.7145 58.5011C22.6573 58.6893 22.6002 58.8776 22.543 59.0658C21.6791 61.9131 20.7305 64.7319 19.6974 67.522C19.573 67.8599 19.447 68.1966 19.3192 68.5322C19.257 68.6969 19.1948 68.8617 19.131 69.0264C19.0083 69.3508 18.8822 69.6752 18.7561 69.9996C18.6839 70.1895 18.6099 70.3794 18.536 70.5677C18.4872 70.687 18.4401 70.8064 18.3931 70.924C17.9138 70.752 17.4173 70.6325 16.9123 70.5677L16.8316 70.5576C16.44 70.5105 16.044 70.5139 15.6533 70.5677C15.0686 70.6359 14.506 70.8318 14.0052 71.1414C13.5045 71.451 13.0779 71.8668 12.7556 72.3595C11.9538 73.6218 11.9639 75.427 13.0884 76.4993C14.2465 77.6036 15.9996 77.5952 17.3627 76.9044C18.0851 76.5136 18.6942 75.9427 19.131 75.2471C19.2983 74.995 19.452 74.7341 19.5915 74.4655C19.6268 74.4891 19.6621 74.5126 19.6974 74.5378C19.8319 74.6319 19.9663 74.7277 20.0991 74.8219C20.8728 75.3824 21.6881 75.883 22.538 76.3195C24.3654 77.228 26.3324 77.8228 28.357 78.0793C28.4024 78.0843 28.4461 78.0911 28.4915 78.0961C28.715 78.1247 28.9403 78.1465 29.1655 78.165C32.3964 78.4085 35.6313 77.7473 38.5075 76.2556C38.7512 76.1295 38.9927 75.9973 39.2319 75.8589C39.6034 75.6438 39.9665 75.4152 40.3211 75.1732C40.5144 75.0421 40.7027 74.9093 40.8892 74.7698C41.7045 74.1693 42.4645 73.4971 43.16 72.7612C43.4239 72.4838 43.6766 72.1975 43.9181 71.9023C44.1464 71.6607 44.2781 71.3437 44.2879 71.0114C44.2866 70.8597 44.2581 70.7094 44.2038 70.5677ZM16.371 74.5714C16.4063 74.5462 16.4416 74.5193 16.4753 74.4924C16.4652 74.5176 16.4164 74.5462 16.3711 74.5714H16.371ZM16.9106 74.0285C16.8719 74.0722 16.8366 74.1159 16.798 74.1596C16.6804 74.2912 16.554 74.4148 16.4198 74.5294C16.4013 74.5462 16.3811 74.563 16.361 74.5781C16.3607 74.5781 16.3605 74.5782 16.3603 74.5783C16.3601 74.5783 16.3599 74.5785 16.3598 74.5786C16.3596 74.5788 16.3595 74.579 16.3594 74.5792C16.3593 74.5794 16.3593 74.5796 16.3593 74.5798C16.335 74.5907 16.3114 74.603 16.2887 74.6168C16.2164 74.6605 16.1424 74.7008 16.0668 74.7378C15.9187 74.7923 15.7664 74.8345 15.6113 74.8639C15.4922 74.8726 15.3726 74.8737 15.2533 74.8672H15.2499C15.1676 74.849 15.0863 74.8265 15.0062 74.8C14.9659 74.7798 14.9272 74.7563 14.8886 74.7328C14.8734 74.7193 14.86 74.7059 14.8516 74.6975C14.8352 74.6825 14.82 74.6662 14.8062 74.6487C14.8062 74.6485 14.8062 74.6483 14.8061 74.6481C14.806 74.6479 14.8059 74.6477 14.8057 74.6475C14.8056 74.6474 14.8054 74.6473 14.8052 74.6472C14.805 74.6471 14.8047 74.6471 14.8045 74.6471C14.786 74.6134 14.7659 74.5798 14.7474 74.5462C14.7464 74.5453 14.7458 74.5441 14.7457 74.5428C14.7323 74.5008 14.7205 74.4571 14.7104 74.4134C14.7068 74.3367 14.7073 74.2598 14.7121 74.1832C14.7346 74.0758 14.765 73.9701 14.8028 73.8672C14.8369 73.7941 14.8756 73.7234 14.9188 73.6554C14.9222 73.6486 14.939 73.6218 14.9575 73.5915C14.9592 73.5898 14.9592 73.5898 14.9592 73.5881C14.9844 73.5596 15.0096 73.5293 15.0365 73.5024C15.0819 73.452 15.1306 73.4083 15.1794 73.3629C15.2742 73.3009 15.3724 73.2442 15.4735 73.1931C15.634 73.1361 15.7986 73.0917 15.966 73.0604C16.2128 73.0408 16.4608 73.043 16.7072 73.0671C16.9406 73.1076 17.1709 73.1643 17.3964 73.2368C17.2597 73.5021 17.1041 73.7571 16.9308 73.9999C16.924 74.01 16.9173 74.0201 16.9106 74.0285ZM15.0415 73.4755C15.0267 73.4993 15.0092 73.5213 14.9894 73.5411C15.0027 73.5163 15.0204 73.4941 15.0415 73.4755Z" fill="#3F3D56"/>
<path d="M39.1513 53.4012C39.1362 53.929 39.121 54.4568 39.1059 54.9846C39.074 56.1561 39.0409 57.3282 39.0067 58.5009C38.9714 59.8203 38.9345 61.1392 38.8958 62.4575C38.8773 63.1383 38.8583 63.819 38.8386 64.4997C38.7865 66.3335 38.735 68.1667 38.684 69.9994C38.679 70.1893 38.6722 70.3776 38.6672 70.5675C38.642 71.4768 38.6168 72.3862 38.5916 73.2955C38.563 74.2821 38.535 75.2688 38.5075 76.2554C38.4874 76.995 38.4666 77.7351 38.4453 78.4758C38.2941 83.8427 38.1428 89.2095 37.9915 94.5764C37.9851 94.9088 37.8503 95.2257 37.6152 95.4607C37.3802 95.6958 37.0632 95.8307 36.7309 95.837C36.3974 95.8344 36.0783 95.7007 35.8425 95.4648C35.6066 95.229 35.473 94.9099 35.4703 94.5764C35.5543 91.5577 35.6395 88.5389 35.7258 85.5201C35.8014 82.7905 35.8782 80.0608 35.956 77.3312C35.9812 76.4319 36.0065 75.5321 36.0317 74.6317C36.0703 73.277 36.1084 71.9223 36.146 70.5675C36.151 70.3776 36.1577 70.1893 36.1628 69.9994C36.1661 69.833 36.1712 69.6683 36.1762 69.5019C36.2502 66.8714 36.3241 64.2403 36.3981 61.6087C36.4283 60.5733 36.4575 59.5374 36.4855 58.5009C36.5191 57.3193 36.5527 56.1382 36.5863 54.9577C36.6015 54.4383 36.6149 53.9206 36.63 53.4012C36.6364 53.0689 36.7713 52.752 37.0063 52.5169C37.2414 52.2819 37.5583 52.147 37.8907 52.1406C38.2242 52.1433 38.5433 52.277 38.7791 52.5128C39.0149 52.7487 39.1486 53.0677 39.1513 53.4012Z" fill="#3F3D56"/>
<path d="M108.305 53.751C106.983 58.7565 105.403 63.6902 103.572 68.5324C103.066 69.8681 102.549 71.2011 101.997 72.518L102.124 72.2168C101.877 72.8441 101.562 73.4423 101.184 74.0005C101.158 74.0365 101.132 74.0721 101.106 74.1075C101.236 73.9405 101.261 73.9075 101.18 74.0085C101.137 74.059 101.095 74.1097 101.051 74.159C100.933 74.2907 100.807 74.4144 100.673 74.5293C100.639 74.5582 100.605 74.5864 100.57 74.6141L100.728 74.4915C100.71 74.5347 100.581 74.592 100.541 74.6164C100.412 74.6945 100.277 74.763 100.137 74.8212L100.438 74.6941C100.209 74.7863 99.9707 74.8517 99.7269 74.8892L100.062 74.8442C99.8225 74.8773 99.5798 74.8799 99.3396 74.8519L99.6747 74.8969C99.4782 74.8699 99.2859 74.8181 99.1024 74.7428L99.4035 74.8699C99.3057 74.8272 99.2113 74.7769 99.1214 74.7193C99.0758 74.6895 98.9356 74.5834 99.1189 74.7234C99.3094 74.869 99.1433 74.7359 99.1041 74.6972C99.0715 74.665 99.042 74.63 99.0101 74.5972C98.8618 74.4452 99.1775 74.8588 99.0768 74.681C99.0229 74.5919 98.9736 74.5001 98.9292 74.4059L99.0562 74.707C98.9984 74.5637 98.9573 74.4142 98.9339 74.2614L98.9789 74.5965C98.9548 74.4065 98.9547 74.2142 98.9784 74.0242L98.9333 74.3593C98.9642 74.1472 99.0203 73.9395 99.1006 73.7408L98.9735 74.0419C99.0294 73.9082 99.0956 73.779 99.1715 73.6556C99.2064 73.5917 99.2474 73.5314 99.2939 73.4755C99.3022 73.4782 99.0807 73.7298 99.1982 73.6027C99.229 73.5695 99.2577 73.5345 99.2888 73.5015C99.3386 73.4488 99.3919 73.4005 99.4444 73.3506C99.62 73.1835 99.1987 73.513 99.4013 73.3807C99.5481 73.2842 99.7027 73.1999 99.8634 73.1287L99.5622 73.2558C99.8314 73.1453 100.114 73.0696 100.402 73.0306L100.067 73.0756C100.428 73.0341 100.793 73.0384 101.153 73.0885L100.818 73.0434C101.273 73.1126 101.719 73.2379 102.144 73.4166L101.843 73.2895C102.749 73.6784 103.551 74.2558 104.352 74.8221C105.126 75.3822 105.941 75.8827 106.79 76.3191C108.618 77.2277 110.585 77.8228 112.61 78.0795C115.513 78.4352 118.46 78.056 121.179 76.9767C123.898 75.8974 126.302 74.1525 128.172 71.9022C128.4 71.6603 128.531 71.3431 128.541 71.0108C128.538 70.6769 128.406 70.3572 128.172 70.1194C127.709 69.6948 126.835 69.575 126.389 70.1194C125.966 70.6362 125.51 71.1261 125.026 71.5862C124.8 71.8007 124.568 72.0086 124.33 72.2098C124.194 72.3248 124.056 72.4374 123.916 72.5479C123.85 72.6001 123.644 72.7391 123.961 72.5147C123.888 72.5661 123.819 72.6223 123.747 72.6751C122.688 73.4555 121.541 74.108 120.33 74.619L120.631 74.4919C119.33 75.0374 117.965 75.4115 116.568 75.605L116.903 75.56C115.466 75.749 114.011 75.7468 112.574 75.5536L112.909 75.5986C111.473 75.4014 110.069 75.0189 108.731 74.4607L109.033 74.5877C107.742 74.0166 106.517 73.307 105.379 72.4714C104.787 72.033 104.163 71.64 103.511 71.2958C102.752 70.9082 101.931 70.6585 101.084 70.5582C99.4979 70.3715 97.8812 70.9894 97.009 72.3601C96.2064 73.6215 96.2167 75.4265 97.3408 76.4991C98.4985 77.6039 100.252 77.5945 101.616 76.9035C102.93 76.238 103.719 74.8553 104.274 73.5516C105.523 70.6177 106.629 67.616 107.659 64.599C108.679 61.6142 109.603 58.5992 110.433 55.554C110.535 55.1768 110.637 54.7992 110.736 54.4213C110.905 53.7845 110.524 53.0229 109.856 52.8706C109.534 52.7876 109.192 52.8331 108.902 52.9974C108.613 53.1616 108.399 53.4319 108.305 53.7511L108.305 53.751Z" fill="#3F3D56"/>
<path d="M120.883 53.4012L120.429 69.5024L119.978 85.5197L119.723 94.5766C119.726 94.91 119.859 95.229 120.095 95.4648C120.331 95.7006 120.65 95.8344 120.983 95.8372C121.316 95.8308 121.633 95.6959 121.868 95.4609C122.103 95.2258 122.238 94.9089 122.244 94.5766L122.698 78.4754L123.149 62.4581L123.404 53.4012C123.402 53.0678 123.268 52.7488 123.032 52.513C122.796 52.2772 122.477 52.1435 122.144 52.1406C121.812 52.147 121.495 52.2819 121.26 52.517C121.025 52.752 120.89 53.0689 120.883 53.4012Z" fill="#3F3D56"/>
<path opacity="0.2" d="M77.2493 90.0807H77.6407V72.2569H86.7724V71.8665H77.6407V64.3457H84.6927C84.5894 64.2142 84.483 64.0844 84.3736 63.9563H77.6407V58.989C77.5112 58.9337 77.3808 58.8805 77.2493 58.8304V63.9563H69.576V57.5918C69.4445 57.5978 69.315 57.6069 69.1845 57.6179V63.9563H63.0629V59.2078C62.9315 59.266 62.802 59.3272 62.6735 59.3914V63.9563H57.5275V64.3457H62.6735V71.8665H57.5275V72.2569H62.6735V90.0807H63.0629V72.2569C63.8669 72.2567 64.663 72.415 65.4058 72.7225C66.1485 73.0301 66.8234 73.481 67.3919 74.0495C67.9604 74.618 68.4113 75.2929 68.7189 76.0357C69.0265 76.7784 69.1847 77.5745 69.1845 78.3785V90.0807H69.576V72.2569H77.2493V90.0807ZM63.0629 71.8665V64.3457H69.1845V71.8665H63.0629ZM69.576 71.8665V64.3457H69.7295C70.7171 64.3458 71.695 64.5404 72.6074 64.9183C73.5198 65.2963 74.3487 65.8503 75.047 66.5487C75.7453 67.2471 76.2992 68.0761 76.677 68.9886C77.0549 69.901 77.2494 70.8789 77.2493 71.8665H69.576Z" fill="black"/>
<path d="M74.8587 84.7371C74.3659 86.9354 73.1855 88.9195 71.4887 90.4015C71.3643 90.5091 71.2399 90.6133 71.1105 90.7158C70.7962 90.7444 70.4841 90.7736 70.1743 90.8032C69.9171 90.8268 69.6633 90.852 69.4112 90.8755L69.3658 90.8806L69.3339 90.6049L69.2061 89.4888C68.7106 88.6798 68.4034 87.7696 68.3074 86.8257C68.2114 85.8819 68.3289 84.9285 68.6514 84.0362C69.0952 82.8395 69.8986 81.7822 70.6886 80.7334C71.7795 79.2845 72.84 77.8525 72.8787 76.0859C73.4155 76.7728 73.8617 77.5258 74.2066 78.3265C73.8812 78.4797 73.5889 78.6949 73.346 78.9601C73.2771 79.0358 73.2081 79.1417 73.2552 79.2324C73.2955 79.3098 73.3964 79.3282 73.4838 79.3383C73.6939 79.3602 73.9057 79.382 74.1158 79.4039C74.2839 79.4224 74.452 79.4392 74.62 79.4577C74.8234 80.1251 74.9613 80.8107 75.0318 81.5049C75.1451 82.5847 75.0867 83.6756 74.8587 84.7371Z" fill="#3F3D56"/>
<path d="M80.4391 80.3307C79.4474 81.0518 78.8675 82.0889 78.417 83.2318C77.9553 83.3796 77.54 83.6449 77.2119 84.0016C77.143 84.0773 77.0741 84.1832 77.1211 84.274C77.1615 84.3513 77.2623 84.3698 77.3497 84.3798C77.5598 84.4017 77.7716 84.4235 77.9817 84.4454C77.5312 85.7968 77.1178 87.1952 76.321 88.3365C75.7912 89.09 75.1005 89.7164 74.299 90.1703C74.0805 90.2948 73.8549 90.4065 73.6233 90.5048C72.7695 90.5703 71.9318 90.6403 71.1105 90.7149C70.7962 90.7434 70.4841 90.7726 70.1743 90.8023C69.9171 90.8258 69.6633 90.851 69.4112 90.8745C69.4095 90.7821 69.4095 90.6896 69.4112 90.5972C69.4643 88.1346 70.3703 85.7667 71.9744 83.8974C72.0501 83.81 72.1274 83.7243 72.2064 83.6386C73.0191 82.7705 73.9748 82.0485 75.0319 81.5039C76.6975 80.6379 78.5643 80.2329 80.4391 80.3307Z" fill="#2F4DCB"/>
<path d="M70.465 89.9419L70.2717 90.5134L70.1743 90.8042C69.9171 90.8277 69.6633 90.8529 69.4112 90.8764L69.3658 90.8815C69.0868 90.91 68.8094 90.9386 68.5321 90.9672C68.4598 90.8831 68.3875 90.7974 68.3169 90.71C66.5625 88.5855 65.7204 85.8529 65.9745 83.1094C66.2287 80.3658 67.5585 77.8344 69.6734 76.0684C69.4515 77.2298 69.7103 78.3425 70.1356 79.4468C70.0902 79.4653 70.0465 79.4838 70.0045 79.504C69.6791 79.6571 69.3868 79.8724 69.1439 80.1376C69.075 80.2133 69.0061 80.3192 69.0531 80.4099C69.0935 80.4873 69.1943 80.5057 69.2817 80.5158C69.4918 80.5377 69.7036 80.5595 69.9137 80.5814C70.0818 80.5999 70.2499 80.6167 70.418 80.6351C70.497 80.6436 70.576 80.652 70.655 80.6604C70.6667 80.6856 70.6768 80.7091 70.6886 80.7343C71.1676 81.7731 71.6836 82.8169 71.9744 83.8993C72.0473 84.1709 72.1046 84.4464 72.1459 84.7246C72.2753 85.6646 72.1914 86.6217 71.9004 87.5249C71.6095 88.4281 71.1189 89.2542 70.465 89.9419Z" fill="#2F4DCB"/>
<path d="M87.3839 65.5626C85.9369 62.7402 83.6952 60.3654 81.0586 58.6202C78.4135 56.8775 75.3784 55.8162 72.2237 55.5309C71.8102 55.4933 71.3957 55.4713 70.9801 55.4649C70.4891 55.4575 63.1027 57.588 60.6284 59.3278C58.1554 61.0463 56.121 63.3221 54.6895 65.9716C53.2605 68.6355 52.5576 71.6286 52.6514 74.6502C52.7739 77.69 53.6212 80.6565 55.1227 83.3024C56.6037 85.9398 58.7065 88.1754 61.2483 89.8149C63.8264 91.4599 66.416 95.8214 69.4599 95.9754C72.5267 96.1305 76.0242 92.0162 78.8213 90.767C81.6184 89.5074 84.0365 87.5367 85.8346 85.0514C87.582 82.6158 88.7124 79.7926 89.1289 76.8241C89.5615 73.7846 89.3598 70.65 88.3219 67.7449C88.0555 66.9985 87.7422 66.2696 87.3839 65.5626C87.0848 64.9735 86.208 64.7565 85.6592 65.1104C85.3764 65.2845 85.1716 65.5609 85.0874 65.8821C85.0031 66.2034 85.046 66.5447 85.2069 66.8352C85.3826 67.1812 85.5459 67.5329 85.6969 67.8903L85.5698 67.5892C86.1413 68.9633 86.5299 70.4064 86.7256 71.8817L86.6806 71.5466C86.8888 73.1471 86.8851 74.7681 86.6695 76.3676L86.7145 76.0325C86.4966 77.6319 86.0697 79.1958 85.4447 80.684L85.5718 80.3829C85.2503 81.1422 84.8756 81.8779 84.4504 82.5845C84.235 82.9415 84.0063 83.29 83.7646 83.6302C83.6584 83.7795 83.5489 83.9262 83.4387 84.0725C83.2947 84.2633 83.6348 83.8232 83.4861 84.0104C83.4608 84.0423 83.4356 84.0743 83.4102 84.1061C83.3338 84.2015 83.2564 84.2961 83.1779 84.3898C82.6538 85.015 82.082 85.5985 81.4674 86.1351C81.3143 86.2687 81.1587 86.3993 81.0005 86.5269C80.9217 86.5905 80.8439 86.6568 80.7617 86.7159C80.7648 86.7137 81.0272 86.5143 80.8719 86.63C80.8231 86.6664 80.7747 86.7033 80.7257 86.7396C80.3996 86.9812 80.0649 87.2104 79.7215 87.4274C78.931 87.9254 78.1016 88.359 77.2414 88.7238L77.5425 88.5967C76.0587 89.2214 74.4991 89.6482 72.904 89.866L73.2391 89.821C71.6448 90.0365 70.0289 90.0393 68.4338 89.8295L68.7689 89.8745C67.3192 89.6799 65.9012 89.2965 64.5508 88.7342L64.852 88.8613C64.0698 88.531 63.3157 88.1381 62.597 87.6862C62.2413 87.4621 61.8948 87.2241 61.5576 86.9723C61.5095 86.9364 61.4618 86.8999 61.4139 86.8638C61.26 86.7477 61.5244 86.9495 61.5266 86.9508C61.4371 86.8867 61.351 86.818 61.2686 86.745C61.1057 86.6124 60.9454 86.4767 60.7876 86.3379C60.1563 85.782 59.5668 85.1803 59.0239 84.5378C58.888 84.3772 58.7549 84.2141 58.6248 84.0486C58.5685 83.977 58.4658 83.8318 58.6928 84.1375C58.6629 84.0973 58.6319 84.0578 58.6018 84.0178C58.5293 83.9217 58.4578 83.8249 58.3873 83.7274C58.1405 83.3858 57.9058 83.0359 57.6834 82.6776C57.1808 81.8665 56.7422 81.0174 56.3715 80.1381L56.4986 80.4393C55.892 78.996 55.4772 77.4795 55.2648 75.9284L55.3098 76.2636C55.1182 74.8338 55.1154 73.3851 55.3017 71.9546L55.2566 72.2897C55.4476 70.9045 55.8202 69.5505 56.3651 68.2626L56.238 68.5638C56.5807 67.7575 56.9851 66.9789 57.4474 66.2348C57.6788 65.8624 57.9241 65.4991 58.1832 65.1448C58.242 65.0643 58.3016 64.9843 58.3618 64.9048C58.4162 64.8329 58.566 64.6538 58.3104 64.9701C58.3355 64.9391 58.3596 64.9072 58.3843 64.8759C58.5265 64.6958 58.6721 64.5184 58.8212 64.3439C59.3856 63.6832 59.997 63.0642 60.6505 62.4915C60.8157 62.3468 60.9835 62.2051 61.1539 62.0664C61.2313 62.0034 61.3092 61.9411 61.3877 61.8794C61.419 61.8547 61.4508 61.8305 61.4821 61.8057C61.1463 62.0728 61.3888 61.8784 61.465 61.8213C61.8162 61.5581 62.1767 61.3082 62.5467 61.0714C63.369 60.5455 64.2341 60.0896 65.1329 59.7086L64.8317 59.8357C66.1361 59.288 71.9149 57.9953 72.9659 58.1364L72.6308 58.0914C74.1756 58.3071 75.6855 58.7242 77.1219 59.3322L76.8208 59.2052C77.5487 59.5142 78.2561 59.8696 78.9387 60.269C79.2797 60.4689 79.614 60.6797 79.9417 60.9014C80.0967 61.0063 80.2501 61.1136 80.4019 61.2233C80.4778 61.2781 80.5532 61.3335 80.6282 61.3895C80.6699 61.4206 80.7112 61.4521 80.7528 61.4833C80.9275 61.6142 80.5122 61.2937 80.6953 61.4385C81.3081 61.9199 81.8902 62.4394 82.438 62.9938C82.707 63.2677 82.9668 63.5504 83.2173 63.8418C83.3458 63.9913 83.4717 64.143 83.5949 64.2969C83.6562 64.3733 83.8647 64.65 83.6091 64.3111C83.6716 64.3939 83.7347 64.4762 83.7964 64.5596C84.3276 65.2786 84.7993 66.0396 85.2069 66.8352C85.5083 67.4231 86.3812 67.6423 86.9317 67.2874C87.2145 67.1134 87.4194 66.837 87.5036 66.5157C87.5879 66.1944 87.545 65.8531 87.3839 65.5626Z" fill="#3F3D56"/>
<path d="M72.6952 86.1351C72.565 86.1411 72.4362 86.1069 72.3261 86.0372C72.2161 85.9676 72.1301 85.8657 72.0799 85.7455C72.0296 85.6254 72.0175 85.4926 72.0452 85.3653C72.0729 85.2381 72.1391 85.1224 72.2347 85.0339C72.2507 84.9703 72.2622 84.9245 72.2783 84.8609C72.2725 84.847 72.2668 84.8332 72.261 84.8193C71.6761 83.4246 67.9438 87.3125 67.7824 88.6233C67.7113 89.2027 67.7413 89.79 67.871 90.3592C66.662 87.722 66.0343 84.8557 66.0302 81.9546C66.03 81.2266 66.0704 80.4992 66.1514 79.7757C66.2183 79.1826 66.3111 78.5937 66.4299 78.0091C67.0778 74.8368 68.4691 71.8634 70.4893 69.3332C71.6447 69.3977 72.6572 69.2217 72.755 66.9825C72.7724 66.5842 73.0678 66.2394 73.1329 65.847C73.0226 65.8614 72.9105 65.8705 72.8002 65.8777C72.7658 65.8795 72.7297 65.8813 72.6953 65.8831L72.6824 65.8837C72.5611 65.8892 72.4409 65.8594 72.3362 65.7981C72.2315 65.7369 72.1467 65.6466 72.0921 65.5382C72.0375 65.4299 72.0153 65.308 72.0283 65.1874C72.0413 65.0668 72.0889 64.9524 72.1654 64.8582C72.213 64.7996 72.2607 64.741 72.3084 64.6825C72.3807 64.5921 72.4548 64.5035 72.5272 64.4131C72.5355 64.4045 72.5434 64.3954 72.5507 64.3859C72.6339 64.2829 72.717 64.1816 72.8002 64.0785C72.6484 63.8429 72.4442 63.6455 72.2035 63.5017C71.3699 63.0135 70.2199 63.3516 69.6177 64.1057C69.0138 64.8597 68.8999 65.9175 69.1096 66.8596C69.3159 67.6612 69.6571 68.4219 70.1186 69.109C70.0734 69.1669 70.0264 69.2229 69.9812 69.2808C69.1548 70.3434 68.4346 71.4844 67.8308 72.6875C68.0016 71.3532 65.9127 66.5343 65.1049 65.5136C64.1345 64.2876 62.1448 64.8227 61.9738 66.3769C61.9722 66.3919 61.9705 66.4069 61.969 66.422C62.089 66.4897 62.2064 66.5615 62.3213 66.6375C62.4657 66.734 62.5776 66.8718 62.6423 67.0329C62.707 67.1941 62.7215 67.371 62.684 67.5405C62.6464 67.71 62.5585 67.8642 62.4318 67.9829C62.3051 68.1017 62.1455 68.1793 61.9739 68.2058L61.9563 68.2085C60.3502 70.5018 65.4991 76.4706 66.7879 75.1304C66.1813 76.8495 65.8008 78.6402 65.6559 80.4574C65.5739 81.5295 65.5788 82.6065 65.6704 83.6778L65.665 83.6398C65.3786 81.3065 60.466 77.8372 59.0314 78.1262C58.205 78.2927 57.391 78.2548 57.5165 79.0884C57.5185 79.1017 57.5205 79.115 57.5226 79.1284C57.7452 79.219 57.962 79.3235 58.1717 79.4412C58.2917 79.5089 58.4091 79.5807 58.5241 79.6567C58.6684 79.7532 58.7803 79.891 58.845 80.0521C58.9097 80.2132 58.9242 80.3902 58.8867 80.5597C58.8491 80.7292 58.7612 80.8834 58.6345 81.0021C58.5078 81.1209 58.3482 81.1985 58.1766 81.225L58.159 81.2277C58.1464 81.2295 58.1355 81.2313 58.1229 81.2331C57.3918 83.7487 62.8136 87.8085 66.1098 86.5167H66.1116C66.4383 87.9362 66.9115 89.3179 67.5238 90.6395H72.5687C72.5868 90.5834 72.6031 90.5255 72.6194 90.4695C72.1524 90.4988 71.6836 90.4709 71.2234 90.3863C71.5977 89.927 71.972 89.4641 72.3463 89.0048C72.3547 88.9963 72.3625 88.9872 72.3698 88.9777C72.5597 88.7427 72.7514 88.5094 72.9412 88.2743L72.9413 88.274C72.9515 87.5535 72.8688 86.8346 72.6953 86.1352L72.6952 86.1351ZM66.9181 74.7705L66.9207 74.7669L66.9181 74.7741V74.7705ZM65.8006 84.8441L65.7572 84.7465C65.759 84.676 65.759 84.6054 65.7572 84.5331C65.7572 84.5132 65.7536 84.4933 65.7536 84.4734C65.7698 84.5982 65.7843 84.723 65.8024 84.8477L65.8006 84.8441Z" fill="#3F3D56"/>
<path d="M16.0097 75.6373C17.0308 75.6373 17.8586 74.8095 17.8586 73.7884C17.8586 72.7672 17.0308 71.9395 16.0097 71.9395C14.9886 71.9395 14.1608 72.7672 14.1608 73.7884C14.1608 74.8095 14.9886 75.6373 16.0097 75.6373Z" fill="#3F3D56"/>
<path d="M38.1966 95.8072C39.2177 95.8072 40.0455 94.9794 40.0455 93.9583C40.0455 92.9372 39.2177 92.1094 38.1966 92.1094C37.1754 92.1094 36.3477 92.9372 36.3477 93.9583C36.3477 94.9794 37.1754 95.8072 38.1966 95.8072Z" fill="#3F3D56"/>
<path d="M122.406 95.8072C123.427 95.8072 124.255 94.9794 124.255 93.9583C124.255 92.9372 123.427 92.1094 122.406 92.1094C121.385 92.1094 120.557 92.9372 120.557 93.9583C120.557 94.9794 121.385 95.8072 122.406 95.8072Z" fill="#3F3D56"/>
<path d="M126.944 72.2759C127.965 72.2759 128.793 71.4482 128.793 70.427C128.793 69.4059 127.965 68.5781 126.944 68.5781C125.923 68.5781 125.095 69.4059 125.095 70.427C125.095 71.4482 125.923 72.2759 126.944 72.2759Z" fill="#3F3D56"/>
<path d="M121.565 55.1314C122.587 55.1314 123.414 54.3036 123.414 53.2825C123.414 52.2614 122.587 51.4336 121.565 51.4336C120.544 51.4336 119.717 52.2614 119.717 53.2825C119.717 54.3036 120.544 55.1314 121.565 55.1314Z" fill="#3F3D56"/>
<path d="M44.4156 70.4267C44.4145 70.899 44.2319 71.3527 43.9055 71.6941C43.5791 72.0355 43.134 72.2383 42.6622 72.2606C42.1905 72.283 41.7282 72.1231 41.3711 71.814C41.0139 71.505 40.7893 71.0705 40.7436 70.6005C40.6979 70.1304 40.8346 69.6607 41.1256 69.2887C41.4165 68.9167 41.8393 68.6707 42.3065 68.6018C42.7737 68.5328 43.2496 68.6461 43.6356 68.9182C44.0216 69.1903 44.2882 69.6004 44.3803 70.0636C44.404 70.1832 44.4158 70.3048 44.4156 70.4267Z" fill="#3F3D56"/>
<path d="M81.3938 60.5103C82.4149 60.5103 83.2427 59.6825 83.2427 58.6614C83.2427 57.6403 82.4149 56.8125 81.3938 56.8125C80.3726 56.8125 79.5449 57.6403 79.5449 58.6614C79.5449 59.6825 80.3726 60.5103 81.3938 60.5103Z" fill="#3F3D56"/>
<path d="M63.0728 58.6611C63.0717 59.1334 62.889 59.5871 62.5627 59.9285C62.2363 60.2699 61.7912 60.4727 61.3194 60.495C60.8477 60.5174 60.3854 60.3575 60.0283 60.0484C59.6711 59.7394 59.4464 59.3049 59.4007 58.8348C59.355 58.3648 59.4918 57.8951 59.7827 57.5231C60.0737 57.1511 60.4965 56.9051 60.9637 56.8361C61.4309 56.7672 61.9068 56.8805 62.2928 57.1526C62.6788 57.4247 62.9454 57.8348 63.0375 58.298C63.0612 58.4176 63.073 58.5392 63.0728 58.6611Z" fill="#3F3D56"/>
<path d="M39.205 53.2822C39.2039 53.7544 39.0213 54.2082 38.6949 54.5496C38.3685 54.891 37.9234 55.0938 37.4517 55.1161C36.9799 55.1384 36.5176 54.9785 36.1605 54.6695C35.8034 54.3605 35.5787 53.926 35.533 53.4559C35.4873 52.9859 35.6241 52.5162 35.915 52.1442C36.2059 51.7721 36.6287 51.5262 37.096 51.4572C37.5632 51.3883 38.039 51.5016 38.425 51.7737C38.811 52.0458 39.0777 52.4559 39.1697 52.9191C39.1934 53.0387 39.2053 53.1603 39.205 53.2822Z" fill="#3F3D56"/>
<path d="M100.723 76.3091C101.744 76.3091 102.572 75.4814 102.572 74.4602C102.572 73.4391 101.744 72.6113 100.723 72.6113C99.7021 72.6113 98.8743 73.4391 98.8743 74.4602C98.8743 75.4814 99.7021 76.3091 100.723 76.3091Z" fill="#3F3D56"/>
<path d="M71.6449 59.5017C73.1302 59.5017 74.3343 58.2976 74.3343 56.8124C74.3343 55.3271 73.1302 54.123 71.6449 54.123C70.1597 54.123 68.9556 55.3271 68.9556 56.8124C68.9556 58.2976 70.1597 59.5017 71.6449 59.5017Z" fill="#3F3D56"/>
<path d="M144.373 95.9491L0.200131 96.0007C0.17385 96.0007 0.147825 95.9956 0.123543 95.9855C0.0992621 95.9755 0.0772011 95.9607 0.058617 95.9421C0.040033 95.9235 0.0252896 95.9015 0.015232 95.8772C0.00517436 95.8529 0 95.8269 0 95.8006C0 95.7743 0.00517436 95.7483 0.015232 95.724C0.0252896 95.6997 0.040033 95.6777 0.058617 95.6591C0.0772011 95.6405 0.0992621 95.6258 0.123543 95.6157C0.147825 95.6057 0.17385 95.6005 0.200131 95.6005L144.373 95.5488C144.426 95.549 144.477 95.5701 144.514 95.6076C144.551 95.6452 144.572 95.696 144.572 95.749C144.572 95.8019 144.551 95.8528 144.514 95.8903C144.477 95.9278 144.426 95.9489 144.373 95.9491Z" fill="#CACACA"/>
</svg>
