<svg width="83" height="64" viewBox="0 0 83 64" fill="none" xmlns="http://www.w3.org/2000/svg">
<g clip-path="url(#clip0_3726_17207)">
<path d="M81.4998 55.5232C81.1513 52.7213 79.4149 49.9606 76.7427 49.0488C77.7965 51.9328 77.7963 55.0965 76.7421 57.9802C76.3315 59.0909 75.7591 60.2835 76.1454 61.4029C76.3857 62.0994 76.9735 62.6323 77.6307 62.9655C78.2878 63.2987 79.0172 63.4575 79.7374 63.6132L79.8791 63.7304C81.0224 61.1488 81.8482 58.3251 81.4998 55.5232Z" fill="#F0F0F0"/>
<path d="M76.716 49.1026C78.2722 50.8462 79.2393 53.0358 79.4802 55.3604C79.5409 55.8599 79.5226 56.3659 79.4257 56.8597C79.3159 57.3376 79.08 57.7775 78.7427 58.1334C78.4348 58.4717 78.0808 58.782 77.8605 59.1892C77.7508 59.3993 77.6868 59.6302 77.6727 59.8668C77.6585 60.1034 77.6945 60.3403 77.7784 60.562C77.9728 61.1198 78.3561 61.5744 78.7464 62.006C79.1798 62.4852 79.6375 62.9761 79.8217 63.6114C79.844 63.6883 79.9621 63.6492 79.9399 63.5723C79.6194 62.467 78.5464 61.8392 78.0347 60.8437C77.796 60.3792 77.6958 59.8399 77.9196 59.3495C78.1153 58.9207 78.4802 58.6004 78.7949 58.2606C79.129 57.9182 79.3742 57.4991 79.5091 57.04C79.6308 56.5528 79.6686 56.0483 79.621 55.5484C79.5318 54.4211 79.266 53.3149 78.8332 52.2702C78.3458 51.0751 77.6576 49.9723 76.7984 49.0093C76.7452 48.9497 76.6632 49.0434 76.716 49.1026H76.716Z" fill="white"/>
<path d="M79.4468 54.6071C79.8313 54.5138 80.1702 54.2868 80.4028 53.9667C80.6354 53.6466 80.7466 53.2542 80.7166 52.8596C80.7103 52.7798 80.586 52.7859 80.5923 52.8658C80.6209 53.2332 80.5173 53.5987 80.3 53.8963C80.0828 54.194 79.7664 54.4042 79.4078 54.489C79.3299 54.5075 79.3694 54.6255 79.4468 54.6071Z" fill="white"/>
<path d="M78.9216 57.9833C78.2271 57.5687 77.7144 56.9074 77.4858 56.1315C77.4632 56.0547 77.345 56.0938 77.3676 56.1706C77.607 56.9775 78.142 57.6646 78.8656 58.0945C78.9346 58.1354 78.9902 58.0241 78.9216 57.9833Z" fill="white"/>
<path d="M78.2306 51.1933C78.0893 51.2604 77.9336 51.2914 77.7774 51.2835C77.6212 51.2756 77.4694 51.229 77.3357 51.1479C77.2673 51.1061 77.2117 51.2175 77.2797 51.259C77.4279 51.3479 77.5956 51.3992 77.7681 51.4083C77.9407 51.4175 78.1129 51.3842 78.2696 51.3115C78.2849 51.3059 78.2976 51.2946 78.3049 51.28C78.3123 51.2654 78.3138 51.2486 78.3092 51.2329C78.3039 51.2173 78.2927 51.2044 78.278 51.1969C78.2633 51.1895 78.2462 51.1882 78.2306 51.1933Z" fill="white"/>
<path d="M68.5977 54.0538C68.6397 54.0811 68.6817 54.1084 68.7237 54.1367C69.2865 54.5068 69.8182 54.922 70.3137 55.3782C70.3526 55.4128 70.3915 55.4485 70.4293 55.4842C71.6114 56.596 72.5768 57.9175 73.2765 59.3817C73.5544 59.9646 73.7875 60.5678 73.9739 61.1861C74.2312 62.0399 74.4423 62.9862 74.9517 63.6846C75.004 63.7581 75.0608 63.8282 75.1218 63.8947H79.7251C79.7356 63.8894 79.7461 63.8852 79.7566 63.88L79.9404 63.8884C79.933 63.8558 79.9247 63.8222 79.9173 63.7896C79.9131 63.7707 79.9078 63.7518 79.9036 63.7329C79.9005 63.7203 79.8973 63.7077 79.8952 63.6962C79.8942 63.692 79.8931 63.6878 79.8921 63.6846C79.89 63.6731 79.8868 63.6626 79.8847 63.6521C79.8385 63.4641 79.7909 63.2761 79.7419 63.0881C79.7419 63.087 79.7419 63.087 79.7409 63.086C79.3638 61.6545 78.8639 60.2419 78.1655 58.9501C78.1445 58.9112 78.1235 58.8713 78.1004 58.8324C77.7823 58.2519 77.4174 57.6983 77.0091 57.1772C76.7847 56.8926 76.546 56.6196 76.2939 56.3591C75.6413 55.6873 74.8871 55.1224 74.059 54.685C72.408 53.8133 70.4965 53.4793 68.7321 54.0118C68.6869 54.0254 68.6428 54.0391 68.5977 54.0538Z" fill="#F0F0F0"/>
<path d="M68.608 54.1118C70.9002 54.567 72.9907 55.733 74.5826 57.444C74.9318 57.8063 75.2218 58.2213 75.4418 58.6739C75.6418 59.1217 75.7183 59.6148 75.6633 60.1022C75.6212 60.5576 75.5253 61.0185 75.5946 61.4763C75.6335 61.7101 75.7214 61.933 75.8526 62.1304C75.9837 62.3278 76.1551 62.4953 76.3555 62.6218C76.8466 62.9501 77.4264 63.0823 77.9978 63.1919C78.6323 63.3136 79.2933 63.43 79.8229 63.8263C79.8871 63.8744 79.9578 63.772 79.8938 63.7241C78.9724 63.0345 77.7377 63.1792 76.7298 62.6924C76.2595 62.4652 75.8548 62.095 75.7383 61.5687C75.6364 61.1085 75.7348 60.6331 75.7815 60.1723C75.8421 59.6977 75.7856 59.2154 75.6169 58.7677C75.4207 58.3054 75.1472 57.8799 74.8082 57.5093C74.0583 56.663 73.18 55.9397 72.2054 55.3662C71.0968 54.7055 69.8833 54.2392 68.6175 53.9877C68.5392 53.9721 68.5301 54.0963 68.608 54.1118H68.608Z" fill="white"/>
<path d="M74.1025 56.8627C74.3533 56.5566 74.4872 56.1714 74.4801 55.7758C74.4731 55.3801 74.3257 54.9999 74.0642 54.7029C74.0111 54.643 73.9155 54.7227 73.9687 54.7827C74.2127 55.0588 74.35 55.413 74.3558 55.7815C74.3615 56.1499 74.2354 56.5082 74.0002 56.7918C73.9491 56.8535 74.0517 56.924 74.1025 56.8627Z" fill="white"/>
<path d="M75.7149 59.8745C74.9108 59.9616 74.1033 59.7423 73.4536 59.2605C73.3893 59.2127 73.3185 59.315 73.3827 59.3628C74.0598 59.8629 74.9005 60.0894 75.7372 59.997C75.8169 59.9881 75.7942 59.8657 75.7149 59.8745Z" fill="white"/>
<path d="M71.0755 54.8704C71.0031 55.0091 70.8975 55.1276 70.768 55.2153C70.6385 55.303 70.4893 55.3571 70.3337 55.3729C70.2538 55.3808 70.2766 55.5031 70.3559 55.4954C70.5277 55.4771 70.6925 55.4171 70.8357 55.3205C70.979 55.2239 71.0965 55.0937 71.1778 54.9413C71.1867 54.9275 71.19 54.911 71.1871 54.8949C71.1842 54.8788 71.1752 54.8644 71.1621 54.8547C71.1485 54.8454 71.1318 54.8418 71.1156 54.8448C71.0994 54.8477 71.085 54.8569 71.0755 54.8704Z" fill="white"/>
<path d="M46.0751 3.42395C45.9641 3.56235 45.8848 3.7234 45.8428 3.89575C45.8009 4.0681 45.7972 4.24757 45.832 4.42151C45.8669 4.59544 45.9395 4.75962 46.0446 4.90247C46.1498 5.04532 46.285 5.16338 46.4408 5.24831L45.7312 9.50167L47.7794 8.5927L48.1392 4.693C48.2646 4.42191 48.2861 4.11425 48.1998 3.82833C48.1135 3.54241 47.9252 3.29808 47.6708 3.14166C47.4164 2.98523 47.1134 2.92757 46.8193 2.97959C46.5252 3.03162 46.2604 3.18973 46.0751 3.42395Z" fill="#9E616A"/>
<path d="M64.501 62.2684L62.8263 62.2683L62.0295 55.8086L64.5013 55.8087L64.501 62.2684Z" fill="#9E616A"/>
<path d="M64.9281 63.891L59.5281 63.8908V63.8225C59.5281 63.2651 59.7496 62.7305 60.1437 62.3363C60.5379 61.9422 61.0725 61.7207 61.6299 61.7207H61.6301L64.9282 61.7208L64.9281 63.891Z" fill="#2F2E41"/>
<path d="M53.2635 62.2684L51.5887 62.2683L50.792 55.8086L53.2638 55.8087L53.2635 62.2684Z" fill="#9E616A"/>
<path d="M53.6903 63.891L48.2903 63.8908V63.8225C48.2903 63.2651 48.5118 62.7305 48.9059 62.3363C49.3001 61.9422 49.8347 61.7207 50.3921 61.7207H50.3923L53.6904 61.7208L53.6903 63.891Z" fill="#2F2E41"/>
<path d="M52.5651 32.125L51.9391 32.9483C51.9391 32.9483 51.8825 33.3328 50.933 36.4651L50.4121 60.0093H53.5629L57.7744 41.1713L62.1454 60.3872L64.8767 60.5483L64.7482 38.7073C64.7482 38.7073 65.0932 34.214 63.8704 33.3796C62.6476 32.5451 52.5651 32.125 52.5651 32.125Z" fill="#2F2E41"/>
<path d="M56.7906 12.3391C58.6166 12.3391 60.0969 10.8588 60.0969 9.03282C60.0969 7.20682 58.6166 5.72656 56.7906 5.72656C54.9646 5.72656 53.4844 7.20682 53.4844 9.03282C53.4844 10.8588 54.9646 12.3391 56.7906 12.3391Z" fill="#9E616A"/>
<path d="M60.1168 9.55066L60.0622 9.44148C59.9777 9.27261 59.2786 7.86871 59.1909 7.50774L58.311 7.61123L56.0199 7.61158L56.3382 7.13405L55.4965 7.24384C55.1888 7.28123 54.8946 7.39211 54.6388 7.56712C54.4819 7.6714 54.3492 7.8082 54.2498 7.96825C53.9491 8.48312 53.4897 9.32527 53.4851 9.33374L53.4412 9.4143L53.0595 8.7722C53.0545 8.74728 52.5814 6.27984 54.1646 5.44303C54.2463 5.27718 54.9421 3.97267 56.5865 4.06072C56.7673 3.85464 57.022 3.72806 57.2954 3.70836C57.671 3.68877 58.0608 3.88605 58.4523 4.29718C58.9723 4.84323 59.6846 5.59102 60.1154 6.42133L60.2342 6.59087C60.403 6.8335 60.4867 7.12528 60.472 7.42051C60.5634 7.89169 60.5309 8.37855 60.3776 8.83338L60.1168 9.55066Z" fill="#2F2E41"/>
<path d="M59.3097 12.9609L61.1392 13.9721L64.733 14.9784L63.6603 24.3829L63.8554 33.6467C63.8554 33.6467 57.7723 37.8139 51.9392 32.9471V21.2867L52.2843 14.9784C52.2843 14.9784 53.6801 14.5818 54.383 15.2659L55.716 13.5343L59.3097 12.9609Z" fill="#E4E4E4"/>
<path d="M53.0903 15.8454L52.2842 14.979L47.8423 14.4758L48.2591 7.65345L45.8373 5.92578L44.0581 15.5304L52.2772 21.2873L53.0903 15.8454Z" fill="#E4E4E4"/>
<path d="M62.0946 36.7091C62.0615 36.5349 62.067 36.3554 62.1107 36.1835C62.1544 36.0116 62.2353 35.8514 62.3476 35.7141C62.46 35.5768 62.6011 35.4658 62.7609 35.3889C62.9208 35.3121 63.0956 35.2712 63.273 35.2692L64.6406 31.1797L66.0234 32.9429L64.5128 36.5561C64.4964 36.8543 64.3712 37.1361 64.1608 37.3482C63.9505 37.5603 63.6697 37.6878 63.3717 37.7067C63.0736 37.7255 62.779 37.6344 62.5436 37.4506C62.3082 37.2667 62.1484 37.0029 62.0946 36.7091Z" fill="#9E616A"/>
<path d="M63.3829 16.0551L64.733 14.9785C64.733 14.9785 66.1135 15.74 66.5336 17.1053C66.9537 18.4707 67.6889 26.2425 67.6889 26.2425L65.6934 36.22L63.4619 34.6723L64.5382 26.7677L62.6477 20.9913L63.3829 16.0551Z" fill="#E4E4E4"/>
<path d="M46.4575 0H12.408V8.27414H46.4575V0Z" fill="#E6E6E6"/>
<path d="M13.3013 7.37987H45.564V0.892578H13.3013V7.37987Z" fill="white"/>
<path d="M19.4463 6.609C20.8113 6.609 21.9178 5.50248 21.9178 4.13751C21.9178 2.77254 20.8113 1.66602 19.4463 1.66602C18.0814 1.66602 16.9749 2.77254 16.9749 4.13751C16.9749 5.50248 18.0814 6.609 19.4463 6.609Z" fill="#494C58"/>
<path d="M41.8905 3.16992H25.3564V3.7072H41.8905V3.16992Z" fill="#494C58"/>
<path d="M41.8905 4.56641H25.3564V5.10369H41.8905V4.56641Z" fill="#494C58"/>
<path d="M0 12.5762L28.8099 14.6776V22.242L0 21.707V12.5762Z" fill="#E6E6E6"/>
<path d="M0.907471 20.7435L28.1809 21.4105V15.4522L0.907471 13.623V20.7435Z" fill="white"/>
<path d="M6.89351 14.842C7.20838 14.8624 7.51502 14.9511 7.79204 15.1022C8.06988 15.2541 8.31636 15.4573 8.51838 15.7012C8.72831 15.9534 8.89275 16.2403 9.00433 16.5489C9.12205 16.8737 9.18212 17.2165 9.18184 17.5619C9.18307 17.902 9.12294 18.2396 9.00433 18.5585C8.89432 18.8546 8.72945 19.1273 8.51838 19.3623C8.3157 19.5881 8.06838 19.7694 7.79204 19.8948C7.5099 20.0215 7.20264 20.0823 6.89351 20.0727C6.57714 20.0626 6.26687 19.9829 5.98485 19.8392C5.69917 19.6931 5.44456 19.493 5.23517 19.2498C5.01546 18.9957 4.84298 18.7043 4.72587 18.3895C4.60159 18.0569 4.53808 17.7048 4.53835 17.3498C4.53697 17 4.60056 16.6531 4.72587 16.3266C4.84148 16.0251 5.01448 15.7488 5.23529 15.5132C5.44561 15.2886 5.70111 15.1112 5.98497 14.9925C6.27236 14.8737 6.58315 14.8222 6.89351 14.842Z" fill="#E6E6E6"/>
<path d="M12.2593 16.7129L25.5333 17.4046V17.9074L12.2593 17.2625V16.7129Z" fill="#E6E6E6"/>
<path d="M12.2593 18.1426L25.5333 18.7124V19.2152L12.2593 18.6921V18.1426Z" fill="#E6E6E6"/>
<path d="M0 27.9431L28.8099 27.4082V34.9726L0 37.074V27.9431Z" fill="#E6E6E6"/>
<path d="M0.907471 36.0271L28.1809 34.1979V28.2402L0.907471 28.9073V36.0271Z" fill="white"/>
<path d="M4.54037 32.1799C4.55436 31.8252 4.63206 31.4758 4.76976 31.1486C4.89907 30.8402 5.08289 30.5577 5.31241 30.3145C5.53086 30.0822 5.79279 29.895 6.08334 29.7636C6.3707 29.6342 6.68322 29.5703 6.9983 29.5766C7.30751 29.5829 7.61125 29.6594 7.88658 29.8003C8.1573 29.94 8.39645 30.1338 8.5892 30.3698C8.79022 30.6155 8.94367 30.8965 9.04168 31.1985C9.14722 31.523 9.19378 31.8638 9.17916 32.2047C9.16592 32.5498 9.09242 32.8899 8.962 33.2096C8.83865 33.5127 8.66305 33.7919 8.44319 34.0343C8.23203 34.2681 7.9779 34.4592 7.69462 34.5972C7.41173 34.7344 7.10209 34.8077 6.78769 34.8118C6.47637 34.8155 6.16832 34.7479 5.88718 34.6141C5.60858 34.4804 5.36113 34.2897 5.16084 34.0544C4.95022 33.8071 4.78899 33.5217 4.68589 33.2137C4.57424 32.881 4.52491 32.5305 4.54037 32.1799Z" fill="#E6E6E6"/>
<path d="M12.2593 30.9586L25.5333 30.4355V30.9383L12.2593 31.5081V30.9586Z" fill="#E6E6E6"/>
<path d="M12.2593 32.387L25.5333 31.7422V32.2449L12.2593 32.9367V32.387Z" fill="#E6E6E6"/>
<path d="M82.8001 63.9991H42.7854C42.7576 63.9991 42.7309 63.988 42.7112 63.9684C42.6915 63.9487 42.6804 63.9219 42.6804 63.8941C42.6804 63.8662 42.6915 63.8395 42.7112 63.8198C42.7309 63.8001 42.7576 63.7891 42.7854 63.7891H82.8001C82.828 63.7891 82.8547 63.8001 82.8744 63.8198C82.8941 63.8395 82.9052 63.8662 82.9052 63.8941C82.9052 63.9219 82.8941 63.9487 82.8744 63.9684C82.8547 63.988 82.828 63.9991 82.8001 63.9991Z" fill="#CACACA"/>
</g>
<defs>
<clipPath id="clip0_3726_17207">
<rect width="82.9052" height="64" fill="white"/>
</clipPath>
</defs>
</svg>
