<svg width="209" height="128" viewBox="0 0 209 128" fill="none" xmlns="http://www.w3.org/2000/svg">
<g clip-path="url(#clip0_5806_22321)">
<path opacity="0.1" d="M208.098 82.2115C208.102 85.6795 207.682 89.1349 206.849 92.5014C206.568 93.6356 206.243 94.7464 205.872 95.8335C205.418 97.1755 204.892 98.4919 204.296 99.7771C203.995 100.427 203.678 101.064 203.343 101.689C203.349 105.245 202.617 108.764 201.193 112.023C198.62 117.87 194.031 122.598 188.264 125.345C184.658 127.065 180.717 127.97 176.721 127.995H39.5037C33.3986 128.008 27.399 126.404 22.1148 123.346L22.0335 123.3C21.2808 122.86 20.547 122.393 19.8321 121.901C18.2234 120.79 16.7121 119.544 15.3143 118.177C13.4225 116.328 11.7555 114.262 10.3478 112.023C7.04176 106.773 5.29038 100.695 5.29652 94.4908C1.94842 88.6161 -0.00390625 81.5789 -0.00390625 74.017C-0.00390625 64.4762 3.09861 55.7729 8.19585 49.1845C9.25853 47.808 10.4226 46.5129 11.6782 45.3099C12.9172 44.1194 14.2488 43.0294 15.6606 42.0501C16.7901 41.2658 17.9706 40.5575 19.1942 39.93C19.7048 39.6702 20.2172 39.4246 20.7384 39.1967C21.196 38.9935 21.6589 38.8045 22.1271 38.626C22.689 38.4128 23.2579 38.2167 23.8339 38.0377C24.4099 37.8587 24.9782 37.702 25.5389 37.5677C26.3634 37.3663 27.202 37.2026 28.0548 37.0765C28.7615 36.9723 29.4682 36.8999 30.175 36.8451C30.7368 36.8027 31.3039 36.7797 31.8746 36.7727H32.1838C32.8128 36.7727 33.4383 36.7974 34.0584 36.8398C34.1238 36.7091 34.1945 36.5765 34.2598 36.4476C34.5072 35.9758 34.7634 35.5059 35.0213 35.0465C35.0207 35.0424 35.0207 35.0382 35.0213 35.0341C35.0655 34.9528 35.1097 34.8733 35.1556 34.7956C35.3641 34.4193 35.5814 34.0465 35.804 33.6772C35.9065 33.5005 36.0072 33.3344 36.1114 33.1684C36.1335 33.1271 36.1577 33.087 36.1839 33.0482C36.2899 32.8715 36.3977 32.6949 36.5072 32.5182C37.0526 31.6466 37.6197 30.7902 38.2086 29.9492L38.3588 29.7337C38.4507 29.6029 38.5355 29.4757 38.638 29.345C38.8818 29.004 39.1327 28.6612 39.3853 28.3256C39.562 28.0853 39.7387 27.8467 39.9295 27.6188C40.3889 27.0299 40.86 26.441 41.343 25.852C41.8259 25.2631 42.3277 24.6818 42.8483 24.1082C42.919 24.0287 42.9896 23.9509 43.0638 23.8732L43.8183 23.0499C43.8554 23.011 43.8872 22.9757 43.9225 22.9403C44.0126 22.8431 44.0992 22.746 44.1964 22.6523C44.601 22.223 45.0162 21.8025 45.4331 21.3838C47.5551 19.2702 49.8158 17.3006 52.2 15.4879C52.2936 15.4137 52.389 15.343 52.4827 15.2724C52.9315 14.9349 53.3873 14.601 53.8431 14.2724C56.3504 12.4736 58.9714 10.8389 61.6895 9.37829C61.8768 9.27052 62.0676 9.16981 62.2602 9.07087C64.6971 7.78165 67.2033 6.62793 69.7674 5.61499C71.1649 5.06198 72.5943 4.54254 74.0325 4.06727C74.9901 3.75277 75.9512 3.45418 76.9247 3.17326C78.4465 2.73509 79.979 2.34227 81.522 1.9948C86.0678 0.974794 90.6924 0.3447 95.3455 0.11138C96.7589 0.0395302 98.1883 0.00242774 99.6335 7.19981e-05C106.607 -0.00916027 113.554 0.86953 120.305 2.61495C120.375 2.72044 120.47 2.80644 120.583 2.86486C120.695 2.92328 120.82 2.95219 120.947 2.94887H121.54C121.798 3.01955 122.054 3.09022 122.312 3.16443C123.753 3.57904 125.173 4.03193 126.572 4.5231L126.925 4.65031C130.379 5.87841 133.74 7.3546 136.98 9.06734C139.902 10.6076 142.715 12.3454 145.399 14.2688C145.813 14.5656 146.22 14.8648 146.622 15.1664C147.109 14.8542 147.605 14.555 148.109 14.2688C150.056 13.16 152.124 12.2785 154.272 11.6416C158.763 10.3126 163.515 10.1268 168.096 11.1009C173.97 12.3465 179.288 15.4384 183.583 19.836C185.332 21.6353 186.889 23.6119 188.228 25.7336C188.326 25.8856 188.423 26.0393 188.516 26.1948C189.668 28.0727 190.657 30.0451 191.474 32.0906C191.504 32.1666 191.534 32.2373 191.561 32.3115C192.315 34.2269 192.923 36.1966 193.38 38.2038C193.402 38.3063 193.426 38.407 193.448 38.5094C193.875 40.4519 194.166 42.422 194.317 44.4053C194.317 44.4759 194.317 44.5484 194.331 44.6226C194.405 45.6485 194.443 46.6851 194.444 47.7322C194.444 48.6686 194.412 49.5979 194.354 50.5202C194.354 50.6209 194.34 50.7252 194.331 50.8294C194.315 51.0962 194.292 51.3594 194.269 51.628C195.618 52.7164 196.881 53.9079 198.047 55.1917C198.561 55.7535 199.06 56.3365 199.541 56.9408C201.009 58.7799 202.298 60.754 203.393 62.8366C206.381 68.4763 208.098 75.1106 208.098 82.2115Z" fill="#6C63FF"/>
<path opacity="0.1" d="M188.133 124.691C188.133 125.898 183.975 127.029 176.721 128H39.5034C33.3983 128.013 27.3987 126.41 22.1145 123.352L22.0332 123.306C24.118 122.546 27.8813 121.838 33.0033 121.198L33.233 121.17C35.5299 120.889 38.097 120.622 40.9027 120.37C40.9734 120.37 41.0458 120.359 41.1165 120.35C43.3427 120.152 45.7108 119.967 48.2208 119.794C48.3003 119.794 48.3781 119.779 48.4576 119.776C49.4258 119.706 50.414 119.64 51.4223 119.578L51.811 119.553C59.1521 119.097 67.4967 118.734 76.5463 118.493H76.5569C77.8243 118.458 79.1053 118.427 80.3997 118.4C81.8391 118.365 83.2961 118.335 84.7708 118.309C85.8963 118.285 87.0359 118.267 88.179 118.249H88.2055C93.3628 118.172 98.6915 118.133 104.14 118.133C117.614 118.133 130.349 118.378 141.634 118.82H141.666C143.401 118.887 145.104 118.961 146.765 119.037L148.178 119.105C150.052 119.194 151.878 119.29 153.655 119.393C174.557 120.582 188.133 122.513 188.133 124.691Z" fill="#6C63FF"/>
<g opacity="0.2">
<path d="M120.194 117.322C120.188 117.512 120.166 117.702 120.128 117.889C118.899 117.693 117.662 117.517 116.418 117.359C116.418 117.309 116.418 117.258 116.418 117.207C116.429 116.677 116.582 116.16 116.86 115.709C117.224 115.133 117.777 114.772 118.386 114.792C118.996 114.811 119.524 115.205 119.851 115.801C120.098 116.268 120.216 116.793 120.194 117.322Z" fill="#3F3D56"/>
<path d="M120.295 114.304C120.338 112.937 119.527 111.803 118.483 111.77C117.44 111.737 116.559 112.818 116.516 114.184C116.473 115.551 117.283 116.685 118.327 116.718C119.371 116.751 120.252 115.67 120.295 114.304Z" fill="#3F3D56"/>
<path d="M120.39 111.278C120.434 109.912 119.623 108.777 118.579 108.744C117.536 108.711 116.655 109.792 116.611 111.159C116.568 112.525 117.379 113.66 118.423 113.693C119.466 113.726 120.347 112.645 120.39 111.278Z" fill="#3F3D56"/>
<path d="M120.486 108.253C120.529 106.886 119.718 105.752 118.675 105.719C117.631 105.686 116.75 106.767 116.707 108.133C116.664 109.5 117.475 110.634 118.518 110.667C119.562 110.7 120.443 109.619 120.486 108.253Z" fill="#3F3D56"/>
<path d="M120.58 105.227C120.623 103.861 119.812 102.727 118.769 102.694C117.725 102.661 116.844 103.742 116.801 105.108C116.758 106.474 117.569 107.609 118.612 107.642C119.656 107.675 120.537 106.594 120.58 105.227Z" fill="#3F3D56"/>
<path d="M112.26 84.2401C112.011 83.9032 111.787 83.5489 111.589 83.18L116.582 82.521L111.207 82.392C110.727 81.2543 110.485 80.0308 110.494 78.7962C110.504 77.5616 110.765 76.3419 111.262 75.2117L118.35 79.1782L111.857 74.0827C112.512 73.0233 113.379 72.1103 114.402 71.4008C115.426 70.6913 116.585 70.2005 117.807 69.959C119.029 69.7175 120.287 69.7306 121.504 69.9974C122.721 70.2642 123.869 70.779 124.878 71.5096C125.887 72.2402 126.734 73.171 127.367 74.2438C128 75.3165 128.405 76.5083 128.556 77.7446C128.708 78.9809 128.603 80.2351 128.248 81.429C127.893 82.6229 127.296 83.7308 126.493 84.6836C126.88 85.2076 127.209 85.7721 127.474 86.3673L120.921 89.5122L127.87 87.4221C128.307 88.866 128.378 90.3963 128.075 91.8744C127.772 93.3524 127.105 94.7315 126.135 95.8869C127.144 97.2557 127.747 98.8808 127.876 100.576C128.004 102.272 127.653 103.969 126.863 105.475C126.072 106.98 124.874 108.233 123.405 109.089C121.936 109.946 120.256 110.372 118.556 110.318C116.856 110.264 115.206 109.734 113.794 108.786C112.382 107.839 111.265 106.513 110.571 104.961C109.876 103.409 109.633 101.693 109.868 100.009C110.104 98.3245 110.808 96.7406 111.901 95.4381C110.696 93.8023 110.076 91.8088 110.14 89.7779C110.204 87.747 110.949 85.7966 112.255 84.2401H112.26Z" fill="#6C63FF"/>
<path opacity="0.1" d="M128.255 90.3501C128.193 92.3822 127.446 94.3336 126.135 95.8873C127.144 97.2561 127.747 98.8812 127.876 100.577C128.004 102.272 127.653 103.97 126.863 105.475C126.072 106.981 124.874 108.233 123.405 109.09C121.936 109.946 120.256 110.372 118.556 110.318C116.856 110.265 115.206 109.734 113.794 108.787C112.382 107.839 111.265 106.514 110.571 104.962C109.876 103.409 109.633 101.693 109.868 100.009C110.104 98.3249 110.808 96.7411 111.901 95.4385C110.741 93.8608 128.287 89.3342 128.255 90.3501Z" fill="black"/>
</g>
<g opacity="0.2">
<path d="M93.3382 117.322C93.3325 117.512 93.3107 117.702 93.2728 117.889C92.0431 117.693 90.8063 117.517 89.5625 117.359C89.5625 117.309 89.5625 117.258 89.5625 117.207C89.574 116.677 89.7265 116.16 90.0042 115.709C90.3682 115.133 90.9212 114.772 91.5307 114.792C92.1403 114.811 92.6685 115.205 92.9954 115.801C93.2426 116.268 93.3609 116.793 93.3382 117.322Z" fill="#3F3D56"/>
<path d="M93.4374 114.304C93.4805 112.937 92.6696 111.803 91.626 111.77C90.5824 111.737 89.7014 112.818 89.6583 114.184C89.6151 115.551 90.4261 116.685 91.4696 116.718C92.5132 116.751 93.3942 115.67 93.4374 114.304Z" fill="#3F3D56"/>
<path d="M93.533 111.278C93.5762 109.912 92.7653 108.777 91.7217 108.744C90.6781 108.711 89.7971 109.792 89.754 111.159C89.7108 112.525 90.5218 113.66 91.5653 113.693C92.6089 113.726 93.4899 112.645 93.533 111.278Z" fill="#3F3D56"/>
<path d="M93.6287 108.253C93.6719 106.886 92.861 105.752 91.8174 105.719C90.7738 105.686 89.8928 106.767 89.8497 108.133C89.8065 109.5 90.6175 110.634 91.661 110.667C92.7046 110.7 93.5856 109.619 93.6287 108.253Z" fill="#3F3D56"/>
<path d="M93.7225 105.229C93.7657 103.863 92.9547 102.729 91.9111 102.696C90.8676 102.663 89.9866 103.744 89.9434 105.11C89.9002 106.476 90.7112 107.611 91.7548 107.644C92.7983 107.677 93.6793 106.596 93.7225 105.229Z" fill="#3F3D56"/>
<path d="M85.4045 84.2401C85.1557 83.9032 84.9313 83.5489 84.7331 83.18L89.7261 82.521L84.3515 82.392C83.8719 81.2543 83.6293 80.0308 83.6387 78.7962C83.6482 77.5616 83.9093 76.3419 84.4063 75.2117L91.4947 79.1782L85.0017 74.0827C85.6567 73.0233 86.5231 72.1103 87.5468 71.4008C88.5705 70.6913 89.7295 70.2005 90.9514 69.959C92.1733 69.7175 93.4319 69.7306 94.6485 69.9974C95.8652 70.2642 97.0137 70.779 98.0225 71.5096C99.0312 72.2402 99.8785 73.171 100.511 74.2438C101.144 75.3165 101.549 76.5083 101.701 77.7446C101.852 78.9809 101.747 80.2351 101.392 81.429C101.038 82.6229 100.44 83.7308 99.6379 84.6836C100.025 85.2076 100.354 85.7721 100.618 86.3673L94.0654 89.5122L101.014 87.4221C101.452 88.866 101.522 90.3963 101.219 91.8744C100.916 93.3524 100.25 94.7315 99.2792 95.8869C100.288 97.2557 100.891 98.8808 101.02 100.576C101.149 102.272 100.798 103.969 100.007 105.475C99.2167 106.98 98.0184 108.233 96.5494 109.089C95.0804 109.946 93.4 110.372 91.7005 110.318C90.0009 110.264 88.3507 109.734 86.9386 108.786C85.5265 107.839 84.4094 106.513 83.7152 104.961C83.021 103.409 82.7776 101.693 83.013 100.009C83.2483 98.3245 83.9527 96.7406 85.0458 95.4381C83.8405 93.8023 83.2201 91.8088 83.2842 89.7779C83.3483 87.747 84.0932 85.7966 85.3992 84.2401H85.4045Z" fill="#6C63FF"/>
<path opacity="0.1" d="M101.399 90.3501C101.338 92.3822 100.59 94.3336 99.2792 95.8873C100.288 97.2561 100.891 98.8812 101.02 100.577C101.149 102.272 100.798 103.97 100.007 105.475C99.2167 106.981 98.0184 108.233 96.5494 109.09C95.0804 109.946 93.4 110.372 91.7005 110.318C90.0009 110.265 88.3507 109.734 86.9386 108.787C85.5265 107.839 84.4094 106.514 83.7152 104.962C83.021 103.409 82.7776 101.693 83.013 100.009C83.2483 98.3249 83.9527 96.7411 85.0458 95.4385C83.885 93.8608 101.431 89.3342 101.399 90.3501Z" fill="black"/>
</g>
<g opacity="0.2">
<path d="M166.695 119.254C166.681 119.615 166.638 119.974 166.566 120.328C164.198 119.95 161.814 119.612 159.412 119.314C159.412 119.219 159.412 119.121 159.412 119.022C159.435 118.002 159.728 117.006 160.264 116.137C160.97 115.029 162.031 114.335 163.202 114.37C164.373 114.406 165.393 115.167 166.029 116.314C166.508 117.217 166.738 118.232 166.695 119.254Z" fill="#3F3D56"/>
<path d="M166.887 113.438C166.97 110.807 165.408 108.622 163.398 108.559C161.388 108.495 159.691 110.577 159.608 113.208C159.524 115.84 161.087 118.024 163.097 118.088C165.107 118.151 166.804 116.07 166.887 113.438Z" fill="#3F3D56"/>
<path d="M167.07 107.614C167.153 104.983 165.591 102.798 163.581 102.735C161.571 102.671 159.874 104.753 159.791 107.384C159.708 110.015 161.27 112.2 163.28 112.263C165.29 112.327 166.987 110.245 167.07 107.614Z" fill="#3F3D56"/>
<path d="M167.256 101.79C167.339 99.1584 165.777 96.9738 163.767 96.9103C161.757 96.8468 160.06 98.9284 159.977 101.56C159.894 104.191 161.456 106.376 163.466 106.439C165.476 106.503 167.173 104.421 167.256 101.79Z" fill="#3F3D56"/>
<path d="M167.232 95.7016C167.311 93.069 165.745 90.8859 163.734 90.8255C161.723 90.7652 160.029 92.8505 159.95 95.4832C159.871 98.1158 161.437 100.299 163.448 100.359C165.459 100.42 167.153 98.3343 167.232 95.7016Z" fill="#3F3D56"/>
<path d="M151.421 55.5679C150.944 54.9193 150.512 54.2387 150.129 53.5308L159.741 52.2622L149.396 52.0131C148.472 49.8231 148.004 47.4677 148.022 45.0908C148.04 42.7139 148.542 40.3656 149.498 38.1896L163.147 45.824L150.649 36.0147C151.912 33.98 153.582 32.2274 155.552 30.8662C157.523 29.5049 159.753 28.5641 162.103 28.1025C164.454 27.6408 166.874 27.6681 169.213 28.1828C171.552 28.6974 173.76 29.6884 175.7 31.0938C177.639 32.4993 179.269 34.2891 180.486 36.3518C181.703 38.4145 182.483 40.7058 182.776 43.083C183.069 45.4601 182.87 47.8722 182.19 50.1688C181.51 52.4655 180.364 54.5975 178.824 56.4319C179.568 57.4415 180.202 58.5285 180.713 59.674L168.096 65.7324L181.472 61.7041C182.315 64.4805 182.453 67.4233 181.872 70.2662C181.291 73.109 180.01 75.7621 178.146 77.9852C180.087 80.6204 181.248 83.7488 181.496 87.0128C181.744 90.2768 181.068 93.5446 179.546 96.4426C178.024 99.3405 175.717 101.752 172.889 103.4C170.061 105.049 166.826 105.869 163.554 105.765C160.283 105.662 157.106 104.641 154.388 102.817C151.669 100.993 149.519 98.4418 148.182 95.4537C146.846 92.4657 146.377 89.1618 146.83 85.9199C147.282 82.678 148.638 79.6289 150.742 77.1212C148.423 73.9722 147.229 70.1353 147.352 66.2263C147.475 62.3174 148.908 58.5632 151.421 55.5662V55.5679Z" fill="#6C63FF"/>
<path opacity="0.1" d="M182.217 67.328C182.101 71.2377 180.669 74.994 178.153 77.9889C180.095 80.6241 181.256 83.7526 181.504 87.0165C181.751 90.2805 181.076 93.5483 179.553 96.4463C178.031 99.3442 175.724 101.755 172.897 103.404C170.069 105.053 166.834 105.872 163.562 105.769C160.29 105.666 157.114 104.644 154.395 102.821C151.677 100.997 149.527 98.4455 148.19 95.4575C146.854 92.4694 146.385 89.1655 146.838 85.9236C147.29 82.6817 148.646 79.6326 150.75 77.125C148.499 74.0843 182.279 65.3721 182.217 67.328Z" fill="black"/>
</g>
<path d="M27.8828 119.566L29.7362 119.561H32.3493L35.6532 65.8885L68.3728 11.2888L66.9505 9.76226V5.89648L31.5648 64.6234L27.8828 119.566Z" fill="#F1C0C0"/>
<path opacity="0.1" d="M29.9355 119.56H32.3508L35.6547 65.8879L68.3742 11.2882L66.952 9.76172L33.2024 65.0699L29.9355 119.56Z" fill="black"/>
<path d="M22.4219 120.012L107.202 126.5L107.275 126.505L189.324 121.459L189.385 121.456V117.991L98.9777 116.332L23.5509 116.26H22.9996L22.9395 116.648L22.4219 120.012Z" fill="#F1C0C0"/>
<path opacity="0.1" d="M22.4219 120.012L107.202 126.5L107.275 126.505L189.324 121.459L189.385 121.392V118.064H189.313L107.202 120.806L23.5509 116.26H23.5385L23.3901 116.357L22.9395 116.648L22.4219 120.012Z" fill="black"/>
<path opacity="0.1" d="M22.4219 120.013L107.202 126.501V120.806L23.3901 116.357L22.9395 116.649L22.4219 120.013Z" fill="black"/>
<path d="M66.9414 9.68825L104.318 49.8054L103.163 120.372L106.338 120.755L106.391 120.762H109.566L109.946 52.8355L179.934 76.2139L181.114 117.84L183.669 118.126L184.535 118.223L182.531 73.3269L109.368 47.6411L69.2506 5.93555H66.9414V9.68825Z" fill="#F1C0C0"/>
<path opacity="0.1" d="M109.656 51.5371L109.944 52.8357L179.933 76.2141L181.113 117.84L183.668 118.126L181.664 75.3484L109.656 51.5371Z" fill="black"/>
<path opacity="0.1" d="M66.9414 9.68825L104.318 49.8054L103.163 120.372L106.338 120.755L107.203 47.4962L66.9414 5.93555V9.68825Z" fill="black"/>
<path d="M109.793 79.8585L135.463 84.9133L135.472 84.9151L180.432 93.7721L182.49 92.947L182.483 92.8021L182.349 89.9311L109.819 75.2754L109.793 79.8585Z" fill="#F1C0C0"/>
<path opacity="0.1" d="M135.473 84.9141L180.433 93.7711L182.491 92.946L182.484 92.8011L135.473 84.9141Z" fill="black"/>
<path d="M137.191 61.9375L137.886 100.161L138.244 119.77L141.405 119.664L143.395 119.597L142.776 62.4905L141.405 62.0347L141.105 61.9375H137.191Z" fill="#F1C0C0"/>
<path opacity="0.1" d="M137.219 61.9277V61.9366L137.885 100.16L138.243 119.77L141.404 119.664V61.9277H137.219Z" fill="black"/>
<path d="M87.679 71.699C87.8645 71.7997 88.0417 71.9149 88.2091 72.0435C88.407 72.2168 88.5848 72.4117 88.7391 72.6248C89.4971 73.6053 90.1967 74.7449 90.1225 75.9817C90.1241 76.1617 90.0901 76.3401 90.0225 76.5069C89.9549 76.6737 89.855 76.8254 89.7285 76.9535C89.4158 77.2202 88.967 77.2326 88.5571 77.2326C88.1119 77.2326 87.6437 77.2326 87.2585 77.0029C86.8734 76.7732 86.5518 76.3262 86.096 76.3368C86.0316 76.3475 85.966 76.3475 85.9016 76.3368C85.7444 76.2856 85.7126 76.0789 85.6101 75.9481C85.4334 75.7132 85.0606 75.7715 84.7832 75.8739C84.5058 75.9764 84.1984 76.1301 83.9246 76.0117C83.7656 75.9279 83.6356 75.7979 83.5518 75.6389C82.8963 74.5789 82.7567 73.305 82.633 72.0735C82.5571 71.3244 81.9775 68.7696 83.5765 69.3509C84.2832 69.6053 84.944 70.1141 85.5871 70.4869L87.679 71.699Z" fill="#3F3D56"/>
<path d="M86.1006 71.9506C86.2434 72.0533 86.4165 72.1053 86.5923 72.0983C86.768 72.0912 86.9364 72.0255 87.0705 71.9117C87.3336 71.674 87.5013 71.3487 87.5423 70.9965C87.719 70.9417 87.8091 71.1732 87.9221 71.3145C88.12 71.5548 88.5229 71.5513 88.7031 71.8075C88.8285 71.9842 88.8003 72.2297 88.8886 72.4294C89.0034 72.6873 89.2879 72.8216 89.4822 73.0301C89.6658 73.2579 89.7983 73.5224 89.8709 73.8057L90.1607 74.675C90.2993 75.0365 90.3885 75.4151 90.4257 75.8005C90.444 75.9931 90.4237 76.1875 90.3661 76.3722C90.3085 76.5569 90.2146 76.7284 90.09 76.8764C89.7013 77.2952 89.0635 77.3393 88.4999 77.327C88.3117 77.331 88.1238 77.309 87.9416 77.2616C87.4416 77.1061 87.1218 76.6026 86.9893 76.0955C86.8568 75.5884 86.8709 75.0566 86.7932 74.5372C86.7092 74.027 86.5608 73.5294 86.3515 73.0566C86.196 72.6891 85.7684 72.1414 85.7755 71.7509C85.9027 71.7509 85.9946 71.8675 86.1006 71.9506Z" fill="#3F3D56"/>
<path d="M86.7343 70.1622C86.6517 69.9113 86.6036 69.6504 86.5912 69.3866C86.5912 68.8565 86.8333 68.3583 87.0771 67.8848L85.0576 68.1586C84.8138 68.1922 84.5417 68.2417 84.4039 68.4448C84.3515 68.5455 84.3242 68.6573 84.3242 68.7708C84.3242 68.8843 84.3515 68.9961 84.4039 69.0968C84.5051 69.2984 84.5856 69.5097 84.6442 69.7275C84.6488 69.9182 84.6706 70.108 84.7095 70.2947C84.7724 70.4318 84.8605 70.5559 84.9693 70.6604C85.547 71.3 85.9799 72.0544 86.411 72.8018C86.3986 72.7806 87.6283 71.8283 87.5788 71.5173C87.5506 71.3406 87.1954 71.1286 87.0824 70.959C86.9262 70.7128 86.8088 70.4441 86.7343 70.1622Z" fill="#BE6F72"/>
<path d="M104.05 63.2598V65.0001L74.2491 70.8129L72.7031 71.7493H67.3691V70.7687L96.6487 63.6944L104.05 63.2598Z" fill="#F1C0C0"/>
<path opacity="0.1" d="M104.05 65L74.2491 70.8128L72.7031 71.7492H67.3691L96.866 65.4364L104.05 65Z" fill="black"/>
<path d="M80.1233 112.663C79.7913 112.261 79.3329 111.983 78.8229 111.875C78.3128 111.766 77.781 111.834 77.3141 112.066C77.2142 112.113 77.126 112.182 77.0562 112.267C76.8795 112.515 76.9926 112.856 77.0085 113.161C77.0491 113.907 76.4554 114.513 75.9219 115.034C75.6356 115.313 75.3441 115.612 75.2151 115.992C75.0862 116.372 75.1816 116.854 75.5279 117.052C75.679 117.128 75.8434 117.173 76.012 117.186C76.5767 117.296 77.1558 117.312 77.7258 117.234C78.2894 117.126 78.8424 116.806 79.0862 116.287C79.1333 116.146 79.2111 116.017 79.3141 115.911C79.6251 115.665 80.1021 115.953 80.4555 115.778C80.747 115.633 80.7594 115.405 80.7629 115.105C80.7735 114.274 80.6498 113.335 80.1233 112.663Z" fill="#6C63FF"/>
<path d="M84.364 112.63C84.5813 113.203 84.6113 113.826 84.6396 114.438C84.6555 114.791 84.6661 115.169 84.4753 115.468C84.2845 115.766 83.9117 115.924 83.5548 115.998C82.818 116.15 81.9646 116.007 81.4894 115.422C81.1254 114.975 81.0494 114.362 81.1166 113.782C81.1731 113.307 81.2933 112.75 80.9523 112.413C80.8639 112.323 80.7491 112.259 80.6678 112.162C80.4911 111.946 80.5194 111.621 80.6148 111.356C80.7391 111.103 80.8322 110.835 80.8922 110.56C80.9063 110.429 83.2845 110.651 83.5035 110.759C83.8021 110.906 83.7562 111.151 83.8463 111.448C83.9717 111.862 84.212 112.234 84.364 112.63Z" fill="#6C63FF"/>
<path d="M84.7996 87.2493C85.266 87.5514 85.4462 88.145 85.5187 88.6963C85.7183 90.2069 85.3685 91.7334 85.342 93.2582C85.3173 95.3943 85.9356 97.5692 85.4074 99.6381C85.0911 100.875 85.3597 102.288 85.0628 103.537C84.9745 103.909 84.812 104.258 84.7271 104.629C84.5505 105.433 84.736 106.274 84.9851 107.06C85.0646 107.272 85.1152 107.494 85.1353 107.72C85.1233 108.067 85.0352 108.407 84.8773 108.716L83.8172 111.223C83.6989 111.504 83.2324 111.55 82.9338 111.587C82.372 111.654 81.7448 111.702 81.2978 111.354C80.8508 111.006 80.743 110.423 80.6741 109.879C80.5419 108.834 80.4829 107.781 80.4974 106.728C80.5168 106.454 80.4924 106.177 80.425 105.91C80.3278 105.608 80.114 105.347 80.0557 105.027C79.9815 104.613 80.1917 104.207 80.2695 103.79C80.3228 103.409 80.3168 103.022 80.2518 102.643C80.1829 102.078 80.1034 101.513 80.0133 100.951C79.8861 100.165 80.0681 99.389 80.19 98.601C80.3048 97.8607 80.1582 97.1063 80.0133 96.3713C80.0258 96.9678 79.9514 97.563 79.7924 98.1381C79.6988 98.419 79.5645 98.6876 79.4833 98.9738C79.1211 100.258 79.8932 101.606 79.7836 102.937C79.7324 103.559 79.4886 104.174 79.5575 104.787C79.6052 105.235 79.8137 105.647 79.9568 106.075C80.0999 106.502 80.1741 106.992 79.9568 107.391C79.3825 108.476 79.8119 109.951 80.326 111.064C80.4304 111.261 80.5213 111.466 80.5981 111.675C80.7501 112.177 80.6228 112.716 80.6635 113.239C80.5155 113.263 80.364 113.253 80.2204 113.21C80.0768 113.167 79.9449 113.092 79.8349 112.99C79.7571 112.909 79.6935 112.813 79.6175 112.728C79.4053 112.526 79.154 112.369 78.879 112.267C78.7176 112.177 78.5337 112.135 78.349 112.145C78.1548 112.2 77.9801 112.308 77.8454 112.458C77.6707 112.612 77.4853 112.753 77.2906 112.88C77.2077 112.944 77.1108 112.987 77.008 113.006C76.9562 113.014 76.9033 113.005 76.8567 112.982C76.8101 112.958 76.7721 112.92 76.7482 112.873C76.7372 112.844 76.7306 112.813 76.7288 112.781C76.6632 112.248 76.6284 111.711 76.6246 111.174C76.6246 110.25 75.5185 109.614 75.379 108.7C75.2677 107.963 75.4744 107.212 75.4055 106.47C75.3719 106.089 75.2659 105.714 75.2729 105.333C75.2729 105.085 75.3295 104.843 75.3489 104.598C75.3651 104.325 75.361 104.052 75.3366 103.78L75.2818 102.926C75.2288 102.083 75.1705 101.223 74.8383 100.453C74.4444 99.5531 74.2112 98.5916 74.1493 97.6116C74.1139 96.9932 74.1369 96.3748 74.0662 95.7547C74.0026 95.1946 73.8613 94.6381 73.9019 94.0762C73.9355 93.6416 74.0786 93.2211 74.1122 92.7864C74.1811 91.9507 73.863 91.138 73.6139 90.3376C73.3648 89.5373 73.181 88.6503 73.5079 87.8782C73.5546 87.7515 73.6324 87.6385 73.7341 87.5496C73.8594 87.4667 74.002 87.4135 74.151 87.3941C77.1824 86.7574 80.2896 86.5592 83.3773 86.8058C83.8807 86.8343 84.3692 86.9867 84.7996 87.2493Z" fill="#3F3D56"/>
<path d="M74.7699 68.4831C76.3331 68.4831 77.6003 67.2159 77.6003 65.6527C77.6003 64.0895 76.3331 62.8223 74.7699 62.8223C73.2067 62.8223 71.9395 64.0895 71.9395 65.6527C71.9395 67.2159 73.2067 68.4831 74.7699 68.4831Z" fill="#BE6F72"/>
<path d="M74.2227 69.1879C74.2634 69.3497 74.2634 69.5191 74.2227 69.6809C74.1782 69.7939 74.1156 69.899 74.0372 69.9919C73.7632 70.3453 73.4601 70.6751 73.1309 70.9777C73.2986 71.3523 73.6005 71.6505 73.9772 71.8134C74.3511 71.9726 74.7434 72.0848 75.145 72.1474C75.3455 72.2001 75.5541 72.2144 75.7599 72.1898C75.9495 72.1421 76.1291 72.0607 76.2899 71.9495L77.8624 71.0078C78.0996 70.8792 78.3194 70.7207 78.5161 70.536C78.8045 70.2396 78.9677 69.8436 78.9719 69.43C78.9793 69.3559 78.9591 69.2817 78.9154 69.2215C78.8551 69.1691 78.7795 69.1375 78.6998 69.1314C78.1468 69.0095 77.7104 68.5607 77.4631 68.0519C77.2395 67.5303 77.0948 66.9783 77.0337 66.4141L75.357 67.2975C75.1079 67.43 74.8606 67.5625 74.6026 67.6773C74.4383 67.7515 74.1061 67.8134 73.9895 67.9636C73.7669 68.2409 74.1644 68.854 74.2227 69.1879Z" fill="#BE6F72"/>
<path d="M73.1408 70.4635C72.9021 70.6592 72.7157 70.9111 72.5984 71.1967C72.4888 71.5501 72.5984 71.9229 72.6973 72.2727C73.161 73.7637 73.5153 75.2866 73.7574 76.8293C73.9058 77.8894 73.9606 78.9654 74.033 80.0378C74.1814 82.2251 74.397 85.7128 74.685 87.886C75.7451 87.9337 76.7787 87.6245 77.8299 87.5114C79.7946 87.3029 81.8176 87.78 83.7416 87.3347C83.2752 85.4919 82.8088 82.3453 82.3423 80.5042C82.1359 79.7789 81.9929 79.037 81.9148 78.2869C81.8741 77.748 81.8989 77.2074 81.9059 76.665C81.9218 75.6049 81.8635 74.5448 81.8052 73.4847C81.7381 72.2479 81.6709 71.0112 81.3777 69.8009C81.3572 69.6467 81.2849 69.504 81.1727 69.3963C80.996 69.2673 80.7663 69.3133 80.5561 69.3415C79.9123 69.4233 79.2607 69.2689 78.7221 68.9069C78.4889 68.7479 78.1762 68.5535 77.9589 68.7302C77.8661 68.8368 77.805 68.9671 77.7822 69.1066C77.686 69.3565 77.5376 69.583 77.3469 69.771C77.1562 69.959 76.9275 70.1041 76.6762 70.1967C76.1727 70.379 75.6454 70.4873 75.1108 70.5182C74.9472 70.5534 74.7766 70.5341 74.6249 70.4635C74.374 70.3098 74.3564 69.7567 74.0401 69.7196C73.7627 69.6878 73.3281 70.285 73.1408 70.4635Z" fill="#3F3D56"/>
<path d="M77.32 74.778C76.668 74.1544 76.3818 73.2498 75.9065 72.4812C75.5829 71.9644 75.1694 71.5096 74.6856 71.1384C74.4424 70.9778 74.2194 70.7886 74.0213 70.5748C73.8535 70.3681 73.7263 70.0925 73.4718 70.013C73.3667 69.9901 73.2576 69.9931 73.1539 70.0217C73.0502 70.0503 72.955 70.1037 72.8764 70.1773C72.7207 70.3257 72.5732 70.4826 72.4347 70.6472C71.6856 71.4229 70.3693 71.5307 69.7757 72.4282C69.6155 72.6185 69.5067 72.8466 69.4594 73.0907C69.2885 74.3971 69.6263 75.7191 70.4029 76.7834C70.5533 77.0301 70.7842 77.2173 71.0566 77.3134C71.0197 77.6429 71.0633 77.9763 71.1838 78.2852C71.511 79.4034 71.9129 80.4983 72.387 81.5626C72.2737 81.9789 72.1945 82.4038 72.1503 82.8329C72.0266 83.9125 72.1414 85.0079 72.0248 86.0892C71.9294 86.9726 71.6715 87.833 71.6626 88.7182C71.6626 88.8595 71.675 89.0274 71.7969 89.0998C71.8618 89.1331 71.9344 89.1484 72.0072 89.144L74.1803 89.2093C75.4418 89.2464 76.7157 89.2836 77.9578 89.0503C78.1232 89.0259 78.2836 88.9752 78.433 88.9002C78.8535 88.6652 78.9931 88.1351 79.0603 87.6634C79.1479 87.0515 79.1828 86.4332 79.1645 85.8153C79.4278 86.6475 79.7405 87.5079 80.5355 87.8683C80.956 88.0592 81.4366 88.045 81.8978 88.0327C82.8917 87.9884 83.8822 87.8863 84.8642 87.727C84.9248 87.7345 84.9862 87.7277 85.0436 87.7072C85.1011 87.6867 85.1529 87.6531 85.195 87.6089C85.237 87.5648 85.2682 87.5114 85.2859 87.4531C85.3037 87.3947 85.3075 87.333 85.2971 87.2729L85.3077 86.3082C85.3289 84.3489 84.843 82.476 84.654 80.5255C84.5939 79.9106 84.5992 79.2887 84.449 78.6862C84.3872 78.4336 84.2971 78.1862 84.2423 77.9318C84.1952 77.6827 84.1656 77.4306 84.154 77.1774L84.0162 75.2339C83.9508 74.3346 83.8571 73.4671 83.7882 72.5695C83.7504 71.6956 83.6237 70.8277 83.4101 69.9794C83.2564 69.4494 82.9366 68.8486 82.3836 68.7833C82.0886 68.7497 81.8023 68.8787 81.5214 68.9688C80.8309 69.1862 80.0899 69.1831 79.4013 68.9599C79.1885 68.8759 78.9668 68.8167 78.7405 68.7833C78.6266 68.7678 78.5106 68.7828 78.4044 68.8269C78.2982 68.871 78.2057 68.9425 78.1362 69.0342C78.0677 69.1722 78.0354 69.3254 78.0426 69.4794C77.9595 71.2444 77.8058 73.0625 77.32 74.778Z" fill="#6C63FF"/>
<path d="M74.4779 74.8317C73.6634 73.973 72.8277 73.0984 71.7782 72.5525C71.3648 72.3369 70.8948 72.1744 70.4372 72.2557C69.9796 72.3369 69.5538 72.7345 69.575 73.1992C69.5891 73.4871 69.764 73.7416 69.8188 74.0243C69.8824 74.3423 69.7905 74.6815 69.8895 74.9889C69.9699 75.1915 70.09 75.3759 70.2428 75.5313L71.4937 77.0137C72.0238 77.6321 72.5538 78.2593 73.2358 78.6869C73.9178 79.1144 74.8012 79.3141 75.5503 79.0102C76.0833 78.7625 76.5265 78.3557 76.8189 77.8459C77.1299 77.3512 77.3489 76.8105 77.6405 76.2999C78.0942 75.484 78.6929 74.7578 79.4073 74.1568C79.0398 74.0614 78.5786 73.9271 78.3472 73.6267C78.2813 73.5312 78.2251 73.4294 78.1793 73.3228L77.8931 72.7044C77.7958 72.6994 77.6984 72.7145 77.6072 72.7488C77.516 72.7832 77.4329 72.8361 77.3631 72.9041C77.2403 73.046 77.1087 73.1799 76.9691 73.3052C76.72 73.4924 76.3825 73.5437 76.1563 73.7575C76.0688 73.8492 75.9896 73.9486 75.9196 74.0543C75.7485 74.2791 75.5314 74.4648 75.2828 74.5988C75.0341 74.7329 74.7597 74.8123 74.4779 74.8317Z" fill="#3F3D56"/>
<path d="M79.4723 71.1379C80.0854 70.0195 80.0571 68.6785 80.232 67.4152C80.251 67.0807 80.3684 66.7592 80.5695 66.4912C80.9229 66.0919 81.5465 66.0866 82.0801 66.1378C82.2374 66.1555 82.4335 66.2297 82.4246 66.3869C82.4123 66.4433 82.3848 66.4952 82.3451 66.5371C81.828 67.2046 81.5238 68.0123 81.4723 68.8552C81.7497 69.0477 82.1791 68.652 82.4459 68.8552C82.6225 69.0036 82.5413 69.2969 82.4353 69.5089C82.1891 70.0001 81.9352 70.4877 81.6738 70.9718C81.465 71.3985 81.1928 71.7911 80.8663 72.1361C80.6419 72.3517 80.3787 72.5213 80.1508 72.7333C79.6207 73.2298 79.3009 73.9312 78.7532 74.4153C78.7069 74.4654 78.6443 74.4974 78.5765 74.5054C78.5069 74.5004 78.4412 74.471 78.391 74.4224C78.1174 74.1998 77.8905 73.9254 77.7232 73.6149C77.5147 73.2298 77.5465 73.1167 77.8751 72.8446C78.49 72.3587 79.0889 71.8375 79.4723 71.1379Z" fill="#BE6F72"/>
<path d="M73.454 74.0718C73.56 74.1372 73.6908 74.2114 73.8074 74.1566C73.8551 74.1278 73.8955 74.0885 73.9258 74.0418C74.1278 73.7722 74.2963 73.4791 74.4276 73.169C74.4502 73.1251 74.4628 73.0769 74.4647 73.0276C74.4647 72.9145 74.364 72.8315 74.2703 72.7661C73.7686 72.4463 73.2291 72.19 72.6643 72.0029C72.1978 71.8262 71.7102 71.6725 71.2155 71.7166C71.0296 71.7291 70.8482 71.7791 70.6821 71.8635C70.516 71.9479 70.3687 72.065 70.2491 72.2078C69.8957 72.6619 70.4876 72.7997 70.8586 72.964C71.7173 73.3545 72.6466 73.5806 73.454 74.0718Z" fill="#6C63FF"/>
<path opacity="0.1" d="M72.8973 77.0757C72.8914 77.116 72.895 77.1571 72.9079 77.1958C72.9208 77.2345 72.9426 77.2696 72.9715 77.2983C73.0228 77.0474 72.9556 76.7824 73.0086 76.5297C73.0864 76.1498 73.4556 75.8636 73.4874 75.482C72.8108 75.3495 72.9026 76.6658 72.8973 77.0757Z" fill="black"/>
<path opacity="0.2" d="M104.05 63.2598V65.0001L96.8658 65.4365L96.6484 63.6944L104.05 63.2598Z" fill="black"/>
<path d="M72.2227 66.0728C72.6714 65.7071 72.4117 64.9403 72.7156 64.4491C72.8923 64.1806 73.1909 64.0392 73.4842 63.9191C73.8381 63.7534 74.2174 63.6483 74.6061 63.6081C74.8008 63.5894 74.9972 63.6148 75.1807 63.6824C75.3642 63.75 75.5301 63.8581 75.6662 63.9986C75.781 64.1293 75.8587 64.2883 75.9665 64.4244C76.1 64.5831 76.274 64.7027 76.4699 64.7705C76.6659 64.8383 76.8766 64.8518 77.0796 64.8095C77.3146 64.7565 77.5584 64.5781 77.5425 64.3378C77.516 64.1917 77.4414 64.0586 77.3305 63.9597L76.8252 63.3996C76.251 62.7636 75.6132 62.0887 74.7704 61.9296C74.1838 61.8183 73.5831 61.9756 73.0177 62.1646C72.7898 62.2406 72.5336 62.3537 72.47 62.5851C72.4276 62.7441 72.4912 62.9173 72.4541 63.0781C72.3817 63.3979 71.9718 63.5056 71.781 63.7742C71.5901 64.0427 71.6484 64.3608 71.5937 64.6576C71.5389 64.9544 71.3799 65.2442 71.3605 65.5516C71.3481 65.7371 71.4417 66.0816 71.6502 66.1488C71.8587 66.2159 72.0937 65.852 72.2227 66.0728Z" fill="#3F3D56"/>
<path d="M77.3711 64.0848C77.2221 63.3074 76.9009 62.5733 76.4311 61.9363C76.0134 61.3412 75.4323 60.8797 74.758 60.6077C74.4209 60.476 74.0584 60.4223 73.6976 60.4508C73.3368 60.4792 72.9872 60.5891 72.6749 60.772C72.2114 61.1029 71.8506 61.5579 71.6343 62.0847C71.1767 63.0706 71.007 64.2756 71.5388 65.2226C71.7509 64.9646 72.1148 65.0812 72.4364 64.9876C72.8392 64.8728 73.1802 64.6042 73.5636 64.4364C74.7209 63.9258 76.1343 64.3392 77.3711 64.0848Z" fill="#FED253"/>
<path opacity="0.1" d="M71.8092 64.0282C71.7686 63.7102 71.7421 63.3409 71.9683 63.1148C71.9795 63.1009 71.9938 63.0899 72.0101 63.0825C72.0263 63.0751 72.0441 63.0717 72.0619 63.0724C72.0777 63.0775 72.0922 63.0858 72.1047 63.0967C72.1171 63.1076 72.1272 63.121 72.1343 63.136C72.2649 63.342 72.3761 63.5596 72.4665 63.7861C72.3348 63.7558 72.1971 63.7657 72.0711 63.8145C71.9451 63.8633 71.8366 63.9488 71.7598 64.06" fill="black"/>
<path opacity="0.1" d="M75.9366 63.1321L75.8729 62.5014C75.8627 62.4494 75.867 62.3956 75.8853 62.3459C75.912 62.3043 75.9531 62.2741 76.0007 62.261C76.0484 62.2479 76.0991 62.253 76.1433 62.2752C76.2302 62.3234 76.3018 62.395 76.35 62.482C76.4971 62.7077 76.6191 62.9489 76.714 63.2011C76.4294 63.1462 76.1366 63.1498 75.8535 63.2117" fill="black"/>
<path opacity="0.1" d="M77.5187 88.7305V90.1722L76.3014 90.2535H69.8984V88.7305H77.5187Z" fill="black"/>
<path d="M77.5186 88.7312V90.2542H69.8984L49.6543 64.8952V63.6973H53.8982L77.5186 88.7312Z" fill="#F1C0C0"/>
<path opacity="0.1" d="M77.5186 88.7312V90.2542H69.8984L49.6543 64.8952V63.6973H53.8982L77.5186 88.7312Z" fill="black"/>
<path opacity="0.1" d="M77.5186 88.7312V90.2542H69.8984L49.6543 64.8952V63.6973L70.0079 88.7312H77.5186Z" fill="black"/>
<path d="M52.3081 114.149C52.3214 114.22 52.3198 114.294 52.3034 114.365C52.2869 114.436 52.256 114.503 52.2126 114.561C52.1691 114.62 52.1141 114.669 52.0509 114.705C51.9877 114.742 51.9176 114.764 51.8452 114.772C51.354 114.938 50.8328 115.103 50.4847 115.479C50.1367 115.855 50.0678 116.553 50.4847 116.859C50.6979 116.988 50.9426 117.054 51.1915 117.052C51.9918 117.106 52.8258 117.096 53.5519 116.757C54.0714 116.516 54.5608 116.106 55.1314 116.143C55.4265 116.161 55.741 116.299 56.0042 116.165C56.2675 116.03 56.3417 115.656 56.3435 115.343C56.3502 114.69 56.2517 114.041 56.0519 113.419C56.0254 113.334 54.9018 113.269 54.7675 113.242L53.4053 113.066C53.1473 113.032 52.5908 112.838 52.3876 113.053C52.1844 113.269 52.3081 113.893 52.3081 114.149Z" fill="#6C63FF"/>
<path d="M60.4379 109.739C60.4955 110.057 60.5892 110.368 60.717 110.665C60.9061 111.145 61.1481 111.656 61.611 111.889C62.0315 112.099 62.5474 112.023 62.975 111.824C63.1535 111.75 63.3098 111.631 63.4291 111.479C63.567 111.239 63.6286 110.962 63.6058 110.686C63.6058 110.002 63.5651 109.295 63.2524 108.688C62.9838 108.158 62.5156 107.702 62.5086 107.115L60.899 107.426C60.8128 107.434 60.7308 107.467 60.6622 107.52C60.6112 107.574 60.5758 107.64 60.5598 107.712C60.3879 108.374 60.3465 109.062 60.4379 109.739Z" fill="#6C63FF"/>
<path d="M41.2157 92.9531C41.1486 93.522 41.1768 94.1316 41.4737 94.6227C41.7705 95.1139 42.3959 95.439 42.9366 95.2429C42.9643 95.2358 42.9903 95.2232 43.013 95.2059C43.0358 95.1886 43.0549 95.167 43.0691 95.1422C43.0835 95.0825 43.0753 95.0195 43.0461 94.9655C42.8074 94.3285 42.8271 93.6235 43.1009 93.0008C43.1362 92.9195 43.2122 92.8241 43.2952 92.8559C43.33 92.8735 43.3579 92.9021 43.3747 92.9372C43.4603 93.0852 43.5031 93.254 43.4984 93.4248C43.4735 93.5796 43.4687 93.737 43.4843 93.893C43.5179 94.045 43.6804 94.1881 43.8217 94.1227C43.8626 94.0976 43.8979 94.0645 43.9256 94.0253C43.9532 93.9861 43.9726 93.9417 43.9825 93.8948C44.3765 92.7552 44.1981 91.5096 44.0179 90.317C44.0194 90.2896 44.0148 90.2622 44.0046 90.2368C43.9944 90.2114 43.9787 90.1885 43.9586 90.1698C43.9386 90.1511 43.9146 90.137 43.8885 90.1285C43.8625 90.1201 43.8348 90.1175 43.8076 90.1209C42.9737 90.0379 42.5178 89.8382 42.0408 90.6138C41.6309 91.2676 41.2157 92.1669 41.2157 92.9531Z" fill="#6C63FF"/>
<path d="M50.9655 90.0542C50.7181 91.0825 50.469 92.1232 50.4531 93.1797C50.4575 93.8378 50.5071 94.4949 50.6015 95.1462L50.7871 96.6762C50.8507 97.1921 50.9125 97.7063 51.0026 98.2169C51.0601 98.4799 51.0915 98.748 51.0962 99.0173C51.0789 99.2827 51.0369 99.5459 50.9708 99.8035C50.8597 100.345 50.7976 100.894 50.7853 101.447C50.7659 102.33 50.8754 103.213 50.9443 104.097C51.0819 105.857 51.0612 107.626 50.8825 109.383C50.8111 109.857 50.9141 110.341 51.1722 110.745C51.277 110.873 51.3632 111.014 51.4284 111.166C51.5609 111.57 51.2517 111.975 51.1722 112.39C51.1214 112.714 51.2011 113.045 51.3939 113.31C51.5867 113.575 51.8768 113.752 52.2005 113.804C53.6139 113.972 55.0663 113.896 56.3401 114.542C56.4744 114.15 56.1811 113.705 56.3154 113.305C56.4002 113.058 56.6334 112.897 56.7924 112.689C57.0061 112.371 57.1125 111.994 57.0963 111.611C57.1026 111.112 57.0138 110.616 56.8348 110.15C56.6847 109.761 56.4691 109.378 56.4815 108.961C56.4815 108.756 56.5539 108.54 56.4709 108.351C56.4139 108.243 56.3365 108.146 56.243 108.067C55.7149 107.488 55.3904 106.753 55.3189 105.973C55.25 105.199 55.2749 104.42 55.3931 103.652C55.4797 102.92 55.5963 102.148 56.061 101.577C55.8455 99.8469 55.9722 98.091 56.4338 96.4094C56.4797 96.254 56.5522 96.0737 56.7112 96.0366C56.7743 96.0302 56.8381 96.039 56.8972 96.0624C56.9562 96.0857 57.0088 96.123 57.0504 96.1709C57.3278 96.4306 57.4603 96.807 57.5804 97.1674C57.7129 97.5579 57.8472 97.9748 57.7465 98.3741C57.7041 98.5508 57.6193 98.7063 57.5698 98.8759C57.4623 99.2168 57.4812 99.5849 57.6228 99.913C57.6919 100.033 57.7352 100.166 57.7501 100.303C57.7337 100.422 57.6978 100.536 57.644 100.643C57.5785 100.852 57.5577 101.072 57.583 101.29C57.6082 101.508 57.679 101.717 57.7907 101.906C58.0159 102.281 58.2937 102.622 58.6158 102.918C58.4619 103.596 58.5017 104.304 58.7306 104.961C58.7471 104.99 58.7577 105.023 58.7616 105.057C58.7656 105.09 58.7628 105.124 58.7536 105.157C58.7218 105.224 58.6405 105.249 58.5769 105.296C58.4002 105.441 58.5098 105.715 58.6282 105.904C58.9526 106.423 59.3108 106.92 59.7006 107.392C60.054 107.814 60.0222 108.629 60.5487 108.781C60.7699 108.828 60.9988 108.828 61.2201 108.781C61.7395 108.701 62.319 108.551 62.5734 108.092C62.6777 107.903 62.7201 107.673 62.8826 107.532C63.0452 107.39 63.2554 107.365 63.3455 107.196C63.4356 107.026 63.3349 106.804 63.365 106.607C63.395 106.411 63.5664 106.254 63.6212 106.047C63.7519 105.57 63.1954 105.178 63.1194 104.69C63.0098 103.984 63.9003 103.454 63.8632 102.747C63.7855 101.212 63.736 99.6692 63.6565 98.1338C63.5567 96.7585 63.5426 95.3783 63.6141 94.0013C63.6759 93.1444 63.7908 92.2468 63.4763 91.45C63.024 90.3263 61.7766 89.6956 60.5699 89.5754C59.3631 89.4553 58.1599 89.7415 56.9638 89.9288C54.9786 90.2347 52.9617 90.2769 50.9655 90.0542Z" fill="#3F3D56"/>
<path d="M54.5511 73.1667C56.1143 73.1667 57.3816 71.8995 57.3816 70.3363C57.3816 68.7731 56.1143 67.5059 54.5511 67.5059C52.9879 67.5059 51.7207 68.7731 51.7207 70.3363C51.7207 71.8995 52.9879 73.1667 54.5511 73.1667Z" fill="#FBBEBE"/>
<path d="M53.4001 73.695C53.304 73.9189 53.1423 74.1084 52.9364 74.2387C52.7304 74.3689 52.4899 74.4338 52.2464 74.4247C52.1439 74.8487 52.3895 75.2763 52.6704 75.6102C53.2538 76.289 54.0076 76.8 54.8542 77.0904C55.7008 77.3807 56.6096 77.4401 57.4868 77.2622C57.8281 77.2011 58.1519 77.066 58.4355 76.8664C58.8178 76.5472 59.0745 76.1027 59.1599 75.612C59.2412 75.1247 59.2644 74.6295 59.2288 74.1367C59.2387 74.0394 59.2109 73.942 59.1511 73.8646C59.0804 73.8099 58.9931 73.7812 58.9037 73.7833C58.3066 73.7303 57.6829 73.7074 57.1581 73.4141C56.6334 73.1208 56.2606 72.4582 56.5132 71.9141C56.4726 71.9989 55.4408 72.0395 55.3047 72.0572C54.8789 72.1172 54.4531 72.1844 54.0291 72.2621C53.8254 72.2733 53.624 72.3113 53.4302 72.3752C53.174 72.5077 53.2694 72.4423 53.3295 72.6826C53.4196 73.0501 53.5521 73.3134 53.4001 73.695Z" fill="#FBBEBE"/>
<path d="M55.5532 75.4156C55.172 75.42 54.7917 75.3778 54.4207 75.2901C54.0461 75.2026 53.7159 74.9823 53.4913 74.67C53.3606 74.4721 53.2758 74.223 53.0673 74.1117C52.7263 73.935 52.3376 74.2336 52.0655 74.5074C51.8178 74.7775 51.5307 75.0086 51.2139 75.1929C50.8358 75.3926 50.3941 75.4633 50.0372 75.6983C49.7584 75.9089 49.5191 76.1673 49.3305 76.4615L46.8269 79.8715C45.8216 81.2425 44.947 82.7143 44.0513 84.1613C43.2756 85.4139 42.8693 86.8557 42.2844 88.2073C42.2381 88.29 42.219 88.3852 42.2297 88.4794C42.2509 88.5712 42.3622 88.6454 42.4399 88.5924C42.1767 88.8539 42.4081 89.2992 42.3463 89.6667C42.276 89.9238 42.1294 90.1536 41.9258 90.3257C42.3147 90.2749 42.7095 90.2935 43.0919 90.3804C43.4871 90.4925 43.8601 90.6718 44.1944 90.9105C44.4081 90.8769 44.3887 90.497 44.5477 90.3557C44.6431 90.2727 44.7845 90.2833 44.9099 90.2585C45.3817 90.1667 45.5689 89.5995 45.9311 89.2797C46.2333 89.0129 46.6608 88.9264 46.9806 88.6755C47.5001 88.2673 47.6114 87.5412 47.8835 86.9387C48.1149 86.4281 48.4789 85.9829 48.6821 85.4599C48.8146 85.1207 48.8782 84.7532 49.0672 84.4404C49.3693 83.9351 49.9383 83.6666 50.4807 83.4245C50.8234 83.2708 51.1874 83.1118 51.5567 83.1365C51.5372 83.9581 51.433 84.7673 51.6114 85.5694C51.6733 85.8521 51.7598 86.1277 51.834 86.4087C52.1715 87.6737 52.251 88.9917 52.2669 90.2956C53.0787 90.1099 53.9078 90.0104 54.7404 89.9988C55.3959 89.9794 56.0497 90.0642 56.7051 90.0518C57.4825 90.0377 58.2511 89.8875 59.0285 89.8345C59.8059 89.7815 60.6186 89.8345 61.3059 90.1879C61.2501 89.0681 61.2814 87.9458 61.3995 86.8309L61.5868 85.0747C61.6291 84.5645 61.7076 84.0579 61.8218 83.5588C61.9243 83.156 62.0727 82.7673 62.1858 82.3662C62.5833 80.9527 62.5109 79.4439 62.4349 77.9721C62.396 77.2159 62.1045 76.4721 61.7617 75.799C61.6377 75.5489 61.496 75.308 61.3377 75.0781C60.9235 74.5074 60.3715 74.051 59.7332 73.7513C59.0949 73.4516 58.3911 73.3185 57.6875 73.3643C57.5976 73.3671 57.509 73.3862 57.426 73.4208C57.2769 73.5163 57.1604 73.655 57.0921 73.8184C56.7265 74.4754 56.1961 75.0258 55.5532 75.4156Z" fill="#3F3D56"/>
<path d="M52.0617 71.2755C52.1412 71.0988 52.355 71.0334 52.4857 70.8921C52.7366 70.6235 52.6236 70.1942 52.6624 69.832C52.726 69.302 53.166 68.8585 53.6695 68.6695C54.183 68.5046 54.7294 68.47 55.2596 68.5687C55.5149 68.5874 55.7614 68.6694 55.977 68.8073C56.0688 68.8744 56.1536 68.961 56.2402 69.0228C56.398 69.1182 56.5869 69.1481 56.7664 69.1062C56.946 69.0643 57.1021 68.9538 57.2014 68.7984C56.5759 68.0458 55.8833 67.2507 54.9328 67.0192C54.6067 66.9527 54.2744 66.9213 53.9416 66.9256C53.5017 66.9168 53.0476 66.9097 52.6412 67.0776C52.0882 67.3055 51.6995 67.8302 51.4999 68.3956C51.3253 68.9687 51.2319 69.5634 51.2225 70.1624C51.1863 70.5621 51.1863 70.9642 51.2225 71.3638C51.2908 71.9096 51.4935 72.4299 51.8126 72.878C51.8557 72.9476 51.9167 73.0043 51.9893 73.0423C52.7949 73.3957 51.9963 71.4221 52.0617 71.2755Z" fill="#3F3D56"/>
<path d="M57.1103 68.3607C57.0131 67.5285 56.4195 66.8413 55.7888 66.2882C55.2804 65.8087 54.6748 65.4442 54.0131 65.2193C53.347 65.0232 52.5802 65.0656 52.0095 65.4631C51.5502 65.7829 51.2587 66.2918 51.0343 66.8042C50.7395 67.4088 50.5935 68.0751 50.6085 68.7476C50.6526 69.4155 50.9777 70.0922 51.5572 70.4296C51.7657 70.1222 52.1279 69.9632 52.476 69.8378C53.993 69.2622 55.54 68.7691 57.1103 68.3607Z" fill="#FED253"/>
<path opacity="0.1" d="M51.7508 68.0157C51.8073 68.0157 51.8444 68.074 51.8727 68.1217C52.0165 68.3459 52.1401 68.5824 52.2419 68.8284C52.0352 68.8726 51.6801 68.9221 51.5776 68.7401C51.5228 68.6482 51.5882 68.0069 51.7508 68.0157Z" fill="black"/>
<path opacity="0.1" d="M55.7776 67.6166C55.7352 67.6572 55.6857 67.5742 55.6857 67.5141V66.8286C55.6846 66.8095 55.6889 66.7905 55.6981 66.7738C55.7054 66.7654 55.7144 66.7586 55.7244 66.7538C55.7344 66.7489 55.7453 66.7461 55.7564 66.7455C55.8995 66.7296 56.0179 66.8516 56.1098 66.9682C56.2492 67.1571 56.3705 67.3589 56.472 67.5706L55.7246 67.5477" fill="black"/>
<path d="M65.1054 78.9674C65.268 78.8131 65.4416 78.6708 65.6249 78.5416C66.1143 78.2147 66.7062 78.0858 67.2556 77.8773C67.8051 77.6688 68.3634 77.3313 68.5772 76.7836C68.6842 76.4411 68.7191 76.0802 68.6797 75.7235C68.6848 75.5742 68.6583 75.4255 68.6019 75.2871C68.5347 75.1649 68.4389 75.0606 68.3228 74.9832C67.5772 74.432 66.5772 74.3878 65.6514 74.4444C63.6103 74.5709 61.6096 75.0704 59.7485 75.9179C59.65 75.9504 59.5638 76.012 59.5011 76.0946C59.4649 76.1711 59.4485 76.2556 59.4534 76.3402C59.4205 76.8612 59.4883 77.3837 59.653 77.879C59.8969 78.508 60.3986 79.0151 60.6089 79.6565C60.7043 79.9444 60.7361 80.2501 60.8191 80.5399C60.8873 80.8391 61.0642 81.1023 61.3156 81.2784C62.0135 81.6954 62.6725 81.1353 63.1566 80.7006L65.1054 78.9674Z" fill="#3F3D56"/>
<path d="M55.9661 81.4148L55.0703 79.4607C54.939 79.1899 54.8256 78.9107 54.7311 78.625C54.6286 78.284 54.5791 77.9306 54.4837 77.5879C54.1692 76.4465 53.3759 75.496 52.989 74.3776C52.9645 74.2766 52.9147 74.1835 52.8441 74.1072C52.7876 74.0673 52.7231 74.0403 52.655 74.028C52.5869 74.0158 52.517 74.0187 52.4501 74.0366C51.9095 74.1302 51.4872 74.5419 50.9925 74.7751C50.7628 74.8811 50.5155 74.9518 50.2858 75.0737C50.171 75.1281 50.0692 75.2066 49.9875 75.3038C49.9058 75.4011 49.846 75.5148 49.8123 75.6373C49.7575 75.9076 49.8918 76.1673 50.0049 76.4306C50.4854 77.5154 50.595 78.7274 50.6162 79.9147C50.6321 80.7133 50.5914 81.5702 50.1197 82.2116C49.2133 83.4484 49.7928 85.2646 50.1321 86.7611C50.1727 86.9378 50.2204 87.1286 50.2487 87.3159C50.2786 87.5503 50.2921 87.7864 50.2893 88.0226C50.2893 88.8159 50.2451 89.634 49.913 90.3531C50.2409 90.5275 50.6023 90.6299 50.9731 90.6534C51.999 90.7841 53.029 90.876 54.0632 90.929C54.3872 90.9595 54.714 90.9428 55.0332 90.8796C55.4123 90.7771 55.7465 90.5513 55.9829 90.2377C56.2194 89.9241 56.3446 89.5408 56.3389 89.1481C56.3954 89.6375 56.4996 90.1693 56.8548 90.5085C57.2099 90.8478 57.7276 90.899 58.2099 90.9255C59.5712 90.9977 60.9361 90.9593 62.2912 90.8107C62.3777 90.8067 62.4628 90.787 62.5421 90.7523C62.8036 90.6216 62.8178 90.2612 62.7966 89.9714C62.7577 89.429 62.717 88.8866 62.6517 88.3477C62.5962 88.0042 62.5679 87.6568 62.5669 87.3088C62.5938 86.9509 62.6529 86.5961 62.7435 86.2488C62.9803 85.1463 63.1676 84.0208 63.0881 82.8918C63.0567 82.6168 63.0454 82.3398 63.0545 82.0632C63.1004 81.4395 63.4291 80.8459 63.3672 80.2257C63.1905 78.4024 63.0474 76.5313 62.5386 74.7716C62.4467 74.4571 62.3301 74.1196 62.0563 73.9394C61.7029 73.7026 61.2064 73.8263 60.8018 73.6761C60.612 73.5878 60.4315 73.4807 60.263 73.3564C59.8968 73.1274 59.4771 72.9982 59.0456 72.9818C58.7205 72.9694 58.3583 73.0419 58.1622 73.3033C58.0714 73.4506 58.0113 73.6146 57.9855 73.7857C57.7293 74.8634 57.429 75.9288 57.1286 76.9942L56.8406 78.0154L56.0685 80.7575C55.9926 81.049 56.0438 81.1391 55.9661 81.4148Z" fill="#6C63FF"/>
<path d="M60.4822 70.7168L77.5726 88.6764V90.1994H69.9523L57.1094 73.4377" fill="#F1C0C0"/>
<path opacity="0.1" d="M60.4822 70.7168L77.5726 88.6764V90.1994H69.9523L57.1094 73.4377" fill="black"/>
<path opacity="0.1" d="M57.3815 73.2012L57.4362 73.2206L70.0619 88.6767H77.5726V90.1996H69.9523L57.1094 73.4379L57.3815 73.2012Z" fill="black"/>
<path d="M59.3483 73.5782C58.7299 73.8485 58.0426 74.1948 57.8571 74.845C57.8205 74.9591 57.8126 75.0805 57.8341 75.1984C57.8793 75.337 57.9655 75.4586 58.0813 75.5473C58.197 75.6359 58.3369 75.6874 58.4826 75.6948C58.7735 75.7019 59.0628 75.649 59.3324 75.5394L62.9808 74.3344C63.0798 74.3026 63.1929 74.2549 63.2176 74.1577C63.2239 74.0966 63.2116 74.035 63.1823 73.981C63.0692 73.7054 62.9579 73.1418 62.7211 72.9492C62.5268 72.7937 62.1416 72.8485 61.9066 72.852C61.002 72.8591 60.1522 73.2248 59.3483 73.5782Z" fill="#6C63FF"/>
<path d="M62.6014 74.4788C63.2161 74.477 63.8272 74.5718 64.4124 74.7597C65.0002 74.9506 65.5209 75.3063 65.9124 75.7845C66.0264 75.9182 66.1075 76.0767 66.1492 76.2474C66.1845 76.4241 66.7605 76.5301 66.6333 76.6502C67.0202 76.5884 66.9283 76.7704 67.3206 76.7668C67.7128 76.7633 68.1368 76.6626 68.3718 76.3499C68.5351 76.093 68.6078 75.7889 68.5785 75.4859C68.5837 75.2761 68.5439 75.0677 68.4619 74.8746C68.2853 74.5035 67.8789 74.3039 67.5043 74.1325L64.3488 72.689C64.1657 72.5917 63.9693 72.522 63.7658 72.4823C63.5945 72.4661 63.4219 72.4703 63.2516 72.4947L61.8223 72.659C62.1348 72.8613 62.3893 73.1415 62.5607 73.4721C62.732 73.8027 62.8142 74.1722 62.7993 74.5442" fill="#3F3D56"/>
</g>
<defs>
<clipPath id="clip0_5806_22321">
<rect width="208.098" height="128" fill="white"/>
</clipPath>
</defs>
</svg>
