<svg width="209" height="128" viewBox="0 0 209 128" fill="none" xmlns="http://www.w3.org/2000/svg">
	<path
		d="M124.379 52.8664C124.016 53.0559 123.647 53.2352 123.272 53.4044C122.93 53.5588 122.583 53.7039 122.231 53.8396C122.102 53.8887 121.971 53.9378 121.84 53.9869C120.805 54.3626 119.741 54.6559 118.659 54.8642C118.123 54.9695 117.58 55.0521 117.031 55.1122C116.577 55.1636 116.118 55.2003 115.655 55.2221C115.325 55.2385 114.995 55.2455 114.663 55.2455C113.348 55.2461 112.035 55.1231 110.742 54.8782C110.406 54.8174 110.076 54.7449 109.746 54.6654C108.15 54.283 106.606 53.7129 105.144 52.967C105.013 52.9015 104.882 52.8313 104.751 52.7635C104.557 52.6605 104.368 52.5529 104.178 52.4406C104.269 52.3143 104.368 52.1903 104.468 52.0687C105.563 50.7121 106.931 49.6014 108.484 48.809C110.036 48.0167 111.739 47.5603 113.479 47.4699C115.22 47.3794 116.96 47.6567 118.587 48.2838C120.213 48.911 121.689 49.8738 122.919 51.1095C123.345 51.5377 123.741 51.9959 124.103 52.4804C124.198 52.6067 124.29 52.7354 124.379 52.8664Z"
		fill="#2F4DCB"/>
	<path
		d="M115.13 42.591C120.803 42.591 125.402 37.992 125.402 32.3189C125.402 26.6458 120.803 22.0469 115.13 22.0469C109.457 22.0469 104.858 26.6458 104.858 32.3189C104.858 37.992 109.457 42.591 115.13 42.591Z"
		fill="#2F2E41"/>
	<path
		d="M117.862 42.605C121.567 40.5798 122.928 35.9345 120.903 32.2296C118.878 28.5247 114.233 27.1631 110.528 29.1884C106.823 31.2137 105.461 35.8589 107.486 39.5638C109.512 43.2687 114.157 44.6303 117.862 42.605Z"
		fill="#A0616A"/>
	<path
		d="M122.228 31.0862C120.481 32.2903 118.408 32.9311 116.286 32.9226C117.043 33.4474 117.904 33.8019 118.811 33.9617C115.99 34.5668 113.075 34.5832 110.247 34.0098C109.618 33.909 109.012 33.7007 108.454 33.394C108.176 33.2388 107.934 33.0268 107.743 32.7718C107.553 32.5168 107.418 32.2245 107.347 31.914C107.16 30.8406 107.996 29.8653 108.865 29.2081C110.196 28.2171 111.731 27.5344 113.358 27.2092C114.985 26.8841 116.664 26.9247 118.273 27.3281C119.324 27.5997 120.377 28.0587 121.06 28.9027C121.742 29.7467 121.945 31.0478 121.294 31.9169L122.228 31.0862Z"
		fill="#2F2E41"/>
	<path
		d="M114.663 13.1367C110.071 13.136 105.605 14.6367 101.946 17.4099C98.2863 20.1831 95.6337 24.0767 94.3926 28.4975C93.1514 32.9182 93.3896 37.6235 95.071 41.8962C96.7523 46.169 99.7846 49.7748 103.706 52.1642L103.841 52.2437C103.954 52.3116 104.066 52.3771 104.178 52.4402C104.368 52.5525 104.557 52.6601 104.751 52.7631C104.882 52.8309 105.013 52.9011 105.144 52.9666C106.606 53.7125 108.15 54.2826 109.746 54.665C110.076 54.7445 110.405 54.817 110.742 54.8779C112.035 55.1227 113.348 55.2457 114.663 55.2451C114.995 55.2451 115.325 55.2381 115.655 55.2217C116.118 55.2007 116.577 55.164 117.031 55.1118C117.58 55.051 118.123 54.9683 118.659 54.8638C119.741 54.6555 120.805 54.3622 121.84 53.9866C121.971 53.9374 122.102 53.8883 122.231 53.8392C122.584 53.7035 122.931 53.5585 123.272 53.4041C123.646 53.2356 124.015 53.0563 124.379 52.866C128.02 50.9588 131.03 48.0357 133.043 44.4513C133.053 44.4326 133.065 44.4139 133.074 44.3952C134.148 42.4679 134.91 40.3827 135.331 38.217C135.923 35.1682 135.833 32.0263 135.069 29.0162C134.304 26.0061 132.883 23.2023 130.908 20.8056C128.933 18.4089 126.453 16.4785 123.644 15.1527C120.836 13.8269 117.769 13.1385 114.663 13.1367H114.663ZM132.69 44.1215C132.671 44.1542 132.655 44.187 132.636 44.2174C130.663 47.7488 127.696 50.6222 124.102 52.48C123.744 52.6672 123.38 52.8426 123.01 53.0064C122.703 53.1444 122.39 53.2754 122.074 53.397C121.941 53.4485 121.805 53.5 121.669 53.5468C120.775 53.8736 119.858 54.1363 118.925 54.3328C118.234 54.48 117.535 54.5901 116.832 54.6626C116.399 54.7094 115.959 54.7422 115.517 54.7586C115.234 54.7702 114.949 54.7773 114.663 54.7773C113.39 54.7788 112.12 54.6605 110.869 54.424C110.108 54.2837 109.355 54.0993 108.616 53.8719C107.489 53.5238 106.394 53.0801 105.343 52.5455C105.221 52.4824 105.1 52.4192 104.98 52.3537C104.81 52.2625 104.637 52.1689 104.468 52.0683C104.342 51.9981 104.215 51.9233 104.092 51.8484C104.019 51.8063 103.946 51.7618 103.874 51.7174C100.436 49.6062 97.6939 46.5321 95.9873 42.8766C94.2807 39.221 93.6849 35.1449 94.2738 31.1538C94.8627 27.1628 96.6104 23.4324 99.3001 20.4256C101.99 17.4187 105.503 15.2677 109.404 14.2394C113.305 13.2111 117.422 13.3508 121.245 14.641C125.067 15.9313 128.426 18.3154 130.906 21.4976C133.386 24.6798 134.877 28.52 135.194 32.5418C135.511 36.5636 134.641 40.59 132.69 44.1215H132.69Z"
		fill="#3F3D56"/>
	<path
		d="M109.928 22.1866C109.817 21.0244 108.394 20.3089 107.28 20.66C106.167 21.011 105.436 22.1321 105.215 23.2784C105.109 23.7612 105.099 24.2602 105.185 24.7468C105.272 25.2335 105.455 25.6982 105.721 26.1143C106.284 26.9242 107.318 27.4297 108.283 27.2241C109.384 26.9894 110.147 25.9141 110.365 24.8096C110.584 23.7051 110.367 22.5663 110.15 21.4614L109.928 22.1866Z"
		fill="#2F2E41"/>
	<path
		d="M125.598 23.8467C125.487 22.6845 124.064 21.9691 122.95 22.3201C121.837 22.6712 121.106 23.7922 120.885 24.9386C120.778 25.4213 120.768 25.9204 120.855 26.407C120.942 26.8936 121.124 27.3583 121.391 27.7744C121.954 28.5844 122.988 29.0898 123.953 28.8842C125.054 28.6495 125.817 27.5743 126.035 26.4698C126.254 25.3652 126.037 24.2265 125.82 23.1216L125.598 23.8467Z"
		fill="#2F2E41"/>
	<path
		d="M78.2711 42.6058C78.1254 42.6056 77.9814 42.5751 77.8482 42.5161C77.715 42.4571 77.5956 42.371 77.4976 42.2632L65.8892 29.5995C65.7574 29.4561 65.5974 29.3416 65.4192 29.2632C65.241 29.1848 65.0484 29.1442 64.8537 29.1439H3.5112C2.5803 29.1429 1.68781 28.7726 1.02956 28.1144C0.371309 27.4561 0.00104517 26.5636 0 25.6327V3.5112C0.00104455 2.5803 0.371309 1.68781 1.02956 1.02956C1.68781 0.371309 2.5803 0.00104455 3.5112 0H82.985C83.916 0.00104332 84.8084 0.371309 85.4667 1.02956C86.1249 1.68781 86.4952 2.58029 86.4962 3.5112V25.6327C86.4952 26.5637 86.1249 27.4561 85.4667 28.1144C84.8084 28.7726 83.9159 29.1429 82.985 29.1439H80.7319C80.3595 29.1444 80.0024 29.2925 79.7391 29.5559C79.4758 29.8192 79.3276 30.1763 79.3272 30.5487V41.5514C79.3281 41.7639 79.2644 41.9715 79.1445 42.1468C79.0245 42.3222 78.8541 42.4568 78.6558 42.533C78.5332 42.581 78.4027 42.6056 78.2711 42.6058Z"
		fill="white"/>
	<path
		d="M78.2711 42.6058C78.1254 42.6056 77.9814 42.5751 77.8482 42.5161C77.715 42.4571 77.5956 42.371 77.4976 42.2632L65.8892 29.5995C65.7574 29.4561 65.5974 29.3416 65.4192 29.2632C65.241 29.1848 65.0484 29.1442 64.8537 29.1439H3.5112C2.5803 29.1429 1.68781 28.7726 1.02956 28.1144C0.371309 27.4561 0.00104517 26.5636 0 25.6327V3.5112C0.00104455 2.5803 0.371309 1.68781 1.02956 1.02956C1.68781 0.371309 2.5803 0.00104455 3.5112 0H82.985C83.916 0.00104332 84.8084 0.371309 85.4667 1.02956C86.1249 1.68781 86.4952 2.58029 86.4962 3.5112V25.6327C86.4952 26.5637 86.1249 27.4561 85.4667 28.1144C84.8084 28.7726 83.9159 29.1429 82.985 29.1439H80.7319C80.3595 29.1444 80.0024 29.2925 79.7391 29.5559C79.4758 29.8192 79.3276 30.1763 79.3272 30.5487V41.5514C79.3281 41.7639 79.2644 41.9715 79.1445 42.1468C79.0245 42.3222 78.8541 42.4568 78.6558 42.533C78.5332 42.581 78.4027 42.6056 78.2711 42.6058ZM3.5112 0.467871C2.70434 0.468783 1.93079 0.789712 1.36025 1.36025C0.789709 1.93079 0.468782 2.70434 0.467871 3.5112V25.6327C0.468783 26.4396 0.789712 27.2132 1.36025 27.7837C1.93079 28.3542 2.70434 28.6752 3.5112 28.6761H64.8537C65.1133 28.6764 65.3699 28.7305 65.6075 28.835C65.8451 28.9395 66.0584 29.0922 66.234 29.2833L77.8424 41.947C77.9221 42.034 78.0262 42.0948 78.1411 42.1215C78.256 42.1483 78.3762 42.1398 78.4862 42.097C78.5961 42.0542 78.6905 41.9793 78.7571 41.8819C78.8237 41.7846 78.8593 41.6694 78.8594 41.5514V30.5487C78.8599 30.0522 79.0574 29.5762 79.4084 29.2252C79.7595 28.8741 80.2355 28.6766 80.7319 28.6761H82.985C83.7919 28.6752 84.5654 28.3542 85.136 27.7837C85.7065 27.2132 86.0275 26.4396 86.0284 25.6327V3.5112C86.0275 2.70434 85.7065 1.93079 85.136 1.36025C84.5655 0.789712 83.7919 0.468783 82.985 0.467871H3.5112Z"
		fill="#3F3D56"/>
	<path
		d="M8.61248 9.75817C10.3093 9.75817 11.6849 8.38259 11.6849 6.68572C11.6849 4.98886 10.3093 3.61328 8.61248 3.61328C6.91562 3.61328 5.54004 4.98886 5.54004 6.68572C5.54004 8.38259 6.91562 9.75817 8.61248 9.75817Z"
		fill="#494C58"/>
	<path
		d="M79.4005 23.6874H7.09567C6.88032 23.6877 6.66703 23.6455 6.46799 23.5633C6.26896 23.481 6.08809 23.3604 5.93572 23.2082C5.78335 23.056 5.66247 22.8753 5.58 22.6763C5.49753 22.4774 5.45508 22.2641 5.45508 22.0488C5.45508 21.8334 5.49753 21.6202 5.58 21.4213C5.66247 21.2223 5.78335 21.0416 5.93572 20.8894C6.08809 20.7372 6.26896 20.6166 6.46799 20.5343C6.66703 20.4521 6.88032 20.4099 7.09567 20.4102H79.4005C79.8347 20.4107 80.251 20.5835 80.5579 20.8908C80.8648 21.198 81.0372 21.6145 81.0372 22.0488C81.0372 22.483 80.8648 22.8995 80.5579 23.2068C80.251 23.514 79.8347 23.6869 79.4005 23.6874Z"
		fill="#E6E6E6"/>
	<path
		d="M55.8451 16.7226H7.09567C6.88032 16.7228 6.66703 16.6806 6.46799 16.5984C6.26896 16.5162 6.08809 16.3955 5.93572 16.2433C5.78335 16.0911 5.66247 15.9104 5.58 15.7115C5.49753 15.5125 5.45508 15.2993 5.45508 15.084C5.45508 14.8686 5.49753 14.6554 5.58 14.4564C5.66247 14.2575 5.78335 14.0768 5.93572 13.9246C6.08809 13.7724 6.26896 13.6517 6.46799 13.5695C6.66703 13.4873 6.88032 13.4451 7.09567 13.4453H55.8451C56.2797 13.4453 56.6965 13.618 57.0038 13.9253C57.3111 14.2326 57.4837 14.6494 57.4837 15.084C57.4837 15.5185 57.3111 15.9353 57.0038 16.2426C56.6965 16.5499 56.2797 16.7226 55.8451 16.7226Z"
		fill="#E6E6E6"/>
	<path
		d="M129.85 117.627C129.651 117.551 129.481 117.416 129.361 117.241C129.241 117.065 129.177 116.858 129.178 116.645V105.642C129.178 105.27 129.03 104.913 128.766 104.65C128.503 104.386 128.146 104.238 127.774 104.238H125.52C124.59 104.237 123.697 103.866 123.039 103.208C122.381 102.55 122.01 101.657 122.009 100.726V78.605C122.01 77.674 122.381 76.7816 123.039 76.1233C123.697 75.4651 124.59 75.0948 125.52 75.0938H204.994C205.925 75.0948 206.818 75.4651 207.476 76.1233C208.134 76.7816 208.504 77.674 208.506 78.605V100.726C208.504 101.657 208.134 102.55 207.476 103.208C206.818 103.866 205.925 104.237 204.994 104.238H143.652C143.457 104.238 143.265 104.279 143.086 104.357C142.908 104.435 142.748 104.55 142.616 104.693L131.008 117.357C130.91 117.465 130.791 117.551 130.657 117.61C130.524 117.669 130.38 117.699 130.234 117.699C130.103 117.699 129.972 117.675 129.85 117.627Z"
		fill="white"/>
	<path
		d="M129.85 117.627C129.651 117.551 129.481 117.416 129.361 117.241C129.241 117.065 129.177 116.858 129.178 116.645V105.642C129.178 105.27 129.03 104.913 128.766 104.65C128.503 104.386 128.146 104.238 127.774 104.238H125.52C124.59 104.237 123.697 103.866 123.039 103.208C122.381 102.55 122.01 101.657 122.009 100.726V78.605C122.01 77.674 122.381 76.7816 123.039 76.1233C123.697 75.4651 124.59 75.0948 125.52 75.0938H204.994C205.925 75.0948 206.818 75.4651 207.476 76.1233C208.134 76.7816 208.504 77.674 208.506 78.605V100.726C208.504 101.657 208.134 102.55 207.476 103.208C206.818 103.866 205.925 104.237 204.994 104.238H143.652C143.457 104.238 143.265 104.279 143.086 104.357C142.908 104.435 142.748 104.55 142.616 104.693L131.008 117.357C130.91 117.465 130.791 117.551 130.657 117.61C130.524 117.669 130.38 117.699 130.234 117.699C130.103 117.699 129.972 117.675 129.85 117.627ZM125.52 75.5616C124.714 75.5625 123.94 75.8835 123.37 76.454C122.799 77.0245 122.478 77.7981 122.477 78.605V100.726C122.478 101.533 122.799 102.307 123.37 102.877C123.94 103.448 124.714 103.769 125.52 103.77H127.774C128.27 103.77 128.746 103.968 129.097 104.319C129.448 104.67 129.646 105.146 129.646 105.642V116.645C129.646 116.763 129.682 116.878 129.748 116.976C129.815 117.073 129.909 117.148 130.019 117.191C130.129 117.234 130.25 117.242 130.364 117.215C130.479 117.189 130.583 117.128 130.663 117.041L142.271 104.377C142.447 104.186 142.66 104.033 142.898 103.929C143.136 103.824 143.392 103.77 143.652 103.77H204.994C205.801 103.769 206.575 103.448 207.145 102.877C207.716 102.307 208.037 101.533 208.038 100.726V78.605C208.037 77.7981 207.716 77.0245 207.145 76.454C206.575 75.8835 205.801 75.5625 204.994 75.5616H125.52Z"
		fill="#3F3D56"/>
	<path
		d="M105.079 124.476C101.819 126.563 98.0435 127.701 94.174 127.763C90.3045 127.825 86.4943 126.807 83.1704 124.825C83.7551 123.737 84.496 122.74 85.3695 121.866C86.7172 120.512 88.3574 119.484 90.1641 118.863C91.9708 118.242 93.8959 118.043 95.7915 118.282C97.687 118.52 99.5026 119.19 101.099 120.24C102.695 121.29 104.029 122.692 104.999 124.338C105.025 124.383 105.053 124.43 105.079 124.476Z"
		fill="#2F4DCB"/>
	<path
		d="M93.21 113.29C98.9208 113.29 103.55 108.66 103.55 102.95C103.55 97.2389 98.9208 92.6094 93.21 92.6094C87.4991 92.6094 82.8696 97.2389 82.8696 102.95C82.8696 108.66 87.4991 113.29 93.21 113.29Z"
		fill="#2F2E41"/>
	<path
		d="M100.904 110.243C102.943 106.514 101.572 101.838 97.8429 99.7989C94.1134 97.7602 89.4372 99.1308 87.3985 102.86C85.3598 106.59 86.7304 111.266 90.46 113.305C94.1895 115.343 98.8656 113.973 100.904 110.243Z"
		fill="#FFB8B8"/>
	<path
		d="M86.0645 101.711C87.8231 102.923 89.9105 103.568 92.0464 103.56C91.2845 104.088 90.4171 104.445 89.5041 104.606C92.3439 105.215 95.2789 105.231 98.1254 104.654C98.7581 104.553 99.3686 104.343 99.9302 104.034C100.21 103.878 100.454 103.665 100.646 103.408C100.838 103.151 100.973 102.857 101.044 102.544C101.233 101.464 100.391 100.482 99.5163 99.8205C98.1766 98.8229 96.6319 98.1356 94.994 97.8083C93.356 97.481 91.6658 97.5219 90.0457 97.928C88.9877 98.2014 87.9279 98.6635 87.2408 99.5131C86.5536 100.363 86.3501 101.672 87.0048 102.547L86.0645 101.711Z"
		fill="#2F2E41"/>
	<path
		d="M93.8424 128.002C88.7783 128 83.8845 126.173 80.0588 122.855C76.233 119.537 73.7318 114.951 73.0139 109.938C72.296 104.925 73.4096 99.8209 76.1504 95.5625C78.8912 91.3042 83.0755 88.1768 87.9356 86.754C92.7958 85.3312 98.006 85.7085 102.61 87.8165C107.215 89.9246 110.905 93.6221 113.004 98.2308C115.103 102.84 115.47 108.05 114.037 112.908C112.604 117.765 109.469 121.943 105.205 124.675C101.814 126.85 97.8703 128.004 93.8424 128.002ZM93.8424 86.3611C89.7703 86.3607 85.7895 87.5679 82.4035 89.83C79.0175 92.0921 76.3783 95.3076 74.8198 99.0697C73.2613 102.832 72.8534 106.972 73.6477 110.965C74.4421 114.959 76.4029 118.628 79.2824 121.507C82.1618 124.387 85.8305 126.348 89.8244 127.142C93.8183 127.936 97.9581 127.529 101.72 125.97C105.482 124.412 108.698 121.772 110.96 118.386C113.222 115 114.429 111.02 114.429 106.947C114.423 101.489 112.252 96.2568 108.392 92.3975C104.533 88.5381 99.3004 86.3672 93.8424 86.3611Z"
		fill="#3F3D56"/>
	<path
		d="M131.897 84.6175C133.594 84.6175 134.969 83.242 134.969 81.5451C134.969 79.8482 133.594 78.4727 131.897 78.4727C130.2 78.4727 128.824 79.8482 128.824 81.5451C128.824 83.242 130.2 84.6175 131.897 84.6175Z"
		fill="#494C58"/>
	<path
		d="M202.685 98.5468H130.38C130.164 98.5471 129.951 98.5049 129.752 98.4226C129.553 98.3404 129.372 98.2197 129.22 98.0676C129.068 97.9154 128.947 97.7346 128.864 97.5357C128.782 97.3368 128.739 97.1235 128.739 96.9082C128.739 96.6928 128.782 96.4796 128.864 96.2806C128.947 96.0817 129.068 95.901 129.22 95.7488C129.372 95.5966 129.553 95.4759 129.752 95.3937C129.951 95.3115 130.164 95.2693 130.38 95.2695H202.685C203.119 95.2695 203.536 95.4422 203.843 95.7495C204.151 96.0568 204.323 96.4736 204.323 96.9082C204.323 97.3428 204.151 97.7595 203.843 98.0669C203.536 98.3742 203.119 98.5468 202.685 98.5468Z"
		fill="#E6E6E6"/>
	<path
		d="M179.129 91.582H130.38C130.164 91.5822 129.951 91.54 129.752 91.4578C129.553 91.3756 129.372 91.2549 129.22 91.1027C129.068 90.9505 128.947 90.7698 128.864 90.5709C128.782 90.3719 128.739 90.1587 128.739 89.9433C128.739 89.728 128.782 89.5147 128.864 89.3158C128.947 89.1169 129.068 88.9361 129.22 88.7839C129.372 88.6318 129.553 88.5111 129.752 88.4289C129.951 88.3466 130.164 88.3044 130.38 88.3047H179.129C179.564 88.3052 179.98 88.4781 180.287 88.7853C180.594 89.0926 180.766 89.5091 180.766 89.9433C180.766 90.3776 180.594 90.7941 180.287 91.1013C179.98 91.4086 179.564 91.5815 179.129 91.582Z"
		fill="#E6E6E6"/>
	<path
		d="M129.751 119.722C132.917 119.722 135.483 119.437 135.483 119.085C135.483 118.734 132.917 118.449 129.751 118.449C126.585 118.449 124.019 118.734 124.019 119.085C124.019 119.437 126.585 119.722 129.751 119.722Z"
		fill="#F2F2F2"/>
	<path
		d="M78.519 44.8623C81.6849 44.8623 84.2513 44.5774 84.2513 44.2261C84.2513 43.8747 81.6849 43.5898 78.519 43.5898C75.3531 43.5898 72.7866 43.8747 72.7866 44.2261C72.7866 44.5774 75.3531 44.8623 78.519 44.8623Z"
		fill="#F2F2F2"/>
</svg>
