<svg width="66" height="64" viewBox="0 0 66 64" fill="none" xmlns="http://www.w3.org/2000/svg">
	<g clip-path="url(#clip0_3651_15763)">
		<path
			d="M41.6236 14.3939H23.9565C23.5539 14.3944 23.168 14.5546 22.8833 14.8392C22.5986 15.1239 22.4385 15.5099 22.438 15.9125V55.1776L22.2355 55.2394L17.9015 56.5666C17.6961 56.6293 17.4742 56.6078 17.2846 56.507C17.095 56.4062 16.9531 56.2343 16.8902 56.029L3.99847 13.9191C3.93574 13.7137 3.95712 13.4918 4.05792 13.3021C4.15873 13.1125 4.3307 12.9706 4.53605 12.9077L11.2147 10.8627L30.5765 4.93626L37.2551 2.89125C37.3568 2.85997 37.4636 2.84904 37.5695 2.85909C37.6753 2.86913 37.7782 2.89995 37.8721 2.94979C37.9661 2.99963 38.0493 3.0675 38.1169 3.14953C38.1846 3.23155 38.2355 3.32612 38.2665 3.42781L41.5618 14.1914L41.6236 14.3939Z"
			fill="#F2F2F2"/>
		<path
			d="M45.4788 14.1901L41.5072 1.21746C41.4411 1.00131 41.3331 0.800298 41.1893 0.625914C41.0455 0.451529 40.8688 0.307187 40.6692 0.201136C40.4696 0.095085 40.251 0.0294022 40.0261 0.00784372C39.8011 -0.0137148 39.574 0.00927339 39.3579 0.0754922L29.9681 2.94964L10.6074 8.87712L1.21756 11.7523C0.781353 11.8862 0.416116 12.1878 0.202012 12.5907C-0.0120926 12.9937 -0.0575714 13.4651 0.0755599 13.9016L13.6496 58.2367C13.7577 58.589 13.9759 58.8974 14.2722 59.1166C14.5685 59.3358 14.9272 59.4542 15.2957 59.4546C15.4663 59.4547 15.6359 59.4291 15.7988 59.3787L22.2356 57.4086L22.438 57.3458V57.1342L22.2356 57.196L15.7391 59.1853C15.3541 59.3027 14.9382 59.2625 14.5828 59.0737C14.2273 58.8849 13.9612 58.5627 13.8429 58.178L0.269978 13.8418C0.211371 13.6512 0.190944 13.4509 0.209868 13.2523C0.228792 13.0538 0.286693 12.8609 0.380259 12.6848C0.473826 12.5086 0.601219 12.3527 0.755141 12.2259C0.909063 12.099 1.08649 12.0038 1.27727 11.9456L10.6671 9.07049L30.0279 3.14402L39.4177 0.268859C39.5624 0.224699 39.7128 0.202182 39.8641 0.202041C40.1888 0.20277 40.5047 0.307446 40.7656 0.500736C41.0265 0.694026 41.2186 0.965774 41.3139 1.27618L45.2672 14.1901L45.33 14.3926H45.5406L45.4788 14.1901Z"
			fill="#3F3D56"/>
		<path
			d="M12.4199 12.9408C12.2248 12.9406 12.0349 12.878 11.878 12.762C11.7211 12.646 11.6055 12.4827 11.5481 12.2962L10.2442 8.03696C10.2091 7.92255 10.197 7.80236 10.2084 7.68325C10.2198 7.56413 10.2546 7.44844 10.3107 7.34277C10.3668 7.2371 10.4432 7.14352 10.5355 7.06738C10.6279 6.99124 10.7343 6.93403 10.8487 6.89902L28.6604 1.44596C28.8915 1.37545 29.141 1.3995 29.3544 1.51282C29.5677 1.62615 29.7274 1.81949 29.7984 2.05042L31.1024 6.30973C31.1728 6.5408 31.1488 6.79038 31.0354 7.00372C30.9221 7.21706 30.7288 7.37674 30.4979 7.44772L12.6861 12.9008C12.5999 12.9273 12.5102 12.9407 12.4199 12.9408Z"
			fill="#494C58"/>
		<path
			d="M19.2507 4.55147C20.369 4.55147 21.2755 3.64496 21.2755 2.52671C21.2755 1.40847 20.369 0.501953 19.2507 0.501953C18.1325 0.501953 17.226 1.40847 17.226 2.52671C17.226 3.64496 18.1325 4.55147 19.2507 4.55147Z"
			fill="#494C58"/>
		<path
			d="M19.2508 3.80842C19.9589 3.80842 20.5329 3.23439 20.5329 2.52628C20.5329 1.81817 19.9589 1.24414 19.2508 1.24414C18.5427 1.24414 17.9686 1.81817 17.9686 2.52628C17.9686 3.23439 18.5427 3.80842 19.2508 3.80842Z"
			fill="white"/>
		<path
			d="M61.0097 58.9373H26.7913C26.5632 58.937 26.3444 58.8463 26.1831 58.6849C26.0218 58.5236 25.931 58.3049 25.9308 58.0767V17.0754C25.931 16.8472 26.0218 16.6285 26.1831 16.4672C26.3444 16.3058 26.5632 16.2151 26.7913 16.2148H61.0097C61.2379 16.2151 61.4566 16.3059 61.6179 16.4672C61.7793 16.6285 61.87 16.8472 61.8703 17.0754V58.0767C61.87 58.3049 61.7793 58.5236 61.6179 58.6849C61.4566 58.8463 61.2379 58.937 61.0097 58.9373Z"
			fill="#E6E6E6"/>
		<path
			d="M45.2671 14.1914H23.9565C23.5003 14.1921 23.0629 14.3736 22.7403 14.6962C22.4177 15.0188 22.2361 15.4562 22.2355 15.9125V57.1973L22.4379 57.1355V15.9125C22.4384 15.5099 22.5986 15.1239 22.8833 14.8392C23.168 14.5545 23.5539 14.3944 23.9565 14.3939H45.3299L45.2671 14.1914ZM63.8443 14.1914H23.9565C23.5003 14.1921 23.0629 14.3736 22.7403 14.6962C22.4177 15.0188 22.2361 15.4562 22.2355 15.9125V62.2794C22.2361 62.7357 22.4177 63.1731 22.7403 63.4957C23.0629 63.8183 23.5003 63.9998 23.9565 64.0005H63.8443C64.3005 63.9998 64.7379 63.8183 65.0605 63.4957C65.3832 63.1731 65.5647 62.7357 65.5653 62.2794V15.9125C65.5647 15.4562 65.3832 15.0188 65.0605 14.6962C64.7379 14.3736 64.3005 14.1921 63.8443 14.1914ZM65.3629 62.2794C65.3624 62.682 65.2022 63.068 64.9175 63.3527C64.6329 63.6374 64.2469 63.7975 63.8443 63.798H23.9565C23.5539 63.7975 23.168 63.6374 22.8833 63.3527C22.5986 63.068 22.4384 62.682 22.4379 62.2794V15.9125C22.4384 15.5099 22.5986 15.1239 22.8833 14.8392C23.168 14.5545 23.5539 14.3944 23.9565 14.3939H63.8443C64.2469 14.3944 64.6329 14.5545 64.9175 14.8392C65.2022 15.1239 65.3624 15.5099 65.3629 15.9125V62.2794Z"
			fill="#3F3D56"/>
		<path
			d="M53.2143 18.6459H34.5866C34.345 18.6456 34.1134 18.5495 33.9426 18.3787C33.7718 18.2079 33.6757 17.9763 33.6754 17.7348V13.2803C33.6757 13.0387 33.7718 12.8071 33.9426 12.6363C34.1134 12.4655 34.345 12.3694 34.5866 12.3691H53.2143C53.4559 12.3694 53.6875 12.4655 53.8583 12.6363C54.0291 12.8071 54.1252 13.0387 54.1255 13.2803V17.7348C54.1252 17.9763 54.0291 18.2079 53.8583 18.3787C53.6875 18.5495 53.4559 18.6456 53.2143 18.6459Z"
			fill="#494C58"/>
		<path
			d="M43.9005 12.6726C45.0187 12.6726 45.9253 11.7661 45.9253 10.6478C45.9253 9.52956 45.0187 8.62305 43.9005 8.62305C42.7822 8.62305 41.8757 9.52956 41.8757 10.6478C41.8757 11.7661 42.7822 12.6726 43.9005 12.6726Z"
			fill="#494C58"/>
		<path
			d="M43.9005 11.8806C44.5816 11.8806 45.1338 11.3284 45.1338 10.6473C45.1338 9.96622 44.5816 9.41406 43.9005 9.41406C43.2194 9.41406 42.6672 9.96622 42.6672 10.6473C42.6672 11.3284 43.2194 11.8806 43.9005 11.8806Z"
			fill="white"/>
	</g>
	<defs>
		<clipPath id="clip0_3651_15763">
			<rect width="65.5654" height="64" fill="white"/>
		</clipPath>
	</defs>
</svg>
