<svg width="122" height="64" viewBox="0 0 122 64" fill="none" xmlns="http://www.w3.org/2000/svg">
<g clip-path="url(#clip0_3657_15819)">
<path d="M121.624 46.6514C120.986 50.7094 119.007 54.6483 115.743 57.1408C112.531 59.5957 108.415 60.4679 104.441 61.2177C99.6757 62.1181 94.8971 62.9411 90.1054 63.6867C89.4262 63.795 88.7465 63.8995 88.0662 64.0005H60.1571C60.1288 63.9628 60.099 63.9236 60.0708 63.8844C60.0254 63.8185 59.9799 63.7526 59.9359 63.6867C59.9108 63.6491 59.8857 63.6099 59.8606 63.5707H77.3666C77.8633 63.5702 78.3396 63.3728 78.691 63.0217C79.0424 62.6706 79.2402 62.1945 79.2411 61.6977V38.3313C79.354 37.9768 79.4591 37.6208 79.5548 37.26C80.0013 35.58 80.2916 33.8624 80.4223 32.129C80.5164 30.9211 80.5446 29.7133 80.5242 28.5039C80.4662 25.1799 80.0317 21.856 79.5595 18.5556C79.525 18.3125 79.489 18.0677 79.4544 17.8246C79.1219 15.5313 78.8192 13.0356 79.9752 11.0262C81.2976 8.72654 84.2325 7.7681 86.8756 8.00339C91.6302 8.42849 95.6349 12.0693 97.7164 16.3658C99.7965 20.6607 100.262 25.5454 100.452 30.3141C100.553 32.8427 100.542 35.4843 100.189 38.0208C101.381 35.2945 102.574 32.5682 103.768 29.8419C104.405 28.3878 105.075 26.8866 106.255 25.8231C108.72 23.5972 112.799 24.0458 115.433 26.0725C118.065 28.1007 119.508 31.3054 120.468 34.4851C121.657 38.4176 122.264 42.5933 121.624 46.6514Z" fill="#F2F2F2"/>
<path d="M111.106 24.609C112.83 27.6628 113.621 31.1646 113.602 34.6591C113.576 38.1238 112.809 41.5428 111.354 44.6873C110.038 47.5266 108.205 50.0959 105.948 52.2636C103.72 54.4265 101.077 56.1149 98.1782 57.2268C94.8144 58.4875 91.1763 58.8332 87.6352 58.2286C87.1433 58.1441 86.655 58.0416 86.1704 57.9212C85.8763 57.8488 85.7509 58.3024 86.0453 58.375C89.73 59.2883 93.5943 59.1772 97.2205 58.0536C100.241 57.0819 103.028 55.4965 105.406 53.3969C107.814 51.2915 109.806 48.7528 111.277 45.9126C112.887 42.803 113.826 39.3902 114.034 35.8948C114.239 32.3478 113.645 28.7377 112.111 25.5202C111.925 25.1303 111.725 24.7474 111.512 24.3715C111.48 24.3198 111.428 24.2829 111.369 24.2684C111.31 24.254 111.247 24.2631 111.194 24.2939C111.142 24.3247 111.103 24.3748 111.087 24.4336C111.07 24.4923 111.077 24.5552 111.106 24.609H111.106Z" fill="white"/>
<path d="M86.1318 7.93995C88.0437 11.4642 89.5336 15.2015 90.5707 19.0745C92.6468 26.8316 92.9594 34.9551 91.4855 42.8487C90.7499 46.7926 89.5499 50.6355 87.9108 54.2973C86.2765 57.9283 83.9234 61.754 79.9042 63.0253C79.4506 63.1681 78.9857 63.272 78.5144 63.336C78.2157 63.3769 78.3429 63.8304 78.6395 63.7897C82.7972 63.2191 85.6861 59.765 87.4979 56.2441C89.3726 52.6009 90.7075 48.6447 91.5953 44.6505C93.3546 36.6806 93.2913 28.4164 91.4102 20.4745C90.4756 16.518 89.0789 12.6853 87.2487 9.05531C87.0188 8.60072 86.7819 8.14976 86.5381 7.70244C86.3934 7.43631 85.9869 7.67358 86.1318 7.93995V7.93995Z" fill="white"/>
<path d="M66.4536 7.25586H38.2809C37.7091 7.2566 37.1609 7.48407 36.7566 7.88841C36.3522 8.29274 36.1248 8.84092 36.124 9.41273V23.5289H40.4597C40.7769 23.528 41.0889 23.6081 41.3665 23.7615C41.644 23.915 41.8777 24.1367 42.0456 24.4057L43.5484 26.7979L44.9853 29.0834L45.255 29.5132L46.899 32.1281L46.9178 32.1579H68.6104V9.41272C68.6097 8.84091 68.3822 8.29274 67.9779 7.88841C67.5735 7.48408 67.0254 7.2566 66.4536 7.25586Z" fill="#CCCCCC"/>
<path d="M55.2865 11.5723H41.3272C40.9571 11.5723 40.6022 11.7193 40.3406 11.9809C40.0789 12.2426 39.9319 12.5975 39.9319 12.9676C39.9319 13.3376 40.0789 13.6925 40.3406 13.9542C40.6022 14.2159 40.9571 14.3629 41.3272 14.3629H55.2865C55.6565 14.3629 56.0115 14.2159 56.2731 13.9542C56.5348 13.6925 56.6818 13.3376 56.6818 12.9676C56.6818 12.5975 56.5348 12.2426 56.2731 11.9809C56.0115 11.7193 55.6565 11.5723 55.2865 11.5723Z" fill="white"/>
<path d="M63.0277 18.4238H41.4543C41.0503 18.4238 40.6629 18.5843 40.3773 18.8699C40.0916 19.1556 39.9312 19.543 39.9312 19.947C39.9312 20.3509 40.0916 20.7383 40.3773 21.024C40.6629 21.3096 41.0503 21.4701 41.4543 21.4701H63.0277C63.4316 21.4701 63.8191 21.3096 64.1047 21.024C64.3903 20.7383 64.5508 20.3509 64.5508 19.947C64.5508 19.543 64.3903 19.1556 64.1047 18.8699C63.8191 18.5843 63.4316 18.4238 63.0277 18.4238Z" fill="white"/>
<path d="M64.4049 24.6308C64.2823 24.3689 64.0877 24.1474 63.8437 23.9921C63.5998 23.8368 63.3167 23.7542 63.0276 23.7539H41.4542C41.4213 23.7539 41.3899 23.7555 41.3569 23.757C41.6384 23.9108 41.8756 24.1345 42.0456 24.4065L43.5483 26.7986H63.0276C63.2838 26.7987 63.5358 26.7341 63.7603 26.6107C63.9848 26.4874 64.1746 26.3094 64.312 26.0932C64.4493 25.877 64.5299 25.6296 64.5461 25.3739C64.5624 25.1183 64.5138 24.8626 64.4049 24.6308Z" fill="white"/>
<path d="M64.5352 30.4016C64.4856 30.0369 64.3055 29.7025 64.0284 29.4603C63.7513 29.218 63.3958 29.0844 63.0277 29.084H44.9854L45.2551 29.5138L46.899 32.1287H63.0277C63.3446 32.1294 63.6537 32.03 63.9109 31.8448C64.1084 31.7041 64.2694 31.5182 64.3804 31.3026C64.4915 31.087 64.5494 30.848 64.5493 30.6056C64.5494 30.5373 64.5447 30.4692 64.5352 30.4016Z" fill="white"/>
<path d="M81.7556 19.413L79.5596 18.5549L68.6105 14.282L55.5108 9.1698C54.9776 8.96288 54.3841 8.97581 53.8604 9.20575C53.3368 9.43569 52.9256 9.86388 52.7171 10.3965L52.2591 11.5714L51.1689 14.362L49.5846 18.4232L48.3955 21.4695L47.5045 23.7534L46.3155 26.7981L45.4229 29.0836L45.3979 29.1495L45.2551 29.5134L46.8991 32.1283L46.9179 32.1581H77.3666C77.6461 32.1579 77.9221 32.2203 78.1743 32.3408C78.4265 32.4614 78.6485 32.6369 78.8239 32.8546L78.9525 32.5283L80.5242 28.5032L82.9807 22.2083C83.1881 21.6751 83.1756 21.0814 82.946 20.5574C82.7163 20.0334 82.2883 19.6219 81.7556 19.413Z" fill="#494C58"/>
<path d="M69.7838 19.3721L68.6105 18.914L56.7799 14.2975C56.4349 14.164 56.0511 14.1724 55.7123 14.3208C55.3734 14.4692 55.107 14.7456 54.9712 15.0897C54.8375 15.4349 54.846 15.8189 54.9947 16.1579C55.1435 16.4968 55.4204 16.7631 55.765 16.8983L59.6724 18.423L64.5054 20.3085L68.6105 21.9117L68.7689 21.9729C69.1136 22.1067 69.4974 22.0983 69.8359 21.9495C70.1744 21.8006 70.4401 21.5236 70.5745 21.1791C70.709 20.8346 70.7012 20.4508 70.553 20.112C70.4047 19.7732 70.1281 19.5071 69.7838 19.3721Z" fill="white"/>
<path d="M74.5022 28.5705L68.6104 26.2709L64.4049 24.6301L62.1586 23.7533L56.3076 21.4693L54.4064 20.7274C54.0517 20.5889 53.6581 20.5883 53.303 20.7256C52.9479 20.8629 52.6571 21.1283 52.488 21.4693C52.4692 21.5085 52.4503 21.5493 52.4346 21.5917C52.3619 21.7779 52.3266 21.9766 52.3306 22.1765C52.3347 22.3764 52.3781 22.5735 52.4584 22.7566C52.5387 22.9397 52.6542 23.1052 52.7984 23.2436C52.9427 23.3821 53.1128 23.4908 53.299 23.5635L53.7852 23.7533L61.5845 26.798L68.6104 29.5399L73.3947 31.4082C73.5707 31.4769 73.758 31.512 73.9469 31.5117C74.3021 31.5123 74.6464 31.3887 74.9201 31.1623C75.1938 30.9358 75.3798 30.6208 75.4457 30.2717C75.5116 29.9226 75.4533 29.5614 75.281 29.2508C75.1087 28.9401 74.8332 28.6995 74.5022 28.5705H74.5022Z" fill="white"/>
<path d="M68.6105 31.9922L68.2325 31.8447L64.5352 30.4016L61.1579 29.0839L55.3007 26.7984L52.4677 25.6926C52.2813 25.6196 52.0824 25.5842 51.8823 25.5882C51.6822 25.5922 51.4848 25.6357 51.3015 25.716C51.1182 25.7964 50.9526 25.9121 50.814 26.0565C50.6755 26.2009 50.5667 26.3712 50.4941 26.5577C50.4214 26.7442 50.3862 26.9432 50.3905 27.1433C50.3948 27.3434 50.4385 27.5407 50.5191 27.7239C50.5997 27.9071 50.7156 28.0726 50.8602 28.2109C51.0048 28.3493 51.1753 28.4578 51.3618 28.5302L52.7799 29.0839L59.8544 31.8447L60.5822 32.1287L60.6575 32.1585H69.0356L68.6105 31.9922Z" fill="white"/>
<path d="M54.2999 32.1289L53.572 31.8449L50.5304 30.6575C50.318 30.5742 50.0895 30.5399 49.8619 30.557C49.6343 30.5741 49.4135 30.6422 49.2158 30.7563C49.0182 30.8703 48.8487 31.0274 48.72 31.2158C48.5913 31.4043 48.5067 31.6193 48.4724 31.8449C48.4573 31.9388 48.4515 32.0339 48.4551 32.1289C48.4548 32.1388 48.4554 32.1488 48.4568 32.1587H54.3767L54.2999 32.1289Z" fill="white"/>
<path d="M60.5823 32.1278L59.8544 31.8439H48.4724C48.4573 31.9377 48.4516 32.0328 48.4552 32.1278H46.8991L46.918 32.1576H60.6576L60.5823 32.1278ZM60.5823 32.1278H46.8991L46.918 32.1576H60.6576L60.5823 32.1278ZM60.5823 32.1278H46.8991L46.918 32.1576H60.6576L60.5823 32.1278ZM60.6576 32.1576L60.5823 32.1278H46.8991L46.918 32.1576H60.6576ZM33.205 63.5695C32.7085 63.5687 32.2325 63.3712 31.8814 63.0201C31.5304 62.669 31.3328 62.1931 31.332 61.6966V25.4031C31.3325 24.9063 31.5299 24.43 31.881 24.0786C32.2321 23.7272 32.7082 23.5294 33.205 23.5286H36.1242V23.2148H33.205C32.6251 23.2159 32.0693 23.4469 31.6594 23.8571C31.2495 24.2672 31.019 24.8232 31.0183 25.4031V61.6966C31.0188 62.1161 31.1399 62.5266 31.3671 62.8792C31.5943 63.2319 31.9181 63.5118 32.2999 63.6856H59.936C59.911 63.6479 59.8858 63.6087 59.8607 63.5695H33.205ZM78.9525 32.5278C78.7488 32.3117 78.5031 32.1395 78.2303 32.0219C77.9576 31.9042 77.6637 31.8437 77.3667 31.8439H47.0921L45.398 29.149L45.3571 29.0831L43.9203 26.7976L42.3109 24.2376C42.1136 23.9249 41.8405 23.6671 41.5169 23.4883C41.1932 23.3095 40.8296 23.2154 40.4599 23.2148H33.205C32.6251 23.2159 32.0693 23.4469 31.6594 23.8571C31.2495 24.2672 31.019 24.8232 31.0183 25.4031V61.6966C31.0188 62.1161 31.1399 62.5266 31.3671 62.8792C31.5943 63.2319 31.9181 63.5118 32.2999 63.6856C32.5837 63.8163 32.8925 63.8837 33.205 63.8832H77.3667C77.6796 63.8837 77.989 63.8163 78.2734 63.6856C78.6552 63.5117 78.979 63.2318 79.2062 62.8792C79.4334 62.5266 79.5544 62.1161 79.555 61.6966V34.0321C79.5553 33.4718 79.3396 32.933 78.9525 32.5278ZM79.2412 61.6966C79.2404 62.1933 79.0425 62.6694 78.6911 63.0205C78.3397 63.3717 77.8634 63.5691 77.3667 63.5695H33.205C32.7085 63.5687 32.2325 63.3712 31.8814 63.0201C31.5304 62.669 31.3328 62.1931 31.332 61.6966V25.4031C31.3325 24.9063 31.5299 24.43 31.881 24.0786C32.2321 23.7272 32.7082 23.5294 33.205 23.5286H40.4599C40.777 23.5277 41.0891 23.6078 41.3666 23.7612C41.6441 23.9147 41.8779 24.1364 42.0458 24.4054L43.5485 26.7976L44.9854 29.0831L45.2552 29.5129L46.8991 32.1278L46.918 32.1576H77.3667C77.8637 32.158 78.3403 32.3557 78.6917 32.7071C79.0432 33.0586 79.2408 33.5351 79.2412 34.0321V61.6966ZM60.5823 32.1278H46.8991L46.918 32.1576H60.6576L60.5823 32.1278ZM60.5823 32.1278H46.8991L46.918 32.1576H60.6576L60.5823 32.1278ZM60.5823 32.1278H46.8991L46.918 32.1576H60.6576L60.5823 32.1278ZM60.5823 32.1278L59.8544 31.8439H47.0921L45.398 29.149L45.2552 29.5129L46.8991 32.1278L46.918 32.1576H60.6576L60.5823 32.1278Z" fill="#3F3D56"/>
<path d="M24.6162 45.1414L23.7177 47.02L16.0444 44.4483L17.3704 41.6758L24.6162 45.1414Z" fill="#FFB8B8"/>
<path d="M22.4558 48.2781L24.2721 44.4808L26.5531 45.5719L23.7293 51.4758L23.5549 51.3924C22.9962 51.1251 22.5665 50.6469 22.3604 50.0629C22.1543 49.4788 22.1886 48.8369 22.4558 48.2781Z" fill="#2F2E41"/>
<path d="M26.4251 61.9155L24.344 61.8452L24.2563 53.7441L26.696 53.8881L26.4251 61.9155Z" fill="#FFB8B8"/>
<path d="M22.6842 61.194L26.8911 61.336L26.8058 63.8631L20.265 63.6424L20.2716 63.4491C20.2925 62.8301 20.5584 62.2448 21.0108 61.8219C21.4633 61.399 22.0652 61.1731 22.6842 61.194Z" fill="#2F2E41"/>
<path d="M29.7765 28.0134C29.7765 28.0134 23.4071 26.3998 20.5196 28.7777L18.906 33.4487L12.4517 42.6206L21.7935 48.2258L23.492 43.9795L19.4156 41.9412L24.3413 37.695L23.492 60.1154L26.7192 60.6249C26.7192 60.6249 33.853 32.9391 29.7765 28.0134Z" fill="#2F2E41"/>
<path d="M20.1133 29.468L20.1909 29.33C21.0093 27.8751 20.8767 25.506 20.6213 23.7748C20.4075 22.3247 20.4139 19.7693 20.457 17.8809C20.4676 17.2435 20.6949 16.6287 21.1015 16.1377C21.5081 15.6467 22.0698 15.3088 22.6941 15.1795C24.6317 14.7763 27.0105 14.6909 28.256 14.6758L28.2571 14.7607L28.256 14.6758C28.5945 14.6744 28.9199 14.8058 29.1626 15.0416C29.4053 15.2775 29.5458 15.5991 29.5541 15.9374C29.592 17.971 29.5803 21.6793 29.0756 23.669C28.3266 26.622 29.4978 28.6287 29.5098 28.6486L29.5804 28.7667L20.1133 29.468Z" fill="#494C58"/>
<path d="M16.8369 37.6124C17.0442 37.5131 17.2273 37.3695 17.3731 37.1918C17.519 37.0141 17.6241 36.8066 17.6811 36.5839C17.7381 36.3612 17.7455 36.1287 17.703 35.9028C17.6604 35.6768 17.5688 35.463 17.4346 35.2763L21.0292 19.7754H18.3116L15.1392 34.9708C14.8405 35.217 14.6425 35.5642 14.5827 35.9466C14.5229 36.329 14.6055 36.72 14.8147 37.0457C15.024 37.3713 15.3454 37.6088 15.7181 37.7132C16.0908 37.8177 16.4889 37.7818 16.8369 37.6124Z" fill="#FFB8B8"/>
<path d="M38.6938 22.3543L32.6949 16.6797L31.0736 18.9495L35.1269 22.5164L29.8112 26.7376C29.7728 26.7351 29.7346 26.7318 29.6955 26.7318C29.3684 26.7315 29.0481 26.8254 28.773 27.0024C28.4979 27.1793 28.2796 27.4317 28.1442 27.7295C28.0088 28.0273 27.962 28.3577 28.0095 28.6814C28.057 29.005 28.1967 29.3081 28.412 29.5544C28.6272 29.8007 28.9089 29.9798 29.2232 30.0702C29.5376 30.1606 29.8713 30.1586 30.1846 30.0643C30.4978 29.97 30.7772 29.7875 30.9894 29.5385C31.2016 29.2896 31.3376 28.9848 31.3811 28.6606L31.3979 28.6774L38.6938 22.3543Z" fill="#FFB8B8"/>
<path d="M22.3124 15.379C22.3124 15.379 18.5663 14.7645 18.2266 17.652C17.8869 20.5395 17.717 20.5395 17.717 20.5395C17.717 20.5395 20.4347 20.03 21.1141 20.7094C21.7935 21.3888 22.3124 15.379 22.3124 15.379Z" fill="#494C58"/>
<path d="M27.9082 14.9334C27.9082 14.9334 30.9655 14.4239 32.3243 15.7827C33.6832 17.1415 34.3626 17.4812 34.3626 17.4812C34.3626 17.4812 31.3052 19.1797 32.4942 20.7084C32.4942 20.7084 29.267 19.1797 28.7575 19.6893C28.2479 20.1988 27.9082 14.9334 27.9082 14.9334Z" fill="#494C58"/>
<path d="M25.2265 5.0727C24.2621 4.3025 24.0087 2.81602 24.5683 1.71594C25.1278 0.615861 26.3929 -0.0469039 27.6261 0.00259122C28.8593 0.0520863 30.0213 0.760098 30.7358 1.76649C31.7394 3.1802 31.95 5.14507 33.2845 6.25184C34.4898 7.25149 36.2165 7.22286 37.7804 7.14333C38.3076 7.11652 38.8518 7.08545 39.3248 6.85122C39.7979 6.617 40.1844 6.123 40.1234 5.59869C40.5163 6.22063 40.2883 7.09265 39.7612 7.60582C39.2341 8.11899 38.4836 8.33398 37.7529 8.41958C36.4639 8.55507 35.1618 8.35245 33.9749 7.83169C32.788 7.31093 31.7572 6.48998 30.984 5.4497C30.4399 4.69905 30.02 3.82493 29.2733 3.27534C28.5266 2.72574 27.2817 2.68748 26.8233 3.49337C26.5966 3.89196 26.6188 4.39193 26.4103 4.80034C26.2019 5.20876 25.5248 5.42898 25.3241 5.01671" fill="#2F2E41"/>
<path d="M25.0792 13.2634C27.6782 13.2634 29.7851 11.1565 29.7851 8.55746C29.7851 5.95847 27.6782 3.85156 25.0792 3.85156C22.4802 3.85156 20.3733 5.95847 20.3733 8.55746C20.3733 11.1565 22.4802 13.2634 25.0792 13.2634Z" fill="#2F2E41"/>
<path d="M25.0507 13.6312C27.1785 13.6312 28.9034 11.9063 28.9034 9.77851C28.9034 7.65071 27.1785 5.92578 25.0507 5.92578C22.9229 5.92578 21.198 7.65071 21.198 9.77851C21.198 11.9063 22.9229 13.6312 25.0507 13.6312Z" fill="#FFB8B8"/>
<path d="M21.5378 6.95038C22.0615 7.06491 21.8901 7.94327 22.3039 8.28398C22.6771 8.59131 23.2146 8.27525 23.6844 8.16083C24.2774 8.01637 24.8982 8.22799 25.4457 8.49777C25.9933 8.76755 26.5213 9.10235 27.1186 9.22804C27.7159 9.35372 28.4241 9.21206 28.7589 8.7017C29.0791 8.21371 28.9613 7.55564 28.7108 7.02848C28.3993 6.37303 27.9105 5.81789 27.2998 5.42597C26.6891 5.03404 25.9808 4.82098 25.2552 4.81092C24.5296 4.80086 23.8156 4.99422 23.1943 5.36907C22.5729 5.74392 22.0689 6.2853 21.7394 6.93187" fill="#2F2E41"/>
<path d="M112.314 63.8424C112.314 63.884 112.297 63.9238 112.268 63.9532C112.239 63.9826 112.199 63.9991 112.157 63.9993H0.156863C0.115261 63.9993 0.0753617 63.9828 0.0459441 63.9533C0.0165265 63.9239 0 63.884 0 63.8424C0 63.8008 0.0165265 63.7609 0.0459441 63.7315C0.0753617 63.7021 0.115261 63.6855 0.156863 63.6855H112.157C112.199 63.6857 112.239 63.7022 112.268 63.7316C112.297 63.761 112.314 63.8008 112.314 63.8424Z" fill="#3F3D56"/>
</g>
<defs>
<clipPath id="clip0_3657_15819">
<rect width="121.883" height="64" fill="white"/>
</clipPath>
</defs>
</svg>
