<svg width="70" height="65" viewBox="0 0 70 65" fill="none" xmlns="http://www.w3.org/2000/svg">
	<path
		d="M39.5491 0.151356L37.0362 0.799369L6.07736 8.78304L3.56451 9.43105C2.3448 9.74706 1.30025 10.534 0.660013 11.6192C0.0197766 12.7044 -0.163855 13.9992 0.149405 15.2196L11.0457 57.473C11.3617 58.6927 12.1486 59.7372 13.2338 60.3775C14.319 61.0177 15.6138 61.2013 16.8343 60.8881L16.8407 60.8864L52.8123 51.6101L52.8188 51.6084C54.0385 51.2924 55.0831 50.5055 55.7233 49.4203C56.3635 48.3351 56.5472 47.0402 56.2339 45.8198L45.3376 3.56648C45.0216 2.34677 44.2347 1.30221 43.1495 0.661974C42.0643 0.0217334 40.7695 -0.161902 39.5491 0.151356Z"
		fill="#F2F2F2"/>
	<path
		d="M39.9038 1.4892L36.9275 2.25673L6.8955 10.0014L3.91924 10.7689C3.05066 10.9939 2.3068 11.5543 1.85087 12.3271C1.39494 13.0999 1.26417 14.022 1.48725 14.8911L12.3835 57.1444C12.6086 58.013 13.169 58.7568 13.9417 59.2128C14.7145 59.6687 15.6366 59.7995 16.5057 59.5764L16.5122 59.5747L52.4838 50.2984L52.4903 50.2967C53.3589 50.0716 54.1027 49.5112 54.5586 48.7385C55.0146 47.9657 55.1453 47.0436 54.9222 46.1745L44.026 3.92119C43.8009 3.05262 43.2406 2.30877 42.4678 1.85284C41.695 1.39691 40.7729 1.26613 39.9038 1.4892Z"
		fill="white"/>
	<path
		d="M35.4708 21.839L17.4288 27.0968C17.329 27.126 17.2244 27.1352 17.121 27.124C17.0176 27.1127 16.9175 27.0812 16.8263 27.0312C16.735 26.9813 16.6546 26.9138 16.5895 26.8327C16.5244 26.7516 16.4759 26.6585 16.4468 26.5586C16.4177 26.4588 16.4085 26.3542 16.4199 26.2508C16.4312 26.1474 16.4629 26.0473 16.5129 25.9561C16.563 25.865 16.6306 25.7846 16.7118 25.7196C16.7929 25.6545 16.8861 25.6062 16.986 25.5772L35.028 20.3194C35.2294 20.261 35.4458 20.2849 35.6296 20.3859C35.8135 20.4869 35.9497 20.6567 36.0084 20.8581C36.067 21.0594 36.0434 21.2758 35.9426 21.4598C35.8418 21.6437 35.6721 21.7801 35.4708 21.839Z"
		fill="#E6E6E6"/>
	<path
		d="M38.3203 25.9491L17.1442 32.1202C17.0443 32.1494 16.9397 32.1587 16.8364 32.1474C16.733 32.1362 16.6328 32.1047 16.5416 32.0547C16.4504 32.0047 16.3699 31.9372 16.3048 31.8561C16.2397 31.775 16.1912 31.6819 16.1621 31.5821C16.133 31.4822 16.1239 31.3776 16.1352 31.2742C16.1466 31.1708 16.1782 31.0707 16.2283 30.9796C16.2784 30.8884 16.3459 30.808 16.4271 30.743C16.5083 30.678 16.6014 30.6296 16.7013 30.6006L37.8775 24.4295C38.079 24.3708 38.2956 24.3945 38.4796 24.4955C38.6636 24.5965 38.8 24.7664 38.8587 24.9679C38.9174 25.1694 38.8937 25.386 38.7927 25.57C38.6918 25.754 38.5218 25.8904 38.3203 25.9491Z"
		fill="#E6E6E6"/>
	<path
		d="M38.1246 30.9445L20.0826 36.2022C19.9828 36.2314 19.8782 36.2407 19.7748 36.2294C19.6714 36.2182 19.5713 36.1867 19.4801 36.1367C19.3889 36.0867 19.3084 36.0193 19.2433 35.9382C19.1782 35.8571 19.1297 35.7639 19.1006 35.6641C19.0715 35.5642 19.0623 35.4596 19.0737 35.3563C19.0851 35.2529 19.1167 35.1527 19.1668 35.0616C19.2168 34.9704 19.2844 34.8901 19.3656 34.825C19.4467 34.76 19.5399 34.7116 19.6398 34.6826L37.6818 29.4249C37.8833 29.3662 38.0999 29.3899 38.2839 29.4909C38.4679 29.5918 38.6043 29.7618 38.663 29.9633C38.7217 30.1648 38.698 30.3814 38.597 30.5654C38.4961 30.7494 38.3261 30.8858 38.1246 30.9445Z"
		fill="#E6E6E6"/>
	<path
		d="M40.9741 35.0546L19.798 41.2257C19.6981 41.2549 19.5936 41.2641 19.4902 41.2529C19.3868 41.2416 19.2866 41.2101 19.1954 41.1602C19.1042 41.1102 19.0237 41.0427 18.9586 40.9616C18.8935 40.8805 18.845 40.7874 18.8159 40.6875C18.7868 40.5877 18.7777 40.4831 18.789 40.3797C18.8004 40.2763 18.832 40.1762 18.8821 40.085C18.9322 39.9939 18.9997 39.9135 19.0809 39.8485C19.1621 39.7834 19.2552 39.7351 19.3551 39.7061L40.5313 33.535C40.6311 33.5058 40.7357 33.4965 40.8391 33.5078C40.9425 33.519 41.0427 33.5505 41.1339 33.6005C41.2251 33.6505 41.3055 33.718 41.3706 33.7991C41.4358 33.8801 41.4843 33.9733 41.5134 34.0731C41.5425 34.173 41.5516 34.2776 41.5402 34.381C41.5289 34.4843 41.4972 34.5845 41.4472 34.6756C41.3971 34.7668 41.3295 34.8472 41.2484 34.9122C41.1672 34.9772 41.074 35.0256 40.9741 35.0546Z"
		fill="#E6E6E6"/>
	<path
		d="M64.6466 10.8613H27.4848C26.2248 10.8627 25.0169 11.3639 24.1259 12.2548C23.235 13.1458 22.7338 14.3538 22.7324 15.6137V59.2494C22.7338 60.5094 23.235 61.7174 24.1259 62.6083C25.0169 63.4992 26.2248 64.0004 27.4848 64.0018H64.6466C65.9066 64.0004 67.1146 63.4992 68.0055 62.6083C68.8965 61.7174 69.3976 60.5094 69.399 59.2494V15.6137C69.3976 14.3538 68.8965 13.1458 68.0055 12.2548C67.1146 11.3639 65.9066 10.8627 64.6466 10.8613Z"
		fill="#CBCBCB"/>
	<path
		d="M64.6397 12.2441H27.4778C26.5805 12.2451 25.7203 12.602 25.0859 13.2365C24.4514 13.8709 24.0945 14.7312 24.0935 15.6284V59.2641C24.0945 60.1614 24.4514 61.0216 25.0859 61.6561C25.7203 62.2905 26.5805 62.6474 27.4778 62.6484H64.6397C65.5369 62.6474 66.3971 62.2905 67.0316 61.656C67.666 61.0216 68.0229 60.1614 68.0239 59.2641V15.6284C68.0229 14.7312 67.666 13.871 67.0316 13.2365C66.3971 12.602 65.5369 12.2452 64.6397 12.2441Z"
		fill="white"/>
	<path
		d="M55.5284 31.1101H36.7359C36.6319 31.1103 36.5289 31.0899 36.4328 31.0502C36.3366 31.0104 36.2493 30.9522 36.1757 30.8787C36.1021 30.8052 36.0438 30.7179 36.0039 30.6218C35.9641 30.5257 35.9436 30.4227 35.9436 30.3187C35.9436 30.2147 35.9641 30.1118 36.0039 30.0157C36.0438 29.9196 36.1021 29.8323 36.1757 29.7588C36.2493 29.6853 36.3366 29.6271 36.4328 29.5873C36.5289 29.5476 36.6319 29.5272 36.7359 29.5273H55.5284C55.7381 29.5276 55.9392 29.6111 56.0874 29.7595C56.2356 29.9078 56.3189 30.109 56.3189 30.3187C56.3189 30.5285 56.2356 30.7296 56.0874 30.878C55.9392 31.0264 55.7381 31.1099 55.5284 31.1101Z"
		fill="#494C58"/>
	<path
		d="M57.1142 35.8523H35.0572C34.9532 35.8525 34.8502 35.8321 34.7541 35.7923C34.6579 35.7526 34.5706 35.6944 34.497 35.6209C34.4234 35.5474 34.365 35.4601 34.3252 35.364C34.2854 35.2679 34.2649 35.1649 34.2649 35.0609C34.2649 34.9569 34.2854 34.8539 34.3252 34.7579C34.365 34.6618 34.4234 34.5745 34.497 34.501C34.5706 34.4275 34.6579 34.3692 34.7541 34.3295C34.8502 34.2898 34.9532 34.2694 35.0572 34.2695H57.1142C57.3241 34.2695 57.5254 34.3529 57.6738 34.5013C57.8222 34.6497 57.9056 34.851 57.9056 35.0609C57.9056 35.2708 57.8222 35.4721 57.6738 35.6205C57.5254 35.769 57.3241 35.8523 57.1142 35.8523Z"
		fill="#494C58"/>
	<path
		d="M55.5284 40.5945H36.7359C36.6319 40.5946 36.5289 40.5743 36.4328 40.5345C36.3366 40.4948 36.2493 40.4365 36.1757 40.363C36.1021 40.2895 36.0438 40.2023 36.0039 40.1062C35.9641 40.0101 35.9436 39.9071 35.9436 39.8031C35.9436 39.6991 35.9641 39.5961 36.0039 39.5001C36.0438 39.404 36.1021 39.3167 36.1757 39.2432C36.2493 39.1697 36.3366 39.1114 36.4328 39.0717C36.5289 39.032 36.6319 39.0116 36.7359 39.0117H55.5284C55.7383 39.0117 55.9396 39.0951 56.088 39.2435C56.2364 39.3919 56.3198 39.5932 56.3198 39.8031C56.3198 40.013 56.2364 40.2143 56.088 40.3627C55.9396 40.5111 55.7383 40.5945 55.5284 40.5945Z"
		fill="#494C58"/>
	<path
		d="M57.1142 45.3387H35.0572C34.9532 45.3388 34.8502 45.3184 34.7541 45.2787C34.6579 45.239 34.5706 45.1807 34.497 45.1072C34.4234 45.0337 34.365 44.9464 34.3252 44.8503C34.2854 44.7542 34.2649 44.6513 34.2649 44.5473C34.2649 44.4433 34.2854 44.3403 34.3252 44.2442C34.365 44.1481 34.4234 44.0608 34.497 43.9873C34.5706 43.9138 34.6579 43.8556 34.7541 43.8158C34.8502 43.7761 34.9532 43.7557 35.0572 43.7559H57.1142C57.2182 43.7557 57.3212 43.7761 57.4173 43.8158C57.5134 43.8556 57.6008 43.9138 57.6744 43.9873C57.748 44.0608 57.8063 44.1481 57.8462 44.2442C57.886 44.3403 57.9065 44.4433 57.9065 44.5473C57.9065 44.6513 57.886 44.7542 57.8462 44.8503C57.8063 44.9464 57.748 45.0337 57.6744 45.1072C57.6008 45.1807 57.5134 45.239 57.4173 45.2787C57.3212 45.3184 57.2182 45.3388 57.1142 45.3387Z"
		fill="#494C58"/>
</svg>
