<svg width="105" height="64" viewBox="0 0 105 64" fill="none" xmlns="http://www.w3.org/2000/svg">
<g clip-path="url(#clip0_3657_16330)">
<path d="M97.7651 57.7927C97.268 57.9674 96.7343 58.0112 96.2154 57.9198C95.6966 57.8284 95.2099 57.6049 94.8025 57.2708C93.7649 56.3998 93.4395 54.9654 93.1748 53.6368L92.3918 49.707L94.0311 50.8357C95.21 51.6474 96.4153 52.4852 97.2315 53.6609C98.0477 54.8365 98.4038 56.4416 97.7482 57.7137" fill="#E6E6E6"/>
<path d="M97.512 62.8241C97.7183 61.3209 97.9306 59.7984 97.7855 58.2791C97.657 56.9298 97.2453 55.6122 96.4073 54.5314C95.9624 53.9589 95.4211 53.4684 94.8077 53.0819C94.6478 52.981 94.5006 53.2344 94.6598 53.3349C95.7212 54.0057 96.5422 54.9962 97.0043 56.1636C97.5148 57.4618 97.5967 58.877 97.5088 60.256C97.4556 61.09 97.3427 61.9185 97.2293 62.746C97.2204 62.7834 97.2259 62.8229 97.245 62.8563C97.264 62.8898 97.295 62.9148 97.3317 62.9262C97.3692 62.9363 97.4091 62.9312 97.4428 62.9121C97.4766 62.8929 97.5014 62.8612 97.5119 62.8239L97.512 62.8241Z" fill="#F2F2F2"/>
<path d="M96.0271 60.4118C95.814 60.7359 95.5209 60.9996 95.1763 61.1775C94.8316 61.3555 94.4469 61.4416 94.0593 61.4277C93.0629 61.3805 92.2325 60.6853 91.4851 60.0251L89.2739 58.0728L90.7373 58.0028C91.7897 57.9524 92.8692 57.9051 93.8716 58.23C94.874 58.5549 95.7984 59.3357 95.9817 60.3732" fill="#E6E6E6"/>
<path d="M98.0952 63.6881C97.1019 61.9306 95.9498 59.9773 93.8912 59.353C93.3188 59.18 92.7186 59.118 92.123 59.1704C91.9352 59.1866 91.9821 59.4759 92.1695 59.4598C93.1679 59.3769 94.1645 59.6406 94.9913 60.2064C95.787 60.7479 96.4065 61.5009 96.9308 62.2993C97.252 62.7885 97.5397 63.2983 97.8274 63.8074C97.9193 63.9702 98.1882 63.8527 98.0952 63.6881Z" fill="#F2F2F2"/>
<path d="M62.6178 19.0684V35.8029H23.9667V44.6884H13.7483V19.0684H62.6178Z" fill="white"/>
<path d="M13.3035 18.625V45.1332H23.9666V44.245H14.1916V19.5132H62.1742V35.803H63.0624V18.625H13.3035Z" fill="#E5E5E5"/>
<path d="M54.9688 28.5508H23.9912V29.6443H54.9688V28.5508Z" fill="#E5E5E5"/>
<path d="M54.9688 31.3945H23.9912V32.4881H54.9688V31.3945Z" fill="#E5E5E5"/>
<path d="M54.9688 34.2383H23.9912V35.3318H54.9688V34.2383Z" fill="#E5E5E5"/>
<path d="M22.1109 29.8531C22.505 29.8531 22.8245 29.5336 22.8245 29.1394C22.8245 28.7453 22.505 28.4258 22.1109 28.4258C21.7167 28.4258 21.3972 28.7453 21.3972 29.1394C21.3972 29.5336 21.7167 29.8531 22.1109 29.8531Z" fill="#E5E5E5"/>
<path d="M49.3143 0.443359V17.1779H10.6632V26.0634H0.444824V0.443359H49.3143Z" fill="white"/>
<path d="M0 0V26.5082H10.6631V25.62H0.888167V0.888169H48.8707V17.178H49.7589V0H0Z" fill="#F1F1F1"/>
<path d="M41.6654 9.92578H10.6877V11.0193H41.6654V9.92578Z" fill="#F1F1F1"/>
<path d="M41.6654 12.7695H10.6877V13.8631H41.6654V12.7695Z" fill="#F1F1F1"/>
<path d="M41.6654 15.6133H10.6877V16.7068H41.6654V15.6133Z" fill="#F1F1F1"/>
<path d="M8.80741 11.2281C9.20155 11.2281 9.52107 10.9086 9.52107 10.5144C9.52107 10.1203 9.20155 9.80078 8.80741 9.80078C8.41327 9.80078 8.09375 10.1203 8.09375 10.5144C8.09375 10.9086 8.41327 11.2281 8.80741 11.2281Z" fill="#F1F1F1"/>
<path d="M75.449 37.9355H26.5786V63.5555H75.449V37.9355Z" fill="white"/>
<path d="M75.8932 64.0007H26.1343V37.4922H75.8932V64.0007ZM27.0228 63.1121H75.0047V38.3807H27.0228V63.1121Z" fill="#CBCBCB"/>
<path d="M67.7459 47.459H36.7683V48.5525H67.7459V47.459Z" fill="#494C58"/>
<path d="M67.7459 50.3027H36.7683V51.3963H67.7459V50.3027Z" fill="#494C58"/>
<path d="M67.7459 53.1445H36.7683V54.2381H67.7459V53.1445Z" fill="#494C58"/>
<path d="M34.888 48.7613C35.2821 48.7613 35.6016 48.4418 35.6016 48.0476C35.6016 47.6535 35.2821 47.334 34.888 47.334C34.4938 47.334 34.1743 47.6535 34.1743 48.0476C34.1743 48.4418 34.4938 48.7613 34.888 48.7613Z" fill="#494C58"/>
<path d="M68.2453 37.4918C68.1374 37.3396 68.0642 37.1657 68.0308 36.9823C67.9975 36.7988 68.0047 36.6102 68.0521 36.4299C68.0995 36.2495 68.1858 36.0818 68.3051 35.9384C68.4243 35.795 68.5735 35.6795 68.7422 35.6001L72.2767 24.5332L74.7383 25.8119L70.49 36.2882C70.6047 36.5804 70.6082 36.9046 70.4999 37.1993C70.3916 37.494 70.1789 37.7387 69.9022 37.887C69.6255 38.0354 69.304 38.0771 68.9986 38.0042C68.6932 37.9314 68.4252 37.749 68.2453 37.4918V37.4918Z" fill="#9F616A"/>
<path d="M71.1329 26.0641C71.0991 25.9892 71.0818 25.9079 71.0823 25.8257C71.0827 25.7435 71.1009 25.6624 71.1356 25.5879L72.3462 22.9852C72.4656 22.5819 72.74 22.2425 73.1092 22.0413C73.4785 21.8401 73.9124 21.7935 74.316 21.9118C74.7195 22.0301 75.0597 22.3035 75.2619 22.6722C75.4641 23.0409 75.5119 23.4748 75.3947 23.8787L74.9901 26.7299C74.9785 26.8113 74.9495 26.8892 74.9052 26.9584C74.8608 27.0275 74.802 27.0863 74.7328 27.1307C74.6637 27.1751 74.5858 27.2041 74.5044 27.2157C74.423 27.2273 74.3401 27.2212 74.2613 27.1979L71.4918 26.3773C71.413 26.354 71.3401 26.3139 71.2782 26.2599C71.2162 26.2058 71.1667 26.1391 71.1329 26.0641Z" fill="#494C58"/>
<path d="M81.3439 26.5039L81.1465 29.2682L74.4332 31.6377L74.3345 28.972L81.3439 26.5039Z" fill="#9F616A"/>
<path d="M72.7549 22.4555L74.9268 20.8759L78.4809 19.8887L81.4426 20.481L81.9363 25.1211L81.3439 28.0828L73.6434 29.8599L72.8536 28.4777C72.8536 28.4777 71.0766 26.7007 72.4587 24.7262L72.7549 22.4555Z" fill="#494C58"/>
<path d="M71.9651 18.4024V15.8098C71.9651 14.7128 72.4008 13.6609 73.1765 12.8852C73.9521 12.1096 75.0041 11.6738 76.101 11.6738C77.1979 11.6738 78.2499 12.1096 79.0256 12.8852C79.8012 13.6609 80.237 14.7128 80.237 15.8098V18.4024C80.2368 18.5497 80.1782 18.691 80.0741 18.7951C79.9699 18.8993 79.8287 18.9579 79.6814 18.958H72.5207C72.3734 18.9579 72.2321 18.8993 72.128 18.7951C72.0238 18.691 71.9653 18.5497 71.9651 18.4024Z" fill="#2F2E41"/>
<path d="M75.9347 18.9318C77.6094 18.9318 78.967 17.5742 78.967 15.8995C78.967 14.2248 77.6094 12.8672 75.9347 12.8672C74.26 12.8672 72.9023 14.2248 72.9023 15.8995C72.9023 17.5742 74.26 18.9318 75.9347 18.9318Z" fill="#9F616A"/>
<path d="M72.8193 15.8884C72.7903 15.855 72.7689 15.8157 72.7564 15.7732C72.7439 15.7308 72.7407 15.6861 72.747 15.6423L73.1062 13.1411C73.1134 13.0902 73.1331 13.0418 73.1635 13.0005C73.194 12.9591 73.2344 12.926 73.2809 12.9041C75.1143 12.0461 76.9735 12.045 78.807 12.9009C78.8556 12.9239 78.8975 12.9592 78.9284 13.0033C78.9593 13.0473 78.9782 13.0987 78.9834 13.1523L79.2231 15.6568C79.2273 15.6996 79.2224 15.7428 79.2088 15.7837C79.1952 15.8245 79.1733 15.862 79.1443 15.8938C79.1154 15.9257 79.0801 15.9511 79.0408 15.9685C79.0014 15.9859 78.9589 15.9949 78.9159 15.9949H78.3078C78.2491 15.9947 78.1916 15.9779 78.1421 15.9464C78.0926 15.9149 78.0531 15.8699 78.0281 15.8168L77.7656 15.2545C77.7487 15.2181 77.7203 15.1882 77.6848 15.1693C77.6494 15.1504 77.6087 15.1436 77.569 15.1498C77.5293 15.1561 77.4928 15.1751 77.4648 15.2039C77.4369 15.2328 77.419 15.2699 77.4141 15.3098L77.3622 15.7244C77.3528 15.7991 77.3165 15.8677 77.2601 15.9175C77.2038 15.9673 77.1312 15.9948 77.056 15.9949H73.0526C73.0083 15.9949 72.9646 15.9854 72.9243 15.967C72.8841 15.9486 72.8483 15.9218 72.8193 15.8884Z" fill="#2F2E41"/>
<path d="M85.9826 36.2019C85.801 36.1597 85.6308 36.0783 85.484 35.9632C85.3373 35.8481 85.2176 35.7023 85.1333 35.5359C85.049 35.3696 85.0023 35.1868 84.9963 35.0004C84.9903 34.814 85.0252 34.6286 85.0987 34.4572L80.3965 23.8337L83.0864 23.1562L86.8626 33.8118C87.1424 33.9542 87.3602 34.1944 87.4748 34.4867C87.5894 34.779 87.5927 35.1031 87.4842 35.3977C87.3758 35.6924 87.163 35.937 86.8862 36.0852C86.6095 36.2334 86.2879 36.2749 85.9826 36.2019Z" fill="#9F616A"/>
<path d="M80.5567 25.7375C80.4817 25.7039 80.4148 25.6546 80.3606 25.5928C80.3064 25.531 80.2661 25.4583 80.2426 25.3795L79.4205 22.6293C79.2421 22.2485 79.222 21.8125 79.3646 21.4169C79.5073 21.0213 79.8009 20.6984 80.1813 20.519C80.5616 20.3396 80.9976 20.3183 81.3936 20.4599C81.7895 20.6015 82.1132 20.8943 82.2936 21.2741L83.8835 23.6753C83.9289 23.7438 83.959 23.8213 83.9717 23.9025C83.9844 23.9837 83.9795 24.0667 83.9572 24.1458C83.935 24.2249 83.896 24.2983 83.8428 24.361C83.7896 24.4237 83.7236 24.4741 83.6491 24.509L81.033 25.7336C80.9586 25.7684 80.8775 25.7869 80.7953 25.7875C80.7131 25.7882 80.6317 25.7711 80.5567 25.7375Z" fill="#494C58"/>
<path d="M81.0061 62.1288L79.2946 62.1287L78.4805 55.5273L81.0064 55.5275L81.0061 62.1288Z" fill="#9F616A"/>
<path d="M81.4426 63.7863L75.9241 63.7861V63.7163C75.9241 63.1466 76.1504 62.6003 76.5532 62.1975C76.9561 61.7947 77.5024 61.5684 78.072 61.5684H78.0722L81.4427 61.5685L81.4426 63.7863Z" fill="#2F2E41"/>
<path d="M79.7053 48.19L78.5386 49.442L73.1538 45.5374L74.8759 43.6895L79.7053 48.19Z" fill="#9F616A"/>
<path d="M81.2166 49.0022L77.4544 53.0395L77.4033 52.9919C76.9866 52.6035 76.7412 52.0655 76.7211 51.4962C76.701 50.9269 76.9078 50.3729 77.2961 49.9562L77.2962 49.9561L79.5941 47.4902L81.2166 49.0022Z" fill="#2F2E41"/>
<path d="M81.5412 29.2676L82.0886 29.815C84.8266 32.5529 85.5006 36.3493 85.1718 40.2073C85.1258 40.7794 85.0342 41.3469 84.8979 41.9044C83.9106 45.8534 84.503 58.4901 82.5285 59.2799L82.1336 60.6621L78.2833 60.5198L78.3821 59.2799C78.3821 59.2799 77.4935 57.4041 78.0859 56.2194C78.6782 55.0348 79.9617 46.2483 79.9617 46.2483L79.2706 39.0414L74.1369 41.6082C74.1369 41.6082 76.8025 43.0891 76.605 44.0763C76.605 44.0763 78.1846 44.4712 77.7897 45.4585L78.3821 46.6432L76.9999 48.8151C76.9999 48.8151 67.7198 43.2865 68.5096 40.5222C69.2994 37.758 74.2356 35.7835 74.2356 35.7835L74.6305 32.8217L74.2901 31.2079L81.1974 28.5527L81.5412 29.2676Z" fill="#2F2E41"/>
<path d="M104.576 63.9995H48.321C48.2874 63.9995 48.2552 63.9861 48.2314 63.9624C48.2077 63.9386 48.1943 63.9064 48.1943 63.8728C48.1943 63.8392 48.2077 63.807 48.2314 63.7832C48.2552 63.7594 48.2874 63.7461 48.321 63.7461H104.576C104.609 63.7461 104.642 63.7594 104.665 63.7832C104.689 63.807 104.703 63.8392 104.703 63.8728C104.703 63.9064 104.689 63.9386 104.665 63.9624C104.642 63.9861 104.609 63.9995 104.576 63.9995Z" fill="#CBCBCB"/>
</g>
<defs>
<clipPath id="clip0_3657_16330">
<rect width="104.703" height="64" fill="white"/>
</clipPath>
</defs>
</svg>
