<svg width="91" height="64" viewBox="0 0 91 64" fill="none" xmlns="http://www.w3.org/2000/svg">
	<g clip-path="url(#clip0_3726_16949)">
		<path
			d="M46.3815 63.8641C49.113 63.8641 51.3272 61.6498 51.3272 58.9184C51.3272 56.1869 49.113 53.9727 46.3815 53.9727C43.6501 53.9727 41.4358 56.1869 41.4358 58.9184C41.4358 61.6498 43.6501 63.8641 46.3815 63.8641Z"
			fill="#494C58"/>
		<path
			d="M75.9275 63.5874C78.6943 62.7565 81.6359 61.89 83.8302 59.9146C85.791 58.1494 87.1148 55.4538 86.3025 52.8065C85.4918 50.1647 83.0637 48.4031 80.5567 47.5269C79.1348 47.03 77.6472 46.7543 76.1602 46.5378C74.5437 46.3023 72.9201 46.1094 71.2972 45.9238C64.7261 45.1723 58.1302 44.7131 51.5096 44.5464C48.2428 44.4642 44.9766 44.4662 41.7093 44.5136C38.7914 44.5559 35.7183 44.5549 33.0114 43.3147C30.9064 42.3503 28.9959 40.5958 28.4094 38.2901C27.7323 35.6286 28.9811 32.9182 30.7725 30.9907C31.7168 29.9746 32.8204 29.1195 33.9589 28.3332C35.194 27.4801 36.4721 26.6875 37.778 25.9476C40.3499 24.491 43.0387 23.2514 45.8166 22.2417C47.1869 21.7434 48.5776 21.3135 49.9804 20.9169C51.1649 20.582 52.3531 20.2467 53.4979 19.7904C55.7109 18.9084 57.8158 17.4144 58.3785 14.965C58.9118 12.6436 58.0126 10.1235 56.4362 8.39893C54.6125 6.40375 51.8626 5.52913 49.2262 5.38762C46.2665 5.22875 43.3749 5.9695 40.593 6.9096C37.626 7.91229 34.7228 9.06521 31.6931 9.87738C28.6886 10.682 25.6261 11.2512 22.5332 11.5801C21.0191 11.7413 19.4593 11.9233 17.9362 11.7999C16.6597 11.6965 15.3898 11.3211 14.449 10.4151C13.6424 9.63836 13.1619 8.57081 13.3271 7.44422C13.3571 7.2396 13.6679 7.32659 13.6381 7.52997C13.437 8.90135 14.3692 10.165 15.5179 10.8124C16.8456 11.5605 18.4611 11.5615 19.9392 11.4759C23.1441 11.2824 26.3273 10.8222 29.4559 10.1002C32.53 9.39807 35.4944 8.39433 38.4554 7.3221C41.2675 6.30376 44.1426 5.30986 47.1469 5.08929C49.7538 4.8979 52.496 5.27768 54.767 6.64C56.763 7.8373 58.2306 9.834 58.6983 12.1253C59.1553 14.3642 58.5224 16.6178 56.8275 18.1802C55.0727 19.798 52.6666 20.4896 50.4243 21.1266C47.5802 21.9345 44.7972 22.8789 42.1034 24.1051C39.3728 25.3445 36.7541 26.8167 34.2762 28.5055C31.8844 30.14 29.5239 32.1966 28.7675 35.1125C28.4151 36.4707 28.4801 37.9113 29.0697 39.1943C29.594 40.335 30.4574 41.2946 31.4632 42.0347C33.8631 43.8006 36.8877 44.1631 39.7865 44.1992C43.0422 44.2397 46.298 44.1298 49.5548 44.1833C56.1921 44.2922 62.8157 44.6962 69.4257 45.3953C71.0821 45.5706 72.7363 45.7644 74.3884 45.9766C75.8745 46.1676 77.3655 46.3573 78.8265 46.6964C81.4243 47.2994 83.9522 48.4588 85.5669 50.6614C86.2835 51.6161 86.7274 52.7475 86.8514 53.9348C86.9644 55.1738 86.6611 56.4151 86.1009 57.5173C84.861 59.9569 82.5385 61.5086 80.0721 62.528C78.7511 63.0741 77.3808 63.4877 76.0132 63.8984C75.814 63.9583 75.7289 63.6471 75.9275 63.5874L75.9275 63.5874Z"
			fill="#F2F2F2"/>
		<path
			d="M13.5355 10.0533C14.9606 10.0533 16.1158 8.89806 16.1158 7.47296C16.1158 6.04785 14.9606 4.89258 13.5355 4.89258C12.1104 4.89258 10.9551 6.04785 10.9551 7.47296C10.9551 8.89806 12.1104 10.0533 13.5355 10.0533Z"
			fill="#F2F2F2"/>
		<path
			d="M31.4368 14.944C32.8619 14.944 34.0172 13.7887 34.0172 12.3636C34.0172 10.9385 32.8619 9.7832 31.4368 9.7832C30.0117 9.7832 28.8564 10.9385 28.8564 12.3636C28.8564 13.7887 30.0117 14.944 31.4368 14.944Z"
			fill="#F2F2F2"/>
		<path
			d="M46.5965 5.16076C48.0216 5.16076 49.1769 4.00548 49.1769 2.58038C49.1769 1.15527 48.0216 0 46.5965 0C45.1714 0 44.0161 1.15527 44.0161 2.58038C44.0161 4.00548 45.1714 5.16076 46.5965 5.16076Z"
			fill="#F2F2F2"/>
		<path
			d="M56.0579 16.1276C57.483 16.1276 58.6383 14.9723 58.6383 13.5472C58.6383 12.1221 57.483 10.9668 56.0579 10.9668C54.6328 10.9668 53.4775 12.1221 53.4775 13.5472C53.4775 14.9723 54.6328 16.1276 56.0579 16.1276Z"
			fill="#F2F2F2"/>
		<path
			d="M43.2635 28.8151C44.6886 28.8151 45.8439 27.6598 45.8439 26.2347C45.8439 24.8096 44.6886 23.6543 43.2635 23.6543C41.8384 23.6543 40.6831 24.8096 40.6831 26.2347C40.6831 27.6598 41.8384 28.8151 43.2635 28.8151Z"
			fill="#F2F2F2"/>
		<path
			d="M27.0286 34.942C28.4537 34.942 29.609 33.7867 29.609 32.3616C29.609 30.9365 28.4537 29.7812 27.0286 29.7812C25.6035 29.7812 24.4482 30.9365 24.4482 32.3616C24.4482 33.7867 25.6035 34.942 27.0286 34.942Z"
			fill="#F2F2F2"/>
		<path
			d="M44.2313 44.5123C45.6564 44.5123 46.8116 43.357 46.8116 41.9319C46.8116 40.5068 45.6564 39.3516 44.2313 39.3516C42.8062 39.3516 41.6509 40.5068 41.6509 41.9319C41.6509 43.357 42.8062 44.5123 44.2313 44.5123Z"
			fill="#F2F2F2"/>
		<path
			d="M62.7239 49.8873C64.149 49.8873 65.3043 48.732 65.3043 47.3069C65.3043 45.8818 64.149 44.7266 62.7239 44.7266C61.2988 44.7266 60.1436 45.8818 60.1436 47.3069C60.1436 48.732 61.2988 49.8873 62.7239 49.8873Z"
			fill="#F2F2F2"/>
		<path
			d="M84.3345 48.7037C85.7596 48.7037 86.9149 47.5485 86.9149 46.1233C86.9149 44.6982 85.7596 43.543 84.3345 43.543C82.9094 43.543 81.7542 44.6982 81.7542 46.1233C81.7542 47.5485 82.9094 48.7037 84.3345 48.7037Z"
			fill="#F2F2F2"/>
		<path
			d="M45.8517 7.31092C38.1222 7.36552 31.7934 13.6468 31.6836 21.3757C31.6825 21.4471 31.6821 21.9488 31.6821 22.6051C31.6822 23.5673 32.0644 24.4901 32.7448 25.1705C33.4252 25.8509 34.3479 26.2332 35.3101 26.2333H35.3101C35.7871 26.2332 36.2594 26.1391 36.7 25.9564C37.1406 25.7737 37.5409 25.506 37.878 25.1685C38.2151 24.8311 38.4824 24.4305 38.6646 23.9897C38.8468 23.5489 38.9404 23.0765 38.94 22.5995C38.9396 22.1531 38.9394 21.8441 38.9394 21.8252C38.9392 20.6307 39.2499 19.4567 39.8409 18.4187C40.432 17.3807 41.2832 16.5145 42.3106 15.9052C43.338 15.2959 44.5063 14.9645 45.7006 14.9437C46.8949 14.9229 48.0741 15.2134 49.1221 15.7865C50.1701 16.3597 51.0509 17.1958 51.6778 18.2126C52.3046 19.2293 52.656 20.3918 52.6974 21.5856C52.7387 22.7794 52.4686 23.9633 51.9136 25.0211C51.3585 26.0788 50.5377 26.9738 49.5319 27.6181L49.5331 27.6196C49.5331 27.6196 44.3693 30.9439 42.795 35.5043L42.7964 35.5046C42.5195 36.4389 42.3793 37.4082 42.3799 38.3826C42.3799 38.7831 42.4035 42.2877 42.449 45.1322C42.4649 46.1136 42.866 47.0495 43.5658 47.7379C44.2656 48.4262 45.2079 48.8119 46.1895 48.8116H46.1895C46.6827 48.8116 47.1711 48.7141 47.6264 48.5246C48.0818 48.3351 48.4952 48.0575 48.8429 47.7077C49.1906 47.3578 49.4656 46.9427 49.6523 46.4861C49.8389 46.0296 49.9334 45.5406 49.9304 45.0474C49.9146 42.4424 49.906 39.4091 49.906 39.189C49.906 36.3888 52.6074 33.5987 54.8263 31.7793C57.3815 29.6841 59.2203 26.8289 59.9588 23.6082C60.1222 22.9451 60.2123 22.266 60.2275 21.5833C60.2275 19.7003 59.8549 17.8359 59.1312 16.0975C58.4075 14.3592 57.3469 12.7812 56.0106 11.4545C54.6743 10.1279 53.0888 9.07875 51.3452 8.36759C49.6017 7.65644 47.7346 7.29732 45.8517 7.31092Z"
			fill="#494C58"/>
		<path
			d="M90.688 64.0002H0.128135C0.0942473 64.0001 0.0617815 63.9865 0.0378537 63.9626C0.0139259 63.9386 0.000488281 63.9061 0.000488281 63.8722C0.000488281 63.8383 0.0139259 63.8058 0.0378537 63.7818C0.0617815 63.7578 0.0942473 63.7442 0.128135 63.7441H90.688C90.722 63.7441 90.7545 63.7576 90.7785 63.7816C90.8026 63.8056 90.816 63.8382 90.816 63.8722C90.816 63.9061 90.8026 63.9387 90.7785 63.9627C90.7545 63.9867 90.722 64.0002 90.688 64.0002Z"
			fill="#3F3D56"/>
		<path
			d="M67.5682 29.3513C69.3496 29.3513 70.7937 27.9072 70.7937 26.1259C70.7937 24.3445 69.3496 22.9004 67.5682 22.9004C65.7869 22.9004 64.3428 24.3445 64.3428 26.1259C64.3428 27.9072 65.7869 29.3513 67.5682 29.3513Z"
			fill="#2F2E41"/>
		<path d="M61.6078 62.5881H60.2897L59.6626 57.5039H61.6081L61.6078 62.5881Z" fill="#A0616A"/>
		<path
			d="M59.3481 62.2109H61.8902V63.8115H57.7476C57.7476 63.6013 57.789 63.3932 57.8694 63.199C57.9498 63.0048 58.0677 62.8284 58.2164 62.6797C58.365 62.5311 58.5414 62.4132 58.7356 62.3328C58.9298 62.2523 59.1379 62.2109 59.3481 62.2109Z"
			fill="#2F2E41"/>
		<path d="M71.8219 62.5881H70.5038L69.8767 57.5039H71.8222L71.8219 62.5881Z" fill="#A0616A"/>
		<path
			d="M69.5622 62.2109H72.1043V63.8115H67.9617C67.9617 63.6013 68.0031 63.3932 68.0835 63.199C68.1639 63.0048 68.2818 62.8284 68.4305 62.6797C68.5791 62.5311 68.7555 62.4132 68.9497 62.3328C69.1439 62.2523 69.352 62.2109 69.5622 62.2109Z"
			fill="#2F2E41"/>
		<path
			d="M67.078 29.3693C68.5364 29.3693 69.7187 28.187 69.7187 26.7286C69.7187 25.2702 68.5364 24.0879 67.078 24.0879C65.6195 24.0879 64.4373 25.2702 64.4373 26.7286C64.4373 28.187 65.6195 29.3693 67.078 29.3693Z"
			fill="#A0616A"/>
		<path
			d="M68.652 37.8893L69.8335 35.1745C70.1205 34.5377 70.2028 33.8274 70.0689 33.1419C69.9351 32.4563 69.5918 31.8291 69.0863 31.347C68.9825 31.2443 68.8723 31.1485 68.7562 31.0599C68.1732 30.6038 67.4547 30.3552 66.7145 30.3535C66.2169 30.3554 65.7254 30.4647 65.2738 30.6739C65.2351 30.6911 65.1975 30.7094 65.1588 30.7277C65.0846 30.7632 65.0115 30.8019 64.9405 30.8416C64.4777 31.1074 64.0837 31.4782 63.7905 31.9242C63.4973 32.3702 63.313 32.8788 63.2525 33.4091L62.731 37.7786C62.5999 38.1215 57.9208 50.5073 59.5572 59.9634C59.5746 60.0643 59.6239 60.1571 59.6978 60.2281C59.7717 60.2991 59.8663 60.3446 59.9679 60.3579L61.6269 60.5837C61.748 60.6003 61.871 60.5704 61.9709 60.4999C62.0708 60.4295 62.1404 60.3238 62.1655 60.2042L64.9491 46.9357C64.9665 46.8532 65.011 46.779 65.0755 46.7248C65.14 46.6706 65.2208 46.6396 65.305 46.6368C65.3892 46.6339 65.4719 46.6594 65.5399 46.7091C65.608 46.7588 65.6574 46.8299 65.6802 46.9109L69.6132 60.8643C69.6412 60.9657 69.7017 61.0551 69.7854 61.1188C69.8691 61.1825 69.9714 61.217 70.0766 61.217C70.1079 61.2168 70.1392 61.2139 70.1701 61.2084L72.1967 60.8181C72.3146 60.7961 72.4199 60.7308 72.4921 60.6352C72.5643 60.5395 72.5982 60.4203 72.5871 60.301C72.2892 56.9798 70.7066 40.3439 68.652 37.8893Z"
			fill="#2F2E41"/>
		<path
			d="M56.8156 28.927C56.7973 29.0839 56.8136 29.243 56.8634 29.3931C56.9133 29.5431 56.9954 29.6803 57.104 29.7952C57.2126 29.91 57.345 29.9996 57.492 30.0577C57.639 30.1159 57.7969 30.141 57.9547 30.1315L59.4308 33.6787L60.5473 32.0236L58.9744 28.9088C58.9409 28.6449 58.8116 28.4024 58.6112 28.2273C58.4108 28.0522 58.1531 27.9568 57.887 27.959C57.6209 27.9613 57.3649 28.061 57.1674 28.2394C56.9699 28.4178 56.8448 28.6624 56.8156 28.927L56.8156 28.927Z"
			fill="#A0616A"/>
		<path
			d="M66.9315 41.4618C67.0884 41.4431 67.2394 41.3901 67.3736 41.3067C67.5079 41.2233 67.6222 41.1115 67.7086 40.9792C67.795 40.8468 67.8513 40.6971 67.8736 40.5406C67.8958 40.3841 67.8835 40.2247 67.8375 40.0735L70.9431 37.8115L69.0734 37.1113L66.4109 39.3667C66.162 39.4608 65.9563 39.643 65.8327 39.8787C65.7092 40.1144 65.6764 40.3872 65.7406 40.6455C65.8048 40.9038 65.9614 41.1295 66.1809 41.28C66.4004 41.4304 66.6675 41.4951 66.9315 41.4618Z"
			fill="#A0616A"/>
		<path
			d="M61.8689 36.0439C61.7498 36.0438 61.6311 36.032 61.5143 36.0089C61.2318 35.9551 60.9669 35.8327 60.7429 35.6524C60.5188 35.4721 60.3426 35.2395 60.2297 34.975L58.1617 32.4534C58.118 32.4001 58.0862 32.3381 58.0684 32.2715C58.0506 32.2049 58.0472 32.1352 58.0586 32.0672C58.0699 31.9992 58.0956 31.9344 58.134 31.8771C58.1724 31.8198 58.2226 31.7714 58.2812 31.7352L59.7525 30.8244C59.8068 30.7908 59.8672 30.7682 59.9303 30.7581C59.9934 30.7479 60.0578 30.7504 60.12 30.7653C60.1821 30.7802 60.2407 30.8072 60.2923 30.8449C60.3439 30.8825 60.3875 30.93 60.4207 30.9846L61.8782 33.3859L64.6695 31.323C64.8917 31.2065 65.1485 31.1738 65.3928 31.231C65.6372 31.2881 65.8528 31.4313 66.0003 31.6342C66.1479 31.8372 66.2175 32.0865 66.1964 32.3366C66.1753 32.5866 66.0649 32.8207 65.8855 32.9962L63.0995 35.5375C62.7722 35.862 62.3298 36.044 61.8689 36.0439Z"
			fill="#2F2E41"/>
		<path
			d="M69.411 39.8368C69.4073 39.8368 69.4034 39.8368 69.3997 39.8367C69.3318 39.8351 69.2651 39.8192 69.2038 39.7901C69.1424 39.761 69.0879 39.7194 69.0437 39.6679L67.7356 38.1419C67.6911 38.0899 67.6581 38.0291 67.6388 37.9634C67.6195 37.8977 67.6143 37.8287 67.6237 37.7609C67.633 37.6931 67.6567 37.628 67.693 37.57C67.7294 37.512 67.7776 37.4624 67.8346 37.4244L70.284 35.7915L68.065 33.1238C67.9359 32.9086 67.8886 32.6542 67.9316 32.4069C67.9746 32.1597 68.1052 31.9362 68.2994 31.7773C68.4936 31.6184 68.7385 31.5347 68.9893 31.5414C69.2402 31.5481 69.4802 31.6449 69.6656 31.814L72.3625 34.4495C72.5747 34.6434 72.7368 34.8859 72.8347 35.1562C72.9326 35.4265 72.9634 35.7165 72.9246 36.0014C72.8857 36.2862 72.7783 36.5574 72.6116 36.7916C72.4448 37.0258 72.2238 37.216 71.9673 37.346L69.7631 39.6849C69.7179 39.7328 69.6633 39.771 69.6027 39.7972C69.5422 39.8233 69.477 39.8368 69.411 39.8368Z"
			fill="#2F2E41"/>
		<path
			d="M66.4065 34.2124C66.3855 34.2124 66.3646 34.2111 66.3437 34.2084C66.2527 34.1974 66.1667 34.1604 66.0959 34.1019C66.0252 34.0434 65.9728 33.9659 65.9448 33.8785L64.9619 30.8649C64.9372 30.7887 64.941 30.7062 64.9725 30.6326C65.004 30.5589 65.0611 30.4992 65.1332 30.4644L65.1651 30.4494C65.1941 30.4356 65.2227 30.422 65.2519 30.409C65.7103 30.1964 66.2092 30.0856 66.7145 30.084C67.3704 30.0852 68.0117 30.2779 68.5596 30.6384C68.6331 30.6873 68.6844 30.7631 68.7025 30.8495C68.7206 30.9358 68.7041 31.0258 68.6565 31.1001L66.8126 33.9888C66.7694 34.0574 66.7094 34.1139 66.6384 34.153C66.5674 34.1921 66.4876 34.2126 66.4065 34.2124Z"
			fill="#E6E6E6"/>
		<path
			d="M70.1111 24.6851C70.694 24.6851 71.1666 24.2126 71.1666 23.6297C71.1666 23.0468 70.694 22.5742 70.1111 22.5742C69.5282 22.5742 69.0557 23.0468 69.0557 23.6297C69.0557 24.2126 69.5282 24.6851 70.1111 24.6851Z"
			fill="#2F2E41"/>
		<path
			d="M66.4929 22.4707C65.7515 22.4707 65.0405 22.7652 64.5163 23.2895C63.992 23.8137 63.6975 24.5247 63.6975 25.2661V26.4488H65.1521L65.8478 25.2661L66.0566 26.4488H70.471L69.2883 25.2661C69.2883 24.5247 68.9938 23.8137 68.4696 23.2895C67.9453 22.7652 67.2343 22.4707 66.4929 22.4707Z"
			fill="#2F2E41"/>
		<path
			d="M70.6536 22.9081C70.7703 22.5431 71.0119 22.231 71.336 22.0266C71.6601 21.8221 72.0459 21.7385 72.4255 21.7904C73.0981 21.9028 73.6299 22.4435 73.9468 23.0474C74.2637 23.6512 74.41 24.3271 74.623 24.9749C74.836 25.6227 75.1381 26.2741 75.6759 26.6934C76.2137 27.1128 77.0389 27.2265 77.5671 26.7951C77.5067 27.2447 77.3066 27.664 76.9949 27.9936C76.6833 28.3232 76.2759 28.5464 75.8303 28.6318C75.3848 28.7172 74.9238 28.6603 74.5123 28.4693C74.1009 28.2782 73.76 27.9627 73.5377 27.5672C73.259 27.0714 73.1871 26.4903 73.1044 25.9275C73.0218 25.3648 72.9144 24.7825 72.5817 24.3212C72.2489 23.8599 71.6261 23.5586 71.0976 23.7687L70.6536 22.9081Z"
			fill="#2F2E41"/>
		<path
			d="M36.3345 24.5175C35.3723 24.5174 34.4496 24.1351 33.7692 23.4547C33.0888 22.7742 32.7066 21.8515 32.7065 20.8892C32.7065 20.233 32.7069 19.7312 32.7079 19.6599C32.7385 17.4121 33.3046 15.204 34.3592 13.2188C32.6265 15.5909 31.6737 18.4428 31.6328 21.3801C31.6318 21.4515 31.6313 21.9532 31.6314 22.6095C31.6314 23.5717 32.0137 24.4945 32.694 25.1749C33.3744 25.8553 34.2972 26.2376 35.2594 26.2377C36.0501 26.2374 36.819 25.979 37.4495 25.5019C38.0799 25.0247 38.5374 24.3547 38.7523 23.5938C38.088 24.1896 37.2268 24.5185 36.3345 24.5175Z"
			fill="#3F3D56"/>
		<path
			d="M46.0977 14.9567C47.2101 15.0098 48.293 15.3321 49.2533 15.8959C50.2137 16.4597 51.0229 17.2482 51.6114 18.1936C52.2 19.1391 52.5502 20.2132 52.6322 21.3239C52.7141 22.4345 52.5253 23.5484 52.0819 24.57C52.7233 23.8168 53.1946 22.9342 53.4639 21.9823C53.7332 21.0304 53.7941 20.0317 53.6424 19.0541C53.4907 18.0766 53.13 17.1433 52.585 16.3178C52.0399 15.4923 51.3232 14.794 50.4838 14.2706C49.6443 13.7472 48.7019 13.4109 47.7208 13.2847C46.7396 13.1585 45.7428 13.2454 44.7983 13.5394C43.8537 13.8334 42.9837 14.3276 42.2474 14.9883C41.5112 15.649 40.9261 16.4607 40.532 17.368C41.2131 16.5667 42.0692 15.9326 43.0342 15.5145C43.9992 15.0965 45.0473 14.9056 46.0977 14.9567Z"
			fill="#3F3D56"/>
		<path
			d="M47.2138 47.0967C46.2322 47.0969 45.2899 46.7113 44.5902 46.0229C43.8904 45.3346 43.4893 44.3987 43.4733 43.4173C43.4278 40.5728 43.4043 37.0682 43.4043 36.6677C43.4036 35.6933 43.5439 34.7239 43.8207 33.7897L43.8194 33.7894C43.9829 33.3204 44.1803 32.8641 44.4101 32.4238C43.7046 33.364 43.1432 34.404 42.7443 35.5096L42.7456 35.5099C42.4687 36.4442 42.3285 37.4135 42.3291 38.3879C42.3291 38.7885 42.3527 42.293 42.3982 45.1375C42.4141 46.119 42.8152 47.0548 43.515 47.7432C44.2148 48.4315 45.1571 48.8172 46.1387 48.8169C46.948 48.8168 47.7355 48.5543 48.383 48.0687C49.0304 47.5831 49.5031 46.9007 49.7299 46.1238C49.0421 46.751 48.1446 47.098 47.2138 47.0967Z"
			fill="#3F3D56"/>
		<path d="M13.6051 62.637L14.9231 62.6369L15.5502 57.5527L13.6047 57.5528L13.6051 62.637Z" fill="#FFB8B8"/>
		<path
			d="M17.4653 63.8613L13.3227 63.8615L13.3226 62.2609L15.8647 62.2608C16.2892 62.2608 16.6963 62.4294 16.9965 62.7296C17.2967 63.0297 17.4653 63.4368 17.4653 63.8613L17.4653 63.8613Z"
			fill="#2F2E41"/>
		<path d="M8.87435 62.637L10.1924 62.6369L10.8195 57.5527L8.87402 57.5528L8.87435 62.637Z" fill="#FFB8B8"/>
		<path
			d="M12.7346 63.8613L8.59196 63.8615L8.59189 62.2609L11.134 62.2608C11.5585 62.2608 11.9656 62.4294 12.2658 62.7296C12.5659 63.0297 12.7346 63.4368 12.7346 63.8613L12.7346 63.8613Z"
			fill="#2F2E41"/>
		<path
			d="M10.0263 61.0729L8.73879 61.0052C8.6724 61.0017 8.60736 60.9851 8.54745 60.9563C8.48753 60.9275 8.43393 60.8871 8.38974 60.8374C8.34556 60.7877 8.31167 60.7298 8.29004 60.6669C8.26841 60.6041 8.25946 60.5375 8.26373 60.4712L9.80257 43.4336L16.889 45.3458L17.5718 45.1596L15.4367 60.2424C15.4185 60.3559 15.3622 60.4597 15.277 60.5368C15.1918 60.6139 15.0828 60.6597 14.9681 60.6665L13.5802 60.7312C13.5108 60.735 13.4414 60.7244 13.3763 60.7001C13.3112 60.6757 13.2518 60.6381 13.202 60.5897C13.1522 60.5412 13.1129 60.483 13.0868 60.4186C13.0606 60.3542 13.0481 60.285 13.05 60.2156L13.3015 51.1631C13.3027 51.1213 13.2881 51.0805 13.2607 51.0488C13.2333 51.0171 13.1951 50.9969 13.1535 50.992C13.1119 50.9872 13.07 50.9981 13.036 51.0226C13.0021 51.0471 12.9785 51.0834 12.97 51.1244L10.5448 60.6731C10.5219 60.7864 10.4604 60.8883 10.3708 60.9613C10.2812 61.0344 10.1691 61.0741 10.0535 61.0737C10.0445 61.0737 10.0354 61.0735 10.0263 61.0729Z"
			fill="#2F2E41"/>
		<path
			d="M13.8419 29.4943C15.3003 29.4943 16.4826 28.312 16.4826 26.8536C16.4826 25.3952 15.3003 24.2129 13.8419 24.2129C12.3835 24.2129 11.2012 25.3952 11.2012 26.8536C11.2012 28.312 12.3835 29.4943 13.8419 29.4943Z"
			fill="#FFB8B8"/>
		<path
			d="M9.4453 34.6115L9.73566 40.8762L9.84062 43.1554C9.8448 43.2546 9.87849 43.3503 9.93737 43.4303C9.99625 43.5103 10.0777 43.5708 10.1712 43.6043L16.9808 46.0711C17.0358 46.0915 17.0941 46.1017 17.1528 46.1012C17.2198 46.1016 17.2863 46.0884 17.3481 46.0624C17.41 46.0365 17.466 45.9984 17.5128 45.9503C17.5596 45.9023 17.5962 45.8453 17.6205 45.7828C17.6448 45.7202 17.6563 45.6535 17.6542 45.5864L17.375 34.3223C17.3567 33.3982 17.0165 32.5093 16.4131 31.8091C15.8097 31.1089 14.9809 30.6411 14.0696 30.4865C14.0037 30.4764 13.9367 30.4664 13.8697 30.4574C13.3046 30.3873 12.731 30.4418 12.1892 30.6172C11.6475 30.7926 11.1508 31.0845 10.734 31.4725C10.3024 31.8694 9.9633 32.3563 9.74062 32.8987C9.51794 33.4411 9.41712 34.0259 9.4453 34.6115L9.4453 34.6115Z"
			fill="#CCCCCC"/>
		<path
			d="M20.2336 44.8213C20.0726 44.7713 19.9254 44.6844 19.8039 44.5674C19.6824 44.4505 19.59 44.3068 19.5339 44.1477C19.4778 43.9887 19.4597 43.8187 19.4809 43.6514C19.5022 43.4842 19.5623 43.3242 19.6564 43.1842L17.3472 40.1136L19.3399 39.9902L21.2273 42.9251C21.4293 43.0813 21.5699 43.3037 21.6244 43.5532C21.6789 43.8027 21.6438 44.0635 21.5252 44.2897C21.4067 44.5159 21.2123 44.6932 20.9761 44.7904C20.7399 44.8876 20.4771 44.8985 20.2336 44.8213H20.2336Z"
			fill="#FFB8B8"/>
		<path
			d="M18.61 42.6282C18.5488 42.6034 18.4932 42.5666 18.4463 42.5202C18.3994 42.4737 18.3622 42.4184 18.3368 42.3574L14.8578 34.0686C14.7895 33.9063 14.7539 33.7321 14.7529 33.5561C14.752 33.38 14.7858 33.2055 14.8523 33.0425C14.9189 32.8795 15.0169 32.7312 15.1408 32.6061C15.2647 32.481 15.412 32.3815 15.5743 32.3134C15.7367 32.2453 15.9109 32.2098 16.0869 32.209C16.263 32.2082 16.4375 32.2421 16.6004 32.3088C16.7634 32.3755 16.9116 32.4736 17.0366 32.5976C17.1616 32.7216 17.2609 32.869 17.3289 33.0314L20.808 41.3203C20.8594 41.4432 20.8599 41.5815 20.8095 41.7048C20.7591 41.8281 20.6619 41.9264 20.5391 41.9781L18.9946 42.6263C18.9338 42.6521 18.8685 42.6655 18.8025 42.6658C18.7365 42.6661 18.671 42.6533 18.61 42.6282L18.61 42.6282Z"
			fill="#CCCCCC"/>
		<path
			d="M12.9929 42.3356L16.3344 35.9374C16.3989 35.8144 16.5095 35.7219 16.642 35.6803C16.7745 35.6387 16.9181 35.6514 17.0413 35.7156L21.8915 38.2486C22.0146 38.3131 22.107 38.4237 22.1486 38.5562C22.1902 38.6888 22.1775 38.8324 22.1134 38.9556L18.7719 45.3537C18.7074 45.4767 18.5968 45.5692 18.4643 45.6108C18.3318 45.6524 18.1881 45.6397 18.065 45.5755L13.2148 43.0425C13.0917 42.978 12.9993 42.8674 12.9577 42.7349C12.9161 42.6024 12.9287 42.4587 12.9929 42.3356Z"
			fill="#3F3D56"/>
		<path
			d="M15.2338 39.412C15.1744 39.2542 15.0789 39.1124 14.955 38.9981C14.8311 38.8837 14.6822 38.7999 14.5201 38.7533C14.358 38.7067 14.1873 38.6986 14.0216 38.7297C13.8558 38.7609 13.6996 38.8303 13.5655 38.9325L10.3638 36.8086L10.3584 38.8051L13.3996 40.5159C13.5675 40.7084 13.7977 40.8356 14.05 40.8753C14.3023 40.9149 14.5606 40.8645 14.7794 40.7328C14.9982 40.6011 15.1637 40.3965 15.2468 40.155C15.3299 39.9135 15.3253 39.6505 15.2338 39.412Z"
			fill="#FFB8B8"/>
		<path
			d="M11.1858 39.8611L8.56921 37.7885C8.28615 37.6934 8.03038 37.5311 7.82385 37.3155C7.61733 37.0998 7.46622 36.8373 7.3835 36.5503C7.30078 36.2634 7.28892 35.9607 7.34894 35.6682C7.40895 35.3757 7.53905 35.1022 7.72807 34.871L10.1039 31.7574C10.269 31.5557 10.5011 31.4201 10.758 31.3754C11.0148 31.3308 11.2791 31.38 11.5027 31.5142C11.7262 31.6484 11.8939 31.8585 11.9752 32.1062C12.0565 32.3539 12.046 32.6226 11.9456 32.8631L10.0658 35.9381L12.8283 37.2484C12.8925 37.2788 12.9496 37.3226 12.9956 37.3767C13.0417 37.4309 13.0758 37.4942 13.0956 37.5625C13.1154 37.6308 13.1205 37.7025 13.1105 37.7729C13.1005 37.8433 13.0757 37.9107 13.0377 37.9708L11.9226 39.7356C11.8849 39.7952 11.8351 39.8462 11.7765 39.8853C11.7178 39.9244 11.6516 39.9507 11.5821 39.9626C11.5794 39.9631 11.5766 39.9635 11.5738 39.9639C11.5056 39.9742 11.4359 39.9704 11.3692 39.9527C11.3024 39.9351 11.24 39.9039 11.1858 39.8611Z"
			fill="#CCCCCC"/>
		<path
			d="M11.8464 28.6207C11.835 28.5875 11.8314 28.5522 11.8359 28.5175C11.8403 28.4827 11.8526 28.4494 11.8719 28.4202C11.8911 28.3909 11.9168 28.3665 11.947 28.3487C11.9772 28.3309 12.011 28.3203 12.046 28.3176C12.1175 28.3215 12.1875 28.3398 12.2517 28.3715C12.3159 28.4032 12.3731 28.4476 12.4197 28.502C12.5153 28.6121 12.6265 28.7077 12.7499 28.7855C12.8776 28.8499 13.0509 28.8407 13.1237 28.7179C13.1921 28.6027 13.1452 28.4483 13.1038 28.3144C12.9985 27.9737 12.9395 27.6204 12.9286 27.264C12.9167 26.8661 12.9728 26.4509 13.1931 26.1406C13.4773 25.7402 13.9856 25.5881 14.4666 25.5991C14.9477 25.6102 15.4209 25.7587 15.8973 25.8525C16.0618 25.8849 16.2552 25.9015 16.3652 25.774C16.4822 25.6385 16.4392 25.4191 16.3895 25.236C16.2603 24.7611 16.1234 24.27 15.8234 23.8865C15.499 23.4879 15.0357 23.227 14.5266 23.1564C14.038 23.0959 13.5419 23.1522 13.0792 23.3207C12.3254 23.5583 11.6621 24.0204 11.178 24.6452C10.679 25.3096 10.4634 26.1446 10.5783 26.9675C10.6906 27.6843 11.0704 28.3319 11.6412 28.7797L11.8464 28.6207Z"
			fill="#2F2E41"/>
		<path
			d="M45.2918 62.6588C44.5892 62.3528 43.9674 61.8877 43.4753 61.3003C42.9833 60.7128 42.6345 60.019 42.4565 59.2736C42.2786 58.5283 42.2762 57.7517 42.4498 57.0053C42.6233 56.2589 42.9679 55.5631 43.4564 54.9727C42.89 55.3862 42.4181 55.9155 42.0719 56.5254C41.7256 57.1353 41.5131 57.8119 41.4484 58.5102C41.3836 59.2085 41.4681 59.9126 41.6963 60.5757C41.9245 61.2389 42.2911 61.8459 42.7718 62.3566C43.2525 62.8672 43.8363 63.2698 44.4845 63.5375C45.1327 63.8053 45.8304 63.9321 46.5314 63.9096C47.2323 63.8871 47.9205 63.7158 48.5502 63.407C49.1798 63.0982 49.7366 62.659 50.1836 62.1186C49.4864 62.6281 48.668 62.9461 47.8097 63.0409C46.9514 63.1357 46.0833 63.004 45.2918 62.6588Z"
			fill="#3F3D56"/>
	</g>
	<defs>
		<clipPath id="clip0_3726_16949">
			<rect width="90.8159" height="64" fill="white"/>
		</clipPath>
	</defs>
</svg>
