<svg width="103" height="96" viewBox="0 0 103 96" fill="none" xmlns="http://www.w3.org/2000/svg">
<g clip-path="url(#clip0_3366_18575)">
<path d="M69.3997 68.0547H32.4665C29.362 68.0547 26.8364 65.5291 26.8364 62.4246V25.4914C26.8364 22.3869 29.362 19.8613 32.4665 19.8613H69.3997C72.5042 19.8613 75.0298 22.3869 75.0298 25.4914V62.4246C75.0298 65.5291 72.5042 68.0547 69.3997 68.0547ZM32.4665 20.7621C29.8546 20.7621 27.7372 22.8795 27.7372 25.4914V62.4246C27.7372 65.0365 29.8546 67.1539 32.4665 67.1539H58.3373C67.0588 67.1539 74.129 60.0837 74.129 51.3622V25.4914C74.129 22.8795 72.0116 20.7621 69.3997 20.7621H32.4665V20.7621Z" fill="#F2F2F2"/>
<path d="M36.4484 24.6035C34.7003 24.6035 33.2783 26.0255 33.2783 27.7736V32.7354C33.2783 34.4834 34.7003 35.9054 36.4484 35.9054H41.4102C43.1582 35.9054 44.5802 34.4834 44.5802 32.7354V27.7736C44.5802 26.0255 43.1582 24.6035 41.4102 24.6035H36.4484Z" fill="#F2F2F2"/>
<path d="M36.4484 38.5723C34.7003 38.5723 33.2783 39.9943 33.2783 41.7423V46.7041C33.2783 48.4521 34.7003 49.8742 36.4484 49.8742H41.4102C43.1582 49.8742 44.5802 48.4521 44.5802 46.7041V41.7423C44.5802 39.9943 43.1582 38.5723 41.4102 38.5723H36.4484Z" fill="#F2F2F2"/>
<path d="M36.4484 52.5391C34.7003 52.5391 33.2783 53.9611 33.2783 55.7091V60.6709C33.2783 62.4189 34.7003 63.841 36.4484 63.841H41.4102C43.1582 63.841 44.5802 62.4189 44.5802 60.6709V55.7091C44.5802 53.9611 43.1582 52.5391 41.4102 52.5391H36.4484Z" fill="#F2F2F2"/>
<path d="M39.7387 12.498C37.5362 12.498 35.7444 14.2898 35.7444 16.4924V22.7444C35.7444 24.947 37.5362 26.7388 39.7387 26.7388H45.9908C48.1933 26.7388 49.9851 24.947 49.9851 22.7444V16.4924C49.9851 14.2898 48.1933 12.498 45.9908 12.498H39.7387Z" fill="#C5C9D9"/>
<path d="M60.322 29.9707C58.1194 29.9707 56.3276 31.7625 56.3276 33.9651V40.2171C56.3276 42.4196 58.1194 44.2114 60.322 44.2114H66.574C68.7766 44.2114 70.5684 42.4196 70.5684 40.2171V33.9651C70.5684 31.7625 68.7766 29.9707 66.574 29.9707H60.322Z" fill="#C5C9D9"/>
<path d="M51.3734 92.8989L50.1033 92.8882L49.541 87.875L51.4156 87.8908L51.3734 92.8989Z" fill="#A0616A"/>
<path d="M47.305 94.9177C47.3022 95.2303 47.5542 95.4877 47.8679 95.4905L50.3932 95.5116L50.8353 94.6155L50.9977 95.5162L51.9505 95.5248L51.7099 92.3124L51.3784 92.2904L50.0262 92.1972L49.59 92.168L49.5823 93.0769L47.5538 94.4528C47.3994 94.5576 47.3065 94.7313 47.305 94.9177H47.305Z" fill="#2F2E41"/>
<path d="M57.8355 92.8989L56.5654 92.8882L56.0032 87.875L57.8777 87.8908L57.8355 92.8989Z" fill="#A0616A"/>
<path d="M53.7671 94.9177C53.7644 95.2303 54.0164 95.4877 54.3301 95.4905L56.8554 95.5116L57.2975 94.6155L57.4598 95.5162L58.4127 95.5248L58.1721 92.3124L57.8406 92.2904L56.4884 92.1972L56.0522 92.168L56.0445 93.0769L54.0159 94.4528C53.8616 94.5576 53.7687 94.7313 53.7671 94.9177Z" fill="#2F2E41"/>
<path d="M46.3894 52.3672L51.5378 52.5298L56.4152 53.6136C56.4152 53.6136 55.9274 54.2098 57.5532 55.8356C57.5532 55.8356 59.721 59.6291 58.2036 63.3142L57.5532 78.0548C57.5532 78.0548 59.4493 88.446 58.0006 91.7531L56.0859 91.8728L52.846 78.1747L51.2668 63.4226L50.5081 77.9464C50.5081 77.9464 53.4107 87.9153 51.5778 91.8728L49.5041 91.7531L45.9559 77.9464C45.9559 77.9464 44.4385 62.0136 44.6552 58.9788C44.872 55.944 46.3894 52.3672 46.3894 52.3672H46.3894Z" fill="#2F2E41"/>
<path d="M63.6789 29.0756C62.9751 29.2578 62.5522 29.9761 62.7345 30.6799C62.818 31.0023 63.0148 31.2647 63.2704 31.438L63.2703 31.4398L63.1705 33.8581L65.0211 34.7146L65.1688 30.9932L65.1559 30.9936C65.3164 30.7077 65.3718 30.3623 65.2832 30.0199C65.1009 29.3161 64.3827 28.8933 63.6789 29.0756V29.0756Z" fill="#A0616A"/>
<path d="M53.3356 37.7068C52.9469 37.3215 52.7213 36.799 52.7129 36.2309C52.7016 35.4687 53.0835 34.777 53.7345 34.3805C54.4843 33.9239 55.4218 33.9701 56.1231 34.4981L61.9344 38.8735L62.9699 32.5703L65.193 33.286L64.6625 41.4936C64.6254 42.0678 64.3009 42.5735 63.7945 42.8465C63.2881 43.1196 62.6873 43.1127 62.1872 42.8283L53.7891 38.0502C53.6204 37.9542 53.4684 37.8385 53.3356 37.7068V37.7068Z" fill="#3F3D56"/>
<path d="M44.4744 25.5482C44.8459 26.1731 44.6404 26.9809 44.0155 27.3524C43.7292 27.5226 43.4047 27.5704 43.1011 27.5135L43.0999 27.5148L41.4682 29.3025L39.551 28.6077L42.0662 25.861L42.0751 25.8704C42.1624 25.5544 42.3661 25.2701 42.6702 25.0893C43.2951 24.7178 44.1029 24.9233 44.4744 25.5482Z" fill="#A0616A"/>
<path d="M45.1792 38.885L35.8512 36.3653C35.2958 36.2152 34.8644 35.7971 34.697 35.2466C34.5296 34.6962 34.6552 34.1086 35.0331 33.6748L40.435 27.4727L42.5176 28.5296L38.8152 33.7349L46.0226 34.7191C46.8923 34.8379 47.5906 35.4652 47.8016 36.3173C47.9848 37.0572 47.769 37.8174 47.2243 38.3506C46.8183 38.7482 46.2903 38.9604 45.7429 38.9603C45.556 38.9603 45.3666 38.9356 45.1792 38.885H45.1792Z" fill="#3F3D56"/>
<path d="M58.4779 54.5356L45.4338 55.1339C45.0756 54.5899 45.1726 53.7719 45.6743 52.7475C47.5686 48.8798 46.13 41.5628 45.1622 37.7528C44.8907 36.6839 45.6196 35.6211 46.717 35.5114L47.9469 35.3884L49.0838 31.918H53.0654L54.7172 33.8051L57.5205 35.5081C57.0103 40.7639 54.8361 48.1857 57.9334 51.9076C58.6109 52.7216 58.803 53.6019 58.4779 54.5356Z" fill="#3F3D56"/>
<path d="M50.5682 31.9986C52.71 31.9986 54.4464 30.2623 54.4464 28.1204C54.4464 25.9785 52.71 24.2422 50.5682 24.2422C48.4263 24.2422 46.6899 25.9785 46.6899 28.1204C46.6899 30.2623 48.4263 31.9986 50.5682 31.9986Z" fill="#A0616A"/>
<path d="M54.9567 25.6385C55.4963 23.6712 49.6154 21.9843 48.4726 23.5685C48.3137 23.3433 47.7264 23.2064 47.457 23.2755C47.1875 23.3446 46.9609 23.5174 46.7398 23.6846C46.4358 23.9181 46.1208 24.1599 45.9342 24.4957C45.7463 24.8301 45.7173 25.2861 45.9701 25.5763C46.1705 25.807 46.5226 27.0333 46.8238 27.0941C47.0339 27.1369 47.2107 27.1715 47.3627 27.1964C47.4982 26.9988 47.8435 26.7505 47.8186 26.5115C48.0231 26.6469 47.9484 26.8852 47.9072 27.1286C47.7699 27.9395 44.6766 34.2161 46.4483 32.3665C46.6237 32.4702 46.8407 32.5669 47.0908 32.6553C47.515 32.0156 47.8632 31.2611 48.0926 30.4721L48.0942 30.4866C48.1732 31.1723 48.6743 31.7349 49.3373 31.927C51.9967 32.6975 54.1479 31.5669 54.8879 29.5282C54.617 28.9783 54.499 29.038 54.5232 29.0216C54.8614 28.7937 55.3262 28.9428 55.4715 29.3238C55.5144 29.4361 55.5533 29.5321 55.5871 29.6042C55.9726 28.2252 56.4311 28.4242 54.9567 25.6385H54.9567Z" fill="#2F2E41"/>
<path d="M53.122 24.2104L52.8504 22.8216C52.8276 22.7048 52.8059 22.5782 52.8585 22.4715C52.9262 22.3344 53.1 22.2776 53.2513 22.2995C53.4026 22.3213 53.5157 22.4595 53.6662 22.4861C54.1895 22.5786 54.8812 22.0617 55.0687 23.3693C55.1469 23.9145 56.0168 23.9721 56.3074 24.44C56.5979 24.9079 56.6336 25.5833 56.2371 25.9655C55.9204 26.2708 55.4118 26.3061 55.0006 26.1501C54.5893 25.9942 54.2592 25.6792 53.9708 25.347C53.6825 25.0148 53.4214 24.6553 53.0888 24.3674" fill="#2F2E41"/>
<path d="M55.1637 26.3229C54.1025 26.1747 53.3792 25.7887 53.0138 25.1759C52.5356 24.3737 52.8559 23.4903 52.8698 23.4531L53.0941 23.5365C53.0911 23.5446 52.8005 24.3532 53.2206 25.0554C53.5475 25.6016 54.2124 25.9484 55.1968 26.0859L55.1637 26.3229Z" fill="#C5C9D9"/>
<path d="M60.1438 11.3165C57.0241 11.3165 54.4856 8.77801 54.4856 5.65824C54.4856 2.53847 57.0241 0 60.1438 0C63.2636 0 65.8021 2.53847 65.8021 5.65824C65.8021 8.77801 63.2636 11.3165 60.1438 11.3165ZM60.1438 2.2633C58.2718 2.2633 56.7489 3.78616 56.7489 5.65824C56.7489 7.53033 58.2718 9.05319 60.1438 9.05319C62.0159 9.05319 63.5388 7.53033 63.5388 5.65824C63.5388 3.78616 62.0159 2.2633 60.1438 2.2633Z" fill="#C5C9D9"/>
<path d="M68.8494 15.1608C68.572 15.1608 68.294 15.0597 68.0758 14.8547L62.7651 9.87776C62.3087 9.45063 62.2855 8.7345 62.7131 8.27864C63.1397 7.82112 63.8558 7.79846 64.3123 8.2267L69.6229 13.2036C70.0794 13.6308 70.1026 14.3469 69.6749 14.8027C69.4522 15.0409 69.1511 15.1608 68.8494 15.1608Z" fill="#C5C9D9"/>
<path d="M92.851 92.7714C93.2358 92.7955 93.4484 92.3175 93.1573 92.0389L93.1284 91.9237C93.1322 91.9145 93.136 91.9053 93.1399 91.8961C93.529 90.9683 94.8477 90.9747 95.2335 91.9039C95.5759 92.7286 96.0119 93.5547 96.1192 94.4267C96.1673 94.8116 96.1457 95.2038 96.0603 95.5815C96.8626 93.8288 97.2848 91.915 97.2848 89.9904C97.2848 89.5068 97.2584 89.0232 97.2043 88.5408C97.1597 88.1463 97.0984 87.7541 97.019 87.3656C96.5896 85.2653 95.6597 83.2649 94.3185 81.594C93.6737 81.2416 93.136 80.6906 92.8112 80.0302C92.6945 79.7921 92.6031 79.5358 92.5598 79.2748C92.6332 79.2844 92.8365 78.1669 92.7811 78.0984C92.8834 77.9432 93.0664 77.8661 93.1781 77.7146C93.7335 76.9616 94.4988 77.0931 94.8983 78.1164C95.7517 78.5471 95.7599 79.2614 95.2363 79.9484C94.9032 80.3855 94.8574 80.9769 94.5651 81.4449C94.5951 81.4834 94.6264 81.5207 94.6565 81.5592C95.208 82.2665 95.6849 83.0267 96.087 83.8254C95.9734 82.9378 96.1412 81.8684 96.4272 81.179C96.7528 80.3936 97.363 79.7321 97.9004 79.0531C98.5459 78.2375 99.8696 78.5934 99.9834 79.6273C99.9845 79.6373 99.9855 79.6473 99.9866 79.6573C99.9068 79.7024 99.8286 79.7502 99.7522 79.8007C99.3165 80.0889 99.4671 80.7643 99.9833 80.844L99.995 80.8458C99.9661 81.1333 99.9168 81.4184 99.8446 81.6987C100.534 84.3649 99.0457 85.336 96.9204 85.3796C96.8735 85.4036 96.8277 85.4277 96.7808 85.4506C96.9961 86.0568 97.1682 86.6787 97.2957 87.3091C97.4099 87.866 97.4893 88.429 97.5338 88.9943C97.5892 89.7077 97.5844 90.4246 97.5242 91.1367L97.5278 91.1115C97.6806 90.3272 98.1064 89.5946 98.7247 89.087C99.6458 88.3303 100.947 88.0517 101.941 87.4435C102.419 87.1508 103.032 87.5291 102.949 88.0836L102.945 88.1102C102.797 88.1703 102.652 88.2401 102.513 88.3183C102.433 88.3633 102.355 88.4112 102.278 88.4617C101.843 88.7499 101.993 89.4253 102.509 89.505L102.521 89.5068C102.53 89.508 102.537 89.5092 102.545 89.5104C102.291 90.113 101.938 90.6724 101.495 91.1548C101.064 93.4823 99.2125 93.7031 97.2319 93.0253H97.2307C97.0142 93.9684 96.6978 94.8898 96.2912 95.7679H92.9351C92.9231 95.7306 92.9123 95.6921 92.9014 95.6549C93.2118 95.6741 93.5245 95.6561 93.8301 95.5995C93.5811 95.294 93.3321 94.986 93.0831 94.6805C93.0771 94.6745 93.0723 94.6685 93.0674 94.6625C92.9411 94.5061 92.8136 94.3509 92.6873 94.1945L92.6873 94.1943C92.6794 93.7143 92.7369 93.2358 92.8509 92.7715L92.851 92.7714Z" fill="#F2F2F2"/>
<path d="M0 95.7783C0 95.9012 0.0987138 95.9999 0.221639 95.9999H102.709C102.832 95.9999 102.93 95.9012 102.93 95.7783C102.93 95.6554 102.832 95.5566 102.709 95.5566H0.221639C0.0987138 95.5566 0 95.6554 0 95.7783Z" fill="#CCCCCC"/>
</g>
<defs>
<clipPath id="clip0_3366_18575">
<rect width="102.956" height="96" fill="white"/>
</clipPath>
</defs>
</svg>
