<svg width="103" height="96" viewBox="0 0 103 96" fill="none" xmlns="http://www.w3.org/2000/svg">
	<g clip-path="url(#clip0_3366_18251)">
		<path
			d="M69.3997 68.0547H32.4665C29.362 68.0547 26.8364 65.5291 26.8364 62.4246V25.4914C26.8364 22.3869 29.362 19.8613 32.4665 19.8613H69.3997C72.5042 19.8613 75.0298 22.3869 75.0298 25.4914V62.4246C75.0298 65.5291 72.5042 68.0547 69.3997 68.0547ZM32.4665 20.7621C29.8546 20.7621 27.7372 22.8795 27.7372 25.4914V62.4246C27.7372 65.0365 29.8546 67.1539 32.4665 67.1539H58.3373C67.0588 67.1539 74.129 60.0837 74.129 51.3622V25.4914C74.129 22.8795 72.0116 20.7621 69.3997 20.7621H32.4665V20.7621Z"
			fill="#F2F2F2"/>
		<path
			d="M36.4484 24.6035C34.7003 24.6035 33.2783 26.0255 33.2783 27.7736V32.7354C33.2783 34.4834 34.7003 35.9054 36.4484 35.9054H41.4102C43.1582 35.9054 44.5802 34.4834 44.5802 32.7354V27.7736C44.5802 26.0255 43.1582 24.6035 41.4102 24.6035H36.4484Z"
			fill="#F2F2F2"/>
		<path
			d="M36.4484 38.5723C34.7003 38.5723 33.2783 39.9943 33.2783 41.7423V46.7041C33.2783 48.4521 34.7003 49.8742 36.4484 49.8742H41.4102C43.1582 49.8742 44.5802 48.4521 44.5802 46.7041V41.7423C44.5802 39.9943 43.1582 38.5723 41.4102 38.5723H36.4484Z"
			fill="#F2F2F2"/>
		<path
			d="M36.4484 52.5391C34.7003 52.5391 33.2783 53.9611 33.2783 55.7091V60.6709C33.2783 62.4189 34.7003 63.841 36.4484 63.841H41.4102C43.1582 63.841 44.5802 62.4189 44.5802 60.6709V55.7091C44.5802 53.9611 43.1582 52.5391 41.4102 52.5391H36.4484Z"
			fill="#F2F2F2"/>
		<path
			d="M39.739 12.498C37.5364 12.498 35.7446 14.2898 35.7446 16.4924V22.7444C35.7446 24.947 37.5364 26.7388 39.739 26.7388H45.991C48.1936 26.7388 49.9854 24.947 49.9854 22.7444V16.4924C49.9854 14.2898 48.1936 12.498 45.991 12.498H39.739Z"
			fill="#C5C9D9"/>
		<path
			d="M60.322 29.9707C58.1194 29.9707 56.3276 31.7625 56.3276 33.9651V40.2171C56.3276 42.4196 58.1194 44.2114 60.322 44.2114H66.574C68.7766 44.2114 70.5684 42.4196 70.5684 40.2171V33.9651C70.5684 31.7625 68.7766 29.9707 66.574 29.9707H60.322Z"
			fill="#C5C9D9"/>
		<path d="M51.3734 92.8989L50.1033 92.8882L49.541 87.875L51.4156 87.8908L51.3734 92.8989Z" fill="#A0616A"/>
		<path
			d="M47.3052 94.9177C47.3024 95.2303 47.5544 95.4877 47.8682 95.4905L50.3935 95.5116L50.8356 94.6155L50.9979 95.5162L51.9508 95.5248L51.7102 92.3124L51.3786 92.2904L50.0265 92.1972L49.5902 92.168L49.5826 93.0769L47.554 94.4528C47.3997 94.5576 47.3067 94.7313 47.3052 94.9177H47.3052Z"
			fill="#2F2E41"/>
		<path d="M57.8358 92.8989L56.5657 92.8882L56.0034 87.875L57.878 87.8908L57.8358 92.8989Z" fill="#A0616A"/>
		<path
			d="M53.7676 94.9177C53.7648 95.2303 54.0168 95.4877 54.3306 95.4905L56.8559 95.5116L57.298 94.6155L57.4603 95.5162L58.4132 95.5248L58.1726 92.3124L57.841 92.2904L56.4889 92.1972L56.0526 92.168L56.045 93.0769L54.0164 94.4528C53.8621 94.5576 53.7691 94.7313 53.7676 94.9177Z"
			fill="#2F2E41"/>
		<path
			d="M46.3897 52.3672L51.538 52.5298L56.4154 53.6136C56.4154 53.6136 55.9277 54.2098 57.5535 55.8356C57.5535 55.8356 59.7212 59.6291 58.2038 63.3142L57.5535 78.0548C57.5535 78.0548 59.4496 88.446 58.0009 91.7531L56.0862 91.8728L52.8462 78.1747L51.2671 63.4226L50.5084 77.9464C50.5084 77.9464 53.4109 87.9153 51.5781 91.8728L49.5043 91.7531L45.9561 77.9464C45.9561 77.9464 44.4387 62.0136 44.6555 58.9788C44.8722 55.944 46.3897 52.3672 46.3897 52.3672H46.3897Z"
			fill="#2F2E41"/>
		<path
			d="M63.6791 29.0756C62.9753 29.2578 62.5525 29.9761 62.7347 30.6799C62.8182 31.0023 63.015 31.2647 63.2706 31.438L63.2706 31.4398L63.1707 33.8581L65.0213 34.7146L65.1691 30.9932L65.1562 30.9936C65.3166 30.7077 65.3721 30.3623 65.2834 30.0199C65.1012 29.3161 64.3829 28.8933 63.6791 29.0756V29.0756Z"
			fill="#A0616A"/>
		<path
			d="M53.3359 37.7068C52.9471 37.3215 52.7216 36.799 52.7131 36.2309C52.7018 35.4687 53.0837 34.777 53.7348 34.3805C54.4845 33.9239 55.4221 33.9701 56.1233 34.4981L61.9346 38.8735L62.9701 32.5703L65.1932 33.286L64.6628 41.4936C64.6256 42.0678 64.3012 42.5735 63.7948 42.8465C63.2883 43.1196 62.6875 43.1127 62.1875 42.8283L53.7893 38.0502C53.6206 37.9542 53.4687 37.8385 53.3359 37.7068V37.7068Z"
			fill="#3F3D56"/>
		<path
			d="M44.4746 25.5482C44.8461 26.1731 44.6407 26.9809 44.0157 27.3524C43.7294 27.5226 43.4049 27.5704 43.1014 27.5135L43.1002 27.5148L41.4684 29.3025L39.5513 28.6077L42.0664 25.861L42.0753 25.8704C42.1626 25.5544 42.3664 25.2701 42.6704 25.0893C43.2954 24.7178 44.1031 24.9233 44.4746 25.5482Z"
			fill="#A0616A"/>
		<path
			d="M45.1794 38.885L35.8515 36.3653C35.2961 36.2152 34.8646 35.7971 34.6972 35.2466C34.5298 34.6962 34.6555 34.1086 35.0333 33.6748L40.4353 27.4727L42.5179 28.5296L38.8154 33.7349L46.0229 34.7191C46.8926 34.8379 47.5909 35.4652 47.8018 36.3173C47.985 37.0572 47.7692 37.8174 47.2246 38.3506C46.8186 38.7482 46.2906 38.9604 45.7432 38.9603C45.5562 38.9603 45.3668 38.9356 45.1794 38.885H45.1794Z"
			fill="#3F3D56"/>
		<path
			d="M58.4781 54.5356L45.4341 55.1339C45.0758 54.5899 45.1729 53.7719 45.6746 52.7475C47.5689 48.8798 46.1302 41.5628 45.1624 37.7528C44.8909 36.6839 45.6198 35.6211 46.7173 35.5114L47.9472 35.3884L49.084 31.918H53.0656L54.7175 33.8051L57.5208 35.5081C57.0105 40.7639 54.8363 48.1857 57.9337 51.9076C58.6111 52.7216 58.8032 53.6019 58.4781 54.5356Z"
			fill="#3F3D56"/>
		<path
			d="M50.5682 31.9986C52.71 31.9986 54.4464 30.2623 54.4464 28.1204C54.4464 25.9785 52.71 24.2422 50.5682 24.2422C48.4263 24.2422 46.6899 25.9785 46.6899 28.1204C46.6899 30.2623 48.4263 31.9986 50.5682 31.9986Z"
			fill="#A0616A"/>
		<path
			d="M54.957 25.6385C55.4965 23.6712 49.6157 21.9843 48.4729 23.5685C48.314 23.3433 47.7267 23.2064 47.4572 23.2755C47.1878 23.3446 46.9612 23.5174 46.7401 23.6846C46.4361 23.9181 46.121 24.1599 45.9345 24.4957C45.7465 24.8301 45.7175 25.2861 45.9704 25.5763C46.1707 25.807 46.5228 27.0333 46.8241 27.0941C47.0341 27.1369 47.211 27.1715 47.363 27.1964C47.4984 26.9988 47.8437 26.7505 47.8189 26.5115C48.0234 26.6469 47.9486 26.8852 47.9074 27.1286C47.7701 27.9395 44.6768 34.2161 46.4485 32.3665C46.624 32.4702 46.8409 32.5669 47.091 32.6553C47.5153 32.0156 47.8635 31.2611 48.0929 30.4721L48.0945 30.4866C48.1735 31.1723 48.6746 31.7349 49.3375 31.927C51.9969 32.6975 54.1481 31.5669 54.8881 29.5282C54.6172 28.9783 54.4992 29.038 54.5235 29.0216C54.8616 28.7937 55.3264 28.9428 55.4718 29.3238C55.5146 29.4361 55.5536 29.5321 55.5873 29.6042C55.9728 28.2252 56.4314 28.4242 54.957 25.6385H54.957Z"
			fill="#2F2E41"/>
		<path
			d="M53.1223 24.2104L52.8506 22.8216C52.8278 22.7048 52.8061 22.5782 52.8588 22.4715C52.9264 22.3344 53.1003 22.2776 53.2515 22.2995C53.4028 22.3213 53.516 22.4595 53.6665 22.4861C54.1898 22.5786 54.8815 22.0617 55.069 23.3693C55.1471 23.9145 56.0171 23.9721 56.3076 24.44C56.5982 24.9079 56.6338 25.5833 56.2373 25.9655C55.9206 26.2708 55.4121 26.3061 55.0008 26.1501C54.5895 25.9942 54.2594 25.6792 53.9711 25.347C53.6828 25.0148 53.4217 24.6553 53.0891 24.3674"
			fill="#2F2E41"/>
		<path
			d="M55.1642 26.3229C54.103 26.1747 53.3797 25.7887 53.0143 25.1759C52.5361 24.3737 52.8564 23.4903 52.8702 23.4531L53.0946 23.5365C53.0916 23.5446 52.801 24.3532 53.2211 25.0554C53.5479 25.6016 54.2129 25.9484 55.1973 26.0859L55.1642 26.3229Z"
			fill="#C5C9D9"/>
		<path
			d="M60.1436 11.3165C57.0238 11.3165 54.4854 8.77801 54.4854 5.65824C54.4854 2.53847 57.0238 0 60.1436 0C63.2634 0 65.8018 2.53847 65.8018 5.65824C65.8018 8.77801 63.2634 11.3165 60.1436 11.3165ZM60.1436 2.2633C58.2715 2.2633 56.7486 3.78616 56.7486 5.65824C56.7486 7.53033 58.2715 9.05319 60.1436 9.05319C62.0157 9.05319 63.5385 7.53033 63.5385 5.65824C63.5385 3.78616 62.0157 2.2633 60.1436 2.2633Z"
			fill="#C5C9D9"/>
		<path
			d="M68.8496 15.1608C68.5722 15.1608 68.2943 15.0597 68.076 14.8547L62.7653 9.87776C62.3089 9.45063 62.2857 8.7345 62.7134 8.27864C63.14 7.82112 63.8561 7.79846 64.3125 8.2267L69.6232 13.2036C70.0796 13.6308 70.1028 14.3469 69.6751 14.8027C69.4524 15.0409 69.1513 15.1608 68.8496 15.1608Z"
			fill="#C5C9D9"/>
		<path
			d="M92.8513 92.7714C93.236 92.7955 93.4487 92.3175 93.1576 92.0389L93.1286 91.9237C93.1324 91.9145 93.1363 91.9053 93.1401 91.8961C93.5292 90.9683 94.8479 90.9747 95.2337 91.9039C95.5762 92.7286 96.0121 93.5547 96.1195 94.4267C96.1676 94.8116 96.1459 95.2038 96.0605 95.5815C96.8629 93.8288 97.2851 91.915 97.2851 89.9904C97.2851 89.5068 97.2586 89.0232 97.2045 88.5408C97.16 88.1463 97.0986 87.7541 97.0192 87.3656C96.5898 85.2653 95.6599 83.2649 94.3187 81.594C93.6739 81.2416 93.1362 80.6906 92.8115 80.0302C92.6948 79.7921 92.6034 79.5358 92.5601 79.2748C92.6334 79.2844 92.8367 78.1669 92.7814 78.0984C92.8836 77.9432 93.0667 77.8661 93.1783 77.7146C93.7338 76.9616 94.499 77.0931 94.8985 78.1164C95.7519 78.5471 95.7602 79.2614 95.2365 79.9484C94.9034 80.3855 94.8576 80.9769 94.5653 81.4449C94.5954 81.4834 94.6267 81.5207 94.6567 81.5592C95.2082 82.2665 95.6852 83.0267 96.0873 83.8254C95.9736 82.9378 96.1414 81.8684 96.4274 81.179C96.753 80.3936 97.3633 79.7321 97.9007 79.0531C98.5462 78.2375 99.8699 78.5934 99.9836 79.6273C99.9847 79.6373 99.9858 79.6473 99.9868 79.6573C99.907 79.7024 99.8288 79.7502 99.7524 79.8007C99.3167 80.0889 99.4673 80.7643 99.9836 80.844L99.9953 80.8458C99.9664 81.1333 99.9171 81.4184 99.8449 81.6987C100.534 84.3649 99.0459 85.336 96.9206 85.3796C96.8737 85.4036 96.828 85.4277 96.7811 85.4506C96.9964 86.0568 97.1684 86.6787 97.2959 87.3091C97.4102 87.866 97.4896 88.429 97.5341 88.9943C97.5894 89.7077 97.5846 90.4246 97.5245 91.1367L97.5281 91.1115C97.6808 90.3272 98.1067 89.5946 98.725 89.087C99.6461 88.3303 100.947 88.0517 101.941 87.4435C102.419 87.1508 103.032 87.5291 102.949 88.0836L102.945 88.1102C102.797 88.1703 102.652 88.2401 102.513 88.3183C102.433 88.3633 102.355 88.4112 102.279 88.4617C101.843 88.7499 101.993 89.4253 102.51 89.505L102.521 89.5068C102.53 89.508 102.537 89.5092 102.545 89.5104C102.292 90.113 101.938 90.6724 101.495 91.1548C101.064 93.4823 99.2127 93.7031 97.2322 93.0253H97.231C97.0144 93.9684 96.6981 94.8898 96.2915 95.7679H92.9354C92.9233 95.7306 92.9125 95.6921 92.9017 95.6549C93.212 95.6741 93.5248 95.6561 93.8303 95.5995C93.5813 95.294 93.3323 94.986 93.0833 94.6805C93.0773 94.6745 93.0725 94.6685 93.0677 94.6625C92.9414 94.5061 92.8139 94.3509 92.6876 94.1945L92.6875 94.1943C92.6796 93.7143 92.7371 93.2358 92.8512 92.7715L92.8513 92.7714Z"
			fill="#F2F2F2"/>
		<path
			d="M0 95.7783C0 95.9012 0.0987138 95.9999 0.221639 95.9999H102.709C102.832 95.9999 102.93 95.9012 102.93 95.7783C102.93 95.6554 102.832 95.5566 102.709 95.5566H0.221639C0.0987138 95.5566 0 95.6554 0 95.7783Z"
			fill="#CCCCCC"/>
	</g>
	<defs>
		<clipPath id="clip0_3366_18251">
			<rect width="102.956" height="96" fill="white"/>
		</clipPath>
	</defs>
</svg>
