<svg width="172" height="64" viewBox="0 0 172 64" fill="none" xmlns="http://www.w3.org/2000/svg">
<path d="M0 8C0 3.58172 3.58172 0 8 0H164C168.418 0 172 3.58172 172 8V56C172 60.4183 168.418 64 164 64H8C3.58173 64 0 60.4183 0 56V8Z" fill="#162565"/>
<path d="M44.3047 31.0175C44.2674 26.9748 47.6998 25.008 47.8568 24.9165C45.9129 22.1532 42.8999 21.7756 41.8411 21.7455C39.3106 21.4859 36.8559 23.2219 35.5669 23.2219C34.2521 23.2219 32.267 21.7706 30.1276 21.8132C27.3745 21.8546 24.7989 23.4088 23.3863 25.8221C20.4711 30.7428 22.6453 37.9741 25.4383 41.9516C26.8354 43.8995 28.468 46.0745 30.6049 45.998C32.6954 45.914 33.4763 44.6985 35.9991 44.6985C38.4988 44.6985 39.2321 45.998 41.4114 45.9491C43.6551 45.914 45.0676 43.9924 46.4159 42.0268C48.0304 39.7941 48.6788 37.5953 48.7046 37.4824C48.6518 37.4648 44.3472 35.863 44.3047 31.0175Z" fill="white"/>
<path d="M40.188 19.129C41.3124 17.758 42.0817 15.8928 41.8681 14C40.2407 14.0702 38.2055 15.0975 37.0335 16.4384C35.9966 17.62 35.0703 19.5567 35.3096 21.378C37.1377 21.5109 39.0147 20.4786 40.188 19.129Z" fill="white"/>
<path d="M73.3328 45.4509H70.7803L69.382 41.1672H64.522L63.1902 45.4509H60.7051L65.5201 30.8672H68.4941L73.3328 45.4509ZM68.9606 39.37L67.6961 35.5619C67.5624 35.1728 67.3117 34.2567 66.9419 32.8145H66.897C66.7497 33.4348 66.5126 34.3509 66.1866 35.5619L64.9447 39.37H68.9606Z" fill="white"/>
<path d="M85.7166 40.0633C85.7166 41.8517 85.221 43.2654 84.2296 44.3032C83.3417 45.227 82.2391 45.6883 80.9229 45.6883C79.5022 45.6883 78.4817 45.1908 77.8601 44.1958H77.8152V49.7354H75.4189V38.3965C75.4189 37.2721 75.3885 36.1182 75.3301 34.9346H77.4375L77.5713 36.6014H77.6162C78.4154 35.3456 79.6281 34.7188 81.2556 34.7188C82.5279 34.7188 83.5901 35.2086 84.4398 36.1894C85.2918 37.1713 85.7166 38.4622 85.7166 40.0633ZM83.2754 40.1488C83.2754 39.1252 83.0393 38.2814 82.565 37.6173C82.0469 36.9247 81.3511 36.5784 80.479 36.5784C79.8877 36.5784 79.3505 36.7713 78.8706 37.1516C78.3895 37.5351 78.0748 38.0359 77.9276 38.6562C77.8534 38.9455 77.8163 39.1822 77.8163 39.3685V41.1219C77.8163 41.8868 78.0568 42.5323 78.5379 43.0594C79.0189 43.5865 79.6438 43.8495 80.4126 43.8495C81.3152 43.8495 82.0177 43.5098 82.5201 42.8325C83.0236 42.1542 83.2754 41.26 83.2754 40.1488Z" fill="white"/>
<path d="M98.1217 40.0633C98.1217 41.8517 97.6261 43.2654 96.6336 44.3032C95.7468 45.227 94.6442 45.6883 93.328 45.6883C91.9074 45.6883 90.8868 45.1908 90.2664 44.1958H90.2214V49.7354H87.8251V38.3965C87.8251 37.2721 87.7948 36.1182 87.7363 34.9346H89.8438L89.9775 36.6014H90.0225C90.8205 35.3456 92.0332 34.7188 93.6619 34.7188C94.9331 34.7188 95.9952 35.2086 96.8472 36.1894C97.6958 37.1713 98.1217 38.4622 98.1217 40.0633ZM95.6805 40.1488C95.6805 39.1252 95.4433 38.2814 94.969 37.6173C94.4509 36.9247 93.7574 36.5784 92.8841 36.5784C92.2918 36.5784 91.7556 36.7713 91.2746 37.1516C90.7935 37.5351 90.4799 38.0359 90.3327 38.6562C90.2596 38.9455 90.2214 39.1822 90.2214 39.3685V41.1219C90.2214 41.8868 90.4619 42.5323 90.9407 43.0594C91.4218 43.5854 92.0467 43.8495 92.8178 43.8495C93.7203 43.8495 94.4228 43.5098 94.9252 42.8325C95.4287 42.1542 95.6805 41.26 95.6805 40.1488Z" fill="white"/>
<path d="M111.992 41.36C111.992 42.6005 111.551 43.6098 110.664 44.389C109.689 45.2405 108.333 45.6657 106.589 45.6657C104.98 45.6657 103.69 45.3632 102.713 44.7572L103.268 42.8098C104.32 43.4301 105.474 43.7413 106.732 43.7413C107.635 43.7413 108.337 43.5419 108.842 43.1452C109.344 42.7485 109.595 42.2159 109.595 41.5518C109.595 40.96 109.388 40.4614 108.973 40.057C108.561 39.6527 107.872 39.2768 106.91 38.9294C104.291 37.9771 102.983 36.5821 102.983 34.7476C102.983 33.5487 103.441 32.5657 104.36 31.8008C105.274 31.0348 106.495 30.6523 108.021 30.6523C109.382 30.6523 110.513 30.8836 111.416 31.3449L110.817 33.2495C109.974 32.8024 109.021 32.5789 107.954 32.5789C107.111 32.5789 106.452 32.7816 105.98 33.1849C105.581 33.5454 105.381 33.9849 105.381 34.5054C105.381 35.0818 105.609 35.5585 106.068 35.9333C106.467 36.2796 107.192 36.6544 108.244 37.0588C109.531 37.564 110.476 38.1546 111.084 38.8319C111.69 39.5069 111.992 40.3518 111.992 41.36Z" fill="white"/>
<path d="M119.914 36.6861H117.273V41.7917C117.273 43.0903 117.738 43.7391 118.671 43.7391C119.099 43.7391 119.454 43.7029 119.735 43.6306L119.802 45.4048C119.33 45.5768 118.708 45.6634 117.938 45.6634C116.992 45.6634 116.252 45.3818 115.718 44.8196C115.187 44.2563 114.919 43.3117 114.919 41.9846V36.6839H113.346V34.9305H114.919V33.0051L117.273 32.3125V34.9305H119.914V36.6861Z" fill="white"/>
<path d="M131.832 40.1049C131.832 41.7213 131.357 43.0484 130.411 44.0862C129.419 45.1547 128.101 45.6872 126.459 45.6872C124.877 45.6872 123.617 45.1755 122.677 44.1519C121.737 43.1284 121.268 41.8364 121.268 40.2792C121.268 38.6496 121.751 37.3148 122.721 36.2771C123.689 35.2382 124.995 34.7188 126.637 34.7188C128.219 34.7188 129.493 35.2305 130.454 36.2552C131.373 37.2491 131.832 38.5324 131.832 40.1049ZM129.346 40.1805C129.346 39.2107 129.133 38.3789 128.703 37.6853C128.2 36.8458 127.482 36.4272 126.551 36.4272C125.588 36.4272 124.856 36.8469 124.354 37.6853C123.924 38.38 123.711 39.2249 123.711 40.2244C123.711 41.1942 123.924 42.026 124.354 42.7185C124.872 43.558 125.596 43.9766 126.53 43.9766C127.445 43.9766 128.163 43.5492 128.681 42.6966C129.123 41.9898 129.346 41.1493 129.346 40.1805Z" fill="white"/>
<path d="M139.62 36.9894C139.383 36.9466 139.13 36.9247 138.865 36.9247C138.022 36.9247 137.37 37.2349 136.911 37.8562C136.512 38.4041 136.312 39.0967 136.312 39.9329V45.4505H133.917L133.94 38.2463C133.94 37.0343 133.909 35.9308 133.85 34.9357H135.937L136.024 36.9477H136.091C136.344 36.2562 136.743 35.6995 137.289 35.282C137.823 34.9061 138.399 34.7188 139.021 34.7188C139.242 34.7188 139.443 34.7341 139.62 34.7615V36.9894Z" fill="white"/>
<path d="M150.337 39.6914C150.337 40.11 150.309 40.4628 150.249 40.7511H143.061C143.089 41.7899 143.436 42.5844 144.104 43.1324C144.709 43.6222 145.493 43.8677 146.455 43.8677C147.519 43.8677 148.49 43.7022 149.364 43.3702L149.739 44.992C148.719 45.426 147.514 45.6419 146.123 45.6419C144.451 45.6419 143.138 45.1619 142.183 44.203C141.23 43.2441 140.752 41.9565 140.752 40.3412C140.752 38.7555 141.196 37.435 142.085 36.3818C143.016 35.2575 144.273 34.6953 145.856 34.6953C147.41 34.6953 148.587 35.2575 149.386 36.3818C150.019 37.275 150.337 38.3796 150.337 39.6914ZM148.052 39.0853C148.068 38.3928 147.912 37.7944 147.587 37.2892C147.172 36.6394 146.535 36.315 145.677 36.315C144.894 36.315 144.256 36.6317 143.77 37.2673C143.371 37.7725 143.134 38.3785 143.061 39.0842H148.052V39.0853Z" fill="white"/>
<path d="M68.1711 22.7826C68.1711 24.0725 67.7743 25.0434 66.9819 25.6954C66.248 26.2971 65.2049 26.5984 63.8539 26.5984C63.184 26.5984 62.6108 26.5699 62.1309 26.5129V19.4654C62.7569 19.3668 63.4313 19.3164 64.1596 19.3164C65.4466 19.3164 66.4165 19.5893 67.0707 20.135C67.8035 20.752 68.1711 21.6342 68.1711 22.7826ZM66.9291 22.8144C66.9291 21.9783 66.702 21.3372 66.248 20.8901C65.7939 20.4441 65.1307 20.2205 64.2574 20.2205C63.8865 20.2205 63.5707 20.2446 63.3088 20.295V25.6527C63.4538 25.6746 63.719 25.6845 64.1045 25.6845C65.006 25.6845 65.7017 25.4401 66.1918 24.9513C66.6818 24.4626 66.9291 23.7503 66.9291 22.8144Z" fill="white"/>
<path d="M74.7577 23.9071C74.7577 24.7016 74.525 25.3526 74.0597 25.8633C73.5719 26.3882 72.9256 26.6501 72.1186 26.6501C71.3408 26.6501 70.7215 26.3991 70.2596 25.895C69.7988 25.392 69.5684 24.7575 69.5684 23.9926C69.5684 23.1926 69.8055 22.5362 70.2821 22.0266C70.7586 21.5171 71.3993 21.2617 72.2063 21.2617C72.9841 21.2617 73.609 21.5127 74.0822 22.0157C74.5318 22.5044 74.7577 23.1356 74.7577 23.9071ZM73.5359 23.9444C73.5359 23.4677 73.4303 23.0589 73.2201 22.7181C72.9728 22.3061 72.621 22.1001 72.1636 22.1001C71.6904 22.1001 71.3307 22.3061 71.0835 22.7181C70.8722 23.0589 70.7676 23.4743 70.7676 23.9652C70.7676 24.4419 70.8733 24.8507 71.0835 25.1915C71.3386 25.6035 71.6938 25.8096 72.1523 25.8096C72.6019 25.8096 72.9549 25.6002 73.2089 25.1805C73.4269 24.8331 73.5359 24.4211 73.5359 23.9444Z" fill="white"/>
<path d="M83.5849 21.3711L81.927 26.537H80.848L80.1613 24.2938C79.9871 23.7338 79.8454 23.1771 79.7353 22.6248H79.7139C79.6117 23.1924 79.47 23.748 79.288 24.2938L78.5585 26.537H77.4671L75.9082 21.3711H77.1187L77.7178 23.8269C77.8628 24.4077 77.9819 24.9611 78.0774 25.485H78.0988C78.1865 25.0532 78.3315 24.5031 78.536 23.8379L79.288 21.3722H80.2478L80.9683 23.7853C81.1425 24.3738 81.2841 24.9403 81.3931 25.4861H81.4257C81.5055 24.9546 81.6258 24.388 81.7854 23.7853L82.4283 21.3722H83.5849V21.3711Z" fill="white"/>
<path d="M89.693 26.5361H88.5151V23.5773C88.5151 22.6655 88.1599 22.2096 87.4474 22.2096C87.0978 22.2096 86.8157 22.3346 86.5965 22.5855C86.3796 22.8365 86.2694 23.1324 86.2694 23.471V26.535H85.0915V22.8463C85.0915 22.3927 85.0769 21.9006 85.0488 21.368H86.084L86.1391 22.1757H86.1717C86.3088 21.9247 86.5133 21.7176 86.782 21.5521C87.1012 21.3593 87.4586 21.2617 87.8497 21.2617C88.3443 21.2617 88.7556 21.4173 89.0827 21.7297C89.4896 22.1121 89.693 22.6831 89.693 23.4414V26.5361Z" fill="white"/>
<path d="M92.9365 26.5363H91.7598V19H92.9365V26.5363Z" fill="white"/>
<path d="M99.8749 23.9071C99.8749 24.7016 99.6422 25.3526 99.1769 25.8633C98.6891 26.3882 98.0417 26.6501 97.2358 26.6501C96.4569 26.6501 95.8376 26.3991 95.3768 25.895C94.916 25.392 94.6855 24.7575 94.6855 23.9926C94.6855 23.1926 94.9227 22.5362 95.3993 22.0266C95.8758 21.5171 96.5165 21.2617 97.3224 21.2617C98.1013 21.2617 98.7251 21.5127 99.1994 22.0157C99.649 22.5044 99.8749 23.1356 99.8749 23.9071ZM98.652 23.9444C98.652 23.4677 98.5464 23.0589 98.3362 22.7181C98.09 22.3061 97.7371 22.1001 97.2808 22.1001C96.8065 22.1001 96.4468 22.3061 96.2006 22.7181C95.9893 23.0589 95.8848 23.4743 95.8848 23.9652C95.8848 24.4419 95.9905 24.8507 96.2006 25.1915C96.4558 25.6035 96.811 25.8096 97.2695 25.8096C97.7191 25.8096 98.0709 25.6002 98.3249 25.1805C98.5441 24.8331 98.652 24.4211 98.652 23.9444Z" fill="white"/>
<path d="M105.574 26.5328H104.517L104.429 25.9378H104.396C104.035 26.4123 103.519 26.6501 102.849 26.6501C102.349 26.6501 101.944 26.4934 101.639 26.1821C101.363 25.8994 101.225 25.5476 101.225 25.1301C101.225 24.4989 101.494 24.0178 102.037 23.6847C102.579 23.3515 103.341 23.1882 104.322 23.1959V23.0995C104.322 22.419 103.956 22.0792 103.222 22.0792C102.699 22.0792 102.238 22.2075 101.841 22.4617L101.601 21.7077C102.093 21.4108 102.702 21.2617 103.419 21.2617C104.803 21.2617 105.498 21.974 105.498 23.3987V25.3011C105.498 25.8172 105.524 26.2282 105.574 26.5328ZM104.351 24.7575V23.9608C103.052 23.9389 102.403 24.2863 102.403 25.0019C102.403 25.2715 102.477 25.4731 102.628 25.6079C102.78 25.7427 102.973 25.8096 103.204 25.8096C103.462 25.8096 103.704 25.7296 103.924 25.5707C104.146 25.4107 104.282 25.2079 104.332 24.9592C104.345 24.9033 104.351 24.8353 104.351 24.7575Z" fill="white"/>
<path d="M112.271 26.5363H111.225L111.17 25.7067H111.138C110.804 26.3379 110.235 26.6535 109.436 26.6535C108.798 26.6535 108.266 26.4091 107.845 25.9204C107.423 25.4316 107.213 24.7971 107.213 24.018C107.213 23.1818 107.441 22.5046 107.9 21.9873C108.344 21.5051 108.888 21.2641 109.535 21.2641C110.246 21.2641 110.744 21.4975 111.028 21.9654H111.05V19H112.229V25.1445C112.229 25.6475 112.243 26.1111 112.271 26.5363ZM111.05 24.3577V23.4963C111.05 23.3473 111.039 23.2268 111.017 23.1347C110.951 22.8585 110.808 22.6262 110.591 22.4388C110.372 22.2514 110.108 22.1572 109.804 22.1572C109.364 22.1572 109.02 22.327 108.767 22.6679C108.517 23.0087 108.39 23.4437 108.39 23.9752C108.39 24.4859 108.51 24.9001 108.752 25.219C109.007 25.5588 109.351 25.7286 109.781 25.7286C110.168 25.7286 110.477 25.5872 110.712 25.3034C110.939 25.0415 111.05 24.7259 111.05 24.3577Z" fill="white"/>
<path d="M122.344 23.9071C122.344 24.7016 122.111 25.3526 121.646 25.8633C121.158 26.3882 120.513 26.6501 119.705 26.6501C118.928 26.6501 118.309 26.3991 117.846 25.895C117.385 25.392 117.154 24.7575 117.154 23.9926C117.154 23.1926 117.391 22.5362 117.868 22.0266C118.345 21.5171 118.985 21.2617 119.793 21.2617C120.57 21.2617 121.196 21.5127 121.668 22.0157C122.118 22.5044 122.344 23.1356 122.344 23.9071ZM121.123 23.9444C121.123 23.4677 121.017 23.0589 120.807 22.7181C120.559 22.3061 120.208 22.1001 119.75 22.1001C119.277 22.1001 118.918 22.3061 118.669 22.7181C118.458 23.0589 118.354 23.4743 118.354 23.9652C118.354 24.4419 118.459 24.8507 118.669 25.1915C118.925 25.6035 119.28 25.8096 119.738 25.8096C120.188 25.8096 120.542 25.6002 120.796 25.1805C121.013 24.8331 121.123 24.4211 121.123 23.9444Z" fill="white"/>
<path d="M128.68 26.5361H127.503V23.5773C127.503 22.6655 127.148 22.2096 126.435 22.2096C126.085 22.2096 125.803 22.3346 125.585 22.5855C125.367 22.8365 125.258 23.1324 125.258 23.471V26.535H124.079V22.8463C124.079 22.3927 124.065 21.9006 124.037 21.368H125.071L125.126 22.1757H125.159C125.297 21.9247 125.502 21.7176 125.769 21.5521C126.089 21.3593 126.446 21.2617 126.838 21.2617C127.331 21.2617 127.743 21.4173 128.07 21.7297C128.478 22.1121 128.68 22.6831 128.68 23.4414V26.5361Z" fill="white"/>
<path d="M136.604 22.2327H135.307V24.7423C135.307 25.3801 135.537 25.6989 135.994 25.6989C136.205 25.6989 136.38 25.6814 136.518 25.6453L136.549 26.5165C136.316 26.6019 136.01 26.6447 135.634 26.6447C135.169 26.6447 134.807 26.5066 134.545 26.2304C134.282 25.9543 134.151 25.4896 134.151 24.8376V22.2327H133.377V21.3725H134.151V20.4257L135.306 20.0859V21.3714H136.603V22.2327H136.604Z" fill="white"/>
<path d="M142.838 26.5363H141.659V23.5993C141.659 22.6733 141.304 22.2098 140.592 22.2098C140.046 22.2098 139.673 22.4783 139.468 23.0152C139.433 23.1281 139.413 23.2662 139.413 23.4284V26.5352H138.236V19H139.413V22.1133H139.436C139.806 21.5468 140.338 21.2641 141.027 21.2641C141.515 21.2641 141.918 21.4197 142.239 21.732C142.638 22.121 142.838 22.6996 142.838 23.4646V26.5363Z" fill="white"/>
<path d="M149.275 23.7115C149.275 23.9175 149.259 24.0906 149.231 24.232H145.699C145.714 24.7427 145.883 25.1317 146.21 25.4013C146.509 25.6424 146.894 25.7629 147.366 25.7629C147.889 25.7629 148.366 25.6818 148.795 25.5185L148.979 26.3163C148.477 26.5289 147.886 26.6352 147.201 26.6352C146.381 26.6352 145.734 26.3996 145.267 25.9284C144.797 25.4572 144.564 24.8249 144.564 24.0314C144.564 23.2523 144.781 22.6035 145.219 22.0863C145.675 21.534 146.292 21.2578 147.071 21.2578C147.833 21.2578 148.412 21.534 148.803 22.0863C149.119 22.5246 149.275 23.0671 149.275 23.7115ZM148.151 23.4145C148.16 23.0737 148.082 22.78 147.923 22.5323C147.718 22.2134 147.407 22.0534 146.985 22.0534C146.601 22.0534 146.287 22.209 146.048 22.5213C145.853 22.7701 145.737 23.0671 145.699 23.4145H148.151Z" fill="white"/>
</svg>
