<svg width="72" height="27" viewBox="0 0 72 27" fill="none" xmlns="http://www.w3.org/2000/svg">
	<path d="M0 3.34884C0 1.49933 1.49933 0 3.34884 0H68.6512C70.5007 0 72 1.49933 72 3.34884V23.4419C72 25.2914 70.5007 26.7907 68.6512 26.7907H3.34884C1.49933 26.7907 0 25.2914 0 23.4419V3.34884Z" fill="white" />
	<path
		d="M18.547 12.983C18.5314 11.2907 19.9682 10.4674 20.0339 10.4291C19.2202 9.27233 17.9589 9.11428 17.5157 9.10168C16.4564 8.99299 15.4289 9.71969 14.8893 9.71969C14.3389 9.71969 13.5079 9.11218 12.6124 9.13003C11.4599 9.14736 10.3818 9.79792 9.79045 10.8082C8.57013 12.868 9.48026 15.895 10.6494 17.56C11.2343 18.3755 11.9177 19.2859 12.8122 19.2539C13.6873 19.2187 14.0142 18.7099 15.0702 18.7099C16.1166 18.7099 16.4236 19.2539 17.3358 19.2334C18.275 19.2187 18.8663 18.4143 19.4307 17.5915C20.1066 16.6569 20.378 15.7365 20.3888 15.6892C20.3667 15.6819 18.5648 15.0113 18.547 12.983Z"
		fill="#05090D" />
	<path d="M16.8237 8.00638C17.2944 7.43248 17.6164 6.6517 17.527 5.85938C16.8458 5.88878 15.9938 6.31881 15.5032 6.88011C15.0691 7.37473 14.6814 8.18543 14.7816 8.94783C15.5468 9.00349 16.3325 8.57136 16.8237 8.00638Z" fill="#05090D" />
	<path
		d="M30.6942 19.0228H29.6257L29.0404 17.2296H27.006L26.4485 19.0228H25.4082L27.4238 12.918H28.6687L30.6942 19.0228ZM28.864 16.4773L28.3347 14.8832C28.2787 14.7203 28.1738 14.3368 28.019 13.7331H28.0002C27.9385 13.9928 27.8392 14.3763 27.7028 14.8832L27.1829 16.4773H28.864Z"
		fill="#05090D" />
	<path
		d="M35.8776 16.7724C35.8776 17.5211 35.6702 18.1128 35.2552 18.5472C34.8835 18.934 34.4219 19.1271 33.871 19.1271C33.2763 19.1271 32.8491 18.9188 32.5889 18.5023H32.5701V20.8212H31.567V16.0747C31.567 15.604 31.5543 15.121 31.5298 14.6255H32.412L32.468 15.3233H32.4868C32.8213 14.7976 33.329 14.5352 34.0102 14.5352C34.5428 14.5352 34.9875 14.7402 35.3432 15.1508C35.6998 15.5618 35.8776 16.1022 35.8776 16.7724ZM34.8557 16.8082C34.8557 16.3797 34.7569 16.0265 34.5584 15.7485C34.3415 15.4586 34.0502 15.3136 33.6851 15.3136C33.4376 15.3136 33.2127 15.3944 33.0118 15.5535C32.8105 15.7141 32.6787 15.9237 32.6171 16.1834C32.586 16.3045 32.5705 16.4036 32.5705 16.4816V17.2155C32.5705 17.5357 32.6712 17.8059 32.8726 18.0266C33.074 18.2472 33.3355 18.3573 33.6574 18.3573C34.0352 18.3573 34.3292 18.2151 34.5395 17.9316C34.7503 17.6477 34.8557 17.2733 34.8557 16.8082Z"
		fill="#05090D" />
	<path
		d="M41.0691 16.7724C41.0691 17.5211 40.8616 18.1128 40.4461 18.5472C40.0749 18.934 39.6133 19.1271 39.0624 19.1271C38.4677 19.1271 38.0405 18.9188 37.7808 18.5023H37.7619V20.8212H36.7588V16.0747C36.7588 15.604 36.7461 15.121 36.7217 14.6255H37.6039L37.6599 15.3233H37.6787C38.0127 14.7976 38.5204 14.5352 39.2021 14.5352C39.7343 14.5352 40.1789 14.7402 40.5355 15.1508C40.8907 15.5618 41.0691 16.1022 41.0691 16.7724ZM40.0471 16.8082C40.0471 16.3797 39.9479 16.0265 39.7493 15.7485C39.5324 15.4586 39.2421 15.3136 38.8766 15.3136C38.6286 15.3136 38.4042 15.3944 38.2028 15.5535C38.0014 15.7141 37.8702 15.9237 37.8085 16.1834C37.7779 16.3045 37.7619 16.4036 37.7619 16.4816V17.2155C37.7619 17.5357 37.8626 17.8059 38.0631 18.0266C38.2644 18.2468 38.526 18.3573 38.8488 18.3573C39.2266 18.3573 39.5207 18.2151 39.731 17.9316C39.9418 17.6477 40.0471 17.2733 40.0471 16.8082Z"
		fill="#05090D" />
	<path
		d="M46.8776 17.3143C46.8776 17.8336 46.6927 18.2561 46.3215 18.5823C45.9135 18.9387 45.3456 19.1167 44.6159 19.1167C43.9422 19.1167 43.402 18.9901 42.9932 18.7364L43.2256 17.9212C43.666 18.1809 44.1492 18.3111 44.6757 18.3111C45.0535 18.3111 45.3475 18.2277 45.5588 18.0616C45.7691 17.8955 45.874 17.6726 45.874 17.3946C45.874 17.1469 45.7874 16.9382 45.6138 16.7689C45.4412 16.5996 45.1527 16.4423 44.75 16.2968C43.6537 15.8982 43.1061 15.3142 43.1061 14.5463C43.1061 14.0445 43.298 13.633 43.6824 13.3128C44.0654 12.9921 44.5764 12.832 45.2153 12.832C45.7851 12.832 46.2584 12.9288 46.6362 13.122L46.3854 13.9192C46.0326 13.7321 45.6336 13.6385 45.1871 13.6385C44.8342 13.6385 44.5585 13.7234 44.3609 13.8922C44.1939 14.0431 44.1101 14.227 44.1101 14.4449C44.1101 14.6862 44.2056 14.8858 44.3976 15.0427C44.5646 15.1876 44.8681 15.3445 45.3085 15.5138C45.8472 15.7253 46.2429 15.9725 46.4974 16.256C46.751 16.5386 46.8776 16.8923 46.8776 17.3143Z"
		fill="#05090D" />
	<path
		d="M50.192 15.3582H49.0863V17.4954C49.0863 18.039 49.2811 18.3106 49.6716 18.3106C49.8509 18.3106 49.9995 18.2954 50.1172 18.2651L50.1449 19.0078C49.9473 19.0799 49.6871 19.1161 49.3648 19.1161C48.9687 19.1161 48.6591 18.9982 48.4356 18.7629C48.2131 18.5271 48.1011 18.1317 48.1011 17.5761V15.3572H47.4424V14.6233H48.1011V13.8173L49.0863 13.5273V14.6233H50.192V15.3582Z"
		fill="#05090D" />
	<path
		d="M55.18 16.7898C55.18 17.4665 54.9815 18.022 54.5853 18.4564C54.1699 18.9037 53.6184 19.1266 52.931 19.1266C52.2686 19.1266 51.7411 18.9124 51.3478 18.4839C50.9545 18.0555 50.7578 17.5146 50.7578 16.8628C50.7578 16.1806 50.9601 15.6219 51.3662 15.1875C51.7713 14.7526 52.318 14.5352 53.0054 14.5352C53.6678 14.5352 54.2009 14.7494 54.6032 15.1783C54.988 15.5944 55.18 16.1315 55.18 16.7898ZM54.1393 16.8215C54.1393 16.4155 54.0503 16.0673 53.8701 15.7769C53.6598 15.4256 53.3592 15.2503 52.9696 15.2503C52.5664 15.2503 52.2601 15.426 52.0498 15.7769C51.8696 16.0678 51.7807 16.4215 51.7807 16.8398C51.7807 17.2458 51.8696 17.594 52.0498 17.8839C52.2667 18.2353 52.5697 18.4105 52.9607 18.4105C53.3437 18.4105 53.6443 18.2316 53.8612 17.8747C54.0461 17.5789 54.1393 17.227 54.1393 16.8215Z"
		fill="#05090D" />
	<path
		d="M58.4405 15.4857C58.3412 15.4678 58.2353 15.4586 58.1243 15.4586C57.7714 15.4586 57.4985 15.5884 57.3065 15.8485C57.1395 16.0779 57.0558 16.3678 57.0558 16.7178V19.0275H56.0531L56.0625 16.0118C56.0625 15.5045 56.0498 15.0425 56.0249 14.626H56.8986L56.9353 15.4682H56.9631C57.0689 15.1788 57.236 14.9457 57.4646 14.7709C57.6881 14.6136 57.9295 14.5352 58.1897 14.5352C58.2824 14.5352 58.3661 14.5416 58.4405 14.553V15.4857Z"
		fill="#05090D" />
	<path
		d="M62.9265 16.6187C62.9265 16.7939 62.9147 16.9417 62.8898 17.0623H59.8805C59.8922 17.4972 60.0376 17.8298 60.3171 18.0591C60.5707 18.2642 60.8986 18.3669 61.3014 18.3669C61.7469 18.3669 62.1534 18.2977 62.519 18.1587L62.6762 18.8376C62.2489 19.0193 61.7446 19.1096 61.1626 19.1096C60.4625 19.1096 59.9129 18.9087 59.513 18.5073C59.114 18.1059 58.9141 17.5669 58.9141 16.8907C58.9141 16.227 59.0999 15.6742 59.4721 15.2333C59.8616 14.7627 60.3881 14.5273 61.0506 14.5273C61.7013 14.5273 62.1939 14.7627 62.5284 15.2333C62.7933 15.6072 62.9265 16.0696 62.9265 16.6187ZM61.9699 16.365C61.9765 16.0751 61.9111 15.8246 61.7752 15.6132C61.6015 15.3411 61.3348 15.2054 60.9758 15.2054C60.6478 15.2054 60.3811 15.3379 60.1773 15.604C60.0103 15.8155 59.911 16.0691 59.8805 16.3646H61.9699V16.365Z"
		fill="#05090D" />
	<path
		d="M28.5363 9.53691C28.5363 10.0768 28.3702 10.4833 28.0385 10.7562C27.7312 11.0081 27.2946 11.1342 26.7291 11.1342C26.4487 11.1342 26.2087 11.1223 26.0078 11.0984V8.14833C26.2699 8.10704 26.5522 8.08594 26.8571 8.08594C27.3958 8.08594 27.8018 8.20016 28.0756 8.42861C28.3824 8.68688 28.5363 9.05616 28.5363 9.53691ZM28.0164 9.55022C28.0164 9.2002 27.9213 8.93184 27.7312 8.74468C27.5412 8.55797 27.2636 8.46439 26.898 8.46439C26.7427 8.46439 26.6105 8.47448 26.5009 8.49559V10.7383C26.5616 10.7475 26.6726 10.7516 26.834 10.7516C27.2113 10.7516 27.5026 10.6493 27.7077 10.4447C27.9129 10.2402 28.0164 9.94197 28.0164 9.55022Z"
		fill="#05090D" />
	<path
		d="M31.2914 10.0058C31.2914 10.3384 31.194 10.6109 30.9992 10.8247C30.795 11.0444 30.5245 11.154 30.1867 11.154C29.8611 11.154 29.6019 11.049 29.4085 10.838C29.2156 10.6274 29.1191 10.3618 29.1191 10.0416C29.1191 9.70673 29.2184 9.43194 29.4179 9.21863C29.6174 9.00532 29.8856 8.89844 30.2234 8.89844C30.549 8.89844 30.8106 9.00349 31.0087 9.21405C31.1968 9.41864 31.2914 9.68287 31.2914 10.0058ZM30.78 10.0214C30.78 9.82187 30.7358 9.65076 30.6478 9.50809C30.5443 9.33561 30.397 9.24937 30.2055 9.24937C30.0074 9.24937 29.8569 9.33561 29.7534 9.50809C29.6649 9.65076 29.6212 9.82462 29.6212 10.0301C29.6212 10.2297 29.6654 10.4008 29.7534 10.5435C29.8602 10.7159 30.0088 10.8022 30.2008 10.8022C30.389 10.8022 30.5367 10.7146 30.6431 10.5389C30.7344 10.3935 30.78 10.221 30.78 10.0214Z"
		fill="#05090D" />
	<path
		d="M34.9869 8.94531L34.2929 11.1078H33.8413L33.5538 10.1688C33.4809 9.93434 33.4216 9.70131 33.3755 9.4701H33.3665C33.3237 9.70773 33.2644 9.94031 33.1882 10.1688L32.8829 11.1078H32.426L31.7734 8.94531H32.2802L32.5309 9.97334C32.5916 10.2165 32.6415 10.4481 32.6815 10.6674H32.6904C32.7271 10.4867 32.7878 10.2564 32.8735 9.97792L33.1882 8.94577H33.59L33.8916 9.9559C33.9645 10.2022 34.0238 10.4394 34.0695 10.6679H34.0831C34.1165 10.4454 34.1668 10.2082 34.2337 9.9559L34.5028 8.94577H34.9869V8.94531Z"
		fill="#05090D" />
	<path
		d="M37.5452 11.1063H37.0521V9.86774C37.0521 9.48608 36.9034 9.29524 36.6051 9.29524C36.4588 9.29524 36.3407 9.34754 36.2489 9.45259C36.1581 9.55764 36.112 9.6815 36.112 9.82325V11.1059H35.619V9.56177C35.619 9.37185 35.6128 9.16588 35.6011 8.94293H36.0344L36.0575 9.28102H36.0711C36.1285 9.17597 36.2141 9.08927 36.3266 9.02C36.4602 8.93927 36.6098 8.89844 36.7735 8.89844C36.9806 8.89844 37.1528 8.96358 37.2897 9.09432C37.46 9.25442 37.5452 9.49342 37.5452 9.81086V11.1063Z"
		fill="#05090D" />
	<path d="M38.9037 11.1078H38.4111V7.95312H38.9037V11.1078Z" fill="#05090D" />
	<path
		d="M41.8031 10.0058C41.8031 10.3384 41.7057 10.6109 41.511 10.8247C41.3068 11.0444 41.0358 11.154 40.6984 11.154C40.3724 11.154 40.1131 11.049 39.9202 10.838C39.7273 10.6274 39.6309 10.3618 39.6309 10.0416C39.6309 9.70673 39.7301 9.43194 39.9296 9.21863C40.1291 9.00532 40.3973 8.89844 40.7346 8.89844C41.0607 8.89844 41.3218 9.00349 41.5204 9.21405C41.7086 9.41864 41.8031 9.68287 41.8031 10.0058ZM41.2912 10.0214C41.2912 9.82187 41.247 9.65076 41.159 9.50809C41.056 9.33561 40.9083 9.24937 40.7172 9.24937C40.5187 9.24937 40.3681 9.33561 40.2651 9.50809C40.1766 9.65076 40.1329 9.82462 40.1329 10.0301C40.1329 10.2297 40.1771 10.4008 40.2651 10.5435C40.3719 10.7159 40.5206 10.8022 40.7125 10.8022C40.9007 10.8022 41.048 10.7146 41.1543 10.5389C41.2461 10.3935 41.2912 10.221 41.2912 10.0214Z"
		fill="#05090D" />
	<path
		d="M44.1939 11.1049H43.7511L43.7144 10.8559H43.7008C43.5493 11.0545 43.3333 11.154 43.0529 11.154C42.8435 11.154 42.6742 11.0884 42.5467 10.9582C42.4309 10.8398 42.373 10.6925 42.373 10.5178C42.373 10.2535 42.486 10.0522 42.7132 9.9127C42.94 9.77324 43.259 9.70489 43.6697 9.7081V9.66773C43.6697 9.38286 43.5164 9.24065 43.2091 9.24065C42.9903 9.24065 42.7974 9.29432 42.6309 9.40075L42.5307 9.08514C42.7367 8.96083 42.9913 8.89844 43.2915 8.89844C43.8711 8.89844 44.1619 9.19661 44.1619 9.79297V10.5893C44.1619 10.8054 44.1727 10.9774 44.1939 11.1049ZM43.682 10.3618V10.0283C43.1381 10.0191 42.8661 10.1645 42.8661 10.4641C42.8661 10.5769 42.8972 10.6614 42.9607 10.7178C43.0242 10.7742 43.1051 10.8022 43.2016 10.8022C43.3098 10.8022 43.411 10.7687 43.5032 10.7022C43.5959 10.6352 43.6528 10.5503 43.674 10.4462C43.6791 10.4228 43.682 10.3944 43.682 10.3618Z"
		fill="#05090D" />
	<path
		d="M46.9971 11.1078H46.5595L46.5365 10.7606H46.5228C46.3831 11.0248 46.145 11.1569 45.8105 11.1569C45.5433 11.1569 45.3207 11.0546 45.1443 10.85C44.9679 10.6454 44.8799 10.3798 44.8799 10.0537C44.8799 9.70365 44.9754 9.42016 45.1674 9.20363C45.3532 9.00179 45.5809 8.90087 45.8519 8.90087C46.1497 8.90087 46.3582 8.99858 46.4767 9.19446H46.4861V7.95312H46.9797V10.5252C46.9797 10.7358 46.9853 10.9299 46.9971 11.1078ZM46.4861 10.1959V9.83531C46.4861 9.77292 46.4814 9.72246 46.4725 9.68393C46.4447 9.56833 46.385 9.47108 46.2942 9.39263C46.2024 9.31419 46.0919 9.27474 45.9644 9.27474C45.7804 9.27474 45.6364 9.34584 45.5306 9.48851C45.4257 9.63117 45.3725 9.81329 45.3725 10.0358C45.3725 10.2495 45.4228 10.4229 45.524 10.5564C45.6308 10.6986 45.7748 10.7698 45.955 10.7698C46.1168 10.7698 46.2462 10.7106 46.3445 10.5918C46.4396 10.4821 46.4861 10.35 46.4861 10.1959Z"
		fill="#05090D" />
	<path
		d="M51.2118 10.0058C51.2118 10.3384 51.1144 10.6109 50.9196 10.8247C50.7155 11.0444 50.4454 11.154 50.1071 11.154C49.782 11.154 49.5228 11.049 49.3289 10.838C49.136 10.6274 49.0396 10.3618 49.0396 10.0416C49.0396 9.70673 49.1388 9.43194 49.3383 9.21863C49.5378 9.00532 49.806 8.89844 50.1443 8.89844C50.4694 8.89844 50.7315 9.00349 50.9291 9.21405C51.1173 9.41864 51.2118 9.68287 51.2118 10.0058ZM50.7009 10.0214C50.7009 9.82187 50.6566 9.65076 50.5687 9.50809C50.4647 9.33561 50.3179 9.24937 50.1259 9.24937C49.9283 9.24937 49.7778 9.33561 49.6738 9.50809C49.5853 9.65076 49.5416 9.82462 49.5416 10.0301C49.5416 10.2297 49.5858 10.4008 49.6738 10.5435C49.7806 10.7159 49.9293 10.8022 50.1212 10.8022C50.3094 10.8022 50.4576 10.7146 50.564 10.5389C50.6548 10.3935 50.7009 10.221 50.7009 10.0214Z"
		fill="#05090D" />
	<path
		d="M53.8636 11.1063H53.3709V9.86774C53.3709 9.48608 53.2223 9.29524 52.9235 9.29524C52.7772 9.29524 52.6591 9.34754 52.5678 9.45259C52.4765 9.55764 52.4309 9.6815 52.4309 9.82325V11.1059H51.9373V9.56177C51.9373 9.37185 51.9317 9.16588 51.9199 8.94293H52.3528L52.3758 9.28102H52.3895C52.4474 9.17597 52.533 9.08927 52.645 9.02C52.7791 8.93927 52.9282 8.89844 53.0924 8.89844C53.299 8.89844 53.4712 8.96358 53.6081 9.09432C53.7789 9.25442 53.8636 9.49342 53.8636 9.81086V11.1063Z"
		fill="#05090D" />
	<path
		d="M57.1818 9.30491H56.6389V10.3554C56.6389 10.6224 56.7353 10.7559 56.9264 10.7559C57.0148 10.7559 57.0882 10.7485 57.1461 10.7334L57.1588 11.0981C57.0614 11.1339 56.9334 11.1518 56.7758 11.1518C56.581 11.1518 56.4295 11.094 56.3199 10.9784C56.2098 10.8628 56.1552 10.6683 56.1552 10.3953V9.30491H55.8311V8.9448H56.1552V8.54846L56.6384 8.40625V8.94434H57.1814V9.30491H57.1818Z"
		fill="#05090D" />
	<path
		d="M59.7944 11.1078H59.3008V9.87843C59.3008 9.4908 59.1521 9.29676 58.8543 9.29676C58.6257 9.29676 58.4695 9.40915 58.3838 9.63393C58.3692 9.68118 58.3608 9.73898 58.3608 9.80687V11.1074H57.8682V7.95312H58.3608V9.25639H58.3702C58.5254 9.01922 58.748 8.90087 59.0364 8.90087C59.2406 8.90087 59.4095 8.96601 59.5436 9.09675C59.7106 9.2596 59.7944 9.50181 59.7944 9.82201V11.1078Z"
		fill="#05090D" />
	<path
		d="M62.4836 9.92554C62.4836 10.0118 62.477 10.0843 62.4652 10.1434H60.9864C60.993 10.3572 61.0636 10.5201 61.2005 10.6329C61.3257 10.7338 61.4871 10.7843 61.6847 10.7843C61.9034 10.7843 62.1029 10.7503 62.2827 10.682L62.3598 11.016C62.1495 11.1049 61.902 11.1494 61.6155 11.1494C61.272 11.1494 61.0015 11.0508 60.8058 10.8536C60.6091 10.6563 60.5117 10.3916 60.5117 10.0595C60.5117 9.73333 60.6025 9.46176 60.7855 9.24524C60.9766 9.01404 61.2349 8.89844 61.5609 8.89844C61.8799 8.89844 62.1222 9.01404 62.286 9.24524C62.4182 9.42873 62.4836 9.65581 62.4836 9.92554ZM62.0131 9.80123C62.0168 9.65856 61.9844 9.53562 61.9176 9.43195C61.8319 9.29845 61.7016 9.23148 61.5252 9.23148C61.3643 9.23148 61.233 9.29662 61.1328 9.42736C61.0509 9.53149 61.0024 9.65581 60.9864 9.80123H62.0131Z"
		fill="#05090D" />
</svg>