<svg width="186" height="72" viewBox="0 0 186 72" fill="none" xmlns="http://www.w3.org/2000/svg">
<rect width="186" height="72" rx="16" fill="white"/>
<path d="M41.7483 34.6205C41.7086 30.3158 45.3634 28.2215 45.5306 28.124C43.4607 25.1816 40.2524 24.7796 39.125 24.7475C36.4305 24.471 33.8167 26.3196 32.4441 26.3196C31.0441 26.3196 28.9304 24.7742 26.6523 24.8196C23.7207 24.8637 20.9782 26.5186 19.4741 29.0883C16.37 34.328 18.6851 42.0279 21.6591 46.2632C23.1468 48.3375 24.8851 50.6534 27.1605 50.572C29.3866 50.4825 30.2181 49.1883 32.9044 49.1883C35.5661 49.1883 36.3469 50.572 38.6675 50.5199C41.0565 50.4825 42.5607 48.4363 43.9963 46.3434C45.7155 43.9659 46.4059 41.6246 46.4333 41.5044C46.3772 41.4857 41.7935 39.7801 41.7483 34.6205Z" fill="#132740"/>
<path d="M37.3647 21.9614C38.562 20.5016 39.3812 18.5155 39.1538 16.5C37.4209 16.5748 35.2537 17.6687 34.0058 19.0965C32.9017 20.3546 31.9154 22.4168 32.1701 24.3562C34.1167 24.4978 36.1154 23.3985 37.3647 21.9614Z" fill="#132740"/>
<path d="M73.9609 50.2775H70.8499L69.1457 45.0565H63.2224L61.5991 50.2775H58.5703L64.4389 32.5029H68.0635L73.9609 50.2775ZM68.632 42.8661L67.0909 38.2248C66.9279 37.7506 66.6224 36.634 66.1717 34.8763H66.1169C65.9375 35.6323 65.6485 36.7489 65.2512 38.2248L63.7375 42.8661H68.632Z" fill="#132740"/>
<path d="M89.0536 43.7131C89.0536 45.8928 88.4495 47.6158 87.2412 48.8807C86.159 50.0066 84.8152 50.5689 83.211 50.5689C81.4795 50.5689 80.2357 49.9625 79.4781 48.7498H79.4233V55.5014H76.5027V41.6816C76.5027 40.3112 76.4658 38.9048 76.3945 37.4623H78.9631L79.1261 39.4938H79.1809C80.1548 37.9632 81.6329 37.1992 83.6165 37.1992C85.1672 37.1992 86.4618 37.7962 87.4974 38.9916C88.5358 40.1884 89.0536 41.7617 89.0536 43.7131ZM86.0782 43.8173C86.0782 42.5698 85.7905 41.5414 85.2124 40.732C84.5809 39.8878 83.733 39.4658 82.6699 39.4658C81.9494 39.4658 81.2946 39.7009 80.7096 40.1643C80.1233 40.6318 79.7398 41.2422 79.5603 41.9981C79.4699 42.3507 79.4247 42.6392 79.4247 42.8663V45.0033C79.4247 45.9356 79.7179 46.7223 80.3042 47.3647C80.8905 48.0071 81.6521 48.3277 82.5891 48.3277C83.6891 48.3277 84.5453 47.9137 85.1576 47.0882C85.7713 46.2615 86.0782 45.1716 86.0782 43.8173Z" fill="#132740"/>
<path d="M104.172 43.7102C104.172 45.8899 103.568 47.6129 102.359 48.8777C101.278 50.0037 99.9339 50.566 98.3298 50.566C96.5983 50.566 95.3544 49.9596 94.5982 48.7468H94.5434V55.4984H91.6229V41.6787C91.6229 40.3083 91.5859 38.9019 91.5146 37.4594H94.0832L94.2462 39.4909H94.301C95.2736 37.9603 96.7517 37.1963 98.7366 37.1963C100.286 37.1963 101.581 37.7933 102.619 38.9887C103.653 40.1854 104.172 41.7588 104.172 43.7102ZM101.197 43.8143C101.197 42.5669 100.908 41.5384 100.33 40.729C99.6983 39.8849 98.8531 39.4629 97.7887 39.4629C97.0668 39.4629 96.4133 39.6979 95.827 40.1614C95.2407 40.6289 94.8585 41.2392 94.6791 41.9952C94.59 42.3478 94.5434 42.6363 94.5434 42.8634V45.0004C94.5434 45.9327 94.8366 46.7193 95.4202 47.3618C96.0065 48.0029 96.7681 48.3248 97.7079 48.3248C98.8079 48.3248 99.6641 47.9107 100.276 47.0853C100.89 46.2585 101.197 45.1687 101.197 43.8143Z" fill="#132740"/>
<path d="M121.079 45.2926C121.079 46.8046 120.541 48.0347 119.46 48.9843C118.272 50.0221 116.619 50.5403 114.494 50.5403C112.533 50.5403 110.96 50.1717 109.77 49.4331L110.446 47.0597C111.728 47.8156 113.135 48.195 114.668 48.195C115.768 48.195 116.624 47.9519 117.239 47.4684C117.852 46.9849 118.157 46.3358 118.157 45.5264C118.157 44.8051 117.905 44.1974 117.4 43.7046C116.897 43.2117 116.057 42.7536 114.885 42.3302C111.693 41.1695 110.098 39.4693 110.098 37.2334C110.098 35.7723 110.657 34.5742 111.776 33.6419C112.891 32.7083 114.379 32.2422 116.239 32.2422C117.898 32.2422 119.276 32.524 120.377 33.0863L119.646 35.4076C118.619 34.8627 117.457 34.5902 116.157 34.5902C115.13 34.5902 114.327 34.8373 113.752 35.3288C113.265 35.7683 113.022 36.3038 113.022 36.9383C113.022 37.6408 113.3 38.2218 113.859 38.6786C114.345 39.1007 115.229 39.5574 116.511 40.0503C118.079 40.666 119.231 41.3859 119.972 42.2113C120.711 43.0341 121.079 44.0639 121.079 45.2926Z" fill="#132740"/>
<path d="M130.733 39.5971H127.514V45.8198C127.514 47.4025 128.081 48.1932 129.218 48.1932C129.74 48.1932 130.173 48.1492 130.515 48.061L130.596 50.2234C130.021 50.4331 129.263 50.5386 128.325 50.5386C127.171 50.5386 126.27 50.1953 125.619 49.5102C124.971 48.8237 124.645 47.6723 124.645 46.0549V39.5944H122.728V37.4574H124.645V35.1107L127.514 34.2666V37.4574H130.733V39.5971Z" fill="#132740"/>
<path d="M145.259 43.7638C145.259 45.7339 144.681 47.3513 143.528 48.6162C142.318 49.9184 140.713 50.5675 138.711 50.5675C136.782 50.5675 135.247 49.9438 134.102 48.6963C132.956 47.4488 132.384 45.8741 132.384 43.9762C132.384 41.9901 132.973 40.3633 134.155 39.0985C135.335 37.8323 136.926 37.1992 138.928 37.1992C140.856 37.1992 142.409 37.823 143.58 39.0718C144.7 40.2832 145.259 41.8472 145.259 43.7638ZM142.229 43.856C142.229 42.674 141.97 41.6602 141.446 40.8148C140.833 39.7917 139.958 39.2815 138.824 39.2815C137.65 39.2815 136.758 39.793 136.145 40.8148C135.621 41.6616 135.362 42.6913 135.362 43.9094C135.362 45.0915 135.621 46.1052 136.145 46.9493C136.777 47.9724 137.659 48.4826 138.798 48.4826C139.913 48.4826 140.788 47.9617 141.42 46.9226C141.958 46.0611 142.229 45.0367 142.229 43.856Z" fill="#132740"/>
<path d="M154.751 39.9637C154.462 39.9116 154.154 39.8849 153.83 39.8849C152.803 39.8849 152.008 40.2629 151.449 41.0202C150.963 41.688 150.719 42.5321 150.719 43.5512V50.2761H147.8L147.827 41.4957C147.827 40.0185 147.79 38.6735 147.718 37.4607H150.262L150.369 39.913H150.449C150.758 39.0702 151.244 38.3917 151.91 37.8828C152.56 37.4247 153.263 37.1963 154.021 37.1963C154.291 37.1963 154.534 37.215 154.751 37.2484V39.9637Z" fill="#132740"/>
<path d="M167.814 43.262C167.814 43.7722 167.78 44.2023 167.707 44.5535H158.946C158.98 45.8197 159.403 46.7881 160.217 47.4559C160.955 48.0529 161.91 48.3521 163.083 48.3521C164.38 48.3521 165.563 48.1504 166.628 47.7457L167.085 49.7224C165.842 50.2513 164.373 50.5145 162.678 50.5145C160.64 50.5145 159.04 49.9295 157.876 48.7608C156.714 47.5921 156.132 46.0227 156.132 44.054C156.132 42.1214 156.673 40.5119 157.757 39.2284C158.891 37.858 160.424 37.1729 162.352 37.1729C164.247 37.1729 165.681 37.858 166.655 39.2284C167.426 40.3169 167.814 41.6632 167.814 43.262ZM165.029 42.5234C165.048 41.6793 164.858 40.95 164.462 40.3343C163.957 39.5423 163.18 39.1469 162.135 39.1469C161.18 39.1469 160.403 39.5329 159.81 40.3076C159.324 40.9233 159.035 41.6619 158.946 42.522H165.029V42.5234Z" fill="#132740"/>
<path d="M67.6664 21.5566C67.6664 23.1287 67.1829 24.312 66.2171 25.1067C65.3226 25.84 64.0513 26.2073 62.4047 26.2073C61.5883 26.2073 60.8896 26.1726 60.3047 26.1031V17.5137C61.0677 17.3935 61.8896 17.332 62.7773 17.332C64.3458 17.332 65.5281 17.6646 66.3253 18.3297C67.2185 19.0817 67.6664 20.1569 67.6664 21.5566ZM66.1527 21.5954C66.1527 20.5763 65.876 19.7949 65.3226 19.25C64.7691 18.7064 63.9609 18.4339 62.8965 18.4339C62.4444 18.4339 62.0595 18.4633 61.7403 18.5248V25.0547C61.917 25.0814 62.2403 25.0934 62.7102 25.0934C63.8088 25.0934 64.6568 24.7955 65.2541 24.1999C65.8513 23.6042 66.1527 22.736 66.1527 21.5954Z" fill="#132740"/>
<path d="M75.6919 22.9273C75.6919 23.8957 75.4083 24.689 74.8412 25.3114C74.2467 25.9512 73.459 26.2704 72.4754 26.2704C71.5275 26.2704 70.7727 25.9646 70.2097 25.3502C69.648 24.7371 69.3672 23.9638 69.3672 23.0315C69.3672 22.0565 69.6562 21.2565 70.2371 20.6354C70.8179 20.0143 71.5987 19.7031 72.5823 19.7031C73.5302 19.7031 74.2919 20.009 74.8686 20.622C75.4166 21.2177 75.6919 21.9871 75.6919 22.9273ZM74.2029 22.9728C74.2029 22.3918 74.0741 21.8936 73.8179 21.4782C73.5165 20.976 73.0878 20.7249 72.5302 20.7249C71.9535 20.7249 71.5152 20.976 71.2138 21.4782C70.9562 21.8936 70.8288 22.3998 70.8288 22.9981C70.8288 23.5791 70.9576 24.0773 71.2138 24.4927C71.5247 24.9949 71.9576 25.246 72.5165 25.246C73.0645 25.246 73.4946 24.9909 73.8042 24.4793C74.07 24.0559 74.2029 23.5538 74.2029 22.9728Z" fill="#132740"/>
<path d="M86.4539 19.8359L84.4333 26.1321H83.1183L82.2813 23.3981C82.0689 22.7156 81.8963 22.0371 81.7621 21.3639H81.7361C81.6114 22.0558 81.4388 22.7329 81.2169 23.3981L80.3278 26.1321H78.9977L77.0977 19.8359H78.573L79.3032 22.8291C79.4799 23.537 79.6251 24.2115 79.7415 24.8499H79.7675C79.8744 24.3237 80.0511 23.6532 80.3004 22.8424L81.2169 19.8373H82.3867L83.2648 22.7783C83.4772 23.4956 83.6498 24.1861 83.7826 24.8512H83.8224C83.9196 24.2035 84.0662 23.5129 84.2607 22.7783L85.0443 19.8373H86.4539V19.8359Z" fill="#132740"/>
<path d="M93.8996 26.1306H92.4639V22.5243C92.4639 21.4131 92.0311 20.8575 91.1626 20.8575C90.7365 20.8575 90.3927 21.0097 90.1256 21.3156C89.8612 21.6215 89.7269 21.9821 89.7269 22.3948V26.1292H88.2913V21.6335C88.2913 21.0805 88.2735 20.4808 88.2393 19.8317H89.5009L89.568 20.8161H89.6078C89.7749 20.5102 90.0242 20.2578 90.3516 20.0561C90.7406 19.821 91.1763 19.7021 91.653 19.7021C92.2557 19.7021 92.7571 19.8918 93.1557 20.2725C93.6516 20.7386 93.8996 21.4345 93.8996 22.3587V26.1306Z" fill="#132740"/>
<path d="M97.8532 26.1304H96.4189V16.9453H97.8532V26.1304Z" fill="#132740"/>
<path d="M106.305 22.9273C106.305 23.8957 106.022 24.689 105.455 25.3114C104.86 25.9512 104.071 26.2704 103.089 26.2704C102.139 26.2704 101.385 25.9646 100.823 25.3502C100.261 24.7371 99.9805 23.9638 99.9805 23.0315C99.9805 22.0565 100.27 21.2565 100.85 20.6354C101.431 20.0143 102.212 19.7031 103.194 19.7031C104.144 19.7031 104.904 20.009 105.482 20.622C106.03 21.2177 106.305 21.9871 106.305 22.9273ZM104.815 22.9728C104.815 22.3918 104.686 21.8936 104.43 21.4782C104.13 20.976 103.7 20.7249 103.144 20.7249C102.565 20.7249 102.127 20.976 101.827 21.4782C101.57 21.8936 101.442 22.3998 101.442 22.9981C101.442 23.5791 101.571 24.0773 101.827 24.4927C102.138 24.9949 102.571 25.246 103.13 25.246C103.678 25.246 104.107 24.9909 104.416 24.4793C104.683 24.0559 104.815 23.5538 104.815 22.9728Z" fill="#132740"/>
<path d="M113.255 26.1275H111.966L111.859 25.4023H111.819C111.378 25.9806 110.749 26.2704 109.933 26.2704C109.323 26.2704 108.83 26.0794 108.459 25.7001C108.122 25.3555 107.953 24.9268 107.953 24.4179C107.953 23.6486 108.282 23.0622 108.944 22.6562C109.604 22.2502 110.533 22.0512 111.729 22.0605V21.943C111.729 21.1136 111.282 20.6995 110.387 20.6995C109.75 20.6995 109.189 20.8558 108.704 21.1656L108.412 20.2467C109.012 19.8848 109.753 19.7031 110.627 19.7031C112.315 19.7031 113.161 20.5713 113.161 22.3076V24.6263C113.161 25.2553 113.193 25.7562 113.255 26.1275ZM111.764 23.9638V22.9928C110.181 22.9661 109.389 23.3895 109.389 24.2616C109.389 24.5902 109.479 24.836 109.664 25.0002C109.849 25.1645 110.085 25.246 110.365 25.246C110.681 25.246 110.975 25.1485 111.244 24.9548C111.513 24.7598 111.679 24.5127 111.741 24.2095C111.756 24.1414 111.764 24.0586 111.764 23.9638Z" fill="#132740"/>
<path d="M121.415 26.1305H120.141L120.074 25.1194H120.035C119.628 25.8887 118.935 26.2734 117.961 26.2734C117.182 26.2734 116.535 25.9755 116.021 25.3798C115.507 24.7841 115.251 24.0108 115.251 23.0612C115.251 22.0421 115.529 21.2167 116.088 20.5862C116.629 19.9986 117.292 19.7047 118.081 19.7047C118.948 19.7047 119.555 19.9892 119.9 20.5595H119.928V16.9453H121.365V24.4342C121.365 25.0473 121.381 25.6122 121.415 26.1305ZM119.928 23.4752V22.4254C119.928 22.2438 119.914 22.0968 119.888 21.9847C119.807 21.6481 119.633 21.3649 119.369 21.1365C119.102 20.9081 118.78 20.7933 118.409 20.7933C117.873 20.7933 117.454 21.0003 117.145 21.4157C116.84 21.8311 116.685 22.3613 116.685 23.0091C116.685 23.6315 116.832 24.1364 117.126 24.525C117.437 24.9391 117.856 25.1461 118.381 25.1461C118.852 25.1461 119.229 24.9738 119.515 24.6279C119.792 24.3087 119.928 23.924 119.928 23.4752Z" fill="#132740"/>
<path d="M133.692 22.9273C133.692 23.8957 133.408 24.689 132.841 25.3114C132.247 25.9512 131.46 26.2704 130.475 26.2704C129.529 26.2704 128.774 25.9646 128.21 25.3502C127.648 24.7371 127.367 23.9638 127.367 23.0315C127.367 22.0565 127.656 21.2565 128.237 20.6354C128.818 20.0143 129.599 19.7031 130.584 19.7031C131.53 19.7031 132.293 20.009 132.869 20.622C133.417 21.2177 133.692 21.9871 133.692 22.9273ZM132.204 22.9728C132.204 22.3918 132.075 21.8936 131.819 21.4782C131.517 20.976 131.089 20.7249 130.53 20.7249C129.955 20.7249 129.517 20.976 129.214 21.4782C128.956 21.8936 128.829 22.3998 128.829 22.9981C128.829 23.5791 128.958 24.0773 129.214 24.4927C129.525 24.9949 129.958 25.246 130.517 25.246C131.064 25.246 131.496 24.9909 131.806 24.4793C132.07 24.0559 132.204 23.5538 132.204 22.9728Z" fill="#132740"/>
<path d="M141.412 26.1306H139.978V22.5243C139.978 21.4131 139.545 20.8575 138.675 20.8575C138.249 20.8575 137.905 21.0097 137.639 21.3156C137.374 21.6215 137.241 21.9821 137.241 22.3948V26.1292H135.804V21.6335C135.804 21.0805 135.787 20.4808 135.753 19.8317H137.013L137.08 20.8161H137.12C137.289 20.5102 137.538 20.2578 137.864 20.0561C138.254 19.821 138.689 19.7021 139.167 19.7021C139.768 19.7021 140.269 19.8918 140.668 20.2725C141.165 20.7386 141.412 21.4345 141.412 22.3587V26.1306Z" fill="#132740"/>
<path d="M151.074 20.8831H149.493V23.9417C149.493 24.719 149.774 25.1077 150.33 25.1077C150.587 25.1077 150.801 25.0863 150.969 25.0423L151.006 26.1041C150.723 26.2083 150.35 26.2604 149.891 26.2604C149.324 26.2604 148.883 26.0921 148.564 25.7555C148.243 25.4189 148.084 24.8526 148.084 24.0579V20.8831H147.141V19.8346H148.084V18.6806L149.491 18.2666V19.8333H151.072V20.8831H151.074Z" fill="#132740"/>
<path d="M158.67 26.1304H157.233V22.551C157.233 21.4223 156.8 20.8574 155.933 20.8574C155.267 20.8574 154.812 21.1846 154.563 21.8391C154.52 21.9766 154.496 22.1449 154.496 22.3426V26.1291H153.062V16.9453H154.496V20.7398H154.523C154.975 20.0493 155.623 19.7047 156.463 19.7047C157.057 19.7047 157.549 19.8944 157.94 20.275C158.426 20.7492 158.67 21.4544 158.67 22.3867V26.1304Z" fill="#132740"/>
<path d="M166.515 22.6858C166.515 22.9369 166.495 23.1479 166.461 23.3202H162.156C162.175 23.9426 162.38 24.4168 162.779 24.7453C163.143 25.0392 163.613 25.1861 164.189 25.1861C164.826 25.1861 165.406 25.0873 165.93 24.8882L166.154 25.8606C165.542 26.1197 164.821 26.2493 163.987 26.2493C162.987 26.2493 162.199 25.9621 161.63 25.3878C161.057 24.8135 160.773 24.0428 160.773 23.0758C160.773 22.1262 161.038 21.3355 161.571 20.705C162.127 20.0319 162.879 19.6953 163.828 19.6953C164.757 19.6953 165.463 20.0319 165.939 20.705C166.324 21.2393 166.515 21.9004 166.515 22.6858ZM165.145 22.3238C165.156 21.9085 165.061 21.5505 164.867 21.2487C164.617 20.86 164.238 20.665 163.724 20.665C163.256 20.665 162.873 20.8546 162.582 21.2353C162.343 21.5385 162.202 21.9004 162.156 22.3238H165.145Z" fill="#132740"/>
</svg>
