<svg width="129" height="48" viewBox="0 0 129 48" fill="none" xmlns="http://www.w3.org/2000/svg">
	<path d="M0 6C0 2.68629 2.68629 0 6 0H123C126.314 0 129 2.68629 129 6V42C129 45.3137 126.314 48 123 48H6C2.68629 48 0 45.3137 0 42V6Z" fill="white" />
	<path
		d="M33.23 23.269C33.202 20.237 35.7763 18.7619 35.894 18.6932C34.4361 16.6207 32.1764 16.3376 31.3823 16.315C29.4844 16.1203 27.6434 17.4223 26.6766 17.4223C25.6905 17.4223 24.2017 16.3338 22.5971 16.3658C20.5323 16.3968 18.6007 17.5624 17.5412 19.3724C15.3548 23.063 16.9855 28.4864 19.0802 31.4695C20.128 32.9305 21.3525 34.5618 22.9551 34.5044C24.523 34.4414 25.1087 33.5298 27.0008 33.5298C28.8756 33.5298 29.4255 34.5044 31.06 34.4677C32.7428 34.4414 33.8022 33.0001 34.8134 31.526C36.0243 29.8514 36.5106 28.2023 36.5299 28.1176C36.4903 28.1045 33.2619 26.9031 33.23 23.269Z"
		fill="#05090D" />
	<path d="M30.1424 14.3526C30.9857 13.3243 31.5627 11.9255 31.4026 10.5059C30.182 10.5585 28.6556 11.329 27.7766 12.3347C26.9989 13.2209 26.3042 14.6734 26.4836 16.0393C27.8547 16.1391 29.2625 15.3648 30.1424 14.3526Z" fill="#05090D" />
	<path
		d="M54.9927 34.0706H53.0784L52.0297 30.8578H48.3847L47.3858 34.0706H45.522L49.1333 23.1328H51.3638L54.9927 34.0706ZM51.7136 29.5099L50.7652 26.6538C50.6649 26.362 50.4769 25.6749 50.1996 24.5933H50.1659C50.0555 25.0585 49.8776 25.7456 49.6331 26.6538L48.7017 29.5099H51.7136Z"
		fill="#05090D" />
	<path
		d="M64.2797 30.0436C64.2797 31.3849 63.9079 32.4451 63.1644 33.2235C62.4985 33.9163 61.6715 34.2624 60.6844 34.2624C59.6189 34.2624 58.8534 33.8892 58.3873 33.1429H58.3536V37.2976H56.5563V28.7934C56.5563 27.9502 56.5336 27.0847 56.4897 26.1971H58.0703L58.1706 27.4472H58.2044C58.8037 26.5053 59.7133 26.0352 60.9339 26.0352C61.8881 26.0352 62.6847 26.4025 63.322 27.1381C63.961 27.8746 64.2797 28.8428 64.2797 30.0436ZM62.4487 30.1077C62.4487 29.34 62.2717 28.7071 61.916 28.2091C61.5273 27.6896 61.0055 27.4299 60.3514 27.4299C59.908 27.4299 59.5051 27.5746 59.1451 27.8598C58.7843 28.1474 58.5483 28.523 58.4379 28.9882C58.3822 29.2052 58.3544 29.3827 58.3544 29.5225V30.8375C58.3544 31.4112 58.5348 31.8953 58.8956 32.2906C59.2564 32.686 59.7251 32.8832 60.3017 32.8832C60.9786 32.8832 61.5054 32.6284 61.8822 32.1205C62.2599 31.6117 62.4487 30.9411 62.4487 30.1077Z"
		fill="#05090D" />
	<path
		d="M73.5806 30.0436C73.5806 31.3849 73.2088 32.4451 72.4645 33.2235C71.7994 33.9163 70.9724 34.2624 69.9853 34.2624C68.9198 34.2624 68.1544 33.8892 67.689 33.1429H67.6553V37.2976H65.8581V28.7934C65.8581 27.9502 65.8353 27.0847 65.7915 26.1971H67.3721L67.4724 27.4472H67.5061C68.1046 26.5053 69.0142 26.0352 70.2357 26.0352C71.1891 26.0352 71.9857 26.4025 72.6246 27.1381C73.2611 27.8746 73.5806 28.8428 73.5806 30.0436ZM71.7496 30.1077C71.7496 29.34 71.5718 28.7071 71.216 28.2091C70.8274 27.6896 70.3073 27.4299 69.6523 27.4299C69.2081 27.4299 68.806 27.5746 68.4452 27.8598C68.0844 28.1474 67.8492 28.523 67.7388 28.9882C67.684 29.2052 67.6553 29.3827 67.6553 29.5225V30.8375C67.6553 31.4112 67.8357 31.8953 68.1948 32.2906C68.5556 32.6851 69.0243 32.8832 69.6026 32.8832C70.2795 32.8832 70.8063 32.6284 71.1832 32.1205C71.5608 31.6117 71.7496 30.9411 71.7496 30.1077Z"
		fill="#05090D" />
	<path
		d="M83.9884 31.0156C83.9884 31.946 83.6571 32.703 82.992 33.2873C82.2611 33.926 81.2437 34.2449 79.9362 34.2449C78.7291 34.2449 77.7614 34.018 77.0288 33.5635L77.4452 32.103C78.2343 32.5682 79.1 32.8016 80.0433 32.8016C80.7202 32.8016 81.247 32.652 81.6255 32.3545C82.0023 32.057 82.1903 31.6575 82.1903 31.1595C82.1903 30.7156 82.0352 30.3417 81.7242 30.0384C81.4148 29.7351 80.8981 29.4532 80.1765 29.1927C78.2123 28.4784 77.2311 27.4322 77.2311 26.0563C77.2311 25.1571 77.5751 24.4199 78.2638 23.8462C78.9499 23.2717 79.8654 22.9849 81.0102 22.9849C82.031 22.9849 82.879 23.1583 83.5559 23.5043L83.1066 24.9328C82.4744 24.5974 81.7596 24.4298 80.9596 24.4298C80.3274 24.4298 79.8334 24.5818 79.4793 24.8843C79.1801 25.1547 79.03 25.4843 79.03 25.8747C79.03 26.307 79.2011 26.6645 79.5451 26.9456C79.8443 27.2053 80.3881 27.4864 81.1771 27.7897C82.1423 28.1686 82.8512 28.6116 83.3073 29.1195C83.7616 29.6258 83.9884 30.2595 83.9884 31.0156Z"
		fill="#05090D" />
	<path
		d="M89.9258 27.5082H87.9449V31.3374C87.9449 32.3114 88.2939 32.798 88.9935 32.798C89.3147 32.798 89.5811 32.7708 89.7918 32.7166L89.8415 34.0472C89.4875 34.1763 89.0213 34.2412 88.4439 34.2412C87.7341 34.2412 87.1794 34.03 86.779 33.6084C86.3803 33.1859 86.1797 32.4774 86.1797 31.4821V27.5066H84.9995V26.1915H86.1797V24.7475L87.9449 24.228V26.1915H89.9258V27.5082Z"
		fill="#05090D" />
	<path
		d="M98.8631 30.0748C98.8631 31.2871 98.5073 32.2824 97.7975 33.0607C97.0532 33.8621 96.0652 34.2615 94.8336 34.2615C93.6467 34.2615 92.7018 33.8777 91.997 33.11C91.2923 32.3424 90.9399 31.3734 90.9399 30.2055C90.9399 28.9833 91.3024 27.9822 92.0299 27.2039C92.7557 26.4247 93.7352 26.0352 94.9668 26.0352C96.1537 26.0352 97.1088 26.419 97.8296 27.1875C98.5191 27.9329 98.8631 28.8954 98.8631 30.0748ZM96.9984 30.1315C96.9984 29.4041 96.8391 28.7803 96.5162 28.26C96.1394 27.6305 95.6007 27.3165 94.9028 27.3165C94.1803 27.3165 93.6316 27.6313 93.2547 28.26C92.9319 28.7811 92.7726 29.4148 92.7726 30.1644C92.7726 30.8917 92.9319 31.5156 93.2547 32.035C93.6434 32.6646 94.1862 32.9785 94.8867 32.9785C95.5729 32.9785 96.1116 32.658 96.5002 32.0186C96.8315 31.4884 96.9984 30.858 96.9984 30.1315Z"
		fill="#05090D" />
	<path
		d="M104.705 27.7381C104.527 27.7061 104.337 27.6896 104.138 27.6896C103.506 27.6896 103.017 27.9222 102.673 28.3882C102.374 28.7992 102.224 29.3186 102.224 29.9457V34.084H100.428L100.444 28.6808C100.444 27.7718 100.422 26.9442 100.377 26.1979H101.942L102.008 27.7069H102.058C102.248 27.1883 102.547 26.7708 102.956 26.4576C103.357 26.1757 103.789 26.0352 104.256 26.0352C104.422 26.0352 104.572 26.0467 104.705 26.0672V27.7381Z"
		fill="#05090D" />
	<path
		d="M112.742 29.769C112.742 30.083 112.721 30.3476 112.676 30.5638H107.285C107.306 31.3429 107.566 31.9388 108.067 32.3498C108.521 32.7171 109.109 32.9013 109.83 32.9013C110.629 32.9013 111.357 32.7771 112.012 32.5281L112.294 33.7445C111.528 34.07 110.625 34.2319 109.582 34.2319C108.327 34.2319 107.343 33.8719 106.626 33.1528C105.911 32.4336 105.553 31.4679 105.553 30.2564C105.553 29.0671 105.886 28.0767 106.553 27.2869C107.251 26.4436 108.194 26.022 109.381 26.022C110.547 26.022 111.43 26.4436 112.029 27.2869C112.504 27.9567 112.742 28.7852 112.742 29.769ZM111.028 29.3145C111.04 28.7951 110.923 28.3463 110.679 27.9674C110.368 27.48 109.89 27.2367 109.247 27.2367C108.66 27.2367 108.182 27.4743 107.817 27.951C107.517 28.3299 107.339 28.7844 107.285 29.3137H111.028V29.3145Z"
		fill="#05090D" />
	<path
		d="M51.1278 17.0953C51.1278 18.0626 50.8302 18.7908 50.2359 19.2799C49.6855 19.7311 48.9032 19.9571 47.8899 19.9571C47.3875 19.9571 46.9576 19.9358 46.5977 19.893V14.6074C47.0672 14.5334 47.573 14.4956 48.1192 14.4956C49.0844 14.4956 49.8119 14.7003 50.3025 15.1096C50.8522 15.5723 51.1278 16.2339 51.1278 17.0953ZM50.1963 17.1191C50.1963 16.492 50.026 16.0112 49.6855 15.6759C49.3449 15.3413 48.8476 15.1737 48.1926 15.1737C47.9144 15.1737 47.6775 15.1918 47.4811 15.2296V19.2478C47.5898 19.2643 47.7888 19.2717 48.0779 19.2717C48.754 19.2717 49.2758 19.0884 49.6433 18.7218C50.0109 18.3552 50.1963 17.821 50.1963 17.1191Z"
		fill="#05090D" />
	<path
		d="M56.0639 17.9308C56.0639 18.5267 55.8894 19.0149 55.5404 19.3979C55.1745 19.7916 54.6898 19.9881 54.0846 19.9881C53.5012 19.9881 53.0368 19.7998 52.6903 19.4218C52.3447 19.0445 52.1719 18.5686 52.1719 17.9949C52.1719 17.395 52.3497 16.9026 52.7072 16.5205C53.0646 16.1383 53.5451 15.9468 54.1503 15.9468C54.7337 15.9468 55.2024 16.135 55.5572 16.5122C55.8944 16.8788 56.0639 17.3522 56.0639 17.9308ZM55.1476 17.9588C55.1476 17.6013 55.0683 17.2947 54.9107 17.0391C54.7252 16.73 54.4614 16.5755 54.1183 16.5755C53.7634 16.5755 53.4937 16.73 53.3082 17.0391C53.1497 17.2947 53.0713 17.6062 53.0713 17.9744C53.0713 18.3319 53.1506 18.6385 53.3082 18.8941C53.4996 19.2031 53.7659 19.3577 54.1099 19.3577C54.4471 19.3577 54.7117 19.2007 54.9023 18.8859C55.0658 18.6253 55.1476 18.3163 55.1476 17.9588Z"
		fill="#05090D" />
	<path
		d="M62.6852 16.0405L61.4418 19.915H60.6326L60.1175 18.2325C59.9869 17.8125 59.8807 17.395 59.798 16.9808H59.782C59.7053 17.4065 59.5991 17.8232 59.4625 18.2325L58.9155 19.915H58.0969L56.9277 16.0405H57.8356L58.2849 17.8824C58.3937 18.318 58.483 18.7331 58.5547 19.1259H58.5707C58.6364 18.8021 58.7452 18.3895 58.8986 17.8906L59.4625 16.0413H60.1824L60.7228 17.8512C60.8534 18.2925 60.9597 18.7175 61.0414 19.1268H61.0659C61.1257 18.7281 61.2159 18.3032 61.3356 17.8512L61.8178 16.0413H62.6852V16.0405Z"
		fill="#05090D" />
	<path
		d="M67.2683 19.9026H66.3849V17.6834C66.3849 16.9996 66.1185 16.6577 65.584 16.6577C65.3219 16.6577 65.1103 16.7514 64.9459 16.9396C64.7832 17.1278 64.7006 17.3498 64.7006 17.6037V19.9018H63.8172V17.1352C63.8172 16.795 63.8062 16.4259 63.7852 16.0265H64.5615L64.6028 16.6322H64.6273C64.7301 16.444 64.8835 16.2887 65.085 16.1646C65.3244 16.0199 65.5925 15.9468 65.8858 15.9468C66.2567 15.9468 66.5653 16.0635 66.8106 16.2977C67.1157 16.5846 67.2683 17.0128 67.2683 17.5815V19.9026Z"
		fill="#05090D" />
	<path d="M69.7024 19.9124H68.8198V14.2603H69.7024V19.9124Z" fill="#05090D" />
	<path
		d="M74.8979 17.9308C74.8979 18.5267 74.7234 19.0149 74.3744 19.3979C74.0085 19.7916 73.523 19.9881 72.9186 19.9881C72.3344 19.9881 71.8699 19.7998 71.5243 19.4218C71.1787 19.0445 71.0059 18.5686 71.0059 17.9949C71.0059 17.395 71.1837 16.9026 71.5411 16.5205C71.8986 16.1383 72.3791 15.9468 72.9835 15.9468C73.5677 15.9468 74.0355 16.135 74.3912 16.5122C74.7284 16.8788 74.8979 17.3522 74.8979 17.9308ZM73.9807 17.9588C73.9807 17.6013 73.9015 17.2947 73.7438 17.0391C73.5592 16.73 73.2945 16.5755 72.9523 16.5755C72.5965 16.5755 72.3268 16.73 72.1422 17.0391C71.9837 17.2947 71.9053 17.6062 71.9053 17.9744C71.9053 18.3319 71.9846 18.6385 72.1422 18.8941C72.3335 19.2031 72.5999 19.3577 72.9439 19.3577C73.281 19.3577 73.5449 19.2007 73.7354 18.8859C73.8998 18.6253 73.9807 18.3163 73.9807 17.9588Z"
		fill="#05090D" />
	<path
		d="M79.1813 19.9001H78.388L78.3223 19.4538H78.2978C78.0264 19.8097 77.6395 19.9881 77.137 19.9881C76.7619 19.9881 76.4585 19.8705 76.23 19.6371C76.0226 19.4251 75.9189 19.1612 75.9189 18.8481C75.9189 18.3747 76.1213 18.0139 76.5284 17.764C76.9347 17.5141 77.5063 17.3917 78.2422 17.3974V17.3251C78.2422 16.8147 77.9674 16.5599 77.4169 16.5599C77.0249 16.5599 76.6793 16.6561 76.3809 16.8468L76.2013 16.2813C76.5706 16.0586 77.0266 15.9468 77.5644 15.9468C78.603 15.9468 79.1239 16.481 79.1239 17.5495V18.9763C79.1239 19.3634 79.1433 19.6716 79.1813 19.9001ZM78.2641 18.5686V17.9711C77.2896 17.9547 76.8024 18.2152 76.8024 18.7519C76.8024 18.9541 76.858 19.1053 76.9718 19.2064C77.0856 19.3075 77.2306 19.3577 77.4034 19.3577C77.5973 19.3577 77.7785 19.2977 77.9438 19.1785C78.1098 19.0585 78.2118 18.9064 78.2498 18.7199C78.259 18.6779 78.2641 18.627 78.2641 18.5686Z"
		fill="#05090D" />
	<path
		d="M84.203 19.9124H83.4191L83.3777 19.2903H83.3533C83.1029 19.7637 82.6764 20.0004 82.0771 20.0004C81.5982 20.0004 81.1995 19.8171 80.8834 19.4505C80.5673 19.084 80.4097 18.6081 80.4097 18.0237C80.4097 17.3966 80.5808 16.8887 80.9247 16.5007C81.2577 16.1391 81.6657 15.9583 82.1512 15.9583C82.6848 15.9583 83.0583 16.1334 83.2707 16.4843H83.2875V14.2603H84.1718V18.8686C84.1718 19.2459 84.1819 19.5936 84.203 19.9124ZM83.2875 18.2785V17.6325C83.2875 17.5207 83.2791 17.4303 83.2631 17.3613C83.2134 17.1542 83.1063 16.9799 82.9436 16.8394C82.7792 16.6988 82.5811 16.6281 82.3527 16.6281C82.0231 16.6281 81.7652 16.7555 81.5755 17.0111C81.3875 17.2668 81.2923 17.5931 81.2923 17.9917C81.2923 18.3747 81.3824 18.6854 81.5637 18.9245C81.755 19.1793 82.013 19.3067 82.3358 19.3067C82.6258 19.3067 82.8576 19.2007 83.0338 18.9878C83.2041 18.7914 83.2875 18.5547 83.2875 18.2785Z"
		fill="#05090D" />
	<path
		d="M91.7553 17.9308C91.7553 18.5267 91.5808 19.0149 91.2318 19.3979C90.8659 19.7916 90.3821 19.9881 89.776 19.9881C89.1935 19.9881 88.729 19.7998 88.3817 19.4218C88.0361 19.0445 87.8633 18.5686 87.8633 17.9949C87.8633 17.395 88.0411 16.9026 88.3986 16.5205C88.756 16.1383 89.2365 15.9468 89.8426 15.9468C90.4251 15.9468 90.8946 16.135 91.2486 16.5122C91.5858 16.8788 91.7553 17.3522 91.7553 17.9308ZM90.8398 17.9588C90.8398 17.6013 90.7606 17.2947 90.6029 17.0391C90.4166 16.73 90.1536 16.5755 89.8097 16.5755C89.4557 16.5755 89.1859 16.73 88.9996 17.0391C88.8411 17.2947 88.7627 17.6062 88.7627 17.9744C88.7627 18.3319 88.842 18.6385 88.9996 18.8941C89.191 19.2031 89.4573 19.3577 89.8013 19.3577C90.1385 19.3577 90.404 19.2007 90.5945 18.8859C90.7572 18.6253 90.8398 18.3163 90.8398 17.9588Z"
		fill="#05090D" />
	<path
		d="M96.5058 19.9026H95.6232V17.6834C95.6232 16.9996 95.3568 16.6577 94.8215 16.6577C94.5593 16.6577 94.3478 16.7514 94.1842 16.9396C94.0207 17.1278 93.9389 17.3498 93.9389 17.6037V19.9018H93.0546V17.1352C93.0546 16.795 93.0445 16.4259 93.0234 16.0265H93.799L93.8403 16.6322H93.8647C93.9684 16.444 94.1218 16.2887 94.3225 16.1646C94.5627 16.0199 94.8299 15.9468 95.1241 15.9468C95.4942 15.9468 95.8027 16.0635 96.048 16.2977C96.354 16.5846 96.5058 17.0128 96.5058 17.5815V19.9026Z"
		fill="#05090D" />
	<path
		d="M102.45 16.6833H101.478V18.5655C101.478 19.0438 101.65 19.283 101.993 19.283C102.151 19.283 102.283 19.2699 102.386 19.2427L102.409 19.8961C102.235 19.9602 102.005 19.9923 101.723 19.9923C101.374 19.9923 101.103 19.8887 100.906 19.6816C100.709 19.4745 100.611 19.126 100.611 18.637V16.6833H100.03V16.0381H100.611V15.328L101.477 15.0732V16.0373H102.45V16.6833H102.45Z"
		fill="#05090D" />
	<path
		d="M107.132 19.9124H106.248V17.7098C106.248 17.0153 105.982 16.6676 105.448 16.6676C105.038 16.6676 104.758 16.869 104.605 17.2717C104.579 17.3563 104.564 17.4599 104.564 17.5815V19.9116H103.681V14.2603H104.564V16.5953H104.581C104.859 16.1703 105.257 15.9583 105.774 15.9583C106.14 15.9583 106.443 16.075 106.683 16.3092C106.982 16.601 107.132 17.035 107.132 17.6087V19.9124Z"
		fill="#05090D" />
	<path
		d="M111.95 17.787C111.95 17.9415 111.939 18.0714 111.917 18.1774H109.268C109.28 18.5604 109.406 18.8522 109.652 19.0544C109.876 19.2352 110.165 19.3256 110.519 19.3256C110.911 19.3256 111.268 19.2648 111.59 19.1423L111.729 19.7407C111.352 19.9001 110.908 19.9798 110.395 19.9798C109.78 19.9798 109.295 19.8031 108.944 19.4497C108.592 19.0963 108.417 18.6221 108.417 18.027C108.417 17.4426 108.58 16.9561 108.908 16.5681C109.25 16.1539 109.713 15.9468 110.297 15.9468C110.869 15.9468 111.303 16.1539 111.596 16.5681C111.833 16.8969 111.95 17.3037 111.95 17.787ZM111.107 17.5643C111.114 17.3087 111.056 17.0884 110.936 16.9026C110.783 16.6635 110.549 16.5435 110.233 16.5435C109.945 16.5435 109.71 16.6602 109.53 16.8944C109.384 17.081 109.297 17.3037 109.268 17.5643H111.107Z"
		fill="#05090D" />
</svg>