<svg width="16" height="17" viewBox="0 0 16 17" fill="none" xmlns="http://www.w3.org/2000/svg">
<path fill-rule="evenodd" clip-rule="evenodd" d="M15.68 8.51527C15.68 7.948 15.6291 7.40254 15.5345 6.87891H8V9.97345H12.3055C12.12 10.9735 11.5564 11.8207 10.7091 12.388V14.3953H13.2945C14.8073 13.0025 15.68 10.9516 15.68 8.51527Z" fill="#4285F4"/>
<path fill-rule="evenodd" clip-rule="evenodd" d="M7.99968 16.3335C10.1597 16.3335 11.9706 15.6172 13.2942 14.3953L10.7088 12.3881C9.9924 12.8681 9.07604 13.1517 7.99968 13.1517C5.91604 13.1517 4.1524 11.7444 3.52331 9.85352H0.850586V11.9262C2.16695 14.5408 4.8724 16.3335 7.99968 16.3335Z" fill="#34A853"/>
<path fill-rule="evenodd" clip-rule="evenodd" d="M3.52364 9.85491C3.36364 9.37491 3.27273 8.86219 3.27273 8.33491C3.27273 7.80764 3.36364 7.29491 3.52364 6.81491V4.74219H0.850909C0.309091 5.82219 0 7.04401 0 8.33491C0 9.62582 0.309091 10.8476 0.850909 11.9276L3.52364 9.85491Z" fill="#FBBC05"/>
<path fill-rule="evenodd" clip-rule="evenodd" d="M7.99968 3.5158C9.17422 3.5158 10.2288 3.91944 11.0579 4.71217L13.3524 2.41762C11.9669 1.12671 10.156 0.333984 7.99968 0.333984C4.8724 0.333984 2.16695 2.12671 0.850586 4.74126L3.52331 6.81399C4.1524 4.92308 5.91604 3.5158 7.99968 3.5158Z" fill="#EA4335"/>
</svg>
