<svg width="356" height="60" viewBox="0 0 356 60" fill="none" xmlns="http://www.w3.org/2000/svg">
	<path
		d="M178 43.1265C177.674 43.1265 177.353 43.0413 177.07 42.8793L160.656 33.4984C160.514 33.4161 160.352 33.3727 160.187 33.3728C160.022 33.3729 159.861 33.4163 159.718 33.4988C159.576 33.5812 159.457 33.6997 159.375 33.8425C159.293 33.9852 159.25 34.147 159.25 34.3117V43.1265C159.25 43.4612 159.339 43.7898 159.509 44.0783C159.678 44.3668 159.922 44.6046 160.214 44.7672L177.089 54.1422C177.368 54.2969 177.681 54.3781 178 54.3781C178.319 54.3781 178.632 54.2969 178.911 54.1422L195.786 44.7672C196.078 44.6046 196.322 44.3668 196.491 44.0783C196.661 43.7898 196.75 43.4612 196.75 43.1265V34.3117C196.75 34.147 196.707 33.9852 196.625 33.8425C196.543 33.6997 196.424 33.5812 196.282 33.4988C196.139 33.4163 195.978 33.3729 195.813 33.3728C195.648 33.3727 195.486 33.4161 195.344 33.4984L178.93 42.8793C178.647 43.0413 178.326 43.1265 178 43.1265Z"
		fill="#00D25A"/>
	<path
		d="M206.117 22.3263C206.117 22.3263 206.117 22.3169 206.117 22.3134C206.087 22.0162 205.986 21.7306 205.823 21.4802C205.66 21.2299 205.439 21.0222 205.179 20.8744L178.929 5.87436C178.646 5.71239 178.325 5.6272 177.999 5.6272C177.673 5.6272 177.352 5.71239 177.068 5.87436L150.818 20.8744C150.532 21.0384 150.293 21.2753 150.127 21.5612C149.961 21.847 149.874 22.1716 149.874 22.5021C149.874 22.8326 149.961 23.1572 150.127 23.443C150.293 23.7289 150.532 23.9658 150.818 24.1298L177.068 39.1298C177.352 39.2918 177.673 39.377 177.999 39.377C178.325 39.377 178.646 39.2918 178.929 39.1298L202.025 25.9333C202.06 25.9127 202.101 25.9019 202.142 25.9019C202.183 25.902 202.224 25.9129 202.26 25.9336C202.295 25.9543 202.325 25.984 202.345 26.0197C202.366 26.0555 202.376 26.096 202.376 26.1373V43.0744C202.376 44.0833 203.152 44.9494 204.161 44.9998C204.415 45.012 204.668 44.9726 204.906 44.884C205.144 44.7954 205.361 44.6594 205.545 44.4843C205.729 44.3092 205.875 44.0987 205.975 43.8654C206.075 43.6321 206.126 43.3809 206.126 43.1271V22.5021C206.126 22.4434 206.123 22.3847 206.117 22.3263Z"
		fill="#00D25A"/>
	<line x1="72" y1="32" x2="136" y2="32" stroke="#64778A" stroke-width="8" stroke-linecap="round"
		  stroke-dasharray="8 12"/>
	<line x1="220" y1="32" x2="284" y2="32" stroke="#64778A" stroke-width="8" stroke-linecap="round"
		  stroke-dasharray="8 12"/>
	<path
		d="M350.375 9.375H343.332C343.208 9.375 343.088 9.32561 343.001 9.23771C342.913 9.1498 342.863 9.03057 342.863 8.90625C342.863 8.3332 342.863 7.85156 342.863 7.49062C342.861 6.49769 342.465 5.54627 341.762 4.84503C341.059 4.1438 340.106 3.75 339.113 3.75L312.888 3.78047C311.896 3.78233 310.945 4.17711 310.244 4.8784C309.542 5.57968 309.147 6.53034 309.145 7.52227C309.145 7.90078 309.145 8.36836 309.145 8.90625C309.145 9.03057 309.096 9.1498 309.008 9.23771C308.92 9.32561 308.8 9.375 308.676 9.375H301.625C301.128 9.375 300.651 9.57254 300.299 9.92418C299.948 10.2758 299.75 10.7527 299.75 11.25V13.125C299.75 19.5152 303.266 26.3027 308.717 27.8145C308.878 27.8593 309.024 27.9475 309.139 28.0694C309.254 28.1913 309.333 28.3422 309.368 28.5059C310.044 31.657 312.124 34.6582 315.392 37.132C317.843 38.9871 320.765 40.3547 323.393 40.9383C323.6 40.9848 323.786 41.1007 323.919 41.2669C324.052 41.433 324.125 41.6395 324.125 41.8523V52.0312C324.125 52.1556 324.076 52.2748 323.988 52.3627C323.9 52.4506 323.781 52.5 323.656 52.5H316.678C315.669 52.5 314.803 53.2758 314.752 54.2848C314.74 54.5383 314.78 54.7916 314.868 55.0295C314.957 55.2673 315.093 55.4847 315.268 55.6685C315.443 55.8522 315.653 55.9985 315.887 56.0985C316.12 56.1984 316.371 56.25 316.625 56.25H335.322C336.331 56.25 337.197 55.4742 337.248 54.4652C337.26 54.2117 337.22 53.9584 337.132 53.7205C337.043 53.4827 336.907 53.2653 336.732 53.0815C336.557 52.8978 336.347 52.7515 336.113 52.6515C335.88 52.5516 335.629 52.5 335.375 52.5H328.344C328.219 52.5 328.1 52.4506 328.012 52.3627C327.924 52.2748 327.875 52.1556 327.875 52.0312V41.8523C327.875 41.6395 327.948 41.433 328.081 41.2669C328.214 41.1007 328.4 40.9848 328.607 40.9383C331.235 40.3523 334.157 38.9871 336.608 37.132C339.876 34.6582 341.956 31.657 342.632 28.5059C342.667 28.3422 342.746 28.1913 342.861 28.0694C342.976 27.9475 343.122 27.8593 343.283 27.8145C348.734 26.3027 352.25 19.5152 352.25 13.125V11.25C352.25 10.7527 352.052 10.2758 351.701 9.92418C351.349 9.57254 350.872 9.375 350.375 9.375ZM309.125 23.2289C309.125 23.311 309.103 23.3917 309.062 23.4627C309.02 23.5337 308.961 23.5927 308.89 23.6336C308.819 23.6746 308.738 23.6961 308.656 23.696C308.574 23.6959 308.493 23.6743 308.422 23.6332C307.22 22.9172 306.342 21.832 305.827 21.068C304.432 18.9949 303.601 16.302 303.508 13.6113C303.506 13.5483 303.516 13.4855 303.539 13.4265C303.561 13.3676 303.595 13.3139 303.639 13.2684C303.683 13.223 303.735 13.1869 303.793 13.1623C303.851 13.1376 303.914 13.125 303.977 13.125H308.664C308.789 13.125 308.908 13.1744 308.996 13.2623C309.084 13.3502 309.133 13.4694 309.133 13.5938C309.131 16.8105 309.125 20.4926 309.125 23.2289ZM346.171 21.068C345.657 21.832 344.78 22.9172 343.578 23.6332C343.507 23.6743 343.426 23.696 343.344 23.696C343.262 23.696 343.181 23.6744 343.11 23.6333C343.038 23.5922 342.979 23.5331 342.938 23.4619C342.897 23.3907 342.875 23.31 342.875 23.2277C342.875 20.1211 342.875 16.5914 342.869 13.5938C342.869 13.4694 342.919 13.3502 343.006 13.2623C343.094 13.1744 343.214 13.125 343.338 13.125H348.025C348.088 13.125 348.151 13.1376 348.209 13.1623C348.267 13.1869 348.319 13.223 348.363 13.2684C348.407 13.3139 348.441 13.3676 348.464 13.4265C348.486 13.4855 348.497 13.5483 348.494 13.6113C348.402 16.302 347.568 18.9949 346.173 21.068H346.171Z"
		fill="#FFA84B"/>
	<path
		d="M38.9814 7.56797C36.7009 5.10586 33.5157 3.75 30.0001 3.75C26.4657 3.75 23.27 5.09766 21.0001 7.54453C18.7056 10.0184 17.5876 13.3805 17.8501 17.0109C18.3704 24.1734 23.8208 30 30.0001 30C36.1794 30 41.6204 24.1746 42.1489 17.0133C42.415 13.4156 41.29 10.0605 38.9814 7.56797Z"
		fill="#546DD3"/>
	<path
		d="M50.6254 56.25H9.37543C8.8355 56.257 8.3008 56.1436 7.81023 55.918C7.31965 55.6923 6.88555 55.3602 6.53949 54.9457C5.77777 54.0352 5.47074 52.7918 5.69808 51.5344C6.68714 46.0477 9.77386 41.4387 14.6254 38.2031C18.9356 35.3309 24.3953 33.75 30.0004 33.75C35.6055 33.75 41.0653 35.332 45.3754 38.2031C50.227 41.4375 53.3137 46.0465 54.3028 51.5332C54.5301 52.7906 54.2231 54.034 53.4614 54.9445C53.1154 55.3592 52.6814 55.6916 52.1908 55.9174C51.7002 56.1433 51.1654 56.2569 50.6254 56.25Z"
		fill="#546DD3"/>
</svg>
