<svg width="161" height="128" viewBox="0 0 161 128" fill="none" xmlns="http://www.w3.org/2000/svg">
    <path
        d="M110.401 126.561C107.659 124.245 105.994 120.586 106.431 117.024C106.868 113.462 109.572 110.187 113.08 109.431C116.588 108.674 120.587 110.768 121.653 114.195C122.239 107.588 122.915 100.704 126.428 95.0777C129.609 89.983 135.118 86.3376 141.088 85.6854C147.058 85.0333 153.345 87.4964 157.068 92.2089C160.792 96.9213 161.703 103.772 159.096 109.182C157.174 113.168 153.635 116.134 149.927 118.547C137.943 126.279 123.571 129.423 109.454 127.401L110.401 126.561Z"
        fill="#F2F2F2" />
    <path
        d="M151.164 87.6319C146.238 91.6445 141.718 96.1323 137.671 101.03C131.337 108.67 126.212 117.235 122.474 126.427C122.2 127.097 123.289 127.389 123.56 126.726C129.676 111.787 139.441 98.6193 151.96 88.4281C152.523 87.9703 151.722 87.1778 151.164 87.6319Z"
        fill="white" />
    <path d="M100.164 127.728H10.3364V35.5621C10.3364 15.953 26.2894 0 45.8984 0H64.6024C84.2114 0 100.164 15.953 100.164 35.5621V127.728Z" fill="#F2F2F2" />
    <path
        d="M81.4605 127.729H10.3364V35.5631C10.3167 28.0493 12.696 20.7255 17.1278 14.6579C17.2912 14.4352 17.4541 14.2154 17.6222 13.9981C19.7658 11.1866 22.3167 8.71055 25.1909 6.6517C25.3532 6.53357 25.5162 6.41749 25.6816 6.30141C28.0866 4.63711 30.6882 3.27658 33.4271 2.25078C33.5897 2.18913 33.7553 2.12736 33.9209 2.06812C36.398 1.18413 38.9658 0.578605 41.5768 0.262718C41.7387 0.240606 41.9049 0.223302 42.0711 0.205999C44.6156 -0.0660621 47.1818 -0.0660621 49.7263 0.205999C49.892 0.223302 50.0582 0.240604 50.222 0.262955C52.8323 0.578862 55.3994 1.18432 57.8759 2.06813C58.0415 2.12738 58.2071 2.18914 58.3703 2.25091C61.0754 3.26376 63.6463 4.60399 66.0257 6.24169C66.191 6.35525 66.3564 6.47133 66.5195 6.58741C68.1305 7.7374 69.6437 9.01854 71.0437 10.4178C72.1664 11.5401 73.2126 12.7365 74.1752 13.9988C74.3428 14.2155 74.5057 14.4352 74.6688 14.6576C79.1007 20.7252 81.4801 28.0492 81.4605 35.5631V127.729Z"
        fill="#CCCCCC" />
    <path d="M75.677 86.5042C77.8518 86.5042 79.6147 84.7413 79.6147 82.5666C79.6147 80.3919 77.8518 78.6289 75.677 78.6289C73.5023 78.6289 71.7394 80.3919 71.7394 82.5666C71.7394 84.7413 73.5023 86.5042 75.677 86.5042Z" fill="#2F4DCB" />
    <path d="M92.8057 124.968H89.7885L88.353 113.33L92.8062 113.33L92.8057 124.968Z" fill="#FFB8B8" />
    <path d="M87.6332 124.105H93.4521V127.769H83.9695C83.9695 127.288 84.0643 126.812 84.2484 126.367C84.4325 125.923 84.7024 125.519 85.0426 125.179C85.3828 124.838 85.7867 124.568 86.2312 124.384C86.6757 124.2 87.1521 124.105 87.6332 124.105Z"
        fill="#2F2E41" />
    <path d="M107.818 124.968H104.801L103.365 113.33L107.818 113.33L107.818 124.968Z" fill="#FFB8B8" />
    <path d="M102.646 124.105H108.464V127.769H98.9818C98.9818 127.288 99.0766 126.812 99.2607 126.367C99.4448 125.923 99.7147 125.519 100.055 125.179C100.395 124.838 100.799 124.568 101.243 124.384C101.688 124.2 102.164 124.105 102.646 124.105Z"
        fill="#2F2E41" />
    <path
        d="M77.6699 83.3479C77.4528 83.0281 77.3085 82.6646 77.2472 82.283C77.1858 81.9014 77.2088 81.511 77.3147 81.1392C77.4205 80.7675 77.6065 80.4235 77.8597 80.1314C78.1129 79.8394 78.427 79.6064 78.78 79.4489L89.0365 51.1797L94.0834 53.9339L82.3726 80.949C82.598 81.5595 82.5915 82.2314 82.3545 82.8374C82.1175 83.4435 81.6665 83.9415 81.0868 84.2372C80.5071 84.5329 79.8391 84.6057 79.2094 84.4418C78.5796 84.2779 78.0319 83.8887 77.6699 83.3479Z"
        fill="#FFB8B8" />
    <path
        d="M106.277 88.6606C105.942 88.4683 105.652 88.2049 105.43 87.8889C105.207 87.5728 105.057 87.2118 104.989 86.8313C104.921 86.4508 104.938 86.0601 105.037 85.6866C105.137 85.3131 105.317 84.9659 105.565 84.6696L102.387 54.7656L108.131 55.028L109.451 84.4425C109.922 84.8924 110.211 85.4991 110.263 86.1477C110.316 86.7963 110.129 87.4417 109.738 87.9616C109.346 88.4816 108.778 88.8399 108.14 88.9687C107.502 89.0975 106.839 88.9879 106.277 88.6606Z"
        fill="#FFB8B8" />
    <path d="M97.1142 45.9446C100.453 45.9446 103.159 43.2384 103.159 39.9C103.159 36.5617 100.453 33.8555 97.1142 33.8555C93.7759 33.8555 91.0696 36.5617 91.0696 39.9C91.0696 43.2384 93.7759 45.9446 97.1142 45.9446Z" fill="#FFB8B8" />
    <path
        d="M106.238 81.8611H88.015L88.0369 81.7193C88.0696 81.5074 91.2847 60.4463 88.9135 53.5561C88.6755 52.879 88.6964 52.1378 88.9722 51.4752C89.248 50.8126 89.7591 50.2755 90.4071 49.9671H90.4072C93.7965 48.371 100.302 46.4057 105.794 51.1753C106.602 51.8887 107.233 52.7803 107.637 53.7796C108.041 54.7789 108.207 55.8586 108.122 56.9331L106.238 81.8611Z"
        fill="#2F4DCB" />
    <path
        d="M91.5149 63.5564L83.3106 61.892L87.1563 52.7788C87.3864 51.8961 87.9573 51.1408 88.7436 50.6784C89.5299 50.2161 90.4675 50.0845 91.3507 50.3125C92.2339 50.5405 92.9906 51.1095 93.4549 51.8947C93.9191 52.6799 94.053 53.6172 93.8271 54.5009L91.5149 63.5564Z"
        fill="#2F4DCB" />
    <path d="M102.023 66.6489L101.529 55.3425C101.155 53.2171 102.372 51.2079 104.243 50.8795C106.115 50.5522 107.943 52.0263 108.318 54.1674L110.172 64.7321L102.023 66.6489Z" fill="#2F4DCB" />
    <path d="M105.632 80.5039C108.564 91.6713 108.884 105.87 108.093 121.357L104.155 120.865L97.0183 91.3325L93.0806 121.357L88.6507 121.111C87.3273 104.861 86.0388 90.9104 88.1585 81.7344L105.632 80.5039Z" fill="#2F2E41" />
    <path
        d="M101.097 44.5701C99.9693 45.7713 97.8751 45.1264 97.7282 43.4855C97.7167 43.3581 97.7175 43.2298 97.7307 43.1026C97.8066 42.3757 98.2265 41.7158 98.1259 40.9483C98.1031 40.7573 98.032 40.5753 97.9192 40.4194C97.0206 39.2162 94.9112 40.9576 94.0631 39.8683C93.5431 39.2004 94.1544 38.1488 93.7554 37.4022C93.2287 36.417 91.6687 36.903 90.6904 36.3634C89.6019 35.763 89.667 34.093 90.3835 33.0773C91.2573 31.8385 92.7894 31.1774 94.3023 31.0822C95.8153 30.9869 97.3178 31.3959 98.7303 31.9464C100.335 32.5718 101.927 33.4362 102.914 34.8473C104.115 36.5635 104.231 38.8706 103.63 40.8773C103.265 42.098 102.018 43.5892 101.097 44.5701Z"
        fill="#2F2E41" />
    <path
        d="M142.729 127.944H0.229149C0.168313 127.944 0.110034 127.909 0.0670783 127.848C0.0241231 127.787 0 127.704 0 127.617C0 127.531 0.0241231 127.448 0.0670783 127.387C0.110034 127.326 0.168313 127.291 0.229149 127.291H142.729C142.79 127.291 142.848 127.326 142.891 127.387C142.934 127.448 142.958 127.531 142.958 127.617C142.958 127.704 142.934 127.787 142.891 127.848C142.848 127.909 142.79 127.944 142.729 127.944Z"
        fill="#494C58" />
    <path
        d="M61.8952 101.027H29.9016C29.4803 101.029 29.0753 100.864 28.7754 100.568C28.4755 100.272 28.3052 99.8692 28.302 99.4478V28.0359C28.3052 27.6145 28.4755 27.2117 28.7754 26.9157C29.0753 26.6197 29.4803 26.4548 29.9016 26.4571H61.8952C62.3166 26.4548 62.7216 26.6197 63.0215 26.9157C63.3214 27.2117 63.4916 27.6145 63.4949 28.0359V99.4478C63.4916 99.8692 63.3214 100.272 63.0215 100.568C62.7216 100.864 62.3166 101.029 61.8952 101.027Z"
        fill="white" />
    <path d="M63.4949 49.5645H28.302V50.2175H63.4949V49.5645Z" fill="#CCCCCC" />
    <path d="M63.6179 77.6445H28.425V78.2976H63.6179V77.6445Z" fill="#CCCCCC" />
    <path d="M40.0297 26.457H39.3767V101.273H40.0297V26.457Z" fill="#CCCCCC" />
    <path d="M52.3349 26.457H51.6819V101.273H52.3349V26.457Z" fill="#CCCCCC" />
</svg>