<svg width="172" height="64" viewBox="0 0 172 64" fill="none" xmlns="http://www.w3.org/2000/svg">
	<path
		d="M0 8C0 3.58172 3.58172 0 8 0H164C168.418 0 172 3.58172 172 8V56C172 60.4183 168.418 64 164 64H8C3.58173 64 0 60.4183 0 56V8Z"
		fill="#162565"/>
	<path
		d="M61.1046 19.9732C61.1046 20.9551 60.8035 21.7415 60.2104 22.328C59.5284 23.0233 58.6401 23.3731 57.5516 23.3731C56.5113 23.3731 55.623 23.0174 54.8943 22.3162C54.1641 21.6048 53.7998 20.7317 53.7998 19.6866C53.7998 18.6414 54.1641 17.7683 54.8943 17.0628C55.623 16.3557 56.5113 16 57.5516 16C58.0695 16 58.5633 16.1044 59.0345 16.2984C59.5043 16.4939 59.8867 16.7585 60.1637 17.0848L59.5344 17.7051C59.0511 17.148 58.3932 16.8731 57.5516 16.8731C56.7928 16.8731 56.1349 17.1318 55.5763 17.6537C55.0238 18.1769 54.7468 18.8546 54.7468 19.6866C54.7468 20.5185 55.0238 21.202 55.5763 21.7253C56.1349 22.2413 56.7928 22.5059 57.5516 22.5059C58.3571 22.5059 59.0345 22.2413 59.569 21.7195C59.9213 21.374 60.1215 20.8978 60.1742 20.2892H57.5516V19.4396H61.0504C61.0926 19.6233 61.1046 19.8012 61.1046 19.9732Z"
		fill="white" stroke="white" stroke-width="0.0643492" stroke-miterlimit="10"/>
	<path d="M66.6496 16.8658H63.363V19.1001H66.3259V19.9497H63.363V22.1839H66.6496V23.0497H62.4326V16H66.6496V16.8658Z"
		  fill="white" stroke="white" stroke-width="0.0643492" stroke-miterlimit="10"/>
	<path d="M70.5704 23.0497H69.6399V16.8658H67.624V16H72.5878V16.8658H70.5704V23.0497Z" fill="white" stroke="white"
		  stroke-width="0.0643492" stroke-miterlimit="10"/>
	<path d="M76.1787 23.0497V16H77.1076V23.0497H76.1787Z" fill="white" stroke="white" stroke-width="0.0643492"
		  stroke-miterlimit="10"/>
	<path d="M81.2266 23.0497H80.3037V16.8658H78.2803V16H83.25V16.8658H81.2266V23.0497Z" fill="white" stroke="white"
		  stroke-width="0.0643492" stroke-miterlimit="10"/>
	<path
		d="M92.6481 22.3045C91.936 23.0174 91.0537 23.3731 90.0014 23.3731C88.943 23.3731 88.0607 23.0174 87.3486 22.3045C86.638 21.593 86.2842 20.7199 86.2842 19.6866C86.2842 18.6532 86.638 17.7801 87.3486 17.0686C88.0607 16.3557 88.943 16 90.0014 16C91.0477 16 91.93 16.3557 92.6421 17.0745C93.3587 17.7918 93.7125 18.6591 93.7125 19.6866C93.7125 20.7199 93.3587 21.593 92.6481 22.3045ZM88.0366 21.7136C88.5726 22.2413 89.2245 22.5059 90.0014 22.5059C90.7722 22.5059 91.4301 22.2413 91.9601 21.7136C92.4945 21.1859 92.7655 20.5082 92.7655 19.6866C92.7655 18.8649 92.4945 18.1872 91.9601 17.6595C91.4301 17.1318 90.7722 16.8673 90.0014 16.8673C89.2245 16.8673 88.5726 17.1318 88.0366 17.6595C87.5022 18.1872 87.2312 18.8649 87.2312 19.6866C87.2312 20.5082 87.5022 21.1859 88.0366 21.7136Z"
		fill="white" stroke="white" stroke-width="0.0643492" stroke-miterlimit="10"/>
	<path
		d="M95.0186 23.0497V16H96.1477L99.6586 21.4828H99.6992L99.6586 20.1275V16H100.588V23.0497H99.6179L95.9414 17.2965H95.9008L95.9414 18.6576V23.0497H95.0186Z"
		fill="white" stroke="white" stroke-width="0.0643492" stroke-miterlimit="10"/>
	<path
		d="M86.0577 32.9051C83.2289 32.9051 80.9179 35.007 80.9179 37.9072C80.9179 40.7838 83.2289 42.9078 86.0577 42.9078C88.8927 42.9078 91.2037 40.7838 91.2037 37.9072C91.2037 35.007 88.8927 32.9051 86.0577 32.9051ZM86.0577 40.9382C84.5055 40.9382 83.1701 39.6873 83.1701 37.9072C83.1701 36.1036 84.5055 34.8748 86.0577 34.8748C87.61 34.8748 88.9514 36.1036 88.9514 37.9072C88.9514 39.6873 87.61 40.9382 86.0577 40.9382ZM74.843 32.9051C72.0081 32.9051 69.7032 35.007 69.7032 37.9072C69.7032 40.7838 72.0081 42.9078 74.843 42.9078C77.6764 42.9078 79.9829 40.7838 79.9829 37.9072C79.9829 35.007 77.6764 32.9051 74.843 32.9051ZM74.843 40.9382C73.2893 40.9382 71.9494 39.6873 71.9494 37.9072C71.9494 36.1036 73.2893 34.8748 74.843 34.8748C76.3952 34.8748 77.7307 36.1036 77.7307 37.9072C77.7307 39.6873 76.3952 40.9382 74.843 40.9382ZM61.498 34.4382V36.5637H66.6966C66.5445 37.7514 66.138 38.6245 65.5148 39.2331C64.756 39.968 63.5741 40.7838 61.498 40.7838C58.2987 40.7838 55.7935 38.2629 55.7935 35.1393C55.7935 32.0158 58.2987 29.4949 61.498 29.4949C63.2279 29.4949 64.4865 30.1549 65.4154 31.0103L66.9495 29.5125C65.6503 28.3013 63.9219 27.3708 61.498 27.3708C57.1109 27.3708 53.4238 30.856 53.4238 35.1393C53.4238 39.4227 57.1109 42.9078 61.498 42.9078C63.8692 42.9078 65.6503 42.1494 67.0504 40.7265C68.4852 39.3257 68.9323 37.356 68.9323 35.7655C68.9323 35.2716 68.8902 34.8174 68.8149 34.4382H61.498ZM116.068 36.086C115.644 34.9674 114.339 32.9051 111.68 32.9051C109.046 32.9051 106.852 34.9321 106.852 37.9072C106.852 40.7089 109.023 42.9078 111.933 42.9078C114.286 42.9078 115.644 41.507 116.203 40.6912L114.457 39.555C113.874 40.3869 113.081 40.9382 111.933 40.9382C110.794 40.9382 109.976 40.4281 109.452 39.4227L116.304 36.6548L116.068 36.086ZM109.082 37.7514C109.023 35.8229 110.616 34.8351 111.757 34.8351C112.651 34.8351 113.41 35.2716 113.663 35.8963L109.082 37.7514ZM103.513 42.6036H105.765V27.9044H103.513V42.6036ZM99.8243 34.0193H99.7491C99.2432 33.4342 98.2782 32.9051 97.0557 32.9051C94.4902 32.9051 92.1446 35.1041 92.1446 37.9234C92.1446 40.7265 94.4902 42.9078 97.0557 42.9078C98.2782 42.9078 99.2432 42.3743 99.7491 41.7716H99.8243V42.4889C99.8243 44.4013 98.778 45.4288 97.0903 45.4288C95.7142 45.4288 94.8606 44.4586 94.5083 43.6428L92.5496 44.441C93.1142 45.7668 94.6092 47.3984 97.0903 47.3984C99.731 47.3984 101.959 45.8815 101.959 42.1905V33.2093H99.8243V34.0193ZM97.2484 40.9382C95.6962 40.9382 94.3969 39.6696 94.3969 37.9234C94.3969 36.1609 95.6962 34.8748 97.2484 34.8748C98.778 34.8748 99.9839 36.1609 99.9839 37.9234C99.9839 39.6696 98.778 40.9382 97.2484 40.9382ZM126.612 27.9044H121.225V42.6036H123.472V37.0341H126.612C129.107 37.0341 131.553 35.2716 131.553 32.4685C131.553 29.6668 129.101 27.9044 126.612 27.9044ZM126.671 34.9894H123.472V29.9491H126.671C128.348 29.9491 129.306 31.3087 129.306 32.4685C129.306 33.6062 128.348 34.9894 126.671 34.9894ZM140.557 32.8771C138.934 32.8771 137.246 33.5768 136.552 35.1276L138.545 35.9434C138.974 35.1276 139.763 34.863 140.597 34.863C141.762 34.863 142.944 35.5465 142.962 36.7533V36.9076C142.556 36.6783 141.686 36.3388 140.615 36.3388C138.468 36.3388 136.281 37.4927 136.281 39.6461C136.281 41.6158 138.039 42.8843 140.016 42.8843C141.528 42.8843 142.362 42.2185 142.886 41.4438H142.962V42.5801H145.132V36.9415C145.132 34.3353 143.139 32.8771 140.557 32.8771ZM140.286 40.9323C139.551 40.9323 138.527 40.5766 138.527 39.6873C138.527 38.5495 139.804 38.113 140.909 38.113C141.898 38.113 142.362 38.3261 142.962 38.6069C142.786 39.968 141.586 40.9323 140.286 40.9323ZM153.036 33.1991L150.454 39.5711H150.377L147.708 33.1991H145.285L149.296 42.1038L147.008 47.0589H149.355L155.535 33.1991H153.036ZM132.788 42.6036H135.04V27.9044H132.788V42.6036Z"
		fill="white"/>
	<path
		d="M16.5929 16.4885C16.2186 16.8711 16.002 17.4667 16.002 18.2381V45.7524C16.002 46.5237 16.2186 47.1194 16.5929 47.502L16.6853 47.5859L32.4769 32.1741V31.8102L16.6853 16.3983L16.5929 16.4885Z"
		fill="url(#paint0_linear_5143_23634)"/>
	<path
		d="M37.7327 37.3125L32.4746 32.1726V31.8087L37.739 26.6688L37.8569 26.7357L44.0914 30.1991C45.8706 31.182 45.8706 32.7994 44.0914 33.7885L37.8569 37.2456L37.7327 37.3125Z"
		fill="url(#paint1_linear_5143_23634)"/>
	<path
		d="M37.8621 37.2481L32.4798 31.9932L16.5957 47.503C17.1867 48.1095 18.1503 48.1826 19.2462 47.5761L37.8621 37.2481Z"
		fill="url(#paint2_linear_5143_23634)"/>
	<path
		d="M37.8621 26.7372L19.2462 16.4093C18.1503 15.8089 17.1867 15.882 16.5957 16.4886L32.4798 31.9922L37.8621 26.7372Z"
		fill="url(#paint3_linear_5143_23634)"/>
	<defs>
		<linearGradient id="paint0_linear_5143_23634" x1="31.0748" y1="46.0389" x2="10.2011" y2="24.6594"
						gradientUnits="userSpaceOnUse">
			<stop stop-color="#00A0FF"/>
			<stop offset="0.0066" stop-color="#00A1FF"/>
			<stop offset="0.2601" stop-color="#00BEFF"/>
			<stop offset="0.5122" stop-color="#00D2FF"/>
			<stop offset="0.7604" stop-color="#00DFFF"/>
			<stop offset="1" stop-color="#00E3FF"/>
		</linearGradient>
		<linearGradient id="paint1_linear_5143_23634" x1="46.4082" y1="31.9889" x2="15.5743" y2="31.9889"
						gradientUnits="userSpaceOnUse">
			<stop stop-color="#FFE000"/>
			<stop offset="0.4087" stop-color="#FFBD00"/>
			<stop offset="0.7754" stop-color="#FFA500"/>
			<stop offset="1" stop-color="#FF9C00"/>
		</linearGradient>
		<linearGradient id="paint2_linear_5143_23634" x1="34.9353" y1="29.1365" x2="6.62878" y2="0.144028"
						gradientUnits="userSpaceOnUse">
			<stop stop-color="#FF3A44"/>
			<stop offset="1" stop-color="#C31162"/>
		</linearGradient>
		<linearGradient id="paint3_linear_5143_23634" x1="12.5974" y1="56.6559" x2="25.2375" y2="43.7096"
						gradientUnits="userSpaceOnUse">
			<stop stop-color="#32A071"/>
			<stop offset="0.0685" stop-color="#2DA771"/>
			<stop offset="0.4762" stop-color="#15CF74"/>
			<stop offset="0.8009" stop-color="#06E775"/>
			<stop offset="1" stop-color="#00F076"/>
		</linearGradient>
	</defs>
</svg>
