<svg width="72" height="27" viewBox="0 0 72 27" fill="none" xmlns="http://www.w3.org/2000/svg">
	<path d="M0 3.34884C0 1.49933 1.49933 0 3.34884 0H68.6512C70.5007 0 72 1.49933 72 3.34884V23.4419C72 25.2914 70.5007 26.7907 68.6512 26.7907H3.34884C1.49933 26.7907 0 25.2914 0 23.4419V3.34884Z" fill="white" />
	<path
		d="M25.5832 8.36632C25.5832 8.77735 25.4572 9.10654 25.2089 9.35206C24.9234 9.6431 24.5516 9.78954 24.0959 9.78954C23.6604 9.78954 23.2886 9.64064 22.9836 9.34713C22.6779 9.04932 22.5254 8.68382 22.5254 8.24633C22.5254 7.80885 22.6779 7.44335 22.9836 7.148C23.2886 6.85203 23.6604 6.70312 24.0959 6.70312C24.3127 6.70312 24.5194 6.74681 24.7167 6.82803C24.9133 6.90987 25.0734 7.02063 25.1893 7.15723L24.9259 7.41689C24.7236 7.18369 24.4482 7.06862 24.0959 7.06862C23.7783 7.06862 23.5029 7.17692 23.2691 7.39535C23.0378 7.61441 22.9218 7.89807 22.9218 8.24633C22.9218 8.5946 23.0378 8.88072 23.2691 9.09977C23.5029 9.31575 23.7783 9.42651 24.0959 9.42651C24.4331 9.42651 24.7167 9.31575 24.9404 9.09731C25.0879 8.95271 25.1717 8.75335 25.1938 8.49861H24.0959V8.14296H25.5605C25.5782 8.21988 25.5832 8.29433 25.5832 8.36632Z"
		fill="#05090D" stroke="#05090D" stroke-width="0.0643492" stroke-miterlimit="10" />
	<path d="M27.902 7.06554H26.5262V8.00082H27.7665V8.35647H26.5262V9.29175H27.902V9.65417H26.1367V6.70312H27.902V7.06554Z" fill="#05090D" stroke="#05090D" stroke-width="0.0643492" stroke-miterlimit="10" />
	<path d="M29.5444 9.65417H29.1549V7.06554H28.311V6.70312H30.3889V7.06554H29.5444V9.65417Z" fill="#05090D" stroke="#05090D" stroke-width="0.0643492" stroke-miterlimit="10" />
	<path d="M31.894 9.65417V6.70312H32.2829V9.65417H31.894Z" fill="#05090D" stroke="#05090D" stroke-width="0.0643492" stroke-miterlimit="10" />
	<path d="M34.0092 9.65417H33.6229V7.06554H32.7759V6.70312H34.8562V7.06554H34.0092V9.65417Z" fill="#05090D" stroke="#05090D" stroke-width="0.0643492" stroke-miterlimit="10" />
	<path
		d="M38.7943 9.34221C38.4962 9.64064 38.1269 9.78954 37.6864 9.78954C37.2433 9.78954 36.874 9.64064 36.5759 9.34221C36.2785 9.0444 36.1304 8.6789 36.1304 8.24633C36.1304 7.81377 36.2785 7.44827 36.5759 7.15046C36.874 6.85203 37.2433 6.70312 37.6864 6.70312C38.1244 6.70312 38.4937 6.85203 38.7918 7.15292C39.0918 7.45319 39.2399 7.81623 39.2399 8.24633C39.2399 8.6789 39.0918 9.0444 38.7943 9.34221ZM36.864 9.09485C37.0883 9.31575 37.3612 9.42651 37.6864 9.42651C38.0091 9.42651 38.2845 9.31575 38.5063 9.09485C38.7301 8.87395 38.8435 8.5903 38.8435 8.24633C38.8435 7.90237 38.7301 7.61871 38.5063 7.39782C38.2845 7.17692 38.0091 7.06616 37.6864 7.06616C37.3612 7.06616 37.0883 7.17692 36.864 7.39782C36.6402 7.61871 36.5268 7.90237 36.5268 8.24633C36.5268 8.5903 36.6402 8.87395 36.864 9.09485Z"
		fill="#05090D" stroke="#05090D" stroke-width="0.0643492" stroke-miterlimit="10" />
	<path d="M39.7871 9.65417V6.70312H40.2598L41.7295 8.99824H41.7465L41.7295 8.43092V6.70312H42.1183V9.65417H41.7124L40.1734 7.24583H40.1564L40.1734 7.81561V9.65417H39.7871Z" fill="#05090D" stroke="#05090D" stroke-width="0.0643492"
		stroke-miterlimit="10" />
	<path
		d="M36.0299 13.7768C34.8457 13.7768 33.8783 14.6567 33.8783 15.8707C33.8783 17.0748 34.8457 17.964 36.0299 17.964C37.2166 17.964 38.184 17.0748 38.184 15.8707C38.184 14.6567 37.2166 13.7768 36.0299 13.7768ZM36.0299 17.1394C35.3801 17.1394 34.8211 16.6158 34.8211 15.8707C34.8211 15.1157 35.3801 14.6013 36.0299 14.6013C36.6796 14.6013 37.2411 15.1157 37.2411 15.8707C37.2411 16.6158 36.6796 17.1394 36.0299 17.1394ZM31.3353 13.7768C30.1486 13.7768 29.1837 14.6567 29.1837 15.8707C29.1837 17.0748 30.1486 17.964 31.3353 17.964C32.5214 17.964 33.4869 17.0748 33.4869 15.8707C33.4869 14.6567 32.5214 13.7768 31.3353 13.7768ZM31.3353 17.1394C30.6849 17.1394 30.124 16.6158 30.124 15.8707C30.124 15.1157 30.6849 14.6013 31.3353 14.6013C31.9851 14.6013 32.5441 15.1157 32.5441 15.8707C32.5441 16.6158 31.9851 17.1394 31.3353 17.1394ZM25.749 14.4185V15.3083H27.9252C27.8615 15.8054 27.6914 16.1709 27.4305 16.4257C27.1128 16.7333 26.6181 17.0748 25.749 17.0748C24.4098 17.0748 23.3611 16.0196 23.3611 14.712C23.3611 13.4045 24.4098 12.3492 25.749 12.3492C26.4732 12.3492 27 12.6255 27.3889 12.9836L28.0311 12.3566C27.4872 11.8496 26.7637 11.4601 25.749 11.4601C23.9126 11.4601 22.3691 12.919 22.3691 14.712C22.3691 16.5051 23.9126 17.964 25.749 17.964C26.7416 17.964 27.4872 17.6465 28.0733 17.0508C28.6739 16.4644 28.8611 15.6399 28.8611 14.9742C28.8611 14.7674 28.8434 14.5773 28.8119 14.4185H25.749ZM48.5921 15.1083C48.415 14.64 47.8686 13.7768 46.7556 13.7768C45.6527 13.7768 44.7345 14.6253 44.7345 15.8707C44.7345 17.0435 45.6433 17.964 46.8615 17.964C47.8465 17.964 48.415 17.3776 48.6488 17.0361L47.9177 16.5604C47.6739 16.9087 47.3417 17.1394 46.8615 17.1394C46.3844 17.1394 46.0422 16.9259 45.8229 16.5051L48.691 15.3464L48.5921 15.1083ZM45.6679 15.8054C45.6433 14.9982 46.31 14.5847 46.7878 14.5847C47.1621 14.5847 47.4797 14.7674 47.5856 15.0289L45.6679 15.8054ZM43.3367 17.8366H44.2795V11.6835H43.3367V17.8366ZM41.7926 14.2432H41.7611C41.5493 13.9983 41.1454 13.7768 40.6336 13.7768C39.5597 13.7768 38.5778 14.6973 38.5778 15.8774C38.5778 17.0508 39.5597 17.964 40.6336 17.964C41.1454 17.964 41.5493 17.7406 41.7611 17.4883H41.7926V17.7886C41.7926 18.5891 41.3546 19.0192 40.6481 19.0192C40.0721 19.0192 39.7148 18.6131 39.5673 18.2716L38.7474 18.6057C38.9837 19.1608 39.6095 19.8438 40.6481 19.8438C41.7535 19.8438 42.6863 19.2087 42.6863 17.6637V13.9041H41.7926V14.2432ZM40.7143 17.1394C40.0645 17.1394 39.5207 16.6084 39.5207 15.8774C39.5207 15.1397 40.0645 14.6013 40.7143 14.6013C41.3546 14.6013 41.8594 15.1397 41.8594 15.8774C41.8594 16.6084 41.3546 17.1394 40.7143 17.1394ZM53.0062 11.6835H50.7512V17.8366H51.6915V15.5052H53.0062C54.0504 15.5052 55.0746 14.7674 55.0746 13.594C55.0746 12.4212 54.0479 11.6835 53.0062 11.6835ZM53.0307 14.6493H51.6915V12.5394H53.0307C53.7328 12.5394 54.1336 13.1085 54.1336 13.594C54.1336 14.0703 53.7328 14.6493 53.0307 14.6493ZM58.8433 13.7651C58.1639 13.7651 57.4574 14.058 57.1669 14.7071L58.0013 15.0486C58.1809 14.7071 58.5112 14.5964 58.8603 14.5964C59.3481 14.5964 59.8428 14.8825 59.8504 15.3876V15.4523C59.6802 15.3563 59.316 15.2141 58.8679 15.2141C57.9692 15.2141 57.0535 15.6972 57.0535 16.5986C57.0535 17.4231 57.7896 17.9541 58.617 17.9541C59.2498 17.9541 59.5989 17.6754 59.8182 17.3511H59.8504V17.8268H60.7585V15.4664C60.7585 14.3755 59.9241 13.7651 58.8433 13.7651ZM58.7299 17.137C58.4223 17.137 57.9938 16.9881 57.9938 16.6158C57.9938 16.1396 58.5282 15.9568 58.9908 15.9568C59.4048 15.9568 59.5989 16.046 59.8504 16.1636C59.7767 16.7333 59.2744 17.137 58.7299 17.137ZM64.0672 13.8998L62.9864 16.5672H62.9542L61.8368 13.8998H60.8228L62.5017 17.6274L61.5438 19.7016H62.5263L65.1134 13.8998H64.0672ZM55.5913 17.8366H56.5342V11.6835H55.5913V17.8366Z"
		fill="#05090D" />
	<path d="M6.94464 6.90825C6.78795 7.0684 6.69727 7.31773 6.69727 7.64063V19.1582C6.69727 19.4811 6.78795 19.7305 6.94464 19.8906L6.98331 19.9258L13.5938 13.4743V13.322L6.98331 6.87049L6.94464 6.90825Z" fill="url(#paint0_linear_4616_21944)" />
	<path d="M15.7967 15.6211L13.5957 13.4695V13.3172L15.7994 11.1656L15.8488 11.1936L18.4585 12.6434C19.2033 13.0548 19.2033 13.7319 18.4585 14.1459L15.8488 15.5931L15.7967 15.6211Z" fill="url(#paint1_linear_4616_21944)" />
	<path d="M15.8529 15.5946L13.5998 13.3948L6.95068 19.8873C7.19806 20.1412 7.60146 20.1718 8.06021 19.9179L15.8529 15.5946Z" fill="url(#paint2_linear_4616_21944)" />
	<path d="M15.8529 11.1948L8.06021 6.87144C7.60146 6.62015 7.19806 6.65075 6.95068 6.90464L13.5998 13.3945L15.8529 11.1948Z" fill="url(#paint3_linear_4616_21944)" />
	<defs>
		<linearGradient id="paint0_linear_4616_21944" x1="13.0068" y1="19.2782" x2="4.26899" y2="10.3286" gradientUnits="userSpaceOnUse">
			<stop stop-color="#00A0FF" />
			<stop offset="0.0066" stop-color="#00A1FF" />
			<stop offset="0.2601" stop-color="#00BEFF" />
			<stop offset="0.5122" stop-color="#00D2FF" />
			<stop offset="0.7604" stop-color="#00DFFF" />
			<stop offset="1" stop-color="#00E3FF" />
		</linearGradient>
		<linearGradient id="paint1_linear_4616_21944" x1="19.4284" y1="13.3926" x2="6.52115" y2="13.3926" gradientUnits="userSpaceOnUse">
			<stop stop-color="#FFE000" />
			<stop offset="0.4087" stop-color="#FFBD00" />
			<stop offset="0.7754" stop-color="#FFA500" />
			<stop offset="1" stop-color="#FF9C00" />
		</linearGradient>
		<linearGradient id="paint2_linear_4616_21944" x1="14.6277" y1="12.199" x2="2.77848" y2="0.0626503" gradientUnits="userSpaceOnUse">
			<stop stop-color="#FF3A44" />
			<stop offset="1" stop-color="#C31162" />
		</linearGradient>
		<linearGradient id="paint3_linear_4616_21944" x1="5.27696" y1="23.7189" x2="10.5682" y2="18.2995" gradientUnits="userSpaceOnUse">
			<stop stop-color="#32A071" />
			<stop offset="0.0685" stop-color="#2DA771" />
			<stop offset="0.4762" stop-color="#15CF74" />
			<stop offset="0.8009" stop-color="#06E775" />
			<stop offset="1" stop-color="#00F076" />
		</linearGradient>
	</defs>
</svg>