<svg width="186" height="72" viewBox="0 0 186 72" fill="none" xmlns="http://www.w3.org/2000/svg">
<rect width="186" height="72" rx="16" fill="white"/>
<path d="M67.5126 23.5974C67.5126 24.6099 67.2021 25.4209 66.5904 26.0257C65.8871 26.7427 64.971 27.1035 63.8485 27.1035C62.7757 27.1035 61.8597 26.7367 61.1082 26.0136C60.3552 25.2799 59.9795 24.3795 59.9795 23.3018C59.9795 22.224 60.3552 21.3236 61.1082 20.596C61.8597 19.8668 62.7757 19.5 63.8485 19.5C64.3826 19.5 64.8919 19.6076 65.3778 19.8077C65.8622 20.0093 66.2566 20.2822 66.5422 20.6187L65.8933 21.2584C65.3949 20.6839 64.7164 20.4004 63.8485 20.4004C63.066 20.4004 62.3875 20.6672 61.8115 21.2053C61.2417 21.745 60.9561 22.4438 60.9561 23.3018C60.9561 24.1597 61.2417 24.8646 61.8115 25.4042C62.3875 25.9363 63.066 26.2092 63.8485 26.2092C64.6792 26.2092 65.3778 25.9363 65.929 25.3982C66.2923 25.042 66.4988 24.5508 66.5531 23.9233H63.8485V23.0471H67.4567C67.5002 23.2366 67.5126 23.42 67.5126 23.5974Z" fill="#132740" stroke="#132740" stroke-width="0.0643492" stroke-miterlimit="10"/>
<path d="M73.2316 20.5569H69.8423V22.861H72.8978V23.7371H69.8423V26.0412H73.2316V26.9341H68.8828V19.6641H73.2316V20.5569Z" fill="#132740" stroke="#132740" stroke-width="0.0643492" stroke-miterlimit="10"/>
<path d="M77.2738 26.9341H76.3143V20.5569H74.2354V19.6641H79.3542V20.5569H77.2738V26.9341Z" fill="#132740" stroke="#132740" stroke-width="0.0643492" stroke-miterlimit="10"/>
<path d="M83.0596 26.9341V19.6641H84.0175V26.9341H83.0596Z" fill="#132740" stroke="#132740" stroke-width="0.0643492" stroke-miterlimit="10"/>
<path d="M88.261 26.9341H87.3093V20.5569H85.2227V19.6641H90.3477V20.5569H88.261V26.9341Z" fill="#132740" stroke="#132740" stroke-width="0.0643492" stroke-miterlimit="10"/>
<path d="M100.043 26.0015C99.3089 26.7367 98.3991 27.1035 97.3138 27.1035C96.2223 27.1035 95.3125 26.7367 94.5781 26.0015C93.8453 25.2678 93.4805 24.3674 93.4805 23.3018C93.4805 22.2361 93.8453 21.3357 94.5781 20.602C95.3125 19.8668 96.2223 19.5 97.3138 19.5C98.3929 19.5 99.3027 19.8668 100.037 20.6081C100.776 21.3478 101.141 22.2422 101.141 23.3018C101.141 24.3674 100.776 25.2678 100.043 26.0015ZM95.2877 25.3921C95.8404 25.9363 96.5127 26.2092 97.3138 26.2092C98.1087 26.2092 98.7872 25.9363 99.3337 25.3921C99.8849 24.8479 100.164 24.1491 100.164 23.3018C100.164 22.4544 99.8849 21.7556 99.3337 21.2114C98.7872 20.6672 98.1087 20.3944 97.3138 20.3944C96.5127 20.3944 95.8404 20.6672 95.2877 21.2114C94.7365 21.7556 94.457 22.4544 94.457 23.3018C94.457 24.1491 94.7365 24.8479 95.2877 25.3921Z" fill="#132740" stroke="#132740" stroke-width="0.0643492" stroke-miterlimit="10"/>
<path d="M102.483 26.9341V19.6641H103.648L107.268 25.3182H107.31L107.268 23.9206V19.6641H108.226V26.9341H107.227L103.435 21.001H103.393L103.435 22.4047V26.9341H102.483Z" fill="#132740" stroke="#132740" stroke-width="0.0643492" stroke-miterlimit="10"/>
<path d="M93.2436 37.5537C90.3263 37.5537 87.9431 39.7214 87.9431 42.7122C87.9431 45.6787 90.3263 47.8691 93.2436 47.8691C96.1671 47.8691 98.5503 45.6787 98.5503 42.7122C98.5503 39.7214 96.1671 37.5537 93.2436 37.5537ZM93.2436 45.8378C91.6429 45.8378 90.2657 44.5478 90.2657 42.7122C90.2657 40.8522 91.6429 39.585 93.2436 39.585C94.8443 39.585 96.2276 40.8522 96.2276 42.7122C96.2276 44.5478 94.8443 45.8378 93.2436 45.8378ZM81.6784 37.5537C78.7549 37.5537 76.3779 39.7214 76.3779 42.7122C76.3779 45.6787 78.7549 47.8691 81.6784 47.8691C84.6004 47.8691 86.9789 45.6787 86.9789 42.7122C86.9789 39.7214 84.6004 37.5537 81.6784 37.5537ZM81.6784 45.8378C80.0761 45.8378 78.6943 44.5478 78.6943 42.7122C78.6943 40.8522 80.0761 39.585 81.6784 39.585C83.2791 39.585 84.6563 40.8522 84.6563 42.7122C84.6563 44.5478 83.2791 45.8378 81.6784 45.8378ZM67.9163 39.1347V41.3267H73.2774C73.1206 42.5515 72.7014 43.4519 72.0586 44.0795C71.2761 44.8374 70.0573 45.6787 67.9163 45.6787C64.6171 45.6787 62.0336 43.079 62.0336 39.8578C62.0336 36.6366 64.6171 34.0369 67.9163 34.0369C69.7002 34.0369 70.9982 34.7176 71.9561 35.5998L73.5382 34.0551C72.1984 32.8061 70.416 31.8465 67.9163 31.8465C63.3921 31.8465 59.5898 35.4406 59.5898 39.8578C59.5898 44.275 63.3921 47.8691 67.9163 47.8691C70.3616 47.8691 72.1983 47.0869 73.6422 45.6196C75.1219 44.1749 75.583 42.1437 75.583 40.5036C75.583 39.9942 75.5395 39.5258 75.4619 39.1347H67.9163ZM124.191 40.834C123.755 39.6805 122.409 37.5537 119.667 37.5537C116.95 37.5537 114.688 39.6441 114.688 42.7122C114.688 45.6014 116.927 47.8691 119.928 47.8691C122.354 47.8691 123.755 46.4245 124.331 45.5832L122.53 44.4114C121.929 45.2694 121.111 45.8378 119.928 45.8378C118.752 45.8378 117.909 45.3118 117.369 44.275L124.435 41.4206L124.191 40.834ZM116.987 42.5515C116.927 40.5627 118.569 39.544 119.746 39.544C120.668 39.544 121.451 39.9942 121.712 40.6385L116.987 42.5515ZM111.244 47.5553H113.567V32.3968H111.244V47.5553ZM107.44 38.7027H107.363C106.841 38.0994 105.846 37.5537 104.585 37.5537C101.94 37.5537 99.5207 39.8214 99.5207 42.7288C99.5207 45.6196 101.94 47.8691 104.585 47.8691C105.846 47.8691 106.841 47.3188 107.363 46.6973H107.44V47.4371C107.44 49.4092 106.361 50.4688 104.621 50.4688C103.202 50.4688 102.322 49.4683 101.958 48.627L99.9383 49.4501C100.521 50.8174 102.062 52.5 104.621 52.5C107.344 52.5 109.642 50.9356 109.642 47.1293V37.8675H107.44V38.7027ZM104.784 45.8378C103.183 45.8378 101.843 44.5297 101.843 42.7288C101.843 40.9113 103.183 39.585 104.784 39.585C106.361 39.585 107.605 40.9113 107.605 42.7288C107.605 44.5297 106.361 45.8378 104.784 45.8378ZM135.065 32.3968H129.51V47.5553H131.827V41.8117H135.065C137.638 41.8117 140.161 39.9942 140.161 37.1035C140.161 34.2143 137.632 32.3968 135.065 32.3968ZM135.126 39.7032H131.827V34.5053H135.126C136.856 34.5053 137.843 35.9075 137.843 37.1035C137.843 38.2768 136.856 39.7032 135.126 39.7032ZM149.445 37.5249C147.772 37.5249 146.031 38.2465 145.316 39.8457L147.371 40.687C147.814 39.8457 148.627 39.5728 149.487 39.5728C150.689 39.5728 151.908 40.2777 151.926 41.5222V41.6814C151.507 41.4449 150.61 41.0947 149.506 41.0947C147.292 41.0947 145.036 42.2847 145.036 44.5054C145.036 46.5366 146.85 47.8448 148.888 47.8448C150.447 47.8448 151.307 47.1581 151.847 46.3593H151.926V47.531H154.164V41.7162C154.164 39.0286 152.108 37.5249 149.445 37.5249ZM149.166 45.8318C148.408 45.8318 147.353 45.4649 147.353 44.5478C147.353 43.3746 148.669 42.9244 149.809 42.9244C150.829 42.9244 151.307 43.1442 151.926 43.4337C151.745 44.8374 150.507 45.8318 149.166 45.8318ZM162.315 37.8569L159.652 44.4281H159.573L156.82 37.8569H154.322L158.458 47.0399L156.098 52.1498H158.519L164.892 37.8569H162.315ZM141.434 47.5553H143.757V32.3968H141.434V47.5553Z" fill="#132740"/>
<path d="M21.576 20.317C21.2111 20.6899 21 21.2704 21 22.0223V48.8407C21 49.5926 21.2111 50.1732 21.576 50.5461L21.6661 50.6279L37.0583 35.6058V35.2511L21.6661 20.229L21.576 20.317Z" fill="url(#paint0_linear_838_5194)"/>
<path d="M42.1798 40.6133L37.0547 35.6034V35.2487L42.186 30.2388L42.3009 30.304L48.3777 33.6798C50.1119 34.6378 50.1119 36.2143 48.3777 37.1784L42.3009 40.5481L42.1798 40.6133Z" fill="url(#paint1_linear_838_5194)"/>
<path d="M42.3057 40.5502L37.0595 35.4282L21.5771 50.5458C22.1532 51.1369 23.0925 51.2082 24.1606 50.617L42.3057 40.5502Z" fill="url(#paint2_linear_838_5194)"/>
<path d="M42.3057 30.3066L24.1606 20.2399C23.0925 19.6548 22.1532 19.726 21.5771 20.3172L37.0595 35.4287L42.3057 30.3066Z" fill="url(#paint3_linear_838_5194)"/>
<defs>
<linearGradient id="paint0_linear_838_5194" x1="35.6917" y1="49.12" x2="15.3458" y2="28.2812" gradientUnits="userSpaceOnUse">
<stop stop-color="#00A0FF"/>
<stop offset="0.0066" stop-color="#00A1FF"/>
<stop offset="0.2601" stop-color="#00BEFF"/>
<stop offset="0.5122" stop-color="#00D2FF"/>
<stop offset="0.7604" stop-color="#00DFFF"/>
<stop offset="1" stop-color="#00E3FF"/>
</linearGradient>
<linearGradient id="paint1_linear_838_5194" x1="50.6359" y1="35.4243" x2="20.5818" y2="35.4243" gradientUnits="userSpaceOnUse">
<stop stop-color="#FFE000"/>
<stop offset="0.4087" stop-color="#FFBD00"/>
<stop offset="0.7754" stop-color="#FFA500"/>
<stop offset="1" stop-color="#FF9C00"/>
</linearGradient>
<linearGradient id="paint2_linear_838_5194" x1="39.453" y1="32.6437" x2="11.8623" y2="4.38451" gradientUnits="userSpaceOnUse">
<stop stop-color="#FF3A44"/>
<stop offset="1" stop-color="#C31162"/>
</linearGradient>
<linearGradient id="paint3_linear_838_5194" x1="17.6799" y1="59.4687" x2="30.0004" y2="46.8498" gradientUnits="userSpaceOnUse">
<stop stop-color="#32A071"/>
<stop offset="0.0685" stop-color="#2DA771"/>
<stop offset="0.4762" stop-color="#15CF74"/>
<stop offset="0.8009" stop-color="#06E775"/>
<stop offset="1" stop-color="#00F076"/>
</linearGradient>
</defs>
</svg>
