<svg width="129" height="48" viewBox="0 0 129 48" fill="none" xmlns="http://www.w3.org/2000/svg">
	<path d="M0 6C0 2.68629 2.68629 0 6 0H123C126.314 0 129 2.68629 129 6V42C129 45.3137 126.314 48 123 48H6C2.68629 48 0 45.3137 0 42V6Z" fill="white" />
	<path
		d="M45.8356 15.0004C45.8356 15.7368 45.6097 16.3266 45.1649 16.7665C44.6533 17.288 43.9871 17.5503 43.1708 17.5503C42.3905 17.5503 41.7243 17.2835 41.1778 16.7577C40.6302 16.2241 40.3569 15.5693 40.3569 14.7854C40.3569 14.0016 40.6302 13.3467 41.1778 12.8176C41.7243 12.2873 42.3905 12.0205 43.1708 12.0205C43.5592 12.0205 43.9296 12.0988 44.283 12.2443C44.6353 12.3909 44.9221 12.5894 45.1298 12.8341L44.6579 13.2993C44.2954 12.8815 43.802 12.6754 43.1708 12.6754C42.6017 12.6754 42.1082 12.8694 41.6893 13.2608C41.2749 13.6532 41.0672 14.1614 41.0672 14.7854C41.0672 15.4094 41.2749 15.922 41.6893 16.3145C42.1082 16.7015 42.6017 16.8999 43.1708 16.8999C43.7749 16.8999 44.283 16.7015 44.6838 16.3101C44.9481 16.051 45.0982 15.6938 45.1378 15.2374H43.1708V14.6002H45.7949C45.8265 14.738 45.8356 14.8714 45.8356 15.0004Z"
		fill="#05090D" stroke="#05090D" stroke-width="0.0643492" stroke-miterlimit="10" />
	<path d="M49.9909 12.6698H47.5259V14.3455H49.7481V14.9828H47.5259V16.6585H49.9909V17.3078H46.8281V12.0205H49.9909V12.6698Z" fill="#05090D" stroke="#05090D" stroke-width="0.0643492" stroke-miterlimit="10" />
	<path d="M52.9348 17.3078H52.237V12.6698H50.7251V12.0205H54.4479V12.6698H52.9348V17.3078Z" fill="#05090D" stroke="#05090D" stroke-width="0.0643492" stroke-miterlimit="10" />
	<path d="M57.1431 17.3078V12.0205H57.8398V17.3078H57.1431Z" fill="#05090D" stroke="#05090D" stroke-width="0.0643492" stroke-miterlimit="10" />
	<path d="M60.9343 17.3078H60.2422V12.6698H58.7246V12.0205H62.4519V12.6698H60.9343V17.3078Z" fill="#05090D" stroke="#05090D" stroke-width="0.0643492" stroke-miterlimit="10" />
	<path
		d="M69.5054 16.7489C68.9713 17.2836 68.3096 17.5503 67.5203 17.5503C66.7265 17.5503 66.0648 17.2836 65.5307 16.7489C64.9978 16.2153 64.7324 15.5604 64.7324 14.7854C64.7324 14.0104 64.9978 13.3556 65.5307 12.822C66.0648 12.2873 66.7265 12.0205 67.5203 12.0205C68.3051 12.0205 68.9668 12.2873 69.5008 12.8264C70.0383 13.3644 70.3037 14.0148 70.3037 14.7854C70.3037 15.5604 70.0383 16.2153 69.5054 16.7489ZM66.0468 16.3057C66.4487 16.7015 66.9377 16.8999 67.5203 16.8999C68.0984 16.8999 68.5919 16.7015 68.9893 16.3057C69.3902 15.9099 69.5934 15.4017 69.5934 14.7854C69.5934 14.1692 69.3902 13.6609 68.9893 13.2652C68.5919 12.8694 68.0984 12.6709 67.5203 12.6709C66.9377 12.6709 66.4487 12.8694 66.0468 13.2652C65.6459 13.6609 65.4427 14.1692 65.4427 14.7854C65.4427 15.4017 65.6459 15.9099 66.0468 16.3057Z"
		fill="#05090D" stroke="#05090D" stroke-width="0.0643492" stroke-miterlimit="10" />
	<path d="M71.2842 17.3078V12.0205H72.131L74.7642 16.1326H74.7947L74.7642 15.1161V12.0205H75.4609V17.3078H74.7337L71.9763 12.9929H71.9459L71.9763 14.0137V17.3078H71.2842Z" fill="#05090D" stroke="#05090D" stroke-width="0.0643492"
		stroke-miterlimit="10" />
	<path
		d="M64.5536 24.6856C62.4319 24.6856 60.6986 26.2621 60.6986 28.4372C60.6986 30.5947 62.4319 32.1877 64.5536 32.1877C66.6797 32.1877 68.413 30.5947 68.413 28.4372C68.413 26.2621 66.6797 24.6856 64.5536 24.6856ZM64.5536 30.7105C63.3894 30.7105 62.3879 29.7723 62.3879 28.4372C62.3879 27.0845 63.3894 26.1629 64.5536 26.1629C65.7177 26.1629 66.7238 27.0845 66.7238 28.4372C66.7238 29.7723 65.7177 30.7105 64.5536 30.7105ZM56.1425 24.6856C54.0163 24.6856 52.2876 26.2621 52.2876 28.4372C52.2876 30.5947 54.0163 32.1877 56.1425 32.1877C58.2676 32.1877 59.9974 30.5947 59.9974 28.4372C59.9974 26.2621 58.2676 24.6856 56.1425 24.6856ZM56.1425 30.7105C54.9772 30.7105 53.9723 29.7723 53.9723 28.4372C53.9723 27.0845 54.9772 26.1629 56.1425 26.1629C57.3067 26.1629 58.3082 27.0845 58.3082 28.4372C58.3082 29.7723 57.3067 30.7105 56.1425 30.7105ZM46.1338 25.8355V27.4296H50.0327C49.9187 28.3204 49.6138 28.9752 49.1463 29.4316C48.5772 29.9828 47.6908 30.5947 46.1338 30.5947C43.7343 30.5947 41.8554 28.704 41.8554 26.3613C41.8554 24.0187 43.7343 22.128 46.1338 22.128C47.4311 22.128 48.3751 22.623 49.0718 23.2646L50.2224 22.1412C49.2479 21.2328 47.9517 20.535 46.1338 20.535C42.8434 20.535 40.0781 23.1488 40.0781 26.3613C40.0781 29.5738 42.8434 32.1877 46.1338 32.1877C47.9122 32.1877 49.2479 31.6189 50.2981 30.5517C51.3741 29.5011 51.7095 28.0238 51.7095 26.831C51.7095 26.4606 51.6779 26.1199 51.6214 25.8355H46.1338ZM87.0609 27.0713C86.7436 26.2324 85.7646 24.6856 83.7706 24.6856C81.7945 24.6856 80.1494 26.2059 80.1494 28.4372C80.1494 30.5385 81.7776 32.1877 83.9602 32.1877C85.7251 32.1877 86.7436 31.1371 87.1625 30.5252L85.8527 29.6731C85.4157 30.297 84.8207 30.7105 83.9602 30.7105C83.1055 30.7105 82.4923 30.3279 82.0994 29.5738L87.2382 27.498L87.0609 27.0713ZM81.8216 28.3204C81.7776 26.874 82.9722 26.1331 83.8281 26.1331C84.4989 26.1331 85.0679 26.4606 85.2576 26.9291L81.8216 28.3204ZM77.6449 31.9595H79.3341V20.9351H77.6449V31.9595ZM74.8785 25.5213H74.822C74.4426 25.0825 73.7189 24.6856 72.802 24.6856C70.8779 24.6856 69.1187 26.3349 69.1187 28.4494C69.1187 30.5517 70.8779 32.1877 72.802 32.1877C73.7189 32.1877 74.4426 31.7875 74.822 31.3355H74.8785V31.8735C74.8785 33.3078 74.0937 34.0784 72.828 34.0784C71.7959 34.0784 71.1557 33.3508 70.8915 32.7389L69.4225 33.3376C69.8459 34.332 70.9671 35.5557 72.828 35.5557C74.8085 35.5557 76.4796 34.4179 76.4796 31.6497V24.9138H74.8785V25.5213ZM72.9465 30.7105C71.7824 30.7105 70.8079 29.7591 70.8079 28.4494C70.8079 27.1275 71.7824 26.1629 72.9465 26.1629C74.0937 26.1629 74.9982 27.1275 74.9982 28.4494C74.9982 29.7591 74.0937 30.7105 72.9465 30.7105ZM94.9695 20.9351H90.9294V31.9595H92.614V27.7824H94.9695C96.8405 27.7824 98.6753 26.4606 98.6753 24.3582C98.6753 22.257 96.8359 20.9351 94.9695 20.9351ZM95.0135 26.2489H92.614V22.4686H95.0135C96.2714 22.4686 96.9895 23.4884 96.9895 24.3582C96.9895 25.2115 96.2714 26.2489 95.0135 26.2489ZM105.428 24.6647C104.21 24.6647 102.945 25.1895 102.424 26.3525L103.919 26.9644C104.241 26.3525 104.833 26.1541 105.458 26.1541C106.332 26.1541 107.218 26.6667 107.232 27.5718V27.6876C106.927 27.5156 106.274 27.2609 105.472 27.2609C103.862 27.2609 102.221 28.1263 102.221 29.7414C102.221 31.2187 103.54 32.1701 105.022 32.1701C106.156 32.1701 106.781 31.6707 107.174 31.0897H107.232V31.9419H108.859V27.7129C108.859 25.7583 107.364 24.6647 105.428 24.6647ZM105.224 30.706C104.673 30.706 103.906 30.4393 103.906 29.7723C103.906 28.919 104.863 28.5916 105.692 28.5916C106.434 28.5916 106.781 28.7514 107.232 28.962C107.1 29.9828 106.2 30.706 105.224 30.706ZM114.787 24.9061L112.851 29.6852H112.793L110.791 24.9061H108.974L111.982 31.5847L110.266 35.301H112.026L116.662 24.9061H114.787ZM99.6012 31.9595H101.29V20.9351H99.6012V31.9595Z"
		fill="#05090D" />
	<path d="M12.4413 12.3796C12.1605 12.6665 11.998 13.1132 11.998 13.6917V34.3275C11.998 34.906 12.1605 35.3527 12.4413 35.6397L12.5106 35.7026L24.3543 24.1437V23.8708L12.5106 12.3119L12.4413 12.3796Z" fill="url(#paint0_linear_5100_24185)" />
	<path d="M28.301 27.9873L24.3574 24.1324V23.8595L28.3057 20.0045L28.3941 20.0547L33.07 22.6522C34.4044 23.3894 34.4044 24.6024 33.07 25.3443L28.3941 27.9371L28.301 27.9873Z" fill="url(#paint1_linear_5100_24185)" />
	<path d="M28.4014 27.9459L24.3647 24.0046L12.4517 35.637C12.8949 36.0919 13.6176 36.1467 14.4396 35.6918L28.4014 27.9459Z" fill="url(#paint2_linear_5100_24185)" />
	<path d="M28.4014 20.0563L14.4396 12.3104C13.6176 11.8601 12.8949 11.915 12.4517 12.3698L24.3647 23.9976L28.4014 20.0563Z" fill="url(#paint3_linear_5100_24185)" />
	<defs>
		<linearGradient id="paint0_linear_5100_24185" x1="23.3027" y1="34.5424" x2="7.64738" y2="18.5077" gradientUnits="userSpaceOnUse">
			<stop stop-color="#00A0FF" />
			<stop offset="0.0066" stop-color="#00A1FF" />
			<stop offset="0.2601" stop-color="#00BEFF" />
			<stop offset="0.5122" stop-color="#00D2FF" />
			<stop offset="0.7604" stop-color="#00DFFF" />
			<stop offset="1" stop-color="#00E3FF" />
		</linearGradient>
		<linearGradient id="paint1_linear_5100_24185" x1="34.8076" y1="23.9946" x2="11.6822" y2="23.9946" gradientUnits="userSpaceOnUse">
			<stop stop-color="#FFE000" />
			<stop offset="0.4087" stop-color="#FFBD00" />
			<stop offset="0.7754" stop-color="#FFA500" />
			<stop offset="1" stop-color="#FF9C00" />
		</linearGradient>
		<linearGradient id="paint2_linear_5100_24185" x1="26.2064" y1="21.8621" x2="4.97647" y2="0.117787" gradientUnits="userSpaceOnUse">
			<stop stop-color="#FF3A44" />
			<stop offset="1" stop-color="#C31162" />
		</linearGradient>
		<linearGradient id="paint3_linear_5100_24185" x1="9.4529" y1="42.4954" x2="18.933" y2="32.7856" gradientUnits="userSpaceOnUse">
			<stop stop-color="#32A071" />
			<stop offset="0.0685" stop-color="#2DA771" />
			<stop offset="0.4762" stop-color="#15CF74" />
			<stop offset="0.8009" stop-color="#06E775" />
			<stop offset="1" stop-color="#00F076" />
		</linearGradient>
	</defs>
</svg>