<svg id="Group_850" data-name="Group 850" xmlns="http://www.w3.org/2000/svg" width="647.697" height="647.697"
	 viewBox="0 0 647.697 647.697">
	<g id="Group_849" data-name="Group 849">
		<circle id="Ellipse_214" data-name="Ellipse 214" cx="323.849" cy="323.849" r="323.849" fill="#344ba3"/>
	</g>
	<path id="Path_3596" data-name="Path 3596"
		  d="M878.1,685.02V623.056a89.725,89.725,0,0,0-179.45,0v61.965A46.652,46.652,0,0,0,654.1,731.6v146.43H922.655V731.606A46.652,46.652,0,0,0,878.1,685.02Zm-89.724-120.1a58.2,58.2,0,0,1,58.129,58.133v61.857H730.25V623.056a58.2,58.2,0,0,1,58.128-58.132Z"
		  transform="translate(-464.531 -381.829)" fill="#fff"/>
	<path id="Path_3597" data-name="Path 3597"
		  d="M725.606,599.626a24.14,24.14,0,1,0-37.72,19.95v52.47H715.04v-52.47a24.108,24.108,0,0,0,10.566-19.949Z"
		  transform="translate(-377.617 -224.124)" fill="#344ba3"/>
</svg>
