<svg width="134" height="128" viewBox="0 0 134 128" fill="none" xmlns="http://www.w3.org/2000/svg">
	<g clip-path="url(#clip0_3745_16168)">
		<path
			d="M77.9261 30.3381H77.2255V11.1218C77.2255 9.66122 76.9378 8.21494 76.3789 6.86555C75.8199 5.51615 75.0007 4.29007 73.9678 3.25731C72.935 2.22455 71.7089 1.40533 70.3595 0.846442C69.0101 0.287551 67.5638 -7.07573e-05 66.1032 1.30568e-08H25.3905C23.93 -2.3577e-05 22.4837 0.287639 21.1343 0.846562C19.7849 1.40549 18.5588 2.22472 17.5261 3.2575C16.4933 4.29028 15.674 5.51637 15.1151 6.86576C14.5562 8.21515 14.2685 9.66142 14.2686 11.122V116.544C14.2686 119.493 15.4403 122.322 17.5261 124.408C19.6118 126.494 22.4407 127.666 25.3904 127.666H66.1032C69.0529 127.666 71.8817 126.494 73.9675 124.408C76.0532 122.322 77.225 119.493 77.225 116.544V44.0166H77.9256L77.9261 30.3381Z"
			fill="#3F3D56"/>
		<path
			d="M74.9573 10.3772V117.289C74.957 119.525 74.0685 121.67 72.4873 123.251C70.9061 124.833 68.7615 125.722 66.5251 125.723H24.9767C22.7394 125.723 20.5936 124.835 19.0112 123.253C17.4289 121.671 16.5395 119.526 16.5389 117.289V10.3772C16.5395 8.13997 17.4288 5.99464 19.0111 4.41303C20.5934 2.83143 22.7391 1.94307 24.9763 1.94336H30.0164C29.7689 2.55194 29.6747 3.212 29.7421 3.86552C29.8094 4.51903 30.0363 5.14599 30.4027 5.69129C30.7691 6.2366 31.2639 6.68355 31.8435 6.99285C32.4231 7.30216 33.0698 7.46436 33.7268 7.46519H57.4143C58.0712 7.46436 58.718 7.30216 59.2976 6.99285C59.8772 6.68355 60.3719 6.2366 60.7384 5.69129C61.1048 5.14599 61.3316 4.51903 61.399 3.86552C61.4664 3.212 61.3722 2.55194 61.1247 1.94336H66.5235C68.7599 1.94374 70.9046 2.8322 72.4861 4.41342C74.0676 5.99463 74.9565 8.13917 74.9573 10.3756V10.3772Z"
			fill="white"/>
		<path
			d="M46.1937 53.1474C41.4633 53.1491 36.9258 51.2718 33.5795 47.9282C30.2331 44.5847 28.352 40.0488 28.3498 35.3184V35.3026C28.3498 35.2652 28.3498 35.2259 28.352 35.1885C28.4058 25.4166 36.4107 17.459 46.1937 17.459C48.537 17.4589 50.8574 17.9203 53.0224 18.8169C55.1873 19.7135 57.1545 21.0278 58.8116 22.6847C60.4686 24.3415 61.7831 26.3085 62.68 28.4734C63.5768 30.6383 64.0385 32.9586 64.0386 35.3019C64.0388 37.6452 63.5773 39.9656 62.6807 42.1306C61.7841 44.2956 60.4698 46.2627 58.813 47.9198C57.1561 49.5768 55.1891 50.8913 53.0242 51.7882C50.8593 52.685 48.539 53.1467 46.1957 53.1468H46.1937V53.1474ZM46.1937 17.8344C41.5819 17.8447 37.1604 19.6745 33.89 22.9262C30.6196 26.1779 28.7645 30.5888 28.7277 35.2005C28.7258 35.2404 28.7258 35.2724 28.7258 35.3027C28.7253 38.7582 29.7496 42.1361 31.669 45.0094C33.5884 47.8827 36.3168 50.1222 39.509 51.4449C42.7013 52.7675 46.2141 53.1138 49.6032 52.44C52.9922 51.7661 56.1054 50.1024 58.5489 47.6592C60.9924 45.216 62.6565 42.1031 63.3308 38.7141C64.0051 35.3251 63.6593 31.8123 62.3371 28.6198C61.0149 25.4274 58.7757 22.6988 55.9027 20.779C53.0296 18.8592 49.6518 17.8344 46.1964 17.8344H46.1937Z"
			fill="#E6E6E6"/>
		<path
			d="M50.4001 39.9222H31.6108C31.5873 39.9225 31.5638 39.9207 31.5406 39.9167L40.4273 24.5249C40.4815 24.429 40.5602 24.3492 40.6553 24.2937C40.7504 24.2382 40.8586 24.209 40.9688 24.209C41.0789 24.209 41.1871 24.2382 41.2822 24.2937C41.3773 24.3492 41.456 24.429 41.5102 24.5249L47.474 34.8536L47.7596 35.3478L50.4001 39.9222Z"
			fill="#2F4DCB"/>
		<path
			d="M60.8611 39.9221H44.6103L47.7592 35.348L47.9857 35.0184L52.0892 29.0575C52.1618 28.9663 52.2527 28.8914 52.3561 28.8377C52.4595 28.7839 52.5731 28.7526 52.6894 28.7456C52.8058 28.7387 52.9223 28.7563 53.0313 28.7973C53.1404 28.8384 53.2396 28.9019 53.3225 28.9839C53.3438 29.0071 53.3635 29.0317 53.3816 29.0575L60.8611 39.9221Z"
			fill="#2F4DCB"/>
		<path
			d="M64.6455 71.9104H27.7249C27.5436 71.9102 27.3698 71.8381 27.2416 71.7099C27.1135 71.5818 27.0414 71.408 27.0412 71.2267V62.0684C27.0414 61.8872 27.1135 61.7134 27.2417 61.5853C27.3699 61.4571 27.5436 61.385 27.7249 61.3848H64.6455C64.8268 61.385 65.0005 61.4571 65.1287 61.5853C65.2568 61.7134 65.329 61.8872 65.3292 62.0684V71.2269C65.329 71.4081 65.2568 71.5819 65.1287 71.7101C65.0005 71.8382 64.8268 71.9103 64.6455 71.9106V71.9104ZM27.7249 61.6582C27.6161 61.6583 27.5118 61.7015 27.4349 61.7784C27.3579 61.8554 27.3147 61.9597 27.3146 62.0684V71.2269C27.3147 71.3357 27.3579 71.44 27.4349 71.5169C27.5118 71.5938 27.6161 71.6371 27.7249 71.6372H64.6455C64.7543 71.6371 64.8586 71.5938 64.9355 71.5169C65.0124 71.44 65.0557 71.3357 65.0558 71.2269V62.0684C65.0557 61.9597 65.0124 61.8554 64.9355 61.7784C64.8586 61.7015 64.7543 61.6583 64.6455 61.6582H27.7249Z"
			fill="#E6E6E6"/>
		<path
			d="M32.5107 69.5166C34.0967 69.5166 35.3823 68.2309 35.3823 66.645C35.3823 65.0591 34.0967 63.7734 32.5107 63.7734C30.9248 63.7734 29.6392 65.0591 29.6392 66.645C29.6392 68.2309 30.9248 69.5166 32.5107 69.5166Z"
			fill="#2F4DCB"/>
		<path
			d="M39.1429 64.7324C39.0159 64.7324 38.8942 64.7828 38.8044 64.8726C38.7147 64.9624 38.6642 65.0841 38.6642 65.211C38.6642 65.338 38.7147 65.4597 38.8044 65.5495C38.8942 65.6392 39.0159 65.6897 39.1429 65.6897H61.7053C61.769 65.6921 61.8326 65.6818 61.8923 65.6594C61.9519 65.6369 62.0065 65.6028 62.0528 65.5589C62.0991 65.5151 62.1362 65.4625 62.1618 65.4041C62.1875 65.3458 62.2013 65.2829 62.2023 65.2191C62.2034 65.1554 62.1917 65.0921 62.1679 65.0329C62.1441 64.9738 62.1088 64.9199 62.064 64.8746C62.0191 64.8293 61.9657 64.7934 61.9068 64.769C61.8479 64.7446 61.7847 64.7322 61.721 64.7326H39.1429V64.7324Z"
			fill="#E6E6E6"/>
		<path
			d="M39.1429 67.6035C39.0159 67.6035 38.8942 67.6539 38.8044 67.7437C38.7147 67.8335 38.6642 67.9552 38.6642 68.0821C38.6642 68.2091 38.7147 68.3308 38.8044 68.4206C38.8942 68.5103 39.0159 68.5608 39.1429 68.5608H61.7053C61.769 68.5632 61.8326 68.5529 61.8923 68.5305C61.9519 68.508 62.0065 68.4739 62.0528 68.43C62.0991 68.3862 62.1362 68.3336 62.1618 68.2752C62.1875 68.2169 62.2013 68.154 62.2023 68.0902C62.2034 68.0265 62.1917 67.9632 62.1679 67.904C62.1441 67.8449 62.1088 67.791 62.064 67.7457C62.0191 67.7004 61.9657 67.6645 61.9068 67.6401C61.8479 67.6157 61.7847 67.6033 61.721 67.6037H39.1429V67.6035Z"
			fill="#E6E6E6"/>
		<path
			d="M64.6455 87.2248H27.7249C27.5436 87.2246 27.3698 87.1526 27.2416 87.0244C27.1135 86.8962 27.0414 86.7224 27.0412 86.5412V77.3829C27.0414 77.2016 27.1135 77.0279 27.2417 76.8997C27.3699 76.7716 27.5436 76.6995 27.7249 76.6992H64.6455C64.8268 76.6995 65.0005 76.7716 65.1287 76.8997C65.2568 77.0279 65.329 77.2016 65.3292 77.3829V86.5413C65.3289 86.7226 65.2568 86.8963 65.1286 87.0244C65.0005 87.1525 64.8267 87.2246 64.6455 87.2248ZM27.7249 76.9726C27.6161 76.9727 27.5118 77.016 27.4349 77.0929C27.3579 77.1698 27.3147 77.2741 27.3146 77.3829V86.5413C27.3147 86.6501 27.3579 86.7544 27.4349 86.8313C27.5118 86.9083 27.6161 86.9515 27.7249 86.9516H64.6455C64.7543 86.9515 64.8586 86.9083 64.9355 86.8313C65.0124 86.7544 65.0557 86.6501 65.0558 86.5413V77.3829C65.0557 77.2741 65.0124 77.1698 64.9355 77.0929C64.8586 77.016 64.7543 76.9727 64.6455 76.9726H27.7249Z"
			fill="#E6E6E6"/>
		<path
			d="M32.5107 84.833C34.0967 84.833 35.3823 83.5473 35.3823 81.9614C35.3823 80.3755 34.0967 79.0898 32.5107 79.0898C30.9248 79.0898 29.6392 80.3755 29.6392 81.9614C29.6392 83.5473 30.9248 84.833 32.5107 84.833Z"
			fill="#2F4DCB"/>
		<path
			d="M39.1429 80.0469C39.0159 80.0469 38.8942 80.0973 38.8044 80.1871C38.7147 80.2768 38.6642 80.3986 38.6642 80.5255C38.6642 80.6524 38.7147 80.7742 38.8044 80.8639C38.8942 80.9537 39.0159 81.0041 39.1429 81.0041H61.7053C61.8305 81.0034 61.9503 80.9537 62.0393 80.8657C62.1283 80.7777 62.1792 80.6584 62.1813 80.5332C62.1833 80.4081 62.1363 80.2872 62.0502 80.1963C61.9642 80.1054 61.846 80.0519 61.721 80.0471H39.1429V80.0469Z"
			fill="#E6E6E6"/>
		<path
			d="M39.1429 82.918C39.0159 82.918 38.8942 82.9684 38.8044 83.0582C38.7147 83.1479 38.6642 83.2697 38.6642 83.3966C38.6642 83.5235 38.7147 83.6453 38.8044 83.735C38.8942 83.8248 39.0159 83.8752 39.1429 83.8752H61.7053C61.8305 83.8745 61.9503 83.8248 62.0393 83.7368C62.1283 83.6488 62.1792 83.5294 62.1813 83.4043C62.1833 83.2792 62.1363 83.1583 62.0502 83.0674C61.9642 82.9765 61.846 82.9229 61.721 82.9181H39.1429V82.918Z"
			fill="#E6E6E6"/>
		<path
			d="M64.6455 102.539H27.7249C27.5436 102.539 27.3698 102.467 27.2416 102.339C27.1135 102.211 27.0414 102.037 27.0412 101.856V92.6973C27.0414 92.5161 27.1135 92.3423 27.2417 92.2142C27.3699 92.086 27.5436 92.0139 27.7249 92.0137H64.6455C64.8268 92.0139 65.0005 92.086 65.1287 92.2142C65.2568 92.3423 65.329 92.5161 65.3292 92.6973V101.856C65.329 102.037 65.2568 102.211 65.1287 102.339C65.0005 102.467 64.8268 102.539 64.6455 102.539V102.539ZM27.7249 92.2871C27.6161 92.2872 27.5118 92.3304 27.4349 92.4073C27.3579 92.4843 27.3147 92.5886 27.3146 92.6973V101.856C27.3147 101.965 27.3579 102.069 27.4349 102.146C27.5118 102.223 27.6161 102.266 27.7249 102.266H64.6455C64.7543 102.266 64.8586 102.223 64.9355 102.146C65.0124 102.069 65.0557 101.965 65.0558 101.856V92.6973C65.0557 92.5886 65.0124 92.4843 64.9355 92.4073C64.8586 92.3304 64.7543 92.2872 64.6455 92.2871H27.7249Z"
			fill="#E6E6E6"/>
		<path
			d="M32.5107 100.147C34.0967 100.147 35.3823 98.8618 35.3823 97.2759C35.3823 95.6899 34.0967 94.4043 32.5107 94.4043C30.9248 94.4043 29.6392 95.6899 29.6392 97.2759C29.6392 98.8618 30.9248 100.147 32.5107 100.147Z"
			fill="#2F4DCB"/>
		<path
			d="M39.1429 95.3633C39.0159 95.3633 38.8942 95.4137 38.8044 95.5035C38.7147 95.5932 38.6642 95.715 38.6642 95.8419C38.6642 95.9688 38.7147 96.0906 38.8044 96.1803C38.8942 96.2701 39.0159 96.3205 39.1429 96.3205H61.7053C61.769 96.323 61.8326 96.3127 61.8923 96.2902C61.9519 96.2678 62.0065 96.2336 62.0528 96.1898C62.0991 96.146 62.1362 96.0933 62.1618 96.035C62.1875 95.9766 62.2013 95.9137 62.2023 95.85C62.2034 95.7862 62.1917 95.7229 62.1679 95.6638C62.1441 95.6046 62.1088 95.5508 62.064 95.5055C62.0191 95.4602 61.9657 95.4243 61.9068 95.3999C61.8479 95.3755 61.7847 95.3631 61.721 95.3635H39.1429V95.3633Z"
			fill="#E6E6E6"/>
		<path
			d="M39.1429 98.2344C39.0159 98.2344 38.8942 98.2848 38.8044 98.3746C38.7147 98.4643 38.6642 98.5861 38.6642 98.713C38.6642 98.8399 38.7147 98.9617 38.8044 99.0514C38.8942 99.1412 39.0159 99.1916 39.1429 99.1916H61.7053C61.769 99.1941 61.8326 99.1838 61.8923 99.1613C61.9519 99.1389 62.0065 99.1047 62.0528 99.0609C62.0991 99.0171 62.1362 98.9644 62.1618 98.9061C62.1875 98.8477 62.2013 98.7848 62.2023 98.7211C62.2034 98.6573 62.1917 98.594 62.1679 98.5349C62.1441 98.4757 62.1088 98.4219 62.064 98.3766C62.0191 98.3313 61.9657 98.2953 61.9068 98.271C61.8479 98.2466 61.7847 98.2342 61.721 98.2346H39.1429V98.2344Z"
			fill="#E6E6E6"/>
		<path d="M94.3526 125.599H92.1155L91.0513 116.971H94.3527L94.3526 125.599Z" fill="#FEB8B8"/>
		<path
			d="M94.9231 127.768H87.7102V127.677C87.7103 126.932 88.006 126.218 88.5325 125.692C89.0589 125.165 89.7729 124.869 90.5175 124.869H94.9233L94.9231 127.768Z"
			fill="#2F2E41"/>
		<path d="M122.142 124.134L119.964 124.646L116.95 116.491L120.163 115.734L122.142 124.134Z" fill="#FEB8B8"/>
		<path
			d="M123.194 126.114L116.173 127.767L116.152 127.678C116.068 127.319 116.055 126.947 116.114 126.583C116.173 126.219 116.304 125.87 116.498 125.557C116.692 125.243 116.945 124.971 117.245 124.755C117.544 124.54 117.883 124.385 118.242 124.301L122.53 123.291L123.194 126.114Z"
			fill="#2F2E41"/>
		<path
			d="M93.8956 89.2068C93.8999 88.7577 94.033 78.1457 96.9418 74.1335L96.9847 74.0742L107.121 75.4728L106.895 77.7002C107.341 78.1339 110.848 81.7987 111.86 90.477L122.62 119.374L117.618 119.828L102.811 88.2835L94.9757 122.572H90.0179L93.8956 89.2068Z"
			fill="#2F2E41"/>
		<path
			d="M95.7542 74.5255L96.7451 69.3234C96.551 69.0737 95.6915 67.8747 95.8828 66.4691C96.0077 65.552 96.555 64.7478 97.5101 64.0784L100.079 58.0855L100.113 58.0652C100.286 57.9634 104.376 55.5987 106.605 57.8297C106.661 57.8728 112.15 62.2307 109.946 68.1078L107.225 76.272L95.7542 74.5255Z"
			fill="#CCCCCC"/>
		<path
			d="M92.3067 81.5628C92.5739 81.5323 92.8311 81.4435 93.0603 81.3028C93.2895 81.1621 93.485 80.9729 93.6331 80.7484C93.7813 80.524 93.8784 80.2698 93.9176 80.0037C93.9569 79.7377 93.9373 79.4663 93.8604 79.2086L99.1643 75.3873L95.9892 74.1797L91.4393 77.9936C91.0162 78.1526 90.6659 78.461 90.4545 78.8606C90.2432 79.2601 90.1855 79.7232 90.2922 80.1625C90.3989 80.6017 90.6628 80.9867 91.0339 81.2447C91.4051 81.5027 91.8578 81.616 92.3067 81.563V81.5628Z"
			fill="#FEB8B8"/>
		<path
			d="M93.2816 75.381L101.379 69.0012L98.9719 60.7765C98.8585 60.3871 98.8264 59.9784 98.8778 59.5761C98.9291 59.1737 99.0627 58.7862 99.2703 58.4377C99.4625 58.1092 99.7212 57.8245 100.03 57.6018C100.338 57.3791 100.69 57.2233 101.062 57.1444C102.449 56.851 103.707 57.6272 104.802 59.4517L104.81 59.4683C104.991 59.911 109.21 70.3388 105.989 72.5689C102.838 74.7501 95.5317 77.9256 95.4582 77.9578L95.3725 77.9948L93.2816 75.381Z"
			fill="#CCCCCC"/>
		<path
			d="M104.043 55.6603C106.753 55.6603 108.949 53.4641 108.949 50.755C108.949 48.0458 106.753 45.8496 104.043 45.8496C101.334 45.8496 99.1381 48.0458 99.1381 50.755C99.1381 53.4641 101.334 55.6603 104.043 55.6603Z"
			fill="#FEB8B8"/>
		<path
			d="M111.734 49.0032C114.13 49.0032 116.073 47.0604 116.073 44.6637C116.073 42.2671 114.13 40.3242 111.734 40.3242C109.337 40.3242 107.394 42.2671 107.394 44.6637C107.394 47.0604 109.337 49.0032 111.734 49.0032Z"
			fill="#2F2E41"/>
		<path
			d="M115.476 48.2574C114.915 48.6631 114.264 48.9284 113.579 49.0312C112.894 49.1339 112.194 49.0711 111.538 48.8481C110.882 48.625 110.289 48.2481 109.808 47.7489C109.328 47.2498 108.974 46.6428 108.776 45.9788C108.851 46.5742 109.048 47.1476 109.356 47.6628C109.663 48.178 110.074 48.6239 110.563 48.9722C111.051 49.3205 111.607 49.5638 112.194 49.6866C112.781 49.8094 113.388 49.809 113.975 49.6856C114.562 49.5621 115.117 49.3183 115.606 48.9694C116.094 48.6205 116.504 48.1742 116.811 47.6586C117.118 47.1431 117.315 46.5694 117.389 45.974C117.463 45.3786 117.413 44.7743 117.241 44.1992C117.338 44.9718 117.226 45.7563 116.915 46.4703C116.605 47.1843 116.108 47.8016 115.476 48.2574Z"
			fill="#2F2E41"/>
		<path
			d="M98.3508 48.2622C99.1083 46.906 99.3982 46.3402 100.375 45.5139C101.239 44.7844 102.301 44.5703 103.158 45.2613C104.201 44.8063 105.364 44.7081 106.468 44.9822C107.572 45.2563 108.554 45.8872 109.262 46.777C109.971 47.6668 110.365 48.7656 110.385 49.9028C110.405 51.0399 110.048 52.1517 109.371 53.0655C108.694 53.9793 107.734 54.6438 106.641 54.956C105.547 55.2681 104.381 55.2103 103.323 54.7915C102.266 54.3728 101.376 53.6166 100.793 52.6403C100.209 51.6641 99.9647 50.5225 100.097 49.3928C99.3517 49.2888 99.0957 48.3675 98.3508 48.2622Z"
			fill="#2F2E41"/>
		<path
			d="M133.012 128.001H0.348121C0.155737 128.001 0 127.854 0 127.674C0 127.494 0.155917 127.348 0.348121 127.348H133.012C133.205 127.348 133.361 127.494 133.361 127.674C133.361 127.854 133.205 128.001 133.012 128.001Z"
			fill="#494C58"/>
	</g>
	<defs>
		<clipPath id="clip0_3745_16168">
			<rect width="133.361" height="128" fill="white"/>
		</clipPath>
	</defs>
</svg>
