<svg id="undraw_Mail_sent_re_0ofv_1_" data-name="undraw_Mail_sent_re_0ofv (1)" xmlns="http://www.w3.org/2000/svg"
	 width="652.16" height="585.428" viewBox="0 0 652.16 585.428">
	<path id="Path_3566" data-name="Path 3566"
		  d="M960.574,418.042a1.143,1.143,0,0,1-.653-.2L643.5,197.472a5.739,5.739,0,0,0-6.554.011L322.8,417.835a1.144,1.144,0,1,1-1.314-1.874L635.63,195.609a8.034,8.034,0,0,1,9.176-.015L961.229,415.958a1.144,1.144,0,0,1-.655,2.083Z"
		  transform="translate(-314.135 -194.162)" fill="#3f3d56"/>
	<path id="Path_3567" data-name="Path 3567"
		  d="M23.264,230.492,323.043,8.319,625.1,246.3l-286.607,169.9-155.6-35.468Z" transform="translate(3.353 1.2)"
		  fill="#e6e6e6"/>
	<path id="Path_3568" data-name="Path 3568"
		  d="M508.785,652.447h-148.1a6.919,6.919,0,0,1,0-13.838h148.1a6.919,6.919,0,1,1,0,13.838Z"
		  transform="translate(-309.412 -130.099)" fill="#344ba3"/>
	<path id="Path_3569" data-name="Path 3569"
		  d="M413.822,626.448H360.686a6.919,6.919,0,0,1,0-13.838h53.134a6.919,6.919,0,1,1,0,13.837Z"
		  transform="translate(-309.412 -133.847)" fill="#344ba3"/>
	<path id="Path_3570" data-name="Path 3570"
		  d="M627.666,545.828a8.66,8.66,0,0,1-3.283-.643L439.5,468.471V228.346a8.018,8.018,0,0,1,8.009-8.009H802.193a8.019,8.019,0,0,1,8.009,8.009V468.639l-.348.148-178.807,76.36A8.724,8.724,0,0,1,627.666,545.828Z"
		  transform="translate(-297.054 -190.389)" fill="#fff"/>
	<path id="Path_3571" data-name="Path 3571"
		  d="M627.738,546.472a9.231,9.231,0,0,1-3.5-.685L439,468.926V228.418a8.591,8.591,0,0,1,8.581-8.581H802.265a8.591,8.591,0,0,1,8.581,8.581V469.089l-179.5,76.656A9.281,9.281,0,0,1,627.738,546.472ZM441.288,467.4l183.821,76.274a7,7,0,0,0,5.341-.032l178.107-76.061V228.418a6.3,6.3,0,0,0-6.293-6.293H447.581a6.3,6.3,0,0,0-6.293,6.293Z"
		  transform="translate(-297.127 -190.461)" fill="#3f3d56"/>
	<path id="Path_3572" data-name="Path 3572"
		  d="M959.151,387.837h-.229L827.575,443.923,647.865,520.66a5.8,5.8,0,0,1-4.44.023l-185.408-76.92L323.444,387.928l-.205-.091h-.23A8.018,8.018,0,0,0,315,395.846V743.665a8.018,8.018,0,0,0,8.009,8.009H959.151a8.018,8.018,0,0,0,8.009-8.009V395.846A8.018,8.018,0,0,0,959.151,387.837Zm5.721,355.828a5.723,5.723,0,0,1-5.721,5.721H323.009a5.723,5.723,0,0,1-5.721-5.72V395.846a5.734,5.734,0,0,1,5.5-5.721l135.226,56.109L642.544,522.8a8.149,8.149,0,0,0,6.224-.034l178.806-76.36,131.805-56.28a5.739,5.739,0,0,1,5.492,5.721Z"
		  transform="translate(-315 -166.246)" fill="#3f3d56"/>
	<path id="Path_3573" data-name="Path 3573"
		  d="M615.318,474.377a31.46,31.46,0,0,1-18.931-6.289l-.339-.254L524.756,413.25a31.674,31.674,0,1,1,38.528-50.284l46.178,35.409L718.587,256.059A31.673,31.673,0,0,1,763,250.2l-.678.921.7-.908a31.709,31.709,0,0,1,5.862,44.408l-128.358,167.4A31.688,31.688,0,0,1,615.318,474.377Z"
		  transform="translate(-286.555 -187.028)" fill="#344ba3"/>
</svg>
