<?xml version="1.0" encoding="UTF-8"?>
<!DOCTYPE svg PUBLIC "-//W3C//DTD SVG 1.1//EN" "http://www.w3.org/Graphics/SVG/1.1/DTD/svg11.dtd">
<!-- Creator: CorelDRAW 2019 (64-Bit) -->
<svg xmlns="http://www.w3.org/2000/svg" xml:space="preserve" width="500px" height="500px" version="1.1"
	 style="shape-rendering:geometricPrecision; text-rendering:geometricPrecision; image-rendering:optimizeQuality; fill-rule:evenodd; clip-rule:evenodd"
	 viewBox="0 0 500 500"
>
 <defs>
  <style type="text/css">
   <![CDATA[
    .fil1 {fill:#132740}
    .fil2 {fill:#374B99}
    .fil0 {fill:#E6984B}
    .fil3 {fill:white}
    .fil4 {fill:white;fill-rule:nonzero}
   ]]>
  </style>
 </defs>
	<g id="Layer_x0020_1">
  <metadata id="CorelCorpID_0Corel-Layer"/>
		<g id="_2708074757280">
   <polygon class="fil0"
			points="250,0 354.17,62.5 458.34,125 458.34,250 458.34,375 354.17,437.5 250,500 145.83,437.5 41.67,375 41.67,250 41.67,125 145.83,62.5 "/>
			<polygon class="fil1" points="250,50 83.33,149.47 83.33,350.53 250,450 416.67,350.53 416.67,149.47 "/>
			<rect class="fil2" x="41.67" y="250" width="416.67" height="125" rx="7.72" ry="16.67"/>
			<path class="fil3"
				  d="M96.8 345.14c-6.26,0 -11.72,-1.34 -16.39,-4.02 -4.66,-2.68 -8.24,-6.49 -10.74,-11.42 -2.5,-4.94 -3.75,-10.68 -3.75,-17.24 0,-6.56 1.25,-12.3 3.75,-17.2 2.5,-4.91 6.08,-8.7 10.74,-11.38 4.67,-2.67 10.13,-4.01 16.39,-4.01 4.27,0 8.3,0.66 12.09,1.98 3.8,1.33 6.99,3.19 9.57,5.6l-3.88 8.49c-2.89,-2.29 -5.75,-3.96 -8.57,-5.01 -2.83,-1.06 -5.84,-1.58 -9.03,-1.58 -6.14,0 -10.88,1.98 -14.22,5.95 -3.34,3.98 -5.01,9.69 -5.01,17.16 0,7.52 1.67,13.27 5.01,17.24 3.34,3.97 8.08,5.96 14.22,5.96 3.19,0 6.2,-0.53 9.03,-1.58 2.82,-1.06 5.68,-2.73 8.57,-5.01l3.88 8.48c-2.58,2.41 -5.77,4.28 -9.57,5.6 -3.79,1.32 -7.82,1.99 -12.09,1.99zm337.27 -20.86l-30.06 0c0.36,4.1 1.59,7.13 3.7,9.12 2.11,1.99 5.12,2.98 9.03,2.98 4.87,0 9.33,-1.56 13.36,-4.69l3.25 7.76c-2.05,1.68 -4.62,3.04 -7.72,4.06 -3.1,1.02 -6.21,1.54 -9.34,1.54 -7.23,0 -12.93,-2.05 -17.11,-6.14 -4.18,-4.09 -6.28,-9.69 -6.28,-16.79 0,-4.52 0.91,-8.52 2.71,-12.01 1.81,-3.49 4.35,-6.2 7.63,-8.13 3.28,-1.92 7,-2.88 11.15,-2.88 6.08,0 10.88,1.95 14.4,5.86 3.52,3.92 5.28,9.3 5.28,16.16l0 3.16zm-19.41 -17.24c-3.01,0 -5.43,0.96 -7.27,2.89 -1.83,1.92 -2.96,4.69 -3.38,8.3l20.4 0c-0.12,-3.67 -1.02,-6.45 -2.71,-8.35 -1.68,-1.89 -4.03,-2.84 -7.04,-2.84zm-30.96 -26.36l0 63.64 -11.2 0 0 -7.13c-1.32,2.47 -3.23,4.4 -5.73,5.78 -2.5,1.38 -5.34,2.08 -8.53,2.08 -3.79,0 -7.18,-0.97 -10.16,-2.89 -2.98,-1.93 -5.29,-4.65 -6.95,-8.17 -1.65,-3.52 -2.48,-7.57 -2.48,-12.14 0,-4.58 0.83,-8.58 2.48,-12.01 1.66,-3.43 3.96,-6.08 6.91,-7.95 2.95,-1.86 6.35,-2.79 10.2,-2.79 3.19,0 6.02,0.66 8.48,1.98 2.47,1.33 4.37,3.19 5.69,5.6l0 -26 11.29 0zm-22.48 55.61c3.61,0 6.39,-1.23 8.35,-3.7 1.95,-2.47 2.93,-5.99 2.93,-10.56 0,-4.58 -0.98,-8.08 -2.93,-10.52 -1.96,-2.44 -4.71,-3.66 -8.26,-3.66 -3.61,0 -6.41,1.21 -8.4,3.61 -1.98,2.41 -2.98,5.87 -2.98,10.39 0,4.57 1,8.12 2.98,10.65 1.99,2.53 4.76,3.79 8.31,3.79zm-49.93 -37.19c6.2,0 10.81,1.5 13.82,4.51 3.01,3.01 4.51,7.64 4.51,13.9l0 26.81 -10.74 0 0 -6.77c-1.02,2.35 -2.64,4.19 -4.83,5.51 -2.2,1.32 -4.74,1.99 -7.63,1.99 -2.95,0 -5.63,-0.61 -8.03,-1.81 -2.41,-1.2 -4.31,-2.86 -5.69,-4.96 -1.39,-2.11 -2.08,-4.46 -2.08,-7.05 0,-3.25 0.83,-5.8 2.48,-7.67 1.66,-1.86 4.35,-3.22 8.08,-4.06 3.74,-0.84 8.88,-1.27 15.44,-1.27l2.26 0 0 -2.07c0,-3.01 -0.65,-5.18 -1.94,-6.5 -1.3,-1.33 -3.45,-1.99 -6.46,-1.99 -2.34,0 -4.8,0.41 -7.36,1.22 -2.55,0.81 -5.07,1.94 -7.53,3.39l-3.16 -7.77c2.47,-1.56 5.44,-2.86 8.94,-3.88 3.49,-1.02 6.8,-1.53 9.92,-1.53zm-2.61 37.82c3.01,0 5.46,-1.01 7.35,-3.02 1.9,-2.02 2.85,-4.62 2.85,-7.81l0 -1.9 -1.63 0c-4.03,0 -7.16,0.18 -9.39,0.54 -2.22,0.37 -3.82,1 -4.78,1.9 -0.96,0.9 -1.44,2.14 -1.44,3.7 0,1.93 0.66,3.51 1.98,4.74 1.33,1.23 3.01,1.85 5.06,1.85zm-21.67 -28.44l-6.59 0.64c-7.46,0.78 -11.19,4.57 -11.19,11.37l0 23.83 -11.29 0 0 -44.14 10.75 0 0 7.76c2.28,-5.29 7.01,-8.18 14.17,-8.66l3.43 -0.27 0.72 9.47zm-55.43 -9.38c5,0 8.73,1.49 11.2,4.46 2.46,2.98 3.7,7.54 3.7,13.68l0 27.08 -11.29 0 0 -26.63c0,-3.37 -0.57,-5.82 -1.71,-7.35 -1.15,-1.54 -2.98,-2.31 -5.51,-2.31 -3.01,0 -5.36,1.03 -7.04,3.07 -1.69,2.05 -2.53,4.91 -2.53,8.58l0 24.64 -11.28 0 0 -26.63c0,-3.37 -0.56,-5.82 -1.67,-7.35 -1.12,-1.54 -2.97,-2.31 -5.56,-2.31 -2.95,0 -5.26,1.03 -6.95,3.07 -1.68,2.05 -2.53,4.91 -2.53,8.58l0 24.64 -11.28 0 0 -44.14 11.01 0 0 6.23c1.33,-2.41 3.16,-4.23 5.51,-5.46 2.35,-1.24 5.03,-1.85 8.04,-1.85 6.68,0 11.1,2.76 13.27,8.3 1.38,-2.59 3.37,-4.62 5.95,-6.09 2.59,-1.48 5.48,-2.21 8.67,-2.21zm-84.23 45.95c-4.51,0 -8.47,-0.94 -11.87,-2.8 -3.4,-1.87 -6.03,-4.55 -7.9,-8.04 -1.86,-3.49 -2.8,-7.55 -2.8,-12.18 0,-4.64 0.94,-8.69 2.8,-12.15 1.87,-3.46 4.5,-6.12 7.9,-7.99 3.4,-1.86 7.36,-2.79 11.87,-2.79 4.52,0 8.47,0.93 11.87,2.79 3.4,1.87 6.02,4.53 7.86,7.99 1.83,3.46 2.75,7.51 2.75,12.15 0,4.63 -0.92,8.69 -2.75,12.18 -1.84,3.49 -4.46,6.17 -7.86,8.04 -3.4,1.86 -7.35,2.8 -11.87,2.8zm-0.09 -8.76c3.67,0 6.47,-1.2 8.4,-3.61 1.92,-2.41 2.89,-5.96 2.89,-10.65 0,-4.64 -0.97,-8.17 -2.89,-10.61 -1.93,-2.44 -4.7,-3.66 -8.31,-3.66 -3.61,0 -6.39,1.22 -8.35,3.66 -1.95,2.44 -2.93,5.97 -2.93,10.61 0,4.69 0.96,8.24 2.89,10.65 1.92,2.41 4.69,3.61 8.3,3.61z"/>
			<path id="XMLID_40_" class="fil4"
				  d="M235.2 108.74c6.95,1.31 13.65,-3.26 14.96,-10.21 1.32,-6.96 -3.25,-13.66 -10.2,-14.97 -6.96,-1.31 -13.66,3.26 -14.98,10.21 -1.31,6.96 3.26,13.65 10.22,14.97zm73.02 127.56l-31.98 0 0 -10.5c0,-1.77 -1.44,-3.2 -3.2,-3.2l-84.46 0 0 13.7 0 5.57 0 8.13 122.85 0 0 -10.5c0,-1.76 -1.44,-3.2 -3.21,-3.2zm-0.2 -100.38c6.95,-1.32 11.53,-8.01 10.21,-14.97 -1.31,-6.95 -8.01,-11.52 -14.97,-10.21 -6.95,1.31 -11.52,8.01 -10.21,14.97 1.32,6.95 8.02,11.52 14.97,10.21zm31.01 105.74l-7.07 -25.39 0.63 -21.24c0.05,-1.64 -0.07,-3.28 -0.38,-4.89l-7.57 -40.11c-0.55,-2.88 -2.21,-5.42 -4.63,-7.07 -2.41,-1.65 -5.39,-2.27 -8.26,-1.73l-4.63 0.88c-2.98,0.56 -5.44,2.27 -7.04,4.58 1.66,-0.25 3.75,-0.6 5.29,-0.73l-19.96 6.98 -22.91 -3.27c-2.73,-0.39 -5.17,1.34 -5.93,3.9 -5.44,-4.95 -1.47,-1.34 -14.61,-13.29l-9.64 -17.96c0.81,0.78 3.95,4.69 4.71,5.62l0.35 -1.82c1.13,-5.99 -2.81,-11.76 -8.8,-12.89l-4.62 -0.87c-5.98,-1.13 -11.76,2.79 -12.89,8.79l-7.45 39.41c-0.39,2.07 -0.41,4.19 -0.07,6.27l3.22 19.38 -9.91 25.99c-1.29,3.4 0.41,7.2 3.81,8.49 3.35,1.29 7.17,-0.38 8.48,-3.8l10.54 -27.64c0.41,-1.09 0.53,-2.26 0.35,-3.4l-1.31 -8.07 9.11 10.79 -0.31 25.9c-0.05,3.63 2.86,6.61 6.49,6.65 0.03,0 0.05,0 0.08,0 3.6,0 6.53,-2.89 6.58,-6.49l0.34 -28.35c0.02,-1.57 -0.53,-3.11 -1.55,-4.31l-10.33 -12.24 3.31 -17.5 -1.44 -1.3c-0.95,-0.87 -1.64,-1.37 -2.03,-2.61 -0.44,-1.42 -6,-19.3 -6.28,-20.75l10.05 18.73c0.28,0.53 0.66,0.97 1.07,1.36 0.02,0.03 0.04,0.07 0.07,0.1l16.61 15.1c2.25,2.04 5.71,1.85 7.74,-0.37 0.66,-0.73 1.01,-1.61 1.21,-2.5 0.48,0.22 0.96,0.45 1.51,0.53l24.23 3.46c0.81,0.12 1.71,0.05 2.58,-0.25l21.26 -7.44c-1.07,0.73 -8.27,4.82 -9.43,5.49l5.69 30.08 -11.97 5.02c-2.05,0.85 -3.51,2.67 -3.92,4.84l-4.64 24.62c-0.67,3.57 1.68,7 5.24,7.67 0.42,0.08 0.82,0.12 1.23,0.12 3.1,0 5.86,-2.2 6.45,-5.36l3.99 -21.14 17.46 -7.32 -0.35 16.65c-0.01,0.65 0.07,1.29 0.25,1.91l7.33 26.32c0.81,2.91 3.46,4.81 6.33,4.81 0.59,0 1.18,-0.08 1.77,-0.24 3.5,-0.98 5.55,-4.6 4.57,-8.1z"/>
  </g>
 </g>
</svg>
