<svg width="45" height="36" viewBox="0 0 45 36" fill="none" xmlns="http://www.w3.org/2000/svg">
	<path
		d="M18.5978 17.6679V36H0V23.9114C0 19.3063 0.797048 15.1439 2.39114 11.4243C3.98524 7.61623 6.68635 3.80812 10.4945 0L17.2694 5.31365C15.1439 7.61623 13.5055 9.7417 12.3542 11.69C11.203 13.6384 10.4502 15.631 10.0959 17.6679H18.5978ZM44.1033 17.6679V36H25.5055V23.9114C25.5055 19.3063 26.3026 15.1439 27.8967 11.4243C29.4908 7.61623 32.1919 3.80812 36 0L42.7749 5.31365C40.6495 7.61623 39.0111 9.7417 37.8598 11.69C36.7085 13.6384 35.9557 15.631 35.6015 17.6679H44.1033Z"
		fill="white"/>
</svg>
