<svg width="32" height="32" viewBox="0 0 32 32" fill="none" xmlns="http://www.w3.org/2000/svg">
	<rect width="32" height="32" rx="8" fill="white"/>
	<path fill-rule="evenodd" clip-rule="evenodd"
		  d="M13.9969 6.71779C14.1528 6.85417 14.1686 7.09108 14.0322 7.24694L8.78222 13.2469C8.71387 13.3251 8.61621 13.3713 8.51248 13.3748C8.40875 13.3783 8.30822 13.3386 8.23484 13.2652L5.98483 11.0152C5.83839 10.8687 5.83839 10.6313 5.98483 10.4848C6.13128 10.3384 6.36872 10.3384 6.51517 10.4848L8.48173 12.4514L13.4678 6.75307C13.6042 6.5972 13.8411 6.58141 13.9969 6.71779Z"
		  fill="#00D246"/>
	<path fill-rule="evenodd" clip-rule="evenodd"
		  d="M25.9969 18.7178C26.1528 18.8542 26.1686 19.0911 26.0322 19.2469L20.7822 25.2469C20.7139 25.3251 20.6162 25.3713 20.5125 25.3748C20.4087 25.3783 20.3082 25.3386 20.2348 25.2652L17.9848 23.0152C17.8384 22.8687 17.8384 22.6313 17.9848 22.4848C18.1313 22.3384 18.3687 22.3384 18.5152 22.4848L20.4817 24.4514L25.4678 18.7531C25.6042 18.5972 25.8411 18.5814 25.9969 18.7178Z"
		  fill="#00D246"/>
	<path
		d="M22.7955 10L25.022 7.77344C25.1277 7.66795 25.1871 7.52481 25.1873 7.3755C25.1874 7.22619 25.1282 7.08294 25.0227 6.97726C24.9172 6.87159 24.7741 6.81215 24.6248 6.81202C24.4755 6.81189 24.3322 6.87108 24.2266 6.97656L22 9.20312L19.7734 6.97656C19.6678 6.87089 19.5244 6.81152 19.375 6.81152C19.2256 6.81152 19.0822 6.87089 18.9766 6.97656C18.8709 7.08223 18.8115 7.22556 18.8115 7.375C18.8115 7.52444 18.8709 7.66776 18.9766 7.77344L21.2031 10L18.9766 12.2266C18.8709 12.3322 18.8115 12.4756 18.8115 12.625C18.8115 12.7744 18.8709 12.9178 18.9766 13.0234C19.0822 13.1291 19.2256 13.1885 19.375 13.1885C19.5244 13.1885 19.6678 13.1291 19.7734 13.0234L22 10.7969L24.2266 13.0234C24.3322 13.1291 24.4756 13.1885 24.625 13.1885C24.7744 13.1885 24.9178 13.1291 25.0234 13.0234C25.1291 12.9178 25.1885 12.7744 25.1885 12.625C25.1885 12.4756 25.1291 12.3322 25.0234 12.2266L22.7955 10Z"
		fill="#FF6666"/>
	<path
		d="M10.7955 22L13.022 19.7734C13.1277 19.668 13.1871 19.5248 13.1873 19.3755C13.1874 19.2262 13.1282 19.0829 13.0227 18.9773C12.9172 18.8716 12.7741 18.8122 12.6248 18.812C12.4755 18.8119 12.3322 18.8711 12.2266 18.9766L10 21.2031L7.77344 18.9766C7.66776 18.8709 7.52444 18.8115 7.375 18.8115C7.22556 18.8115 7.08223 18.8709 6.97656 18.9766C6.87089 19.0822 6.81152 19.2256 6.81152 19.375C6.81152 19.5244 6.87089 19.6678 6.97656 19.7734L9.20312 22L6.97656 24.2266C6.87089 24.3322 6.81152 24.4756 6.81152 24.625C6.81152 24.7744 6.87089 24.9178 6.97656 25.0234C7.08223 25.1291 7.22556 25.1885 7.375 25.1885C7.52444 25.1885 7.66776 25.1291 7.77344 25.0234L10 22.7969L12.2266 25.0234C12.3322 25.1291 12.4756 25.1885 12.625 25.1885C12.7744 25.1885 12.9178 25.1291 13.0234 25.0234C13.1291 24.9178 13.1885 24.7744 13.1885 24.625C13.1885 24.4756 13.1291 24.3322 13.0234 24.2266L10.7955 22Z"
		fill="#FF6666"/>
</svg>
