<?xml version="1.0" encoding="UTF-8"?><!DOCTYPE svg PUBLIC "-//W3C//DTD SVG 1.1//EN" "http://www.w3.org/Graphics/SVG/1.1/DTD/svg11.dtd"><svg xmlns="http://www.w3.org/2000/svg" xmlns:xlink="http://www.w3.org/1999/xlink"><defs/><symbol id="admin" viewBox="0 0 24 25">
<path fill-rule="evenodd" clip-rule="evenodd" d="M23.3 9.58209H22.2319C21.9829 8.58568 21.5877 7.63165 21.0591 6.75109L21.8149 5.99509C21.8806 5.93001 21.9327 5.85259 21.9683 5.76729C22.0038 5.68199 22.022 5.59049 22.022 5.49809C22.022 5.40568 22.0038 5.31418 21.9683 5.22888C21.9327 5.14358 21.8806 5.06616 21.8149 5.00109L19.1631 2.34909C19.098 2.28348 19.0206 2.2314 18.9353 2.19586C18.85 2.16032 18.7584 2.14203 18.666 2.14203C18.5736 2.14203 18.482 2.16032 18.3967 2.19586C18.3114 2.2314 18.234 2.28348 18.1689 2.34909L17.4131 3.10409C16.532 2.57582 15.5776 2.18056 14.5811 1.93109V0.863087C14.5811 0.677435 14.5073 0.499386 14.376 0.368111C14.2447 0.236835 14.0668 0.163086 13.8811 0.163086H10.1299C9.94423 0.163086 9.76628 0.236835 9.63501 0.368111C9.50373 0.499386 9.42993 0.677435 9.42993 0.863087V1.93109C8.43366 2.18058 7.4799 2.57585 6.59912 3.10409L5.84302 2.34909C5.77794 2.28348 5.70054 2.2314 5.61523 2.19586C5.52993 2.16032 5.43836 2.14203 5.34595 2.14203C5.25354 2.14203 5.16221 2.16032 5.0769 2.19586C4.9916 2.2314 4.9142 2.28348 4.84912 2.34909L2.18799 5.00009C2.12238 5.06516 2.07021 5.14258 2.03467 5.22788C1.99913 5.31318 1.98096 5.40468 1.98096 5.49709C1.98096 5.58949 1.99913 5.68099 2.03467 5.76629C2.07021 5.85159 2.12238 5.92901 2.18799 5.99409L2.94409 6.75009C2.41524 7.63055 2.01984 8.5846 1.771 9.58109H0.699951C0.5143 9.58109 0.336354 9.65484 0.205078 9.78611C0.0738027 9.91739 0 10.0954 0 10.2811V14.0311C0 14.2167 0.0738027 14.3948 0.205078 14.5261C0.336354 14.6573 0.5143 14.7311 0.699951 14.7311H1.76904C2.01801 15.7278 2.41316 16.6822 2.94189 17.5631L2.18604 18.3181C2.05444 18.4502 1.98047 18.6291 1.98047 18.8156C1.98047 19.0021 2.05444 19.181 2.18604 19.3131L4.83789 21.9641C4.90296 22.0297 4.98062 22.0818 5.06592 22.1173C5.15122 22.1528 5.24255 22.1711 5.33496 22.1711C5.42737 22.1711 5.51895 22.1528 5.60425 22.1173C5.68955 22.0818 5.76696 22.0297 5.83203 21.9641L6.58789 21.2091C7.46846 21.7377 8.42253 22.133 9.41895 22.3821V23.4501C9.41895 23.6357 9.49275 23.8138 9.62402 23.9451C9.7553 24.0763 9.93324 24.1501 10.1189 24.1501H13.8689C14.0545 24.1501 14.2327 24.0763 14.364 23.9451C14.4953 23.8138 14.5691 23.6357 14.5691 23.4501V22.3891C15.5658 22.1401 16.52 21.7448 17.4009 21.2161L18.157 21.9711C18.2221 22.0367 18.2995 22.0888 18.3848 22.1243C18.4701 22.1598 18.5616 22.1781 18.6541 22.1781C18.7465 22.1781 18.8378 22.1598 18.9231 22.1243C19.0084 22.0888 19.0858 22.0367 19.1509 21.9711L21.803 19.3201C21.9346 19.188 22.0085 19.0091 22.0085 18.8226C22.0085 18.6361 21.9346 18.4572 21.803 18.3251L21.0471 17.5701C21.5759 16.6892 21.971 15.7348 22.22 14.7381H23.2881C23.4737 14.7381 23.6517 14.6643 23.783 14.5331C23.9142 14.4018 23.988 14.2237 23.988 14.0381V10.2881C23.988 10.1024 23.9142 9.92439 23.783 9.79311C23.6517 9.66184 23.4737 9.58809 23.2881 9.58809L23.3 9.58209ZM15.0381 9.12509C15.1991 8.9641 15.4174 8.87366 15.645 8.87366C15.8727 8.87366 16.091 8.9641 16.252 9.12509C16.4129 9.28607 16.5034 9.50442 16.5034 9.73208C16.5034 9.95975 16.4129 10.1781 16.252 10.3391L11.397 15.1951C11.2358 15.3557 11.0176 15.4459 10.79 15.4459C10.5625 15.4459 10.3443 15.3557 10.1831 15.1951L7.75488 12.7671C7.5939 12.6061 7.50366 12.3878 7.50366 12.1601C7.50366 11.9324 7.5939 11.7141 7.75488 11.5531C7.91587 11.3921 8.13439 11.3017 8.36206 11.3017C8.58973 11.3017 8.80801 11.3921 8.96899 11.5531L10.7891 13.3741L15.0381 9.12509ZM12 19.4261C10.5629 19.4261 9.15802 18.9999 7.96313 18.2015C6.76825 17.4031 5.83706 16.2684 5.28711 14.9407C4.73716 13.613 4.59317 12.152 4.87354 10.7426C5.1539 9.33309 5.84589 8.03842 6.86206 7.02225C7.87823 6.00608 9.17305 5.31406 10.5825 5.0337C11.992 4.75334 13.4528 4.89723 14.7805 5.44718C16.1082 5.99712 17.2431 6.92842 18.0415 8.12331C18.8399 9.3182 19.2661 10.723 19.2661 12.1601C19.264 14.0865 18.4977 15.9334 17.1355 17.2956C15.7733 18.6578 13.9264 19.424 12 19.4261Z" fill="currentColor"/>
</symbol><symbol id="app-outline" viewBox="0 0 20 20">
<path fill-rule="evenodd" clip-rule="evenodd" d="M2 9.5H7.5C8.03043 9.5 8.53911 9.28932 8.91418 8.91425C9.28926 8.53917 9.5 8.03043 9.5 7.5V2C9.5 1.46957 9.28926 0.960888 8.91418 0.585815C8.53911 0.210743 8.03043 0 7.5 0H2C1.47005 0.00158273 0.962255 0.212794 0.587524 0.587524C0.212794 0.962255 0.00158273 1.47005 0 2V7.5C0.00132012 8.03003 0.212432 8.53799 0.587219 8.91278C0.962006 9.28757 1.46997 9.49868 2 9.5ZM13.5 11.5C12.9696 11.5 12.4609 11.7107 12.0858 12.0858C11.7107 12.4609 11.5 12.9696 11.5 13.5V18C11.5016 18.5299 11.7128 19.0377 12.0875 19.4125C12.4623 19.7872 12.9701 19.9984 13.5 20H18C18.5304 20 19.0391 19.7893 19.4142 19.4142C19.7893 19.0392 20 18.5304 20 18V13.5C20 12.9696 19.7893 12.4609 19.4142 12.0858C19.0391 11.7107 18.5304 11.5 18 11.5H13.5ZM13.5 12.979H18C18.1378 12.9795 18.2697 13.0345 18.3671 13.1319C18.4645 13.2293 18.5195 13.3613 18.52 13.499V17.999C18.5195 18.1368 18.4645 18.2687 18.3671 18.3661C18.2697 18.4635 18.1378 18.5185 18 18.519H13.5C13.3622 18.5185 13.2303 18.4635 13.1329 18.3661C13.0355 18.2687 12.9805 18.1368 12.98 17.999V13.499C12.9805 13.3613 13.0355 13.2293 13.1329 13.1319C13.2303 13.0345 13.3622 12.9795 13.5 12.979ZM9.5 13.499C9.5 12.9686 9.28926 12.4599 8.91418 12.0848C8.53911 11.7097 8.03043 11.499 7.5 11.499H3C2.46997 11.5003 1.96201 11.7115 1.58722 12.0862C1.21243 12.461 1.00132 12.969 1 13.499V17.999C1.00158 18.529 1.21279 19.0368 1.58752 19.4115C1.96225 19.7862 2.47005 19.9974 3 19.999H7.5C8.02995 19.9974 8.53775 19.7862 8.91248 19.4115C9.28721 19.0368 9.49842 18.529 9.5 17.999V13.499ZM7.5 12.979C7.63775 12.9795 7.76972 13.0345 7.86713 13.1319C7.96453 13.2293 8.01949 13.3613 8.02002 13.499V17.999C8.01949 18.1368 7.96453 18.2687 7.86713 18.3661C7.76972 18.4635 7.63775 18.5185 7.5 18.519H3C2.86225 18.5185 2.73028 18.4635 2.63287 18.3661C2.53547 18.2687 2.48051 18.1368 2.47998 17.999V13.499C2.48051 13.3613 2.53547 13.2293 2.63287 13.1319C2.73028 13.0345 2.86225 12.9795 3 12.979H7.5ZM11.5 7.49799C11.5013 8.02801 11.7124 8.53598 12.0872 8.91077C12.462 9.28555 12.97 9.49667 13.5 9.49799H18C18.5304 9.49799 19.0391 9.2873 19.4142 8.91223C19.7893 8.53716 20 8.02842 20 7.49799V2.99799C20 2.46755 19.7893 1.95887 19.4142 1.5838C19.0391 1.20873 18.5304 0.997986 18 0.997986H13.5C12.9696 0.997986 12.4609 1.20873 12.0858 1.5838C11.7107 1.95887 11.5 2.46755 11.5 2.99799V7.49799ZM18 8.01801H13.5C13.3622 8.01748 13.2303 7.96252 13.1329 7.86511C13.0355 7.76771 12.9805 7.63574 12.98 7.49799V2.99799C12.9805 2.86024 13.0355 2.72826 13.1329 2.63086C13.2303 2.53345 13.3622 2.47855 13.5 2.47803H18C18.1378 2.47855 18.2697 2.53345 18.3671 2.63086C18.4645 2.72826 18.5195 2.86024 18.52 2.99799V7.49799C18.5195 7.63574 18.4645 7.76771 18.3671 7.86511C18.2697 7.96252 18.1378 8.01748 18 8.01801ZM7.5 8.01801H2C1.86225 8.01748 1.73028 7.96252 1.63287 7.86511C1.53547 7.76771 1.48051 7.63574 1.47998 7.49799V1.99799C1.48051 1.86024 1.53547 1.72826 1.63287 1.63086C1.73028 1.53345 1.86225 1.47855 2 1.47803H7.5C7.63775 1.47855 7.76972 1.53345 7.86713 1.63086C7.96453 1.72826 8.01949 1.86024 8.02002 1.99799V7.49799C8.02002 7.63608 7.96526 7.76856 7.8678 7.86639C7.77034 7.96423 7.6381 8.01949 7.5 8.02002V8.01801Z" fill="currentColor"/>
</symbol><symbol id="app" viewBox="0 0 20 20">
<path fill-rule="evenodd" clip-rule="evenodd" d="M2 0H7.5C8.03043 0 8.53914 0.210743 8.91422 0.585815C9.28929 0.960888 9.5 1.46957 9.5 2V7.5C9.5 8.03043 9.28929 8.53917 8.91422 8.91425C8.53914 9.28932 8.03043 9.5 7.5 9.5H2C1.46997 9.49868 0.962037 9.28757 0.58725 8.91278C0.212463 8.53799 0.00132012 8.03003 0 7.5V2C0.00158273 1.47005 0.212794 0.962316 0.587524 0.587585C0.962255 0.212855 1.47005 0.00158273 2 0ZM3 11.5H7.5C8.03003 11.5013 8.53796 11.7125 8.91275 12.0873C9.28754 12.4621 9.49868 12.97 9.5 13.5V18C9.49842 18.5299 9.28721 19.0377 8.91248 19.4125C8.53775 19.7872 8.02995 19.9984 7.5 20H3C2.47005 19.9984 1.96225 19.7872 1.58752 19.4125C1.21279 19.0377 1.00158 18.5299 1 18V13.5C1.00132 12.97 1.21246 12.4621 1.58725 12.0873C1.96204 11.7125 2.46997 11.5013 3 11.5ZM13.5 11.5H18C18.5304 11.5 19.0391 11.7107 19.4142 12.0858C19.7893 12.4609 20 12.9696 20 13.5V18C20 18.5304 19.7893 19.0392 19.4142 19.4142C19.0391 19.7893 18.5304 20 18 20H13.5C12.9701 19.9984 12.4623 19.7872 12.0875 19.4125C11.7128 19.0377 11.5016 18.5299 11.5 18V13.5C11.5 12.9696 11.7107 12.4609 12.0858 12.0858C12.4609 11.7107 12.9696 11.5 13.5 11.5ZM13.5 1H18C18.5304 1 19.0391 1.21074 19.4142 1.58582C19.7893 1.96089 20 2.46957 20 3V7.5C20 8.03043 19.7893 8.53917 19.4142 8.91425C19.0391 9.28932 18.5304 9.5 18 9.5H13.5C12.97 9.49868 12.462 9.28757 12.0872 8.91278C11.7125 8.53799 11.5013 8.03003 11.5 7.5V3C11.5 2.46957 11.7107 1.96089 12.0858 1.58582C12.4609 1.21074 12.9696 1 13.5 1Z" fill="currentColor"/>
</symbol><symbol id="arrow-left" viewBox="0 0 16 25">
<path fill-rule="evenodd" clip-rule="evenodd" d="M14.53 19.6005C14.7742 19.8389 14.9687 20.1234 15.1021 20.4375C15.2354 20.7516 15.3051 21.0891 15.3071 21.4303C15.3092 21.7715 15.2434 22.1098 15.1138 22.4255C14.9841 22.7411 14.7931 23.0279 14.5518 23.2692C14.3105 23.5105 14.0237 23.7016 13.708 23.8312C13.3923 23.9609 13.0541 24.0266 12.7129 24.0246C12.3716 24.0225 12.0341 23.9528 11.72 23.8194C11.4059 23.686 11.1215 23.4916 10.8831 23.2475L6.17212 18.5355L1.46094 13.8245C0.978093 13.3404 0.707031 12.6846 0.707031 12.0009C0.707031 11.3173 0.978093 10.6615 1.46094 10.1775L10.8831 0.755463C11.3665 0.27184 12.0222 9.37514e-05 12.7061 2.42549e-08C13.3899 -9.37028e-05 14.0459 0.271454 14.5295 0.754944C15.0132 1.23843 15.2848 1.89424 15.2849 2.57809C15.285 3.26195 15.0135 3.91784 14.53 4.40146L6.92993 12.0015L14.53 19.6005Z" fill="#4D5C6F"/>
</symbol><symbol id="arrow-right" viewBox="0 0 16 24">
<path fill-rule="evenodd" clip-rule="evenodd" d="M1.4622 19.6004C0.988024 20.0859 0.724534 20.7388 0.728561 21.4175C0.732588 22.0962 1.00378 22.7459 1.48369 23.2258C1.9636 23.7058 2.61336 23.9771 3.29204 23.9812C3.97072 23.9852 4.62361 23.7215 5.10918 23.2474L9.82036 18.5354L14.5313 13.8244C15.0141 13.3403 15.2852 12.6845 15.2852 12.0008C15.2852 11.3172 15.0141 10.6614 14.5313 10.1774L5.10918 0.755356C4.62361 0.281176 3.97072 0.0175031 3.29204 0.0215298C2.61336 0.0255566 1.9636 0.296962 1.48369 0.77687C1.00378 1.25678 0.732588 1.90651 0.728561 2.58519C0.724534 3.26387 0.988024 3.91679 1.4622 4.40236L9.0623 12.0024L1.4622 19.6004Z" fill="#4D5C6F"/>
</symbol><symbol id="bell-outline" viewBox="0 0 20 20">
<path fill-rule="evenodd" clip-rule="evenodd" d="M16.9586 6.81832C16.9643 7.86632 17.0311 8.91311 17.1587 9.95333C17.2751 10.9886 17.5482 12.0002 17.9687 12.9533C18.0865 13.208 18.2285 13.4507 18.3927 13.6783C18.483 13.8119 18.5913 13.9324 18.7147 14.0363C19.0309 14.2113 19.2676 14.5014 19.3756 14.8463C19.4513 15.092 19.4558 15.3541 19.3886 15.6023C19.3069 15.903 19.1284 16.1683 18.8808 16.3574C18.6332 16.5464 18.3302 16.6487 18.0186 16.6483H14.0957L13.7287 17.4783C13.3305 18.4014 12.5983 19.1401 11.6787 19.5463C11.1539 19.7777 10.5867 19.8972 10.0131 19.8972C9.43963 19.8972 8.87245 19.7777 8.34768 19.5463C7.42797 19.1399 6.69548 18.4013 6.29666 17.4783L5.92965 16.6483H2.00765C1.68929 16.6479 1.37996 16.5424 1.12765 16.3483C0.871266 16.1495 0.694022 15.8659 0.62765 15.5483C0.535024 15.286 0.539858 14.9992 0.6412 14.7401C0.742542 14.4811 0.933633 14.2671 1.17965 14.1373C1.56502 13.8207 1.8674 13.4151 2.06063 12.9553C2.42051 12.1431 2.66947 11.286 2.80068 10.4073C2.98442 9.23103 3.07268 8.04185 3.06466 6.85134C3.09081 5.02821 3.83225 3.28832 5.12918 2.00673C6.4261 0.725147 8.17464 0.00448071 9.99795 2.08222e-05C11.8213 -0.00443907 13.5733 0.707704 14.8765 1.98293C16.1797 3.25816 16.9296 4.99437 16.9647 6.81734L16.9586 6.81832ZM15.6587 10.1483C15.524 9.0494 15.4543 7.94347 15.4497 6.83632V6.82729C15.4273 5.39781 14.8429 4.03466 13.8229 3.03286C12.8029 2.03106 11.4295 1.47122 9.99984 1.47451C8.57019 1.47779 7.19933 2.04395 6.18399 3.05044C5.16864 4.05692 4.59049 5.42274 4.57467 6.85232C4.5817 8.12469 4.48536 9.39552 4.28665 10.6523C4.13309 11.6682 3.84243 12.6586 3.42263 13.5963C3.17098 14.178 2.80042 14.7005 2.33468 15.1303H17.6726C17.4872 14.9616 17.3197 14.7743 17.1726 14.5713C16.951 14.2655 16.7595 13.939 16.6007 13.5963C16.1126 12.5001 15.7952 11.3356 15.6596 10.1433L15.6587 10.1483ZM12.3267 16.8743C12.3577 16.8033 12.3857 16.7283 12.4107 16.6513H7.61068C7.63568 16.7283 7.66367 16.8033 7.69467 16.8743L7.78665 17.0843C8.04594 17.5639 8.45712 17.9437 8.95565 18.1643C9.28862 18.3094 9.64792 18.3843 10.0111 18.3843C10.3743 18.3843 10.7337 18.3094 11.0667 18.1643C11.5626 17.9448 11.9722 17.5676 12.2317 17.0913L12.3267 16.8743Z" fill="currentColor"/>
</symbol><symbol id="bell" viewBox="0 0 19 21">
<path fill-rule="evenodd" clip-rule="evenodd" d="M6.0991 17.8795C6.37815 18.5143 6.83593 19.0541 7.41659 19.4332C7.99725 19.8122 8.67568 20.0141 9.3691 20.0141C10.0625 20.0141 10.741 19.8122 11.3216 19.4332C11.9023 19.0541 12.36 18.5143 12.6391 17.8795H12.6231C12.8133 17.4417 12.913 16.9699 12.9161 16.4925H18.0281C18.1891 16.4954 18.3462 16.4432 18.4734 16.3447C18.6007 16.2461 18.6906 16.107 18.7281 15.9505C18.7641 15.7998 18.7469 15.6412 18.6795 15.5017C18.6121 15.3621 18.4986 15.2501 18.3581 15.1845C17.8588 14.7842 17.473 14.2602 17.2391 13.6645C16.3846 11.4501 15.988 9.08551 16.0731 6.71351V6.68654C16.0713 5.80668 15.8963 4.93575 15.5579 4.12355C15.2196 3.31135 14.7246 2.57379 14.1012 1.95289C13.4778 1.332 12.7382 0.839965 11.9246 0.504896C11.1111 0.169828 10.2395 -0.00175925 9.3596 1.35987e-05C8.47974 0.00178644 7.60886 0.176867 6.79665 0.515211C5.98445 0.853556 5.24684 1.34853 4.62594 1.97194C4.00504 2.59534 3.51301 3.33495 3.17794 4.14851C2.84287 4.96207 2.67133 5.83366 2.6731 6.71351C2.75826 9.08551 2.3616 11.4501 1.5071 13.6645C1.27291 14.2597 0.887576 14.7837 0.389107 15.1845C0.248602 15.2501 0.134986 15.362 0.0674063 15.5015C-0.000173807 15.6411 -0.0175881 15.7996 0.0181051 15.9505C0.0556486 16.107 0.145492 16.2461 0.272774 16.3447C0.400056 16.4432 0.557151 16.4954 0.718102 16.4925H5.8301C5.83275 16.9699 5.93244 17.4418 6.1231 17.8795H6.0991Z" fill="currentColor"/>
</symbol><symbol id="chat-outline" viewBox="0 0 21 21">
<path fill-rule="evenodd" clip-rule="evenodd" d="M2.93085 2.97144C3.9261 1.96421 5.12385 1.1798 6.44495 0.67017C7.76605 0.160537 9.18033 -0.0627521 10.5942 0.015141C12.008 0.0930342 13.3892 0.470338 14.6464 1.12201C15.9035 1.77369 17.0078 2.68488 17.8864 3.79535C18.765 4.90582 19.3977 6.19022 19.7427 7.56354C20.0877 8.93686 20.1371 10.3678 19.8877 11.7617C19.6383 13.1555 19.0957 14.4805 18.2958 15.6489C17.4959 16.8174 16.457 17.8026 15.2478 18.5394C13.6638 19.5166 11.84 20.0358 9.97883 20.0394C8.52678 20.0383 7.0928 19.7174 5.77881 19.0994L1.8498 19.9924C1.60165 20.0495 1.34315 20.0427 1.09833 19.9727C0.853514 19.9028 0.630398 19.7719 0.449834 19.5924C0.269659 19.4122 0.137941 19.1893 0.06696 18.9446C-0.00402085 18.6998 -0.0119667 18.441 0.0438277 18.1924L0.93781 14.2654C0.072552 12.4065 -0.199659 10.3264 0.158147 8.3075C0.515952 6.28858 1.48644 4.42871 2.93781 2.98041L2.93085 2.97144ZM6.43085 8.82239H14.1419C14.343 8.82239 14.5359 8.74247 14.6782 8.60022C14.8204 8.45798 14.9003 8.26508 14.9003 8.06391C14.9003 7.86274 14.8204 7.66984 14.6782 7.52759C14.5359 7.38535 14.343 7.30542 14.1419 7.30542H6.43085C6.22968 7.30542 6.03672 7.38535 5.89447 7.52759C5.75223 7.66984 5.67231 7.86274 5.67231 8.06391C5.67231 8.26508 5.75223 8.45798 5.89447 8.60022C6.03672 8.74247 6.22968 8.82239 6.43085 8.82239ZM12.2868 11.5224H6.49982C6.3979 11.5187 6.29625 11.5356 6.20099 11.572C6.10574 11.6085 6.01886 11.6638 5.94544 11.7346C5.87202 11.8054 5.81357 11.8903 5.77369 11.9841C5.7338 12.078 5.71326 12.1789 5.71326 12.2809C5.71326 12.3829 5.7338 12.4838 5.77369 12.5777C5.81357 12.6716 5.87202 12.7565 5.94544 12.8273C6.01886 12.8981 6.10574 12.9534 6.20099 12.9898C6.29625 13.0263 6.3979 13.0431 6.49982 13.0394H12.2838C12.3857 13.0431 12.4874 13.0263 12.5826 12.9898C12.6779 12.9534 12.7648 12.8981 12.8383 12.8273C12.9117 12.7565 12.9701 12.6716 13.01 12.5777C13.0498 12.4838 13.0704 12.3829 13.0704 12.2809C13.0704 12.1789 13.0498 12.078 13.01 11.9841C12.9701 11.8903 12.9117 11.8054 12.8383 11.7346C12.7648 11.6638 12.6779 11.6085 12.5826 11.572C12.4874 11.5356 12.3857 11.5187 12.2838 11.5224H12.2868ZM9.99982 1.55744C8.55391 1.55577 7.13156 1.9239 5.86805 2.6269C4.60453 3.32989 3.5418 4.34435 2.78089 5.57386C2.01997 6.80336 1.58617 8.20706 1.5207 9.65149C1.45522 11.0959 1.76025 12.5331 2.4068 13.8264L2.52582 14.0654C1.20082 19.8954 0.135829 18.8354 5.97083 17.5084L6.20984 17.6274C7.37924 18.217 8.67019 18.5252 9.9798 18.5274C11.5606 18.522 13.1091 18.0803 14.4549 17.251C15.8007 16.4217 16.8914 15.237 17.6068 13.8274C18.1408 12.7387 18.438 11.5492 18.4789 10.3373C18.5197 9.12537 18.3033 7.91857 17.8438 6.79639C17.1998 5.24616 16.1112 3.92137 14.7152 2.98902C13.3193 2.05666 11.6785 1.55854 9.99982 1.55744Z" fill="currentColor"/>
</symbol><symbol id="chat" viewBox="0 0 24 24">
<path fill-rule="evenodd" clip-rule="evenodd" d="M14.4 16.8H6C5.68174 16.8 5.37653 16.6736 5.15149 16.4485C4.92645 16.2235 4.80005 15.9183 4.80005 15.6C4.80005 15.2817 4.92645 14.9765 5.15149 14.7515C5.37653 14.5264 5.68174 14.4 6 14.4H14.4C14.7183 14.4 15.0235 14.5264 15.2485 14.7515C15.4736 14.9765 15.6 15.2817 15.6 15.6C15.6 15.9183 15.4736 16.2235 15.2485 16.4485C15.0235 16.6736 14.7183 16.8 14.4 16.8ZM0 12V24H12C14.3734 24 16.6935 23.2962 18.6669 21.9776C20.6403 20.6591 22.1783 18.7849 23.0865 16.5922C23.9948 14.3995 24.2324 11.9867 23.7694 9.65892C23.3064 7.33115 22.1635 5.19295 20.4852 3.51472C18.807 1.83649 16.6688 0.693605 14.3411 0.230582C12.0133 -0.232441 9.60055 0.00519943 7.40784 0.913451C5.21512 1.8217 3.34092 3.35977 2.02234 5.33316C0.703762 7.30655 0 9.62663 0 12ZM18 10.8H6C5.68174 10.8 5.37653 10.6736 5.15149 10.4485C4.92645 10.2235 4.80005 9.91826 4.80005 9.6C4.80005 9.28174 4.92645 8.97652 5.15149 8.75148C5.37653 8.52643 5.68174 8.40001 6 8.40001H18C18.3183 8.40001 18.6235 8.52643 18.8485 8.75148C19.0736 8.97652 19.2 9.28174 19.2 9.6C19.2 9.91826 19.0736 10.2235 18.8485 10.4485C18.6235 10.6736 18.3183 10.8 18 10.8Z" fill="currentColor"/>
</symbol><symbol id="class" viewBox="0 0 20 21">
<path fill-rule="evenodd" clip-rule="evenodd" d="M0 2.16312V8.16312C0.00122764 8.6159 0.155504 9.05499 0.437805 9.409C0.720106 9.76301 1.11384 10.0112 1.55499 10.1131C2.20869 9.51194 3.03637 9.13378 3.91876 9.03314C4.80116 8.9325 5.69274 9.11458 6.46503 9.55313C6.88618 9.01867 7.42301 8.58666 8.03522 8.28964C8.64743 7.99262 9.31906 7.83832 9.99951 7.83832C10.68 7.83832 11.3515 7.99262 11.9637 8.28964C12.576 8.58666 13.1128 9.01867 13.534 9.55313C14.306 9.11399 15.1976 8.93148 16.0801 9.03195C16.9626 9.13242 17.7904 9.51068 18.444 10.1121C18.8851 10.0101 19.2789 9.762 19.5612 9.40799C19.8435 9.05398 19.9978 8.6149 19.999 8.16211V2.16211C19.9977 1.63208 19.7865 1.12415 19.4117 0.749359C19.037 0.374572 18.5291 0.163429 17.999 0.162109H2C1.46997 0.163429 0.962006 0.374572 0.587219 0.749359C0.212432 1.12415 0.00132012 1.63208 0 2.16211V2.16312ZM5.526 12.3381C5.52557 11.7411 5.64527 11.15 5.87799 10.6001C5.21826 10.2298 4.44297 10.1223 3.7074 10.2994C2.97182 10.4764 2.33026 10.9249 1.91132 11.5549C1.49237 12.1849 1.32697 12.9499 1.44818 13.6967C1.5694 14.4435 1.9683 15.117 2.565 15.5821C1.80021 15.9331 1.15207 16.4959 0.697449 17.204C0.242826 17.9121 0.000783639 18.7357 0 19.5771V20.1631H3.94598V19.6001C3.9439 18.381 4.31254 17.1899 5.00299 16.1851C5.35643 15.6684 5.78752 15.2093 6.28101 14.8241C5.78836 14.0894 5.52553 13.2247 5.526 12.3401V12.3381ZM11.841 15.0771C12.7393 15.4439 13.5081 16.0696 14.0497 16.8747C14.5912 17.6798 14.881 18.6278 14.882 19.5981V20.1631H5.117V19.6001C5.11805 18.6299 5.4078 17.6818 5.94934 16.8767C6.49088 16.0716 7.25973 15.4459 8.15802 15.0791C7.57123 14.6845 7.1267 14.1119 6.88995 13.4456C6.65321 12.7792 6.63675 12.0545 6.84302 11.3781C7.04929 10.7017 7.46736 10.1095 8.03564 9.68866C8.60393 9.26784 9.29238 9.04071 9.99951 9.04071C10.7066 9.04071 11.395 9.26784 11.9633 9.68866C12.5316 10.1095 12.9497 10.7017 13.156 11.3781C13.3623 12.0545 13.3458 12.7792 13.1091 13.4456C12.8723 14.1119 12.4278 14.6845 11.841 15.0791V15.0771ZM17.434 15.5821C18.0307 15.117 18.4296 14.4435 18.5508 13.6967C18.6721 12.9499 18.5066 12.1849 18.0876 11.5549C17.6687 10.9249 17.0272 10.4764 16.2916 10.2994C15.556 10.1223 14.7807 10.2298 14.121 10.6001C14.4093 11.2819 14.5237 12.0247 14.4539 12.7616C14.384 13.4985 14.1322 14.2066 13.721 14.8221C14.2147 15.2074 14.6461 15.6665 15 16.1831C15.6907 17.1879 16.0597 18.3788 16.058 19.5981V20.1631H20V19.5771C19.9991 18.7355 19.7569 17.9119 19.3021 17.2038C18.8473 16.4957 18.199 15.9329 17.434 15.5821ZM14.25 5.06412C14.4489 5.06412 14.6397 5.14313 14.7803 5.28378C14.921 5.42444 15 5.61521 15 5.81412C15 6.01303 14.921 6.2038 14.7803 6.34445C14.6397 6.4851 14.4489 6.56412 14.25 6.56412H5.75C5.55109 6.56412 5.36032 6.4851 5.21967 6.34445C5.07901 6.2038 5 6.01303 5 5.81412C5 5.61521 5.07901 5.42444 5.21967 5.28378C5.36032 5.14313 5.55109 5.06412 5.75 5.06412H14.25ZM15.25 3.66412H4.75C4.55109 3.66412 4.36032 3.58511 4.21967 3.44446C4.07901 3.30381 4 3.11304 4 2.91412C4 2.71521 4.07901 2.52444 4.21967 2.38379C4.36032 2.24314 4.55109 2.16412 4.75 2.16412H15.25C15.4489 2.16412 15.6397 2.24314 15.7803 2.38379C15.921 2.52444 16 2.71521 16 2.91412C16 3.11304 15.921 3.30381 15.7803 3.44446C15.6397 3.58511 15.4489 3.66412 15.25 3.66412Z" fill="currentColor"/>
</symbol><symbol id="close-thin" viewBox="0 0 16 17">
<path fill-rule="evenodd" clip-rule="evenodd" d="M14.3539 0.440386L8.00092 6.79939L1.64691 0.444386C1.46558 0.264362 1.22042 0.163336 0.964905 0.163336C0.709388 0.163336 0.464228 0.264362 0.282898 0.444386C0.102632 0.625587 0.00146484 0.87079 0.00146484 1.12639C0.00146484 1.38198 0.102632 1.62718 0.282898 1.80839L6.6369 8.16239L0.282898 14.5164C0.102632 14.6976 0.00146484 14.9428 0.00146484 15.1984C0.00146484 15.454 0.102632 15.6992 0.282898 15.8804C0.463971 16.0609 0.709227 16.1623 0.964905 16.1623C1.22058 16.1623 1.46584 16.0609 1.64691 15.8804L8.00092 9.52339L14.3539 15.8774C14.5353 16.0577 14.7807 16.1589 15.0364 16.1589C15.2922 16.1589 15.5376 16.0577 15.7189 15.8774C15.899 15.6961 15.9999 15.4509 15.9999 15.1954C15.9999 14.9399 15.899 14.6947 15.7189 14.5134L9.36493 8.15939L15.7189 1.80539C15.899 1.62406 15.9999 1.3789 15.9999 1.12339C15.9999 0.86787 15.899 0.622715 15.7189 0.441386C15.5374 0.261409 15.2922 0.160344 15.0366 0.160157C14.781 0.159969 14.5357 0.260676 14.3539 0.440386Z" fill="currentColor"/>
</symbol><symbol id="close" viewBox="0 0 18 18">
<path fill-rule="evenodd" clip-rule="evenodd" d="M3.27499 0L9 5.725L14.725 0L18 3.275L12.275 9L18 14.725L14.725 18L9 12.275L3.27499 18L0 14.725L5.72501 9L0 3.275L3.27499 0Z" fill="currentColor"/>
</symbol><symbol id="create-outline" viewBox="0 0 20 20">
<path fill-rule="evenodd" clip-rule="evenodd" d="M14.621 0H5.37903C4.67287 5.39331e-05 3.97364 0.139616 3.32153 0.410583C2.66943 0.681551 2.07723 1.07863 1.57898 1.57904C1.07825 2.07711 0.68094 2.66922 0.40979 3.32135C0.13864 3.97348 -0.000955752 4.67277 -0.000976556 5.37903V14.621C-0.00101054 15.3273 0.138515 16.0266 0.409668 16.6787C0.680821 17.3309 1.07821 17.923 1.57898 18.421C2.07705 18.9217 2.66916 19.3191 3.32129 19.5903C3.97342 19.8614 4.67277 20.001 5.37903 20.001H14.621C16.0465 19.9971 17.4126 19.429 18.4205 18.4208C19.4285 17.4127 19.9963 16.0466 20 14.621V5.37903C20 4.67277 19.8604 3.97348 19.5892 3.32135C19.3181 2.66922 18.9207 2.07711 18.42 1.57904C17.9217 1.07863 17.3296 0.681551 16.6775 0.410583C16.0254 0.139616 15.3262 5.39331e-05 14.62 0H14.621ZM8.81201 10.9901H5.44501C5.18244 10.9901 4.93059 10.8857 4.74493 10.7001C4.55927 10.5144 4.45502 10.2626 4.45502 10C4.45502 9.73744 4.55927 9.48565 4.74493 9.29999C4.93059 9.11433 5.18244 9.01001 5.44501 9.01001H8.81201C8.83828 9.01001 8.86428 9.00486 8.88855 8.99481C8.91282 8.98476 8.93486 8.97005 8.95343 8.95148C8.972 8.93291 8.98671 8.9108 8.99677 8.88654C9.00682 8.86227 9.01202 8.83626 9.01202 8.81V5.44C9.01202 5.17744 9.11628 4.92565 9.30194 4.73999C9.4876 4.55433 9.73945 4.45001 10.002 4.45001C10.2646 4.45001 10.5164 4.55433 10.702 4.73999C10.8877 4.92565 10.992 5.17744 10.992 5.44V8.80701C10.992 8.86005 11.0131 8.91092 11.0506 8.94843C11.0881 8.98593 11.139 9.00702 11.192 9.00702H14.559C14.8216 9.00702 15.0734 9.11134 15.259 9.297C15.4447 9.48266 15.549 9.73444 15.549 9.99701C15.549 10.2596 15.4447 10.5114 15.259 10.6971C15.0734 10.8827 14.8216 10.987 14.559 10.987H11.192C11.139 10.987 11.0881 11.0081 11.0506 11.0456C11.0131 11.0831 10.992 11.134 10.992 11.187V14.554C10.992 14.8166 10.8877 15.0684 10.702 15.2541C10.5164 15.4398 10.2646 15.544 10.002 15.544C9.73945 15.544 9.4876 15.4398 9.30194 15.2541C9.11628 15.0684 9.01202 14.8166 9.01202 14.554V11.187C9.01202 11.1607 9.00682 11.1347 8.99677 11.1105C8.98671 11.0862 8.972 11.0642 8.95343 11.0456C8.93486 11.027 8.91282 11.0123 8.88855 11.0023C8.86428 10.9922 8.83828 10.987 8.81201 10.987V10.9901ZM5.37903 1.51605H14.621C15.6445 1.51922 16.6253 1.92717 17.3491 2.65094C18.0728 3.37471 18.4808 4.35547 18.484 5.37903V14.621C18.4808 15.6446 18.0728 16.6253 17.3491 17.3491C16.6253 18.0728 15.6445 18.4808 14.621 18.484H5.37903C4.35523 18.4816 3.37402 18.0739 2.65009 17.35C1.92615 16.626 1.51837 15.6448 1.51599 14.621V5.37903C1.51837 4.35523 1.92615 3.37402 2.65009 2.65009C3.37402 1.92615 4.35523 1.51843 5.37903 1.51605Z" fill="currentColor"/>
</symbol><symbol id="create" viewBox="0 0 20 20">
<path fill-rule="evenodd" clip-rule="evenodd" d="M11.286 11.071H14.929C15.2075 11.0625 15.4718 10.9459 15.6658 10.7459C15.8598 10.5459 15.9683 10.2782 15.9683 9.99951C15.9683 9.72087 15.8598 9.45319 15.6658 9.25317C15.4718 9.05316 15.2075 8.93655 14.929 8.92804H11.286C11.2579 8.92804 11.2301 8.9225 11.2041 8.91174C11.1781 8.90099 11.1545 8.88523 11.1347 8.86536C11.1148 8.84548 11.099 8.82186 11.0883 8.7959C11.0775 8.76993 11.072 8.74215 11.072 8.71405V5.07104C11.0635 4.79253 10.9469 4.52823 10.7469 4.33423C10.5468 4.14023 10.2791 4.03174 10.0005 4.03174C9.72186 4.03174 9.45417 4.14023 9.25415 4.33423C9.05413 4.52823 8.93751 4.79253 8.929 5.07104V8.71405C8.929 8.74215 8.92346 8.76993 8.9127 8.7959C8.90195 8.82186 8.88619 8.84548 8.86632 8.86536C8.84645 8.88523 8.82285 8.90099 8.79689 8.91174C8.77093 8.9225 8.7431 8.92804 8.715 8.92804H5.07201C4.92854 8.92366 4.78566 8.94812 4.65182 9C4.51799 9.05188 4.39594 9.13011 4.29291 9.23004C4.18988 9.32997 4.10797 9.44954 4.05203 9.58173C3.99609 9.71391 3.96727 9.85598 3.96727 9.99951C3.96727 10.143 3.99609 10.2851 4.05203 10.4173C4.10797 10.5495 4.18988 10.6691 4.29291 10.769C4.39594 10.869 4.51799 10.9472 4.65182 10.9991C4.78566 11.051 4.92854 11.0754 5.07201 11.071H8.715C8.74318 11.071 8.77109 11.0766 8.79712 11.0874C8.82315 11.0982 8.84678 11.1141 8.86667 11.134C8.88655 11.154 8.9023 11.1777 8.91299 11.2038C8.92369 11.2299 8.92913 11.2578 8.929 11.286V14.928C8.92462 15.0715 8.94909 15.2144 9.00096 15.3482C9.05284 15.482 9.13106 15.6041 9.23099 15.7071C9.33092 15.8101 9.45053 15.8921 9.58272 15.948C9.7149 16.0039 9.85697 16.0328 10.0005 16.0328C10.144 16.0328 10.2861 16.0039 10.4183 15.948C10.5505 15.8921 10.6701 15.8101 10.77 15.7071C10.8699 15.6041 10.9482 15.482 11 15.3482C11.0519 15.2144 11.0764 15.0715 11.072 14.928V11.286C11.0719 11.2578 11.0773 11.2299 11.088 11.2038C11.0987 11.1777 11.1144 11.154 11.1343 11.134C11.1542 11.1141 11.1778 11.0982 11.2039 11.0874C11.2299 11.0766 11.2578 11.071 11.286 11.071ZM5 0H15C16.3249 0.00369436 17.5946 0.531685 18.5314 1.46857C19.4683 2.40545 19.9963 3.67505 20 5V15C19.9963 16.3249 19.4683 17.5946 18.5314 18.5315C17.5946 19.4684 16.3249 19.9963 15 20H5C3.67513 19.996 2.40567 19.468 1.46884 18.5312C0.532016 17.5944 0.00395682 16.3249 0 15V5C0.00395682 3.67513 0.532016 2.4057 1.46884 1.46887C2.40567 0.532047 3.67513 0.00395682 5 0Z" fill="currentColor"/>
</symbol><symbol id="e-wallet" viewBox="0 0 21 18">
<path fill-rule="evenodd" clip-rule="evenodd" d="M1.38501 7.88834H1.49103V6.82434C1.49233 6.23099 1.70864 5.6582 2.09992 5.21213C2.49119 4.76606 3.0309 4.47696 3.61902 4.39835V3.09833C3.6227 2.45074 3.88156 1.83072 4.33948 1.3728C4.7974 0.914883 5.41742 0.656019 6.06501 0.652344H17.406C18.0875 0.652232 18.7418 0.91968 19.2281 1.39716C19.7144 1.87463 19.9937 2.52394 20.006 3.20532V15.2263C20.002 15.874 19.7429 16.494 19.2849 16.9519C18.8268 17.4098 18.2067 17.6687 17.559 17.6723H3.93799C3.29023 17.6689 2.66999 17.4102 2.21186 16.9522C1.75372 16.4943 1.49471 15.8741 1.49103 15.2263V14.0563H1.38501C1.20328 14.057 1.02318 14.0218 0.855106 13.9526C0.687034 13.8835 0.53427 13.7819 0.405582 13.6536C0.276894 13.5252 0.174833 13.3728 0.105228 13.2049C0.0356229 13.037 -0.000129606 12.8571 3.27578e-06 12.6753V9.27533C-0.000392738 9.09365 0.0351211 8.91367 0.104495 8.74576C0.17387 8.57784 0.275724 8.4253 0.404239 8.29688C0.532755 8.16845 0.68537 8.06669 0.853336 7.99744C1.0213 7.92818 1.20132 7.89281 1.383 7.89334L1.38501 7.88834ZM3.51203 10.9723C3.51183 11.1828 3.57407 11.3886 3.69086 11.5637C3.80765 11.7388 3.97375 11.8754 4.16816 11.9561C4.36256 12.0367 4.5765 12.0579 4.78296 12.017C4.98942 11.9761 5.1791 11.8748 5.32801 11.726C5.47691 11.5773 5.57837 11.3877 5.61951 11.1813C5.66065 10.9749 5.63959 10.7609 5.55909 10.5664C5.47858 10.3719 5.34224 10.2057 5.16724 10.0887C4.99224 9.97176 4.78647 9.90933 4.57599 9.90933C4.29397 9.90933 4.02349 10.0213 3.82398 10.2206C3.62447 10.4199 3.51229 10.6903 3.51203 10.9723ZM18.512 3.24933C18.5105 2.95649 18.3934 2.6761 18.1863 2.46902C17.9793 2.26195 17.6989 2.14492 17.406 2.14334H6.08698C5.96107 2.14268 5.83632 2.16697 5.71985 2.21481C5.60339 2.26266 5.49753 2.3331 5.40845 2.42209C5.31937 2.51107 5.24884 2.61683 5.20087 2.73325C5.1529 2.84966 5.1285 2.97443 5.12903 3.10034V4.37735H17.406C17.7011 4.37083 17.982 4.24918 18.1886 4.03842C18.3952 3.82767 18.5113 3.54449 18.512 3.24933ZM1.49103 12.5683H5C5.40246 12.5381 5.77863 12.3569 6.0531 12.061C6.32758 11.7651 6.48011 11.3764 6.48011 10.9728C6.48011 10.5693 6.32758 10.1806 6.0531 9.88467C5.77863 9.58879 5.40246 9.4076 5 9.37735H1.48902L1.49103 12.5683Z" fill="currentColor"/>
</symbol><symbol id="equal-to" viewBox="0 0 30 18">
<path fill-rule="evenodd" clip-rule="evenodd" d="M30 5.5H0V0H30V5.5ZM30 18H0V12.5H30V18Z" fill="currentColor"/>
</symbol><symbol id="filter" viewBox="0 0 30 28">
<path fill-rule="evenodd" clip-rule="evenodd" d="M28.8271 2.77054H10.9541C10.7081 2.03842 10.2384 1.40204 9.61133 0.951202C8.98424 0.50036 8.23132 0.257812 7.45898 0.257812C6.68665 0.257813 5.93373 0.50036 5.30664 0.951202C4.67955 1.40204 4.20985 2.03842 3.96387 2.77054H1.17383C0.862464 2.77054 0.563918 2.89424 0.34375 3.11441C0.123582 3.33458 0 3.63319 0 3.94455C0 4.25591 0.123582 4.55452 0.34375 4.77469C0.563918 4.99486 0.862464 5.11853 1.17383 5.11853H3.96387C4.20985 5.85064 4.67955 6.48702 5.30664 6.93787C5.93373 7.38871 6.68665 7.63126 7.45898 7.63126C8.23132 7.63126 8.98424 7.38871 9.61133 6.93787C10.2384 6.48702 10.7081 5.85064 10.9541 5.11853H28.8271C29.1385 5.11853 29.4371 4.99486 29.6572 4.77469C29.8774 4.55452 30.001 4.25591 30.001 3.94455C30.001 3.63319 29.8774 3.33458 29.6572 3.11441C29.4371 2.89424 29.1385 2.77054 28.8271 2.77054ZM28.8271 22.8815H15.9814C15.7357 22.1493 15.2657 21.5127 14.6387 21.0618C14.0116 20.6108 13.2587 20.3682 12.4863 20.3682C11.714 20.3682 10.961 20.6108 10.334 21.0618C9.70696 21.5127 9.2379 22.1493 8.99219 22.8815H1.17383C0.868527 22.8904 0.579009 23.018 0.366211 23.2371C0.153413 23.4562 0.0341797 23.7496 0.0341797 24.0551C0.0341797 24.3605 0.153413 24.6539 0.366211 24.873C0.579009 25.0921 0.868527 25.2196 1.17383 25.2285H8.99219C9.2379 25.9608 9.70696 26.5973 10.334 27.0483C10.961 27.4993 11.714 27.7419 12.4863 27.7419C13.2587 27.7419 14.0116 27.4993 14.6387 27.0483C15.2657 26.5973 15.7357 25.9608 15.9814 25.2285H28.8271C29.1325 25.2196 29.422 25.0921 29.6348 24.873C29.8476 24.6539 29.9668 24.3605 29.9668 24.0551C29.9668 23.7496 29.8476 23.4562 29.6348 23.2371C29.422 23.018 29.1325 22.8904 28.8271 22.8815ZM28.8271 12.8265H26.0371C25.7911 12.0944 25.3214 11.458 24.6943 11.0072C24.0672 10.5564 23.3143 10.3138 22.542 10.3138C21.7697 10.3138 21.0167 10.5564 20.3896 11.0072C19.7626 11.458 19.2929 12.0944 19.0469 12.8265H1.17383C0.868527 12.8355 0.579009 12.963 0.366211 13.1821C0.153413 13.4012 0.0341797 13.6946 0.0341797 14C0.0341797 14.3055 0.153413 14.5989 0.366211 14.818C0.579009 15.0371 0.868527 15.1646 1.17383 15.1736H19.0469C19.2929 15.9057 19.7626 16.542 20.3896 16.9929C21.0167 17.4437 21.7697 17.6862 22.542 17.6862C23.3143 17.6862 24.0672 17.4437 24.6943 16.9929C25.3214 16.542 25.7911 15.9057 26.0371 15.1736H28.8271C29.1325 15.1646 29.422 15.0371 29.6348 14.818C29.8476 14.5989 29.9668 14.3055 29.9668 14C29.9668 13.6946 29.8476 13.4012 29.6348 13.1821C29.422 12.963 29.1325 12.8355 28.8271 12.8265Z" fill="currentColor"/>
</symbol><symbol id="hamburger" viewBox="0 0 24 20">
<path fill-rule="evenodd" clip-rule="evenodd" d="M1.91992 0.560059H22.0801C22.5889 0.561378 23.0765 0.764089 23.4363 1.12387C23.7961 1.48366 23.9987 1.97125 24 2.48006C23.9987 2.98887 23.7961 3.47646 23.4363 3.83625C23.0765 4.19603 22.5889 4.39874 22.0801 4.40006H1.91992C1.41119 4.39848 0.923692 4.19568 0.563965 3.83596C0.204237 3.47623 0.00158237 2.98879 0 2.48006C0.00158237 1.97133 0.204237 1.48389 0.563965 1.12416C0.923692 0.764435 1.41119 0.561641 1.91992 0.560059ZM1.91992 15.9201H22.0801C22.5889 15.9214 23.0765 16.1241 23.4363 16.4839C23.7961 16.8437 23.9987 17.3312 24 17.8401C23.9987 18.3489 23.7961 18.8365 23.4363 19.1962C23.0765 19.556 22.5889 19.7587 22.0801 19.7601H1.91992C1.41119 19.7585 0.923692 19.5557 0.563965 19.196C0.204237 18.8362 0.00158237 18.3488 0 17.8401C0.00158237 17.3313 0.204237 16.8439 0.563965 16.4842C0.923692 16.1244 1.41119 15.9216 1.91992 15.9201ZM1.91992 8.24006H22.0801C22.5889 8.24138 23.0765 8.44409 23.4363 8.80387C23.7961 9.16366 23.9987 9.65125 24 10.1601C23.9989 10.669 23.7964 11.1567 23.4365 11.5165C23.0767 11.8764 22.589 12.079 22.0801 12.0801H1.91992C1.41111 12.0787 0.923505 11.876 0.563721 11.5162C0.203937 11.1565 0.00131988 10.6689 0 10.1601C0.00158237 9.65133 0.204237 9.16389 0.563965 8.80416C0.923692 8.44444 1.41119 8.24164 1.91992 8.24006Z" fill="currentColor"/>
</symbol><symbol id="home-outline" viewBox="0 0 20 21">
<path fill-rule="evenodd" clip-rule="evenodd" d="M11.739 0.72101L19.2809 8.26502C19.509 8.4929 19.69 8.76352 19.8133 9.0614C19.9367 9.35929 20.0001 9.67861 19.9999 10.001C20.0009 10.3236 19.9381 10.6432 19.8152 10.9414C19.6924 11.2397 19.5118 11.5107 19.2839 11.739C19.0004 12.0342 18.6425 12.2473 18.2479 12.356C18.1719 12.377 18.0979 12.394 18.0239 12.407V17.251C18.0229 17.9798 17.7329 18.6784 17.2176 19.1937C16.7023 19.709 16.0037 19.9989 15.2749 20H12.325C11.9802 20 11.6495 19.8631 11.4057 19.6193C11.1619 19.3755 11.0249 19.0448 11.0249 18.7V14.35C11.0257 14.3107 11.011 14.2726 10.9839 14.244C10.9555 14.2166 10.9174 14.2015 10.8779 14.202H9.13794C9.09797 14.2023 9.05973 14.2183 9.03146 14.2465C9.0032 14.2748 8.9872 14.3131 8.98694 14.353V18.703C8.98694 19.0478 8.84997 19.3785 8.60617 19.6223C8.36237 19.8661 8.03173 20.0031 7.68695 20.0031H4.73795C4.0091 20.002 3.31039 19.7121 2.79492 19.1968C2.27946 18.6815 1.98927 17.9829 1.98795 17.254V12.42C1.51836 12.3294 1.08696 12.0994 0.74994 11.76C0.51647 11.5264 0.330688 11.2496 0.202943 10.945C0.0733451 10.6404 0.00535835 10.3131 0.00293087 9.98206C0.0026142 9.66341 0.0659729 9.3479 0.189271 9.05408C0.312569 8.76026 0.49334 8.49406 0.720948 8.27106L8.26495 0.724001C8.49227 0.495075 8.76254 0.31333 9.06027 0.189089C9.358 0.0648481 9.67733 0.000557453 9.99994 2.05602e-06C10.3223 -0.000415686 10.6416 0.0628285 10.9395 0.186037C11.2374 0.309246 11.508 0.490014 11.7359 0.71802L11.739 0.72101ZM18.2109 9.33203L10.6679 1.79303C10.5809 1.70444 10.4771 1.63407 10.3626 1.586C10.2481 1.53793 10.1251 1.51309 10.0009 1.513C9.877 1.51292 9.75424 1.53736 9.63977 1.5849C9.5253 1.63244 9.42138 1.70217 9.33395 1.79004L1.78894 9.33405C1.70288 9.41762 1.63441 9.51751 1.58753 9.62793C1.54064 9.73835 1.51629 9.85709 1.51593 9.97705C1.51701 10.2417 1.62227 10.4954 1.80893 10.683C1.89149 10.7659 1.98974 10.8314 2.0979 10.8759C2.20607 10.9203 2.32199 10.9428 2.43894 10.942H3.49994V17.249C3.49961 17.4107 3.53114 17.5708 3.59274 17.7203C3.65434 17.8697 3.74481 18.0056 3.85895 18.1201C3.97319 18.235 4.10906 18.3261 4.25873 18.3882C4.4084 18.4504 4.56888 18.4823 4.73093 18.4821H7.46393V14.35C7.46446 13.9081 7.64028 13.4844 7.95279 13.1719C8.2653 12.8594 8.689 12.6836 9.13095 12.683H10.8709C11.3116 12.6842 11.7338 12.86 12.045 13.172C12.1997 13.3261 12.3225 13.5093 12.4064 13.7109C12.4903 13.9125 12.5336 14.1287 12.5339 14.347V18.481H15.2679C15.5949 18.4808 15.9083 18.3507 16.1395 18.1196C16.3707 17.8884 16.5007 17.575 16.5009 17.248V10.94H17.2589C17.4531 10.9487 17.6475 10.9336 17.838 10.895C17.9791 10.8523 18.1061 10.7725 18.2059 10.664C18.3832 10.4872 18.4832 10.2474 18.4839 9.99701C18.4842 9.74802 18.3861 9.50902 18.2109 9.33203Z" fill="currentColor"/>
</symbol><symbol id="home" viewBox="0 0 20 20">
<path fill-rule="evenodd" clip-rule="evenodd" d="M19.461 8.69647L11.299 0.537476C10.9539 0.193311 10.4864 0 9.99902 0C9.51163 0 9.04413 0.193311 8.69902 0.537476L0.545023 8.69147L0.537024 8.70044C0.193103 9.04568 0 9.51318 0 10.0005C0 10.4878 0.193103 10.9552 0.537024 11.3005C0.861515 11.6274 1.29778 11.8192 1.75802 11.8375C1.77701 11.8385 1.79604 11.8385 1.81502 11.8375H2.14002V17.8375C2.13976 18.1211 2.19542 18.402 2.30381 18.6641C2.41221 18.9262 2.57121 19.1644 2.77173 19.3651C2.97225 19.5657 3.21036 19.7248 3.47242 19.8333C3.73449 19.9418 4.01538 19.9976 4.29902 19.9974H7.48902C7.64444 19.9974 7.79349 19.9357 7.90339 19.8258C8.01328 19.7159 8.07502 19.5669 8.07502 19.4114V14.7045C8.07529 14.4438 8.17894 14.1939 8.36323 14.0096C8.54752 13.8254 8.7974 13.7217 9.05802 13.7214H10.941C11.2016 13.7217 11.4515 13.8254 11.6358 14.0096C11.8201 14.1939 11.9238 14.4438 11.924 14.7045V19.4114C11.924 19.5669 11.9858 19.7159 12.0957 19.8258C12.2056 19.9357 12.3546 19.9974 12.51 19.9974H15.699C16.2703 19.9966 16.818 19.7694 17.222 19.3654C17.6259 18.9614 17.8532 18.4138 17.854 17.8425V11.8425H18.154C18.5178 11.842 18.8733 11.7337 19.1756 11.5313C19.4779 11.3289 19.7135 11.0415 19.8526 10.7053C19.9917 10.3692 20.0281 9.99934 19.9571 9.64252C19.8862 9.2857 19.7111 8.95784 19.454 8.70044L19.461 8.69647Z" fill="currentColor"/>
</symbol><symbol id="logo" viewBox="0 0 168 34">
<path fill-rule="evenodd" clip-rule="evenodd" d="M6.25488 23.434C6.93087 23.4751 7.60846 23.3817 8.24805 23.159C8.44278 23.0623 8.60318 22.9084 8.70776 22.7178C8.81235 22.5272 8.85608 22.3092 8.83301 22.093C8.81507 21.8616 8.73548 21.6392 8.60254 21.4489C8.4696 21.2586 8.28804 21.1074 8.0769 21.011C7.34251 20.5945 6.57307 20.2435 5.7771 19.962C5.03431 19.6895 4.30562 19.3798 3.59399 19.034C2.98118 18.7405 2.41859 18.3521 1.927 17.883C1.46477 17.4294 1.10213 16.8845 0.862061 16.283C0.593361 15.57 0.464833 14.8117 0.483887 14.05C0.4541 13.2773 0.61033 12.5087 0.939209 11.8088C1.26809 11.109 1.76015 10.4982 2.37402 10.028C3.88854 8.9656 5.71697 8.44489 7.56396 8.54999C8.62485 8.54667 9.68374 8.64444 10.7261 8.84199C11.5445 8.98588 12.3494 9.19864 13.1321 9.47799L12.238 13.465C11.6009 13.2473 10.9525 13.0637 10.2959 12.915C9.52269 12.7471 8.73307 12.6666 7.94189 12.675C6.33789 12.675 5.53589 13.1217 5.53589 14.015C5.53129 14.2032 5.56543 14.3904 5.63599 14.565C5.72954 14.7539 5.87227 14.9142 6.04907 15.029C6.31541 15.2132 6.59716 15.3741 6.89111 15.51C7.33339 15.724 7.78625 15.9152 8.24805 16.083C9.20473 16.4251 10.1351 16.8365 11.032 17.314C11.6781 17.652 12.2646 18.0935 12.7681 18.621C13.1796 19.0687 13.4852 19.6032 13.6621 20.185C13.8439 20.8313 13.9303 21.5007 13.9189 22.172C13.9618 22.9631 13.7992 23.7518 13.447 24.4615C13.0948 25.1712 12.5649 25.7777 11.9089 26.222C10.1902 27.232 8.21007 27.7085 6.21997 27.591C4.87477 27.6187 3.53128 27.4803 2.21997 27.179C1.46572 27.0033 0.725064 26.7733 0.00390625 26.491L0.863037 22.333C1.73268 22.6762 2.62937 22.9461 3.54395 23.14C4.43616 23.3326 5.34626 23.4308 6.25903 23.433L6.25488 23.434ZM118.806 9.44999C120.055 22.82 116.575 33.881 102.173 33.881C100.002 33.8815 97.8427 33.5473 95.7729 32.89C90.6129 31.239 88.584 27.742 88.584 24.99V12.31C88.584 7.60199 92.0839 4.38999 98.4919 3.02499C100.607 2.58015 102.758 2.32812 104.918 2.27199C106.966 2.20387 109.016 2.35709 111.032 2.72899C115.539 3.60999 118.809 5.77799 118.809 9.44999H118.806ZM116.606 9.44999C116.606 7.14999 114.095 5.70299 110.634 5.02599C108.766 4.68296 106.866 4.54215 104.967 4.60599C102.933 4.66095 100.909 4.90094 98.9189 5.32299C93.4689 6.48299 90.781 8.94099 90.781 12.31V24.988C90.781 26.788 92.128 29.281 96.397 30.648C98.2532 31.2534 100.195 31.5572 102.147 31.548C114.474 31.387 117.762 21.28 116.606 9.44799V9.44999ZM137.775 9.44999C136.526 22.82 140.006 33.881 154.408 33.881C156.58 33.8815 158.738 33.5473 160.808 32.89C165.968 31.239 167.997 27.742 167.997 24.99V12.31C167.997 8.36899 165.544 5.47599 160.986 3.83799V0.437988L155.865 1.26299V2.62999C154.473 2.42858 153.071 2.30904 151.665 2.27199C149.617 2.20389 147.567 2.35711 145.552 2.72899C141.045 3.60999 137.775 5.77799 137.775 9.44999ZM139.975 9.44999C139.975 7.14999 142.486 5.70299 145.947 5.02599C147.815 4.68295 149.715 4.54214 151.614 4.60599C153.039 4.64423 154.46 4.7735 155.868 4.99299V9.44499C155.319 9.20112 154.751 9.00571 154.168 8.86099C153.543 8.7159 152.902 8.64641 152.26 8.65399C151.087 8.63267 149.923 8.85503 148.84 9.30699C147.861 9.7295 146.995 10.3774 146.314 11.198C145.593 12.0855 145.055 13.1077 144.733 14.205C144.351 15.4931 144.165 16.8315 144.183 18.175C144.164 19.5022 144.379 20.8223 144.818 22.075C145.211 23.1813 145.838 24.1896 146.657 25.031C147.493 25.8652 148.502 26.5047 149.613 26.904C150.892 27.3577 152.243 27.5789 153.6 27.557C154.219 27.557 154.866 27.5283 155.542 27.471C156.218 27.4137 156.883 27.3393 157.536 27.248C158.189 27.156 158.814 27.047 159.409 26.921C160.004 26.795 160.531 26.6617 160.99 26.521V6.32099C164.208 7.65799 165.801 9.71199 165.801 12.305V24.988C165.801 26.788 164.454 29.281 160.184 30.648C158.328 31.2535 156.387 31.5573 154.435 31.548C142.108 31.387 138.82 21.28 139.976 9.44799L139.975 9.44999ZM139.436 5.52199C136.209 4.07 132.698 3.35894 129.161 3.44099C124.436 3.44099 120.261 4.52499 117.727 6.18499C118.244 6.86294 118.587 7.657 118.727 8.49799C121.853 6.58516 125.464 5.61533 129.127 5.70499C132.215 5.66174 135.272 6.32604 138.064 7.64699C138.349 6.84217 138.817 6.11464 139.431 5.52199H139.436ZM149.406 17.934C149.406 14.6353 150.621 12.9857 153.05 12.985C153.578 12.9853 154.103 13.0546 154.613 13.191C155.055 13.2981 155.478 13.4721 155.868 13.707V23.021C155.616 23.067 155.295 23.107 154.906 23.141C154.517 23.175 154.093 23.1923 153.634 23.193C153.029 23.2316 152.423 23.1199 151.871 22.868C151.32 22.6161 150.838 22.2317 150.471 21.749C149.713 20.6257 149.34 19.2873 149.406 17.934ZM133.527 13.569C133.068 13.455 132.53 13.3347 131.911 13.208C131.254 13.0783 130.586 13.015 129.917 13.019C129.532 13.0238 129.148 13.0525 128.766 13.105C128.424 13.1428 128.085 13.206 127.752 13.294V27.111H122.631V9.99999C123.696 9.63674 124.78 9.33261 125.879 9.08899C127.25 8.78923 128.651 8.64499 130.055 8.65899C130.33 8.65899 130.662 8.67699 131.055 8.71099C131.448 8.74499 131.835 8.79099 132.224 8.84799C132.613 8.90499 133.004 8.97399 133.393 9.05499C133.735 9.12009 134.07 9.21787 134.393 9.34699L133.534 13.574L133.527 13.569ZM94 18.209C93.9892 19.4688 94.1811 20.7221 94.5681 21.921C94.9242 23.0297 95.5226 24.0453 96.3201 24.894C97.1602 25.7639 98.1812 26.4385 99.311 26.87C100.667 27.3786 102.107 27.6237 103.555 27.592C104.198 27.5931 104.841 27.5597 105.48 27.492C106.122 27.4253 106.722 27.3393 107.28 27.234C107.796 27.1419 108.306 27.0214 108.809 26.873C109.187 26.7667 109.554 26.6289 109.909 26.461L109.221 22.302C108.508 22.5952 107.765 22.8085 107.005 22.938C106.093 23.1106 105.166 23.197 104.238 23.196C103.001 23.2599 101.775 22.9354 100.732 22.268C100.315 21.9853 99.9663 21.6136 99.7107 21.1797C99.4551 20.7458 99.2991 20.2606 99.2539 19.759H110.872C110.894 19.4837 110.917 19.1687 110.94 18.814C110.963 18.4593 110.975 18.1327 110.975 17.834C110.975 14.7867 110.23 12.478 108.74 10.908C107.949 10.1097 106.998 9.48737 105.95 9.08173C104.901 8.67609 103.779 8.49626 102.657 8.55399C101.556 8.55403 100.465 8.76412 99.4431 9.17299C98.4051 9.58267 97.4629 10.2027 96.676 10.994C95.8361 11.8568 95.1772 12.8788 94.738 14C94.2205 15.342 93.9695 16.772 93.999 18.21L94 18.209ZM106.03 16.25C106.008 15.8185 105.933 15.3913 105.807 14.978C105.687 14.5762 105.488 14.2024 105.222 13.878C104.947 13.5482 104.606 13.2792 104.222 13.088C103.754 12.8669 103.239 12.7609 102.722 12.779C102.214 12.7657 101.71 12.8654 101.245 13.071C100.85 13.2525 100.498 13.516 100.213 13.844C99.9337 14.1737 99.7183 14.5524 99.5779 14.961C99.4302 15.3799 99.3208 15.8113 99.251 16.25H106.03ZM69.3911 9.64999C70.4986 9.34881 71.6233 9.11505 72.759 8.94999C74.1916 8.72754 75.6394 8.6182 77.0891 8.62299C78.3929 8.58435 79.6925 8.78778 80.9221 9.22299C81.864 9.56913 82.699 10.1551 83.345 10.923C83.9563 11.6893 84.3906 12.5812 84.6169 13.535C84.8799 14.638 85.007 15.7691 84.9951 16.903V27.111H79.873V17.522C79.9664 16.3163 79.7411 15.1072 79.22 14.016C78.9385 13.6463 78.5652 13.3566 78.1372 13.1757C77.7092 12.9949 77.2413 12.9291 76.78 12.985C76.4134 12.985 76.0238 13.0023 75.6111 13.037C75.1984 13.0717 74.8316 13.1117 74.511 13.157V27.111H69.3899V9.65099L69.3911 9.64999ZM57.1589 23.536C57.6629 23.536 58.1444 23.5243 58.603 23.501C58.9713 23.488 59.3383 23.4546 59.7029 23.401V19.516C59.396 19.4545 59.0863 19.4085 58.7749 19.378C57.9471 19.2805 57.1104 19.2862 56.2839 19.395C55.8959 19.4415 55.5182 19.5516 55.166 19.721C54.8611 19.869 54.6002 20.0945 54.4099 20.375C54.2174 20.6835 54.1217 21.0426 54.135 21.406C54.1013 21.7315 54.159 22.06 54.3018 22.3545C54.4445 22.649 54.6667 22.8978 54.9431 23.073C55.63 23.4154 56.3933 23.5752 57.1599 23.537L57.1589 23.536ZM56.7471 8.54999C58.0267 8.5166 59.3033 8.69086 60.5271 9.06599C61.4437 9.35263 62.2756 9.86019 62.95 10.544C63.5678 11.2033 64.011 12.0067 64.239 12.881C64.5014 13.8791 64.6284 14.908 64.6169 15.94V26.6C63.8836 26.76 62.8641 26.949 61.5581 27.167C59.9885 27.4037 58.4022 27.5127 56.8149 27.493C55.7473 27.503 54.6817 27.3994 53.636 27.184C52.7587 27.0085 51.9238 26.6642 51.178 26.17C50.4976 25.7079 49.9522 25.0732 49.5979 24.331C49.2066 23.4565 49.0188 22.5046 49.0481 21.547C49.0183 20.6127 49.2378 19.6873 49.6841 18.866C50.0932 18.1472 50.6781 17.544 51.384 17.113C52.1374 16.6609 52.9626 16.3413 53.824 16.168C54.7621 15.971 55.7184 15.8731 56.677 15.876C57.2681 15.8725 57.859 15.9012 58.447 15.962C58.8703 16.0025 59.2896 16.0771 59.7009 16.185V15.7C59.7193 15.3146 59.6588 14.9295 59.5229 14.5684C59.3871 14.2073 59.1787 13.8777 58.9109 13.6C58.1309 12.9907 57.1453 12.7072 56.1609 12.809C55.2984 12.8084 54.4371 12.8715 53.584 12.998C52.8343 13.0999 52.0972 13.2785 51.384 13.531L50.731 9.40599C51.029 9.31532 51.4012 9.21799 51.8479 9.11399C52.2946 9.00999 52.7814 8.91832 53.3081 8.83899C53.8361 8.75899 54.3921 8.69032 54.9761 8.63299C55.5601 8.57565 56.1501 8.54699 56.7461 8.54699L56.7471 8.54999ZM45.9541 13.568C45.4961 13.454 44.9578 13.3337 44.3391 13.207C43.6825 13.0773 43.0143 13.014 42.345 13.018C41.9599 13.0228 41.5756 13.0515 41.1941 13.104C40.8519 13.1418 40.5128 13.205 40.1799 13.293V27.111H35.0591V9.99999C36.1241 9.63674 37.2083 9.33261 38.3069 9.08899C39.6783 8.78923 41.0792 8.64499 42.4829 8.65899C42.7579 8.65899 43.0899 8.67699 43.4829 8.71099C43.8759 8.74499 44.2609 8.79099 44.6509 8.84799C45.0409 8.90499 45.4301 8.97399 45.8201 9.05499C46.162 9.12016 46.4968 9.21794 46.8201 9.34699L45.9609 13.574L45.9541 13.568ZM18.595 4.52899L23.7161 3.70399V9.03099H29.8689V13.293H23.7161V19.652C23.6741 20.546 23.8696 21.4352 24.283 22.229C24.5427 22.5796 24.892 22.854 25.2942 23.0234C25.6963 23.1928 26.1367 23.251 26.5691 23.192C27.1392 23.1899 27.708 23.1381 28.269 23.037C28.8147 22.9446 29.3502 22.801 29.8689 22.608L30.5901 26.595C29.9198 26.8631 29.2306 27.0814 28.5281 27.248C27.6139 27.4476 26.6794 27.5399 25.7439 27.523C24.561 27.5602 23.3823 27.3673 22.2729 26.955C21.4182 26.6222 20.6614 26.0787 20.073 25.375C19.5031 24.6565 19.1091 23.8148 18.9221 22.917C18.6947 21.8658 18.5848 20.7925 18.595 19.717V4.52899Z" fill="currentColor"/>
</symbol><symbol id="logout" viewBox="0 0 30 25">
<path fill-rule="evenodd" clip-rule="evenodd" d="M12.6006 22.3592C12.5651 22.2795 12.5519 22.1917 12.5625 22.1052C12.5755 22.0382 12.5314 21.9812 12.4314 21.9372C12.3314 21.8932 12.2815 21.8592 12.2815 21.8372C12.2815 21.8152 12.2094 21.7942 12.0654 21.7812L11.8496 21.7622H6.00049C5.20549 21.7601 4.44374 21.4433 3.88159 20.8812C3.31944 20.319 3.0026 19.5572 3.00049 18.7622V5.56218C3.00312 4.76734 3.32004 4.00581 3.88208 3.44377C4.44412 2.88173 5.20565 2.56482 6.00049 2.56218H12.0005C12.139 2.57009 12.2756 2.52705 12.3845 2.44118C12.4861 2.34361 12.552 2.2147 12.5715 2.07518C12.6011 1.92978 12.6198 1.78237 12.6274 1.63418C12.6342 1.46748 12.6312 1.30053 12.6184 1.13418C12.6064 0.93418 12.5996 0.80818 12.5996 0.75918C12.5978 0.600615 12.5338 0.449056 12.4216 0.336926C12.3095 0.224795 12.1581 0.160998 11.9995 0.15918H5.99951C4.56799 0.161296 3.19559 0.730901 2.18335 1.74314C1.17111 2.75538 0.601725 4.12766 0.599609 5.55918V18.7592C0.602253 20.1905 1.17196 21.5625 2.18408 22.5746C3.19621 23.5868 4.56815 24.1565 5.99951 24.1592H11.9995C12.1381 24.1667 12.2747 24.1233 12.3835 24.0372C12.4859 23.9401 12.5519 23.811 12.5706 23.6712C12.6004 23.5258 12.6194 23.3784 12.6274 23.2302C12.6333 23.0635 12.63 22.8965 12.6174 22.7302C12.6054 22.5302 12.5996 22.4052 12.5996 22.3542L12.6006 22.3592ZM29.6436 11.3162C29.7563 11.4259 29.8458 11.557 29.907 11.7019C29.9681 11.8468 29.9995 12.0024 29.9995 12.1597C29.9995 12.3169 29.9681 12.4726 29.907 12.6175C29.8458 12.7624 29.7563 12.8935 29.6436 13.0032L19.4436 23.2032C19.2759 23.3691 19.0628 23.482 18.8313 23.5276C18.5998 23.5732 18.36 23.5495 18.1418 23.4595C17.9237 23.3696 17.737 23.2173 17.605 23.0218C17.4729 22.8262 17.4014 22.5961 17.3994 22.3602V16.9602H9.00049C8.68352 16.956 8.38065 16.8283 8.15649 16.6041C7.93234 16.38 7.80468 16.0771 7.80054 15.7602V8.56018C7.80468 8.24321 7.93234 7.94039 8.15649 7.71623C8.38065 7.49208 8.68352 7.36432 9.00049 7.36018H17.4004V1.96018C17.3993 1.72287 17.4691 1.49062 17.6006 1.29308C17.7321 1.09553 17.9193 0.941652 18.1387 0.85108C18.358 0.760508 18.5995 0.737355 18.832 0.784573C19.0646 0.83179 19.2779 0.947237 19.4446 1.11618L29.6436 11.3162Z" fill="currentColor"/>
</symbol><symbol id="questions" viewBox="0 0 20 21">
<path fill-rule="evenodd" clip-rule="evenodd" d="M10 0.162111C8.6866 0.161453 7.38592 0.419654 6.17236 0.921968C4.95881 1.42428 3.85621 2.16085 2.92749 3.08957C1.99877 4.01829 1.2622 5.12094 0.759889 6.33449C0.257575 7.54804 -0.000655944 8.84871 1.25126e-06 10.1621V20.1621H10C12.6522 20.1621 15.1957 19.1085 17.071 17.2332C18.9464 15.3578 20 12.8143 20 10.1621C20 7.50995 18.9464 4.9664 17.071 3.09104C15.1957 1.21567 12.6522 0.162111 10 0.162111ZM9.62097 13.0871C8.95997 13.0871 8.73401 12.8441 8.73401 12.0051C8.70816 11.54 8.79261 11.0753 8.98047 10.649C9.16833 10.2227 9.45427 9.84688 9.815 9.55211C10.348 9.10111 11.251 8.60011 11.251 7.72911C11.251 6.98711 10.606 6.62911 9.79901 6.62911C8.15301 6.62911 8.50799 7.8721 7.63599 7.8721C7.51137 7.8779 7.38686 7.85843 7.26996 7.81487C7.15306 7.7713 7.04618 7.70454 6.95575 7.61859C6.86532 7.53265 6.79323 7.4293 6.74378 7.31476C6.69432 7.20022 6.66857 7.07686 6.66803 6.9521C6.66803 6.0811 7.66799 4.7901 9.84699 4.7901C11.913 4.7901 13.285 5.93611 13.285 7.45311C13.2152 8.04681 13.0174 8.6183 12.7053 9.12813C12.3931 9.63796 11.974 10.074 11.477 10.4061C11.1481 10.6194 10.8881 10.9234 10.7283 11.2813C10.5686 11.6393 10.5161 12.0359 10.577 12.4231C10.577 12.7301 10.416 13.0851 9.625 13.0851L9.62097 13.0871ZM8.41101 15.4431C8.4102 15.1161 8.53858 14.8021 8.76819 14.5693C8.9978 14.3365 9.31007 14.2038 9.63702 14.2001C9.80316 14.1954 9.96855 14.224 10.1234 14.2844C10.2783 14.3447 10.4195 14.4355 10.5386 14.5513C10.6578 14.6671 10.7526 14.8057 10.8173 14.9588C10.882 15.1119 10.9152 15.2764 10.9152 15.4426C10.9152 15.6088 10.882 15.7733 10.8173 15.9264C10.7526 16.0795 10.6578 16.2181 10.5386 16.3339C10.4195 16.4498 10.2783 16.5405 10.1234 16.6008C9.96855 16.6612 9.80316 16.6898 9.63702 16.6851C9.31042 16.6812 8.99853 16.5485 8.76917 16.316C8.5398 16.0834 8.41144 15.7697 8.41199 15.4431H8.41101Z" fill="currentColor"/>
</symbol><symbol id="right-nav" viewBox="0 0 24 25">
<path fill-rule="evenodd" clip-rule="evenodd" d="M15.2668 15.9601C15.5086 16.2018 15.6443 16.5297 15.6443 16.8716C15.6443 17.2135 15.5086 17.5413 15.2668 17.7831C15.0251 18.0248 14.6971 18.1606 14.3552 18.1606C14.0133 18.1606 13.6856 18.0248 13.4438 17.7831L8.73267 13.0721C8.49109 12.83 8.35547 12.502 8.35547 12.1601C8.35547 11.8181 8.49109 11.4901 8.73267 11.2481L13.4438 6.53708C13.6857 6.29533 14.0137 6.15957 14.3557 6.15967C14.6977 6.15976 15.0256 6.2957 15.2673 6.53758C15.5091 6.77945 15.6449 7.10746 15.6448 7.44943C15.6447 7.7914 15.5087 8.11933 15.2668 8.36108L11.4668 12.1611L15.2668 15.9601Z" fill="currentColor"/>
<path fill-rule="evenodd" clip-rule="evenodd" d="M6.44409 0.159784H17.5549C19.2619 0.164528 20.8977 0.84439 22.1052 2.05095C23.3127 3.25752 23.9939 4.89279 24 6.59978V17.7158C23.9995 18.5612 23.8319 19.3981 23.5071 20.1786C23.1822 20.9591 22.7064 21.6677 22.1069 22.2638C21.5101 22.8632 20.8007 23.339 20.0195 23.6636C19.2384 23.9883 18.4009 24.1556 17.5549 24.1558H6.44409C5.59866 24.1552 4.76157 23.9878 3.98096 23.6631C3.20035 23.3385 2.4915 22.8629 1.89502 22.2638C1.29514 21.6679 0.818858 20.9594 0.493652 20.1789C0.168447 19.3984 0.000708001 18.5613 0 17.7158V6.59978C6.94528e-06 5.75382 0.167255 4.91619 0.491943 4.13502C0.816632 3.35384 1.29245 2.64452 1.89209 2.04778C2.48835 1.44828 3.19714 0.972442 3.97778 0.647589C4.75843 0.322735 5.59538 0.155264 6.44092 0.154785L6.44409 0.159784ZM17.5549 1.93778H6.44409C5.20723 1.94043 4.02172 2.43301 3.14722 3.3077C2.27272 4.18239 1.78045 5.36792 1.77808 6.60478V17.7158C1.78072 18.9525 2.27299 20.1378 3.14746 21.0122C4.02193 21.8867 5.2074 22.3791 6.44409 22.3818H17.5549C18.7914 22.3781 19.9762 21.8853 20.8506 21.0111C21.725 20.1369 22.218 18.9522 22.2219 17.7158V6.59978C22.2182 5.36316 21.7255 4.17823 20.8511 3.3038C19.9766 2.42936 18.7916 1.93648 17.5549 1.93279V1.93778Z" fill="CurrentColor"/>
</symbol><symbol id="schedule" viewBox="0 0 20 21">
<path fill-rule="evenodd" clip-rule="evenodd" d="M2 2.16309H3V1.16309C3 0.897869 3.10537 0.64353 3.2929 0.455994C3.48044 0.268457 3.73478 0.163086 4 0.163086C4.26521 0.163086 4.51955 0.268457 4.70709 0.455994C4.89463 0.64353 5 0.897869 5 1.16309V2.16309H15V1.16309C15 0.897869 15.1054 0.64353 15.2929 0.455994C15.4804 0.268457 15.7348 0.163086 16 0.163086C16.2652 0.163086 16.5196 0.268457 16.7071 0.455994C16.8946 0.64353 17 0.897869 17 1.16309V2.16309H19C19.2652 2.16309 19.5196 2.26846 19.7071 2.45599C19.8946 2.64353 20 2.89787 20 3.16309V17.1631C20 17.4283 19.8946 17.6827 19.7071 17.8702C19.5196 18.0577 19.2652 18.1631 19 18.1631H12.9C13.8501 16.5527 14.2029 14.6593 13.8966 12.8148C13.5903 10.9704 12.6444 9.29264 11.2248 8.07584C9.80518 6.85903 8.00249 6.18086 6.13287 6.16025C4.26325 6.13963 2.44609 6.7779 0.999997 7.9631V3.16309C1.01775 2.90372 1.12879 2.65957 1.31262 2.47574C1.49645 2.29191 1.74063 2.18084 2 2.16309ZM6 8.16309C4.81331 8.16309 3.65326 8.515 2.66656 9.17429C1.67987 9.83357 0.910848 10.7706 0.456723 11.867C0.00259688 12.9634 -0.116219 14.1698 0.115292 15.3336C0.346803 16.4975 0.918267 17.5666 1.75738 18.4057C2.5965 19.2448 3.66558 19.8163 4.82946 20.0478C5.99335 20.2793 7.19972 20.1605 8.29608 19.7064C9.39243 19.2522 10.3295 18.4832 10.9888 17.4965C11.6481 16.5098 12 15.3498 12 14.1631C11.9952 12.5732 11.3616 11.0499 10.2374 9.92569C9.11317 8.8015 7.58984 8.16783 6 8.16309ZM4 15.1631H6C6.13341 15.1711 6.267 15.1508 6.39196 15.1033C6.51692 15.0559 6.6304 14.9825 6.72491 14.888C6.81942 14.7935 6.89283 14.68 6.94024 14.5551C6.98766 14.4301 7.00802 14.2965 7 14.1631V11.1631C7 10.8979 6.89463 10.6435 6.70709 10.456C6.51955 10.2685 6.26521 10.1631 6 10.1631C5.73478 10.1631 5.48044 10.2685 5.2929 10.456C5.10537 10.6435 5 10.8979 5 11.1631V13.1631H4C3.73478 13.1631 3.48044 13.2685 3.2929 13.456C3.10537 13.6435 3 13.8979 3 14.1631C3 14.4283 3.10537 14.6827 3.2929 14.8702C3.48044 15.0577 3.73478 15.1631 4 15.1631Z" fill="currentColor"/>
</symbol><symbol id="search" viewBox="0 0 25 25">
<path fill-rule="evenodd" clip-rule="evenodd" d="M19.595 16.7389L24.5869 21.7309C24.7841 21.9301 24.9182 22.183 24.9724 22.4579C25.0267 22.7329 24.9988 23.0177 24.8921 23.2768C24.7854 23.536 24.6047 23.7579 24.3726 23.915C24.1405 24.0721 23.8672 24.1572 23.5869 24.1599C23.2127 24.1542 22.8548 24.0053 22.5869 23.7439L17.5869 18.7489C15.4904 20.3362 12.8696 21.0687 10.2539 20.7982C7.63823 20.5278 5.22259 19.2747 3.49514 17.292C1.76769 15.3094 0.85725 12.745 0.947532 10.1169C1.03781 7.48881 2.12228 4.99294 3.98171 3.1335C5.84115 1.27406 8.33702 0.189669 10.9651 0.0993867C13.5932 0.00910469 16.1575 0.919664 18.1402 2.64711C20.1228 4.37456 21.3758 6.79014 21.6463 9.40583C21.9167 12.0215 21.1843 14.6424 19.5969 16.7389H19.595ZM6.04299 5.2059C4.81855 6.43283 4.05745 8.04632 3.88918 9.77151C3.72091 11.4967 4.15586 13.2269 5.12014 14.6673C6.08442 16.1077 7.51836 17.1692 9.17751 17.671C10.8367 18.1729 12.6183 18.0839 14.2193 17.4194C15.8202 16.7548 17.1412 15.5558 17.9573 14.0265C18.7734 12.4973 19.0341 10.7324 18.6948 9.03252C18.3556 7.33265 17.4375 5.80298 16.0969 4.70408C14.7564 3.60519 13.0764 3.00505 11.343 3.00591C10.3583 3.00552 9.38319 3.19967 8.47366 3.57721C7.56412 3.95475 6.73801 4.50824 6.04299 5.2059Z" fill="currentColor"/>
</symbol><symbol id="study" viewBox="0 0 20 18">
<path fill-rule="evenodd" clip-rule="evenodd" d="M0 15.4532C0.00052915 16.0565 0.240368 16.6349 0.66687 17.0616C1.09337 17.4883 1.67173 17.7284 2.27502 17.7292H18.735V16.7182H17.681V14.1892H18.735V13.7462H20V12.7352H19.241V10.2062H20V9.1942H19.178V8.3302L17.929 5.9912H19.241V4.6302L15.941 0.596191H4.29999L1.29999 5.3282C0.934731 5.62067 0.669017 6.01907 0.539368 6.46867C0.409718 6.91827 0.422479 7.39699 0.575928 7.83904C0.729377 8.28108 1.01602 8.66475 1.39636 8.93732C1.7767 9.20988 2.2321 9.35795 2.70001 9.36119C2.33519 9.50473 2.01398 9.74074 1.76801 10.046C1.52203 10.3513 1.35971 10.7153 1.29706 11.1024C1.23441 11.4894 1.27361 11.886 1.41071 12.2533C1.5478 12.6206 1.77807 12.9459 2.07898 13.1972C1.51321 13.2454 0.986052 13.5038 0.601257 13.9213C0.216462 14.3389 0.00194661 14.8854 0 15.4532ZM1.45398 7.0872C1.45382 6.86291 1.51368 6.64266 1.62726 6.44925C1.74084 6.25584 1.90401 6.09631 2.09998 5.9872H17.175V8.3472H2.71997C2.38482 8.34693 2.06353 8.21367 1.82654 7.97668C1.58955 7.7397 1.45626 7.41834 1.45599 7.08319L1.45398 7.0872ZM3.53998 10.2062H18.229V12.7352H3.54199C3.37294 12.74 3.20469 12.7108 3.04712 12.6494C2.88955 12.5879 2.74589 12.4956 2.62463 12.3777C2.50338 12.2598 2.407 12.1188 2.34119 11.963C2.27537 11.8072 2.24146 11.6398 2.24146 11.4707C2.24146 11.3016 2.27537 11.1342 2.34119 10.9784C2.407 10.8226 2.50338 10.6816 2.62463 10.5637C2.74589 10.4458 2.88955 10.3534 3.04712 10.292C3.20469 10.2306 3.37294 10.2014 3.54199 10.2062H3.53998ZM2.27502 14.1892H16.675V16.7182H2.27502C1.94581 16.7089 1.63315 16.5717 1.40356 16.3355C1.17398 16.0994 1.04559 15.783 1.04559 15.4537C1.04559 15.1244 1.17398 14.808 1.40356 14.5719C1.63315 14.3357 1.94581 14.1985 2.27502 14.1892Z" fill="currentColor"/>
</symbol><symbol id="tutors" viewBox="0 0 20 18">
<path fill-rule="evenodd" clip-rule="evenodd" d="M6.20002 17.3221V10.7381L8.07502 11.6761C8.27986 11.7789 8.50432 11.8367 8.73335 11.8455C8.96237 11.8543 9.19065 11.8139 9.40278 11.7271C9.61491 11.6404 9.80596 11.5091 9.96314 11.3423C10.1203 11.1755 10.24 10.977 10.314 10.7601V10.7531C10.4171 10.4525 10.4227 10.127 10.33 9.82306L11.784 6.91507C11.8494 6.7766 11.8579 6.61803 11.8079 6.47333C11.7578 6.32862 11.6531 6.20926 11.5161 6.14078C11.3792 6.0723 11.2209 6.06016 11.0751 6.10693C10.9293 6.15371 10.8076 6.25568 10.736 6.39105L9.49598 8.87106L6.72102 7.49005C5.98064 7.01134 5.12751 6.73548 4.24702 6.69006H3.72804C2.74119 6.69254 1.79522 7.08465 1.09602 7.78107C0.747746 8.12609 0.471485 8.53687 0.283335 8.98956C0.0951848 9.44226 -0.00111095 9.92783 9.66928e-06 10.4181V12.3C0.00045302 12.6857 0.121763 13.0616 0.346872 13.3748C0.571982 13.688 0.889577 13.9227 1.25501 14.0461V17.3211C1.25501 17.398 1.27017 17.4741 1.29963 17.5452C1.32909 17.6162 1.37228 17.6807 1.42671 17.7351C1.48113 17.7894 1.54574 17.8325 1.61683 17.8618C1.68792 17.8912 1.76411 17.9062 1.84101 17.9061H5.60603C5.68298 17.9062 5.75918 17.8912 5.83033 17.8618C5.90148 17.8325 5.96613 17.7895 6.02064 17.7351C6.07515 17.6808 6.11845 17.6163 6.14802 17.5452C6.17759 17.4742 6.19287 17.398 6.193 17.3211L6.20002 17.3221ZM5.71302 5.75006C5.3339 6.21747 4.80175 6.53587 4.21064 6.64899C3.61953 6.76211 3.00752 6.66267 2.48261 6.36826C1.95771 6.07384 1.55372 5.60339 1.34205 5.04001C1.13038 4.47663 1.12463 3.85655 1.32582 3.28934C1.527 2.72213 1.92218 2.24428 2.44154 1.94019C2.9609 1.6361 3.57103 1.52533 4.16413 1.62747C4.75724 1.72962 5.29515 2.03811 5.68287 2.49841C6.07059 2.95872 6.28317 3.54123 6.28303 4.14307C6.28338 4.72833 6.08208 5.29583 5.71302 5.75006ZM13.55 11.0001L11.18 17.5181C11.14 17.6281 11.068 17.7236 10.9732 17.7923C10.8783 17.8609 10.765 17.8995 10.648 17.9031H10.61C10.5174 17.9002 10.4269 17.8753 10.3458 17.8306C10.2647 17.7859 10.1954 17.7226 10.1436 17.6458C10.0917 17.5691 10.0588 17.4811 10.0476 17.3892C10.0364 17.2973 10.0471 17.204 10.079 17.1171L12.3 11.0001H11.456C11.5512 10.6728 11.5824 10.3302 11.548 9.99106L12.825 7.43506C12.9345 7.228 13.0015 7.00116 13.022 6.76785C13.0426 6.53454 13.0163 6.29947 12.9448 6.07645C12.8732 5.85343 12.7579 5.64695 12.6054 5.46915C12.453 5.29134 12.2665 5.14579 12.057 5.04105C11.8475 4.9363 11.6192 4.8745 11.3855 4.85922C11.1518 4.84394 10.9174 4.87551 10.6961 4.95209C10.4747 5.02866 10.2709 5.14868 10.0966 5.30512C9.92226 5.46156 9.78101 5.65126 9.68104 5.86307L8.964 7.29706L7.529 6.58307V2.25507C7.529 1.7668 7.72299 1.29853 8.06825 0.953279C8.4135 0.608024 8.88174 0.414064 9.37 0.414064H18.157C18.3993 0.4138 18.6392 0.461366 18.863 0.554017C19.0869 0.646668 19.2903 0.782578 19.4615 0.953981C19.6327 1.12538 19.7684 1.3289 19.8608 1.55286C19.9533 1.77681 20.0005 2.0168 20 2.25906V9.15906C20 9.64698 19.8063 10.1149 19.4615 10.4601C19.1167 10.8053 18.6489 10.9995 18.161 11.0001H15.209L17.455 17.1161C17.4871 17.2031 17.498 17.2965 17.4869 17.3885C17.4758 17.4806 17.4429 17.5687 17.3911 17.6455C17.3392 17.7224 17.2697 17.7859 17.1885 17.8306C17.1073 17.8754 17.0167 17.9002 16.924 17.9031H16.888C16.7711 17.8997 16.6579 17.8614 16.5629 17.7932C16.4679 17.7249 16.3955 17.6298 16.355 17.5201L13.961 11.0001H13.55ZM16.905 8.49005C17.0605 8.49005 17.2094 8.42832 17.3193 8.31842C17.4292 8.20853 17.491 8.05947 17.491 7.90405C17.491 7.74864 17.4292 7.59958 17.3193 7.48969C17.2094 7.37979 17.0605 7.31806 16.905 7.31806H14.277C14.1216 7.31806 13.9725 7.37979 13.8626 7.48969C13.7527 7.59958 13.691 7.74864 13.691 7.90405C13.691 8.05947 13.7527 8.20853 13.8626 8.31842C13.9725 8.42832 14.1216 8.49005 14.277 8.49005H16.905ZM16.905 6.29007C17.0605 6.29007 17.2094 6.22834 17.3193 6.11844C17.4292 6.00854 17.491 5.85949 17.491 5.70407C17.491 5.54866 17.4292 5.3996 17.3193 5.2897C17.2094 5.17981 17.0605 5.11807 16.905 5.11807H14.277C14.1216 5.11807 13.9725 5.17981 13.8626 5.2897C13.7527 5.3996 13.691 5.54866 13.691 5.70407C13.691 5.85949 13.7527 6.00854 13.8626 6.11844C13.9725 6.22834 14.1216 6.29007 14.277 6.29007H16.905ZM16.905 4.09006C17.0605 4.09006 17.2094 4.02832 17.3193 3.91843C17.4292 3.80853 17.491 3.65948 17.491 3.50406C17.491 3.34864 17.4292 3.19959 17.3193 3.08969C17.2094 2.9798 17.0605 2.91806 16.905 2.91806H10.63C10.4746 2.91806 10.3255 2.9798 10.2156 3.08969C10.1058 3.19959 10.044 3.34864 10.044 3.50406C10.044 3.65948 10.1058 3.80853 10.2156 3.91843C10.3255 4.02832 10.4746 4.09006 10.63 4.09006H16.905Z" fill="currentColor"/>
</symbol></svg>