<svg width="136" height="128" viewBox="0 0 136 128" fill="none" xmlns="http://www.w3.org/2000/svg">
<rect x="57.5" y="1.5" width="77" height="125" rx="6.5" fill="white" stroke="white" stroke-width="3"/>
<rect opacity="0.5" x="57.5" y="1.5" width="77" height="125" rx="6.5" fill="white" stroke="#FF8800" stroke-width="3"/>
<path d="M86.5228 54L88.0708 49.8H88.6048L90.1468 54H89.6128L89.2288 52.92H87.4408L87.0508 54H86.5228ZM87.5908 52.512H89.0788L88.3348 50.436L87.5908 52.512ZM90.7411 54V51.024H91.1971L91.2271 51.558C91.3231 51.37 91.4611 51.222 91.6411 51.114C91.8211 51.006 92.0251 50.952 92.2531 50.952C92.6051 50.952 92.8851 51.06 93.0931 51.276C93.3051 51.488 93.4111 51.816 93.4111 52.26V54H92.9071V52.314C92.9071 51.694 92.6511 51.384 92.1391 51.384C91.8831 51.384 91.6691 51.478 91.4971 51.666C91.3291 51.85 91.2451 52.114 91.2451 52.458V54H90.7411ZM95.3147 54.072C94.9587 54.072 94.6627 53.982 94.4267 53.802C94.1907 53.622 94.0527 53.378 94.0127 53.07H94.5287C94.5607 53.226 94.6427 53.362 94.7747 53.478C94.9107 53.59 95.0927 53.646 95.3207 53.646C95.5327 53.646 95.6887 53.602 95.7887 53.514C95.8887 53.422 95.9387 53.314 95.9387 53.19C95.9387 53.01 95.8727 52.89 95.7407 52.83C95.6127 52.77 95.4307 52.716 95.1947 52.668C95.0347 52.636 94.8747 52.59 94.7147 52.53C94.5547 52.47 94.4207 52.386 94.3127 52.278C94.2047 52.166 94.1507 52.02 94.1507 51.84C94.1507 51.58 94.2467 51.368 94.4387 51.204C94.6347 51.036 94.8987 50.952 95.2307 50.952C95.5467 50.952 95.8047 51.032 96.0047 51.192C96.2087 51.348 96.3267 51.572 96.3587 51.864H95.8607C95.8407 51.712 95.7747 51.594 95.6627 51.51C95.5547 51.422 95.4087 51.378 95.2247 51.378C95.0447 51.378 94.9047 51.416 94.8047 51.492C94.7087 51.568 94.6607 51.668 94.6607 51.792C94.6607 51.912 94.7227 52.006 94.8467 52.074C94.9747 52.142 95.1467 52.2 95.3627 52.248C95.5467 52.288 95.7207 52.338 95.8847 52.398C96.0527 52.454 96.1887 52.54 96.2927 52.656C96.4007 52.768 96.4547 52.932 96.4547 53.148C96.4587 53.416 96.3567 53.638 96.1487 53.814C95.9447 53.986 95.6667 54.072 95.3147 54.072ZM97.6634 54L96.7934 51.024H97.2974L97.9274 53.358L98.6234 51.024H99.1934L99.8954 53.358L100.519 51.024H101.029L100.159 54H99.6434L98.9114 51.546L98.1794 54H97.6634ZM102.814 54.072C102.53 54.072 102.278 54.008 102.058 53.88C101.838 53.748 101.664 53.566 101.536 53.334C101.412 53.102 101.35 52.828 101.35 52.512C101.35 52.2 101.412 51.928 101.536 51.696C101.66 51.46 101.832 51.278 102.052 51.15C102.276 51.018 102.534 50.952 102.826 50.952C103.114 50.952 103.362 51.018 103.57 51.15C103.782 51.278 103.944 51.448 104.056 51.66C104.168 51.872 104.224 52.1 104.224 52.344C104.224 52.388 104.222 52.432 104.218 52.476C104.218 52.52 104.218 52.57 104.218 52.626H101.848C101.86 52.854 101.912 53.044 102.004 53.196C102.1 53.344 102.218 53.456 102.358 53.532C102.502 53.608 102.654 53.646 102.814 53.646C103.022 53.646 103.196 53.598 103.336 53.502C103.476 53.406 103.578 53.276 103.642 53.112H104.14C104.06 53.388 103.906 53.618 103.678 53.802C103.454 53.982 103.166 54.072 102.814 54.072ZM102.814 51.378C102.574 51.378 102.36 51.452 102.172 51.6C101.988 51.744 101.882 51.956 101.854 52.236H103.726C103.714 51.968 103.622 51.758 103.45 51.606C103.278 51.454 103.066 51.378 102.814 51.378ZM104.892 54V51.024H105.348L105.39 51.594C105.482 51.398 105.622 51.242 105.81 51.126C105.998 51.01 106.23 50.952 106.506 50.952V51.48H106.368C106.192 51.48 106.03 51.512 105.882 51.576C105.734 51.636 105.616 51.74 105.528 51.888C105.44 52.036 105.396 52.24 105.396 52.5V54H104.892Z" fill="#05090D"/>
<rect x="67.2002" y="60" width="58.3784" height="4" rx="0.5" fill="#F1F3F7"/>
<rect x="64" y="68" width="64" height="4" rx="0.5" fill="#F1F3F7"/>
<rect x="75.2002" y="76" width="41.5135" height="4" rx="0.5" fill="#F1F3F7"/>
<path d="M89.7801 18V13.8H91.4661C91.9021 13.8 92.2341 13.902 92.4621 14.106C92.6941 14.306 92.8101 14.564 92.8101 14.88C92.8101 15.144 92.7381 15.356 92.5941 15.516C92.4541 15.672 92.2821 15.778 92.0781 15.834C92.3181 15.882 92.5161 16.002 92.6721 16.194C92.8281 16.382 92.9061 16.602 92.9061 16.854C92.9061 17.186 92.7861 17.46 92.5461 17.676C92.3061 17.892 91.9661 18 91.5261 18H89.7801ZM90.5481 15.564H91.3521C91.5681 15.564 91.7341 15.514 91.8501 15.414C91.9661 15.314 92.0241 15.172 92.0241 14.988C92.0241 14.812 91.9661 14.674 91.8501 14.574C91.7381 14.47 91.5681 14.418 91.3401 14.418H90.5481V15.564ZM90.5481 17.376H91.4061C91.6341 17.376 91.8101 17.324 91.9341 17.22C92.0621 17.112 92.1261 16.962 92.1261 16.77C92.1261 16.574 92.0601 16.42 91.9281 16.308C91.7961 16.196 91.6181 16.14 91.3941 16.14H90.5481V17.376ZM94.5732 18.072C94.3172 18.072 94.1072 18.032 93.9432 17.952C93.7792 17.868 93.6572 17.758 93.5772 17.622C93.4972 17.486 93.4572 17.336 93.4572 17.172C93.4572 16.896 93.5652 16.672 93.7812 16.5C93.9972 16.328 94.3212 16.242 94.7532 16.242H95.5092V16.17C95.5092 15.966 95.4512 15.816 95.3352 15.72C95.2192 15.624 95.0752 15.576 94.9032 15.576C94.7472 15.576 94.6112 15.614 94.4952 15.69C94.3792 15.762 94.3072 15.87 94.2792 16.014H93.5292C93.5492 15.798 93.6212 15.61 93.7452 15.45C93.8732 15.29 94.0372 15.168 94.2372 15.084C94.4372 14.996 94.6612 14.952 94.9092 14.952C95.3332 14.952 95.6672 15.058 95.9112 15.27C96.1552 15.482 96.2772 15.782 96.2772 16.17V18H95.6232L95.5512 17.52C95.4632 17.68 95.3392 17.812 95.1792 17.916C95.0232 18.02 94.8212 18.072 94.5732 18.072ZM94.7472 17.472C94.9672 17.472 95.1372 17.4 95.2572 17.256C95.3812 17.112 95.4592 16.934 95.4912 16.722H94.8372C94.6332 16.722 94.4872 16.76 94.3992 16.836C94.3112 16.908 94.2672 16.998 94.2672 17.106C94.2672 17.222 94.3112 17.312 94.3992 17.376C94.4872 17.44 94.6032 17.472 94.7472 17.472ZM98.4681 18.072C98.1641 18.072 97.8961 18.006 97.6641 17.874C97.4321 17.742 97.2481 17.558 97.1121 17.322C96.9801 17.086 96.9141 16.816 96.9141 16.512C96.9141 16.208 96.9801 15.938 97.1121 15.702C97.2481 15.466 97.4321 15.282 97.6641 15.15C97.8961 15.018 98.1641 14.952 98.4681 14.952C98.8481 14.952 99.1681 15.052 99.4281 15.252C99.6881 15.448 99.8541 15.72 99.9261 16.068H99.1161C99.0761 15.924 98.9961 15.812 98.8761 15.732C98.7601 15.648 98.6221 15.606 98.4621 15.606C98.2501 15.606 98.0701 15.686 97.9221 15.846C97.7741 16.006 97.7001 16.228 97.7001 16.512C97.7001 16.796 97.7741 17.018 97.9221 17.178C98.0701 17.338 98.2501 17.418 98.4621 17.418C98.6221 17.418 98.7601 17.378 98.8761 17.298C98.9961 17.218 99.0761 17.104 99.1161 16.956H99.9261C99.8541 17.292 99.6881 17.562 99.4281 17.766C99.1681 17.97 98.8481 18.072 98.4681 18.072ZM100.608 18V13.68H101.376V16.23L102.432 15.024H103.344L102.126 16.38L103.542 18H102.582L101.376 16.506V18H100.608Z" fill="#494C58"/>
<rect width="80" height="128" rx="8" fill="white"/>
<rect opacity="0.5" x="1.5" y="1.5" width="77" height="125" rx="6.5" fill="white" stroke="#FF8800" stroke-width="3"/>
<path d="M29.7485 54.072C29.3365 54.072 28.9745 53.982 28.6625 53.802C28.3545 53.618 28.1125 53.362 27.9365 53.034C27.7645 52.706 27.6785 52.328 27.6785 51.9C27.6785 51.472 27.7645 51.096 27.9365 50.772C28.1125 50.444 28.3545 50.188 28.6625 50.004C28.9745 49.82 29.3365 49.728 29.7485 49.728C30.1645 49.728 30.5265 49.82 30.8345 50.004C31.1465 50.188 31.3885 50.444 31.5605 50.772C31.7325 51.096 31.8185 51.472 31.8185 51.9C31.8185 52.328 31.7325 52.706 31.5605 53.034C31.3885 53.358 31.1525 53.61 30.8525 53.79L31.9145 54.81H31.2605L30.4085 53.982C30.2045 54.042 29.9845 54.072 29.7485 54.072ZM29.7485 53.628C30.0565 53.628 30.3265 53.56 30.5585 53.424C30.7945 53.284 30.9765 53.086 31.1045 52.83C31.2365 52.57 31.3025 52.26 31.3025 51.9C31.3025 51.54 31.2365 51.232 31.1045 50.976C30.9765 50.72 30.7945 50.524 30.5585 50.388C30.3265 50.248 30.0565 50.178 29.7485 50.178C29.4405 50.178 29.1685 50.248 28.9325 50.388C28.7005 50.524 28.5185 50.72 28.3865 50.976C28.2585 51.232 28.1945 51.54 28.1945 51.9C28.1945 52.26 28.2585 52.57 28.3865 52.83C28.5185 53.086 28.7005 53.284 28.9325 53.424C29.1685 53.56 29.4405 53.628 29.7485 53.628ZM33.6484 54.072C33.2964 54.072 33.0164 53.966 32.8084 53.754C32.6004 53.538 32.4964 53.208 32.4964 52.764V51.024H33.0004V52.71C33.0004 53.33 33.2544 53.64 33.7624 53.64C34.0224 53.64 34.2364 53.548 34.4044 53.364C34.5764 53.176 34.6624 52.91 34.6624 52.566V51.024H35.1664V54H34.7104L34.6744 53.466C34.5824 53.654 34.4444 53.802 34.2604 53.91C34.0804 54.018 33.8764 54.072 33.6484 54.072ZM37.334 54.072C37.05 54.072 36.798 54.008 36.578 53.88C36.358 53.748 36.184 53.566 36.056 53.334C35.932 53.102 35.87 52.828 35.87 52.512C35.87 52.2 35.932 51.928 36.056 51.696C36.18 51.46 36.352 51.278 36.572 51.15C36.796 51.018 37.054 50.952 37.346 50.952C37.634 50.952 37.882 51.018 38.09 51.15C38.302 51.278 38.464 51.448 38.576 51.66C38.688 51.872 38.744 52.1 38.744 52.344C38.744 52.388 38.742 52.432 38.738 52.476C38.738 52.52 38.738 52.57 38.738 52.626H36.368C36.38 52.854 36.432 53.044 36.524 53.196C36.62 53.344 36.738 53.456 36.878 53.532C37.022 53.608 37.174 53.646 37.334 53.646C37.542 53.646 37.716 53.598 37.856 53.502C37.996 53.406 38.098 53.276 38.162 53.112H38.66C38.58 53.388 38.426 53.618 38.198 53.802C37.974 53.982 37.686 54.072 37.334 54.072ZM37.334 51.378C37.094 51.378 36.88 51.452 36.692 51.6C36.508 51.744 36.402 51.956 36.374 52.236H38.246C38.234 51.968 38.142 51.758 37.97 51.606C37.798 51.454 37.586 51.378 37.334 51.378ZM40.552 54.072C40.196 54.072 39.9 53.982 39.664 53.802C39.428 53.622 39.29 53.378 39.25 53.07H39.766C39.798 53.226 39.88 53.362 40.012 53.478C40.148 53.59 40.33 53.646 40.558 53.646C40.77 53.646 40.926 53.602 41.026 53.514C41.126 53.422 41.176 53.314 41.176 53.19C41.176 53.01 41.11 52.89 40.978 52.83C40.85 52.77 40.668 52.716 40.432 52.668C40.272 52.636 40.112 52.59 39.952 52.53C39.792 52.47 39.658 52.386 39.55 52.278C39.442 52.166 39.388 52.02 39.388 51.84C39.388 51.58 39.484 51.368 39.676 51.204C39.872 51.036 40.136 50.952 40.468 50.952C40.784 50.952 41.042 51.032 41.242 51.192C41.446 51.348 41.564 51.572 41.596 51.864H41.098C41.078 51.712 41.012 51.594 40.9 51.51C40.792 51.422 40.646 51.378 40.462 51.378C40.282 51.378 40.142 51.416 40.042 51.492C39.946 51.568 39.898 51.668 39.898 51.792C39.898 51.912 39.96 52.006 40.084 52.074C40.212 52.142 40.384 52.2 40.6 52.248C40.784 52.288 40.958 52.338 41.122 52.398C41.29 52.454 41.426 52.54 41.53 52.656C41.638 52.768 41.692 52.932 41.692 53.148C41.696 53.416 41.594 53.638 41.386 53.814C41.182 53.986 40.904 54.072 40.552 54.072ZM43.4533 54C43.1813 54 42.9673 53.934 42.8113 53.802C42.6553 53.67 42.5773 53.432 42.5773 53.088V51.45H42.0613V51.024H42.5773L42.6433 50.31H43.0813V51.024H43.9573V51.45H43.0813V53.088C43.0813 53.276 43.1193 53.404 43.1953 53.472C43.2713 53.536 43.4053 53.568 43.5973 53.568H43.9093V54H43.4533ZM44.9036 50.364C44.8036 50.364 44.7196 50.332 44.6516 50.268C44.5876 50.2 44.5556 50.116 44.5556 50.016C44.5556 49.92 44.5876 49.84 44.6516 49.776C44.7196 49.712 44.8036 49.68 44.9036 49.68C44.9996 49.68 45.0816 49.712 45.1496 49.776C45.2176 49.84 45.2516 49.92 45.2516 50.016C45.2516 50.116 45.2176 50.2 45.1496 50.268C45.0816 50.332 44.9996 50.364 44.9036 50.364ZM44.6516 54V51.024H45.1556V54H44.6516ZM47.3891 54.072C47.1091 54.072 46.8571 54.008 46.6331 53.88C46.4091 53.752 46.2311 53.572 46.0991 53.34C45.9711 53.104 45.9071 52.828 45.9071 52.512C45.9071 52.196 45.9731 51.922 46.1051 51.69C46.2371 51.454 46.4151 51.272 46.6391 51.144C46.8671 51.016 47.1211 50.952 47.4011 50.952C47.6811 50.952 47.9331 51.016 48.1571 51.144C48.3811 51.272 48.5571 51.454 48.6851 51.69C48.8171 51.922 48.8831 52.196 48.8831 52.512C48.8831 52.828 48.8171 53.104 48.6851 53.34C48.5531 53.572 48.3731 53.752 48.1451 53.88C47.9211 54.008 47.6691 54.072 47.3891 54.072ZM47.3891 53.64C47.5611 53.64 47.7211 53.598 47.8691 53.514C48.0171 53.43 48.1371 53.304 48.2291 53.136C48.3211 52.968 48.3671 52.76 48.3671 52.512C48.3671 52.264 48.3211 52.056 48.2291 51.888C48.1411 51.72 48.0231 51.594 47.8751 51.51C47.7271 51.426 47.5691 51.384 47.4011 51.384C47.2291 51.384 47.0691 51.426 46.9211 51.51C46.7731 51.594 46.6531 51.72 46.5611 51.888C46.4691 52.056 46.4231 52.264 46.4231 52.512C46.4231 52.76 46.4691 52.968 46.5611 53.136C46.6531 53.304 46.7711 53.43 46.9151 53.514C47.0631 53.598 47.2211 53.64 47.3891 53.64ZM49.5839 54V51.024H50.0399L50.0699 51.558C50.1659 51.37 50.3039 51.222 50.4839 51.114C50.6639 51.006 50.8679 50.952 51.0959 50.952C51.4479 50.952 51.7279 51.06 51.9359 51.276C52.1479 51.488 52.2539 51.816 52.2539 52.26V54H51.7499V52.314C51.7499 51.694 51.4939 51.384 50.9819 51.384C50.7259 51.384 50.5119 51.478 50.3399 51.666C50.1719 51.85 50.0879 52.114 50.0879 52.458V54H49.5839Z" fill="#05090D"/>
<rect x="11.2002" y="60" width="58.3784" height="4" rx="0.5" fill="#F1F3F7"/>
<rect x="8" y="68" width="64" height="4" rx="0.5" fill="#F1F3F7"/>
<rect x="19.2002" y="76" width="41.5135" height="4" rx="0.5" fill="#F1F3F7"/>
<path d="M32.6853 18V13.8H35.3973V14.418H33.4533V15.594H35.0253V16.2H33.4533V18H32.6853ZM35.972 18V15.024H36.656L36.728 15.582C36.836 15.39 36.982 15.238 37.166 15.126C37.354 15.01 37.574 14.952 37.826 14.952V15.762H37.61C37.442 15.762 37.292 15.788 37.16 15.84C37.028 15.892 36.924 15.982 36.848 16.11C36.776 16.238 36.74 16.416 36.74 16.644V18H35.972ZM39.7262 18.072C39.4382 18.072 39.1782 18.006 38.9462 17.874C38.7182 17.742 38.5362 17.56 38.4002 17.328C38.2682 17.092 38.2022 16.82 38.2022 16.512C38.2022 16.204 38.2702 15.934 38.4062 15.702C38.5422 15.466 38.7242 15.282 38.9522 15.15C39.1842 15.018 39.4442 14.952 39.7322 14.952C40.0162 14.952 40.2722 15.018 40.5002 15.15C40.7322 15.282 40.9142 15.466 41.0462 15.702C41.1822 15.934 41.2502 16.204 41.2502 16.512C41.2502 16.82 41.1822 17.092 41.0462 17.328C40.9142 17.56 40.7322 17.742 40.5002 17.874C40.2682 18.006 40.0102 18.072 39.7262 18.072ZM39.7262 17.406C39.9262 17.406 40.1002 17.332 40.2482 17.184C40.3962 17.032 40.4702 16.808 40.4702 16.512C40.4702 16.216 40.3962 15.994 40.2482 15.846C40.1002 15.694 39.9282 15.618 39.7322 15.618C39.5282 15.618 39.3522 15.694 39.2042 15.846C39.0602 15.994 38.9882 16.216 38.9882 16.512C38.9882 16.808 39.0602 17.032 39.2042 17.184C39.3522 17.332 39.5262 17.406 39.7262 17.406ZM41.9369 18V15.024H42.6149L42.6749 15.528C42.7669 15.352 42.8989 15.212 43.0709 15.108C43.2469 15.004 43.4529 14.952 43.6889 14.952C44.0569 14.952 44.3429 15.068 44.5469 15.3C44.7509 15.532 44.8529 15.872 44.8529 16.32V18H44.0849V16.392C44.0849 16.136 44.0329 15.94 43.9289 15.804C43.8249 15.668 43.6629 15.6 43.4429 15.6C43.2269 15.6 43.0489 15.676 42.9089 15.828C42.7729 15.98 42.7049 16.192 42.7049 16.464V18H41.9369ZM46.9133 18C46.6013 18 46.3513 17.924 46.1633 17.772C45.9753 17.62 45.8813 17.35 45.8813 16.962V15.666H45.3713V15.024H45.8813L45.9713 14.226H46.6493V15.024H47.4533V15.666H46.6493V16.968C46.6493 17.112 46.6793 17.212 46.7393 17.268C46.8033 17.32 46.9113 17.346 47.0633 17.346H47.4353V18H46.9133Z" fill="#494C58"/>
</svg>
