<svg width="128" height="96" viewBox="0 0 128 96" fill="none" xmlns="http://www.w3.org/2000/svg">
<g clip-path="url(#clip0_3284_16720)">
<path d="M58.6354 20.4794H27.2692C27.1152 20.4793 26.9676 20.418 26.8587 20.3091C26.7498 20.2002 26.6885 20.0526 26.6884 19.8986V12.118C26.6885 11.964 26.7498 11.8163 26.8587 11.7074C26.9676 11.5985 27.1152 11.5373 27.2692 11.5371H58.6354C58.7894 11.5373 58.9371 11.5985 59.046 11.7074C59.1549 11.8163 59.2161 11.964 59.2163 12.118V19.8986C59.2161 20.0526 59.1549 20.2002 59.046 20.3091C58.9371 20.418 58.7894 20.4793 58.6354 20.4794ZM27.2692 11.7694C27.1768 11.7695 27.0882 11.8063 27.0229 11.8716C26.9576 11.937 26.9208 12.0256 26.9207 12.118V19.8986C26.9208 19.991 26.9576 20.0796 27.0229 20.1449C27.0882 20.2102 27.1768 20.247 27.2692 20.2471H58.6354C58.7278 20.247 58.8164 20.2102 58.8818 20.1449C58.9471 20.0796 58.9838 19.991 58.984 19.8986V12.118C58.9838 12.0256 58.9471 11.937 58.8818 11.8716C58.8164 11.8063 58.7278 11.7696 58.6354 11.7695L27.2692 11.7694Z" fill="#3F3D56"/>
<path d="M32.143 18.0759C33.4497 18.0759 34.509 17.0166 34.509 15.7098C34.509 14.4031 33.4497 13.3438 32.143 13.3438C30.8362 13.3438 29.7769 14.4031 29.7769 15.7098C29.7769 17.0166 30.8362 18.0759 32.143 18.0759Z" fill="#2F4DCB"/>
<path d="M37.6075 14.1328C37.5029 14.1328 37.4026 14.1744 37.3286 14.2483C37.2547 14.3223 37.2131 14.4226 37.2131 14.5272C37.2131 14.6317 37.2547 14.7321 37.3286 14.806C37.4026 14.88 37.5029 14.9215 37.6075 14.9215H56.1982C56.3028 14.9215 56.4031 14.88 56.4771 14.806C56.551 14.7321 56.5926 14.6317 56.5926 14.5272C56.5926 14.4226 56.551 14.3223 56.4771 14.2483C56.4031 14.1744 56.3028 14.1328 56.1982 14.1328H37.6075Z" fill="#E6E6E6"/>
<path d="M37.6075 16.498C37.5029 16.498 37.4026 16.5396 37.3286 16.6135C37.2547 16.6875 37.2131 16.7878 37.2131 16.8924C37.2131 16.997 37.2547 17.0973 37.3286 17.1712C37.4026 17.2452 37.5029 17.2867 37.6075 17.2867H45.6071C45.659 17.2868 45.7103 17.2767 45.7583 17.2569C45.8062 17.2372 45.8498 17.2081 45.8865 17.1715C45.9231 17.1349 45.9523 17.0914 45.9721 17.0435C45.992 16.9956 46.0022 16.9442 46.0022 16.8924C46.0022 16.8405 45.992 16.7892 45.9721 16.7413C45.9523 16.6934 45.9231 16.6499 45.8865 16.6133C45.8498 16.5767 45.8062 16.5476 45.7583 16.5279C45.7103 16.5081 45.659 16.498 45.6071 16.498H37.6075Z" fill="#E6E6E6"/>
<path d="M45.0181 48.2135H31.0776C30.9236 48.2133 30.7759 48.152 30.667 48.0431C30.5581 47.9342 30.4969 47.7866 30.4967 47.6326V33.1141C30.4969 32.9601 30.5581 32.8124 30.667 32.7035C30.7759 32.5946 30.9236 32.5334 31.0776 32.5332H45.0181C45.1721 32.5334 45.3198 32.5946 45.4287 32.7035C45.5376 32.8124 45.5988 32.9601 45.599 33.1141V47.6326C45.5988 47.7866 45.5376 47.9342 45.4287 48.0431C45.3198 48.152 45.1721 48.2133 45.0181 48.2135ZM31.0776 32.7655C30.9852 32.7656 30.8966 32.8024 30.8312 32.8677C30.7659 32.9331 30.7291 33.0217 30.729 33.1141V47.6326C30.7291 47.725 30.7659 47.8136 30.8312 47.8789C30.8966 47.9443 30.9852 47.981 31.0776 47.9811H45.0181C45.1105 47.981 45.1991 47.9443 45.2645 47.8789C45.3298 47.8136 45.3665 47.725 45.3666 47.6326V33.1141C45.3665 33.0217 45.3298 32.9331 45.2645 32.8677C45.1991 32.8024 45.1105 32.7656 45.0181 32.7655H31.0776Z" fill="#3F3D56"/>
<path d="M34.048 35.5273C33.9434 35.5273 33.8431 35.5689 33.7692 35.6428C33.6952 35.7168 33.6537 35.8171 33.6537 35.9217C33.6537 36.0263 33.6952 36.1266 33.7692 36.2005C33.8431 36.2745 33.9434 36.316 34.048 36.316H42.0477C42.1523 36.316 42.2526 36.2745 42.3265 36.2005C42.4005 36.1266 42.442 36.0263 42.442 35.9217C42.442 35.8171 42.4005 35.7168 42.3265 35.6428C42.2526 35.5689 42.1523 35.5273 42.0477 35.5273H34.048Z" fill="#E6E6E6"/>
<path d="M34.048 37.8516C33.9962 37.8515 33.9448 37.8616 33.8969 37.8814C33.849 37.9011 33.8054 37.9302 33.7687 37.9668C33.732 38.0034 33.7029 38.0469 33.683 38.0948C33.6632 38.1427 33.653 38.1941 33.653 38.2459C33.653 38.2978 33.6632 38.3491 33.683 38.397C33.7029 38.4449 33.732 38.4884 33.7687 38.525C33.8054 38.5616 33.849 38.5907 33.8969 38.6105C33.9448 38.6302 33.9962 38.6404 34.048 38.6403H42.0477C42.1523 38.6403 42.2526 38.5987 42.3265 38.5248C42.4005 38.4508 42.442 38.3505 42.442 38.2459C42.442 38.1413 42.4005 38.041 42.3265 37.9671C42.2526 37.8931 42.1523 37.8516 42.0477 37.8516H34.048Z" fill="#E6E6E6"/>
<path d="M38.0479 45.2204C37.557 45.2204 37.0771 45.0748 36.6689 44.802C36.2607 44.5293 35.9425 44.1416 35.7546 43.688C35.5667 43.2344 35.5176 42.7354 35.6134 42.2538C35.7092 41.7723 35.9456 41.33 36.2927 40.9829C36.6399 40.6357 37.0822 40.3993 37.5637 40.3036C38.0452 40.2078 38.5443 40.2569 38.9978 40.4448C39.4514 40.6327 39.8391 40.9508 40.1118 41.359C40.3846 41.7673 40.5302 42.2472 40.5302 42.7381C40.5294 43.3962 40.2677 44.0272 39.8023 44.4925C39.337 44.9578 38.706 45.2196 38.0479 45.2204Z" fill="#2F4DCB"/>
<path d="M67.8551 0H81.7957C81.9497 0.000180827 82.0974 0.0614358 82.2063 0.170328C82.3151 0.27922 82.3764 0.426859 82.3766 0.580855V15.0994C82.3764 15.2534 82.3151 15.401 82.2063 15.5099C82.0974 15.6188 81.9497 15.6801 81.7957 15.6802H67.8551C67.7012 15.6801 67.5535 15.6188 67.4446 15.5099C67.3357 15.401 67.2745 15.2534 67.2743 15.0994V0.580855C67.2745 0.426859 67.3357 0.27922 67.4446 0.170328C67.5535 0.0614358 67.7012 0.000180827 67.8551 0ZM81.7957 15.4479C81.8881 15.4478 81.9767 15.4111 82.0421 15.3457C82.1074 15.2804 82.1441 15.1918 82.1442 15.0994V0.580855C82.1441 0.488455 82.1074 0.399867 82.0421 0.33453C81.9767 0.269193 81.8881 0.232443 81.7957 0.232342H67.8551C67.7627 0.232443 67.6742 0.269193 67.6088 0.33453C67.5435 0.399867 67.5067 0.488455 67.5066 0.580855V15.0994C67.5067 15.1918 67.5435 15.2804 67.6088 15.3457C67.6742 15.4111 67.7627 15.4478 67.8551 15.4479H81.7957Z" fill="#3F3D56"/>
<path d="M78.8253 12.6871C78.9299 12.6871 79.0302 12.6456 79.1041 12.5716C79.1781 12.4977 79.2196 12.3974 79.2196 12.2928C79.2196 12.1882 79.1781 12.0879 79.1041 12.0139C79.0302 11.94 78.9299 11.8984 78.8253 11.8984H70.8256C70.721 11.8984 70.6207 11.94 70.5468 12.0139C70.4728 12.0879 70.4313 12.1882 70.4313 12.2928C70.4313 12.3974 70.4728 12.4977 70.5468 12.5716C70.6207 12.6456 70.721 12.6871 70.8256 12.6871H78.8253Z" fill="#E6E6E6"/>
<path d="M78.8253 10.3629C78.9299 10.3629 79.0302 10.3214 79.1041 10.2474C79.1781 10.1735 79.2196 10.0732 79.2196 9.96857C79.2196 9.86398 79.1781 9.76368 79.1041 9.68972C79.0302 9.61577 78.9299 9.57422 78.8253 9.57422H70.8256C70.721 9.57422 70.6207 9.61577 70.5468 9.68972C70.4728 9.76368 70.4313 9.86398 70.4313 9.96857C70.4313 10.0732 70.4728 10.1735 70.5468 10.2474C70.6207 10.3214 70.721 10.3629 70.8256 10.3629H78.8253Z" fill="#E6E6E6"/>
<path d="M74.8254 2.99414C75.3163 2.99414 75.7962 3.13972 76.2045 3.41248C76.6127 3.68523 76.9308 4.0729 77.1187 4.52647C77.3066 4.98005 77.3557 5.47914 77.2599 5.96065C77.1642 6.44216 76.9278 6.88446 76.5806 7.2316C76.2335 7.57875 75.7912 7.81516 75.3097 7.91094C74.8281 8.00672 74.329 7.95756 73.8755 7.76969C73.4219 7.58181 73.0342 7.26365 72.7615 6.85545C72.4887 6.44725 72.3431 5.96733 72.3431 5.47639C72.3439 4.81828 72.6056 4.18735 73.071 3.722C73.5364 3.25665 74.1673 2.99488 74.8254 2.99414Z" fill="#2F4DCB"/>
<path d="M26.8675 30.0364C29.3344 28.1258 32.2165 26.8229 35.2806 26.2332C38.3689 25.6447 41.5536 25.8084 44.5654 26.7103C46.0794 27.1611 47.534 27.7914 48.8983 28.5878C50.2884 29.4004 51.5444 30.4007 52.7529 31.4599C53.9772 32.5328 55.1612 33.6535 56.4392 34.6636C60.0879 37.5802 64.6176 39.1736 69.2887 39.1838C69.6746 39.1844 70.0602 39.1738 70.4455 39.1519C70.6545 39.1404 70.6558 38.8139 70.4455 38.8255C65.6841 39.0877 60.9822 37.6669 57.1627 34.8118C55.8381 33.8213 54.6287 32.6887 53.3939 31.5913C52.1968 30.5273 50.9677 29.4923 49.6095 28.6374C46.2875 26.5446 42.4228 25.4763 38.4976 25.5657C34.5723 25.6552 30.7603 26.8985 27.5371 29.1406C27.2306 29.3536 26.9313 29.5763 26.6367 29.8056C26.4711 29.9345 26.7036 30.164 26.8675 30.0364V30.0364Z" fill="#3F3D56"/>
<path d="M26.6942 31.6135C27.6311 31.6135 28.3906 30.854 28.3906 29.9171C28.3906 28.9802 27.6311 28.2207 26.6942 28.2207C25.7573 28.2207 24.9978 28.9802 24.9978 29.9171C24.9978 30.854 25.7573 31.6135 26.6942 31.6135Z" fill="#3F3D56"/>
<path d="M89.8036 54.1389C90.7405 54.1389 91.5 53.3794 91.5 52.4425C91.5 51.5056 90.7405 50.7461 89.8036 50.7461C88.8667 50.7461 88.1072 51.5056 88.1072 52.4425C88.1072 53.3794 88.8667 54.1389 89.8036 54.1389Z" fill="#3F3D56"/>
<path d="M98.6906 42.7789H71.0105C70.8565 42.7787 70.7089 42.7175 70.6 42.6086C70.4911 42.4997 70.4299 42.3521 70.4297 42.1981V27.7957C70.4299 27.6417 70.4911 27.4941 70.6 27.3852C70.7089 27.2763 70.8565 27.215 71.0105 27.2148H98.6906C98.8446 27.215 98.9922 27.2763 99.1011 27.3852C99.21 27.4941 99.2713 27.6417 99.2715 27.7957V42.1981C99.2713 42.3521 99.21 42.4997 99.1011 42.6086C98.9922 42.7175 98.8446 42.7787 98.6906 42.7789ZM71.0105 27.4472C70.9181 27.4473 70.8296 27.484 70.7642 27.5494C70.6989 27.6147 70.6621 27.7033 70.662 27.7957V42.1981C70.6621 42.2905 70.6989 42.3791 70.7642 42.4444C70.8296 42.5097 70.9181 42.5465 71.0105 42.5466H98.6906C98.783 42.5465 98.8716 42.5097 98.9369 42.4444C99.0023 42.3791 99.039 42.2905 99.0391 42.1981V27.7957C99.039 27.7033 99.0023 27.6147 98.9369 27.5494C98.8716 27.484 98.783 27.4473 98.6906 27.4472H71.0105Z" fill="#3F3D56"/>
<path d="M75.6519 34.6814C76.9586 34.6814 78.018 33.6221 78.018 32.3153C78.018 31.0086 76.9586 29.9492 75.6519 29.9492C74.3451 29.9492 73.2858 31.0086 73.2858 32.3153C73.2858 33.6221 74.3451 34.6814 75.6519 34.6814Z" fill="#2F4DCB"/>
<path d="M81.1165 30.7383C81.0647 30.7382 81.0133 30.7483 80.9654 30.7681C80.9174 30.7879 80.8739 30.8169 80.8372 30.8535C80.8005 30.8902 80.7714 30.9337 80.7515 30.9816C80.7317 31.0294 80.7214 31.0808 80.7214 31.1326C80.7214 31.1845 80.7317 31.2358 80.7515 31.2837C80.7714 31.3316 80.8005 31.3751 80.8372 31.4117C80.8739 31.4484 80.9174 31.4774 80.9654 31.4972C81.0133 31.5169 81.0647 31.5271 81.1165 31.527H96.0211C96.1257 31.527 96.226 31.4854 96.3 31.4115C96.3739 31.3375 96.4155 31.2372 96.4155 31.1326C96.4155 31.028 96.3739 30.9277 96.3 30.8538C96.226 30.7798 96.1257 30.7383 96.0211 30.7383H81.1165Z" fill="#E6E6E6"/>
<path d="M81.1165 33.1055C81.0647 33.1054 81.0133 33.1155 80.9654 33.1353C80.9174 33.1551 80.8739 33.1841 80.8372 33.2207C80.8005 33.2573 80.7714 33.3008 80.7515 33.3487C80.7317 33.3966 80.7214 33.448 80.7214 33.4998C80.7214 33.5517 80.7317 33.603 80.7515 33.6509C80.7714 33.6988 80.8005 33.7423 80.8372 33.7789C80.8739 33.8155 80.9174 33.8446 80.9654 33.8644C81.0133 33.8841 81.0647 33.8943 81.1165 33.8942H89.1162C89.2208 33.8942 89.3211 33.8526 89.395 33.7787C89.469 33.7047 89.5105 33.6044 89.5105 33.4998C89.5105 33.3952 89.469 33.2949 89.395 33.221C89.3211 33.147 89.2208 33.1055 89.1162 33.1055H81.1165Z" fill="#E6E6E6"/>
<path d="M73.837 36.8867C73.5371 36.8867 73.293 37.0636 73.293 37.2811C73.293 37.4985 73.5371 37.6754 73.837 37.6754H95.8004C96.1004 37.6754 96.3445 37.4985 96.3445 37.2811C96.3445 37.0636 96.1004 36.8867 95.8004 36.8867H73.837Z" fill="#E6E6E6"/>
<path d="M73.837 39.2539C73.5371 39.2539 73.293 39.4308 73.293 39.6483C73.293 39.8657 73.5371 40.0426 73.837 40.0426H95.8004C96.1004 40.0426 96.3445 39.8657 96.3445 39.6483C96.3445 39.4308 96.1004 39.2539 95.8004 39.2539H73.837Z" fill="#E6E6E6"/>
<path d="M68.7856 54.0204C70.3472 53.3429 72.0907 53.9335 73.5626 54.5579C74.3206 54.8795 75.0706 55.2227 75.8551 55.4766C76.515 55.6897 77.1909 55.8498 77.8763 55.9556C79.2517 56.1663 80.6505 56.1748 82.0284 55.981C83.4133 55.7879 84.763 55.3955 86.0355 54.8159C87.3008 54.2424 88.4705 53.4776 89.5034 52.5485C89.6348 52.4298 89.7637 52.3084 89.89 52.1843C90.0403 52.037 89.8094 51.8063 89.6591 51.9535C88.6645 52.923 87.5227 53.7291 86.2761 54.3417C85.0345 54.9522 83.7103 55.3776 82.3454 55.6044C80.9762 55.8353 79.58 55.8594 78.2035 55.6759C77.5169 55.583 76.8388 55.4356 76.1755 55.235C75.4138 54.9873 74.6665 54.697 73.9372 54.3657C72.4516 53.7277 70.801 53.1029 69.1685 53.5429C68.9814 53.5947 68.7984 53.66 68.6208 53.7385C68.4286 53.8219 68.5946 54.1032 68.7856 54.0204V54.0204Z" fill="#3F3D56"/>
<path d="M68.1822 58.0238H55.1047L58.1823 52.6933C58.2375 52.5977 58.3168 52.5184 58.4123 52.4632C58.5079 52.408 58.6162 52.379 58.7266 52.379C58.8369 52.379 58.9453 52.408 59.0408 52.4632C59.1363 52.5184 59.2157 52.5977 59.2708 52.6933L60.5855 54.9704L62.821 51.0985C62.89 50.9789 62.9894 50.8796 63.109 50.8105C63.2286 50.7414 63.3643 50.7051 63.5024 50.7051C63.6405 50.7051 63.7762 50.7414 63.8958 50.8105C64.0154 50.8796 64.1148 50.9789 64.1838 51.0985L68.1822 58.0238Z" fill="#2F4DCB"/>
<path d="M68.1945 58.0224H54.2539C54.0999 58.0222 53.9523 57.961 53.8434 57.8521C53.7345 57.7432 53.6733 57.5956 53.6731 57.4416V49.6609C53.6733 49.5069 53.7345 49.3593 53.8434 49.2504C53.9523 49.1415 54.0999 49.0803 54.2539 49.0801H68.1945C68.3485 49.0803 68.4962 49.1415 68.605 49.2504C68.7139 49.3593 68.7752 49.5069 68.7754 49.6609V57.4416C68.7752 57.5956 68.7139 57.7432 68.605 57.8521C68.4962 57.961 68.3485 58.0222 68.1945 58.0224ZM54.2539 49.3124C54.1615 49.3125 54.073 49.3493 54.0076 49.4146C53.9423 49.4799 53.9055 49.5685 53.9054 49.6609V57.4416C53.9055 57.534 53.9423 57.6225 54.0076 57.6879C54.073 57.7532 54.1615 57.79 54.2539 57.7901H68.1945C68.2869 57.79 68.3755 57.7532 68.4408 57.6879C68.5062 57.6225 68.5429 57.534 68.543 57.4416V49.6609C68.5429 49.5685 68.5062 49.4799 68.4408 49.4146C68.3755 49.3493 68.2869 49.3125 68.1945 49.3124H54.2539Z" fill="#3F3D56"/>
<path d="M95.5372 51.1759L93.0523 52.4377C92.1654 52.8881 91.3095 52.8111 90.9817 51.872C90.9037 51.6485 90.8749 51.4108 90.8973 51.1752C90.9196 50.9395 90.9927 50.7115 91.1114 50.5067C91.23 50.3019 91.3916 50.1251 91.5849 49.9886C91.7782 49.852 91.9988 49.7588 92.2315 49.7153L94.5931 49.2745L104.708 45.9187L110.835 41.5742L113.081 45.1525L106.001 48.9727L95.5372 51.1759Z" fill="#FFB8B8"/>
<path d="M107.137 93.0584L105.235 92.7415L105.447 89.1504H107.454L107.137 93.0584Z" fill="#FFB8B8"/>
<path d="M125.589 89.5512L123.749 90.1252L122.319 86.8243L124.11 85.9199L125.589 89.5512Z" fill="#FFB8B8"/>
<path d="M124.564 86.4045L122.24 87.3551L111.15 72.7795L107.665 89.89L105.341 89.4675C103.85 74.716 102.635 59.6696 104.126 52.5533L112.734 52.1836L116.642 64.6468L118.544 73.0964L124.564 86.4045Z" fill="#2F2E41"/>
<path d="M107.032 95.9631C106.684 96.0376 106.322 95.9991 105.998 95.8532L104.869 95.345C103.922 95.2963 103.277 95.485 102.75 94.7969C102.601 94.6002 102.507 94.3673 102.479 94.1224C102.451 93.8774 102.488 93.6293 102.588 93.4039C102.687 93.1776 102.845 92.9818 103.044 92.8365C103.244 92.6912 103.479 92.6016 103.724 92.5771L105.276 91.5996L105.357 92.3324C106.066 92.734 106.908 92.5605 107.8 92.1696L108.287 93.8736C108.349 94.0933 108.366 94.3236 108.336 94.5501C108.307 94.7767 108.23 94.9947 108.113 95.1906C107.995 95.3865 107.839 95.5562 107.653 95.689C107.467 95.8219 107.256 95.9152 107.032 95.9631Z" fill="#2F2E41"/>
<path d="M126.341 92.4681C126.037 92.6514 125.682 92.7326 125.328 92.6999L124.095 92.586C123.183 92.8475 122.634 93.2353 121.912 92.7558C121.708 92.618 121.544 92.4281 121.437 92.2056C121.331 91.9832 121.286 91.7363 121.307 91.4906C121.328 91.2445 121.413 91.0081 121.555 90.8059C121.696 90.6036 121.889 90.4427 122.114 90.3396L123.263 88.9114L123.578 89.5781C124.379 89.7277 125.119 89.2903 125.836 88.6309L126.849 90.0844C126.98 90.2719 127.071 90.4842 127.116 90.7081C127.162 90.9321 127.16 91.163 127.113 91.3865C127.065 91.61 126.972 91.8213 126.839 92.0074C126.707 92.1934 126.537 92.3502 126.341 92.4681Z" fill="#2F2E41"/>
<path d="M109.566 37.1847C111.666 37.1847 113.368 35.4824 113.368 33.3824C113.368 31.2824 111.666 29.5801 109.566 29.5801C107.466 29.5801 105.764 31.2824 105.764 33.3824C105.764 35.4824 107.466 37.1847 109.566 37.1847Z" fill="#FFB8B8"/>
<path d="M114.213 41.4108L109.249 40.3546L108.615 36.2354L112.101 35.4961L114.213 41.4108Z" fill="#FFB8B8"/>
<path d="M112.84 52.7127H103.968L105.968 47.692C105.822 45.9644 106.555 44.6937 107.603 43.5875L108.932 40.2496C111.08 38.8357 112.7 38.9414 114.424 40.7777C116.469 43.6727 115.054 48.0246 112.84 52.7127Z" fill="#2F4DCB"/>
<path d="M108.827 63.3794L108.574 66.1549C108.484 67.1455 107.964 67.8295 106.994 67.6079C106.763 67.5551 106.547 67.4532 106.359 67.3089C106.171 67.1647 106.017 66.9816 105.907 66.7722C105.796 66.5628 105.733 66.332 105.72 66.0957C105.707 65.8593 105.745 65.623 105.832 65.4028L106.714 63.1682L109.249 52.8174L108.827 45.3184H113.051L112.523 53.3455L108.827 63.3794Z" fill="#FFB8B8"/>
<path d="M113.368 45.5303H108.51L108.85 42.3609C108.873 41.8128 109.099 41.2928 109.485 40.9031C109.872 40.5134 110.389 40.2821 110.937 40.2547C111.228 40.2402 111.518 40.2834 111.792 40.3818C112.065 40.4803 112.317 40.632 112.531 40.8282C112.746 41.0244 112.919 41.2612 113.041 41.5249C113.164 41.7886 113.233 42.0739 113.244 42.3644L113.368 45.5303Z" fill="#2F4DCB"/>
<path d="M114.272 29.4736C115.061 29.4736 115.701 28.8337 115.701 28.0444C115.701 27.2551 115.061 26.6152 114.272 26.6152C113.483 26.6152 112.843 27.2551 112.843 28.0444C112.843 28.8337 113.483 29.4736 114.272 29.4736Z" fill="#2F2E41"/>
<path d="M112.799 27.6946C112.823 27.332 112.983 26.992 113.249 26.7438C113.514 26.4956 113.864 26.358 114.228 26.3588C114.198 26.3551 114.169 26.3505 114.139 26.3486C113.761 26.3245 113.388 26.4516 113.104 26.7018C112.819 26.9521 112.646 27.3051 112.622 27.6832C112.597 28.0613 112.724 28.4336 112.974 28.7183C113.224 29.0029 113.577 29.1766 113.955 29.2011C113.986 29.203 114.015 29.2023 114.045 29.2023C113.684 29.1567 113.355 28.9753 113.123 28.6952C112.892 28.4151 112.776 28.0572 112.799 27.6946Z" fill="#2F2E41"/>
<path d="M112.791 28.3053C111.517 27.2479 107.861 28.5918 107.625 29.3026C105.901 29.5375 104.596 30.5432 104.596 32.3313V32.3313C105.621 32.7511 106.786 32.6993 108.046 32.3313C110.054 33.9679 110.192 36.0254 108.971 38.3885L110.473 38.4186L112.336 35.6964L112.425 38.4576L115.869 38.3885V34.4316C115.88 33.1159 115.578 31.8166 114.986 30.6414C114.449 29.5986 113.616 28.9898 112.791 28.3053Z" fill="#2F2E41"/>
<path d="M109.584 35.2965C109.961 35.2965 110.267 34.8681 110.267 34.3396C110.267 33.8112 109.961 33.3828 109.584 33.3828C109.206 33.3828 108.9 33.8112 108.9 34.3396C108.9 34.8681 109.206 35.2965 109.584 35.2965Z" fill="#FFB8B8"/>
<path d="M23.5907 35.5526C23.5907 35.5526 24.0021 28.4317 26.1379 30.0497C28.2737 31.6678 25.2052 36.213 25.2052 36.213L23.5907 35.5526Z" fill="#FFB9B9"/>
<path d="M15.6446 56.6758C15.6446 56.6758 20.3889 62.0019 17.7345 62.368C15.0802 62.7341 14.036 57.3504 14.036 57.3504L15.6446 56.6758Z" fill="#FFB9B9"/>
<path d="M9.45371 31.4637C10.0492 31.6204 10.5851 31.9496 10.9941 32.4098C11.4031 32.8701 11.667 33.4409 11.7527 34.0507L13.2618 44.7921L15.3774 53.3603C15.3774 53.3603 16.4352 54.3123 16.0121 54.8412C15.589 55.3701 16.541 57.5915 16.541 57.5915L13.8965 58.4377C13.8965 58.4377 13.5791 56.2163 13.0502 56.1106C12.5854 56.0176 7.38216 42.1178 6.12797 38.7505C5.95503 38.2862 5.85718 38.0221 5.85718 38.0221C5.85718 38.0221 6.06874 30.9348 9.45371 31.4637Z" fill="#575A89"/>
<path d="M9.93674 87.4785L11.5611 90.357C12.819 93.0426 11.7011 93.5304 8.61697 92.1992L7.91394 88.8003L9.93674 87.4785Z" fill="#FFB9B9"/>
<path d="M10.7563 91.3053C10.7563 91.3053 11.5274 90.0499 11.8063 90.26C12.0852 90.4702 13.2355 91.3807 13.2355 91.3807L14.7339 92.8159C14.7339 92.8159 19.7962 93.3511 16.5795 95.1248C13.3628 96.8985 11.5851 95.4279 11.5851 95.4279C11.5851 95.4279 7.07981 95.6622 7.15248 94.4052C7.22516 93.1482 8.67816 91.1596 8.67816 91.1596C8.67816 91.1596 10.5094 92.3873 10.7563 91.3053Z" fill="#2F2E41"/>
<path d="M2.72876 54.9424L4.25157 73.3684C4.25157 73.3684 4.30233 84.3833 5.92666 86.5153C7.55099 88.6472 7.60175 89.7132 7.60175 89.7132L10.9519 87.9873C10.9519 87.9873 9.22608 85.1115 9.5814 84.6713C9.80043 84.3921 9.95629 84.0687 10.0382 83.7235L9.12456 72.3532L10.8504 52.5566L2.72876 54.9424Z" fill="#2F2E41"/>
<path d="M6.89103 87.4804L5.46975 91.2366L2.24646 89.889L3.94697 87.0742L6.89103 87.4804Z" fill="#FFB9B9"/>
<path d="M4.51994 89.9707C4.51994 89.9707 5.72884 89.2152 5.87995 89.5174C6.03107 89.8196 6.63552 91.1041 6.63552 91.1041L7.31552 92.993C7.31552 92.993 11.4711 95.6375 7.91997 95.7886C4.36883 95.9397 3.46216 93.8997 3.46216 93.8997C3.46216 93.8997 -0.542314 92.1619 0.0621387 91.1041C0.666592 90.0463 2.78216 88.9492 2.78216 88.9492C2.78216 88.9492 3.83994 90.8019 4.51994 89.9707Z" fill="#2F2E41"/>
<path d="M15.6219 54.992L16.434 71.9459C16.434 71.9459 9.02304 87.2755 8.21087 87.6816C7.96886 87.8066 7.75434 87.9788 7.57998 88.188C7.40561 88.3972 7.27494 88.6393 7.19567 88.8999L2.72876 87.7831L4.75918 84.5345L9.22608 73.6718C9.22608 73.6718 9.93672 73.3672 10.1398 72.352C10.3428 71.3368 10.7489 71.3368 9.73369 71.1338C8.71848 70.9307 8.71848 69.9155 8.71848 69.9155L5.3683 54.4844L15.6219 54.992Z" fill="#2F2E41"/>
<path d="M15.9755 24.984C16.3347 22.7702 14.8313 20.6843 12.6176 20.3251C10.4038 19.9659 8.31795 21.4692 7.9587 23.683C7.59945 25.8968 9.10284 27.9826 11.3166 28.3419C13.5304 28.7011 15.6162 27.1977 15.9755 24.984Z" fill="#FFB9B9"/>
<path d="M8.36311 24.5879C8.36311 24.5879 8.05855 29.7654 7.65247 30.273C7.24639 30.7806 11.9163 30.6791 11.9163 30.6791C11.9163 30.6791 11.6118 26.3137 11.9163 25.9077C12.2209 25.5016 8.36311 24.5879 8.36311 24.5879Z" fill="#FFB9B9"/>
<path d="M15.926 56.1105C15.926 56.1105 4.45415 55.0955 2.32275 56.1105C2.32275 56.1105 3.10738 53.1998 2.90464 52.8956C2.75719 52.6732 3.16399 44.3819 3.03629 39.5991C2.96388 36.9003 2.34118 34.2647 4.15135 32.261C4.76747 31.5804 5.45468 31.0091 6.18006 30.73C6.18006 30.73 5.97732 28.8013 6.99233 28.6999C6.99233 28.6999 10.851 28.2931 12.2714 29.5122C12.7256 29.8993 13.0113 31.0788 13.0416 32.0952C12.3386 35.5523 12.5874 39.3885 13.2325 43.3682C13.272 43.621 13.3154 43.8751 13.3589 44.1292C14.0434 48.076 15.0782 52.1453 15.926 56.1105Z" fill="#575A89"/>
<path d="M9.84568 25.5304C10.1891 25.5099 10.5244 25.6259 10.8655 25.6712C12.0856 25.8332 13.355 24.9478 13.6244 23.7468C13.646 23.5869 13.6936 23.4315 13.7655 23.287C13.9533 22.9804 14.3809 22.922 14.7335 22.9925C15.086 23.063 15.4202 23.228 15.7793 23.2468C16.3337 23.2759 16.8659 22.9346 17.1613 22.4646C17.4405 21.9798 17.5592 21.4191 17.5005 20.8627L17.2348 21.1416C17.1268 20.9131 17.0851 20.6589 17.1144 20.4079C16.9736 20.3704 16.8255 20.3697 16.6843 20.4058C16.5431 20.442 16.4136 20.5137 16.308 20.6143C16.0737 20.6392 16.2506 20.1796 16.0765 20.0208C15.9918 19.9688 15.8909 19.9499 15.7931 19.9678C15.2946 19.9726 14.8913 19.5913 14.4985 19.2843C13.8178 18.7537 13.0218 18.3906 12.1749 18.2245C11.612 18.1147 11.0134 18.097 10.4795 18.3066C10.0485 18.5001 9.6596 18.776 9.33458 19.1188C8.49876 19.9225 7.75864 20.8668 7.41092 21.973C7.12824 22.879 7.12024 23.8485 7.38791 24.7591C7.52802 25.2319 7.95028 26.8515 8.56845 26.8892C9.34521 26.9366 8.87885 25.5881 9.84568 25.5304Z" fill="#2F2E41"/>
<path d="M11.5266 31.9629L12.9814 32.1187C12.9814 32.1187 14.4096 34.8895 14.3059 35.4674C14.2022 36.0454 13.9763 35.6945 14.6191 36.6191C15.2619 37.5438 17.0859 39.9338 17.3117 40.2847C17.5376 40.6355 23.6952 35.9374 23.3124 34.5298C23.3124 34.5298 25.2571 35.9249 26.0903 36.1106C26.0903 36.1106 19.7444 44.4332 18.8601 45.4983C17.9758 46.5634 17.264 46.3446 16.0488 45.7131C14.8335 45.0816 8.6853 38.7826 8.6853 38.7826L11.5266 31.9629Z" fill="#575A89"/>
<path opacity="0.1" d="M13.3589 44.1283L8.30225 39.0716L9.58187 38.6543L13.2325 43.3673C13.272 43.6201 13.3154 43.8742 13.3589 44.1283Z" fill="black"/>
</g>
<defs>
<clipPath id="clip0_3284_16720">
<rect width="127.15" height="96" fill="white"/>
</clipPath>
</defs>
</svg>
