<svg xmlns="http://www.w3.org/2000/svg" width="748.585" height="360" viewBox="0 0 748.585 360">
	<defs>
		<style>
			.a,.z{fill:#e3eaff;}.a,.aa,.ab,.b,.c,.d,.f,.g,.h,.i,.j,.k,.l,.m,.n,.o,.p,.q,.r,.s,.t,.u,.v,.w{fill-rule:evenodd;}.b{fill:#a9b9eb;}.c,.y{fill:#fff;}.d{fill:#bdcdff;}.e,.h{fill:#95a6db;}.f{fill:#264591;}.g{fill:#5e7cdb;}.i{fill:#8197db;}.j{fill:#de623c;}.k{fill:#f37a50;}.l,.x{fill:#201d40;}.n{fill:#494c7f;}.o{fill:#768fdb;}.p{fill:#e62552;}.q{fill:#2c2858;}.r{fill:#f5a3b7;}.s{fill:#c4204a;}.t{fill:#4364cc;}.u{fill:#0e6a41;}.v{fill:#181630;}.w{fill:#3f964f;}.aa{fill:#7f99eb;}.ab{fill:#cdd8fa;}
		</style>
	</defs>
	<g transform="translate(-585.707 -144.314)">
		<path class="a"
			  d="M606.208,351.335c11.07-48.8,69.3-62.539,83.78-76.765,22.566-22.169-4.025-60.21,11.486-87.78,15.532-27.6,58.994-47.832,89.97-41.213,49.067,10.483,66.433,42.05,121.505,48.016,26.744,2.9,40.363-9.392,74.889-15.442,26.893-4.713,49.048,13,66.843,10.4,34.463-8.74,37.481-40.382,81.8-42.576,37.674-3.323,51.3,14.153,69.495,43.388,30.941,49.714,85.837-2.577,114.332,62.69,18.037,41.317-28.747,87.379-18.639,107.362,5.7,11.261,21.815,30.505,27.3,41.875,14.438,29.931-3.085,57.42-21.622,87.282L654.628,485.85a5.165,5.165,0,0,1-2.271-.65S585.238,443.789,606.208,351.335Z"/>
		<path class="b" d="M1099.236,465.334q14.664,5.275,31.575-6.9Q1110.345,454.452,1099.236,465.334Z"/>
		<path class="b"
			  d="M1114.2,452.437c8.976,3.029,18.526,1.367,28.645-6.232C1130.371,444.023,1120.821,445.687,1114.2,452.437Z"/>
		<path class="b" d="M1128.386,440.14q13.471.9,24.642-13.257Q1135.033,428.4,1128.386,440.14Z"/>
		<path class="b" d="M1159.166,409.341q-14.511,4.749-17.732,15.707Q1152.732,423.152,1159.166,409.341Z"/>
		<path class="b" d="M1158.72,395.526q-11.258,6.064-12.28,15.551Q1155.445,407.864,1158.72,395.526Z"/>
		<path class="b" d="M1143.944,404.894q7.26-6.218,5.9-18.921Q1141.509,395.672,1143.944,404.894Z"/>
		<path class="b" d="M1104.329,433.412q-11.361,17.7-5.235,32.185Q1109.463,453.817,1104.329,433.412Z"/>
		<path class="b" d="M1122.28,442.939q4.708-11.965-4.957-26.224Q1113.557,433.492,1122.28,442.939Z"/>
		<path class="b" d="M1127.082,407.011q-3.291,14.6,4.314,22.817Q1135.5,419.42,1127.082,407.011Z"/>
		<path class="b" d="M1137.85,416.7q4.072-10.41-4.314-22.817Q1130.245,408.5,1137.85,416.7Z"/>
		<path class="b"
			  d="M1081.637,477.794c21.138-13.076,19.08-13.064,30.54-23.056q4.653-4.043,8.644-8.2a108.64,108.64,0,0,0,14.137-18.806q7.306-11.742,8.434-18.942l.322-.541a.386.386,0,0,0,.1-.488.666.666,0,0,0-.155-.507,1.225,1.225,0,0,0-.547-.176.68.68,0,0,0-.51.16l-.3.261a1.428,1.428,0,0,0-.183.549l-.086.026-.026.423q-1.256,7.011-8.29,18.407a106.523,106.523,0,0,1-14.131,18.5,113.776,113.776,0,0,1-8.44,8.142l-.772.665q7.677-11.886.386-29.4-7.766,17.289-.386,29.4c-11.32,9.75-8.926,9.449-29.537,22.19Z"/>
		<path class="b" d="M859.554,474.3q13.413,4.826,28.88-6.31Q869.717,464.343,859.554,474.3Z"/>
		<path class="b" d="M873.208,462.013q12.753,2.5,25.144-9.67Q880.979,451.633,873.208,462.013Z"/>
		<path class="b" d="M886.468,449.039q12.333.565,22.277-12.6Q892.319,438.174,886.468,449.039Z"/>
		<path class="b" d="M913.586,420.633Q900.308,424.974,897.367,435,907.695,433.265,913.586,420.633Z"/>
		<path class="b" d="M913.173,408q-10.291,5.549-11.231,14.223Q910.178,419.283,913.173,408Z"/>
		<path class="b" d="M899.659,416.563q6.639-5.682,5.4-17.3Q897.431,408.13,899.659,416.563Z"/>
		<path class="b" d="M861.712,442.945q-10.391,16.188-4.788,29.439Q866.4,461.611,861.712,442.945Z"/>
		<path class="b" d="M880.268,449.809q4.3-10.945-4.536-23.986Q872.285,441.169,880.268,449.809Z"/>
		<path class="b" d="M884.238,418.5q-3.012,13.354,3.946,20.87Q891.934,429.852,884.238,418.5Z"/>
		<path class="b" d="M894.085,427.367q3.727-9.519-3.946-20.87Q887.13,419.859,894.085,427.367Z"/>
		<path class="b"
			  d="M842.672,483.243c19.333-11.96,17.45-11.949,27.936-21.088q4.251-3.7,7.9-7.495a99.479,99.479,0,0,0,12.933-17.2q6.685-10.742,7.713-17.327l.293-.494a.356.356,0,0,0,.093-.447.615.615,0,0,0-.146-.464,1.134,1.134,0,0,0-.5-.161.608.608,0,0,0-.464.146l-.273.241a1.322,1.322,0,0,0-.168.5l-.076.025-.026.386q-1.145,6.415-7.579,16.837a97.532,97.532,0,0,1-12.928,16.92,103.3,103.3,0,0,1-7.718,7.445l-.706.61q7.023-10.869.352-26.889-7.1,15.813-.352,26.889c-10.354,8.918-8.164,8.643-27.018,20.3Z"/>
		<path class="b"
			  d="M627.774,376.432s-4.594,8.074,2.357,22.629c7.087,14.831,5.616,25.1,5.616,25.1l6.574,5.724s1.456-15.627-4.8-27.275C629.66,388.045,627.774,376.432,627.774,376.432Z"/>
		<path class="b"
			  d="M608.064,380.741s-1.288,6.723,6.655,16.2c8.116,9.65,9.4,17.453,9.4,17.453l5.478,4.483s-2.25-13.148-9.1-20.609A79.493,79.493,0,0,1,608.064,380.741Z"/>
		<path class="b"
			  d="M642.011,392.036S648,396.3,651.66,413.313c2.985,13.871-.251,21.079,1.63,29.579l-8.444-9.306c-.457-6.022,3.451-9.947,1.354-22.655A148.071,148.071,0,0,0,642.011,392.036Z"/>
		<path class="b"
			  d="M695.6,443.893s2.6,6.9-3.85,23.048c-5.256,13.18-12.179,14.87-13.541,17.907l-2.9-6.71c3.735-5.158,7.893-4.491,13.239-16.209A149.817,149.817,0,0,0,695.6,443.893Z"/>
		<path class="b"
			  d="M655.974,402.781s4.028,12.029,4.9,19.684c1.261,10.878-3.088,16.654-2.6,27.857l8.6,12.1s2.735-16.457.642-29.818C664.005,410.181,655.974,402.781,655.974,402.781Z"/>
		<path class="b"
			  d="M676.693,408.592a73.005,73.005,0,0,0-.682,21.23c2.605,21.411-8.835,37.512-8.835,37.512l4.432,4.314s13.924-11.165,11.231-29.086C679.973,423.627,676.693,408.592,676.693,408.592Z"/>
		<path class="b"
			  d="M645.292,435.106s-5.036-1.826-26.033.7c-13.456,1.623-9.488-3.442-22.2.311,9.65.919,12.891,7.991,25.494,7.208a193.578,193.578,0,0,1,30.247.472Z"/>
		<path class="b"
			  d="M604.507,448.465s8.168,10.428,26.789,9.226a104.732,104.732,0,0,1,34.039,3.49l-5.549-9.415s-7.672-5.652-26.913-2.544C619.652,451.357,604.507,448.465,604.507,448.465Z"/>
		<path class="b"
			  d="M615.481,466.231s8.167,10.428,26.788,9.226a104.742,104.742,0,0,1,34.04,3.49l-5.551-9.417s-7.671-5.65-26.913-2.542C630.625,469.121,615.481,466.231,615.481,466.231Z"/>
		<path class="b"
			  d="M591.595,414.3s5.9,5.422,17.64,4.22a58.009,58.009,0,0,1,20.632,1.4l-3.323-3.525s-4.848-3.572-17.011-1.611C601.168,416.127,591.595,414.3,591.595,414.3Z"/>
		<path class="b"
			  d="M634.875,425.691a132.579,132.579,0,0,0-22.629.1c-8.5.66-19.767-4.533-19.767-4.533s8.629,12.234,21.347,10.446a117.018,117.018,0,0,1,28.961.011Z"/>
		<path class="b"
			  d="M627.424,417.807s-7.524-11.991-20.285-14.448a69.1,69.1,0,0,1-21.432-8.2s6.982,12.372,18.937,13.363a33.6,33.6,0,0,1,18.644,8.284Z"/>
		<path class="b"
			  d="M677.177,485.059l1.924-.789c-4.859-11.866-26.862-50.464-54.75-69.83l-1.186,1.71C650.665,435.248,672.375,473.344,677.177,485.059Z"/>
		<path class="b"
			  d="M1016.588,389.794s-3.533,6.209,1.812,17.4c5.451,11.4,4.32,19.3,4.32,19.3l5.054,4.4s1.121-12.018-3.7-20.974A71.151,71.151,0,0,1,1016.588,389.794Z"/>
		<path class="b"
			  d="M1001.431,393.106s-.992,5.17,5.117,12.459c6.242,7.42,7.226,13.422,7.226,13.422l4.213,3.447s-1.731-10.112-6.995-15.85A61.088,61.088,0,0,1,1001.431,393.106Z"/>
		<path class="b"
			  d="M1027.536,401.794s4.6,3.273,7.42,16.361c2.3,10.666-.193,16.21,1.253,22.744l-6.494-7.156c-.35-4.629,2.654-7.647,1.043-17.42A113.927,113.927,0,0,0,1027.536,401.794Z"/>
		<path class="b"
			  d="M1068.746,441.67s2,5.3-2.96,17.725c-4.043,10.135-9.366,11.433-10.413,13.77l-2.232-5.16c2.872-3.968,6.068-3.454,10.18-12.466A115.077,115.077,0,0,0,1068.746,441.67Z"/>
		<path class="b"
			  d="M1038.273,410.054s3.1,9.252,3.768,15.137c.969,8.367-2.376,12.807-2,21.423l4.562,5.644a37.233,37.233,0,0,0,2.544-19.271C1044.45,415.747,1038.273,410.054,1038.273,410.054Z"/>
		<path class="b"
			  d="M1055.074,414.836a56.171,56.171,0,0,0-.525,16.326,44.661,44.661,0,0,1-6.795,28.847l3.409,3.318s10.708-8.587,8.636-22.369C1057.6,426.4,1055.074,414.836,1055.074,414.836Z"/>
		<path class="b"
			  d="M1030.059,434.913s-3.873-1.4-20.019.537c-10.348,1.25-7.3-2.645-17.075.24,7.42.706,9.912,6.146,19.6,5.544a148.787,148.787,0,0,1,23.259.364Z"/>
		<path class="b"
			  d="M998.7,445.186s6.281,8.02,20.6,7.1a80.52,80.52,0,0,1,26.178,2.683l-4.269-7.239s-5.9-4.348-20.7-1.956C1010.343,447.408,998.7,445.186,998.7,445.186Z"/>
		<path class="b"
			  d="M1007.134,458.848s6.281,8.018,20.6,7.093a80.554,80.554,0,0,1,26.178,2.686l-4.269-7.241s-5.9-4.346-20.7-1.956C1018.78,461.071,1007.134,458.848,1007.134,458.848Z"/>
		<path class="b"
			  d="M988.766,418.916s4.538,4.168,13.566,3.244a44.656,44.656,0,0,1,15.866,1.074l-2.556-2.71s-3.728-2.747-13.082-1.241A46.552,46.552,0,0,1,988.766,418.916Z"/>
		<path class="b"
			  d="M1022.049,427.674a101.967,101.967,0,0,0-17.4.077c-6.539.507-15.2-3.486-15.2-3.486s6.636,9.407,16.414,8.034a89.911,89.911,0,0,1,22.271.007Z"/>
		<path class="b"
			  d="M1016.319,421.609s-5.785-9.22-15.6-11.109a53.157,53.157,0,0,1-16.479-6.3s5.367,9.512,14.561,10.275a25.84,25.84,0,0,1,14.337,6.372Z"/>
		<path class="b"
			  d="M1054.579,473.326l1.479-.6c-3.735-9.126-20.658-38.809-42.1-53.7l-.913,1.314C1034.191,435.021,1050.886,464.317,1054.579,473.326Z"/>
		<path class="b"
			  d="M1204.839,412.69s1.8,6.84-6.164,16.192c-8.118,9.527-9.046,17.374-9.046,17.374l-5.955,2.927s1.985-11.787,8.874-19.133A70.457,70.457,0,0,0,1204.839,412.69Z"/>
		<path class="b"
			  d="M1218.5,419.717s-.37,5.2-8.069,10.62c-7.86,5.513-10.328,11.007-10.328,11.007l-4.914,2.227s4.233-9.236,10.73-13.389A60.457,60.457,0,0,0,1218.5,419.717Z"/>
		<path class="b"
			  d="M1191.308,421.387s-5.241,1.961-11.267,13.77c-4.909,9.624-3.937,15.563-6.985,21.448l8.037-5.2c1.513-4.342-.6-8,3.434-16.938A112.729,112.729,0,0,1,1191.308,421.387Z"/>
		<path class="b"
			  d="M1141.718,449.061s-3.262,4.566-1.674,17.716c1.288,10.728,6.052,13.326,6.46,15.831l3.45-4.371c-1.739-4.529-4.931-4.852-6.573-14.522A114.38,114.38,0,0,1,1141.718,449.061Z"/>
		<path class="b"
			  d="M1178.931,426.56s-5.322,8.066-7.458,13.529c-3.058,7.758-.987,12.86-3.541,21.009l-5.8,4.242a36.815,36.815,0,0,1,2.469-19.09C1171.57,430.436,1178.931,426.56,1178.931,426.56Z"/>
		<path class="b"
			  d="M1162.546,426.783a55.678,55.678,0,0,1-3.654,15.757,44.215,44.215,0,0,0-.842,29.337l-4.105,2.307s-8.064-10.944-2.575-23.6C1157.186,437.2,1162.546,426.783,1162.546,426.783Z"/>
		<path class="b"
			  d="M1180.466,452.443s4.061-.36,19.019,5.608c9.588,3.83,7.661-.677,16.283,4.576-7.28-1.214-11.052,3.358-20.173.315a147.464,147.464,0,0,0-22.351-5.572Z"/>
		<path class="b"
			  d="M1207.865,470.256s-8.053,6.076-21.519,1.548a79.731,79.731,0,0,0-25.737-4.1l5.929-5.843s6.749-2.657,20.3,3.4C1196.153,469.419,1207.865,470.256,1207.865,470.256Z"/>
		<path class="b"
			  d="M1196.314,481.181s-8.053,6.077-21.525,1.548a79.775,79.775,0,0,0-25.731-4.1l5.928-5.843s6.75-2.655,20.3,3.4C1184.6,480.345,1196.314,481.181,1196.314,481.181Z"/>
		<path class="b"
			  d="M1224.052,447.641s-5.4,2.835-13.805-.348a44.235,44.235,0,0,0-15.457-3.01l3.134-1.944s4.27-1.68,12.833,2.144A46.123,46.123,0,0,0,1224.052,447.641Z"/>
		<path class="b"
			  d="M1189.972,447.551a101.134,101.134,0,0,1,16.638,4.5c6.127,2.153,15.43.536,15.43.536s-8.745,7.313-17.753,3.509a89.04,89.04,0,0,0-21.316-5.66Z"/>
		<path class="b"
			  d="M1197,443.207s7.887-7.351,17.759-6.661a52.645,52.645,0,0,0,17.372-1.84s-7.559,7.74-16.551,6.128a25.568,25.568,0,0,0-15.34,2.45Z"/>
		<path class="b"
			  d="M1147.223,482.963l-1.261-.956c5.9-7.783,29.643-31.883,53.957-40.675l.542,1.489C1176.485,451.494,1153.049,475.282,1147.223,482.963Z"/>
		<path class="c"
			  d="M862.088,213.686a28.236,28.236,0,0,0-6.878-.1,1.708,1.708,0,0,1-.374-3.4,31.65,31.65,0,0,1,7.711.115,1.708,1.708,0,0,1,.011,3.383,1.681,1.681,0,0,1-.47,0Zm-83.952,12.793a21.854,21.854,0,0,1-4.56-5.347,1.708,1.708,0,1,1,2.915-1.78,18.509,18.509,0,0,0,3.848,4.517,1.708,1.708,0,1,1-2.2,2.61Zm61.758-8.786a1.706,1.706,0,0,1,.69-2.314q1.2-.645,2.341-1.293a32.683,32.683,0,0,1,4.4-2.076,1.708,1.708,0,1,1,1.22,3.19,29.514,29.514,0,0,0-3.934,1.859q-1.175.663-2.4,1.325a1.7,1.7,0,0,1-2.313-.691Zm-13.285,6.138a1.707,1.707,0,0,1,.923-2.232c2.189-.908,4.412-1.9,6.6-2.944a1.708,1.708,0,1,1,1.472,3.083c-2.245,1.07-4.521,2.085-6.765,3.016a1.706,1.706,0,0,1-2.231-.923Zm48.611-5.552a41.837,41.837,0,0,0-6.385-2.926,1.708,1.708,0,1,1,1.147-3.217,45.26,45.26,0,0,1,6.909,3.165,1.707,1.707,0,1,1-1.671,2.978Zm-82.738,13.834a31,31,0,0,1-7.534-1.708,1.708,1.708,0,0,1,1.19-3.2,27.56,27.56,0,0,0,6.7,1.513,1.707,1.707,0,1,1-.358,3.4Zm20.231-3.688a1.709,1.709,0,0,1,1.2-2.1c2.227-.61,4.54-1.333,6.877-2.148a1.707,1.707,0,1,1,1.125,3.224c-2.41.841-4.8,1.587-7.1,2.218a1.906,1.906,0,0,1-.215.044,1.711,1.711,0,0,1-1.884-1.24Zm-12.633,3.806a1.707,1.707,0,1,1-.217-3.408,61.414,61.414,0,0,0,7.058-.89,1.708,1.708,0,1,1,.614,3.36c-.956.174-1.91.329-2.839.46-1.577.223-3.131.384-4.616.478Zm86.411-5.4a57.188,57.188,0,0,0-5.365-4.655,1.708,1.708,0,1,1,2.071-2.716,60.218,60.218,0,0,1,5.687,4.935,1.707,1.707,0,0,1-2.393,2.436Zm8.708,11.12a46.234,46.234,0,0,0-3.96-5.837,1.708,1.708,0,1,1,2.68-2.117,49.393,49.393,0,0,1,4.252,6.273,1.707,1.707,0,1,1-2.972,1.681Z"/>
		<path class="d" d="M898.87,232.11l-3.261,7.469,39.613,19.733Z"/>
		<path class="d" d="M893.011,248.362l3.277,7.6,37.166,2.431Z"/>
		<path class="c" d="M935.221,259.312l-63.937-12.426,20.1-10.332Z"/>
		<path class="c" d="M898.87,232.11l36.352,27.2-23.848-34.631Z"/>
		<ellipse class="e" cx="347.611" cy="16.206" rx="347.611" ry="16.206" transform="translate(633.747 471.902)"/>
		<path class="f"
			  d="M810.006,486.983l-120.227.074c-11.19.008-21.381-9.059-22.762-20.25L633.9,198.5c-1.381-11.191,6.57-20.269,17.761-20.276l120.226-.076c11.191-.007,21.381,9.059,22.762,20.25l33.114,268.306C829.147,477.9,821.2,486.975,810.006,486.983Z"/>
		<path class="g"
			  d="M821.172,486.983l-120.227.074c-11.19.008-21.381-9.059-22.762-20.25L645.07,198.5c-1.382-11.191,6.57-20.269,17.76-20.276l120.226-.076c11.191-.007,21.381,9.059,22.764,20.25l33.113,268.306C840.315,477.9,832.361,486.975,821.172,486.983Z"/>
		<path class="c"
			  d="M815.223,478.437l-110.439.069a18.387,18.387,0,0,1-17.754-15.8L655.155,204.44c-1.078-8.729,5.125-15.81,13.853-15.815l110.438-.07a18.39,18.39,0,0,1,17.756,15.8l31.874,258.271C830.154,471.349,823.951,478.431,815.223,478.437Z"/>
		<path class="h"
			  d="M810.535,466.847l-103.973.066a14.2,14.2,0,0,1-13.713-12.2l-2.707-21.946-1.169-9.482-2.252-18.257L669.364,264.264l-6.609-53.6a10.572,10.572,0,0,1,10.7-12.216l15.814-.008.3,2.467a9.564,9.564,0,0,0,9.236,8.21l58.856-.064a7.116,7.116,0,0,0,7.2-8.226l-.3-2.436,12.867-.007a14.205,14.205,0,0,1,13.714,12.2l1.813,14.709L821.235,454.63A10.571,10.571,0,0,1,810.535,466.847Z"/>
		<path class="i"
			  d="M751.06,204.291H701.41a3.372,3.372,0,0,1-3.253-2.9h0a2.509,2.509,0,0,1,2.542-2.9h49.65a3.371,3.371,0,0,1,3.253,2.9h0A2.51,2.51,0,0,1,751.06,204.291Z"/>
		<path class="i"
			  d="M810.535,466.847l-103.973.066a14.2,14.2,0,0,1-13.713-12.2l-2.707-21.946L821.235,454.63A10.571,10.571,0,0,1,810.535,466.847Z"/>
		<path class="i"
			  d="M792.956,225.289,669.364,264.264l-6.609-53.6a10.572,10.572,0,0,1,10.7-12.216l15.814-.008.3,2.467a9.564,9.564,0,0,0,9.236,8.21l58.856-.064a7.116,7.116,0,0,0,7.2-8.226l-.3-2.436,12.867-.007a14.205,14.205,0,0,1,13.714,12.2Z"/>
		<path class="j" d="M1029.971,372.366l-3.8-1.131,3.014-7.453,4.971.936Z"/>
		<path class="k"
			  d="M1034.584,371.758c.254-4.065,5.087-6.424,5.309-4.951a13.349,13.349,0,0,1-.426,4.3c1.125.557,6.307-1.4,4-7.96l1.782-2.822-3.831-3.074-2.535,1.52c-7.957,1.983-9.112,4.517-9.4,10.823C1029.206,375.8,1034.346,375.579,1034.584,371.758Z"/>
		<path class="j"
			  d="M1039.331,367.218a1.311,1.311,0,0,1-.391.081c.009.022.019.041.027.063.51,1.281.178,2.613-.742,2.979a1.325,1.325,0,0,1-.468.088,1.842,1.842,0,0,1-.975,1.89,1.361,1.361,0,0,1-.819.053,1.84,1.84,0,0,1-1.032,1.979,2.161,2.161,0,0,1-1.572-3.957,1.539,1.539,0,0,1,.72-.1,2.1,2.1,0,0,1,.861-2.61,1.382,1.382,0,0,1,.469-.091,1.841,1.841,0,0,1,.975-1.89,1.38,1.38,0,0,1,.759-.065,1.577,1.577,0,0,1,.86-1.763,1.825,1.825,0,0,1,1.328,3.342Z"/>
		<path class="j"
			  d="M1032.306,361.441c.193-1.108,1.306-3.366,3.309-3.581s4.721,3.51,3.11,3.581a4.321,4.321,0,0,1-2.913-1.311Z"/>
		<path class="l"
			  d="M1101.14,279.9c-11.683.033-23.585,4.724-23.292,27.015s-1.658,43.611-7.821,46.894c5.851,5.65,47.167,17.512,63.67,2.43-7.339-8.929-11.5-39.212-11.5-47.429C1122.2,297.615,1119.072,279.846,1101.14,279.9Z"/>
		<path class="k"
			  d="M1110.412,477.717c-.531-5.307,5.854-45.532,5.854-45.532,7.742-35.51,1.057-61.1,1.057-61.1l-21.2,19.052,5.134,35.46s-.934,2.579-1.428,4.643c-2.672,11.186-.01,24.555,1.636,33.466.762,4.129,1.948,12.806,1.98,14.779l-3.344,4.322s12.1,13.395,13.962,13.477c3.622.165,2.554-3.419,2.554-3.419C1111.641,487.762,1110.568,479.238,1110.412,477.717Z"/>
		<path class="l"
			  d="M1099.891,487.559l.665,8.6,1.548.071.781-7.992c4.115,1.05,7.066,8.521,7.066,8.521,2.838,1.017,10.043,1.716,12.608.394.622-2.514-5.955-4.277-5.955-4.277-.6.7-4.1,1.243-5.355.488-4.587-3.909-6.827-9.592-7.807-14.878C1103.442,478.49,1096.186,479,1099.891,487.559Z"/>
		<path class="k"
			  d="M1082.873,379.315c-5.927,14.667-6.663,36.152-7.042,43.734-13.409,2.321-39.661,22.149-39.661,22.149l-4.867.247s-2.036,15.966-1.011,17.276c1.99,2.544,3.8-.26,3.8-.26.569-6.332,4.6-10.929,5.42-12.013,1.239-1.631,41.61-11.6,49.589-15s15.472-54.694,15.472-54.694Z"/>
		<path class="l"
			  d="M1027.97,448.06l-5.434,5.449.849,1.086,5.862-4.112c1.68,3.4-1.662,9.732-1.662,9.732.958,2.51,4.672,7.792,7.056,8.76,2.062-1.041-.566-6.515-.566-6.515-.821.005-3.225-2.056-3.439-3.339-.022-5.376,2.526-10.192,5.534-13.923C1036.17,445.2,1031.616,440.582,1027.97,448.06Z"/>
		<path class="k"
			  d="M1112.666,321.709a146.635,146.635,0,0,1,21.031,21.452c2.591,4.287,5.14,12.177,5.14,12.177-3.246,1.108-31.569-21.489-31.569-21.489s-3.767-1.849-2.4-6.663C1106.345,321.993,1112.666,321.709,1112.666,321.709Z"/>
		<path class="j" d="M1103.867,314.494l-8.107-1.213.647,7.524s4.1,7.4,8,6.121,1.994-4.542,1.994-4.542Z"/>
		<path class="k"
			  d="M1092.327,306.875c3.216,8.879,8.129,13.011,15.236,11.489,5.875-1.258,10.645-10.781,8.139-19.691s-10.2-14.54-17.2-12.576S1089.176,298.173,1092.327,306.875Z"/>
		<path class="l"
			  d="M1099.68,303.327a.477.477,0,0,0,.229-.215,3.626,3.626,0,0,1,2.64-1.647.476.476,0,0,0,.427-.518.823.823,0,0,0-.925-.6,4.165,4.165,0,0,0-3.081,2.14.757.757,0,0,0,.3.822A.476.476,0,0,0,1099.68,303.327Z"/>
		<path class="l"
			  d="M1114.173,300a.44.44,0,0,0,.124-.1.473.473,0,0,0-.033-.673,3.34,3.34,0,0,0-3.342-.684.476.476,0,0,0,.343.888,2.385,2.385,0,0,1,2.361.5A.473.473,0,0,0,1114.173,300Z"/>
		<path class="j"
			  d="M1108.2,304.7a12.04,12.04,0,0,0,1.937,1.7.472.472,0,0,1,.182.629,6.545,6.545,0,0,1-2.827,2.147.127.127,0,0,1-.14-.208,6.158,6.158,0,0,0,1.411-1.785.547.547,0,0,0-.021-.515c-.2-.366-.606-1.111-.886-1.73A.215.215,0,0,1,1108.2,304.7Z"/>
		<path class="c"
			  d="M1104.169,312.72a.412.412,0,0,1,.219-.724,29.033,29.033,0,0,0,7.526-1.772.412.412,0,0,1,.521.55,5.127,5.127,0,0,1-8.266,1.946Z"/>
		<path class="l"
			  d="M1087.336,307.071c8.389-1.456,19.841-11.544,20.641-15.989-1.841-5.232-7.8-8.587-12.611-5.944S1083.508,300.546,1087.336,307.071Z"/>
		<path class="l"
			  d="M1105.2,294.548a38.524,38.524,0,0,0,10.687,3.067c-2.538-5.725-4.383-10.074-7.618-11.148a20.579,20.579,0,0,0-6.636-.9Z"/>
		<path class="k"
			  d="M1094.519,303.621c1.766,1.27,2.358,3.471,1.319,4.918s-3.312,1.591-5.081.322-2.359-3.47-1.322-4.917S1092.75,302.352,1094.519,303.621Z"/>
		<path class="j"
			  d="M1093.718,308.213a.488.488,0,0,0,.161-.147,2.148,2.148,0,0,0,.063-2.641,2.29,2.29,0,0,0-2.543-.765.476.476,0,0,0,.334.892,1.359,1.359,0,0,1,1.46.457,1.219,1.219,0,0,1-.1,1.515.477.477,0,0,0,.622.689Z"/>
		<path class="m" d="M1110.611,302.044a1.3,1.3,0,1,0,1.121-1.452A1.3,1.3,0,0,0,1110.611,302.044Z"/>
		<path class="m" d="M1101.152,304.724a1.385,1.385,0,1,0,1.2-1.549A1.384,1.384,0,0,0,1101.152,304.724Z"/>
		<path class="k"
			  d="M1130.392,319.2c-.644,10.765,1.54,23.76,1.127,30.541l7.318,5.6c3.874-5.4,1.749-21.646-2.924-32.464C1134.067,320.458,1130.392,319.2,1130.392,319.2Z"/>
		<path class="j"
			  d="M1135.414,311.955a42.366,42.366,0,0,1,2.725,7.529c-.027.081-1.615,2.361-2.226,3.39-2.253-1.251-4.062-1.885-5.725-3.5C1130.929,313.406,1134.861,311.962,1135.414,311.955Z"/>
		<path class="n"
			  d="M1136.374,325.868h0a3.172,3.172,0,0,1-3.712-2.516l-2.887-15,6.229-1.2,2.887,15A3.169,3.169,0,0,1,1136.374,325.868Z"/>
		<path class="k"
			  d="M1138.907,319.7a1.464,1.464,0,0,0-.317-.274l.059-.043c1.116-.9,1.5-2.285.853-3.088a1.356,1.356,0,0,0-.375-.322,1.924,1.924,0,0,0,.08-2.22,1.429,1.429,0,0,0-.713-.469,1.93,1.93,0,0,0,.08-2.329,2.258,2.258,0,0,0-3.466,2.788,1.617,1.617,0,0,0,.6.46,2.2,2.2,0,0,0-.558,2.816,1.385,1.385,0,0,0,.381.322,1.923,1.923,0,0,0-.086,2.219,1.433,1.433,0,0,0,.655.451,1.657,1.657,0,0,0-.124,2.044,1.908,1.908,0,0,0,2.93-2.355Z"/>
		<path class="k"
			  d="M1130,319.412c-.988-1.544-1.631-6.111,1.754-8.106,3.884-2.29,2.371.984,1.475,1.715-2.419,1.973-.4,3.554-1.314,5.3C1131.438,319.245,1130.634,320.4,1130,319.412Z"/>
		<path class="h"
			  d="M1145.645,273.791s-4.823,14.182-15.3,20.561c.343.8,7.06,12.214,7.06,12.214s13.215-2.646,25.973,1C1158.254,299.592,1145.645,273.791,1145.645,273.791Z"/>
		<path class="n"
			  d="M1160.4,287.372c4.823,9.624,6.5,18.544,3.745,19.924s-8.9-5.3-13.719-14.925-6.5-18.544-3.745-19.925S1155.576,277.749,1160.4,287.372Z"/>
		<path class="n"
			  d="M1130.918,293.99c-2.506,1.139-10.435,4.866-7.281,11.9,2.528,5.638,10.242,2.806,13.767.68C1135.961,304.1,1130.918,293.99,1130.918,293.99Z"/>
		<path class="o"
			  d="M1147.888,286.645s5.349-3.114,8.423,1.556c2.511,4.442-2.344,7.628-3.825,7.97C1150.914,294.265,1147.888,286.645,1147.888,286.645Z"/>
		<path class="p"
			  d="M1072.574,421.55c1.91-6.39-.186-43.827,16.673-56.265l29.015,3.057c6.706,10.852,5.177,41.208,6.035,67.134C1091.587,443.968,1095.76,419.978,1072.574,421.55Z"/>
		<path class="p"
			  d="M1118.616,361.183c0-6.354,5.5-15.873,2.864-22.288-1.92-5.16-5.7-16.8-9.812-17.585a51.244,51.244,0,0,0-5.816-.637s1.207,5.388-1.511,5.606c-5.233.419-7.983-6.289-7.983-6.289-2.821-.269-12.661,2.666-12.655,3.73.031,8.323,3.69,21.781,5.9,30.781a40.4,40.4,0,0,1-.371,10.728c-.838,2.7-1.862,4.251-1.867,4.836,0,0,19.393,6.588,31.733-.205C1119.1,369.86,1118.616,365.474,1118.616,361.183Z"/>
		<path class="k"
			  d="M1044.772,360.715c8.752-6.618,13.845-14.866,17.876-20.333l-7.967-7.314c-4.686,4.769-9.429,14.237-13.684,24.435C1041.235,360.534,1044.772,360.715,1044.772,360.715Z"/>
		<path class="k"
			  d="M1091.056,334.386s-18.482,6.454-28.408,6c-4.9-1.044-7.967-7.314-7.967-7.314l31.152-11.112s3.925-1.482,6.5,2.81C1095.109,329.4,1091.056,334.386,1091.056,334.386Z"/>
		<path class="q"
			  d="M1222.239,282.64c-.6-8.068,1.738-15.2,8.171-18.825,6.519-3.68,14.69-.071,14.69-.071h0s6.915-2.46,13.177,4.442,1.529,12.976,4.093,18.01c1.513,2.981,9.234,3.6,7.238,13.3-.574,2.8-3.938,4.685-6.793,4.873-5.011.329-9.678-1.609-11.712.329-6.69,6.385-21.53,4.075-23.607-1.765-.643-1.811-13.986,1.693-12.656-10.64C1215.516,286.047,1222.77,289.85,1222.239,282.64Z"/>
		<path class="r"
			  d="M1262.912,322.357c6.782-3.485,22.341-9.35,28.9-15.753l-10.07-7.163s-23.022,7.508-28.151,10.238C1249.676,312.873,1255.272,320.82,1262.912,322.357Z"/>
		<path class="j"
			  d="M1301.209,260.786c-2.468-3.212-3.853-.986-5.135-.324-3.573,1.845-1.094-6.579-5.032-5.422,1.051,5.957-1.352,5.815.461,11.561l-.424,2.389,5.752,4.232.644-2.638C1301.187,268.918,1305.195,265.815,1301.209,260.786Z"/>
		<path class="k"
			  d="M1302.1,262.092a6.038,6.038,0,0,0-2.806-3.172c-.772-.348-3.106.49-3.492,1.384a1.677,1.677,0,0,0,.6,2.217.975.975,0,0,0,.6.079,1.792,1.792,0,0,0,.607,2.216c.123.039.247.078.375.116a1.538,1.538,0,0,0,.735,1.6,1.141,1.141,0,0,0,.607.079c-.14.616.059,1.526.568,1.739.494.683,1.454.353,2.012-.219C1303.038,266.962,1303.435,265.375,1302.1,262.092Z"/>
		<path class="r"
			  d="M1290.832,268.329s-7.049,22.254-9.088,31.112c-.816,3.518,7.291,6.616,10.07,7.163,3.005-2.95,5.017-10.267,5.956-34.777C1295.666,269.413,1290.832,268.329,1290.832,268.329Z"/>
		<path class="r"
			  d="M1225.372,322.357c-7.619-2.154-25.216-10.72-31.773-17.123l7.823-7.343s22.55,6.25,27.679,8.98C1229.6,311.571,1229.2,319.534,1225.372,322.357Z"/>
		<path class="j"
			  d="M1183,257.914c2.468-3.212,3.858-.987,5.14-.325,3.573,1.846,1.089-6.579,5.027-5.422-1.046,5.958,1.352,5.815-.456,11.562l.424,2.389-5.757,4.231-.638-2.636C1183.03,266.045,1179.017,262.943,1183,257.914Z"/>
		<path class="k"
			  d="M1182.112,259.22a6.026,6.026,0,0,1,2.812-3.172c.767-.349,3.106.489,3.493,1.384a1.689,1.689,0,0,1-.6,2.217.994.994,0,0,1-.607.078,1.79,1.79,0,0,1-.6,2.216c-.124.04-.253.078-.376.117a1.547,1.547,0,0,1-.74,1.6,1.108,1.108,0,0,1-.6.079c.135.616-.064,1.526-.573,1.74-.494.683-1.454.353-2.012-.22C1181.174,264.09,1180.777,262.5,1182.112,259.22Z"/>
		<path class="r"
			  d="M1193.379,265.457s6.986,23.3,9.025,32.161c.815,3.518-6.031,7.069-8.805,7.616-.858-3.294-7.393-12.4-7.157-36.279C1188.551,266.54,1193.379,265.457,1193.379,265.457Z"/>
		<path class="j" d="M1235.941,292.832V311.3s6.857,3.283,12.8,0c-.918-4.1-1.46-17.174-1.46-17.174Z"/>
		<path class="r"
			  d="M1228.387,306.871h7.554s3.225,5.349,7.844,4.935,4.341-4.935,4.341-4.935l9.314,1.235s7.167,12.51,6.062,22.485c-1.175,10.6-8.686,14.918-8.278,31.035-11.825,3.718-23.58,3.718-31.789-6.083,2.972-11.268,3.133-20.445.8-34.012A115.727,115.727,0,0,1,1228.387,306.871Z"/>
		<path class="k"
			  d="M1256.828,285.949c0,9.682-5.837,17.53-13.043,17.53s-13.037-7.848-13.037-17.53,5.837-17.529,13.037-17.529S1256.828,276.268,1256.828,285.949Z"/>
		<path class="q"
			  d="M1229.879,285.949a26.594,26.594,0,0,0,17.673-10.115c2.441,6.059,9.276,10.115,9.276,10.115s5.118-11.589-4.2-17.841C1243.748,262.144,1222.55,266.219,1229.879,285.949Z"/>
		<path class="m" d="M1238.3,289.69a1.386,1.386,0,1,1,1.384-1.386A1.384,1.384,0,0,1,1238.3,289.69Z"/>
		<path class="m" d="M1249.343,289.69a1.386,1.386,0,1,1,1.39-1.386A1.388,1.388,0,0,1,1249.343,289.69Z"/>
		<path class="q"
			  d="M1251.785,287.055a.657.657,0,0,1-.569-.325,1.985,1.985,0,0,0-1.234-1.029,2.392,2.392,0,0,0-1.642.372.666.666,0,0,1-.762-1.092,3.745,3.745,0,0,1,2.678-.583,3.252,3.252,0,0,1,2.1,1.652.665.665,0,0,1-.231.912A.673.673,0,0,1,1251.785,287.055Z"/>
		<path class="q"
			  d="M1235.673,287.123a.665.665,0,0,1-.52-1.082,4.17,4.17,0,0,1,2.875-1.767,3.275,3.275,0,0,1,2.3.756.669.669,0,0,1,.037.94.662.662,0,0,1-.933.046,1.915,1.915,0,0,0-1.309-.413,2.936,2.936,0,0,0-1.927,1.27A.672.672,0,0,1,1235.673,287.123Z"/>
		<path class="j"
			  d="M1245.164,290.123c1.792,1.293,2.35,1.824,3.042,2.254-.477,1.6-2.988,2.4-3.7,2.211a3.405,3.405,0,0,0,2-2.029Z"/>
		<path class="s"
			  d="M1229.863,285.575s-1.191-16.048,14.641-16.841a16.013,16.013,0,0,1,11.476,4.488s-3.2-7.936-13.219-7.036C1232.867,267,1225.7,273.925,1229.863,285.575Z"/>
		<path class="k"
			  d="M1232.695,287.3c1.492,1.892,1.567,4.325.167,5.432s-3.751.471-5.248-1.421-1.566-4.325-.166-5.432S1231.2,285.409,1232.695,287.3Z"/>
		<path class="j"
			  d="M1231.381,291.391a.444.444,0,0,1-.408-.617,1.836,1.836,0,0,0,.022-1.793,2.877,2.877,0,0,0-2.372-.864.443.443,0,0,1-.027-.886,3.675,3.675,0,0,1,3.128,1.246,2.616,2.616,0,0,1,.065,2.642A.442.442,0,0,1,1231.381,291.391Z"/>
		<path class="c"
			  d="M1240.325,296.954a.4.4,0,0,1,.429-.607,28.648,28.648,0,0,0,7.57.676.4.4,0,0,1,.311.674,5.038,5.038,0,0,1-8.31-.743Z"/>
		<path class="c"
			  d="M1235.941,306.6s2.683,4.773,7.458,5.223c-1.057,1.824-2.157,3.208-4.426,2.667C1234.718,313.481,1235.941,306.6,1235.941,306.6Z"/>
		<path class="c"
			  d="M1248.126,306.871c-.3,1.19.268,4.612-4.727,4.956.493.911,1.508,3.559,4.437,2.613C1251.189,313.359,1249.429,307.55,1248.126,306.871Z"/>
		<path class="n"
			  d="M1189.372,391.393l-5.682,6.224a35.023,35.023,0,0,0-5.483,1.609,10.08,10.08,0,0,0-1.186.585.189.189,0,0,0-.038.023c-.423.254-.971.573-1.6.909-.365.195-.762.4-1.18.6-2.5,1.187-5.7,2.247-7.683,1.175-4.5-5.721,2.441-12.722,8.177-15.346s7.516-6.5,10.258-5.634S1189.372,391.393,1189.372,391.393Z"/>
		<path class="k"
			  d="M1186.19,388.885c1.116.814,5.2,4.139,5.2,4.139l-5.543,8.111a24.465,24.465,0,0,0-3.546-3.965C1177.149,392.339,1183.54,386.949,1186.19,388.885Z"/>
		<path class="t"
			  d="M1221.606,417.191c-8.45-13.7-31.414-26.746-31.414-26.746a39.081,39.081,0,0,0-5.547,10.992s20.758,22.426,26.8,28.548C1217.55,434.594,1225.828,425.457,1221.606,417.191Z"/>
		<path class="k" d="M1234.267,441.251l-4.56,6.6,7.291,2.741,4.652-5.247Z"/>
		<path class="t"
			  d="M1254.8,371.224l-20.828,11.45s20.817,28.724,33.334,35.62c2.178,1.2,14.089-5.771,13.944-8.274C1280.7,400.9,1254.8,371.224,1254.8,371.224Z"/>
		<path class="t"
			  d="M1265.53,405.144c-2.28-.28-31.263,36.107-31.263,36.107a38.079,38.079,0,0,0,9.819,5.982c20.36-19.608,30.544-27.542,37.256-35.389C1283.809,405.513,1274.125,400.735,1265.53,405.144Z"/>
		<path class="o"
			  d="M1243.195,377.152s-18.612-20.226-23.939-15.094-6.487,46.628-9.5,62.2c-1.5,7.776,9.953,10.505,12.657,6.734C1227.287,424.184,1243.195,377.152,1243.195,377.152Z"/>
		<path class="n"
			  d="M1245.245,464.3a44.429,44.429,0,0,1-18.006-10.906,2.838,2.838,0,0,1-.048-3.964c1.47-1.539,3.326-3.4,4.523-4.487.236-.215.45-.4.627-.539l6.911,3.637.284.148a6.027,6.027,0,0,0,.7,3.725,8.642,8.642,0,0,0,.622,1,14.6,14.6,0,0,0,1,1.22c.263.29.542.572.816.851C1245.615,457.91,1248.995,460.233,1245.245,464.3Z"/>
		<path class="o"
			  d="M1216.16,373.935s-1.261-8.43,7.275-18.392c7.2,5.681,14.406,9.185,31.789,6.083,1.406,8.962.644,11.537.644,11.537l-14.556,8.249Z"/>
		<path class="j"
			  d="M896.326,387.667s-3.112-.8-2.131-1.792c1.578-1.59,1.665.614,3.333.95,1.482.3-.769-7.037-7.928-5.821-1.038.177-3.041-1.609-3.041-1.609l-2.246,5.382.145,1.114c-.053,4.111,1.934,5.355,3.537,6.338Z"/>
		<path class="u"
			  d="M845.016,329.639c-5.553,8.361-1.324,21.315,8.41,42.263,8.76-.485,10.768-6.3,10.768-6.3s-2.077-19.466-3.85-25.32C856.086,326.224,847.693,325.609,845.016,329.639Z"/>
		<path class="u"
			  d="M887.033,379.394l-22.839-13.8-10.768,6.3c6.283,5.63,14.207,10.647,30.851,14.451A17.689,17.689,0,0,0,887.033,379.394Z"/>
		<path class="v"
			  d="M771.811,396.7l-5.75,6.3a35.5,35.5,0,0,0-5.548,1.629,9.761,9.761,0,0,0-1.2.593c-.012,0-.025.015-.037.021-.426.258-.981.581-1.621.921-.372.2-.775.4-1.2.6-2.53,1.2-5.769,2.276-7.775,1.19-4.55-5.79,2.472-12.873,8.273-15.531s7.61-6.574,10.381-5.7S771.811,396.7,771.811,396.7Z"/>
		<path class="c"
			  d="M760.513,404.624a9.761,9.761,0,0,0-1.2.593l-1.683-4.222a.667.667,0,0,1,.371-.868.71.71,0,0,1,.281-.047.671.671,0,0,1,.587.419Z"/>
		<path class="c" d="M757.653,406.159c-.372.2-.775.4-1.2.6l-1.392-3.486a.668.668,0,1,1,1.242-.494Z"/>
		<path class="k"
			  d="M768.593,394.161c1.127.822,5.258,4.186,5.258,4.186l-5.608,8.209a24.837,24.837,0,0,0-3.587-4.01C759.445,397.655,765.91,392.2,768.593,394.161Z"/>
		<path class="s"
			  d="M804.431,422.8c-8.551-13.861-31.787-27.064-31.787-27.064a39.5,39.5,0,0,0-5.619,11.124s21.005,22.693,27.123,28.886C800.326,440.413,808.7,431.167,804.431,422.8Z"/>
		<path class="k" d="M854.679,475.069l2.76,7.635,6.539-4.393-1.588-6.917Z"/>
		<path class="s"
			  d="M835.756,379.395l-22.185,9.293S831.444,419.819,843.3,428.1c2.065,1.442,14.8-4.3,14.915-6.832C858.647,412.029,835.756,379.395,835.756,379.395Z"/>
		<path class="s"
			  d="M843.3,428.1c-1.568,1.716,11.376,46.97,11.376,46.97a38.481,38.481,0,0,0,10.7-4.57c-4.187-28.3-4.738-41.351-7.258-51.491C854.354,413.252,844.725,418.422,843.3,428.1Z"/>
		<path class="p"
			  d="M826.275,382.362s-16.792-15.777-22.188-10.584-8.6,42.5-11.646,58.255c-1.52,7.868,10.072,10.628,12.8,6.812C810.179,429.956,826.275,382.362,826.275,382.362Z"/>
		<path class="l"
			  d="M854.772,289.039c2.551-7.344-1.616-17.605-9.76-15.817s-12.948,4.414-15.788-5.458c-2.263-7.862-12.246-12.674-22.779-8.167-13.477,5.766-4.237,12.862-11.819,13.545s-14.93,2.177-11.029,11.9,15.169,13.759,25.642,7.945,9.45,2.921,15.741,2.644C833.927,295.243,854.772,289.039,854.772,289.039Z"/>
		<path class="k"
			  d="M839.06,298.6c-3.479,9.172-.459,18.822,6.745,21.554s15.863-2.489,19.341-11.661.458-18.822-6.745-21.554S842.537,289.427,839.06,298.6Z"/>
		<path class="k"
			  d="M840.1,309.394l8.29,9.864s-.663,5.393-.694,6.152c-.129,3.2-4.238,3.083-6.689.155a24.764,24.764,0,0,1-3.718-6.23Z"/>
		<path class="q"
			  d="M866.181,306.827c-2.419-1.158-15.021-9.932-15.7-13.047-2.089,6.029-13.635,9.508-14.189,7.3-.115-12.624,6.475-20.949,19.764-18.824C874.282,285.174,866.181,306.827,866.181,306.827Z"/>
		<path class="m" d="M848.594,305.622a1.545,1.545,0,1,0,1.2-1.828A1.544,1.544,0,0,0,848.594,305.622Z"/>
		<path class="m" d="M858.769,309.244a1.45,1.45,0,1,0,1.125-1.715A1.451,1.451,0,0,0,858.769,309.244Z"/>
		<path class="q"
			  d="M863.578,307.763a.51.51,0,0,0,.18-.046.646.646,0,0,0,.295-.814,4,4,0,0,0-3.246-2.686.574.574,0,0,0-.589.579.615.615,0,0,0,.524.666,2.865,2.865,0,0,1,2.282,1.914A.565.565,0,0,0,863.578,307.763Z"/>
		<path class="q"
			  d="M848.2,302.358a.469.469,0,0,1-.1-.15.644.644,0,0,1,.306-.809,4.006,4.006,0,0,1,4.212.081.576.576,0,0,1,.069.823.616.616,0,0,1-.832.163,2.867,2.867,0,0,0-2.978-.038A.567.567,0,0,1,848.2,302.358Z"/>
		<path class="j"
			  d="M857.376,309.844a13.29,13.29,0,0,0,.368,2.847.533.533,0,0,1-.311.66c-1.074.422-2.88.02-3.941-.285a.142.142,0,0,1,.034-.278,6.9,6.9,0,0,0,2.495-.452.638.638,0,0,0,.36-.446c.1-.455.306-1.375.529-2.1A.239.239,0,0,1,857.376,309.844Z"/>
		<path class="k"
			  d="M841.111,303.521c.933,2.11.289,4.439-1.437,5.2s-3.884-.329-4.816-2.439-.29-4.438,1.438-5.2S840.177,301.412,841.111,303.521Z"/>
		<path class="j"
			  d="M838.7,306.907a.5.5,0,0,0,.211-.1,2.281,2.281,0,0,0,.88-2.66,2.43,2.43,0,0,0-2.344-1.559.5.5,0,0,0,.063,1.007,1.436,1.436,0,0,1,1.338.914,1.289,1.289,0,0,1-.563,1.507.505.505,0,0,0-.082.709A.5.5,0,0,0,838.7,306.907Z"/>
		<path class="w"
			  d="M840.519,385.053c-20.972.242-38.395-11.343-38.395-11.343.962-2.42,3.523-7.324,10.359-14.359,1.745-7.461,5.42-24.717,6.663-28.929,6.277-10.21,8.37-6.881,8.325-12.806l9.94,1.365s1.786,6.8,7.273,8.044c3.426.777,3.086-2.961,3.086-2.961a71.428,71.428,0,0,1,6.13,5.282s2.947,12.865,2.129,16.428c-1.5,6.492-11.7,23.949-11.7,23.949S840.362,383.186,840.519,385.053Z"/>
		<path class="k"
			  d="M781.988,367.12c-.14-2.453-.054-6,1.321-5.781,2.212.347,2.937,1.184,4.58,1.632,1.456.4.76-2.318-4.379-6.576l.2-1.972-5.3-1.738-.146.928c-3.5,1.954-5.346,6.9-3.436,12.038C775.647,367.848,782.172,370.39,781.988,367.12Z"/>
		<path class="u"
			  d="M834.118,321.155c-7.1-7.092-19.877-4.564-42.334.847a33.577,33.577,0,0,0,1.479,11.627s21.313,1.038,27.4.454C835.28,332.681,837.543,324.576,834.118,321.155Z"/>
		<path class="u"
			  d="M784.45,355.364l15.043-22.044s-4.731-8.7-7.709-11.318a86.727,86.727,0,0,0-14.251,30.5A17.711,17.711,0,0,0,784.45,355.364Z"/>
		<path class="v"
			  d="M883.205,479.179c-7.509,5.75-18.574,8.142-22.653,8.819a2.87,2.87,0,0,1-3.29-2.29c-.405-2.113-.852-4.743-1.039-6.366-.037-.319-.063-.6-.078-.828l7.062-3.561.285-.143a6.136,6.136,0,0,0,3.484,1.609,8.817,8.817,0,0,0,1.188.074,13.32,13.32,0,0,0,1.589-.106c.4-.047.79-.108,1.183-.173C875.071,475.51,882.056,473.7,883.205,479.179Z"/>
		<path class="c"
			  d="M868.164,476.493l.051,2.078a.593.593,0,1,1-1.186.029l-.053-2.181A8.817,8.817,0,0,0,868.164,476.493Z"/>
		<path class="c"
			  d="M870.936,476.214l.039,1.572a.592.592,0,1,1-1.184.032l-.038-1.431C870.149,476.34,870.543,476.279,870.936,476.214Z"/>
		<path class="u"
			  d="M826.811,383.693l-.889-.216c3.994-9.275,12.339-24.436,17.329-33.731.455-.848.882-1.643,1.275-2.377,4.544-8.478.618-20.163.581-20.277l.96-.022a31.866,31.866,0,0,1,1.485,7.074c.35,3.679.248,9.033-2.227,13.655-.394.733-.82,1.528-1.275,2.374C839.065,359.456,830.788,374.454,826.811,383.693Z"/>
		<path class="c"
			  d="M848.581,314.1a.387.387,0,0,1,.558-.42,22.559,22.559,0,0,0,5.985,2.851.388.388,0,0,1,.025.7,4.166,4.166,0,0,1-6.568-3.129Z"/>
		<path class="t"
			  d="M974.583,318.578c-10.9,6.345.279,34.784,11.636,43.711,0,0,13.77-2.257,10.819-7.946C988.645,338.169,983.116,313.61,974.583,318.578Z"/>
		<path class="t"
			  d="M1029.368,363.742l-34-12.129a60.825,60.825,0,0,0-9.149,10.676c5.423,3.735,15.374,7.813,40.134,8.907C1028.094,369.311,1029.368,363.742,1029.368,363.742Z"/>
		<path class="k" d="M965.439,301.936h.006l5.569.951-.462,14.139L963,318.609l-6.37-4.554,3.326-13.013Z"/>
		<path class="k"
			  d="M955.932,290.7c-.327,9.756,5.62,17.872,13.284,18.128s14.139-7.445,14.463-17.2-5.62-17.872-13.282-18.129S956.259,280.944,955.932,290.7Z"/>
		<path class="j"
			  d="M974.189,293.962c1.08,2.027,2.454,4.5,2.454,4.5a3.5,3.5,0,0,1-3.557,1.84c1.176-.394,2.36-1.084,2-2.641S974.189,293.962,974.189,293.962Z"/>
		<path class="l"
			  d="M954.122,282.51c.7-9.23,9.566-10.819,9.566-10.819s-1.764-.971-.849-3.645a7.4,7.4,0,0,0,4.306,1.784c10.57.706,16.829,3.509,15.114,7.41-.61,1.389,6.01,3.258,1.4,12.379-.453-1.244-.319-5.6-2.184-6.882s-1.224,2.248-5.728.963c-4.547-1.3-7.242-3.721-10.925-2.455-2.974,1.208-8.2,11.716-8.171,12.5C956.587,291.949,953.811,286.566,954.122,282.51Z"/>
		<path class="m" d="M968.725,292.468a1.343,1.343,0,1,1,1.469-1.2A1.342,1.342,0,0,1,968.725,292.468Z"/>
		<path class="m" d="M979.735,293.892a1.344,1.344,0,1,1,1.468-1.2A1.343,1.343,0,0,1,979.735,293.892Z"/>
		<path class="l"
			  d="M982.4,291.494a.665.665,0,0,1-.539-.382,1.989,1.989,0,0,0-1.128-1.146,2.406,2.406,0,0,0-1.674.21.666.666,0,0,1-.649-1.164,3.748,3.748,0,0,1,2.725-.317,3.249,3.249,0,0,1,1.933,1.853.666.666,0,0,1-.322.886A.656.656,0,0,1,982.4,291.494Z"/>
		<path class="l"
			  d="M966.091,289.856a.675.675,0,0,1-.4-.186.667.667,0,0,1-.009-.943,4.168,4.168,0,0,1,3.041-1.477,3.265,3.265,0,0,1,2.209.977.667.667,0,0,1-.988.9,1.923,1.923,0,0,0-1.267-.54,2.951,2.951,0,0,0-2.044,1.076A.66.66,0,0,1,966.091,289.856Z"/>
		<path class="k"
			  d="M958.137,290.081c1.379,1.835,1.281,4.237-.22,5.366s-3.836.558-5.217-1.276-1.281-4.237.22-5.367S956.756,288.247,958.137,290.081Z"/>
		<path class="j"
			  d="M955.885,294.45a.505.505,0,0,0,.208-.1,2.267,2.267,0,0,0,.9-2.639,2.415,2.415,0,0,0-2.319-1.571.5.5,0,1,0,.055,1,1.433,1.433,0,0,1,1.324.921,1.286,1.286,0,0,1-.572,1.5.5.5,0,0,0,.407.888Z"/>
		<path class="j"
			  d="M972.687,305.525a7.721,7.721,0,0,1-5.613-2.916.55.55,0,1,1,.883-.656h0c.128.171,3.18,4.16,7.635,1.638a.551.551,0,0,1,.543.958A6.933,6.933,0,0,1,972.687,305.525Z"/>
		<path class="k" d="M974.559,473.163l1.56,6,8.764-2.91L984.7,471.9Z"/>
		<path class="k" d="M914.952,476.653l1.263-5.614,9.767.624-2.193,4.519Z"/>
		<path class="v"
			  d="M984.875,476.027c4.753,7.261,17.251,2.335,16.387,11.809-18.991-1.023-26.891-1.275-26.891-1.275a69.666,69.666,0,0,1,1.284-9.342Z"/>
		<path class="v"
			  d="M923.747,475.736c4.373,7.495,17.575,3.423,16.223,12.84l-26.789-1.818a39.328,39.328,0,0,1,1.765-10.1Z"/>
		<path class="v"
			  d="M965.329,367.35l-24.761,13.918s21.6,38.1,33.724,49.742c2.11,2.028,13.77-1.548,14.545-4.07C991.662,417.75,965.329,367.35,965.329,367.35Z"/>
		<path class="v"
			  d="M972.273,426.134c-4.235,17.454.9,48.314.9,48.314s7.816.273,13.749-2.1c-.647-29.752,3.248-39.726,1.772-50.557C985.021,415.249,975.527,416.439,972.273,426.134Z"/>
		<path class="l"
			  d="M959.951,373.476,931.576,372.2s-1.8,43.76,2.335,60.052c.72,2.837,9.844,6.467,11.835,4.735C953,430.681,959.951,373.476,959.951,373.476Z"/>
		<path class="l"
			  d="M933.8,425.142c-11.5,13.8-19.062,45.294-19.062,45.294s5.66,4.291,12.031,4.775c14.879-25.92,16.993-33.863,21.476-42.772C951.174,423.851,940.995,417.875,933.8,425.142Z"/>
		<path class="o"
			  d="M938.861,314.149a26.929,26.929,0,0,1,18.283-1.436c9.616,7.913,13.426,3.789,13.426,3.789a24.692,24.692,0,0,1,8.378,2.107c1.017,20.221-3.885,62.138-3.885,62.138s-14.773,2.6-25.762,0a123.533,123.533,0,0,1-20.567-7.361S936,325.858,938.861,314.149Z"/>
		<path class="t"
			  d="M952.21,316.121c-9.6-13.237-29.274,9.729-39.261,20.378,0,0,.881,13.412,10.668,12.956C931.3,346.8,958.011,324.117,952.21,316.121Z"/>
		<path class="j"
			  d="M890.5,390.122c.254-4.064,5.085-6.422,5.31-4.949a13.373,13.373,0,0,1-.427,4.3c1.125.557,6.307-1.4,4-7.961l3.114-2.971-6.084-5.23-1.613,3.826c-7.958,1.983-9.714,4.723-10,11.028C884.517,394.365,890.26,393.944,890.5,390.122Z"/>
		<path class="t"
			  d="M903.176,382.324l21.958-34.063s-7.672-5.833-12.185-11.762c-5.066,5.644-9.147,15.1-18.323,38.124C895.834,376.887,903.176,382.324,903.176,382.324Z"/>
		<path class="k"
			  d="M889.419,388.741a1.175,1.175,0,0,1,.359.077c0-.02,0-.041,0-.063.051-1.259.823-2.25,1.729-2.215a1.263,1.263,0,0,1,.424.1,1.69,1.69,0,0,1,1.521-1.218,1.264,1.264,0,0,1,.7.26,1.686,1.686,0,0,1,1.6-1.27,1.978,1.978,0,0,1-.16,3.9,1.437,1.437,0,0,1-.637-.183c-.165,1.086-.875,1.894-1.694,1.86a1.2,1.2,0,0,1-.423-.1,1.687,1.687,0,0,1-1.52,1.218,1.255,1.255,0,0,1-.661-.226,1.443,1.443,0,0,1-1.375,1.152,1.671,1.671,0,0,1,.133-3.289Z"/>
		<path class="k" d="M725.161,453.692l.813,5.073,8.506-2.215-.078-4.286Z"/>
		<path class="v"
			  d="M734.512,456c4.562,6.967,16.6,1.821,15.768,10.913l-25.959-.009a79.1,79.1,0,0,1,1.341-9.762Z"/>
		<path class="v"
			  d="M717.853,355.5l-20.929,11.764s18.258,32.2,28.505,42.044c1.783,1.714,11.64-1.31,12.295-3.44C740.111,398.1,717.853,355.5,717.853,355.5Z"/>
		<path class="v"
			  d="M723.723,405.189c-4.986,16.387.269,49.589.269,49.589s6.607.232,11.622-1.775c-.548-25.146,3.237-42.331,1.991-51.487C734.5,395.99,726.473,397,723.723,405.189Z"/>
		<path class="l"
			  d="M713.308,360.681l-23.984-1.074s-1.523,36.987,1.974,50.756c.609,2.4,8.321,5.465,10,4C707.434,409.033,713.308,360.681,713.308,360.681Z"/>
		<path class="l"
			  d="M700.095,415.735c-2.85,1.631-6.45,4.269-11.121,7.55l-2.253-18.256a22.662,22.662,0,0,1,6.6-1.178C701.786,402.091,706.165,411.053,700.095,415.735Z"/>
		<path class="k"
			  d="M760.536,309.531c-1.081,1.263-2.994,4.2-4.292,5.609l-4.055-2.087c-1.283-5.158,1.06-10.543,1.262-11.194.527-1.691.67-2.519.94-2.557s1.888.159,1.2,2.645c-.863,3.119,2.573,3.305,5.35-3.081.7-1.6,2.846-1.578,2.93.051C763.966,300.711,765.457,303.784,760.536,309.531Z"/>
		<path class="s"
			  d="M731.982,328.709c-.952,2.526,2.348,12.983,3.279,12.824,10.324-5.658,21.546-26.556,21.546-26.556l-5.645-3.525A97.163,97.163,0,0,1,731.982,328.709Z"/>
		<path class="s"
			  d="M710.507,315.222c3.909,6.841,21.928,25.943,24.754,26.311l.986-13.442s-13.539-20.851-16.3-24.285C715.19,297.849,704.1,304.065,710.507,315.222Z"/>
		<rect class="x" width="17.896" height="4.38" rx="1.134" transform="translate(751.633 310.145) rotate(-57.228)"/>
		<path class="y"
			  d="M1.133,0H16.762A1.133,1.133,0,0,1,17.9,1.133V3.246A1.134,1.134,0,0,1,16.762,4.38H1.134A1.134,1.134,0,0,1,0,3.246V1.133A1.133,1.133,0,0,1,1.133,0Z"
			  transform="translate(750.849 309.632) rotate(-57.228)"/>
		<path class="k"
			  d="M760.144,305.167c.2-.965-.088-4.983,1.133-4.97.3.105.41.7.41.7.174-.6.526-3.212,1.5-2.75.828.724.7,1.292.7,1.292Z"/>
		<path class="j"
			  d="M717,304.22c1.2,2.078-10.456,2.6-11.456-1.52s2.885-14.974,2.885-14.974l10.261,4.036S715.441,301.515,717,304.22Z"/>
		<path class="k"
			  d="M705.184,278.869c-.135,9.5,5.8,17.287,13.264,17.393s13.62-7.509,13.755-17.009-5.8-17.287-13.264-17.393S705.319,269.368,705.184,278.869Z"/>
		<path class="m" d="M728.088,282.419a1.406,1.406,0,1,0,.683-1.868A1.405,1.405,0,0,0,728.088,282.419Z"/>
		<path class="m" d="M718.72,281.245a1.523,1.523,0,1,0,.74-2.023A1.524,1.524,0,0,0,718.72,281.245Z"/>
		<path class="j"
			  d="M725.387,282.369c.5,2.178,1.155,4.855,1.155,4.855a3.406,3.406,0,0,1-3.81.821c1.205-.07,2.494-.416,2.552-1.971S725.387,282.369,725.387,282.369Z"/>
		<path class="l"
			  d="M728.209,279.183a.541.541,0,0,0,.534-.035,1.564,1.564,0,0,1,1.138-.2,1.759,1.759,0,0,1,1.018,1.042.54.54,0,1,0,.974-.466,2.763,2.763,0,0,0-1.715-1.619,2.666,2.666,0,0,0-2.014.346A.54.54,0,0,0,728,279,.532.532,0,0,0,728.209,279.183Z"/>
		<path class="l"
			  d="M721.083,278.285a.544.544,0,0,1-.522-.117,1.556,1.556,0,0,0-1.093-.375,1.76,1.76,0,0,0-1.168.872.54.54,0,0,1-.89-.61,2.769,2.769,0,0,1,1.945-1.336,2.66,2.66,0,0,1,1.936.653.54.54,0,0,1-.208.913Z"/>
		<path class="c"
			  d="M725.6,291.413a.413.413,0,0,0-.191-.736,29.317,29.317,0,0,1-7.51-2.065.414.414,0,0,0-.541.535,5.161,5.161,0,0,0,8.242,2.266Z"/>
		<path class="q"
			  d="M707.622,283.235c.769-3.391,2.243-3.321,4.765-6.529,1.329-4.4,3.834-7.056,7.367-4.406,3.627,2.72,6.794,2.936,8.6,2,4.2-2.176,3.848,4.6,3.848,4.6s4.252-7.107,1.8-11c-3.49-5.559-5.437-2.8-9.36-6.626s-10.906-3.427-12.869-.946c-2.068,2.615-1.934,3.7-6.372,4.86s-7.75,5.73-5.009,10.815-4.364,6.137.968,11.462c2.067,2.065,5.672,2.763,6.533,2.046C707,287.726,707.127,285.422,707.622,283.235Z"/>
		<path class="k"
			  d="M710.426,279.123c1,2,.482,4.282-1.154,5.1s-3.771-.141-4.769-2.139-.482-4.282,1.153-5.1S709.427,277.125,710.426,279.123Z"/>
		<path class="j"
			  d="M707.774,282.7a.389.389,0,0,1-.116-.08.393.393,0,0,1,0-.557c.562-.569.792-1.083.684-1.526-.179-.74-1.257-1.242-1.658-1.373a.394.394,0,1,1,.244-.749c.077.024,1.862.623,2.181,1.935a2.437,2.437,0,0,1-.891,2.267A.394.394,0,0,1,707.774,282.7Z"/>
		<path class="p"
			  d="M724.433,364.364c-8.341.568-32.451,3.736-39.767-.311-2.358-4.585,2.175-25.849,3.425-34.4,3.565-24.386,5.7-31.211,17.3-32.128,2.6,1.645,8.912,3.66,11.958,4.093,0,0,5.621,10.518,6.034,17.662.419,7.247-1.111,19.823-1.949,27.031C720.5,354.318,724.074,359.194,724.433,364.364Z"/>
		<path class="s" d="M676.425,321.517s18.781-27.049,26.627-22.575c5.989,4.864-7.993,23.723-24.911,36.5Z"/>
		<path class="y"
			  d="M7.559,0H60.482a7.56,7.56,0,0,1,7.56,7.56V30.143A7.559,7.559,0,0,1,60.483,37.7H7.56A7.56,7.56,0,0,1,0,30.143V7.559A7.559,7.559,0,0,1,7.559,0Z"
			  transform="translate(1114.635 213.258)"/>
		<path class="c" d="M1124.271,249.271v14.035a1.068,1.068,0,0,0,2.022.485l7.377-14.52Z"/>
		<path class="a"
			  d="M1123.5,225.041h49.661a3.46,3.46,0,0,0,3.46-3.458h0a3.46,3.46,0,0,0-3.46-3.458H1123.5a3.455,3.455,0,0,0-3.455,3.458h0A3.455,3.455,0,0,0,1123.5,225.041Z"/>
		<path class="a"
			  d="M1123.5,236.01h49.661a3.46,3.46,0,0,0,3.46-3.457h0a3.46,3.46,0,0,0-3.46-3.458H1123.5a3.455,3.455,0,0,0-3.455,3.458h0A3.455,3.455,0,0,0,1123.5,236.01Z"/>
		<path class="z"
			  d="M2.95,0H34.82a2.951,2.951,0,0,1,2.951,2.951V3.965a2.95,2.95,0,0,1-2.95,2.95H2.951A2.951,2.951,0,0,1,0,3.965V2.95A2.95,2.95,0,0,1,2.95,0Z"
			  transform="translate(1120.048 240.064)"/>
		<path class="aa" d="M1002.342,217.239a14.016,14.016,0,1,1-17.74-8.845A14.015,14.015,0,0,1,1002.342,217.239Z"/>
		<path class="c" d="M981.836,219.453a2.359,2.359,0,1,1-1.489,2.986A2.358,2.358,0,0,1,981.836,219.453Z"/>
		<path class="c" d="M993.226,215.642a2.359,2.359,0,1,1-1.49,2.986A2.359,2.359,0,0,1,993.226,215.642Z"/>
		<path class="c"
			  d="M984.531,227.1a1.408,1.408,0,0,0-.341.169c-.478.326-.6.862-.263,1.195,1.635,1.648,4.6,2.13,7.377,1.2,2.7-.9,4.714-2.932,5.135-5.17.086-.466-.307-.839-.882-.832a1.219,1.219,0,0,0-1.2.858,5.615,5.615,0,0,1-8.705,2.762A1.111,1.111,0,0,0,984.531,227.1Z"/>
		<path class="aa" d="M1185.836,346.342a14.016,14.016,0,1,1-8.359-17.973A14.014,14.014,0,0,1,1185.836,346.342Z"/>
		<path class="c" d="M1168.426,335.293a2.359,2.359,0,1,1-3.026,1.406A2.36,2.36,0,0,1,1168.426,335.293Z"/>
		<path class="c" d="M1179.7,339.412a2.359,2.359,0,1,1-3.026,1.407A2.364,2.364,0,0,1,1179.7,339.412Z"/>
		<path class="c"
			  d="M1165.765,342.955a1.405,1.405,0,0,0-.376-.081c-.574-.043-1,.3-.949.77.252,2.308,2.269,4.532,5.021,5.537,2.672.976,5.51.646,7.233-.842a.76.76,0,0,0-.167-1.2,1.223,1.223,0,0,0-1.47-.077,5.135,5.135,0,0,1-5.038.587,5.076,5.076,0,0,1-3.492-3.852A1.123,1.123,0,0,0,1165.765,342.955Z"/>
		<path class="c" d="M1047.833,255.163a13.553,13.553,0,1,1-6.6-17.994A13.552,13.552,0,0,1,1047.833,255.163Z"/>
		<path class="ab" d="M1031.948,243.107a2.282,2.282,0,1,1-3.029,1.112A2.283,2.283,0,0,1,1031.948,243.107Z"/>
		<path class="ab" d="M1042.484,247.989a2.281,2.281,0,1,1-3.029,1.111A2.28,2.28,0,0,1,1042.484,247.989Z"/>
		<path class="ab"
			  d="M1028.763,250.275a1.332,1.332,0,0,0-.352-.108c-.551-.088-.989.211-.978.665.055,2.243,1.82,4.55,4.391,5.741a7.123,7.123,0,0,0,7.039-.226.734.734,0,0,0-.067-1.17,1.181,1.181,0,0,0-1.411-.192,5.427,5.427,0,0,1-7.952-3.837A1.076,1.076,0,0,0,1028.763,250.275Z"/>
		<path class="c" d="M640.459,337.96a12.172,12.172,0,1,1-16.047-6.227A12.172,12.172,0,0,1,640.459,337.96Z"/>
		<path class="ab" d="M622.906,341.516a2.05,2.05,0,1,1-1.049,2.7A2.049,2.049,0,0,1,622.906,341.516Z"/>
		<path class="ab" d="M632.448,337.309a2.049,2.049,0,1,1-1.048,2.7A2.051,2.051,0,0,1,632.448,337.309Z"/>
		<path class="ab"
			  d="M625.848,347.916a1.2,1.2,0,0,0-.282.173.674.674,0,0,0-.132,1.055c1.546,1.292,4.148,1.473,6.476.447a6.4,6.4,0,0,0,4.025-4.881c.039-.409-.333-.7-.828-.649a1.062,1.062,0,0,0-.968.838,4.874,4.874,0,0,1-7.306,3.084A.962.962,0,0,0,625.848,347.916Z"/>
		<path class="ab"
			  d="M1305.732,431.663l5.606,17.829a1.288,1.288,0,0,1-.842,1.615l-30.984,9.742a1.287,1.287,0,0,1-1.615-.844l-5.607-17.827a1.288,1.288,0,0,1,.843-1.615l30.984-9.742A1.29,1.29,0,0,1,1305.732,431.663Z"/>
		<path class="c"
			  d="M1305.732,431.663l.311.986-10.929,14.578a4.11,4.11,0,0,1-4.625,1.5l-18.022-5.984-.177-.563a1.292,1.292,0,0,1,.843-1.617l30.984-9.74A1.291,1.291,0,0,1,1305.732,431.663Z"/>
		<path class="ab"
			  d="M1098.119,182.76l-7.283,18.808a1.389,1.389,0,0,1-1.8.8l-32.689-12.658a1.391,1.391,0,0,1-.8-1.8l7.285-18.809a1.39,1.39,0,0,1,1.8-.795l32.688,12.658A1.391,1.391,0,0,1,1098.119,182.76Z"/>
		<path class="c"
			  d="M1098.119,182.76l-.4,1.039-19.036,4.93a4.43,4.43,0,0,1-4.909-1.852l-11.163-17.186.23-.594a1.39,1.39,0,0,1,1.8-.794l32.687,12.657A1.392,1.392,0,0,1,1098.119,182.76Z"/>
		<path class="c"
			  d="M882.774,298.829a2.969,2.969,0,0,1,.071-1.283c.531-4.005,6.12-4.682,13.971-6.223,1.312-.258.291-1.678-.756-5-.682-2.16.166-5.8,2.574-6.218,3.971-.683.688,3.092,5.526,10.2,2.585,3.8,6.381.767,7.093,4.906l1.621,9.42c.278,1.611.384,3.187-1.847,3.833-2.164.627-1.4,2.107-4.58,2.654l-15.928,2.742a2.982,2.982,0,0,1-3.446-2.424,2.93,2.93,0,0,1,.31-1.88,2.923,2.923,0,0,1-1.646-4.163,2.944,2.944,0,0,1-1.468-4.486,2.956,2.956,0,0,1-1.495-2.078Z"/>
		<path class="d"
			  d="M893.816,299.944l-7.595,1.307a3,3,0,0,1-2.778-1,.783.783,0,0,1,1.194-1.013,1.428,1.428,0,0,0,1.32.475l7.777-1.339a1.411,1.411,0,1,0-.479-2.782l-5.2.894a.78.78,0,1,1-.265-1.538l5.2-.894a2.982,2.982,0,0,1,3.447,2.423,2.948,2.948,0,0,1-.679,2.418,2.94,2.94,0,0,1,.557,4.359,2.952,2.952,0,0,1,.4,4.527,2.943,2.943,0,0,1,1.086,1.808,2.982,2.982,0,0,1-2.438,3.435l-4.841.834a3,3,0,0,1-2.777-1,.777.777,0,0,1,.086-1.1.788.788,0,0,1,1.106.086,1.431,1.431,0,0,0,1.32.475l4.841-.833a1.412,1.412,0,1,0-.478-2.783l-5.744.989a3,3,0,0,1-2.778-1,.782.782,0,0,1,1.192-1.014,1.411,1.411,0,0,0,1.322.475l6.234-1.072a1.412,1.412,0,1,0-.48-2.783l-7.141,1.229a3.007,3.007,0,0,1-2.778-1,.778.778,0,0,1,.087-1.1.787.787,0,0,1,1.106.085,1.405,1.405,0,0,0,1.319.475l7.338-1.262a1.412,1.412,0,1,0-.478-2.784Z"/>
		<path class="d"
			  d="M913.347,308.8l4.959-.853a1.261,1.261,0,0,0,1.029-1.458L916.8,291.748a1.264,1.264,0,0,0-1.458-1.03l-4.959.854a1.26,1.26,0,0,0-1.029,1.458l2.536,14.738A1.262,1.262,0,0,0,913.347,308.8Z"/>
		<path class="a"
			  d="M1230.64,183.647a2.946,2.946,0,0,0,.017-1.284c-.252-4.033-5.779-5.1-13.505-7.18-1.292-.347-.176-1.693,1.1-4.934.832-2.107.236-5.8-2.135-6.381-3.911-.958-.9,3.037-6.224,9.79-2.838,3.609-6.416.322-7.414,4.4l-2.27,9.285c-.391,1.587-.606,3.152,1.578,3.952,2.113.776,1.244,2.2,4.383,2.966l15.7,3.841a2.958,2.958,0,0,0,3.429-4.075,2.928,2.928,0,0,0,1.931-4.038,2.947,2.947,0,0,0,1.776-4.373,2.954,2.954,0,0,0,1.636-1.97Z"/>
		<path class="d"
			  d="M1219.545,183.993l7.485,1.832a3.011,3.011,0,0,0,2.843-.8.783.783,0,0,0-1.121-1.094,1.427,1.427,0,0,1-1.352.382l-7.662-1.875a1.412,1.412,0,1,1,.671-2.743l5.124,1.253a.78.78,0,1,0,.37-1.515l-5.124-1.254a2.98,2.98,0,0,0-3.605,2.178,2.926,2.926,0,0,0,.51,2.46,2.933,2.933,0,0,0-.859,4.309,2.954,2.954,0,0,0-.714,4.489,2.929,2.929,0,0,0-1.206,1.728,2.98,2.98,0,0,0,2.194,3.6l4.769,1.168a3,3,0,0,0,2.839-.8.774.774,0,0,0-.011-1.1.784.784,0,0,0-1.105.009,1.433,1.433,0,0,1-1.352.382l-4.77-1.167a1.412,1.412,0,1,1,.671-2.743l5.66,1.385a3,3,0,0,0,2.838-.8.782.782,0,0,0-1.116-1.1,1.411,1.411,0,0,1-1.352.384l-6.143-1.5a1.412,1.412,0,1,1,.671-2.743l7.039,1.722a3,3,0,0,0,2.838-.8.774.774,0,0,0-.011-1.1.782.782,0,0,0-1.1.009,1.414,1.414,0,0,1-1.352.382l-7.232-1.77a1.412,1.412,0,1,1,.67-2.743Z"/>
		<path class="d"
			  d="M1199.447,191.468l-4.887-1.2a1.268,1.268,0,0,1-.928-1.526l3.557-14.526a1.26,1.26,0,0,1,1.523-.926l4.888,1.2a1.26,1.26,0,0,1,.928,1.526l-3.557,14.526A1.259,1.259,0,0,1,1199.447,191.468Z"/>
		<path class="c" d="M1040.984,397.5a8.677,8.677,0,1,1-8.678-8.677A8.678,8.678,0,0,1,1040.984,397.5Z"/>
		<path class="c" d="M830.626,181.236a6.154,6.154,0,1,1,0-8.7A6.154,6.154,0,0,1,830.626,181.236Z"/>
		<path class="a" d="M1327.863,332.138a6.154,6.154,0,1,1,0-8.7A6.157,6.157,0,0,1,1327.863,332.138Z"/>
		<path class="a" d="M1045.876,172.559a6.153,6.153,0,1,1,0-8.7A6.152,6.152,0,0,1,1045.876,172.559Z"/>
		<path class="c"
			  d="M1050.713,379.746a3.947,3.947,0,1,0,3.948,3.947,3.95,3.95,0,0,0-3.948-3.947Zm0,10.343a6.4,6.4,0,1,1,6.4-6.4A6.4,6.4,0,0,1,1050.713,390.089Z"/>
		<path class="a"
			  d="M1315.432,344.477a4.988,4.988,0,1,0,4.984,4.99,5,5,0,0,0-4.984-4.99Zm0,13.071a8.083,8.083,0,1,1,8.08-8.081A8.093,8.093,0,0,1,1315.432,357.548Z"/>
	</g>
</svg>
