<svg width="75" height="64" viewBox="0 0 75 64" fill="none" xmlns="http://www.w3.org/2000/svg">
	<g clip-path="url(#clip0_5750_22337)">
		<path
			d="M5.60004 58.7331C6.02981 58.8842 6.49123 58.922 6.93987 58.843C7.38851 58.7639 7.80923 58.5707 8.16151 58.2819C9.05866 57.5288 9.34 56.2886 9.56881 55.1399L10.2458 51.7422L8.8285 52.7181C7.80922 53.4199 6.76705 54.1442 6.06137 55.1607C5.35569 56.1772 5.04783 57.5649 5.61465 58.6648"
			fill="#E6E6E6"/>
		<path
			d="M5.81982 63.0819C5.64144 61.7823 5.4579 60.4659 5.58333 59.1524C5.69448 57.9858 6.0504 56.8466 6.775 55.9121C7.15961 55.4171 7.62761 54.993 8.15797 54.6588C8.29623 54.5716 8.42352 54.7907 8.28585 54.8776C7.36817 55.4575 6.65836 56.3139 6.25877 57.3233C5.81745 58.4457 5.74659 59.6693 5.82261 60.8616C5.86855 61.5827 5.96619 62.299 6.06425 63.0145C6.072 63.0468 6.06716 63.0809 6.05073 63.1098C6.0343 63.1388 6.00749 63.1604 5.97574 63.1703C5.94334 63.179 5.90881 63.1746 5.87964 63.158C5.85047 63.1415 5.829 63.1141 5.81991 63.0818L5.81982 63.0819Z"
			fill="#F2F2F2"/>
		<path
			d="M7.10352 60.9968C7.28781 61.277 7.54115 61.505 7.83915 61.6588C8.13715 61.8127 8.46976 61.8872 8.80491 61.8752C9.66642 61.8343 10.3843 61.2333 11.0306 60.6625L12.9424 58.9745L11.6771 58.9139C10.7672 58.8704 9.83382 58.8295 8.96716 59.1104C8.1005 59.3913 7.30124 60.0663 7.14279 60.9634"
			fill="#E6E6E6"/>
		<path
			d="M5.31549 63.8298C6.1743 62.3103 7.17035 60.6214 8.9503 60.0817C9.44517 59.9321 9.96407 59.8785 10.4791 59.9238C10.6414 59.9378 10.6008 60.188 10.4389 60.1741C9.57558 60.1024 8.71398 60.3303 7.99909 60.8195C7.31116 61.2878 6.7755 61.9388 6.32219 62.6291C6.04448 63.052 5.79574 63.4928 5.547 63.933C5.46752 64.0737 5.23509 63.9721 5.31549 63.8298Z"
			fill="#F2F2F2"/>
		<path
			d="M74.0323 45.0706H26.6851C26.5392 45.0704 26.3993 45.0124 26.2962 44.9092C26.193 44.806 26.135 44.6662 26.1348 44.5203V0.550312C26.135 0.404419 26.193 0.264555 26.2962 0.161393C26.3993 0.0582312 26.5392 0.000190719 26.6851 0H74.0323C74.1782 0.000190719 74.318 0.0582312 74.4212 0.161393C74.5243 0.264555 74.5824 0.404419 74.5826 0.550312V44.5202C74.5824 44.6661 74.5244 44.806 74.4212 44.9091C74.3181 45.0123 74.1782 45.0703 74.0323 45.0705V45.0706Z"
			fill="white"/>
		<path
			d="M74.0323 45.0706H26.6851C26.5392 45.0704 26.3993 45.0124 26.2962 44.9092C26.193 44.806 26.135 44.6662 26.1348 44.5203V0.550312C26.135 0.404419 26.193 0.264555 26.2962 0.161393C26.3993 0.0582312 26.5392 0.000190719 26.6851 0H74.0323C74.1782 0.000190719 74.318 0.0582312 74.4212 0.161393C74.5243 0.264555 74.5824 0.404419 74.5826 0.550312V44.5202C74.5824 44.6661 74.5244 44.806 74.4212 44.9091C74.3181 45.0123 74.1782 45.0703 74.0323 45.0705V45.0706ZM26.6851 0.219691C26.5976 0.219881 26.5138 0.2547 26.452 0.316526C26.3902 0.378353 26.3554 0.462154 26.3552 0.54959V44.5202C26.3554 44.6076 26.3902 44.6914 26.452 44.7532C26.5138 44.8151 26.5976 44.8499 26.6851 44.8501H74.0323C74.1197 44.8499 74.2035 44.8151 74.2654 44.7533C74.3272 44.6914 74.362 44.6076 74.3622 44.5202V0.550312C74.362 0.462876 74.3272 0.379075 74.2653 0.317248C74.2035 0.255422 74.1197 0.220603 74.0323 0.220413L26.6851 0.219691Z"
			fill="#CACACA"/>
		<path
			d="M49.0575 11.4258C48.9586 11.426 48.8637 11.4654 48.7938 11.5354C48.7238 11.6055 48.6846 11.7004 48.6846 11.7994C48.6846 11.8984 48.7238 11.9933 48.7938 12.0633C48.8637 12.1334 48.9586 12.1728 49.0575 12.173H69.5582C69.6572 12.1728 69.752 12.1334 69.822 12.0633C69.8919 11.9933 69.9312 11.8984 69.9312 11.7994C69.9312 11.7004 69.8919 11.6055 69.822 11.5354C69.752 11.4654 69.6572 11.426 69.5582 11.4258H49.0575Z"
			fill="#E4E4E4"/>
		<path
			d="M49.0573 13.668C48.9583 13.6682 48.8636 13.7077 48.7937 13.7777C48.7238 13.8478 48.6846 13.9426 48.6846 14.0416C48.6846 14.1405 48.7238 14.2354 48.7937 14.3054C48.8636 14.3755 48.9583 14.4149 49.0573 14.4152H59.5233C59.6222 14.4149 59.717 14.3755 59.7869 14.3054C59.8567 14.2354 59.896 14.1405 59.896 14.0416C59.896 13.9426 59.8567 13.8478 59.7869 13.7777C59.717 13.7077 59.6222 13.6682 59.5233 13.668H49.0573Z"
			fill="#E4E4E4"/>
		<path
			d="M31.1393 25.7227C31.0404 25.7229 30.9456 25.7624 30.8757 25.8324C30.8058 25.9024 30.7666 25.9973 30.7666 26.0963C30.7666 26.1952 30.8058 26.2901 30.8757 26.3601C30.9456 26.4302 31.0404 26.4696 31.1393 26.4699H69.5781C69.6771 26.4696 69.7719 26.4302 69.8417 26.3601C69.9116 26.2901 69.9508 26.1952 69.9508 26.0963C69.9508 25.9973 69.9116 25.9024 69.8417 25.8324C69.7719 25.7624 69.6771 25.7229 69.5781 25.7227H31.1393Z"
			fill="#E4E4E4"/>
		<path
			d="M31.1393 27.9648C31.0404 27.9651 30.9456 28.0046 30.8757 28.0746C30.8058 28.1446 30.7666 28.2395 30.7666 28.3385C30.7666 28.4374 30.8058 28.5323 30.8757 28.6023C30.9456 28.6724 31.0404 28.7118 31.1393 28.7121H59.5435C59.6424 28.7118 59.7372 28.6724 59.8071 28.6023C59.8769 28.5323 59.9162 28.4374 59.9162 28.3385C59.9162 28.2395 59.8769 28.1446 59.8071 28.0746C59.7372 28.0046 59.6424 27.9651 59.5435 27.9648H31.1393Z"
			fill="#E4E4E4"/>
		<path
			d="M31.1393 30.1562C31.0404 30.1565 30.9456 30.196 30.8757 30.266C30.8058 30.336 30.7666 30.4309 30.7666 30.5299C30.7666 30.6288 30.8058 30.7237 30.8757 30.7937C30.9456 30.8638 31.0404 30.9032 31.1393 30.9035H69.5781C69.6771 30.9032 69.7719 30.8638 69.8417 30.7937C69.9116 30.7237 69.9508 30.6288 69.9508 30.5299C69.9508 30.4309 69.9116 30.336 69.8417 30.266C69.7719 30.196 69.6771 30.1565 69.5781 30.1562H31.1393Z"
			fill="#E4E4E4"/>
		<path
			d="M31.1393 32.3984C31.0404 32.3987 30.9456 32.4381 30.8757 32.5082C30.8058 32.5782 30.7666 32.6731 30.7666 32.772C30.7666 32.871 30.8058 32.9659 30.8757 33.0359C30.9456 33.1059 31.0404 33.1454 31.1393 33.1457H59.5435C59.6424 33.1454 59.7372 33.1059 59.8071 33.0359C59.8769 32.9659 59.9162 32.871 59.9162 32.772C59.9162 32.6731 59.8769 32.5782 59.8071 32.5082C59.7372 32.4381 59.6424 32.3987 59.5435 32.3984H31.1393Z"
			fill="#E4E4E4"/>
		<path
			d="M31.1393 34.6484C31.0404 34.6487 30.9456 34.6881 30.8757 34.7582C30.8058 34.8282 30.7666 34.9231 30.7666 35.022C30.7666 35.121 30.8058 35.2159 30.8757 35.2859C30.9456 35.3559 31.0404 35.3954 31.1393 35.3957H69.5781C69.6771 35.3954 69.7719 35.3559 69.8417 35.2859C69.9116 35.2159 69.9508 35.121 69.9508 35.022C69.9508 34.9231 69.9116 34.8282 69.8417 34.7582C69.7719 34.6881 69.6771 34.6487 69.5781 34.6484H31.1393Z"
			fill="#E4E4E4"/>
		<path
			d="M31.1393 36.8906C31.0404 36.8909 30.9456 36.9303 30.8757 37.0004C30.8058 37.0704 30.7666 37.1653 30.7666 37.2642C30.7666 37.3632 30.8058 37.4581 30.8757 37.5281C30.9456 37.5981 31.0404 37.6376 31.1393 37.6378H59.5435C59.6424 37.6376 59.7372 37.5981 59.8071 37.5281C59.8769 37.4581 59.9162 37.3632 59.9162 37.2642C59.9162 37.1653 59.8769 37.0704 59.8071 37.0004C59.7372 36.9303 59.6424 36.8909 59.5435 36.8906H31.1393Z"
			fill="#E4E4E4"/>
		<path
			d="M37.2281 18.2882C36.1665 18.2882 35.1287 17.9734 34.246 17.3836C33.3632 16.7938 32.6752 15.9555 32.269 14.9746C31.8627 13.9938 31.7564 12.9145 31.9635 11.8733C32.1706 10.8321 32.6818 9.87562 33.4325 9.12493C34.1832 8.37423 35.1396 7.863 36.1809 7.65588C37.2221 7.44876 38.3014 7.55506 39.2822 7.96133C40.263 8.3676 41.1014 9.05559 41.6912 9.93831C42.281 10.821 42.5958 11.8588 42.5958 12.9205C42.5942 14.3436 42.0282 15.7079 41.0219 16.7142C40.0156 17.7205 38.6512 18.2866 37.2281 18.2882Z"
			fill="#00C6B5"/>
		<path
			d="M20.934 38.583C20.9247 38.3871 20.8726 38.1956 20.7813 38.022C20.69 37.8484 20.5617 37.6969 20.4056 37.5782C20.2494 37.4595 20.0691 37.3766 19.8774 37.3351C19.6857 37.2937 19.4872 37.2947 19.296 37.3383L17.5217 34.8379L15.7393 35.5455L18.2944 39.0414C18.3889 39.3578 18.5961 39.6286 18.8769 39.8024C19.1577 39.9763 19.4924 40.0411 19.8178 39.9846C20.1432 39.9281 20.4365 39.7542 20.6422 39.4959C20.8479 39.2375 20.9518 38.9127 20.934 38.583H20.934Z"
			fill="#A0616A"/>
		<path
			d="M17.476 38.3989L12.1074 31.4343L14.119 25.1123C14.2664 23.5229 15.261 23.079 15.3033 23.0609L15.3679 23.0332L17.1183 27.7011L15.8331 31.1284L18.9876 36.4339L17.476 38.3989Z"
			fill="#3F3D56"/>
		<path
			d="M36.1204 16.9296C35.9258 16.954 35.7389 17.0207 35.5729 17.1252C35.4069 17.2296 35.2658 17.3692 35.1596 17.5341C35.0533 17.699 34.9845 17.8851 34.958 18.0795C34.9315 18.2738 34.9479 18.4716 35.0061 18.6589L32.6504 20.6212L33.4937 22.3436L36.7815 19.5258C37.0897 19.4072 37.3437 19.1796 37.4953 18.8862C37.6469 18.5929 37.6856 18.2541 37.6041 17.934C37.5227 17.614 37.3266 17.335 37.0532 17.1499C36.7797 16.9648 36.4478 16.8864 36.1204 16.9296Z"
			fill="#A0616A"/>
		<path
			d="M36.2027 20.3903L29.6739 26.2813L23.2153 24.7646C21.6192 24.7405 21.0999 23.7832 21.0785 23.7424L21.0459 23.6802L25.5645 21.5741L29.0809 22.5905L34.1266 19.0352L36.2027 20.3903Z"
			fill="#3F3D56"/>
		<path d="M24.8939 62.27L26.648 62.2699L27.4824 55.5039L24.8936 55.504L24.8939 62.27Z" fill="#A0616A"/>
		<path
			d="M30.0312 63.8984L24.5183 63.8987L24.5182 61.7687L28.4845 61.7685C28.8947 61.7685 29.2881 61.9314 29.5782 62.2214C29.8682 62.5115 30.0312 62.9049 30.0312 63.3151L30.0312 63.8984L30.0312 63.8984Z"
			fill="#2F2E41"/>
		<path d="M17.883 62.27L19.6372 62.2699L20.4717 55.5039L17.8828 55.504L17.883 62.27Z" fill="#A0616A"/>
		<path
			d="M23.0205 63.8984L17.5075 63.8987L17.5074 61.7687L21.4737 61.7685C21.6768 61.7685 21.878 61.8085 22.0656 61.8862C22.2533 61.9639 22.4238 62.0778 22.5674 62.2214C22.711 62.3651 22.825 62.5356 22.9027 62.7232C22.9805 62.9109 23.0205 63.112 23.0205 63.3151L23.0205 63.8984Z"
			fill="#2F2E41"/>
		<path
			d="M17.2588 37.5723L17.4019 47.5879L17.545 60.7513L20.6927 60.4652L22.2667 42.294L24.2698 60.4652H27.5195L27.8468 42.1509L26.7022 38.1446L17.2588 37.5723Z"
			fill="#2F2E41"/>
		<path
			d="M23.4203 38.9176C19.9953 38.9179 16.8427 37.3677 16.8001 37.3465L16.7648 37.3288L16.4773 30.4311C16.394 30.1874 14.7528 25.3777 14.4749 23.8489C14.1932 22.3001 18.2748 20.9408 18.7705 20.7818L18.8829 19.5358L23.4569 19.043L24.0366 20.6372L25.6775 21.2525C25.8635 21.3224 26.0175 21.458 26.1102 21.6337C26.2029 21.8095 26.228 22.0131 26.1806 22.2061L25.2685 25.9149L27.496 38.1853L27.0164 38.2061C25.867 38.7252 24.6264 38.9176 23.4203 38.9176Z"
			fill="#3F3D56"/>
		<path
			d="M22.9288 17.8501C24.5247 16.9777 25.1113 14.9767 24.2388 13.3808C23.3664 11.7849 21.3655 11.1983 19.7695 12.0708C18.1736 12.9432 17.5871 14.9441 18.4595 16.5401C19.3319 18.136 21.3329 18.7225 22.9288 17.8501Z"
			fill="#A0616A"/>
		<path
			d="M18.6813 18.1494C19.3089 18.818 20.4745 18.4591 20.5563 17.5458C20.5627 17.4749 20.5622 17.4035 20.5549 17.3327C20.5127 16.9281 20.2789 16.5608 20.3349 16.1337C20.3476 16.0274 20.3872 15.926 20.45 15.8393C20.9501 15.1696 22.1241 16.1389 22.5961 15.5326C22.8856 15.1608 22.5454 14.5755 22.7674 14.16C23.0606 13.6116 23.9288 13.8822 24.4733 13.5818C25.0791 13.2477 25.0429 12.3182 24.6441 11.7529C24.1578 11.0634 23.3051 10.6955 22.463 10.6425C21.6209 10.5894 20.7847 10.8171 19.9985 11.1234C19.1053 11.4715 18.2195 11.9526 17.6699 12.738C17.0014 13.6932 16.9371 14.9773 17.2714 16.0941C17.4747 16.7736 18.1688 17.6035 18.6813 18.1494Z"
			fill="#2F2E41"/>
		<path
			d="M41.8464 63.9828H0.109546C0.0804922 63.9828 0.0526271 63.9712 0.0320834 63.9507C0.0115396 63.9301 0 63.9023 0 63.8732C0 63.8442 0.0115396 63.8163 0.0320834 63.7958C0.0526271 63.7752 0.0804922 63.7637 0.109546 63.7637H41.8464C41.8754 63.7637 41.9033 63.7752 41.9238 63.7958C41.9444 63.8163 41.9559 63.8442 41.9559 63.8732C41.9559 63.9023 41.9444 63.9301 41.9238 63.9507C41.9033 63.9712 41.8754 63.9828 41.8464 63.9828Z"
			fill="#CACACA"/>
		<path
			d="M36.9177 14.9483C36.8209 14.9484 36.7276 14.9118 36.6568 14.8458L34.8868 13.2018C34.8125 13.1326 34.7686 13.0367 34.7649 12.9351C34.7612 12.8336 34.798 12.7347 34.8671 12.6603C34.9363 12.5858 35.0322 12.5418 35.1337 12.538C35.2353 12.5342 35.3342 12.5709 35.4087 12.64L36.9079 14.0325L39.874 11.0665C39.9096 11.0306 39.9518 11.0022 39.9984 10.9827C40.045 10.9633 40.095 10.9532 40.1454 10.9531C40.1959 10.953 40.2459 10.9629 40.2926 10.9822C40.3392 11.0015 40.3816 11.0298 40.4173 11.0654C40.453 11.1011 40.4813 11.1435 40.5005 11.1902C40.5198 11.2368 40.5297 11.2868 40.5295 11.3373C40.5294 11.3878 40.5194 11.4378 40.4999 11.4843C40.4805 11.5309 40.452 11.5732 40.4162 11.6087L37.1889 14.836C37.1533 14.8717 37.111 14.8999 37.0644 14.9192C37.0179 14.9385 36.968 14.9484 36.9177 14.9483Z"
			fill="white"/>
	</g>
	<defs>
		<clipPath id="clip0_5750_22337">
			<rect width="74.5828" height="64" fill="white"/>
		</clipPath>
	</defs>
</svg>
